<svg xmlns="http://www.w3.org/2000/svg" xlink="http://www.w3.org/1999/xlink" version="1.1" width="530px" height="167px" viewBox="-0.5 -0.5 530 167"><defs><pattern id="rough-6697101665652873" x="0" y="0" width="1" height="1" viewBox="0 0 100 100" patternUnits="objectBoundingBox"><path d="M7.171985521253802 -0.6762021278575484 C5.317243683335926 2.5398167412678463, 3.230532259744547 5.23898635743226, 0.501233740893712 7.650137493690303 M7.248695436252181 0.12027114640373571 C4.71242387752934 2.367088274485707, 2.0534609367041434 5.667172001131474, -0.15509327049931965 8.229481449857413 M18.797837379867897 0.5621853622992381 C11.758773621573994 7.903965687732598, 5.806116070933084 16.76740830864602, -1.277591177584097 22.000437900031578 M16.46648943156857 -0.07926227114183337 C10.227253193634727 8.10007051390884, 4.388741688779239 14.316289174892203, 0.9370648903779437 20.19859372242278 M26.062444192496663 -0.8885980290415674 C16.706203154180525 14.079632194916453, 4.383632532584855 25.70277142391539, 0.3928907223133473 33.637070410289105 M27.476275107133155 0.266488388216338 C22.786838881881422 7.018810113975437, 16.58418581682418 14.427405327238313, 0.6824963619058733 32.563374902802934 M39.56310780617188 1.6397420599123427 C29.474246946566076 9.770518155757848, 22.03492235937424 19.61019042306781, -1.5182898669015614 44.92070342273548 M39.4809433348821 0.9555588203252965 C29.875546860414985 11.089436021329458, 19.95003995714802 20.181654376654496, 0.30615694463337606 44.22515202817973 M47.48791900746979 0.836534588268866 C35.62084476540922 15.278971756760557, 21.701302882625743 28.915240629954734, 1.7180745257138064 56.52675049904492 M49.389673919662464 0.10691743065665538 C37.20586833287805 14.31863144318331, 23.6640269489261 30.10264763409188, -0.5405166328885644 55.649731286146185 M59.63121131448187 0.8149826809585283 C37.38858950906748 26.00364214167146, 14.808801023351577 51.04360645857437, -1.6599451037219675 69.44676820212943 M60.33771836525535 -0.27352388816142836 C40.89031752126336 21.441696293723453, 20.174792121858218 43.737904008044794, 0.5604816107253852 67.8140749495358 M69.35127994170387 -1.1522112131247004 C48.10550102772085 26.04528269563759, 23.68027876188633 54.286744506574365, -1.9582776925588359 79.80221025592367 M70.35785596475456 -0.7451169006226834 C44.2142229796232 31.015811879481692, 17.041851127304366 61.148252625685586, 0.42787267087450154 80.67088354633832 M79.24904180960766 -1.947836197148848 C61.67694881213322 20.410333335992718, 47.60424596514102 39.48468024230655, -0.4945777744314368 94.03941396711362 M80.26642703734042 0.9503451995317875 C53.978798942421285 28.9200176534575, 29.407794164272453 59.130573015578264, 0.6941916881678352 94.1078884924427 M92.23187919277238 0.2792481872617598 C68.88108895678702 27.047893007003715, 43.04877335680133 52.964635238327645, 3.4235798887451834 101.55291730621899 M91.72210460987041 0.37961226472841725 C56.60062691959638 39.25758085891632, 22.2690105883384 78.11078182556113, 4.1899704308512 100.11769606116387 M99.18935235748273 4.255913833558549 C79.36243222935488 25.841672823890843, 60.73279553992968 47.88965080951484, 16.405912678334353 101.78057101421658 M99.4141789571086 2.858542453305952 C78.38101603169154 26.614707920186177, 56.23447207107857 52.566925614106616, 14.725824164757803 99.61667673756884 M100.06767420179635 16.485957119442457 C77.97741654876947 40.22934650946385, 57.12782529915765 64.83218163334179, 27.02275688811247 101.52561217350429 M99.37301266039219 15.234001303997957 C82.5481431223321 34.936899361644215, 64.72848767131183 54.89142975198966, 26.620570922753775 100.29800550135036 M98.74980344316761 28.752876003813626 C82.53100057068978 48.042093596051714, 62.284547296905274 70.06740428746444, 35.84645264179606 101.87214950966472 M100.65906058598671 27.31243983202033 C77.39521611243653 52.09242069126169, 55.68229284409452 78.27034482786944, 36.1365248815007 99.22193729351203 M98.77505559318752 39.84402593053967 C84.1683004371768 58.167821721979614, 67.01983530489599 78.10312725031135, 46.466961603591564 98.03255113580046 M100.24574974720002 38.75734913555872 C80.16954243610249 62.338786728334746, 58.53993116795109 86.99902657816429, 46.1533375890347 99.48412274987297 M101.13280762324766 50.00957827577463 C85.17765461651761 69.54882862569113, 67.9000387385465 87.332772460806, 57.85151738626641 100.5478589113154 M100.69271453129032 51.14109927383447 C88.12781101558315 66.3045550733188, 74.05505564435099 79.36207932679648, 58.1621144787601 99.62214178667537 M101.57569124148996 62.828276463867184 C88.09215258680032 75.49364377698478, 76.9797787509491 88.9335637055674, 68.47797601551892 98.35627444291183 M100.45700206490136 63.85750777177262 C94.40955832238953 70.24654674587684, 86.12546918934494 79.85980114737588, 67.93489359091181 100.68961147562634 M101.40628986145919 75.78007953106022 C90.72597679491567 86.23488629889953, 85.10123640153905 94.12062594969338, 80.13231385695774 100.81099628579933 M100.66818675103991 75.55110587966315 C95.00049864135846 81.19395447437397, 88.36813271781861 88.63098242324929, 79.160157488752 99.4338708509475 M101.16139242232397 88.27138130319044 C96.3145428108696 91.55592856997802, 94.24339539201672 94.58948278431014, 89.43827492883553 101.34987199366884 M100.73063996899303 87.63153075246501 C95.33327372011993 91.91291090439826, 92.37029493741228 98.11696374747235, 89.53741076348153 99.51962334605533" style="stroke: none; stroke-width: 1; fill: none;"/></pattern><pattern id="rough-3377898491603227" x="0" y="0" width="1" height="1" viewBox="0 0 100 100" patternUnits="objectBoundingBox"><path d="M6.283986216711662 -0.7048910701729167 C4.474000150895762 2.4702521385764875, 2.9336730649349887 3.3450092633132353, 0.6458260926084691 8.659916742161812 M6.7548200878258715 -0.4763121327352451 C5.512694243773419 2.010221635574672, 4.023516897888962 3.9643376639909143, 0.3462171060183197 7.498365810799424 M18.411458818545057 -0.9861517358175966 C12.591752570931725 4.52860936017969, 8.734902078407785 9.17513308154778, 1.036643000526154 19.4197923568082 M18.15553494731516 0.9939404094401394 C10.844057413508425 8.248844527007309, 2.7029172879502457 15.135259583095257, -0.6563100942616598 20.5571415970068 M27.6826513620633 1.088141126749104 C21.00019589646006 6.596275099265624, 14.803104218477975 12.036587149818708, 1.712594051488666 31.192561162817363 M28.660528973588875 -0.5740508349045581 C22.086707199219475 7.704349705410152, 15.329519203554055 15.09966052001914, 0.5565639861310809 32.627863138579166 M38.66663022360027 0.7407363721141715 C27.657452522167656 11.915113478619638, 16.9048601690466 26.174124871551033, -0.7429445534364651 46.243720249867145 M39.375517524630034 -0.9303708715988805 C24.99992116467183 15.385261886756574, 11.832117344569847 31.57954182704256, -0.3905909190307524 44.308851138416365 M48.19557277406177 0.3978132683800375 C38.31182881548585 15.519289012121916, 23.704818529561262 28.340211498057222, -0.4882800931063027 58.45583531110043 M49.286353284981374 0.60403923219353 C37.24333699423184 13.561473707029684, 24.401585657865866 28.662910416679452, -0.9443810451014736 56.4877666893549 M60.14449808740221 0.5845791237852183 C38.40673386985334 22.35915574674749, 19.16866008756515 47.76384126199845, 1.0438483141799937 69.85524938021098 M59.282191180513294 -0.18701304138427322 C37.23723059137848 25.760923887204104, 15.949060152460824 50.7983691211097, -0.6761461576533216 68.74177376700953 M72.27764849296499 0.7247386214648284 C46.00162763811643 27.55888270004178, 19.242668999738804 56.83547422720282, 1.5185816943510364 80.74240558548328 M70.78365765649384 0.795749031609033 C50.726122635836795 24.302412069398567, 30.83646626940709 48.13071492845853, 0.7550551449697083 80.34834837362781 M79.19304348468667 0.9275690671693209 C49.44336188012828 38.18694218468875, 17.13411097900565 72.54705381208308, -0.7489272518694978 91.21762571406423 M80.50272346445948 0.7637687205063615 C53.017898134966046 30.70499057378553, 26.700838848684395 61.95286773102951, 0.35140078263173 94.13322935529128 M90.48744191203099 1.3146787524419334 C72.55970272146378 21.943624557956774, 52.62916244556471 46.59378476719053, 3.878246174072016 99.28231140388837 M90.72101551861539 0.5196493149481447 C68.12572436135663 30.804883112065834, 41.47403778059331 58.27748004394618, 5.339634376333325 100.58444459633897 M101.5931833082533 1.712264741764801 C80.55098971269938 24.836440518286445, 61.33695264797529 48.02261262649557, 17.043740957029165 101.34555047031817 M99.59149369619037 2.9850893941638725 C77.7054502307567 26.473663345771982, 54.363149490671375 52.75393193718539, 16.113557026742 100.32596177771097 M101.60372983736681 13.595599801618912 C81.55157099927301 38.22041823156112, 59.90545263854811 60.026982636312724, 26.60527232266935 98.3964385138827 M99.74347778091668 15.700739702298911 C80.53080605676914 35.176021425959526, 63.15338095638842 56.71752402281754, 26.78584469335414 100.06166035734651 M101.30387842262559 25.37580553735112 C81.6514312863103 47.441609631413975, 62.00721772178411 73.46816903546994, 37.06020780785106 101.02239902003565 M100.26478254540328 27.673028080011736 C78.99111031210765 51.17812755043505, 58.746586393834 74.03605160410332, 36.806976233194696 100.28538239117447 M99.5375054814335 37.129000804628404 C78.92339239918863 63.44502618387123, 62.1816439183944 84.89097094587275, 46.14353181903468 99.43592669464107 M99.23879337470882 39.113354505887926 C82.87541286482164 60.604223246272845, 65.64546458810865 79.00549469022913, 47.94016616681722 100.58651258295016 M101.8025165951288 52.668318485421835 C90.72715561373073 60.782460900614474, 83.50723041486958 70.10733612590593, 55.922387913333495 100.9352317760082 M100.9189092367821 52.0643697442653 C88.66598702625197 64.96920955085648, 76.60481960875897 79.60286188561771, 57.16393268811818 99.13541044447615 M99.96167896512085 62.64767944892883 C91.65490343399406 75.53834442370363, 81.30911784772636 85.0019611604865, 66.36492447918867 100.91692091911898 M100.54029363745747 62.76901266815575 C90.3450616228545 74.66267314968188, 80.82871764504435 85.63802776403836, 68.10376304847163 99.1305820167413 M99.74414484624641 77.11698041564682 C90.74875359775216 83.69929802696379, 85.65646868231535 95.7599294870844, 77.85257021379604 100.16987937233002 M99.03485329677135 75.75728216498003 C92.48248352868973 84.76030373041053, 84.21959029546024 93.12025543128468, 79.69023029565638 100.89586246977491 M98.61049927014535 87.67277498858965 C95.78810496354266 91.70717228692062, 91.85995849297107 97.5093712759259, 90.13508872283039 99.21475127785412 M99.98392216883306 88.54810680838479 C96.8881880987401 90.28175454204509, 94.39158621844531 94.54065642581044, 89.56335427141605 99.81309104798927" style="stroke: #000000; stroke-width: 1; fill: none;"/></pattern><pattern id="rough-4854339100718849" x="0" y="0" width="1" height="1" viewBox="0 0 100 100" patternUnits="objectBoundingBox"><path d="M6.190058865085865 0.5400928982647899 C5.023073129804388 1.7037272489591346, 3.133314269850931 4.762358120155977, 0.14863974918680278 7.695658830617078 M6.998561820620526 -0.468689569404135 C5.257914499706762 1.837786520037278, 3.0856429736187563 4.623976757971134, -0.002955724069125143 8.307014328664732 M17.733029064428223 -1.2101860790460304 C11.531988280263759 6.0164021604035876, 1.9789174860402605 15.845952495975354, -1.3637164606568382 20.687201142319406 M16.69076149262585 -0.20126398033185655 C10.65653055085957 7.272852034189377, 4.6624469443643 14.491793204133561, -0.48366958384662073 19.505413354515333 M27.950683336542323 1.3071392991268107 C17.1247468355907 11.663583552128092, 7.608679813656688 24.856931801845178, 1.3117303539026803 32.55466061415895 M27.05935254583625 0.9190261786078828 C17.861784287431156 10.865693291561108, 9.683738241972017 21.48665533619156, 0.46176826839469776 33.117212907149806 M37.48657880542337 1.1389176934161638 C30.387101710001524 10.97770777425029, 22.631004845365222 20.167715259854496, 0.13445635250432808 46.12582260397146 M37.65141243471602 0.667652021219642 C27.249101478852417 14.015807916259002, 14.974014974466458 27.96843245400521, 0.6061156096355234 44.143217079412224 M48.50761976301331 0.6975741605776733 C35.7965311529493 18.645476972734624, 18.172207802003 33.55592377191638, 1.8813593894058371 57.162213314112876 M48.487415040908814 -0.6622428664691524 C33.28204678735697 19.07070065964112, 17.280136386447293 36.80850100149859, 0.6429146660769853 56.88644413557572 M60.7465669389026 -1.7513649492062697 C44.01063524801996 20.20872822273781, 25.083962815699767 38.64043702637307, 1.844466628627055 67.44241569691695 M60.18896555591296 -0.1838512589132817 C40.01449506215345 24.3400553774653, 18.003654762394262 46.132050585434435, 0.3335562054972394 68.94739451512993 M71.30439442544997 -0.29688961687924476 C54.17397481844178 18.517789233881853, 42.090306176741315 32.471220304573556, -1.1573272610639975 80.83806552056191 M69.72846565111466 0.6784962677420152 C52.13403751587927 21.183044072137545, 34.00992121364127 43.30076765614785, -0.24656284049497046 81.14119087535984 M82.06505483862078 -0.2581646371729507 C59.997564036820215 21.581154235439563, 42.44568104244538 45.75073288371122, 0.345232254757315 94.6219404753366 M81.21765119230591 -0.060753287949115276 C51.068005049543714 34.44008104321755, 21.44809573919943 68.2248660138486, -0.8558455478669464 92.61179597008866 M93.3318786422924 0.5362324233060107 C73.50084504342051 21.510857119687905, 53.52719889899659 44.4393460491674, 3.4688942389668593 98.85339336662518 M90.82215687712672 0.18760862702133396 C61.66502147811385 33.710486546867884, 32.89452629542193 67.95196082014648, 3.9559138219808903 100.40740364943238 M98.67963578030793 0.9117114839284008 C79.75862556022535 28.072910162869047, 60.724012397870375 51.09066936760946, 16.1124790126834 100.20399079064707 M100.73666500316024 3.3503224496648727 C73.1652692191211 33.68003621384871, 46.11685545125479 66.71328343449049, 15.058462393277404 100.48274258466576 M98.87401454957663 14.258462633951286 C71.49186379611731 44.57067228747206, 47.01159028521136 75.92102184173021, 27.622256994230902 98.50550193898758 M100.14709364895609 13.774196201937828 C74.59746410357647 42.866992871825346, 48.54272491002766 72.68121576474421, 24.91347728418166 100.05683257053124 M98.78885921764572 26.578877657627913 C84.09107340848912 47.298494128906704, 62.78209056774162 69.17641237676594, 36.116604442858055 101.9348477228267 M100.81497898890798 26.31638772394895 C82.72860902198164 45.96318907164282, 66.71402987462449 64.51238328080346, 36.94865611213228 99.91338981500058 M99.50894819161113 38.73454749634258 C82.56305563979329 61.9640873255415, 62.74798978127142 81.64130744171602, 45.350046733340626 99.55567610188879 M99.86780002593157 39.87189618345886 C86.23231013373285 54.469873722164685, 73.64590657242432 69.71534406957022, 47.94554672398322 100.94687061601154 M98.65430617355169 51.25060321921322 C89.19504690342063 61.35340534506457, 82.15999854544931 73.14168025575948, 55.97658066144395 98.91270395140087 M99.17112177880942 52.12449317713314 C86.05301462716689 68.21658459564425, 72.45529254193009 85.19290862341578, 56.69825783761691 100.20217811128803 M100.40490212667665 65.12408376332368 C89.79370377791709 75.77390251212114, 79.39052345606488 83.27749522519449, 66.49203476597005 99.19081958392621 M100.32294252185963 63.18595174958835 C88.02714394042356 77.309659000639, 76.61770114385837 89.41575488970552, 68.19130755093482 100.35543880595786 M100.8557994324168 74.37751648184934 C93.07255544231778 79.70868054643171, 90.92552293895302 88.22552579677095, 80.26711264286101 100.5297857844378 M100.04430733837052 76.51634695360453 C92.55111835198079 83.81718583541094, 85.63411415184653 93.85124632367643, 78.62707572436811 100.4693011647361 M100.94640720167601 88.82311735843732 C96.0723116564053 91.08600586535397, 96.23414430809972 94.45811544382448, 90.50600102161125 99.54961867214948 M100.17794166840461 87.5489495648191 C98.02446822381467 91.32427057426735, 95.27087712504792 92.97873906523799, 88.92318884714227 100.30189432276815" style="stroke: none; stroke-width: 1; fill: none;"/></pattern><pattern id="rough-7805708823514601" x="0" y="0" width="1" height="1" viewBox="0 0 100 100" patternUnits="objectBoundingBox"><path d="M7.107993783920804 0.0840401172148948 C4.8642388271679184 2.7845939974453664, 1.771393914888903 4.693253205360948, 1.0256919302950438 8.031793415252741 M6.831214527621731 -0.21369097305221318 C5.137221969776687 1.9912257289891682, 3.2296877372358597 4.539385182818948, -0.2555500767659702 7.4293197113993505 M17.217828671661756 0.48171562433568393 C12.361930367951889 9.40405933851271, 3.2395685367186156 15.35628454002855, 1.4599585136866997 18.156467386014405 M17.29564169464885 0.4890961883657754 C10.489823842314006 7.924788207950867, 3.62451446840137 14.85427294171226, -0.3467119850972664 19.82207006436262 M27.184661430696853 0.6232042354628069 C20.71649072524565 8.39692239536782, 8.89704399291708 18.904750775046825, -1.6105050376431027 34.01967984799937 M27.09203497931908 -0.007930860067795642 C21.29873639279783 7.2198170771745165, 16.367179401658674 14.165552683526588, 0.4025102885510705 31.5080311797933 M39.54771846524509 -1.5067234833939969 C27.091935439645027 10.813947056254321, 16.422432989361194 26.965382726855967, 1.1494187452788003 43.561596600583975 M37.71803171321884 0.06075341914010135 C29.96462060530477 11.251712815025561, 20.172395200385818 22.04524041565196, 0.09243529208217005 43.50925971505292 M49.15690872685584 0.23620775829274177 C34.01566340062207 17.414930354628122, 20.051674520226626 33.5122895317352, -1.683910447444208 55.957586160678765 M48.86236301759611 -0.5574200814271406 C37.5016328431717 13.75073336221057, 27.487677804643354 25.011680400190347, 0.16925383570361996 57.476424991628605 M61.732647758631636 1.601532805603319 C45.235687042041235 16.277610791452467, 28.439182024875805 34.713069113806625, 0.956069201469103 68.2982388956223 M58.87464775909038 -0.6670013720422783 C40.95604498247991 20.894653633162033, 23.502170375682155 42.966834484339216, 0.28891334802166835 68.54967840297171 M69.32238177630636 -1.580028275094426 C50.783791711003275 21.949270544069638, 32.647950725515024 46.86534379673154, 0.5666330515590232 81.4458934915472 M71.00819246019101 0.6703593831032397 C54.9619267157087 19.30000153668729, 39.26754669363253 36.57255398634107, 0.4743669946631863 80.94623258083566 M80.31550464441518 -1.3248473344581697 C50.17655827275342 34.41858335695353, 18.806011447135656 70.89094148392012, -0.6033286461495706 92.83299658602476 M81.9950938103418 -0.6564093052021165 C50.75563775285964 36.24280114298938, 18.941763893260553 72.59363335549737, -0.9095094887203397 94.08994800308969 M92.70054849650955 1.6463359309936685 C61.75789330745506 34.55411336249413, 34.50676085982526 67.99744942574175, 2.876239247757116 98.16202082954709 M91.66167175767237 -0.021239361894468622 C65.01649727768931 31.892214836805262, 36.486490867378535 63.25750832954397, 4.7757872025481145 100.2883471813668 M100.1415029802587 3.912795495948753 C78.24980818997795 28.429874771772297, 53.358721079509095 58.475446055565584, 14.288839839840813 101.88572907771169 M99.34098461673206 3.066194273690345 C74.85219347943814 30.037300733111724, 50.51771619917344 56.45133553459991, 15.320964842416274 99.42418457927947 M99.89174226274247 12.887133595569217 C78.75663322858817 39.77600092695337, 58.7481737611341 64.00588960152741, 24.622165612408637 99.14707286991428 M99.36608861224363 14.489587920358941 C73.60290718189349 45.81763944797812, 46.41299588308591 75.87465400981124, 26.317647939961546 99.23685065180126 M99.17668106664739 27.226234146594162 C74.597877068752 54.30110650734358, 53.22748161308316 80.30332845986189, 35.220711064241705 99.35465597025723 M100.91149397905225 26.851378940551648 C78.57254383629642 52.65733170301388, 55.98086832136052 78.83618116154109, 36.57524782580153 100.90778878799193 M98.75165229848571 40.703487031845285 C86.418778178949 57.23489460905137, 73.60711934504624 70.23773287422979, 48.24490075652304 98.4982510599863 M100.5585267102357 39.04096851768692 C85.32786033015485 55.47249947512129, 72.5545972280654 70.22842173658442, 47.19079269007422 99.49692722007183 M100.21686629743948 53.1724776139275 C90.03939709269632 62.02846153902006, 79.95947647677855 72.67973870904171, 56.21112029260586 101.63209250581184 M100.7211319541907 50.85527798259059 C88.5846751711296 63.55087536370113, 78.30407795010927 77.32168289702685, 57.86388582281635 100.36322467899835 M101.07826344331268 62.40582732092345 C91.42154317653859 69.69160742770009, 88.27630183089846 77.93619134140833, 68.17811299598772 100.549222819607 M100.44872312299469 63.81351566124808 C90.55652517795885 74.79101246673726, 82.80017297974082 83.44239892056368, 68.50937445170683 99.67057783181365 M99.39314488145502 76.62736737890619 C93.1927456475013 81.89226754014058, 88.30404654340215 88.45310992780324, 76.92127469403692 100.41765875139855 M99.49942060178024 75.49132131965679 C92.14915524060314 84.95598709802422, 84.05311572305236 94.80811136386329, 77.92380413337705 100.56563851043562 M99.14001146380639 89.24437301925488 C96.42350826585684 92.3022679829684, 94.17916751156228 96.78349834130577, 88.61039027217751 100.61504529449715 M100.17829698607163 88.39253960349441 C97.0651831607424 90.94679678397753, 95.35642535141864 93.3580003593073, 89.38056834986517 100.29775222337635" style="stroke: #000000; stroke-width: 1; fill: none;"/></pattern></defs><defs/><g><g pointer-events="none"><path d="M13.380412060991244 34.647016748909195 C8.690072657758561 37.31123546976013, 4.949131998128473 41.10835380581147, 5.301738206675133 44.718215545417564 M13.34554947478084 33.86579895543681 C10.237589160905015 37.94255349835254, 6.665572427924195 41.310179309218455, 3.3908158158889266 43.93344281710327 M24.04557073272316 34.23235275466947 C18.21444622782215 38.911823884172904, 15.115907455924916 42.344002206764486, 2.1932412259399916 57.25355693623891 M22.809410537343435 34.51573388504625 C19.090914405008142 40.272134918235324, 13.970074764106707 45.04642685032903, 3.5474807375378337 57.0270084535344 M35.22333184438815 34.86601613917293 C25.955149355358557 45.33347486911843, 16.84516032044849 54.089984332205745, 5.720775766325305 67.6605229915568 M34.138371205280485 34.196206874776266 C25.397494430942633 43.57158095035293, 15.904993395735678 52.82177594567833, 3.310200499877794 69.28945866710508 M45.55516823386901 34.00499141558115 C28.378015294776638 48.39366418006023, 15.513380013129012 67.02490106822145, 4.006427013311089 79.78143966138708 M43.643000508170275 33.21041721543979 C30.616461634686942 51.1427942515635, 15.81349841324612 67.68349340092955, 3.2351924236450222 81.25659875192518 M55.24856493582955 35.36074782277069 C40.75232787728201 52.9225416217669, 24.090926446953336 67.11856738748625, 4.748959103243566 92.38178640726605 M54.46540646873228 33.201027700286566 C39.97281939547441 51.17521446292793, 25.936566189357652 66.53859993873323, 3.49559489168393 93.39842282489235 M63.734630798280335 34.58448997634441 C49.86130341826507 50.94794095804661, 31.183800546966406 73.30366558634894, 5.760860859733344 103.30117721572091 M65.57888235425305 34.217921366838354 C45.62487226244885 57.84291817958711, 24.485141897180835 82.27638392883732, 3.7009917013140905 104.8666133270344 M77.20280876103261 34.49794854492318 C53.22088287265978 60.17647914658038, 31.70058795806778 83.11997798782612, 3.748591987392052 118.11325777545568 M77.24262544454841 33.169351137238785 C57.91229896645759 53.632778495235684, 42.22757941202825 73.19457350556286, 4.8563377621124 117.49666662604267 M85.48977157958545 32.32499371610494 C55.57589580156964 68.15275588786149, 28.688702094525738 98.73017251154992, 4.016345897812498 128.87655031718677 M87.70534206467721 33.78092544639012 C57.84259816839834 66.70025334899115, 32.328033382372254 96.81217382405497, 4.096879800750206 130.20189922396375 M98.62820067428257 34.762529590982965 C72.76972997129191 60.10448610706743, 51.115364228318676 89.74396381409325, 3.491274033048801 139.98295190884033 M97.08028990102505 34.64443780864873 C69.11719426954143 66.71611958935895, 41.30763978503418 98.81347057159518, 4.679257309021779 142.23831321612366 M107.33249048426197 33.977257298891296 C67.58482892871395 78.31980126806262, 28.07486934685837 124.17905359834813, 2.950771821098015 154.63220152277333 M107.73917862174395 34.57262227064389 C69.33608062481834 79.36323508881156, 30.492403478734914 125.06926999937764, 3.7848876037729875 153.56906007415154 M116.87162800119893 32.405500562306585 C91.63615951254084 65.74600367880774, 64.24299766872912 98.89810836334237, 12.897541265054958 155.86638379887123 M118.90161090412265 34.68742750803577 C89.42091714926707 68.06839644383984, 62.42388438964865 99.15556470870207, 13.464774300586287 154.1014529167033 M127.31686468178027 33.74431568724492 C88.59083610293739 77.33900502427537, 48.80342330700631 123.37292763194134, 24.67863055983417 155.467426273775 M129.28113474555764 34.8911227169884 C97.89307538027568 70.2293011279191, 67.70869276094142 106.54360189868781, 24.176210843859327 154.1697695826818 M139.1285367432175 34.99179682101381 C114.17421742225693 67.29606343771904, 85.25731735128777 99.49633174343228, 35.39896329121993 154.44485612769898 M139.0733750134913 33.57662014071678 C98.62875985318261 82.27240426211445, 57.674369037343794 128.8544204573646, 36.313618627970634 153.0109854556814 M146.73267826810456 41.53554111108699 C118.36291056509934 68.50639122176679, 93.99661700021811 98.46608409871178, 46.97206285680637 152.00204217389975 M144.51527466368003 40.20565137729034 C113.38038762564142 75.80984764953354, 81.63329154501544 111.27442945914336, 46.088383042188724 154.564303890158 M146.72571316458004 52.98112631114047 C116.04534988765525 84.86850646475408, 90.04839509191527 115.1960483224198, 57.551329197621705 152.28238977490378 M144.37902792654882 52.69754066509264 C110.69944879275458 91.98943471270816, 76.33038771695972 133.32140429793938, 56.38332703970897 153.30129708393684 M145.6006029541579 65.98907088688011 C125.97791856260383 88.80795559093363, 107.40190579287275 109.8127534906922, 66.06481086526067 155.51567699256256 M144.48836127717001 64.36852193146424 C114.15680412501304 98.29652436525373, 84.54180926220367 134.08564371354274, 67.13686932540315 153.00585062011618 M145.3386408691404 75.01305792927039 C123.46445350582188 104.36585959165319, 101.37625623439634 129.1796577745861, 79.08208049444447 155.27814369989113 M144.21175893876725 76.90532851488838 C130.45021049658732 92.97960156155621, 118.06716238540415 107.85798395398541, 78.17735970407415 153.7174562822238 M145.35834996355655 87.66867183240392 C131.56206646743638 101.75892311013725, 121.95880060209143 116.23598851007908, 90.2871192191925 154.35372838642928 M144.37806439360327 89.41108733530173 C129.20249079597045 105.56895915302071, 113.12077867911994 124.92338927944746, 88.17078141602269 154.70027013111763 M146.47190139183746 99.79672568558465 C130.3856585467798 119.93543262804879, 110.78534807856245 139.58158358201854, 98.88738955325906 154.6702695075082 M145.6032971169802 100.43522640267946 C126.73050970704877 122.22451778173466, 108.27724819353955 143.98351432164895, 98.68001316334592 154.8434108086547 M143.3673809831925 111.55789559699613 C137.24483500545585 121.56515605460075, 129.66688585995425 129.552086721305, 108.33521868969058 154.32873365931573 M144.08501112603543 114.4897256471687 C134.43425723057555 125.72660162173868, 123.07084966590442 138.43259136256486, 109.36579567264059 154.8061278758829 M146.38265280615641 126.85865879389645 C137.14780395394817 135.1004766602188, 129.20020130265394 141.70530298581457, 119.09259295334763 154.82659131170354 M145.15893742466605 125.21834424702891 C136.9985672438288 135.6914751850663, 130.07470596935337 144.4631579159981, 120.63486708249175 153.03328434677053 M146.33191668773563 137.28255729551603 C139.55686510141243 144.45157352028954, 137.66799730316345 146.62066504946884, 130.52162155672875 154.20298742390565 M144.60793711866745 136.91067677060386 C139.94313369206296 144.31152731590032, 134.39686207398447 148.88184939344816, 131.43455722404462 153.14044131183832 M145.1923106562341 150.1508027128777 C143.78919225485143 150.56371377955244, 143.1707648674515 151.8078901232004, 141.13344411718896 153.58247802874257 M144.99682677045155 149.90437800903499 C143.79544875269542 151.2779967413374, 143.08656090909017 152.44096904061115, 141.73092530841683 153.86148105034815" style="stroke: none; stroke-width: 1; fill: none;"/><path d="M3.1193086520664934 33.003364100425536 C51.52690837993458 34.1566807643572, 96.31082313347092 35.79329497406612, 146.9666348146289 33.52866174853637 M4.996666805732465 33.129190068219636 C37.873804990212996 34.7595084755833, 72.6413624017686 33.29036389999511, 145.1442461574605 33.866901186196756 M146.5769474707296 33.79525539438288 C144.1108232616764 66.037718604152, 145.6242555603749 98.87357199024322, 143.04337464954367 153.85734568148712 M145.96426491943197 34.04156842307293 C145.76900530575125 61.41849877993596, 145.18150906846543 89.90684712894513, 144.2828429919465 153.29917138705082 M146.8280858784041 154.64658416337483 C99.75634634794766 154.2843716293288, 57.31450744292333 154.41440291530677, 5.3047002592479 155.2317590143392 M144.77922236301876 153.77236502612467 C94.60506407784624 153.54911177509402, 42.75056914770707 153.62580278840576, 3.1370326245891724 153.93730927138057 M2.0198301826576355 152.77185400267996 C6.067438418868646 124.61119306573246, 3.8157140740674853 89.99951726221242, 4.5724255464738235 35.469953011806425 M3.9184033034124472 154.77732285863186 C3.984632744823714 115.86318049897513, 4.509006236518365 78.32697038258993, 3.6475494379225815 34.367837860233806" style="stroke: #000000; stroke-width: 2; fill: none;"/></g><g transform="translate(59.5,7.5)"><text xmlns="http://www.w3.org/2000/svg" x="24.5" y="-3" style="font-size: 12px;font-family: Helvetica;" fill="rgb(0, 0, 0)"><tspan xmlns="http://www.w3.org/2000/svg" x="24.5" dx="0" dy="14" text-anchor="middle">utilities.js</tspan></text></g><g transform="translate(429.5,7.5)"><text xmlns="http://www.w3.org/2000/svg" x="34.5" y="-3" style="font-size: 12px;font-family: Helvetica;" fill="rgb(0, 0, 0)"><tspan xmlns="http://www.w3.org/2000/svg" x="34.5" dx="0" dy="14" text-anchor="middle">application.js</tspan></text></g><g transform="translate(13.5,98.5)"><text xmlns="http://www.w3.org/2000/svg" x="0" y="-3" style="font-size: 12px;font-family: Helvetica;" fill="rgb(0, 0, 0)"><tspan xmlns="http://www.w3.org/2000/svg" x="0" dx="0" dy="14" text-anchor="start">module.exports = {</tspan><tspan xmlns="http://www.w3.org/2000/svg" x="0" dx="0" dy="14" text-anchor="start">  clip: clip</tspan><tspan xmlns="http://www.w3.org/2000/svg" x="0" dx="0" dy="14" text-anchor="start">}</tspan></text></g><g pointer-events="none"><path d="M392.592557767326 34.295786894030755 C391.5087548784096 37.79019605042903, 388.226057733721 39.98530511246658, 383.2033514196511 44.28580780465451 M392.3185753783295 33.43863590840734 C389.44612099196155 37.57704718048733, 388.06872177907604 39.67637924332295, 383.34197529876303 43.775879901562135 M403.67029761943013 32.38772103730785 C396.1735480393189 41.891660780811186, 390.25574266049966 48.38383314792961, 385.71851053472363 57.803242074503 M403.8732348330989 33.96432560270787 C397.0211354787792 41.04114339513582, 391.5762230634782 48.28975938817784, 383.36384080033145 56.12194435155257 M414.81864665648317 33.44795892321651 C404.0588733154097 43.98355769775858, 395.99833682497734 52.531720459310144, 382.9286962290977 69.2584181785716 M414.7326027068128 34.415538308231554 C404.29227305153 44.06561784752381, 396.13094783176183 54.376595641357945, 383.5643386238401 68.7232475126129 M424.6606880302607 32.31057223173501 C409.7349219869715 53.06785016938481, 393.61594120693223 68.62001935631224, 385.6906104039495 80.17978113378801 M424.53975996985304 33.955804785557525 C412.152345057583 47.368288884869074, 399.9720145258007 63.30094395096087, 384.3194574057657 80.2051209854133 M436.7250027454829 33.14604029320333 C415.28919944967635 54.89641215300895, 395.10047844249254 75.62096004561344, 382.2216282019494 93.5184412343915 M435.44682865055347 34.907161088281626 C414.61210939897626 56.3228783066445, 397.3496997738063 77.31788622378612, 383.98494097263824 93.02830583186342 M444.1799752120702 34.684225848683944 C429.21624894954124 53.71184084142359, 412.89396731583605 73.98082721467124, 384.28356177963855 103.29112754298787 M445.779539227463 33.24913765405459 C425.7673727148846 56.784620930217734, 406.5556238458768 79.42530351113092, 383.5095508655526 104.25631770274614 M454.6326375968807 32.502999338714844 C434.5821772592515 58.70776360405579, 412.52280360618585 81.72010704367881, 385.65622708547227 117.53711985726471 M456.4902309786059 33.576419396542434 C430.6295548244619 63.86090960526296, 404.20054455204337 92.8167329008737, 383.72039161238536 117.3012645846768 M467.71974672212053 33.337990370112024 C434.62077931826093 70.57610211182043, 404.6897600003525 105.42901054346622, 385.1752361072052 127.62224476104088 M467.55468154681694 34.882345189325484 C449.37623018980713 54.61998914240188, 431.56028554885273 73.98662239543229, 384.80851178353316 128.6110345446576 M478.4811579283335 35.456158148477265 C444.2800616264465 73.98197979397307, 410.0502811174618 115.82668044500794, 382.2057019919357 140.85231219080538 M478.1699206600987 33.82144884740882 C449.3388935575334 67.22685357280321, 420.7058946636477 101.10758996603218, 384.7065285531923 141.97309551929987 M487.98933881997897 32.2302181140712 C450.27192634973056 79.21966442216828, 414.55118653515075 120.81036482568751, 385.9930476604928 154.2330320247729 M488.7952329229934 34.8087271051493 C464.771554295304 60.63533605664451, 441.4214905739034 86.4593735851704, 384.3143723775686 154.65411611502086 M500.0256558946045 35.93220311162656 C476.93338963770975 58.83754274608699, 455.55571191076314 84.14838983957523, 392.70905178933066 153.08267717461982 M499.51626494454166 34.8460804532195 C458.85934934697724 81.28239169767234, 418.964215293774 127.43494053258574, 394.791677782827 153.84756574764273 M508.4039274741536 32.90967166995946 C481.5764544846432 71.33007392093317, 449.93096886993806 106.20770442692293, 406.24594027546044 153.48219800655687 M508.3820011339174 34.372130374333096 C477.22117700636846 72.3414438664608, 443.6855362587337 109.8314281049227, 404.3667713728303 153.5957804714761 M521.0836296891675 33.34888192854816 C495.14768005824084 66.27437438513905, 468.60705578139806 92.85105892616714, 414.8605456911959 154.99948249569596 M519.7971467156665 34.06800455822361 C496.0760630718565 59.603509968681415, 474.08542341338836 86.9513402165087, 415.0423039435478 153.08698354554423 M526.6732322936559 42.10783105113075 C487.09490245273645 83.6465479525977, 446.9064603669022 129.4796310314216, 426.7593674777389 155.35760227010638 M525.7196511549091 41.26262718723909 C485.6624389452136 86.00834239044232, 445.1592563846458 132.55454113419685, 425.64218105871817 153.5614010398521 M523.8938530058097 51.699026075268364 C508.24755642176183 73.0001766193152, 489.5660778321391 91.92111838829176, 436.4532213176187 154.02506372002532 M525.46039440166 52.347832060401686 C507.17466135731235 74.58102168029887, 489.41878039199867 94.68568768250934, 436.76452037034835 154.3248984072015 M523.0737792324244 64.62577897221239 C502.12704088447396 90.29570205990035, 479.2188618052176 115.1783563327242, 448.6132253666773 154.83717984887187 M525.541793882954 65.13969227798071 C506.7131020921099 86.37060848510747, 488.65434617282887 107.60835872180732, 446.4923916034745 153.49535441037867 M525.0712202982788 75.42154240293263 C510.8784591606059 90.62659422086283, 496.0694135050438 106.49767723961294, 457.9629816590047 153.91928099625858 M524.5000088173337 77.5833115123952 C499.61507745773037 104.93459021783856, 476.04698914661316 132.47861019170296, 458.83865676355055 153.13403772631358 M526.0900106253289 90.81242185306985 C507.1438925544495 109.0018298509607, 489.7375064959152 129.9715580322088, 469.96730005255057 152.34933909383054 M525.105749136631 89.42288249529118 C512.4752980728173 104.80175226720816, 498.678072773368 119.04016107512298, 468.9180909463286 153.9433657314211 M526.6339272345792 102.51332304114851 C509.3074415106594 117.83403077730293, 495.8795721618817 132.58858298452452, 481.0741235587005 155.65352579876247 M525.2562674503763 100.50907575641573 C513.1293114515906 114.11236638221318, 499.4449713375624 129.21333662544166, 479.0740605322365 154.8607345045691 M523.3894202543066 114.98908323858886 C516.3873229250422 123.5265492232063, 510.95027759325876 129.0202708120532, 491.03643552293397 154.7851553191428 M524.2654261811425 113.12210525407501 C516.8825066415728 124.70352695232116, 507.04864708292524 133.85758583578746, 488.87475436614216 154.29412060937847 M526.9222932137321 124.88958402271038 C518.4160641551202 132.69409937444826, 514.6024053103891 141.29771928507188, 502.08389165815896 153.13997809665207 M525.3013977333403 125.02646594765993 C517.0811797332905 136.2421889981235, 507.22951964506444 146.40026594634327, 500.69098382433145 154.14568147088985 M525.2844320373787 138.05308458901527 C519.2757968659116 143.91417108845724, 515.6111021194051 145.07631936622644, 512.7485812466281 153.11980419992986 M525.1129173030262 138.10589266568084 C520.4177500388744 143.03780367236396, 517.2927402600279 146.14306484390377, 510.13511034623565 154.12337245710927 M525.1746185114154 150.3512283042147 C523.8044500339425 151.4578249457961, 522.901945399497 152.2261920223925, 521.769346832303 153.78250362784587 M524.7738950922001 149.89485520048225 C524.2253828218645 151.197229907555, 522.8863015349251 152.5598727976944, 521.5221952264932 154.0132352364585" style="stroke: none; stroke-width: 1; fill: none;"/><path d="M382.16932212810593 34.384234755720556 C431.26918331050416 36.32061264075811, 477.33653193873084 35.08030652143252, 526.3391003754351 34.07220898290364 M383.5868588428498 34.89920362879881 C418.6604243359057 34.02827414517093, 453.8506077873592 34.77038716169531, 524.1147947978873 33.680227301835245 M523.9705581397408 32.302833076462065 C525.1887158552157 67.63013826500135, 524.0527955724341 98.78930665410616, 525.7144831905165 154.33118641282582 M524.9851733004913 33.74984478772335 C525.3206759832277 67.92224452189382, 526.5454115941571 99.47360906708434, 524.363189409421 154.9629613968122 M526.7685392733482 152.33229755621505 C482.3035006088784 155.0802851715262, 435.31132142485114 155.38431816837794, 382.59748047558 153.85614307570987 M525.3164467684445 154.9271415706356 C482.62354580878065 152.20305683385376, 437.88224548711315 153.62803535979978, 383.57109939979944 153.78026972491864 M384.79003106784893 155.41054753925582 C383.73066999347327 126.60881628789038, 384.39059228547666 98.88429511485455, 385.4590887017891 32.798534256339465 M383.45502932734263 153.4568701419944 C383.06237213580977 119.0504267875951, 384.30449433429146 84.89941856048083, 383.3885373184265 34.23199018945912" style="stroke: #000000; stroke-width: 2; fill: none;"/></g><g pointer-events="none"><path d="M188.99327902124412 64.38936184606973 C187.69151495527862 66.32653124255404, 185.6816762348858 68.22693641842564, 183.69434810478094 70.79067056261658 M189.63919652142158 63.737706160954794 C187.64232106230006 66.03056406592324, 186.6288530028251 67.15155995498642, 184.34766330298237 69.93083481136419 M198.1157269845197 64.43904057269712 C196.3382965374033 72.33996320996059, 188.57967325091164 77.68524914002015, 183.3532414858919 81.62633589028631 M199.38185808080848 63.44507467098694 C194.59769300650535 70.34772672901408, 190.03653803518995 74.32140587499534, 183.29854485440336 81.4998943409931 M209.88375875287406 64.02308333086987 C202.98088362371317 70.984829390787, 198.1079023567774 76.48350837448254, 185.07685364878458 93.50058971592699 M210.9580084785333 63.31739442973755 C204.42197379413614 71.13754688194021, 197.8770366876823 77.54998460916013, 185.2249437068603 94.15367338013777 M223.16202361476977 63.85251379761097 C216.14475709295493 71.5999495273422, 206.5479982090779 80.60338041364788, 196.81555808887046 92.07594917550584 M221.11008373212235 64.40894772958977 C212.8937980894788 73.77766805665208, 205.49291668848028 81.3493900171365, 196.01297420596057 94.65618460190282 M229.88265154603835 65.93683438934345 C225.69009430919652 72.8567725930334, 221.0514736179614 78.9773014673362, 206.4079090897884 92.13551284076914 M232.68657070527453 63.45927448622129 C220.87639092171614 75.61035126831867, 210.8164121959008 87.08923770963776, 204.87790132141788 94.48999694390973 M240.62624065032819 62.68914725680674 C235.25160473656035 73.28359969558436, 228.0002402417631 80.26920627637794, 218.2703813318176 93.27496499805527 M242.5162517130489 63.17056682517625 C236.9573055491715 71.13865600673084, 231.54890485419827 76.63882647480206, 215.55452635326742 93.23978650909844 M251.3496505402207 63.91103555544822 C244.99161145820193 73.09598760108611, 242.11717856589783 77.21614078894638, 228.27661907133484 95.08341462665528 M252.26648302362534 64.54867222356364 C241.7361206481554 76.39690519329372, 232.28419956111742 87.33715607595907, 227.80075416344312 93.50079622909884 M263.6580977350447 63.27276416332274 C254.84329605739526 72.07620588962381, 247.3407535794659 80.48337714642318, 237.0479756682218 92.62721727228984 M263.88798567471275 64.65793708397368 C255.828934337727 71.63472577948829, 250.14556218228432 80.37426809509478, 237.80982041222688 93.35058853915366 M264.7111963638302 72.6186157213335 C258.2739809050947 83.82621053383487, 251.73581181272635 90.93821223576445, 249.42624333010895 94.45733960597832 M264.85760492373305 74.33205209528174 C260.0474377997057 80.03013970411584, 254.0500639485859 86.98744151770008, 247.39739326833057 94.6156733800286 M265.2751393661576 86.49198785261036 C263.20686041417736 88.69048248138346, 260.15308601718743 92.71173106541809, 258.7663701677068 94.35543639445801 M264.7245701423978 86.95317349064683 C263.192917957689 89.468582249956, 261.1828039833301 91.0088600418325, 258.2909760652601 93.64851617704431" style="stroke: none; stroke-width: 1; fill: none;"/><path d="M185.89188716730487 65.19916815525342 C209.68604999914643 63.8128533015861, 237.38309155520784 62.52972224632124, 264.97857664891984 64.05681176884583 M183.7329795916519 64.81192950263872 C209.05611947293053 64.32973920477684, 234.53480390383604 64.4251203788187, 264.10126878705694 64.69412030449709 M266.1797678252734 63.00346062253686 C266.17845211412674 72.2858974745508, 264.88271242153627 82.4412504882013, 263.0145646071328 95.55619417043161 M264.80068656220783 63.05878316319227 C264.3715089346045 74.55045551638369, 265.74733935165074 83.97548279191764, 265.8550650260374 93.96863371222572 M264.5166704086209 92.7642661568157 C244.2977621583081 94.59532190664895, 221.38379562876014 94.54580792347838, 183.04426303117594 95.62061706283859 M265.71985626599985 94.29395899543165 C235.94054043725237 95.0222473610298, 207.05294391351305 94.57550825232899, 183.9024095290749 94.94350355614512 M184.8361952171057 94.81346769406542 C184.53947644798612 86.72648141786004, 182.08748648406777 76.88335292230104, 184.53915532378952 65.62744285242407 M184.57903353690133 93.53260251053091 C183.3515930314413 83.47652290116085, 183.04153056060812 71.55976567723627, 184.82864774530142 63.20036533382614" style="stroke: #000000; stroke-width: 2; fill: none;"/></g><g transform="translate(213.5,72.5)"><text xmlns="http://www.w3.org/2000/svg" x="10.5" y="-3" style="font-size: 12px;font-family: Helvetica;" fill="rgb(0, 0, 0)"><tspan xmlns="http://www.w3.org/2000/svg" x="10.5" dx="0" dy="14" text-anchor="middle">key</tspan></text></g><g pointer-events="none"><path d="M270.1886275426681 64.04200076459155 C269.0814573929352 65.57791475647315, 267.72903416436714 66.92489723113582, 265.2631852349583 70.34666445430845 M270.5456531586747 64.32907041215411 C268.57958801405834 65.5166920307017, 267.5199790164332 67.1170549747769, 264.6501347624043 69.88242025861503 M281.3518381514445 64.44953865243706 C275.06232308168336 69.27541089234916, 274.75388505214505 74.45705645696401, 265.7797945265101 80.8996158112086 M281.5770111918181 63.51036294894257 C276.46367187204 69.10243837489227, 271.08850275457235 74.87290626684874, 264.95988597238664 82.02849235891497 M292.86314697037886 65.32277216596232 C283.42338548614333 72.43665338874565, 274.89505191258047 82.14196197256962, 264.31668063702955 92.88253280893669 M291.80235684429573 64.43379027541054 C284.9922273834747 70.60555790170258, 278.21652770581994 79.24279958981487, 265.6480196344139 94.67931438715665 M303.45136998385806 63.57835669966469 C292.91131064820075 74.32536880642591, 286.3478186145803 84.43663975536815, 276.06832538667226 95.0251869786685 M303.0558771183994 64.70671327123723 C294.35604883274215 75.33361874075966, 284.12302104330274 84.36507902736, 277.1303068684407 94.57477326199042 M314.19879176226726 63.45977447597448 C301.0080646341561 75.2148031524482, 292.2145119907254 84.56429281927069, 287.867869966548 92.69219179278541 M313.63059129892866 64.71404371037269 C305.4584278505597 72.47493928092305, 298.8840219141168 81.77570068519196, 286.6197420350933 93.01790013588366 M323.3552676967673 62.65483010304645 C316.58379743187106 71.66208885100549, 313.33360565097405 77.33651132780963, 295.3663368908757 93.40221363606058 M322.75455761035533 63.86905673563606 C314.27333094517553 73.77739426391238, 307.2468908719592 84.17198320761618, 298.13698323054 94.6200781226222 M333.33925476451236 62.39935262980319 C328.3128736373867 71.35888598920504, 322.42041796110743 77.13843274575858, 308.63539698147 92.03660892662859 M334.6311237299639 63.75679108289206 C325.24095699126946 74.54427741963401, 315.79227006518 83.72549558337478, 308.7907301461313 93.1910330076434 M344.1411212588057 62.67152372922214 C335.16984822592445 75.91499216803955, 326.0594442324722 88.87443010136636, 316.60786255580126 95.51968064895057 M345.0951668277195 63.21797367484322 C339.03114544342856 69.71353163302419, 332.5139186583611 77.32033815292853, 317.7450961128477 93.24836500058733 M344.45260791044643 76.85355189504185 C341.77022319827984 81.64136477094942, 335.0587320463145 83.8695537904973, 329.28890296479085 95.89107772284503 M345.3744743473383 75.08425736634962 C339.62351222059243 82.31805667963275, 332.8657635108173 88.47902171145375, 329.4899295993945 94.5428573490516 M344.62917584425736 87.35329754342796 C342.948608203416 90.54771024067473, 340.8968667948426 92.56940716378676, 339.1653089972545 93.40897926718932 M344.70061407559 87.6509392726543 C343.3292422955875 89.27504938365182, 342.13604437662207 91.11672625447389, 339.89343527529496 94.16213194287948" style="stroke: none; stroke-width: 1; fill: none;"/><path d="M266.77216959540266 64.5954690758635 C293.21565900509916 64.52721913093418, 319.159041003418 64.52205932872371, 346.3971638837918 62.90185353471438 M264.4142163076786 64.58220349389899 C288.571643762471 63.50591982359733, 311.65896622631357 63.83100571198493, 344.04352613853234 64.97889607887868 M343.60177838234284 62.002776960208024 C344.10250777309534 73.29686636831244, 343.68548014726144 83.04070105253652, 343.0406986571631 93.8687518386235 M344.3115813215635 64.3148818241099 C344.5311070854067 74.63716849204349, 345.52706205596235 87.6110857141976, 345.9334763781119 93.75347154703795 M346.72082522302236 93.68114568403415 C318.08771323930057 94.4897964330212, 291.36081090471447 94.06092861148288, 265.10497063884793 94.13260332566846 M345.4555504951079 93.71871205243717 C322.0669489946762 94.70186519678268, 299.3123168836927 93.36519248014783, 265.48224024799396 93.5231809079023 M265.9534481943096 94.14305133819786 C265.714130235991 87.5326561085528, 266.562055256105 78.70363381350633, 265.3229365593554 65.11832640836454 M265.5402028010456 93.25983725588745 C265.0391622061378 86.39282716302993, 264.24659435838356 78.89435878218487, 265.7453323166395 63.551250201147944" style="stroke: #000000; stroke-width: 2; fill: none;"/></g><g transform="translate(289.5,72.5)"><text xmlns="http://www.w3.org/2000/svg" x="15" y="-3" style="font-size: 12px;font-family: Helvetica;" fill="rgb(0, 0, 0)"><tspan xmlns="http://www.w3.org/2000/svg" x="15" dx="0" dy="14" text-anchor="middle">value</tspan></text></g><g pointer-events="none"><path d="M189.11433050791507 94.12360329484756 C188.7721649705352 95.08977007906401, 187.27934172115653 96.71672702950623, 183.49685188721025 99.55679232173497 M189.6309557787672 93.87583125542552 C187.2188127988216 95.65359694307291, 186.0152902223621 98.03500390843331, 184.01874736910912 100.01254013989792 M198.38966579804384 92.39821554651017 C197.02868136856887 100.2298819163814, 189.9246419754734 104.24463842321747, 184.38007351832863 112.203078221445 M200.5722018803752 94.12866393068853 C194.42060800130486 99.28130542185232, 189.92643822933928 105.57465668043658, 184.12148853749952 111.75577862337967 M212.52179720216884 93.58290671814878 C206.1096673025581 101.4630931916654, 200.39514434451465 104.21142206652894, 185.9788072188663 125.62086011711216 M209.96334644936724 94.52013050179595 C204.85503235358806 101.52063593938135, 196.35457701791216 109.76554579966184, 184.49719117958335 124.57890945702361 M219.77750965543936 95.93782296205715 C212.1226729720436 104.78579118852694, 202.3339906660788 117.23258228575726, 194.50412536923812 123.62797268020597 M221.5899489138669 94.42203716834999 C213.78186731440692 101.77664085155341, 205.3264286635252 112.58112714563612, 195.4566584892219 124.18272258141045 M231.60734825911914 92.23236451988208 C224.27331444713943 102.00339877155726, 220.7090088594456 106.57965787110861, 205.3035279471167 122.23588995241123 M231.55193186387757 94.2776625026093 C224.55999384092945 101.03355052869306, 217.29274402897022 109.28467938363688, 206.7113926893461 124.30109593449836 M241.77622264702967 95.82124927150952 C236.79863173248916 101.46274093281775, 229.9160655918418 110.85858130375513, 218.12558930485295 122.30589954968987 M241.9121370400925 93.82271664982505 C235.72771112964824 102.70985418612622, 229.06624928669947 108.9027713194486, 215.59105605064613 124.12766661616043 M254.95634337172228 95.714331955474 C249.26734198483123 100.0107370255196, 240.93822593028705 106.75827341644793, 228.10145100669808 125.07586076728576 M253.0859418904233 94.34720801078363 C245.19551432546672 104.64967140760135, 236.9876075781805 113.68222885571701, 226.32480221531 124.81110755066112 M262.4611538094416 92.22894536268876 C253.10498838418056 102.71384853916973, 247.78361094368142 113.80021624138584, 237.4235177112585 124.90109981379862 M263.3015638698554 93.44336490109019 C254.84109826232435 102.12405397133347, 246.6489363354881 112.52836747970409, 236.9284084238935 123.69272297550002 M263.0801024529033 105.7238329141742 C257.29939157298924 113.3817838106626, 252.00122901367718 119.16357274156732, 247.08388352360075 125.80778454107576 M264.9051311724686 104.98948956304196 C259.2068159365625 111.91426422665414, 253.10493000074086 118.335325891145, 247.37981505481883 123.14585048433166 M265.3590142006388 116.82885402278555 C263.92925853435077 117.37803628880387, 262.2124790264727 119.25471262198498, 259.0662784414146 124.15562551195745 M265.18023135842054 116.73541124300498 C263.1818708198681 119.10321436455469, 261.7047563962344 120.09668623057915, 258.41394160840804 123.65959003600673" style="stroke: none; stroke-width: 1; fill: none;"/><path d="M184.01463094966485 95.53781359660587 C204.68453011611444 93.61837068964363, 226.8709693928945 94.1347108290034, 263.1237570626432 95.8054296743161 M183.27115197681212 94.36549281634645 C208.1177091332476 93.58835387913416, 233.04579009427096 93.19355071264366, 264.7899253959544 93.96712473717908 M265.92665345371233 93.57617358572715 C267.1319818461291 104.26723110120935, 263.9810323402972 109.87873654561125, 263.58744400583805 123.95869324372293 M264.20968531004144 93.93226922474801 C264.82664141992336 100.76157338336232, 265.05059550984953 107.60577625867877, 264.5869833814153 124.318067543833 M263.6525067660012 123.83532619254756 C239.2252682165662 122.6777604397416, 217.4658174745415 123.92380076585131, 184.29930401076933 124.29898279632498 M265.69172436954346 123.94754956989428 C233.88545276840773 123.48297485666446, 203.21282344154554 123.83131848395197, 183.91372981491307 124.62423274661514 M185.06639694001353 125.95364153917926 C184.96385677728213 117.74896672339561, 183.7464675652908 107.20445029083947, 182.8411094361542 95.09223113277704 M183.8150669070662 123.92358804681709 C184.53130992955363 114.94956826138745, 184.0547149382377 105.17804315605552, 183.72476071835834 93.57121936647944" style="stroke: #000000; stroke-width: 2; fill: none;"/></g><g transform="translate(214.5,102.5)"><text xmlns="http://www.w3.org/2000/svg" x="9.5" y="-3" style="font-size: 12px;font-family: Helvetica;" fill="rgb(0, 0, 0)"><tspan xmlns="http://www.w3.org/2000/svg" x="9.5" dx="0" dy="14" text-anchor="middle">clip</tspan></text></g><g pointer-events="none"><path d="M270.71234592975264 94.73158033307713 C268.57957129512516 95.78725415773559, 265.5108479608278 98.79441938110776, 265.76009721551156 100.96748618267699 M270.0784889982074 93.8787413177629 C269.01127385815676 95.20507032249927, 268.4789245469918 96.84057524840807, 264.9815874983642 99.92246997479809 M281.2432732160671 94.97012722976191 C274.8427921594966 98.95176738966518, 269.30616807679826 105.05042366475666, 266.56430204974043 112.75625488866943 M281.6907201310257 93.36352402954837 C277.55093275793155 99.32678951570713, 272.90106732949135 104.21213775984715, 264.1600676514742 111.85045136992512 M292.05263598548765 95.89480122862763 C285.66153892866976 100.95678927360548, 274.92966416156935 109.84836254407972, 267.4834770925633 125.1773701402146 M292.0590536170006 94.64889587174326 C284.2509914433404 102.3616655897214, 277.6670210524355 110.90762036644148, 264.9026718296053 123.675608918247 M300.827650913263 93.00928535456745 C295.60617353138304 104.28547218271264, 285.43660106701657 110.76013504966583, 276.933900018148 125.64306200204533 M301.9404430658035 94.53595880418291 C295.39968159810576 103.24062156983585, 287.584619569207 111.8052904318634, 275.9146151078047 124.69016907764414 M311.80335864078495 94.24705359902126 C308.9479572694946 99.1910959557422, 301.78323776196345 107.18424957694327, 287.9166997751713 124.66748306674923 M313.74474380242174 94.51851267611377 C302.8901717293258 104.54601793668785, 293.4554315134423 116.81580650435917, 287.0779202778451 124.26094788159568 M323.42395649840273 93.48971635163028 C315.7113654096941 102.15325084081798, 308.45773714872035 107.59800180697749, 296.8573467103446 124.47577501451794 M323.1481051796211 93.33479560749703 C314.83899785033725 103.61209945834926, 307.37751081611356 113.577464751349, 297.52919353275723 123.27731521806966 M332.2059885060531 95.57039963639087 C323.6819582012334 104.3437862013265, 313.82380176102777 113.73656681966835, 308.3694059236368 125.93322632796219 M334.1487973706132 94.11410650769676 C329.2229533456341 100.87615697064938, 322.24981136866137 106.33367591196598, 307.72801854579706 124.49953704999747 M346.5130117309653 95.66148465788888 C334.52398960713475 107.07515671828101, 322.9957879936171 118.87794588483649, 320.4045822471524 123.00599482009078 M345.5114899952552 93.24669337550762 C336.21529688924716 103.86259073208903, 328.34099751204434 112.77404521705022, 317.8565678194432 123.780241373312 M345.01918649022303 106.71466028755405 C340.74676693399243 111.7129247497246, 332.6860139044167 117.29043232530883, 330.3908734903591 124.5859885678986 M345.7313434737482 105.75337643147152 C339.9841266455879 111.80421234010416, 335.6198986821698 116.57483842671779, 328.35353918073366 124.19196433395012 M345.62824977794924 117.23195897190128 C342.61020787317193 120.11963493215683, 341.43516779901336 122.52159672075554, 339.0503037905659 123.39327813600299 M345.3700385233123 117.92189776284772 C343.0930885425132 119.6220033824652, 341.4093851382241 121.73864387374763, 340.01136030205777 124.09533120014741" style="stroke: none; stroke-width: 1; fill: none;"/><path d="M263.49379537821153 93.12716125751582 C284.29039526781935 94.50056244603398, 303.8601035823979 95.12091567909378, 346.12581917456475 95.40864309761069 M264.83741442301533 93.74018296483133 C288.58969310310005 93.2672477728873, 311.5921576892536 93.87231456763156, 345.56477502993886 94.54158010477961 M346.7030606613524 93.08520033272687 C342.9293270226477 101.93261316360967, 343.03059674821594 107.58738157163184, 343.57610823062856 124.25185854736144 M344.6184236342385 94.18781357244711 C344.3066825163476 104.80974181351031, 344.4395453424791 114.23240851318376, 345.4507356864959 123.86735345565484 M346.75299209600047 125.99052595380866 C317.6173145492449 123.35165674408229, 294.23960881660014 122.71083635036416, 263.0330564416035 122.49753603270815 M345.090619382392 123.21045435879434 C313.9573803048005 123.24046654398427, 282.5602152529395 122.28379845351273, 265.990571414602 124.02000628871826 M263.2984977168677 123.30828624218948 C264.92778872239904 117.61565551803996, 264.8872479015788 110.7794376244265, 265.00810723787407 95.01971571168706 M265.08559183191426 124.20515872956867 C264.5922598485199 115.53225341770482, 264.4219670981675 105.97070281826545, 265.1202247506497 94.55304218797737" style="stroke: #000000; stroke-width: 2; fill: none;"/></g><g transform="translate(273.5,102.5)"><text xmlns="http://www.w3.org/2000/svg" x="31" y="-3" style="font-size: 12px;font-family: Helvetica;" fill="rgb(0, 0, 0)"><tspan xmlns="http://www.w3.org/2000/svg" x="31" dx="0" dy="14" text-anchor="middle">...function...</tspan></text></g><g transform="translate(406.5,57.5)"><text xmlns="http://www.w3.org/2000/svg" x="0" y="-3" style="font-size: 12px;font-family: Helvetica;" fill="rgb(0, 0, 0)"><tspan xmlns="http://www.w3.org/2000/svg" x="0" dx="0" dy="14" text-anchor="start">const utilities =</tspan></text></g><g stroke-miterlimit="10" pointer-events="none"><path d="M 145 124 L 158.65 145.55 Q 164 154 174 154 L 234.5 154 Q 244.5 154 250.01 145.65 L 259.47 131.32" style="stroke: none; stroke-width: 0; fill: url(#rough-6697101665652873);"/><path d="M145.8058871998132 122.9860991160456 M145.00864239365032 122.63838328470233 C147.60195486318102 126.90947287431865, 150.01529690609667 135.24126751678472, 156.79002455254965 145.77295879802793 M145.994173085427 122.38197458277816 C148.37120460041115 127.78963238007705, 151.04699862918557 132.06558674391414, 159.0631147849078 145.92253022100866 M157.7886773389747 145.0297876793994 Q165.14976658452306 154.28664073171342, 173.09861782827622 153.7596253485256 M159.74928359063944 147.10941229203846 Q164.65820892630444 154.1679278893849, 175.1736697659668 155.0646603219217 M175.23547948647348 154.0560803480043 C192.96843318958258 154.9474755380695, 210.08224973812446 153.03557367177928, 235.62866498698912 152.10434077245816 M175.83644248221967 155.47944289912803 C187.34198432913786 155.00061850149518, 199.34914405946586 154.98028189862762, 234.7815099840939 153.68307589877287 M235.35834150727328 152.8505654150224 Q243.62941156055092 155.12892583229947, 249.27905383621186 145.5461905610523 M236.24158255246303 155.0379363134245 Q242.80695638373427 153.83900051231817, 249.89677636802125 146.29621195406264 M248.6014934643951 146.14497530786423 C253.99150968123914 140.00791616887892, 257.09815641658855 136.02989738643734, 258.6963918061359 130.4679844912899 M250.31388743773581 147.17951663915775 C253.06835049855266 142.27278568322032, 253.9579584470541 139.4780109827023, 259.8710277449892 131.21541732846165" style="stroke: #000000; stroke-width: 2; fill: none;"/></g><g stroke-miterlimit="10" pointer-events="none"><path d="M 262.36 126.94 L 261.42 134.71 L 259.47 131.32 L 255.58 130.86 Z" style="stroke: none; stroke-width: 0; fill: url(#rough-3377898491603227);"/><path d="M262.9913194971931 126.74577412990115 M262.4009760511811 126.66811941804417 C262.48726626802966 128.09762970306187, 261.6927044776109 130.4174622340794, 261.7041089909134 134.38869323196155 M262.92762942815926 126.82580097205383 C262.5559975839335 129.14717693631474, 262.24254971838053 131.27868553475903, 261.3323345487729 134.83123835684881 M261.3729800411208 134.8312632259886 C260.8094913567043 133.59021385343027, 259.7326396789795 132.49661111251737, 259.2267540087002 131.62847737755953 M261.56050643736666 134.81142441727485 C260.65456220976057 133.39312036446356, 260.0071859164292 132.04794264350807, 259.4653136282259 131.35782529581934 M259.0968633903158 130.94270119626043 C258.08331987120454 131.41944544100127, 257.1494846929937 131.43044485283463, 255.33910878278238 130.78939173214465 M259.3730385368806 131.45202949830238 C258.0092169520541 131.175063696294, 256.241937314618 130.74609159781468, 255.491754428433 130.78802952985282 M254.7325225116236 130.73966702326734 C258.54037682209247 129.2086208948981, 259.38468017155725 129.1865802451777, 262.99077549583086 127.42338851443992 M256.00125031438665 130.4686318359322 C257.9715039416149 129.52358036045993, 260.6797420364068 127.87136427247809, 263.00493079206433 127.16629754448164" style="stroke: #000000; stroke-width: 2; fill: none;"/></g><g transform="translate(185.5,138.5)"><g xmlns="http://www.w3.org/2000/svg"><rect xmlns="http://www.w3.org/2000/svg" style="fill: #ffffff" width="39" height="12"/><text xmlns="http://www.w3.org/2000/svg" x="19.5" y="-3" style="font-size: 12px;font-family: Helvetica;" fill="rgb(0, 0, 0)"><tspan xmlns="http://www.w3.org/2000/svg" x="19.5" dx="0" dy="14" text-anchor="middle">creates </tspan></text></g></g><g stroke-miterlimit="10" pointer-events="none"><path d="M 264.5 54 L 284.53 47.21 Q 294 44 304 44 L 345 44 Q 355 44 363.23 49.68 L 378.76 60.38" style="stroke: none; stroke-width: 0; fill: url(#rough-4854339100718849);"/><path d="M263.0626733489618 54.67708767988247 M263.62359095854566 53.77144977132146 C267.4304004968776 52.633091831640854, 272.94173319287046 50.36560614406353, 284.0731700589413 45.97425281466409 M262.7486336662331 54.259334805043736 C268.23335742111743 52.01310313937937, 274.59420894502546 51.27722463324948, 283.876516795023 46.76955557235933 M283.60552308718167 47.932463448049496 Q292.85813126844783 44.31842577944794, 303.15583669652705 44.43441553426407 M284.50140672196505 47.02226773442138 Q295.4508913464299 43.74069910652849, 304.7223696894559 42.19740487297047 M304.20943315642535 41.32552646916986 C317.4224808690427 44.598034198365866, 324.91915521539437 42.587825659451326, 346.35181362767946 42.790474724526575 M305.24748486669154 42.70493014250671 C319.0648038832888 42.90143787877406, 332.0919925182694 44.53280043942294, 344.09362282656025 44.592497059823 M345.4482630926829 44.19357822192548 Q355.623198883434 43.60739256610069, 363.2328723840171 49.04944990138649 M345.39429492567655 44.52357107619238 Q355.5087766229127 45.411928986588066, 363.59284939489163 50.76922892747809 M364.85223728484397 50.55614492916608 C367.6804674247127 54.54998029480527, 373.31845791073914 58.7857684335106, 380.2828357131707 58.952962007637474 M363.4687687119946 51.38108784446234 C367.78047836050825 53.87194671173639, 373.4727741984317 57.10947991210378, 378.20400052375754 60.61904275620244" style="stroke: #000000; stroke-width: 2; fill: none;"/></g><g stroke-miterlimit="10" pointer-events="none"><path d="M 383.08 63.37 L 375.33 62.27 L 378.76 60.38 L 379.3 56.51 Z" style="stroke: none; stroke-width: 0; fill: url(#rough-7805708823514601);"/><path d="M382.60233607262063 64.63145011608219 M382.63068590394795 65.16377039026054 C381.44033221288186 63.350538901136254, 379.9124923894686 62.867176433102635, 374.9039879989656 62.423815106438774 M382.32256374976396 64.98535825600815 C380.95584347481054 63.898237664944226, 379.3846551499502 63.9953182011384, 375.6923351026313 62.000610990055925 M375.4145797645573 62.43419484554102 C376.26133603211633 61.59657737103116, 376.74010745586975 61.25528525998606, 378.4397264148013 60.56056963901192 M375.4720805487318 62.373148599259 C376.59560393061105 61.7115414759019, 378.10629803133406 60.739429958052725, 378.721564477347 60.41419318983568 M378.9519340105908 60.25696377080232 C378.83368713213446 58.95060598349995, 378.7522029312652 57.76306268849736, 379.1478830147943 56.86103292398014 M378.6241388116287 60.345394706606584 C378.93731199395023 59.69864076131979, 378.96208133312376 58.664574865052295, 379.4185981596196 56.68488341818143 M379.8469026769451 55.65158313729805 C380.4430433250994 58.76142802029506, 381.9121835309286 62.44731438888723, 383.1353045156285 64.90192912008222 M379.46351861350365 56.37377862855643 C380.1402448803211 58.91654488401826, 381.6244244831729 61.275464366530976, 382.491195083264 64.98182663444858" style="stroke: #000000; stroke-width: 2; fill: none;"/></g><g transform="translate(300.5,28.5)"><g xmlns="http://www.w3.org/2000/svg"><rect xmlns="http://www.w3.org/2000/svg" style="fill: #ffffff" width="49" height="12"/><text xmlns="http://www.w3.org/2000/svg" x="24.5" y="-3" style="font-size: 12px;font-family: Helvetica;" fill="rgb(0, 0, 0)"><tspan xmlns="http://www.w3.org/2000/svg" x="24.5" dx="0" dy="14" text-anchor="middle">becomes</tspan></text></g></g><g transform="translate(406.5,77.5)"><text xmlns="http://www.w3.org/2000/svg" x="0" y="-3" style="font-size: 12px;font-family: Helvetica;" fill="rgb(0, 0, 0)"><tspan xmlns="http://www.w3.org/2000/svg" x="0" dx="0" dy="14" text-anchor="start">  require('./utilities')</tspan></text></g></g></svg>