<svg xmlns="http://www.w3.org/2000/svg" xlink="http://www.w3.org/1999/xlink" version="1.1" width="160px" height="159px" viewBox="-0.5 -0.5 160 159"><defs/><g><g pointer-events="none"><path d="M9.685494240210739 34.20578182356054 C7.252465243411978 34.995684252872046, 6.858825816396564 36.810873709964525, 4.415971928119181 40.63026823055578 M9.10106772842531 33.71614831768771 C8.21743129530007 35.28598645783542, 6.961150550410692 36.31524271863519, 3.972384518555517 40.41731861604986 M19.198160069301615 34.850509732947785 C16.799738044864 38.2012346863207, 12.806658790477183 43.12386821082363, 4.044130819029943 53.752732883650275 M20.69315994116986 33.280303613238786 C14.44029905810706 40.941838242199445, 8.82708959084951 47.74019644042057, 3.5468657721952885 51.93519433960463 M29.929341040733394 33.74060926688475 C22.420267847878605 42.85688587164896, 17.25274239015159 49.73586790046759, 4.211461090177863 64.86737514127257 M31.226343783274388 34.05704305133583 C24.326145265217455 41.33586107758249, 18.596549171187434 47.90811832229779, 4.969638120124017 63.20241447286963 M39.93060839588007 34.69577858467833 C30.900416593855596 45.07089882420236, 20.595658311833436 54.28473191666727, 13.23000238980049 64.01186721306154 M41.60836666489245 34.10454466615047 C32.05017966646216 45.40737848302707, 21.174017571164732 57.14546776222594, 15.43451153088465 64.08599016133522 M50.72614846512718 35.043891941282155 C43.271533328658116 43.541791156410305, 35.08214913643398 53.76422350994494, 25.978455680112678 65.29791726862452 M52.51037466189027 34.486541105589545 C44.20214294111338 42.96339431372847, 36.15003247730049 50.24613039473161, 26.64095657430038 63.81593000575336 M62.51523884034462 32.78567912617754 C57.57649375821001 41.56733491625896, 51.29793899751148 47.945723015691485, 37.93508253467961 64.98001939202088 M61.905578373496894 34.52514399204942 C53.138360961937074 45.37139546647559, 42.7852661777822 55.24854161886399, 36.71184978753926 63.590888042284156 M65.48046076172265 44.284302405266054 C62.77919229496764 45.682055535031395, 58.11798856522242 52.70813803411287, 47.64465723785773 62.15840198377567 M65.92541003890297 43.2872442838122 C60.76637281624801 49.6907878298986, 54.29510993007001 54.434824352982766, 47.39199198553215 64.93326237130533 M64.94173332622213 55.52212835050564 C61.209059536568525 58.55719071042262, 59.622053049637856 61.502090777911256, 57.42281011816557 64.46865473165718 M64.62400531070371 55.13989321938736 C63.23656113507634 57.54040224805447, 61.48978654706465 58.77045587013514, 57.86459640532965 64.33298300780656" style="stroke: none; stroke-width: 1; fill: none;"/><path d="M3.6266174831178235 33.129830441231896 C22.361879675426003 35.495385430472545, 37.201172496382526 34.110118869532634, 65.74749099591355 33.516412610613095 M4.255611936466231 33.849101800276806 C19.066506447906026 33.47136740729527, 32.23313834564105 33.808438905077324, 65.44164451546911 33.74740910524807 M66.01101115103023 34.656862923340306 C66.28753563145564 41.862399099953635, 62.849468376589314 54.1709710977326, 64.85881883744513 64.80710313408056 M65.78733399303238 33.53610284459694 C64.63037899411972 41.25843157905539, 64.98942984373095 49.08955509290429, 65.04957077488557 63.92108539913907 M64.12612011605694 64.01771224390681 C44.338587843181635 65.34695510696008, 23.02616120968193 62.268500268999084, 5.2410512078542455 64.6238136535654 M64.3595070426091 64.78318445626702 C42.34790092512338 64.34030066606734, 18.59932615431225 63.682534702624544, 3.615814095189788 63.6120057278965 M2.4674982223653315 63.29615366940015 C5.580759481310995 53.93058054968924, 2.7236173745642813 46.63807919555896, 5.382919951043646 33.61184582146906 M3.679415463751592 64.59762291225249 C4.516180825017036 51.44467681199451, 4.4770757201550335 41.09685759255534, 3.6080646367380838 33.70266430303965" style="stroke: #000000; stroke-width: 2; fill: none;"/></g><g transform="translate(20.5,42.5)"><text xmlns="http://www.w3.org/2000/svg" x="14" y="-3" style="font-size: 12px;font-family: Helvetica;" fill="rgb(0, 0, 0)"><tspan xmlns="http://www.w3.org/2000/svg" x="14" dx="0" dy="14" text-anchor="middle">order</tspan></text></g><g pointer-events="none"><path d="M9.927851199206737 63.72946790558061 C8.36223139339268 66.14939589152537, 6.852919505418461 66.21386925967583, 3.551023182463272 71.00716944070118 M9.131874358423508 63.771736591182936 C7.550549742172839 65.8491569754586, 5.317266521071053 68.46693806814696, 3.618827788811463 70.53692002808926 M20.811350609970837 65.89859513717285 C17.92457665457149 66.16670880299124, 13.91408521375778 71.12367141648544, 5.8942281349347985 81.40031851375602 M19.778637094201088 63.80330672672747 C15.34763902381453 69.83948952894045, 10.527352828109212 76.54223107370687, 4.345409932017375 83.34949187976761 M32.399860756060605 63.48781445334502 C18.577069152645038 74.59865213834377, 7.850458584623452 85.95001903176629, 2.6592068701503173 94.88600479799773 M31.60500535476719 64.28317724626194 C20.916067562059677 75.70704880608625, 10.543749048198926 85.08942192849507, 4.050898580768848 93.17779804172399 M41.3179276206471 63.591844866785586 C36.04451626238428 71.74819395604595, 28.095318867011024 80.73702152937938, 16.703714858479724 94.3660790854868 M41.17606003304581 64.90989825080494 C32.81733189469606 72.40173071136641, 25.47836393464705 81.29604881245713, 14.867020025650191 94.22194322969247 M51.687502655743266 62.75495220467401 C44.5805412881711 74.25556623004142, 34.50245369174064 83.57827384222014, 24.55530310809534 94.52465998844957 M52.75633480798896 64.2432284823907 C45.811397822767965 69.967099910171, 41.13904393577584 76.90178977674772, 25.566484110665577 94.14843054978832 M62.47269915102845 64.68292471435066 C58.00042367131195 68.61885523405618, 52.555129172463715 76.37518409363976, 36.231670844399574 93.01377999776157 M62.205361389981476 64.11565784943612 C55.51753731069207 71.12258415490868, 48.11021095923207 79.26218693528597, 36.73581595406287 93.77146031629582 M66.68581200454736 72.21275779372412 C62.22994789882304 78.10791485342061, 57.47014726819704 82.88755978019572, 45.35744395761456 95.72127736191224 M65.36276891481901 73.65609038850448 C59.695739758909475 79.10949798375898, 56.93019836944154 83.01436286192694, 46.129661605998706 93.86441098125535 M65.66408240710477 84.4307358523214 C64.15269949228957 86.98546164566562, 61.030875726408254 89.88810155514406, 56.67752700195284 93.45549806319886 M64.69666235847507 85.70119484585723 C62.0600370501812 88.99787859688429, 60.09694920004345 91.08259451634049, 57.95396689944303 93.76812208280121" style="stroke: none; stroke-width: 1; fill: none;"/><path d="M2.0381502650441394 62.462926380555174 C17.835291646865024 61.72906769992581, 31.804778244596363 63.973354108638546, 65.1358530515107 64.5787435684728 M3.8263132679403453 64.2851647974648 C18.23299732134871 63.542472722818616, 31.21145084471698 63.12722023446071, 64.92787861475185 63.2731907953154 M63.22227103662332 64.28515329149346 C66.61450880118694 75.05840095133222, 66.09166531390251 82.87534710293912, 66.56293264735966 93.3887948184326 M64.39391228146926 64.07482905269174 C65.34476321067622 74.12457842557453, 65.33549697370269 84.66088639388605, 64.75071382660715 93.97588486403632 M63.40910051662474 95.10878874892876 C50.96736066332936 95.33511981674864, 36.221640644244744 93.58148990250608, 2.218309703465959 94.45011616148005 M64.8440286818081 93.92271932940821 C41.54229542469206 93.61888112789201, 17.46563793732973 93.67882235933638, 4.622181889111919 94.40284167542872 M4.0601654928853925 94.66588220146208 C4.139702026049913 84.01981426926484, 5.201715603805639 77.88816461870208, 2.717419824228398 65.92528846680221 M4.38847535080069 93.57313650083636 C3.7321245310798705 85.25845747883984, 3.726594807378747 73.85524018210944, 3.121812535671646 63.98394357932047" style="stroke: #000000; stroke-width: 2; fill: none;"/></g><g transform="translate(18.5,72.5)"><text xmlns="http://www.w3.org/2000/svg" x="15.5" y="-3" style="font-size: 12px;font-family: Helvetica;" fill="rgb(0, 0, 0)"><tspan xmlns="http://www.w3.org/2000/svg" x="15.5" dx="0" dy="14" text-anchor="middle">family</tspan></text></g><g pointer-events="none"><path d="M9.504383511848394 93.24288892863278 C8.650586014259032 96.56966667950593, 6.912939189707035 97.07251968932185, 4.6539909287209165 99.45131629043424 M9.711125887030743 93.86632176260319 C8.350623181807604 95.0324754756843, 7.4263491322136455 96.4764472579007, 3.741111044144512 100.60929116805441 M18.092751983219664 93.57372618560645 C15.732374066521727 102.40435999521931, 8.694137317860434 109.78777169152814, 5.274714133301144 112.90828991123233 M19.05091255818367 93.51721551291247 C14.934520838148481 100.95097709834907, 8.748371334030233 106.6990032843105, 3.1682850915009637 112.85219910667547 M28.89029861383497 95.12377392052919 C25.364970896864115 101.53963220591822, 20.79593439963558 106.34712189295529, 2.5893800973059538 122.40443436559832 M30.91185197500674 93.85175679542732 C22.702045216550392 103.19283405604055, 13.178538946387459 112.97106717047811, 4.07961567913801 123.5824044498968 M42.979034691198414 93.47974737341175 C33.944223349407515 104.65574052319639, 22.586799962940926 115.51310195952311, 15.954986747926938 123.21172355895274 M41.20492786731142 93.73477581020755 C33.224919903101664 102.52248959882257, 25.304591682859176 112.72526772549709, 14.564219229462353 124.93209498898432 M50.47520452811983 95.0836551376173 C44.46540317485507 101.04916292575007, 37.986402235487986 106.37017881882626, 27.650497954526294 125.22573984626837 M51.19839405164245 94.98650239430604 C44.38905911317095 103.93767137128287, 36.15695327662655 113.13909238654598, 24.840008552025783 124.37493046793206 M62.869384830928915 92.67060004333504 C51.12075631974565 104.5443773061811, 41.89771703302985 115.87060005655515, 36.714710047182294 125.93863789260577 M61.62359617867593 93.37342808859232 C51.56631316986648 106.40189350462605, 40.87794042237528 117.64530246540538, 36.492810837530236 124.80248942228037 M64.37341804106171 104.43687635045447 C58.624324069944215 110.63592492741655, 51.41932966715832 117.80402073415617, 47.79162109501191 124.53214401901688 M64.79087109054723 102.68958704030314 C57.79218155424533 111.17870697088512, 51.61010465225111 117.82673389434981, 47.40896010610909 123.64927339409574 M63.952041831169076 114.93732791725914 C62.30842626159473 119.34322202243108, 59.71060303327994 121.26603160074367, 56.97675778870345 124.53295318268026 M64.80966197814057 115.94343155645421 C63.15286242939878 117.31003490144025, 61.30950546300087 119.11372593667971, 57.64946578395084 123.60887762289114" style="stroke: none; stroke-width: 1; fill: none;"/><path d="M5.779960966516914 94.36245178959354 C25.536074671567633 94.60182558929876, 42.43275638388459 93.81170928733405, 66.89066105385328 95.41880635007344 M4.6885190931506155 93.03623068297402 C18.457312552623964 94.33675210112284, 32.65586073690896 93.29683963079212, 65.13258145577855 93.36851465502949 M64.08531045876651 95.83458012868942 C63.35483265509875 101.64205926799129, 64.1151305012254 106.27761295955793, 66.18938855429441 122.03846682023708 M64.02410954142208 93.41250622458031 C64.91013708097039 106.30723364383059, 64.07908982680654 117.38396941641197, 65.89189614448343 124.58442749442207 M65.23669433524495 122.33756396692586 C49.65269136296175 124.08812094275332, 34.89954881392126 125.87983469550562, 3.978508122983442 123.61605314245404 M64.57987356921832 124.83038335822445 C47.737891274094224 124.55018455489619, 31.409919020543263 123.95993759154179, 4.294476123233778 124.47489035946899 M3.309063359580045 124.1835847433614 C4.927967146512033 116.48287459803026, 2.661044991642693 103.98655427146683, 5.21652751952145 95.91097462497474 M3.313863995748471 124.33194753071488 C4.472384605849908 115.28860470864717, 3.717711947167543 107.47193775571967, 3.870911599244728 94.99325071729983" style="stroke: #000000; stroke-width: 2; fill: none;"/></g><g transform="translate(17.5,102.5)"><text xmlns="http://www.w3.org/2000/svg" x="16.5" y="-3" style="font-size: 12px;font-family: Helvetica;" fill="rgb(0, 0, 0)"><tspan xmlns="http://www.w3.org/2000/svg" x="16.5" dx="0" dy="14" text-anchor="middle">genus</tspan></text></g><g pointer-events="none"><path d="M9.243838239194025 124.8174656466284 C7.97228977454253 126.59131571836043, 5.785888574184157 127.58957164022948, 4.314521794761183 131.01778177011911 M9.756598018030678 124.39578762779546 C7.969141050867211 125.41373794549261, 6.576374230122428 126.91171827611517, 3.7691402320828513 129.91735120934618 M18.182940719283504 122.53246391181875 C15.092252736399924 129.77987113639148, 11.621048633026763 132.4010351751896, 5.498517178978004 141.57508198848424 M19.83615026012094 123.8225123150891 C15.911688928514074 127.23095957805893, 12.913820477485404 132.08844564026006, 3.656618137937585 142.5301441369676 M28.78122581724026 122.34371285910453 C24.739119867899646 133.8156530851228, 16.249296948664398 139.85863941225784, 5.800295091304499 152.55091981708154 M29.696315145211837 124.210175799625 C23.823332616043395 132.49577417049642, 16.223835284417085 140.59457629074552, 4.764458078849243 153.899506616859 M39.30356380568146 124.35842223392864 C35.163343313642606 132.65192781354855, 25.183988703121784 143.3941083514197, 14.632157841975125 152.46099105700645 M40.42114915742832 123.26144585393705 C34.502463363190145 131.58255970963725, 27.621036412050096 138.52964066644694, 15.186849456088876 153.77178472327205 M50.78046679136294 124.64362085398156 C44.0052537341397 132.65085721533498, 37.836619363497974 142.17038589247917, 25.72782582072948 155.63431125517295 M51.94550454538655 124.91666475606 C41.82404774942688 134.10639152313874, 33.680266804247516 145.71872460888048, 25.92131952434048 153.24293538136908 M62.05536492050728 122.29966538310309 C51.92926374526361 136.80671000259218, 43.079943568794704 146.78089130153108, 35.61484423650468 154.20553107505728 M62.87210539229821 124.86105964337774 C52.52873208184718 135.28928654859874, 43.715628252324976 145.9348572974453, 36.219536209862014 154.70853214360085 M63.68720569058063 131.6191781510382 C59.70187296300969 137.58412778712727, 55.98295000270972 143.57383287530396, 46.27680090726159 152.587657141549 M65.22430385355185 133.33546139019552 C61.4483604519742 136.84724153902442, 56.684397167284644 143.5139009036833, 46.24593391240198 153.97901253244407 M64.33069849624857 146.05374871057583 C61.0510358256669 149.48196039772853, 59.131127325520275 151.75641199417072, 58.3863317679536 154.851277398812 M65.11239517107457 145.08095138541967 C62.67956761011572 148.84303733717059, 59.41279291582971 151.10079850924473, 57.888619273898726 153.86810072849974" style="stroke: none; stroke-width: 1; fill: none;"/><path d="M5.122861045924309 123.97820210848624 C23.685257348905676 123.87596585757593, 46.70625137241853 123.70896346687138, 63.71672146685562 125.61887992770828 M3.226491926681295 124.51508385420523 C24.211103029466273 124.1408579323248, 45.17459344343747 123.28509587827578, 64.70425880656379 124.31645286188795 M65.91070887841039 123.26022432356845 C63.41864033851364 133.55106285878003, 62.94504142565531 141.60022051441618, 66.57085647873205 152.74386071142578 M65.92867595049208 123.31954003525296 C65.58872536940906 134.02133019857575, 64.68531660500126 141.41272455508548, 65.35631924004633 153.8569306953919 M65.22379374011848 154.25301023978935 C45.97466044159161 151.42794136868127, 24.201171504024266 154.02302274895064, 5.92762181064484 154.81272727525248 M64.41947301452112 153.99427629665814 C50.3140427250078 154.03645949105547, 33.37362505066505 154.9163473104965, 3.3417305795036225 154.00404337243017 M2.5614120437426706 152.18153862250287 C4.889278134716606 144.80774602326457, 2.4642570967239834 138.94327937100047, 3.9314296937539224 122.12532638908013 M3.586684858149492 153.31043507926495 C3.6548398011015677 146.58655716662733, 3.2695234166314813 137.42977134112297, 3.0233950057450047 123.07584672481245" style="stroke: #000000; stroke-width: 2; fill: none;"/></g><g transform="translate(13.5,132.5)"><text xmlns="http://www.w3.org/2000/svg" x="20.5" y="-3" style="font-size: 12px;font-family: Helvetica;" fill="rgb(0, 0, 0)"><tspan xmlns="http://www.w3.org/2000/svg" x="20.5" dx="0" dy="14" text-anchor="middle">species</tspan></text></g><g pointer-events="none"><path d="M9.181919338257037 3.544891069843759 C8.105935870865522 6.0589978438393945, 5.621313523204257 7.068362795547968, 4.145467718754601 10.666536483100764 M9.694092795912303 3.7116462848895515 C8.530494541301435 5.110388122253706, 6.76395221164778 6.560178187606053, 4.378788231696828 10.251830875406396 M21.26362504187602 3.8063691768070775 C15.453361794645545 9.763510745510068, 8.792485371385728 14.828365575372928, 2.8797326314938507 23.259535094833247 M19.56020127722867 3.9583400092481087 C15.709947578496063 9.948862802842992, 9.12269822064744 16.215946614846516, 4.108119473696352 23.03738120639211 M29.691973241079136 2.4806662275772 C24.915789620706995 10.505575486042762, 18.921216514266533 18.997145380759555, 2.714360242178409 33.56422235349222 M30.215953090075217 4.4271923373580755 C21.585705517044897 13.66781490459264, 14.783476157959873 23.3001648974586, 4.1246674338427445 33.567507882747364 M39.96441937936401 5.459645835343523 C32.686202836602284 14.761105886495308, 23.588533381663723 22.676795258049903, 13.738332936589691 33.020485931578804 M41.55950287018742 3.2420846906391967 C35.389872278815716 12.545369412075372, 28.611738475581074 18.36968458791207, 14.223323545405155 33.83540640176399 M51.42242997078903 3.406788481086772 C46.48669517456949 11.674627949972887, 36.48868278712304 19.5863909265521, 27.60333800583127 35.902326771709845 M52.57832232517549 4.239522188808234 C41.680510648423564 14.173675641332963, 32.732914606434505 25.61435471940577, 24.756783627720385 33.36670502867612 M60.68961732203909 3.59319974991488 C54.07534573873848 10.904558175376462, 51.09010788464603 18.159342802515305, 34.94699012499619 34.29767109926556 M63.100991808472635 3.1278677201855936 C53.85855591074825 15.405559896392159, 44.31112494925993 26.805029433115177, 36.55081166301632 33.02473574072366 M63.61818465819534 12.97175738055834 C59.63002447956876 21.250277559462226, 52.78190481548427 29.663435214894378, 46.99333838970002 34.60441443487208 M64.46114452264165 12.317001712512027 C61.86786223696443 18.40043686053398, 56.553734439803925 22.36950798676559, 46.86447843059604 34.34331778520256 M64.68488912538473 25.268137837247966 C62.49982609296446 29.309732554702098, 58.70631422571381 32.91212284562013, 58.45439127379436 33.26507189094187 M64.82118421554578 25.34294751810841 C63.09720245088612 27.25884622560002, 62.01883520723175 29.62276190078886, 56.97732183454721 34.52160715114876" style="stroke: none; stroke-width: 1; fill: none;"/><path d="M3.3964792515072 3.465593181773558 C22.635334318611342 2.9728706829351497, 36.37618620526741 3.5418477309345633, 66.29560171298105 5.784169014819028 M3.4105360245786085 4.658980093565919 C16.963400418805357 5.306337147430316, 27.751400463069615 4.156294985797094, 64.37874599983351 4.063353636607983 M65.2927388652612 4.1643192450250845 C65.45739266451919 15.739404377256506, 63.34945873370273 23.512343815956285, 63.13517566462332 34.970913437223174 M64.69124955021933 4.719115351920591 C65.3179170666784 14.709074161081972, 65.4076546065971 23.803396989668844, 64.08588870881233 33.1570860478276 M63.640826474740436 33.24947685029383 C52.14867889795117 32.41877078830441, 36.04789649739306 32.492679942430485, 4.462454699967768 34.23586464020785 M65.22629672862693 34.336826267697674 C51.68645941877121 34.05969254879633, 36.66704732751643 33.368478152331356, 3.6392151373452144 34.73123856521593 M4.467653046093697 32.90528223086471 C5.19136752729482 20.932930233323674, 3.8642308637836784 13.13746473615712, 3.319135127283257 3.4429378086817524 M3.2674516778253904 34.4320289078449 C4.895933891857066 23.30169953192944, 3.7557482911004354 13.440087295783204, 4.634380399009203 3.207987492379384" style="stroke: #000000; stroke-width: 2; fill: none;"/></g><g transform="translate(24.5,12.5)"><text xmlns="http://www.w3.org/2000/svg" x="10" y="-3" style="font-size: 12px;font-family: Helvetica;" fill="rgb(0, 0, 0)"><tspan xmlns="http://www.w3.org/2000/svg" x="10" dx="0" dy="14" text-anchor="middle">key</tspan></text></g><g pointer-events="none"><path d="M70.24611863681976 34.532437571368 C67.94218866652722 36.70944897265309, 66.18895325228618 38.8635966436569, 65.77929984583949 40.82966501306871 M70.0361633614556 34.02505688438402 C69.19922862186941 35.50100911224771, 68.03405812089196 36.74802293434231, 65.02414853464808 40.50206905439969 M82.44293208445754 35.30669878365243 C77.55274723345738 38.23877898130669, 70.36006301456372 43.28547522183908, 63.653131842842924 53.44062261560097 M80.73491561441504 34.49796143761637 C74.99092573311562 39.905519358117466, 69.62357098970891 48.297202170075174, 64.67326753936406 52.07509133876755 M91.29830777383134 34.64445112296356 C82.26210641879715 44.355403749122445, 74.03035681315936 52.460893819675974, 66.98647611028755 64.70402298871508 M91.38137839449556 33.74618995667141 C80.65820016142253 45.60179044443887, 70.55157215187165 56.793061352993895, 64.90225984415686 63.173686414867774 M100.33356733710292 33.42018893109612 C91.60649503376771 47.26737425066816, 82.10349701701698 58.537934692818695, 77.31653305923655 64.06840870215134 M103.16500687032809 33.627590995825436 C93.04351011354994 45.16510677631028, 81.94379495586419 57.866568717203435, 75.65384438740638 64.61299587699965 M111.92684173170471 33.86945950980756 C106.34259285998606 42.21855749322555, 97.61245975266557 52.02685312944716, 87.65014429043005 65.35711910514026 M113.28690138746013 34.60730810147209 C105.50820524724992 41.858597912071495, 100.54403238933209 49.15004764590451, 87.21592023368063 63.64218300188049 M123.10455286996913 33.0374411707423 C115.90827702688023 45.08854558317499, 105.42327692561935 52.8364255146003, 98.78654064442196 64.07818936767397 M123.48698829098724 33.334885665523075 C117.6209867673461 41.56397926242543, 111.36156481509035 48.82808260623528, 97.5487472588213 64.04664946532517 M132.12861982025953 32.717200541640366 C126.64767321787791 40.92055816861537, 120.15195199339158 51.84400758266183, 109.85085090659808 64.28570394183268 M134.17845847527343 33.503089925289075 C127.18704212560186 41.28112230563408, 119.5831538325192 49.65034174895246, 108.73665719682685 64.45503432350615 M145.86193351998426 34.2017359765765 C134.75083504641714 44.683537330138215, 125.52917060267322 56.10288614943116, 118.58653173841675 64.54660643008894 M144.3179299816542 33.26406966063354 C138.46498700739363 39.93013412197027, 133.64504404921271 46.19277636935443, 117.60879873668527 64.17861670884396 M156.15063530699183 34.7706660218298 C144.22996589884835 44.61959826988054, 135.13929248595977 54.582327653627836, 130.6828561410263 63.1174031163586 M155.77418191216918 35.09026547254007 C149.67071716319808 41.68825553357867, 143.4271758370748 48.73711404268125, 129.3438238839909 64.06773327046024 M154.3655908440375 44.5135375008192 C147.540550449834 52.17888620863005, 141.52047865835218 62.20251247379955, 141.23105306358033 62.701253054758595 M155.19702799732386 46.8667847350681 C150.82723328377912 51.22885394058993, 147.29320965956143 56.1755450331768, 139.27409760439323 63.85190916682537 M155.0497817581958 59.18933339532203 C153.25557157873288 60.2686499948138, 152.8850936018811 60.78544025070505, 150.5279638490773 63.45652974648403 M155.33677680050107 58.96474284919454 C153.77347285352144 60.55896623895883, 151.7478994724749 61.96999777437261, 150.6832873763775 64.07593023963584" style="stroke: none; stroke-width: 1; fill: none;"/><path d="M63.23980157210308 33.66894102404546 C94.93342546585846 34.99405485571749, 125.7468192157507 31.92431874152995, 155.21317983427113 33.513396203405435 M65.87619851839597 34.73489498430187 C98.8339531946038 34.52604269599008, 133.3237617505018 34.64751618085892, 154.54884793947718 34.78516431455332 M155.63638947529154 33.34558389490941 C157.11259535238477 42.77323707373593, 155.5257207546925 47.02870838166808, 154.9372068024676 64.47568980098872 M154.53558925374475 34.550344872002995 C155.52673114576064 41.77841848425424, 153.90341752485537 50.897175894534215, 154.98375005897245 64.3488157277616 M153.22185986581556 64.15188810114566 C136.1733382342181 62.80260705042109, 115.9587170043517 61.970554200466395, 66.44610155991077 65.44469839824433 M155.35324528882174 64.77149769207384 C125.52751001482885 64.92961606737255, 93.71639197018291 63.88303502603252, 64.82862677271194 64.2054159058892 M65.45086320188933 63.05981509655065 C64.1137209536544 58.50897115425142, 65.35363669059227 52.62033237046754, 66.32244195339693 35.947887890672206 M65.55105654118275 63.04742729076496 C65.37364954382228 55.981266811791016, 65.1537101441735 45.860401169128764, 65.46130751832354 34.969606987133275" style="stroke: #000000; stroke-width: 2; fill: none;"/></g><g transform="translate(81.5,42.5)"><text xmlns="http://www.w3.org/2000/svg" x="28" y="-3" style="font-size: 12px;font-family: Helvetica;" fill="rgb(0, 0, 0)"><tspan xmlns="http://www.w3.org/2000/svg" x="28" dx="0" dy="14" text-anchor="middle">"Primates"</tspan></text></g><g pointer-events="none"><path d="M70.73401002556652 63.893224972483154 C68.87427105503095 65.8531964885699, 67.60673742730235 67.34212439314392, 65.46090908807064 70.02638285012377 M70.05175827372331 63.73389595854255 C68.60211673810444 66.31485590919, 67.42370103533271 68.1885242526894, 64.73582019819102 70.40232770919027 M79.61296558837002 64.02691875925987 C73.98217496624514 68.35440656957404, 70.00361425723 73.99747020464969, 65.83772086393296 83.23631974707018 M81.33720441526945 63.38759231091092 C76.59567159269845 70.00274560818534, 71.62738441952212 74.84549835211594, 64.46476569792623 82.37801038734787 M92.38900969467925 63.413476742238274 C82.41614239473118 74.77236909479277, 71.16094137314627 86.12494573351502, 65.67638717434627 95.41460315473928 M91.96211146899 64.07708568261148 C82.07335315135381 74.40052566058021, 72.09224116384077 85.64390830594675, 66.0149553656083 93.11036101739332 M102.7403641694122 62.214954730204056 C96.08675835604981 73.96959901379925, 86.77916819749723 78.66910622536416, 75.41503075073732 92.47976842705097 M101.78937974867364 63.69782297733019 C95.0586148100108 70.95601161985076, 88.98426900389403 79.63413657000352, 75.91271219802145 94.26638657388052 M114.47951159075765 62.07908241693651 C101.4223071916009 73.98473638463328, 94.03465556888598 86.75197688716786, 84.96900604194977 92.74254865621683 M112.86749060548611 63.693833421762236 C104.7377537637329 74.20838954072842, 95.51070018570513 84.69017982676488, 86.51940392176746 93.944401046307 M123.550904382207 65.75397128516425 C114.87675796673882 73.43389246244845, 103.65163341731343 86.06557165573916, 96.58415860102166 93.67873019566902 M123.4628788765076 64.31783134804236 C113.36408237854167 75.02964952920094, 105.58014983275848 85.70139179042302, 97.89726577941357 94.3251172092595 M135.88968101407983 65.70860938679986 C122.66170981807997 75.5838958680945, 114.19342837242651 85.79548641812644, 109.85546874796137 95.16741831997629 M134.93406925302773 63.764092642291224 C127.9012218844698 70.75350454206074, 123.65150402530321 76.54094669931636, 107.92656904639078 94.21042929192075 M145.19117873631637 64.06952042267633 C137.5633659258715 70.92117266685119, 131.53304809877056 77.86256471073396, 118.7140925434327 95.72816534681294 M144.4366680034353 64.72849077843964 C133.7052275517701 74.53579812717298, 125.0803571300759 87.27614458363448, 118.75698560144535 94.40934536700343 M155.03896856202678 65.83040908791519 C147.28552042603422 72.80186442780514, 140.74829842465277 79.67379807192215, 128.71796545316545 94.07245436743071 M154.9314517458639 64.75989693957308 C148.75484731327973 73.09936379425238, 142.07132265577002 80.55032819831008, 128.63075624884723 94.85746509260827 M153.882611508529 74.90034215265618 C149.11248654534378 84.68259267721086, 143.61350531167022 90.61359472305692, 141.2663398605489 94.16450288605247 M154.9405409138076 76.77786891619219 C148.40462172739953 84.1751972799284, 142.69826936681545 91.17093710737613, 140.3334547774676 93.1070201076553 M154.43583228146306 89.01771067253878 C153.8241338001028 90.29783235447701, 152.8512596771572 90.1427415181888, 150.2475074945447 94.3981239053575 M154.69741456853757 88.97691223747579 C153.63060615704947 90.76964065367345, 151.62691952898248 92.52291351598844, 150.4709482131527 93.93538327808974" style="stroke: none; stroke-width: 1; fill: none;"/><path d="M64.19245658581119 62.66264127959508 C86.09247929922687 64.40176275290311, 109.20114157144597 65.2569318298666, 155.19440849812682 64.88225307936038 M64.06150624710226 64.9248800768359 C94.2117899892931 63.76093371225009, 120.66665691597026 63.59166693177149, 154.82437377535018 64.92816641915459 M156.5578860050695 64.39954659954869 C154.56246122167215 76.82842545083658, 155.82315433079106 86.70553741463206, 154.26370447712554 95.67116950951765 M155.48002660393337 64.07331446580736 C154.16459506958637 72.1412632014428, 153.9063785743841 82.84562880208291, 155.14895454593815 93.85621244602004 M153.10024520696896 94.95368298991869 C128.2671965927885 96.3534798372887, 104.34777047259004 96.43793844000749, 65.31902302983688 92.10304848554411 M155.56688392490096 93.43692322429919 C135.47013321390799 92.82869102106137, 117.51731118058173 93.1022228256891, 65.27336913860344 94.09827977183917 M66.42153390787955 92.06523147479791 C64.68955120192535 83.87035157449736, 64.5613381039512 73.56695640687633, 65.59335191264107 65.71067409762307 M64.60062275940766 93.85115245191949 C65.69490888825082 86.75909599137091, 64.10621675622797 78.4860218571135, 65.23250769813188 63.061926424488966" style="stroke: #000000; stroke-width: 2; fill: none;"/></g><g transform="translate(71.5,72.5)"><text xmlns="http://www.w3.org/2000/svg" x="38.5" y="-3" style="font-size: 12px;font-family: Helvetica;" fill="rgb(0, 0, 0)"><tspan xmlns="http://www.w3.org/2000/svg" x="38.5" dx="0" dy="14" text-anchor="middle">"Callitrichidae"</tspan></text></g><g pointer-events="none"><path d="M69.8138794770278 93.90373030931997 C68.70409399927877 96.02869166325257, 68.14689717724883 97.27865875501884, 65.73097470307201 99.4769862598098 M70.63246969513396 93.69117673267351 C69.63709516918439 95.53828332648533, 67.90127678675024 97.0172943991301, 65.01438861082123 99.91876951864583 M79.0964739812473 94.28212431644367 C78.38359703063706 97.88095192984676, 76.45570075879665 102.63279981822612, 63.79496935958 113.14926896949568 M80.24558896982596 93.54621582965132 C78.28607511432018 98.76842149756283, 73.99447744753479 100.81956340190136, 65.28168152010107 112.2893060373454 M92.26789204702311 93.23861160386886 C84.96327071187059 102.24121869123707, 81.2304273597088 106.8537526522037, 66.87300807581603 123.91327671338874 M91.11498621606503 94.88075811105553 C85.99940230084559 102.01737182866444, 78.31287392616623 109.23630049623779, 65.22487688753482 123.03687890643559 M100.98729116070797 95.12787141821693 C91.82983655617029 104.18668323823866, 80.18014680786226 116.25790222101577, 74.20290333094718 123.35985255347818 M102.20678589427371 93.31863365382934 C96.47290549678787 99.86398638947243, 90.46534816856393 106.6636572565756, 76.11313468351523 123.92943976557164 M112.26764435598501 93.4054995181388 C101.95462698971227 107.16706035820044, 94.4686507042081 118.25196429045022, 87.12158616155578 122.42703363608231 M112.55140796914847 94.89466564262389 C103.7415687471312 104.4907197132798, 94.57320104671825 116.49703593188012, 86.54359099912918 123.22076451046634 M124.51434343305274 94.94141604181944 C113.9088546424386 106.09948361331809, 105.3667832732376 114.1831803027399, 97.29185408836949 123.62119436030557 M123.22118985783638 94.60184049166621 C112.91855787956258 106.26619700520895, 102.9086316659886 118.17931633039214, 97.1997903407526 123.57170025862344 M135.07552303927383 94.79499066738056 C127.48391606013239 103.24041873548146, 121.29175813801874 109.77598179295585, 107.62487631757259 125.107739466075 M133.62996629045765 93.23061643021438 C128.50601316466458 101.0592343876961, 123.30383358360602 107.8610676709276, 107.55020378199458 124.29783444200481 M146.10706429133944 93.20089332240573 C134.99821408461727 102.0409884577485, 128.76257955163888 113.54310915404109, 118.43927593633914 123.92697205098423 M143.82400043928462 93.7057971486909 C139.06931828770888 99.85922798534979, 135.03214710567897 105.68738847113173, 118.73920885006403 124.71566097172841 M154.9443363829573 96.116050075181 C145.0739983708053 105.32587556564305, 136.77404173974267 115.40115740832418, 129.2995032458366 124.41481285791252 M154.6410281662136 94.5099858069868 C147.81585856010062 101.34665238100949, 142.47162797680386 109.37881303629533, 128.16444971271218 124.66231362665152 M153.5908260225071 106.45837015745846 C148.6875561566071 113.91299455546442, 142.7442507542696 117.94379988404658, 137.77575204302244 124.73443599541561 M154.36283329633287 107.36392715023574 C148.9999343625345 111.53314333322454, 144.1665792110609 118.30291492799974, 140.16467830724005 123.42531774993743 M154.87793917928263 118.40873642948209 C153.22728531635465 120.39587958959541, 151.95299530991682 121.97623417079687, 150.79406412552353 123.62992923973184 M154.90099205655665 118.76454400345867 C153.09900950729067 120.28485585223603, 152.0088246996196 121.99403145043834, 150.3184896390499 124.10804754112108" style="stroke: none; stroke-width: 1; fill: none;"/><path d="M64.74076111149854 92.47565926399722 C98.32264250250427 95.77958894023575, 132.90616158076287 94.90843997801569, 156.32589628540083 94.25103539589254 M64.71497873129842 93.0350510896137 C84.25154577631533 94.90281786365162, 102.03690321964211 95.54704899949381, 154.91314343481014 94.08202956617784 M155.65343925286118 94.41985321252348 C154.02481528325148 107.51679275402034, 156.01791665337996 119.28338235865033, 156.03571963739225 125.95745289417452 M154.33921339555928 93.88799129859333 C155.79637458929227 103.26197518310269, 155.60517604789345 111.0711267846883, 154.04877238615427 124.21769841958823 M154.78832088600396 122.85994797694207 C118.10826862032305 122.79792102557062, 82.17450676960094 124.04177105972528, 63.788670659922204 122.32075341326288 M155.57059539261104 123.72594064459665 C121.72575015208854 123.75713167060684, 88.66040060439194 123.49236188410421, 64.31993813285527 124.06125829074539 M64.45696507228713 123.06549203473189 C65.24176882528388 116.18352010274374, 64.10027349374087 108.17839314057913, 66.04635977303819 93.94567355263823 M65.6463492055583 123.51328905759479 C64.24044482414944 112.45740296178641, 65.65810709553986 102.05664561436453, 64.62070630167197 94.52877201963061" style="stroke: #000000; stroke-width: 2; fill: none;"/></g><g transform="translate(82.5,102.5)"><text xmlns="http://www.w3.org/2000/svg" x="27.5" y="-3" style="font-size: 12px;font-family: Helvetica;" fill="rgb(0, 0, 0)"><tspan xmlns="http://www.w3.org/2000/svg" x="27.5" dx="0" dy="14" text-anchor="middle">"Callithrix"</tspan></text></g><g pointer-events="none"><path d="M70.81270025839062 124.62767139499046 C68.03013305050813 126.09910001627361, 66.78013510312485 128.54692201438323, 65.01883416243211 130.498649405836 M70.70108187408283 124.00540510781077 C68.81051531215674 125.83884281451819, 66.41196124743361 127.94395714987559, 64.94055059763215 130.26381427661153 M80.12071287430193 123.7560690107768 C79.80333291184718 129.51654216957647, 74.9773989506304 132.36898761364364, 66.76593669501416 142.69993439565755 M81.71781862311903 124.50091755405849 C76.90537941614232 129.65472603129191, 71.96679278057056 134.17003685396023, 64.26926131942592 142.3127606679405 M91.55217385685032 124.09855615292696 C82.05188124764221 133.31206105690842, 73.60918182590594 146.16602069627564, 63.960351688551775 155.91722234919308 M91.66491632736795 124.15358396825476 C84.67006306980747 131.41989546968873, 80.40896592859937 136.92983596698815, 64.88246341505602 153.77714293604973 M103.91252723829635 122.27827818304877 C92.87392996056838 135.09769421974897, 81.06615940134812 149.78423256613945, 75.53014198389138 152.52619563707006 M102.19720569448236 124.84707888599404 C93.97407987456535 131.76631157546274, 86.44528837128091 140.83400192688637, 76.28014922239896 154.27592746205795 M111.56041362464492 125.30730571589582 C103.11205542260312 131.64241371806065, 96.52409763813773 142.466632783705, 88.5150635866898 155.479197385731 M113.68857447752865 124.85042020489627 C105.46755357327447 133.0391036544466, 97.41250354106826 142.9350121802501, 87.06575904883026 154.16309941099897 M124.31121333302195 124.91863814139181 C115.30289285378993 132.60710281226605, 108.62245694117142 143.01939623604127, 96.6735120587525 155.03332234113114 M123.58611659580785 124.24568792907881 C117.65930971541623 130.64213355083467, 113.28816187741312 136.78507678724964, 98.17341514267525 154.86601105227143 M134.20472375337 122.44708885307757 C130.08539301104324 130.59384216761543, 123.19096388453488 137.2385465783342, 107.59531620955546 153.33842209467858 M134.84315674514238 124.57683272034285 C127.37257605791393 130.60086737234542, 122.9090431022865 139.16126201359938, 108.77723995840316 153.0108142351128 M145.45346844880092 122.83765582835397 C137.47293375823682 133.74761212582172, 130.40664115461084 140.21518420027965, 116.90227789505185 152.2950594664052 M144.84246603444933 123.35729417052374 C136.37696551970592 132.87565162164233, 129.29986864079038 142.35136133986796, 119.2484751320934 154.23415970501603 M156.70096224390426 124.93006680012114 C147.03306818932097 132.6248324855351, 138.69013808129628 145.15747068464503, 128.45484867229948 152.19894720101394 M155.37192870725275 124.0521615874261 C149.562613453411 131.64342862912474, 143.8172012926619 137.66905140620472, 130.01894162575627 154.78813373234522 M153.05988151846364 135.97379212446987 C151.20916398922097 139.1978363202704, 146.27678683380324 145.44767382947114, 140.38959140625565 152.5619292961931 M154.31593537947023 136.0858437156148 C149.08174347213532 142.73161195544247, 143.40159907556384 148.1882832946612, 138.88793466621632 154.2828962741659 M155.31247833450507 149.11987816583525 C153.8583730954278 150.50728829097244, 151.19543813394154 153.36032862776244, 149.6855685877453 154.36068645615097 M155.2298174765668 148.52006440638897 C153.52604670988103 150.19429131446898, 152.36185430220254 151.79919372241153, 150.08970970026064 154.14831641335223" style="stroke: none; stroke-width: 1; fill: none;"/><path d="M63.474500262800085 125.3228532620507 C89.49458903374624 124.64802912876655, 116.94635732608597 121.78528913594741, 156.98054572035483 124.81782402070573 M65.29662149485499 124.55607577278728 C89.1948003743309 123.56842177298932, 113.79724002319053 123.17525088952138, 154.30373374293205 124.20997890025964 M154.17490306049257 123.30245330140214 C155.16648262942573 131.9095571947424, 153.29789354810603 141.76650045914417, 156.1335119134233 153.0885319733691 M154.610797360275 123.92039593751835 C154.79797733204634 130.6820485381555, 154.35880477051984 138.40926237372807, 154.17811687461997 154.7311997557023 M156.39579718414532 154.41983302061627 C136.41153840751798 154.4366095497285, 117.63107455488496 152.85469280501883, 63.646145884002244 154.90004903425674 M155.05874186555477 153.24670115795993 C127.2849959761068 155.1282483368312, 97.10914779269932 153.5749390968365, 64.31005696594445 154.4688117386139 M64.28672031763766 153.6800974723791 C63.8146105441459 145.98049438538484, 65.98847825198825 140.68547042193373, 63.73785127062208 123.88357543007928 M65.31576851551036 154.90744111861213 C64.64293881983983 144.31419474178924, 64.16430414419472 136.02638818897708, 65.04770531822801 124.07906503596496" style="stroke: #000000; stroke-width: 2; fill: none;"/></g><g transform="translate(83.5,132.5)"><text xmlns="http://www.w3.org/2000/svg" x="26.5" y="-3" style="font-size: 12px;font-family: Helvetica;" fill="rgb(0, 0, 0)"><tspan xmlns="http://www.w3.org/2000/svg" x="26.5" dx="0" dy="14" text-anchor="middle">"Jacchus"</tspan></text></g><g pointer-events="none"><path d="M70.81521122377575 3.8034254077849217 C68.37257495817347 6.846388143719241, 65.69382722989154 7.87003334585899, 64.35729592388942 9.790734973869439 M70.34793393668592 4.054835134219884 C68.46089664426215 6.091397292769483, 66.8551428954571 8.084113030195025, 64.87660192219343 10.211742138994484 M81.03405430495626 2.2502999637989864 C74.48239532386378 9.597859020837015, 70.95473416658632 15.428521120324715, 64.98577404777404 22.04701625630929 M81.28968322768917 3.7891943495387452 C78.50465361857835 8.301300216942654, 73.74774354918932 12.112698052406786, 64.14260756901652 22.212367046092155 M90.68708050247466 3.31804534339747 C87.15216695187875 9.053425765759219, 80.82311519559707 19.005293185027334, 64.86755559292324 33.56288032265049 M92.50426754185641 3.5719558257941952 C85.87517908255894 11.762664079191712, 78.64189093858302 19.239856802894042, 66.0398023302255 33.90759658977437 M103.64618995171575 5.419223507656205 C91.40399349052619 14.053075094012097, 82.84675262122468 28.203027421733328, 76.67893082617067 35.82633899123418 M101.53671804324645 4.5044295834247405 C92.25820921583467 14.799253786672507, 84.38823959680298 25.399513586131235, 75.61618914241573 33.02529719980611 M114.79204699926558 5.380497786829527 C101.77963995594699 15.693244496486118, 94.54616517435856 26.313575090523162, 86.61425363831485 34.735840161577684 M113.68821857548662 3.8388050732893233 C106.91050578151824 10.866825785634473, 98.95764121352711 18.719294409345117, 87.2638860414555 33.02524778522955 M123.21857051947362 2.7051308424947242 C116.43900916343448 11.107791623787781, 112.88178461182588 15.478049744968237, 97.09732143683983 33.67473466427281 M122.97388042570388 3.267945612211275 C114.89839268594758 14.330527568357711, 105.70944009133406 24.76108199809278, 98.13551222194548 33.16250062198705 M134.13731264093167 5.166292865868787 C125.96495787591743 12.953450003110706, 117.31873469435199 24.09212193433364, 108.36104427650972 32.049502537867156 M133.73554657793028 3.677664770611876 C127.1284407272247 12.406230829022771, 119.01559631561771 22.34863890392079, 107.17394423166348 33.96680923610173 M146.05220159602945 2.1943805756890606 C135.96895651467378 11.511240370413478, 130.27764052507598 23.605800610488288, 117.70007832503697 33.261077384721155 M144.75564182321045 4.787786046536695 C135.88307481024097 14.047776721969539, 126.99210254953229 25.107283338625415, 118.77509082936749 33.87892258155328 M156.39532503793882 4.034396582246907 C148.6187636695837 10.33337618947712, 142.1828117932367 17.55407353568704, 127.78952135155139 34.480787143228355 M155.043418677113 3.5081906349111502 C147.75742546136215 13.844063809035966, 141.11233187056138 21.93098027512148, 128.4339901404958 34.258409084208715 M156.26776924375335 17.88761920237165 C151.22479013884586 19.525633409300735, 146.4111618664232 27.638536600036833, 139.7518903834835 34.20067835438005 M154.1826415315066 17.082534423883878 C149.23141234968207 21.217345150996767, 145.7209677486168 27.486523006591334, 138.93110033450398 33.29359928996243 M154.71068352870975 28.681698441726017 C154.41134726238113 29.53795126490991, 152.9423407313146 31.452187542359333, 150.2284284027498 34.21328825676532 M154.88442503553688 28.956948835178373 C153.4294223253641 29.84803183574336, 152.06310257836674 31.53640058062473, 150.53814501695263 33.73017911323548" style="stroke: none; stroke-width: 1; fill: none;"/><path d="M63.36988028741556 4.972977909544388 C85.40925900552278 2.9613283848480654, 103.85143845418969 3.078160171219846, 154.08147634958488 2.78852855521584 M64.05066212914429 3.3283743804084214 C95.11549370022283 2.6874666286302835, 123.18597523361447 3.8424573616572486, 154.92673104784438 4.313721643405879 M154.89384495899674 2.6428541025511088 C156.35528699768614 11.841051315919477, 155.02044737486858 18.259166132677247, 153.26824093684758 35.05064250167587 M154.85357763435266 3.273876698491362 C154.76925318579455 11.140616408718246, 155.1712116350499 19.221150111514874, 155.98809945897355 33.37547435340231 M155.52021845397226 32.51091935208812 C130.46315186453458 34.666507695915975, 110.0583170141413 33.5943833301644, 63.2761706736397 32.98892893305077 M155.7960306298424 34.51939871963738 C122.03419483841965 32.18796820123209, 90.53405364568165 33.62460417343745, 64.86371123786309 33.040241786313004 M66.9629855828231 34.77614966605552 C64.99041847880247 24.906120875267113, 66.46353217311378 12.772273348061795, 65.59910214577958 5.418361804335409 M65.87250226513865 34.4812536495886 C64.37323574042442 23.77610456085745, 65.61584951669991 13.595308425204914, 64.06690359961128 4.1485989762173245" style="stroke: #000000; stroke-width: 2; fill: none;"/></g><g transform="translate(94.5,12.5)"><text xmlns="http://www.w3.org/2000/svg" x="15.5" y="-3" style="font-size: 12px;font-family: Helvetica;" fill="rgb(0, 0, 0)"><tspan xmlns="http://www.w3.org/2000/svg" x="15.5" dx="0" dy="14" text-anchor="middle">value</tspan></text></g></g></svg>