<svg xmlns="http://www.w3.org/2000/svg" xlink="http://www.w3.org/1999/xlink" version="1.1" width="349px" height="190px" viewBox="-0.5 -0.5 349 190"><defs><pattern id="rough-568753079345087" x="0" y="0" width="1" height="1" viewBox="0 0 100 100" patternUnits="objectBoundingBox"><path d="M6.171660187294048 -0.09300194178686871 C4.668451351462663 1.5202063888081887, 3.384486817276435 4.216855335134001, -0.4513742579028225 8.280450720080786 M6.599900485684729 0.03916840347550965 C5.044850729153678 2.5830756592653117, 2.3179914227725833 4.520161704530987, -0.26847159183859715 8.107531514158294 M19.226389483606255 0.5450975917024499 C14.983008738687566 3.764373032238968, 9.02458951135171 9.198918872764619, -0.9095921217403697 18.641689265789843 M17.01285075335156 -0.8755096008843086 C11.026466010646399 6.688096058625497, 5.7794072872455 13.211189153881826, -0.9735619558886395 20.064842882412716 M27.610191748341176 1.8259504825075776 C19.223004799033305 9.371997972315492, 11.313304392217624 20.5252129284415, -0.3764785715737444 31.654033983811345 M28.109236530503615 -0.3184750383553827 C21.357271615069823 8.242795205844983, 14.136663206515763 14.341820623889102, 0.3765980178301378 32.642294439764974 M36.97675441854661 0.9484095126631091 C29.81847318058461 8.771279328873675, 20.97634212364928 17.983667281695904, 1.402183905378 44.56287314468949 M37.86412125163774 -0.7591090172785293 C31.44551125319113 8.165504050038521, 23.7867835462925 17.96696645796176, 0.7235761059143169 43.467435239951705 M48.275268665094885 0.7788854678181174 C29.48496494559498 23.832254159259914, 8.587889215585246 46.04206910762853, 0.7170424433572267 57.24428336144981 M49.47609745816899 0.6310208927865957 C35.61888424545102 15.308195481071833, 22.341719689570716 30.387626696960442, 0.9381964871353974 56.37148513607411 M61.560336266952795 1.728278716159969 C42.4322480131588 18.46484383874254, 26.65347524663556 38.97624297572612, -0.6844700363352878 69.90425045798764 M59.39821671689059 0.5406980289402887 C42.232869658755966 19.611128105500043, 23.80171340196423 39.52892347420532, 0.9997056920535985 69.31311047749035 M68.74653373760616 0.8375119896796628 C48.035678992370265 25.93185588386605, 22.33267757099341 53.93517862901107, -0.16838523330407007 82.09061675387319 M69.91463969522275 0.7914634941728762 C51.11121263715572 20.314308132023566, 33.70802219132711 42.05640722281673, -0.24259512989160203 81.78522607780036 M79.60153454751345 1.3312863340512884 C60.9674953388673 22.29419195084267, 43.27856921512728 40.65862524461869, -0.5086816822381364 92.35808606288792 M81.1059500892726 0.798088359111536 C55.699847555050546 27.882859963052066, 32.227305092548875 58.09324932681111, 0.1573726226610601 92.99799062828824 M91.62821749135651 0.7590108647447975 C69.73358187420392 26.665156567145395, 45.906956129725216 53.17391482540336, 4.688346882124199 99.14013887078347 M92.494231715809 0.3494658866294227 C60.852146956892724 35.76880751310845, 30.569385949055423 72.83132228128768, 3.909725171085437 100.03617458358204 M99.65501099320971 2.7113726030855156 C77.06838139536401 29.71980111868081, 53.85364771269364 55.38488674964396, 14.72462645616993 99.81880938205892 M99.7168345836013 3.3798089292715767 C80.54897105569569 23.352792209568186, 63.24476329940665 43.99434670243256, 14.369163253496568 99.04808443598279 M98.54630830721439 14.107237642683783 C85.48802035651909 31.989881894259252, 65.21443750141967 52.410003389796465, 24.69232835033887 100.72496682464309 M100.08844600477725 15.686327988511072 C79.46264629509393 38.31446150933507, 60.613768757865635 61.78755646885935, 25.065894345108028 99.81589417474846 M100.71856568187589 25.707571790906144 C77.7228540989203 53.842025437722704, 53.00517095406531 78.51695904063656, 37.567332140763185 99.8785900878983 M99.19833581269741 27.219812815246733 C75.99713846727204 55.21012299379938, 51.473365743167726 82.35263445531905, 35.49535757729905 100.12727615388084 M101.19983959135277 38.2348358566122 C78.2005238092948 61.340156271748334, 58.61575245448626 86.50741263069388, 45.26612131729158 98.20381342980599 M100.11762580771773 39.69258980226637 C86.96345006044403 55.99635589598991, 72.57220145405597 71.42832091389188, 46.99492079801422 100.77629177473004 M100.10637761494758 49.6637223946407 C88.12563635266667 66.0936786108197, 71.61994967485052 82.69076698876553, 58.88624700786963 101.98655393774199 M99.29312334365365 51.75465029328645 C90.38637224596341 62.91270127628707, 78.6454721580164 76.37422710571255, 56.99442352292244 99.4460627907555 M101.62718550297923 63.2779517585288 C88.55920161992289 73.29182579872668, 78.52798416614624 86.71925028786733, 68.63074438495966 101.50440544180037 M100.50154035686431 63.63509671863028 C92.01188143633847 72.90334326561243, 83.21664909184503 82.52142864703136, 68.15552033910912 99.44459159497619 M99.31684307927065 75.56204938911632 C94.62297508101743 81.62270086227531, 88.2161041826956 86.58533877983179, 78.91486832834612 98.11862093133888 M100.42684703532144 75.84656958129725 C94.89966398706524 82.5688766927466, 89.28676586589202 88.70415852016536, 78.21389460181183 100.36314236028619 M101.2826094249093 87.15030130470771 C95.44083727513133 90.68977727812577, 94.44910278503082 95.1649974016441, 90.72399404083275 101.57757565214803 M99.93745248034544 87.20384303212754 C96.75938417965193 92.02732114133015, 92.12210993405661 96.43391954450128, 89.6801017123125 99.35367845144206" style="stroke: none; stroke-width: 1; fill: none;"/></pattern><pattern id="rough-2111374593818255" x="0" y="0" width="1" height="1" viewBox="0 0 100 100" patternUnits="objectBoundingBox"><path d="M6.757752358486157 0.42688939170498164 C4.566582752203859 2.3475494755478636, 2.9571336520534266 4.795888077344168, -0.14119111355747616 7.517009995936874 M6.432403648933652 0.2757907617405492 C4.484856455702377 2.2717831623405127, 2.1368359114955147 5.023079279132102, -0.4654319879502008 7.696972939211709 M16.350431417704634 -1.8484091465766923 C10.21219724455699 4.480239633358878, 5.205173539293073 12.560546689035487, -0.3753091579333292 21.775579347381303 M17.80590859760994 -0.01256971957480113 C10.081212447151158 7.862358062407616, 5.559982555124269 14.332257402845652, -0.8811951512435381 19.341838315199134 M27.668719328988335 0.8621650648648647 C17.98512436872545 8.223970146682223, 11.43659724629417 17.81469455933697, -1.9250938820879613 32.29022452783729 M28.103424218022536 -0.7531721992788296 C17.758548961871938 10.254611954674292, 8.121771020807829 22.385019071885218, -0.8748478333790404 32.4464738015871 M39.534521742870204 -0.59223134893998 C27.293836803840968 16.05313410022778, 11.638999837408 28.251228473863595, -0.5404373788314452 46.22170854975319 M39.12257170392583 -0.71008529244983 C26.693277701578165 12.407640295484258, 16.339202330750595 23.438457947316916, -0.6076429381139019 44.821514596628305 M49.572042249878976 0.08023834404692742 C33.82141325974776 19.48494282417926, 16.12578459003216 39.28796635346977, 1.3516998636645292 56.287433795403516 M48.849728758674054 0.042164041658880436 C30.01705892736775 20.615169612554734, 13.77889851270347 40.02340293423474, -0.5086178910018901 56.56945642950842 M60.81456360440787 1.8346909184719262 C40.43682409714763 21.71442054530248, 22.402664769091512 42.686555627026024, -0.4153611017102312 70.19424511865162 M59.36852649348939 0.5145225795523745 C40.97343711059064 20.121850273907626, 24.24519423047475 40.62533981308254, 0.5396053170911634 67.81086586642529 M69.50297704160856 1.9537451044204088 C54.38436007986083 16.44182081382459, 40.663429924314926 36.55297572141302, 0.7498889435157796 82.55395858488616 M70.43293932281262 0.703452722684903 C42.77333651420888 31.105995725017102, 16.347974990770062 63.171976433755795, 0.3621221508128807 81.03254401923753 M82.22385855462674 -1.3691566893029767 C58.08246515728443 29.58000036206677, 33.68551765913783 55.73897317159736, -1.7595500026599504 92.15296716087963 M80.94741016008643 0.7906640026463951 C54.62825383735192 31.55517945961342, 26.63281507418429 62.15239993346064, 0.24905987915796057 94.10508122563743 M92.09944014250406 0.6903253492834525 C70.2457679550221 20.286278358324065, 53.754163117040406 41.59516426499982, 4.861900401390447 99.99558247728847 M91.9939464039813 -0.4023960205524477 C65.42693570584635 29.230036695284653, 37.335069690730165 59.26102144784384, 4.616444881539032 100.2893969104219 M101.76971270316116 4.332257300200268 C82.3017376406353 23.893170667887762, 63.51008065458849 44.815668585407764, 14.629872771201176 99.91513892535316 M99.06604972247598 3.33056164190533 C73.18107541714895 32.744330193961176, 46.83542381109059 63.620368949269356, 15.019330738584847 100.81420624654437 M99.52295790987355 13.35845209122834 C73.51823430157002 42.136688500974, 51.094259695464174 74.47382892643799, 27.785393730851332 99.51510895869791 M100.3054013030276 13.89311742139595 C80.44889051209846 36.36652716390878, 62.015751874204 57.65245523779053, 25.796145404458944 99.34813523871225 M100.4376810235027 26.60679098460771 C83.27391736135489 46.25574758664504, 64.51685639776348 68.6610489321159, 38.1796595460131 99.2689773595334 M99.3408629938846 26.056253622884554 C78.82226697590129 52.825372224753835, 56.7153889230453 77.71260374783672, 36.097245478882186 99.52239308946986 M100.34905956725545 38.86378107918295 C81.44612265674827 58.329603378896564, 67.48478441547957 76.90708704651922, 47.88845416560342 98.62272548553453 M99.48541233181092 39.54697588241862 C86.91733637711425 53.67926382980137, 73.04850264523465 69.9902565150306, 47.27160296203368 99.45044037286037 M100.82769139767422 50.372984033262455 C84.27184802818843 71.64938051577502, 66.24714915218861 89.13636389793147, 56.83056290254757 99.1808312355832 M99.32174275897825 51.349649079555796 C89.84142818779199 62.832750922518045, 79.92950153002114 73.07190357298927, 57.21161485024994 100.45604543331682 M100.35427750530704 63.89825164859302 C91.06466078246771 75.64601714440867, 80.3088503101926 87.45956410980838, 67.35046193435382 100.81851921244213 M100.12799730153499 64.42054128697963 C91.23392102151307 73.86231657986927, 83.5747390326166 82.15794419102573, 67.92815392103265 100.24570500332119 M98.11585758300735 75.08517190298859 C95.56816862449716 80.88439887806179, 86.87830272222334 88.63888294975033, 77.55550668200634 101.54422762221186 M100.75314322120039 74.85215791372725 C95.87253395714114 81.26470374608081, 91.24203992888516 87.44843689603127, 78.48161173200323 100.832423091906 M98.53547558579396 86.89216254057706 C98.40722880578517 91.5103739541464, 93.38163345353829 92.90287850959317, 89.74518869115376 100.07832445482902 M100.62046932075273 87.9804255255122 C95.98172351734719 92.21050680991449, 92.1000767648331 96.38377199445993, 89.34242311618502 99.2285147830674" style="stroke: none; stroke-width: 1; fill: none;"/></pattern><pattern id="rough-685926240979777" x="0" y="0" width="1" height="1" viewBox="0 0 100 100" patternUnits="objectBoundingBox"><path d="M7.719188126161099 0.7148808984436033 C4.561818381321337 1.1521672989872613, 3.294013728434146 4.3872797047673835, 0.19239005472985538 8.055245596143767 M6.775644298598203 0.021621752391246196 C4.554728046688915 2.3454146916444953, 2.3933196807700394 5.5198953912741455, 0.3794240510784247 7.5657726218070875 M19.073140577271204 -0.5237961146082073 C13.602442555720376 4.729825045213751, 6.504510305881037 13.584204684711523, -0.2828620621986708 21.567300692963588 M17.188760783586726 0.1185464421376996 C12.321980990772694 6.0885234911643344, 7.0141379414397775 10.64486399454175, -0.7344656986209577 20.57025106164496 M27.12930763544757 0.17093025667053396 C17.805689488822722 9.481526198632528, 8.109042275339377 22.011489421810744, 0.5333376005928594 32.20205953396798 M28.782845495201865 -0.8344193295990201 C18.26037268871625 12.04857585425541, 8.82040286536581 22.454652814008533, 0.44442630725080656 32.266629747335806 M37.16816936532152 1.1211166408077986 C26.92881008010115 16.400897334819984, 12.723901148893582 28.25461462198638, -0.026925799589283095 43.17908695930573 M39.10515053752819 0.7931413753676315 C27.266634545098746 12.521038355378558, 18.13948328476071 24.015580272916353, 0.9876965646255709 44.37817914057897 M47.27494794431868 -1.5118257917499003 C36.17646993602563 16.29737092348511, 21.794732974011506 32.89552321297709, 1.9056607803670742 56.69352803373032 M49.595184466344044 0.39375728790532083 C36.36680218561082 16.129017616571623, 23.169081564221607 32.32657090977681, -0.9370148118916282 57.30320672921209 M59.31510893490815 -0.9568337031028777 C37.71946938912434 25.81454975492004, 13.201305745923626 51.56493490493212, -1.1474393714539195 66.96303132900486 M60.38276354881257 0.29107648720268564 C46.45436869909322 17.877178884892732, 31.11379462876894 33.88248093710927, 0.4685170470846507 68.71102682535843 M69.37607181126495 0.8575466880522749 C49.53098525016302 22.543655234825025, 29.71554235706553 49.153106637622315, 0.11360534719466386 81.403385585197 M69.74392857484746 -0.604801141707072 C51.946853528108576 21.380826043992506, 32.21371099494631 42.38580333238256, 0.7054156188655023 81.42193959196777 M79.08552134576765 0.3225542900443923 C55.25091734202495 29.558255179404892, 29.27681115756906 55.97874821010713, -1.4869945034934213 93.39756606256853 M80.68737191986168 -0.3769447739392242 C58.66593054806919 25.935300979057423, 34.75155345666225 52.864702928945704, -0.6360390189603145 93.34027856886588 M91.28598530410491 -1.7810991362757358 C70.89238424295277 22.17591402449068, 48.71557105558433 48.00483109530103, 5.246956777687779 98.71839284161196 M91.76317886686573 -0.027191456809626757 C63.54068613609849 31.849826420132594, 37.65389937908653 62.43752911300426, 4.721620810972585 99.77170008779319 M99.39623476170988 3.8002291294826316 C83.93207436810957 25.98453995976179, 65.61030570297191 46.384889802736836, 14.43220365940514 99.91531655600285 M100.88665279304432 1.5392632586215265 C80.97925326311506 24.12962354824041, 62.11081139157214 46.85344261417435, 14.60998494949815 99.1203774057464 M100.47804938181743 13.304240223389503 C82.48211667562359 36.20193962922786, 63.27104297571555 54.924591336703386, 24.645589046196996 100.03725228456493 M99.11983460365919 14.874424849612598 C73.34930307568372 43.552733040168484, 49.87294776036366 72.06734141810074, 25.185580624274195 99.76550417999366 M98.85693266170271 26.07063897029334 C86.11771590895543 43.476603016258515, 71.87339626868642 61.8097692901516, 36.006866017995165 99.68167726124153 M100.87681263911297 27.673390028841958 C74.84148428033436 56.61526222860776, 48.90153847464159 85.29975115831958, 35.94012274425036 99.28394681845897 M100.50403927937063 39.461537146035205 C84.20974811774892 58.61622952820895, 69.62985116529133 77.46408867561004, 47.563438861856476 100.88019082757782 M99.48904096009866 39.40241472318629 C88.04854192042798 52.313638085497814, 75.75974740312334 66.03011280516465, 46.44245049399703 99.70861510575949 M98.98798512716121 49.89666537812969 C87.20158904899023 68.9386060567144, 73.91289484648414 82.82831574151517, 56.42556094086572 98.0375157416703 M100.34985231127384 52.17184061430942 C88.72455612237907 65.39610657795157, 75.23686211155798 78.42827507758119, 58.51556376630107 100.24874063990977 M99.29072196915996 64.93032576943963 C87.87731900421171 77.63534462846727, 79.36265314227222 89.52299955560554, 66.30517461207978 101.70681268146889 M99.14217354525356 62.64571215890453 C91.5735738286485 72.61638818849757, 84.96801775910812 80.86308920590476, 68.7118572185524 99.8892562304953 M101.3569427279596 75.00574881010748 C96.78454008093455 80.46676992257673, 93.1800217370512 84.73330286060954, 79.47206126960697 99.00187478244786 M100.89357230580303 75.8960060778512 C94.29723146030531 81.20560288168765, 89.29967093477342 87.4443693442848, 79.64392749741653 100.05474778275986 M101.0121414711624 87.70767105185665 C97.31814820603849 90.41344451837774, 93.28483824603043 96.29687406414419, 88.49728288027858 100.12074469147927 M100.14137731724692 87.96676889573364 C97.32152388349162 90.25622477722528, 94.34536648426106 94.05329666841351, 89.85956020620273 100.79581151560582" style="stroke: #000000; stroke-width: 1; fill: none;"/></pattern><pattern id="rough-7957748845213875" x="0" y="0" width="1" height="1" viewBox="0 0 100 100" patternUnits="objectBoundingBox"><path d="M6.736868881232274 0.5057654541758603 C4.3940238604190185 1.3045085347583476, 3.297725565110179 5.112610599663935, -0.37031390651578966 7.601951566985202 M7.17333488986733 -0.10276930115874128 C4.148705583528381 2.5133990331252147, 1.5399372448987454 5.708871724870767, 0.48759999867994597 7.832757581491464 M16.79602987451195 1.3110452854955001 C11.619141706313142 4.509236972772314, 10.508810929115503 8.382988389509624, 1.0964999954713868 19.60630142119869 M17.39922064885493 0.5568534151041238 C12.020801024946723 6.231458885066216, 5.1572826164322 13.08509054504774, 0.05404984962346138 19.811527272069046 M29.49419530368373 -1.701437282728958 C20.210334991517424 7.679530496770576, 12.589273791845267 16.659186141275327, 0.10108812799672773 30.409267741200786 M27.594329373932172 0.7090244579725908 C17.9252755995878 11.532325691156707, 7.22365472026869 22.950498080978402, 0.6265334520802628 32.315677825528304 M39.929020507843624 -1.5835181628595523 C28.367078184908998 10.053952618941643, 20.092474504974497 20.99301124652761, 0.7625952229376063 43.16488686712657 M38.239921688111274 -0.5398982034427862 C29.48648298299913 12.307833090318397, 18.86970884125562 22.395709345913765, -0.9760515425316161 45.258451266915294 M48.92028857828789 1.6598503234074595 C30.813751414533545 23.390429726318537, 10.89339450894266 44.818313606140606, 1.7201548639991389 55.09298271127435 M49.483982000991034 -0.2156515614617347 C33.88001222681662 17.86728186743042, 17.337453014705805 35.2632307740788, 0.44667790958573583 55.96320433922872 M59.049741080588625 0.5888156088911911 C45.5618095502872 16.975774478008823, 34.26175181352849 30.56165986115028, 1.9480633182563443 70.4946627350483 M59.42160548281309 0.8622482782647691 C44.176886486352586 18.139573261470012, 27.377415261313445 35.368067580628974, -0.8179695496570885 68.8225605353242 M70.20535853226666 -1.2042818680817362 C49.357242641904826 25.180917767759226, 28.55579510959732 48.5801599981532, 1.2851127430114628 79.40093338069164 M70.66250481462393 -0.05290362418237038 C47.582310379100996 26.194538518289235, 25.021126822802493 51.41131772029947, 0.8229067436341428 81.52082359422837 M81.8151444114039 1.9482739063302743 C58.5949329965619 29.220235256964983, 33.44094882784193 56.31301861931692, 0.7864129402033146 93.07376130973454 M81.55481839172752 0.8203645938127142 C63.54559018559972 20.915185541271356, 45.70018630590074 41.56696579013189, -0.4060238771528213 93.1340708879309 M92.32828488486126 1.56230577543319 C61.95369418195093 35.04943282882062, 35.00481679380797 66.0201926147998, 6.326319131000848 99.48638179017456 M91.65185812729587 0.7717442073639753 C68.43653891286391 24.86822046854021, 46.901661386056034 50.28246798409755, 4.453457801869365 100.24738387104793 M100.57152558867415 2.604612311918551 C71.53932241274896 35.67998410678766, 42.41827882484937 69.70303435563245, 14.627240455237665 101.47319701394822 M99.96790433849498 2.0165128501768765 C82.65375412389241 21.822812743580563, 65.08875620653296 41.64741279563853, 14.939351827426949 100.29175878930238 M101.50972687873247 12.912305549155878 C82.25569496149058 33.200255075615274, 67.97133918613254 49.1132759753358, 25.194972791165014 99.19779631611404 M99.59454064049953 15.545040317922181 C77.60189220969048 41.31297696812514, 55.13426921439313 68.58577769608445, 25.248357233099213 100.87033492456212 M101.65459812792864 27.117715543059695 C83.09510349807286 46.96130811525993, 69.28143314875841 65.17270358175789, 35.99581738443931 99.93802877380233 M100.6776352549329 26.502116599437723 C81.0512126759747 48.73351098605629, 62.12893526902458 71.18045622175191, 36.30452783525085 100.68911056233728 M100.06232385604332 41.04474592029989 C89.98762766407485 49.65735105363504, 77.49027364459342 63.234255476654184, 45.54421396220287 100.84922071624413 M100.1953245911641 38.47101320313606 C83.40496108887552 57.330094104352554, 67.23269572588758 78.10977088663992, 47.5196380384548 99.79750033974538 M100.48120638427557 51.835556966449595 C90.15479262555816 65.95727182315846, 77.65641874471373 78.4479875113992, 59.51826587899586 100.57779719702124 M99.10201766389096 50.36420223490515 C86.30010989078225 66.47021368195347, 74.53022615451435 79.97127305889052, 58.17337013353447 100.25529985154058 M101.65956865615844 63.60211612057863 C88.07172191967187 74.49158619123584, 80.90138879475458 87.66707655891196, 68.43788414416136 100.69171556799374 M100.93764551941214 64.4161390570016 C91.87271541124557 73.26877817371584, 84.39902544559503 81.69381171155075, 68.42133327498526 99.0376472071438 M98.03694891804884 76.08013721491173 C92.07414066512946 83.60286849155237, 88.28614181731903 88.02260604490998, 77.82120618104656 99.31761277641431 M100.50351852063831 75.8034584588749 C94.05210415372642 82.89863552915287, 88.08584505553455 91.00189433998054, 79.80752277250936 99.28251435169783 M99.32165988361459 86.81448165869651 C96.44070968521027 90.78422829325028, 93.89879420583691 94.73297100825444, 88.03052056483948 98.63524839064529 M100.40142980951198 88.18666876996798 C96.86487061014323 91.0299245903865, 93.40443216370622 94.7941643544908, 89.18176975150371 100.46884555357012" style="stroke: none; stroke-width: 1; fill: none;"/></pattern><pattern id="rough-6407153570854835" x="0" y="0" width="1" height="1" viewBox="0 0 100 100" patternUnits="objectBoundingBox"><path d="M7.587997486389194 0.0975229845145893 C5.918742419250767 1.5105584012165327, 3.078211682207843 4.628155467861415, 0.57111228779104 6.992258639546043 M7.060731160358718 0.3577446204166205 C4.65231707147451 3.15204605892736, 1.024931468739505 6.4423245315450135, 0.08050624632487469 8.135990590768948 M16.016037577883083 1.8730565519046394 C10.140676966774986 5.32088487395261, 5.9609647617306525 10.39828575358698, -0.9038236715044095 18.21888445195835 M17.763117876512275 -0.6611214884482854 C12.005917685074316 5.144899526440385, 7.444328099721721 10.187888177500088, 0.030822202032927404 19.048282659541908 M29.910883752433982 -0.01638319286588974 C20.82101018761695 6.823433685780193, 12.606323814036633 13.2983220551345, 1.7458501151311943 33.72547026941525 M27.919368446393946 0.9030599838479851 C17.613220864984807 11.170970476526039, 9.173188711242762 21.835290916538558, -0.38059653284459083 31.54243021982659 M39.389802785266774 -1.5020894273119358 C28.751947656320514 10.63357755829529, 16.860221721248152 24.2040308556878, -1.2584867859054558 46.33966396277743 M37.77169604396438 0.2780789940958974 C29.08238355125192 9.720037838771878, 20.780802480987138 19.043635992490113, 0.9594808672270321 44.31473447770001 M50.545959449627624 1.6923535478927967 C34.41214864503189 17.70831649959303, 19.324637411822476 34.25133467256849, 1.4547751865653673 55.12951523987977 M49.56028469803806 -0.24195540702392204 C34.81374764382405 18.781424494590002, 18.71467190669963 34.54820525506861, -0.6901747497949882 56.711465986533426 M60.01733197854405 0.4069631575769517 C37.21322935381518 21.886678726170068, 17.952461608608196 46.97642709505535, 1.9173646948026697 68.2482016663757 M60.47391458496259 -0.19234446892405854 C46.25929539249695 15.4851732733744, 31.928881568079397 31.748714571471456, 0.21166357100605637 68.90787012472269 M72.17015073366142 -1.2679662592528533 C55.50376066274639 18.814784098414194, 37.14851037530732 36.818879403493064, 1.0510074761163626 80.38316344608629 M70.54659046800873 -0.15005243909182875 C51.941255792688736 19.96501814629478, 36.07779480098926 40.90263225190402, -0.2947237997262029 80.78725707848602 M80.10621403698423 -1.9500818518065 C55.25449214156869 28.013137919179815, 27.946602350419603 57.5111020014022, -1.8322549033461133 94.25139892481207 M80.04345306455966 0.2461472047154767 C47.76711767235962 37.69534325459029, 16.15421282782207 72.44354297447373, 0.01247053884033722 94.04767162660576 M89.76637579480575 -1.777406776353307 C61.793741271443274 32.61772080920642, 36.4911695985578 62.279432311071496, 6.614294917118006 98.83780945162094 M90.99546301820006 0.42252895557572323 C66.0190601559421 31.261497210699805, 38.932765482562324 61.50053564025764, 4.702183713093438 100.48040058399 M100.04956106952429 3.31602023210624 C81.70368512010197 24.7774199371802, 64.75195149036213 43.9518214628376, 16.62554985385931 98.95968108133611 M100.12028621819725 2.6997969229704246 C71.09547800692205 34.609251938941746, 44.20676030625549 67.51759891386497, 14.322914369578818 100.5754656586885 M100.10402422539664 13.492545875598383 C78.27774008262942 42.17505135862569, 52.710342629187515 66.45722778223126, 27.0472249589339 101.54282458391535 M99.08443599652384 14.32709585481126 C83.13482651582827 33.452312445988206, 67.9031067772116 53.68269823261656, 25.778905571828126 100.19492062939557 M99.10970759828957 27.278383249570474 C77.46293477148319 52.596705320082066, 50.451007435771494 81.17563184701785, 34.98321734261213 98.22127259425588 M100.2666045765877 27.687820625740905 C87.27617373519037 43.03991780990424, 72.50860421361035 58.83113659941121, 35.78717065925801 99.2759382522121 M101.15183372302258 38.600718015371434 C80.30457650134949 62.55635253497832, 59.50766503362968 83.35068980772161, 48.27933220192422 101.5649864146971 M99.856053494915 38.533644504425595 C87.74306063208607 53.462363404508096, 75.05220653293986 67.49929089026384, 47.94789798981373 99.08330577534058 M100.35502863039606 51.844041924604376 C86.40055343358235 64.79669187017673, 74.88028905712721 81.85793767850427, 57.70736184354874 98.62208723027304 M99.75137702537123 51.757638304503196 C86.90734958733053 66.94021525128184, 72.14612090534813 82.96508666809929, 57.3084356944785 99.31947969073225 M101.80307840235521 64.02258669281704 C88.74798991638224 77.2911417011309, 79.11474307414957 89.58315542588562, 67.54500523814056 100.98436924083761 M100.47486679330018 62.981094798917496 C87.3253867570551 76.79892444981688, 75.74692896893539 91.12202265875383, 68.05733734897801 99.63423010082023 M98.37652291651435 75.07993605798025 C97.04010566838035 79.51561855151967, 90.56907218475685 86.86080593624479, 80.4088203384836 99.7247532342656 M100.82530739595808 75.56364788425986 C93.13203399750014 84.48329731403017, 85.17015192726517 92.89586574054293, 78.17956014232037 100.29437150562866 M98.4958151387993 88.17726244207792 C97.58781041102573 90.11121414297894, 95.98629030601904 93.40157780968651, 90.31628033480642 100.2381923797953 M99.23466271537592 87.194567301709 C96.87913729208161 91.24564400114387, 93.76433202989244 94.00630277277688, 89.19987095419636 100.39209258964055" style="stroke: none; stroke-width: 1; fill: none;"/></pattern><pattern id="rough-791997856360257" x="0" y="0" width="1" height="1" viewBox="0 0 100 100" patternUnits="objectBoundingBox"><path d="M6.077502290353299 0.5747727845270203 C5.581396081800207 2.3705771127189967, 4.154172727910446 2.8587015142256655, 0.6658246938390191 7.807067470831303 M6.681460584461501 0.48729968252695066 C4.85481097334593 2.5509649516826105, 3.297398733885504 4.518955813491905, -0.07402240715995889 7.418603707901399 M15.530045547486544 -0.9899858855454928 C10.881004766471271 7.109424306109315, 7.624081093888445 10.040297830631992, -0.5393548969386224 18.973625391464257 M16.96733646161204 -0.5144843496497282 C12.5740772342142 6.932052990978803, 6.280015529787938 11.891004504406823, 0.9906624439817437 20.20522496270522 M28.42461019586733 0.08114201638372975 C17.329005163732372 14.380285435025016, 6.146105694966356 26.580557586149062, -1.860773752296029 32.78602972704604 M28.732040066567624 0.1665692971298034 C20.10067745488655 7.907568412066146, 12.932002094815127 16.419248447301598, -0.7002158948239061 31.842875854393178 M38.507698775228285 -0.006275972656169415 C24.625856147225655 13.357304714797495, 10.633876929262897 29.08666750661166, -0.20124797746272005 44.95175037207154 M38.02413975117436 0.9567084930238918 C22.626520376158712 16.90301925432683, 7.66360135866112 35.69989485160231, 0.8158525771746046 45.110852236000454 M49.476592642098446 -0.649434821803391 C38.06129198200418 13.719879935905116, 30.187841492430287 24.455598266635754, 0.39118118373763533 55.16139357659093 M49.5292750666573 0.8602495897623976 C38.587086577730915 14.180660299859248, 25.556238486755067 27.297189755692617, 0.4594814321419878 55.770938866057975 M61.03850709953527 0.6088153132636069 C43.81139028712312 19.270582937946184, 25.296661321594936 39.778612397203354, -1.713045424745288 68.25965090319643 M59.36041826695623 0.3245980617479649 C45.831771168679516 16.19126922264993, 32.437512848519155 31.574862965572734, -0.20045095283652392 69.01098237495472 M69.5126837996569 -0.25458270594763555 C46.11738976808405 29.029263660966766, 24.08128193740295 55.11056505107224, -1.1665279405229274 81.3744554158532 M70.9399871654483 0.07346673568205109 C52.938875172185575 20.189420033952178, 33.37624705888264 41.63592093740174, -0.6699734704916755 80.45170048311627 M81.4097297464553 -0.3410741056276665 C66.3463753131591 18.199171555084764, 46.284080520278124 39.18851994354726, 1.159655793096026 91.58557882579781 M80.86956333443212 0.5592853659953638 C51.32314077512535 33.00071985277981, 25.071126355966534 64.21007280003369, -0.8774329424346012 93.60360105685392 M90.932970203049 -1.6818884410014308 C73.70236275210242 22.259296355860663, 51.488897577398234 45.75547075372231, 4.345564298185426 101.38523257740893 M90.86974070410845 0.19287219445427528 C60.805944539628584 34.25206875274875, 31.71959948326636 68.23317370519194, 4.697491110894898 99.75072496851416 M98.249427599095 2.5587811788360737 C76.77427709814599 30.561438127013293, 51.83263803919738 57.32016118558581, 14.970917396994597 98.19033208475715 M99.45972735161604 3.0729090627177094 C71.3593433975626 36.228161153039814, 41.039173086959856 72.52398222004108, 15.550650333990152 99.87960471303805 M98.43884927654723 14.91399477659915 C72.4177094991625 48.60027427569256, 42.60277753998626 79.75578062995585, 25.02358705837068 101.74780992784613 M100.6553498153221 14.000012906753044 C82.92263657573233 34.70212408197266, 65.81463896594452 53.878163681845216, 26.559053212747322 99.05802336286068 M99.26838695308162 25.812683421004323 C84.8737403376449 43.039286325366724, 70.58463222583636 59.63707686472445, 37.081334356448835 98.2268762020711 M100.43879656945252 27.82500642258128 C80.58630218840524 48.89511510309131, 62.44729898816614 71.06372952419423, 36.30556870808116 100.23407178847366 M100.86372051617742 39.5979720520409 C90.45597734096735 52.66733603939235, 76.37588170162775 65.12584055089235, 45.84973206748456 98.18396349835312 M99.10404731195277 38.37557375463988 C86.73831509307759 53.196036910555456, 73.86284072481384 67.84934381156702, 46.23160132451905 100.31871145464227 M101.65680699114219 53.06245707146601 C89.81766154279146 62.88059703133541, 77.54980593167447 74.98477165408639, 56.9122974616408 98.88726439982827 M99.22836000184856 51.11578547503824 C85.3549644053303 67.92532805296145, 70.34985096670646 85.5222349800991, 56.86864307513868 99.10952008012973 M100.36596590286402 64.72090123425241 C86.3267930652968 78.54920855423592, 74.50366728509 92.31654235043122, 68.18410572182121 99.13550303121092 M99.77237202995443 63.238328174322696 C91.74606516985875 71.85766670108946, 84.76591470720724 80.31741885206733, 68.58365108603529 100.22422756110575 M100.46684577180929 77.00684943457534 C93.11329276781227 85.3417174442109, 85.70444805049708 92.10935831490525, 77.73539178606305 101.65371319738645 M100.69114420247908 75.31031688587287 C93.54190227060819 83.95367821546917, 88.30007065279013 90.99102884176683, 78.6097356506156 99.28560621623707 M99.76729954467214 88.52566409898134 C98.6309180931324 89.54989258931897, 95.48138184910258 92.94104274519384, 88.24069193152614 98.92277481222955 M99.92223211245695 88.48818646898214 C95.99762201731247 92.47395669134838, 93.7567796650031 94.84544288330804, 89.43310940465888 99.68123923710128" style="stroke: #000000; stroke-width: 1; fill: none;"/></pattern><pattern id="rough-5547741526203313" x="0" y="0" width="1" height="1" viewBox="0 0 100 100" patternUnits="objectBoundingBox"><path d="M6.636611885497781 0.028296415599939895 C4.942153697898177 2.8782323780136227, 1.4824919485327646 5.010002665741617, 0.10791195941770648 7.218306743282392 M7.246212727163689 0.0847120481602821 C3.845603945103911 3.214942372323763, 1.46744932329684 6.072742472866296, -0.19678194101036356 7.944942625363674 M16.938160409061837 -0.21944572385143868 C11.773675508359826 5.920581143741817, 7.756795172731092 13.897272645793342, -0.9927619586247536 18.498236001290778 M17.8847115206633 0.49443803893824523 C12.942809744556579 5.572958522412987, 6.889189663783622 11.830475353906634, 0.007371093425680542 20.833612016753168 M28.616336014968446 1.861436062608365 C17.539904532725682 11.52057861356306, 9.985986930230148 20.853832791500658, 0.14248820648632865 30.71268262028102 M27.355659483059846 -0.022296789793488703 C19.79814963575841 7.927334951108948, 12.726639622809031 18.076057920773128, 0.007308102385573001 32.52515626942951 M40.5721010111627 1.203030505916276 C30.457130991313598 11.528873495147966, 19.585393593704293 20.768850198196954, -1.4434302972516626 45.25105566890369 M38.1541228017913 0.6305168435397897 C26.592082418805656 12.597537366020099, 16.27839359300508 25.59682271953561, -0.46443710424331286 45.04918327828505 M49.56921580167514 1.4109792741111837 C33.52978488328179 17.70567708897192, 18.1728584490722 32.19318557316605, -1.6155385988211517 56.326183328884625 M49.58368796610039 0.6692694490463955 C35.37869373363082 16.814817998482916, 19.300505226448315 34.443456135995255, 0.005793131918999883 56.749287148176045 M59.684318811934155 -1.330390701689037 C46.13776166881577 14.696269418870976, 34.50856447815322 30.7247899573402, 0.3658872093102419 70.01802016051909 M59.90979250410612 -0.9817709387219518 C44.81560276973212 17.779866489547913, 30.322331173300142 34.21738330963688, 0.4962225431483054 68.83015590025478 M70.89432798161852 -1.6271471717320969 C53.9769213233902 19.911157502925104, 36.16902880991739 41.713341699323706, 1.7396617550822526 82.78557134192792 M70.33816823474756 -0.8921601083084578 C45.44122590304727 28.687898625163317, 21.737226063812205 55.642168718076135, -0.7995005545441916 80.2780438684597 M82.62952937504056 1.9279701649822725 C53.633487603465504 27.35610066963089, 31.920882179239115 58.82751864073661, -0.8918661624127218 91.73272429241003 M81.53827430577489 0.8734329045563554 C61.09890420540043 22.53537302334539, 41.70516006467431 43.858028751458754, 0.5113073791411384 92.6981260013654 M92.89128345135222 1.5640453669943257 C60.27176427746082 37.088653394032946, 25.293366101228113 74.14870237352106, 2.785725718522616 98.42651690824465 M91.84090873959032 0.09359238518961721 C73.36528824895784 21.57265028862439, 54.86085657626101 41.93182704688611, 4.793435216376303 99.64874571104814 M99.43348390360043 4.336897318788967 C75.58858113506702 33.796013621231815, 48.77140172609133 61.79994898468654, 14.299623285263067 100.29160918212291 M99.72182879657674 3.453303081774458 C72.24847826240278 36.130318751485405, 43.801048624428184 69.3162004053684, 15.5982485451846 99.61203214718655 M99.63473767050932 14.620900549983151 C77.63369275251303 39.722036949058236, 54.63004968433313 63.24388889286992, 26.965161321154447 101.22930303375134 M99.63342218790976 14.746205414126356 C84.81216005948146 32.78286600499455, 69.56120077394354 51.086141760657824, 25.269005939007446 100.40904208378184 M99.12081938061813 25.980352797556957 C78.55028107813348 50.691170959529146, 58.318027451409726 75.44872719957144, 37.849371712038234 98.85960463976582 M100.55459219047654 27.539813867994873 C78.97547615750683 50.77136811718144, 56.27198657801687 75.6815063176589, 36.30504007795869 99.33549904840852 M99.33003128058424 39.7795292536848 C81.10291348975083 60.76386909532802, 59.6920785841982 83.77409745274726, 45.44206087164998 101.20586741982653 M99.50226608421151 38.278980604834906 C80.07658121059566 61.89082896119584, 61.938204365760875 82.8706006417433, 46.10662146307865 99.12032289447238 M98.6177606235203 52.70779574510756 C90.67293001176712 63.09996184037095, 81.53811881199339 70.1148671579339, 57.9085475241576 98.8152657761164 M100.03486797545257 50.81414856894623 C86.23372289327169 67.73265109816256, 70.82311001877098 84.42094577441009, 57.33003846543825 100.3990291037443 M99.49165384448273 62.364485997072336 C93.359021984264 73.2549726344261, 84.54499210732016 81.14012422134961, 68.1824465182451 98.23040385461621 M99.03832747966727 62.83321564000988 C90.02810805381631 75.52746688468564, 81.26833374038259 85.9197921728521, 67.99566235370712 99.5964644629217 M98.27964639368707 75.91400132474556 C93.40958165636113 84.46178738449242, 83.09607639741748 94.56917513314069, 78.00034066253284 100.8330043044571 M100.83126292608273 75.7583598275702 C93.22217539512113 83.76966424411032, 84.53965677946883 93.7912126585599, 78.86952495473483 99.4384929055681 M99.05414190772854 88.00173976230317 C98.66062927676353 89.44034518695088, 96.96457890950384 92.59191901790943, 89.6951795194706 99.32763862796838 M99.505915164343 87.88347137547585 C96.25870729476746 90.56159456255465, 93.34305259377271 94.24339365916505, 89.70714787560536 99.97154773320659" style="stroke: none; stroke-width: 1; fill: none;"/></pattern><pattern id="rough-2152004659436949" x="0" y="0" width="1" height="1" viewBox="0 0 100 100" patternUnits="objectBoundingBox"><path d="M7.246259356659954 -0.013295177320984841 C5.2617016762203175 1.9056619290236125, 2.575243307778247 4.6300304826720975, 0.2083273048565648 8.427899789743574 M6.957321258858483 -0.5137948221016476 C4.456450546281754 2.448040918977236, 2.508530681069735 5.0130195689317425, 0.028285486786691516 7.753213877981971 M15.71995903531624 0.37473004318854564 C11.960463656782675 4.197154937172399, 10.006349659742682 10.104243125328415, 1.9083413846092698 18.25476618884874 M17.81523391375198 0.052309366402456536 C13.166096187517038 5.43215306666958, 6.709276610409179 10.913517670402099, 0.2885700126014985 19.03837965809602 M26.279852602053456 -1.8849132336681444 C20.3678693784545 8.285716053657891, 15.793935910349832 15.07613393914728, 1.6124862571208576 31.450528055019902 M28.672292841289206 -0.1962136474033942 C17.119040685739332 11.992053320420457, 5.300816056433028 25.638156811433895, -0.8358119842432195 31.764499016490305 M37.54457501809713 0.0888192006858155 C22.98025539420112 17.538095661685535, 8.703785135141032 33.93891472294709, 1.5607396781544693 44.53935052060926 M39.27862275257952 0.13745084965048893 C28.425446985514018 10.273058881014052, 19.670955033772525 20.752962868478196, 0.9131732768523495 43.5396538632457 M49.88334045765588 -1.459846477768819 C36.171116929712404 17.198203613639862, 19.950035254791235 33.89826838281108, -1.8823246334992758 56.85664037916961 M48.69893204221229 0.4970845342586596 C34.23450311070532 19.079404948794686, 16.677694567865647 36.054673930179064, -0.3937596720075027 56.14177191138912 M57.905259685539654 0.2055761709243349 C46.79051343349503 17.256952906695858, 33.29811716690466 33.81461486564969, -1.636981342135364 68.51832636673234 M59.65947048934633 0.7030578763486752 C46.34563112914166 13.484142301331039, 35.0387887982701 30.18005338916446, 0.6225829932641145 69.55891697805384 M69.02496123267235 -0.6316516555189251 C53.76871853732924 15.227853955328948, 42.48478861439624 33.58979053887463, 1.2681560822170033 79.38843994650138 M69.98299736320821 -0.6463903174427132 C46.875511378883274 28.019131827838212, 24.53620152938762 54.335175267835595, -0.5995465069579708 81.01021154076595 M82.32716628792984 -1.9115296193982347 C50.743442517182785 35.40526570609093, 16.57534404399488 71.81531916062579, -0.24632924107107268 93.57314791498781 M80.43298219214527 0.457457584678171 C54.5618343813146 29.92711293239083, 29.710009171930903 60.49511751063265, 0.935199365726882 92.50889877809558 M92.02310248698777 -0.3239859274956567 C75.87178990764484 22.705198472877306, 57.8064239714989 42.78707820643889, 3.8517417079605973 100.77015467600502 M91.0511447744282 0.2709392680656304 C58.7688263521921 39.55618768409838, 24.936640778179374 77.64563150351744, 4.810577893612737 100.21377597611956 M100.13147964032694 4.05850148874859 C80.43771373101247 22.3996723996067, 62.572981853926606 41.06895552252128, 16.002827768929983 98.18110794883574 M100.65643178041294 2.824381439665378 C78.10188760285246 29.302017973865503, 55.95744405446161 53.83952086157588, 15.415723877958758 100.12651613017307 M98.66459851277756 13.489300305063193 C81.80827069944479 39.8228667019528, 57.80169824249173 62.72879189548882, 27.648574731321045 101.35176634748949 M100.86882660621251 13.837209197033818 C70.46537082572549 47.64192921891977, 40.04429380858359 83.00262737233678, 25.980687090176563 100.94912643989326 M99.69825911721378 28.246435427037966 C83.626407491682 43.469418948954896, 72.44200773226058 58.03979213609885, 37.00338828931526 101.52707944124475 M100.14083237716824 26.498661934648837 C81.24542102112014 47.852570054113244, 63.43566747248379 68.26974985342883, 36.62620894710538 99.37126427936022 M99.20512744701924 40.91435468667839 C81.3772167228488 59.49292420134515, 61.03110680921381 81.83540558006926, 48.94510969025901 100.14436491231159 M100.4862565197597 38.19521855719193 C86.63096111929383 55.76446070003543, 71.48707693964201 73.08026874884752, 47.82261858004999 99.9092273242983 M100.24186591158912 52.59509070918232 C92.16271804312036 61.075579311922624, 82.84052347114198 70.79668279432788, 58.821382961020596 100.43307879959802 M99.53488512137508 50.586290331535885 C90.69238827805405 63.074982929313975, 80.27704051548204 74.36290211341368, 57.37021460570551 99.55583303061218 M101.1122269106884 63.65403542854494 C86.88838280746343 75.74091287730262, 75.19319218184901 88.41791620360775, 66.31076178472732 100.04428359025685 M100.50175108655455 64.03301938825919 C93.38186724987665 72.30841119874026, 85.49778423127472 79.04780153606805, 68.47663739874886 100.19434423827659 M98.2469511974224 76.69869043546424 C93.0492553106034 81.3973559477429, 89.75778102177631 87.4650746316688, 79.51130380249867 98.07158877497355 M99.2703508602482 75.31720752424084 C92.62750951505268 84.04181024721382, 85.26637679008783 92.54300261705234, 79.09193823258153 100.2992483346446 M98.46232018786758 89.27956114331249 C98.3223409574227 90.43306945153601, 93.23597100645264 92.73818801094045, 88.63936089976369 101.24012288330013 M99.86225055561843 87.2046616611364 C97.45600484294935 91.96721173236071, 93.86683278014632 95.13575962932488, 89.27456660585693 100.65568073113903" style="stroke: #000000; stroke-width: 1; fill: none;"/></pattern></defs><defs/><g stroke-miterlimit="10" stroke-dasharray="3 3" pointer-events="none"><path d="M 129 184 L 129 44" style="stroke: none; stroke-width: 0; fill: url(#rough-568753079345087);"/><path d="M128.02874959860782 185.4003650292307 M126.06630508060212 185.56783958478462 C127.02610251226722 137.7355021751596, 126.48546422395601 89.48466508047744, 129.20159303280343 43.38181379803604 M128.50018522760863 186.32050319057382 C127.62068233116973 132.11093137293375, 127.87492122329961 78.21962589150618, 128.14502164527093 44.13305357250547" style="stroke: #000000; stroke-width: 2; fill: none;"/></g><g transform="translate(58.5,149.5)"><text xmlns="http://www.w3.org/2000/svg" x="15" y="-3" style="font-size: 12px;font-family: Helvetica;" fill="rgb(0, 0, 0)"><tspan xmlns="http://www.w3.org/2000/svg" x="15" dx="0" dy="14" text-anchor="middle">adder</tspan></text></g><g stroke-miterlimit="10" pointer-events="none"><path d="M 94 156 L 172.63 156" style="stroke: none; stroke-width: 0; fill: url(#rough-2111374593818255);"/><path d="M92.72987052617137 156.6083242785121 M92.91739017002584 154.97798946047143 C110.37275768792932 155.56502721281106, 126.59573259874126 154.6856934904872, 171.6709032739074 154.72381162544764 M91.7953094450101 155.80553988704366 C114.1127716070446 156.35806166739943, 134.63189678301353 155.69823451644086, 172.15824127765768 156.15640634264318" style="stroke: #000000; stroke-width: 2; fill: none;"/></g><g stroke-miterlimit="10" pointer-events="none"><path d="M 177.88 156 L 170.88 159.5 L 172.63 156 L 170.88 152.5 Z" style="stroke: none; stroke-width: 0; fill: url(#rough-685926240979777);"/><path d="M178.64905564363897 155.07073524799998 M179.25331139483689 155.64522973395145 C176.87329155628524 155.78236700756986, 173.85661125568382 157.41592247520646, 170.0158222238095 159.59032917696675 M178.47487028255168 154.94217481812433 C176.6000538005146 156.44134514203998, 173.70375873300193 157.52791076082278, 170.73205587593816 159.36121706780324 M171.09301410162624 159.48227731608475 C171.24471945540157 158.6709870741405, 172.06781462476135 157.52994751217142, 172.49366858293752 156.0845422691023 M170.94257997769728 159.36556931910985 C171.40623274697683 158.36685523426635, 172.22637317159476 157.04605430697973, 172.73195948460832 156.17068053720308 M172.8746146299406 156.2519132741938 C172.18816240367943 154.95582761803138, 170.9280586592072 153.60052089413458, 170.75982795254126 152.47217631817355 M172.54004758317356 156.0479883089983 C172.13457929425704 154.95683245599528, 171.43212685353933 153.46421729457478, 170.72476583917935 152.36756809803418 M170.14006877128648 152.33952355529468 C172.35055886992856 153.4095669389859, 174.83710323867456 154.32482078460302, 179.3711011687594 155.3604900991686 M171.1265328207001 152.50012774921822 C172.58890962776468 153.12189773130638, 174.51829466137661 153.32141214372905, 178.60217512001142 154.7646152303695" style="stroke: #000000; stroke-width: 2; fill: none;"/></g><g transform="translate(52.5,7.5)"><text xmlns="http://www.w3.org/2000/svg" x="26" y="-3" style="font-size: 12px;font-family: Helvetica;" fill="rgb(0, 0, 0)"><tspan xmlns="http://www.w3.org/2000/svg" x="26" dx="0" dy="14" text-anchor="middle">Variables</tspan></text></g><g transform="translate(179.5,7.5)"><text xmlns="http://www.w3.org/2000/svg" x="19" y="-3" style="font-size: 12px;font-family: Helvetica;" fill="rgb(0, 0, 0)"><tspan xmlns="http://www.w3.org/2000/svg" x="19" dx="0" dy="14" text-anchor="middle">Values</tspan></text></g><g transform="translate(56.5,109.5)"><text xmlns="http://www.w3.org/2000/svg" x="17" y="-3" style="font-size: 12px;font-family: Helvetica;" fill="rgb(0, 0, 0)"><tspan xmlns="http://www.w3.org/2000/svg" x="17" dx="0" dy="14" text-anchor="middle">add_1</tspan></text></g><g transform="translate(-2.5,99.5)rotate(-90,16,6)"><text xmlns="http://www.w3.org/2000/svg" x="16" y="-3" style="font-size: 12px;font-family: Helvetica;" fill="rgb(0, 0, 0)"><tspan xmlns="http://www.w3.org/2000/svg" x="16" dx="0" dy="14" text-anchor="middle">global</tspan></text></g><g pointer-events="none"><path d="M189.8259356346621 144.643876975218 C185.3842691689564 148.71380941113316, 185.24184078754854 151.42165900433167, 177.88337025911449 156.6005899080498 M188.56058146980916 146.559179301467 C185.30025606471781 150.40066784589104, 181.238219366881 153.95223433853536, 178.4553619341624 157.59081362152742 M199.65113111971317 147.7391607409412 C192.3561413514425 154.10545631481858, 187.53972894880826 158.17233505060997, 183.16887582051214 164.16704112894723 M199.82837870890603 145.63730385186187 C194.08010314843082 153.66976630459138, 187.93207923189564 159.64223898450652, 181.329528389016 166.34171897845488 M210.96870644184395 147.6634068659573 C202.9986637906448 151.72746270999394, 199.94485490139405 157.9863622455823, 191.62089004086255 165.125745337427 M210.95342342981942 145.78657499995845 C204.4172820231032 154.39701347958308, 196.74663119655662 160.62618024336928, 191.91795177771164 165.87118175109597 M220.12009544253715 146.16611350217653 C216.05461563030875 150.49542666672195, 212.2053919159444 156.79392201811086, 204.4452960143854 165.44024102245578 M219.68428076002002 146.3884637521065 C216.72189799507527 150.14086676387157, 213.9452860098129 153.86592536164142, 203.81744939106378 166.2051097821007 M229.90157513969328 144.48504748171078 C226.39434405741082 154.0523527135955, 222.6517112660641 157.25859648902426, 211.84320138685135 167.4948887131166 M230.35508728160835 145.75972365491242 C225.74890454256658 153.428098621371, 219.00612214994752 160.39417829238923, 213.66526767682296 165.79738986853886 M242.9702100845861 146.91202482877785 C233.55580401077032 152.9097232913421, 229.61860895409254 160.44970759120673, 223.65095919784682 165.85882213863715 M242.0850375347663 146.6746723817809 C235.51465334646775 154.29379748903722, 228.878858580821 159.8537948639186, 223.9615395398688 165.20475330726262 M252.73286875616748 145.48689680879076 C244.65571392211018 154.44723427576002, 238.07330383666252 163.12108488023458, 236.9541544550612 167.34138168263016 M251.8949316398759 145.64982591588478 C247.80588022534607 151.4289162476733, 243.3427865292453 156.11902365288893, 234.32197111340807 166.77999707837685 M261.72094429979995 145.8586433025179 C255.32349043273504 152.07115785257287, 249.64574523593598 161.05391303392386, 247.07471552187818 164.8713213599249 M263.65284004846285 145.51404851909186 C259.607549115691 149.64067470649212, 255.96606093873436 153.68505130082337, 245.31865895422763 166.0347430774127 M269.9602475570031 150.29155638045833 C267.172578048789 155.20172895189606, 262.21864352123276 157.79017362512622, 256.1397118708021 166.44880877121895 M268.54098559562703 151.492538223371 C265.01435715890904 155.1403549615595, 262.1668542318013 159.97124634425734, 256.90092599757077 165.71359669298104 M268.6816047660312 163.4514981622127 C268.1822355402823 163.98718640266458, 267.31182250036204 164.8059823972488, 266.6812951772304 165.89309152305387 M269.0198103160804 163.32718513569657 C268.60356824128183 163.88318166690917, 268.11126459226506 164.66496232260704, 266.7667765011914 166.1654711563395" style="stroke: #ffffff; stroke-width: 1; fill: none;"/><path d="M178.53071026826453 145.75303102410757 C200.92220461470063 147.02190996617625, 219.08511575058995 145.65324474338945, 267.0976125683956 145.12684930158485 M178.328657885986 146.27947840760956 C202.1968593510471 147.55520069512986, 225.7388081289348 146.45254524844972, 268.1984140400302 146.78042247945 M267.17031277708327 146.78878198545686 C267.8471923545269 152.49043561595096, 268.4428326449345 155.18379081321797, 270.5211405307005 167.74730040990357 M269.8813763119669 145.29742621608673 C268.9202411222832 152.6353980283024, 268.7569858506697 158.73153110547932, 268.97204539575796 165.4360793567087 M270.350505570418 166.74254773125725 C249.3287182318569 167.5475403520812, 227.3452674052759 165.2194023804188, 178.836342504069 164.79814678800398 M268.5602224227481 166.0377108276088 C236.30057656618402 164.5148268620994, 202.34580789046194 165.6229054775388, 178.2342973414657 165.050945631435 M178.86703250384207 165.02298413758393 C181.00687691340548 160.0395692888464, 180.6652455737875 152.48409765468782, 180.9648321320773 145.28319375226934 M179.202973944267 165.4026929501094 C179.0632572798363 157.7331695028114, 178.54408954731605 151.4282390021801, 178.20948017177847 145.3258573909565" style="stroke: #000000; stroke-width: 2; fill: none;"/></g><g transform="translate(183.5,149.5)"><text xmlns="http://www.w3.org/2000/svg" x="40" y="-3" style="font-size: 12px;font-family: Helvetica;" fill="rgb(0, 0, 0)"><tspan xmlns="http://www.w3.org/2000/svg" x="40" dx="0" dy="14" text-anchor="middle">...instructions...</tspan></text></g><g transform="translate(56.5,67.5)"><text xmlns="http://www.w3.org/2000/svg" x="17" y="-3" style="font-size: 12px;font-family: Helvetica;" fill="rgb(0, 0, 0)"><tspan xmlns="http://www.w3.org/2000/svg" x="17" dx="0" dy="14" text-anchor="middle">add_2</tspan></text></g><g stroke-miterlimit="10" pointer-events="none"><path d="M 94 74 L 171 74" style="stroke: none; stroke-width: 0; fill: url(#rough-7957748845213875);"/><path d="M93.09761938574667 72.17419692209185 M94.03883253294053 72.859883143425 C110.88649390494493 72.5444766760071, 127.1698957387936 73.9927801549177, 172.00699874675135 74.19744426244556 M92.76476698578286 72.16306608364495 C108.97880266674272 72.55177622962324, 124.97235668507965 72.85809073651338, 171.31058074101068 73.31253665915509" style="stroke: #000000; stroke-width: 2; fill: none;"/></g><g pointer-events="none"><path d="" style="stroke: #000000; stroke-width: 1; fill: none;"/><path d="M173.45305615025015 71.30760656547416 C173.8679828447892 70.74714701828232, 174.19229301033664 70.59547576419226, 174.84726706211862 70.64225716426407 C175.5022411139006 70.68903856433587, 176.90643385694622 71.07089190460215, 177.38290046094198 71.58829496590496 C177.85936706493774 72.10569802720778, 177.79206951955342 72.96062612334342, 177.70606668609315 73.74667553208093 C177.62006385263288 74.53272494081844, 177.2705741524877 75.62872058352627, 176.8668834601803 76.30459141833002 C176.4631927678729 76.98046225313377, 176.03703859734293 77.74897258814987, 175.28392253224877 77.8019005409034 C174.5308064671546 77.85482849365694, 172.9814304617839 77.04919119747484, 172.3481870696153 76.62215913485124 C171.7149436774467 76.19512707222765, 171.6197223155096 75.72645478587489, 171.48446217923717 75.23970816516179 C171.34920204296475 74.75296154444868, 171.43484734836443 74.2365169908918, 171.53662625198075 73.7016794105726 C171.63840515559707 73.16684183025339, 171.62430177504217 72.59384131009064, 172.09513560093504 72.03068268324657 C172.5659694268279 71.4675240564025, 174.13452228127687 70.55606247175854, 174.361629207338 70.32272764950818 M174.89277092699135 72.41928726744838 C175.6992012727609 72.23631285209268, 176.66826532479854 71.06175138815256, 177.09287314112873 71.2074149190072 C177.51748095745893 71.35307844986185, 177.35786089580068 72.61563787101232, 177.44041782497246 73.29326845257624 C177.52297475414423 73.97089903414016, 177.90378970462368 74.91663558674811, 177.58821471615934 75.2731984083907 C177.272639727695 75.62976123003328, 176.28468347190696 75.02110271268107, 175.54696789418642 75.43264538243173 C174.8092523164659 75.84418805218239, 173.97617312030607 77.97784584294634, 173.16192124983615 77.74245442689462 C172.34766937936624 77.50706301084291, 170.74630402506256 74.72305150789609, 170.6614566713669 74.02029688612147 C170.57660931767123 73.31754226434686, 172.22831175323554 73.75817470448537, 172.6528371276621 73.52592669624697 C173.07736250208868 73.29367868800857, 172.6039972247693 73.22282142078117, 173.20860891792623 72.62680883669105 C173.81322061108315 72.03079625260094, 176.2263095841114 69.93234752186743, 176.2805072866036 69.94985119170623 C176.33470498909583 69.96735486154503, 173.77641802623464 72.38610077405421, 173.53379513287948 72.73183085572391" style="stroke: #000000; stroke-width: 2; fill: none;"/></g><g transform="translate(330.5,109.5)"><text xmlns="http://www.w3.org/2000/svg" x="3" y="-3" style="font-size: 12px;font-family: Helvetica;" fill="rgb(0, 0, 0)"><tspan xmlns="http://www.w3.org/2000/svg" x="3" dx="0" dy="14" text-anchor="middle">1</tspan></text></g><g pointer-events="none"><path d="M190.1372825069847 104.97422869434625 C187.49122375808346 109.78803466555794, 182.78783197183245 112.90504418433054, 179.35747178788068 118.60707176610212 M188.12894280733298 106.37496173157601 C186.95479191357325 107.9753934852753, 185.28493171442713 110.74292336289716, 178.27854402858546 116.7581964934709 M198.74649651164418 106.18926663418428 C194.44522740847313 111.98197755589509, 187.5669666769801 118.42931069411112, 182.50509632815022 126.66323885628539 M200.24177743661588 105.95837027195407 C195.77568888256636 111.38435360246228, 192.02332159286476 116.08955518245088, 182.75440461256673 126.42544215566474 M209.99539023815942 106.29018261522795 C204.74871323224335 109.51228936702502, 201.78562224697933 114.6083573597937, 191.67172528673393 126.45881773479023 M210.26512034290357 106.1612468611468 C204.84430428778663 113.3836592705434, 198.04714891337983 119.55830262511336, 193.13914676759651 125.54140680764569 M219.05881969567162 106.61259531950817 C215.8904586188269 111.54941506443554, 209.1683017794397 117.07463043997761, 203.3835713239815 124.63793077476626 M220.74402310152692 105.88337819358178 C216.8542789936316 110.00499154744594, 213.07757411425442 115.00709814041365, 203.96902480126784 126.33275834279438 M231.06456245904883 104.5025838649401 C226.5145554516994 113.29611232174041, 219.79782809347313 117.39863189292439, 215.1193864431126 125.36750773811394 M231.9452031027566 105.84645838832634 C225.55875490395727 111.32187187949157, 221.68491858070058 116.61769145649828, 213.50328152878967 125.62810358267659 M242.53295288070188 107.28972292535498 C236.24810861825628 112.79264114532016, 230.9629906609656 122.21532663872905, 226.19986619978712 126.85738313205185 M242.73840482946363 106.01462357751109 C235.90246522651378 113.21632257836497, 230.6353734342019 117.7971214243405, 224.88375535389275 125.49998647824154 M254.22059652412588 107.7990489860167 C247.26071768619502 114.42331172246637, 241.0803654465257 119.28686535542705, 236.35559428962478 127.68355696659161 M251.4284333746555 105.02801521770353 C249.19633290490475 110.07415255765422, 244.42919238013755 113.96074819315355, 235.15294208662752 125.39680286339932 M263.2028009878693 105.46106939479397 C255.8205880605854 111.52624457633867, 252.03253973383772 117.55430282319786, 245.3767386723058 124.43128455463388 M263.213908624403 106.49678031479449 C259.6976457702101 109.70588158971955, 255.12699130034298 116.2283301091141, 245.9504890068477 126.01166589539453 M268.3006501442008 111.79863085719276 C265.8425323845435 114.35109596890186, 263.96904072034084 116.73508162957181, 256.7639728653869 127.71570309934165 M269.3125979823103 110.83884685064729 C266.3813184213341 116.04324453016068, 262.23869659799914 119.33870007184211, 256.74162681148346 126.55676467240151 M268.99110395466005 123.42106526779594 C268.07873992863676 124.20916329395507, 267.5390522126967 125.2395708948242, 266.7299697353865 125.716304942707 M269.0228844467136 123.54409909488824 C268.31621949121626 124.06083066932898, 267.7469634150848 125.08849257174978, 266.77987872743296 126.00098102033633" style="stroke: #ffffff; stroke-width: 1; fill: none;"/><path d="M178.04608275413094 105.0456780055207 C196.90310471926276 105.07898648887063, 215.58419305552655 106.52401187896548, 269.1692975075449 104.25014589483993 M178.24666836407116 105.51998488076694 C204.75337002527496 105.29630883157276, 231.5905097966107 105.23585012993017, 269.0546894671778 105.97784472518943 M269.34448829162153 105.78787555599135 C267.3937817970406 111.7780527456089, 270.39764637216575 115.55426024371901, 267.89928934502996 124.24246367709702 M268.79466300455147 106.733268341694 C268.5711008957976 111.15593992802424, 269.51438425186683 114.95748339186186, 268.2330762370065 126.01789266445694 M267.7700813501651 126.46930768296156 C252.3067047133289 125.53937952390295, 233.39668131450418 124.213019023992, 180.63881455279304 126.27094479161258 M269.52094819227267 126.04251963487674 C238.85192901515518 126.61882407481616, 210.17613781649902 126.7345678177988, 178.57418979741678 125.32423513214009 M177.51133548746597 127.35419840569132 C178.33177377801454 122.38436684719004, 177.78645522984104 116.42301395647856, 179.9448694523955 106.93842588027427 M179.84057539308367 126.96064921536401 C178.36619714051963 119.50821432195232, 178.58692373381206 111.1339386364604, 178.4656474308875 105.48515786132992" style="stroke: #000000; stroke-width: 2; fill: none;"/></g><g transform="translate(183.5,109.5)"><text xmlns="http://www.w3.org/2000/svg" x="40" y="-3" style="font-size: 12px;font-family: Helvetica;" fill="rgb(0, 0, 0)"><tspan xmlns="http://www.w3.org/2000/svg" x="40" dx="0" dy="14" text-anchor="middle">...instructions...</tspan></text></g><g stroke-miterlimit="10" pointer-events="none"><path d="M 269 116 L 317.63 116" style="stroke: none; stroke-width: 0; fill: url(#rough-6407153570854835);"/><path d="M267.5326684900295 114.9702934495469 M268.8115173707709 115.598796355051 C276.57029188799595 116.64274517170294, 289.55892803159384 115.64573422850094, 318.5284670813874 115.22175853379693 M267.8623791920598 115.80716331569268 C282.8959535086701 116.05402134544406, 299.9079422144183 115.44294722253032, 317.11926288802727 115.4629960346648" style="stroke: #000000; stroke-width: 2; fill: none;"/></g><g stroke-miterlimit="10" pointer-events="none"><path d="M 322.88 116 L 315.88 119.5 L 317.63 116 L 315.88 112.5 Z" style="stroke: none; stroke-width: 0; fill: url(#rough-791997856360257);"/><path d="M323.18831848737693 116.80642016981139 M323.0785033833449 116.36337102851103 C320.2663197407238 118.26715382615382, 317.87158700805753 118.03970223431114, 316.48950868246254 118.95519190427503 M322.9605009564576 116.6409180889045 C320.88419049931787 117.54575068941722, 318.77295856198623 118.22221618385531, 316.0704015105369 119.76024944994656 M316.1432944290482 119.55910581207537 C316.3123472101414 118.73084059068813, 316.8115705305508 118.36978239132311, 317.40182170833793 115.6320121282269 M315.93970186550655 119.55843831263586 C316.3939887710719 118.63996621662193, 316.54156795544407 117.80747598425307, 317.6000115768112 115.87479601728276 M317.48798006876194 115.8595865242094 C316.61765389912966 114.96359702630684, 316.24690671055254 113.01748270129035, 315.8195881876267 112.77834627453706 M317.4713235228757 115.80766454179918 C317.0916276445202 115.1874069559949, 316.8201461399214 114.38678862427092, 315.8353492768412 112.3765818027377 M315.8209333858709 113.07352112129557 C317.8651984674196 114.00422158673805, 320.29287937625253 115.8686448419009, 323.3713991012463 117.51823478182607 M316.20867749261623 112.3628718519298 C317.94687059194916 113.95615756374536, 319.72736143534956 114.99733546219719, 322.8597927553131 117.07736269373581" style="stroke: #000000; stroke-width: 2; fill: none;"/></g><g stroke-miterlimit="10" pointer-events="none"><path d="M 94 116 L 172.63 116" style="stroke: none; stroke-width: 0; fill: url(#rough-5547741526203313);"/><path d="M92.68552286891816 115.71470034093979 M94.1292124544511 114.44498689774049 C120.51389441985539 114.03512023052649, 142.93963501469125 117.34591234863757, 171.65952016757458 116.96141488706259 M93.67423885567602 115.43072606560047 C116.38677870988582 117.41747290535206, 138.6377500842828 115.62776830802363, 171.71806260842408 115.9617532701829" style="stroke: #000000; stroke-width: 2; fill: none;"/></g><g stroke-miterlimit="10" pointer-events="none"><path d="M 177.88 116 L 170.88 119.5 L 172.63 116 L 170.88 112.5 Z" style="stroke: none; stroke-width: 0; fill: url(#rough-2152004659436949);"/><path d="M177.8078816789485 114.64082782218266 M178.2375573838393 114.25309092090913 C175.54922918313792 117.39598393532667, 172.39422219718003 118.96833897008932, 170.2755989085356 120.33079690166475 M178.13095893118503 114.93677721566095 C176.23710322438433 115.60547250640646, 174.37203178173175 117.40474100924345, 171.26986285463968 119.24722280671773 M170.92543122229426 119.74012255581177 C171.00920989131433 118.31823681871983, 171.29344927169154 118.27063099385943, 172.39654318379147 116.3740966100565 M171.01081925153133 119.3616065899013 C171.14710637793928 118.64731944570933, 171.81920346873844 117.56405464802477, 172.64225842833886 115.91777755905076 M172.67402555788368 116.0227914971256 C171.6805681329045 114.95618346500476, 171.47098022656365 113.01847534881398, 170.9582154574944 112.8834508391797 M172.5925046496012 116.0212261477547 C172.20509908340037 115.06502172977916, 171.5510388669092 114.0343764367659, 170.89558335465188 112.69288823628848 M171.15906049361965 113.1275257089398 C173.4553021094242 113.10364507370024, 174.4017325154194 113.82276469635084, 177.13024818872347 115.00280324979447 M171.21437462703727 112.51481445632184 C172.46987729105504 112.69378595662573, 174.18603175225476 113.82276808434105, 177.4946229683326 114.38803113408856" style="stroke: #000000; stroke-width: 2; fill: none;"/></g></svg>