<svg xmlns="http://www.w3.org/2000/svg" xlink="http://www.w3.org/1999/xlink" version="1.1" width="280px" height="268px" viewBox="-0.5 -0.5 280 268"><defs><pattern id="rough-2069020148492659" x="0" y="0" width="1" height="1" viewBox="0 0 100 100" patternUnits="objectBoundingBox"><path d="M6.026947736744845 -0.5563823068653537 C5.538631519319653 1.2218434562267044, 3.073869413960781 3.5287193248091144, -0.8450241099790521 7.793778057141421 M6.49566318082534 -0.5080485377332132 C5.361221393195893 2.2153415174658804, 3.773075614897686 4.305744314724741, -0.3072355440989092 7.94237032457438 M16.347110592520472 -0.28016945826010975 C10.663115330822347 5.46170262179468, 7.476009061101155 11.670332210014472, 1.3212709693483813 19.524273955636428 M17.214608725253658 0.8110126959877793 C12.842972713776268 4.907680015535917, 8.523968917025826 11.78126361445703, 0.6363432936202327 20.98852742152938 M29.07244231748645 -1.930423718303964 C20.143905778853004 7.298575819368242, 15.418237312172792 16.233035599718136, 1.798020616788179 33.342097354996675 M28.083431408592453 -0.21026465843964326 C17.343019967334467 12.645041700809344, 6.639634457429025 25.63876239076513, -0.6785752511047116 32.267215202477665 M37.91389510586094 0.573357735804441 C25.856141146739507 16.75341538772473, 10.423779275874073 34.138359743765854, -1.8170506145804781 45.60435212298543 M37.90369561151603 -0.5247501496749063 C26.340719909756928 13.571787573522338, 13.303253812720612 28.37160730947035, 0.2617393876190901 43.76182044605423 M47.23701276986373 -1.5814271133459972 C33.98418805743044 19.122968514176584, 17.37756426201718 36.39525216313096, 0.643564419643293 57.30759589532477 M48.20860354269474 -0.8272106453996169 C36.58692665382426 15.891695287551222, 21.71092073636815 31.850954794793882, 0.29004394890538077 55.666222672826976 M60.68000113986876 -1.4832060691261182 C38.22640383968757 24.569778228721862, 20.929782572662198 46.75442868763948, -0.41419670942346887 69.98068067060787 M60.728198465764194 -0.0671533513638054 C46.74837055750529 15.450432462704017, 33.85513284223879 30.76687096892178, -0.8453026246815898 69.46155792758674 M70.66549659243093 -0.7333265896481374 C51.43427927250127 22.604909839891636, 31.35055690936057 43.41868424167896, 1.7093908126776798 82.5560398916125 M70.61692413252887 -0.5274094869605102 C45.885364940231476 28.59979799528765, 22.60034485406613 55.447750653156874, 0.5842450398613259 81.92126688141602 M82.57031285080522 -0.9777446610637597 C59.57804349128061 24.56636823366101, 36.29388910760158 50.79869474422069, 1.6419068916153128 92.1621613613276 M80.50449644625246 -0.41547080865755426 C57.85181375633632 27.252748307440278, 34.403329438983256 55.155019683045616, -0.9586206568333897 93.26943602244313 M90.10749028954643 1.4236380679856735 C60.090634124807536 34.21741276222803, 30.11248298012586 70.63449179236177, 4.390968528981308 100.49076167260277 M91.43783348300354 -0.5721564954490987 C62.30425051783786 34.02043930204759, 32.87407053092184 66.82640651554094, 4.82408541373495 100.90668967651825 M101.30156066528184 3.842774153187939 C66.1102334129126 39.80343309789237, 32.822908586903935 80.10237076595732, 14.478221251025472 101.0503421959439 M100.01068700918 2.5086772982632097 C81.45401421082515 22.77733987052118, 65.24091310505128 43.949780206642394, 14.781780639869362 99.4973561045077 M98.30160611214353 15.491312072408146 C83.24408215427856 33.59204156289316, 65.99444932824433 51.98243704201237, 27.572135434135248 98.2135055161442 M99.15739193464134 14.144716554907578 C75.4936019091375 44.70467153565404, 49.140291417162 73.07062220034261, 25.63461096648017 99.16447234414593 M101.28014316657224 26.67018178704373 C77.40076938813252 50.983118688557084, 58.155067635154985 76.70914888572177, 35.53925430322778 100.68230991049066 M99.80378680294008 26.989853193856742 C84.1888536439227 45.08512756017222, 70.25466811679588 61.664457668396835, 35.619520847810094 100.75885861162075 M98.25239592340598 39.97591237314934 C85.50781378153789 52.9086651985486, 75.45154000285076 67.17654036995738, 48.584750758004006 101.42331116936646 M99.5536347353099 38.9140716433663 C83.16488034583881 59.39138406635361, 66.18445875973521 77.87439862928372, 47.40185120525848 99.08135399699123 M99.62679094645641 52.08003048524785 C90.47325045376363 64.82640726328654, 77.03859132773952 74.08230900986682, 58.70049416380677 100.00881415797114 M99.25719145332057 50.63544368526775 C87.54684920572349 65.57640375588677, 75.5041081178202 78.188425001098, 57.10081882643649 99.7163301564015 M98.0236149323925 61.556650233307316 C88.70556942895152 73.80564350234656, 79.44283303792201 87.41389570997373, 67.55601980273214 98.3915178716832 M100.45302172822903 62.70739961756923 C88.86459546009013 75.57650166814614, 77.72258958001481 90.19718614038867, 67.27079176495641 99.45484799521974 M100.77003724511319 75.06643424115526 C90.00052378685295 84.28847119128196, 82.4912264318818 92.77364471986631, 80.03493400418225 98.35377561306265 M99.28943864709316 75.48688520071484 C92.10607936828045 85.29774650841445, 85.39112374668639 93.17094216574938, 78.36656277246247 100.37304441596969 M98.75168099546205 86.61048396081438 C95.33213191327097 91.31853492867562, 92.80331071887993 93.44016527794427, 89.5656003472367 99.95333094774465 M100.29463682031 87.8280230532754 C96.83729453637288 91.18412960635172, 94.11730395919689 93.86437699525905, 90.1656015457601 100.2769995473209" style="stroke: none; stroke-width: 1; fill: none;"/></pattern><pattern id="rough-173254901886667" x="0" y="0" width="1" height="1" viewBox="0 0 100 100" patternUnits="objectBoundingBox"><path d="M6.686147706009972 -0.027799934326316444 C4.925965949726856 0.8654700669709214, 3.113814484067276 4.056713377026158, 0.03561461636173524 7.497577638894348 M6.726180448349202 0.1505744096477306 C4.678193023251394 2.9846048521317026, 1.657206518325411 5.612718805352461, 0.04334789548085938 7.904868186154349 M15.790666960668261 -0.2446025348971581 C11.814279166404226 7.146920537220665, 5.789561298692762 14.859801735487274, 1.307802927226235 18.420950701458295 M17.98941730058652 -0.4383467275493502 C11.930918632348032 7.4033403784667, 4.668955436736763 14.74065184915583, -0.709457519210873 19.316411353287528 M26.795870084308987 0.5327423006682395 C16.093999619669006 13.091430446896686, 5.36480523388193 22.59207529024873, 1.442396621894991 33.63106709050521 M27.063327830892426 -0.5003906347721356 C19.69123373720964 9.18777248586219, 13.53607495286281 17.69263159160185, 0.12765940201708403 32.136271273502395 M38.80604378627481 -0.3500900457072964 C29.93261288598015 10.314927879372405, 19.554824724891134 20.25873484209167, -1.3754356147934512 43.933172061407724 M37.9021714304142 -0.027626203055951315 C27.520007425464904 12.890021345845481, 17.69989080027741 23.799146305168218, 0.8817664035515538 44.302377872036374 M51.17860842988224 0.3906161826927006 C33.94970719107432 16.922499882169173, 16.07540249170741 36.66352783037624, 1.533649415882075 55.562831917441464 M49.33630086026756 0.8428022201549301 C32.50250412696113 20.03213109801033, 15.076214942184153 39.52843828012776, -0.6752929311103788 56.70040550024955 M58.69757511025547 1.8545097429328647 C35.0826768734801 27.845784778652465, 14.944992276118226 56.01666306395903, 1.8891797421101977 68.57291991233525 M59.88994795975771 -0.4487636853811314 C46.791257835593946 16.758584773250767, 31.235693464585562 32.82760658840092, 0.5637288839597918 67.8209902253032 M68.59611743784698 -0.021853240472099245 C48.60053824997043 27.172405585652925, 26.66158392962643 51.22271006183268, 1.6549618390344234 79.45090156496315 M70.0173933129585 -0.9603544069316827 C45.7688259121017 28.259339667268982, 22.432339747703065 57.391266511128975, 0.29069746299736243 81.254392737617 M79.77886109575218 1.4275677545411787 C50.66433350644109 37.57981388376076, 18.210454737933254 72.23567801457249, 0.30339966121837136 91.81478279848807 M80.97400155772647 0.716731700977332 C49.660420786386 37.4369132784028, 17.987309733314138 74.92176289144746, 0.34293768066008123 93.69507899828669 M92.07079147110893 1.6942887548636048 C71.50925516954813 25.087838021671253, 47.0292637392165 49.54646196962918, 4.723721113202513 100.66422834084142 M90.94909659225982 -0.2189200064643697 C60.08926863973326 36.7702508996826, 28.04643526788379 73.3596117524013, 5.595046425982873 99.12098691665227 M99.98289598805341 4.236690366245839 C66.25032496286997 40.73132250694431, 35.20440504559839 78.48802471552446, 13.783318676492492 98.49409048031514 M100.29938703293895 2.3439825784338573 C70.89792819052415 34.95502598453448, 43.0835028405915 68.80236125230135, 15.181493885151639 100.79259188467 M98.42566624195797 12.836458977060584 C72.09399071189196 46.875601349538755, 45.36361334279797 79.63539040399198, 26.592817035346016 98.90151973525064 M100.8997847963307 14.97620693389695 C77.87400002259471 41.078625043376526, 54.9364388109579 66.49148971523445, 25.42283812814311 100.58246746235632 M99.62093747277073 26.851547750149404 C78.30486738111915 53.057976176848626, 56.73263127012666 80.09112979893796, 37.224177797834294 99.08046269475336 M99.16256192379207 27.816551321399405 C82.69100807367911 45.0963760053875, 66.96248526808066 65.45808469081788, 36.43855906956839 100.13277556737546 M99.38252461745806 41.03432634756773 C86.75508216356549 55.37218585972691, 72.13089433599878 70.67857521370864, 48.747761218307005 100.90309552676396 M99.12586884593848 38.70419783412816 C80.57640291337505 60.640529643350895, 60.9186439852529 84.54846880306478, 46.79962082511042 100.97523491815966 M101.96125184547813 49.862507180948946 C87.80905493809061 61.78298307735318, 78.74373906040276 74.70756500782733, 58.23323024107351 100.45218925020947 M99.76641149213283 50.54968299131196 C89.19140580346188 64.7588525008322, 77.35759776826134 75.88971655698597, 58.5861037582672 99.23309512191479 M100.22186544860499 63.82295014549917 C91.17928057149555 73.68111145611408, 80.72222851118521 84.51988074479137, 68.28018834226677 101.6466508437687 M100.25955807816388 64.0693425886789 C86.93992338502646 77.16545640120583, 75.75771173203445 89.94968840437215, 68.97857631924967 99.14323752848784 M101.85912315059738 74.33559760565282 C93.75583166705772 85.35387189987932, 87.84630247729143 91.32572756579107, 79.83558203628527 98.31131259613483 M99.34494430227656 75.14600924517465 C92.32622502092735 85.4076178906749, 83.67086727025874 93.64176814629208, 78.53213008734689 100.6047603100567 M101.58606343609964 87.56013356756175 C95.25024325713207 91.23242134599619, 92.01514702132509 95.86545119328719, 88.61376155048 100.3274256997467 M99.90138514779419 88.00165778368302 C96.6590840869344 92.58780375541616, 92.52900849576463 96.1462596285095, 88.84103217224367 99.76406838560145" style="stroke: none; stroke-width: 1; fill: none;"/></pattern><pattern id="rough-1533415123603929" x="0" y="0" width="1" height="1" viewBox="0 0 100 100" patternUnits="objectBoundingBox"><path d="M7.195988066097136 0.5371845581060433 C4.926822103527307 3.4764849843474375, 1.6523611339751305 6.717123384336791, 0.7134880276377333 7.005021113655289 M6.334014171641073 -0.33743841277365405 C5.2036351329350845 1.8481133249363848, 3.707593457561904 3.7320691155908063, 0.027196385801872558 7.392963703497682 M16.76444022928926 -0.8798308622454858 C14.854467872340553 4.6056226954164154, 10.471479525054473 8.503884235184366, -1.5173559098271738 19.16713402581216 M18.274720887073112 0.766019613189048 C11.633228912997318 6.426176939727412, 6.921642893827439 11.460718639251937, 0.5859357364854083 19.670792717019147 M26.77322771128466 -0.6439022870333959 C18.046246441824167 9.79771363437129, 7.772361842804288 23.373939642453117, 0.44084097638433484 33.010648769596834 M28.617938225074216 -0.20346842712837265 C16.880602507369616 13.58897086286996, 6.396617783915523 24.93592412154487, -0.9340116802195149 32.132501478896216 M38.067915049318096 1.4849726318010594 C26.70380414457538 11.551760158782159, 16.459603965128426 22.775950957809517, -0.1980937082921157 46.2021331584903 M39.27639346436675 -0.07971109217853378 C24.389648386634384 15.958813865029594, 12.35051401649659 31.230992585004557, 0.6214289078577266 44.809972578203556 M50.36738688212085 -0.6013802164508073 C30.25480942814641 20.975942095622607, 14.018103817853426 44.035383371859666, 1.669267765158403 56.5325545079703 M48.687643099304694 -0.8982805674222005 C35.85907629005569 15.34180590607368, 23.42880289386268 31.989173155982908, -0.9773292470460575 57.21504529386995 M60.67949191578927 0.7578677484377705 C42.40943247423718 18.51604759893804, 27.27980808740619 37.990224009299, 1.7998983582838317 68.39353138160763 M60.619868717082824 -0.46157508424787785 C42.71378263212449 18.81266726239465, 27.815665182332694 37.555092877461846, -0.2830559756920903 69.27506461376673 M71.86540552343985 -1.4632104409519133 C50.81850797277127 23.485108718475622, 32.02797741423146 44.619283131579955, -1.191370344196292 82.21960778675647 M70.97786222625432 0.4115017387874369 C47.038285688925114 26.52708965807993, 24.31574320125528 52.38555925176738, 0.3289433282185916 81.80419747460417 M82.59892702701391 -0.6742247211250962 C64.5048499272116 17.537715951676187, 45.803552282884844 36.71558083365445, -1.5979929065851133 91.37265780442519 M81.6797343341017 -0.13120408796024652 C59.772978368562015 27.46206489230913, 36.600926929344375 52.11676918506723, -0.8818704307273246 93.10634072130463 M93.02376096735918 -1.9155258925040526 C72.49963870566916 22.13467564054213, 49.97407275976669 47.964470284363955, 4.594938549887214 100.10794181211206 M91.65410815004503 -0.44326212520519803 C57.61740588413357 38.17636220474354, 23.495523056760096 78.77789898211061, 4.435076249719696 99.687475524541 M98.83092202699687 3.8080764033773384 C77.53795176443069 26.732821579878586, 57.49168765980938 51.60964038429759, 14.477276666128063 101.0573469348335 M100.40612977688751 1.9307393507606485 C78.10259634417504 27.0953552794643, 56.17386614413105 53.45429496895885, 15.519914017085974 99.40313014498163 M100.42344622866204 14.634261240045017 C82.74615077018599 35.34012068924257, 64.8757527457046 53.31744692079861, 25.338583529425826 100.30599011890284 M100.74951665364401 14.012326579083537 C71.34286371945979 49.02520427077564, 40.93983431579447 82.00477446262057, 25.90337728851875 99.69706205292742 M101.5777750487257 26.555415626519206 C78.43966722606424 52.68998770163125, 56.162590645011974 78.25866668438228, 38.065485439553534 98.38681417676499 M99.21296588996235 27.661311096511742 C79.13991058255269 51.65925679937424, 56.13598152192448 76.62083032321232, 37.34690034517938 100.7377509340177 M101.69878432561094 39.379565165218075 C85.81015126485688 56.32244377206496, 69.29712661108427 77.75503432533313, 45.48831057006789 101.67172309515152 M100.99408019329346 39.663090261695736 C85.05902193575214 56.91672017103949, 69.63566890283873 74.1031852017847, 46.63065419544664 99.99532982223084 M98.41536375771454 52.91753179886193 C90.68503131581683 64.20258614557466, 78.67814796341192 74.6731551788805, 56.48082084058635 99.28244850950402 M100.90694183462419 50.48099479668199 C85.63421453159825 68.65594272515335, 69.33433195943087 86.6254748114153, 57.147235602539105 100.30953288953863 M100.7554436474235 61.938043265603625 C89.87356477853476 79.17102402321015, 74.74794676006871 91.22536915013495, 69.28317044338728 98.6217717706016 M99.28109605120235 63.02356548552481 C91.68612688461855 75.08355649772349, 82.1260498798387 84.02639512545377, 68.34431149920098 100.8496231064625 M99.79913830501083 74.10388941978734 C91.60525664091764 85.13372029294281, 85.1435943400081 93.1273420375475, 79.19500861817168 100.52151765031184 M99.54809784230444 76.67833738937593 C93.76620079064709 84.42853589898031, 85.31157952763498 92.36660476755515, 79.50850361625128 99.2967555155475 M98.87738080847932 86.96411194108393 C97.22088493665622 90.81062518087725, 96.87153172496436 92.05372104952559, 89.7161062879767 101.43542694578491 M99.2474476875307 87.55658575571869 C96.38641315012703 92.65544531837497, 91.86257687531113 97.84128513923392, 89.7356723837167 100.17255584500299" style="stroke: #000000; stroke-width: 1; fill: none;"/></pattern><pattern id="rough-5683956566314695" x="0" y="0" width="1" height="1" viewBox="0 0 100 100" patternUnits="objectBoundingBox"><path d="M5.964271316266156 0.14890594561136727 C5.4096181287137775 1.0163276099144865, 4.618825370334468 3.1450230183203356, 0.49364752606711737 7.030641850435412 M6.8164336477601 0.035131637674243654 C4.602218034409074 3.0407397782944527, 1.3391423255571842 5.9198541504496855, 0.2001634850689652 7.810178354740705 M19.31918369798373 1.4754638127953958 C11.085509694218828 8.880533522314607, 5.60636528026958 13.75616199244914, 1.815733820619113 20.36482051900126 M17.660041543459624 -0.5224757244674252 C12.045033784125401 7.811132780407311, 6.231622565684446 14.592427794761297, 0.5117760666806093 20.969012244242464 M27.883539902360123 0.4535495694818259 C23.329365546961952 6.370007449243528, 14.879379481884119 12.17807097243686, 0.6094115934291526 32.65138895317083 M28.21596932695292 -0.7193636590279291 C20.321164168557193 9.147520703232074, 12.907590818422015 17.48373424831757, -0.9848086952806212 32.98516728163399 M39.54958591225464 0.5783654961270885 C28.890940552560256 13.892488435216922, 16.56253005139444 28.470740490388934, 0.14463035130736657 44.71589452671151 M38.4592159342464 0.49838987114950184 C27.537850328172187 12.014498361064211, 16.874418809699865 25.492407523883973, 0.03978754811422647 45.35967328724198 M48.37137426025856 1.3504874879935223 C30.859358021486752 21.046505092157854, 13.448266983325485 43.0327571801, -0.8945686420138683 58.02271281923079 M48.209725137878536 0.6714974140020598 C34.9043392344302 16.22097382504574, 20.24385541276828 32.71685651650114, -0.64821324763329 56.04244281094362 M58.502296147777315 -1.0115192837757103 C39.7522329789747 23.50713755695644, 17.25288642029845 50.05406821813143, -0.7023766478342175 69.47061759133295 M60.24414152794256 -0.6535649783184185 C42.49618569956104 20.49950867134259, 23.015435875813356 41.115891797412544, 0.6748799455881977 67.94674190637933 M68.58768421550481 0.44450071633413035 C49.988792360176355 20.733914141144318, 30.028912913030787 45.687960972636986, 1.3307267349469516 80.65252828949076 M70.60973952882807 0.7314934875966608 C46.83270840532329 28.281179253770542, 21.275743394010167 56.90067506757445, 0.3058393755267357 81.76451056208539 M81.30957856363106 0.725070434901304 C62.96741880975803 19.18996056664026, 49.49312934423122 35.17209606637383, -0.8605061929953806 93.95684440175025 M81.9033599820538 0.23360519224908494 C60.419631502511564 23.94910137347628, 38.894950390222476 48.6267342289542, -0.2515840456947904 93.81359602594411 M91.06669188156347 0.17365410668294956 C59.047010854307715 38.63930698953816, 28.96182681487031 74.86911653726919, 3.7469214903146275 99.23682231560457 M90.87521516386141 0.6897967144152521 C65.34298694291033 31.998048867743087, 36.513910992442185 62.90611411921949, 5.029385147567149 100.51568184509668 M100.56475274043811 1.9896485837607472 C77.527944214672 31.10775277961313, 53.796992988015035 55.800690327566606, 17.085149465153307 100.69193559922462 M100.54119090218413 3.3535112668685754 C81.33207128455199 23.892695471867725, 63.391696286837046 45.65232799009311, 15.691473498281916 100.72952027926955 M101.19904662588421 13.003820512908366 C76.54113893707061 41.115698414922726, 58.11478994247125 61.85406619017991, 27.498769786379825 98.11437673842833 M99.43571761169952 13.986889948577124 C81.73265236149683 36.56599249090446, 61.992967739075446 57.01843895969964, 26.541626531886045 99.59364198556239 M98.95577203696742 27.490430112436755 C76.59321502954153 56.56995813277403, 50.80276876440945 81.73136294908055, 34.809286628483676 100.50830571950985 M99.68533715173912 27.410334982881132 C76.56146516029708 55.03100501976163, 51.82234909854494 83.38114879185865, 36.323969005035444 100.670811203743 M99.57717460715087 40.05426120291679 C79.4383454864057 61.15777762902118, 62.77600639148599 81.9133922884606, 45.60840328856695 99.01482216867092 M99.85248964090637 38.972291547293125 C80.606259911502 62.52075918133601, 59.86000801687684 85.72089391139097, 46.153712113544024 99.52547524282261 M101.91867006377957 51.60961571561733 C86.20207848785144 71.17928146509036, 66.88074903992356 86.1655132481931, 56.8961789770023 98.68521268781812 M99.95220070413063 50.30862066552375 C89.72043621364551 62.85769178762387, 81.33667712546189 73.32739783038141, 57.14395140806949 100.90989569085131 M98.43931036262649 63.787202254026674 C90.87540270222209 76.04827896790054, 77.52879581839609 89.44962325724691, 67.93894207004138 101.11562311688671 M99.40316531271151 64.39875711602929 C88.74143360180034 76.48227072040609, 76.00490362978658 89.72974023198073, 67.70348831558388 99.375740356328 M101.67158552233673 74.45696834866392 C94.33273069214113 82.37991298643303, 83.98040077100129 94.55495813454644, 78.3666529727591 98.87506970051433 M100.27567669709242 76.6600351379804 C92.60179070725617 82.72002502119767, 87.34414122202547 90.8210476096178, 78.49933620004043 99.64099684594491 M99.99553073173843 86.52909952305706 C96.55815586966882 93.3022465392844, 92.47840872647554 96.37965171095728, 89.29559086463156 100.56374761063648 M100.24055956293893 87.48773644857512 C97.19105066051112 92.03753745807208, 94.26668518568778 94.78880785160808, 89.18687380396742 99.45219408013874" style="stroke: none; stroke-width: 1; fill: none;"/></pattern><pattern id="rough-1155105445666569" x="0" y="0" width="1" height="1" viewBox="0 0 100 100" patternUnits="objectBoundingBox"><path d="M6.227675571007234 -0.28230606236062183 C4.98550734322992 3.0574166440146273, 3.622145665348942 4.069803741927382, 0.6020413209805253 7.862352530164858 M6.877479756767399 0.041298668508788716 C5.572193814694383 1.99497570348196, 2.9613039565286066 3.917403478476495, -0.19003207482688855 8.185574861547282 M18.938140558749502 0.10146338712846958 C9.894252122635342 6.696783654638475, 2.2874078117060623 15.489797917756817, 0.20084935559564254 20.16853462385664 M16.985989100351695 -0.18331424125107088 C9.982071608145487 8.245719238420277, 4.508766001946851 14.135336356085759, -0.11705571723210229 19.306558211320066 M28.095569134794147 1.0897531508558442 C19.58473287238379 13.156779755521624, 9.68653878437782 22.56338418194122, 1.8286522791773594 33.65508755811157 M28.336244397780586 -0.376148016325597 C19.946025365832224 8.992129049456597, 13.7604338422723 17.957825270361948, -0.31587367237456876 32.86273129543952 M36.72713641276742 -0.10665598722904601 C29.612891584072013 10.141228809555171, 17.305444910591763 21.65965074927795, 0.34400139908390237 46.39401941493249 M39.07461861801964 -0.888752226335404 C28.466293205080234 13.625714207544863, 16.191650159716765 25.720797065194077, -0.17331770058852314 44.49635779398368 M50.291678847964285 -0.5949537723444358 C33.223824206684874 19.66956816840529, 15.56570713647051 41.1783120104355, -0.5719049212763805 57.71587775830361 M48.543601485750266 0.019624821940820603 C37.25958798395342 12.136108619107512, 28.126345865628195 24.86814832094172, 0.27075856805704257 56.739430609636734 M57.96678665856041 -1.071704478914734 C47.48162467443598 15.793204678407452, 32.144310811887784 30.554269367465373, -1.7923710991390465 68.05832440598999 M59.795652727757435 -0.46436942483419186 C38.65076479831786 23.55082179814264, 17.2885946927913 49.06496630387997, -0.9377053145650271 68.37510714767481 M71.80502477634593 -0.46353363141192006 C50.80709285997583 22.6138528913181, 32.35867389863681 43.92207749235862, -0.4014952825467333 81.32970988038821 M70.68920474464224 0.8601705740065255 C44.59239406969805 31.055064929219398, 18.47314890538266 61.704711993166384, 0.7203405312667988 80.86859285361056 M81.25998297791502 -0.378776008260985 C51.58011632966052 32.00326415470553, 21.889259039867305 63.87407068467418, -1.7823683405654043 92.03541968667624 M80.16842006466794 0.30319079557644546 C60.75618270791202 23.555971878221445, 39.85277304931728 46.73675803988022, -0.5513994496513703 93.16789016947605 M90.49581275717087 -1.1013070094066046 C63.75865802424707 32.51587061656598, 36.697531583188436 63.91198154442397, 5.26724490027008 98.38123616202222 M91.04954276780312 0.43914365868764405 C59.81496435809333 35.93785214580721, 27.4909998738141 72.54970459068561, 5.641871142101493 100.57909263649485 M101.97636106655915 1.8957949101161597 C73.16979102966474 33.65214844201104, 45.31930396179378 67.77611941049359, 16.054730202854337 98.40683111729368 M99.27036498151425 2.5552026892668858 C82.54684668831375 24.283159226270367, 64.95761417341807 44.61296151919051, 15.725922247765272 99.4685933673152 M98.63461493716494 16.27934013308463 C82.09782348228624 36.16043461196371, 66.22900383596739 53.13923337013595, 23.892284763087027 99.78604949186656 M99.0760349568157 14.156043740514438 C82.55627641426479 33.42700258769301, 68.0594619482344 53.05730056206884, 25.294327710701705 99.90475802028563 M99.67895915147889 28.827956255737217 C73.31091413278294 55.41937548873985, 50.46848251765706 84.18781491628428, 36.95798577644343 101.83711537277819 M99.89008811379489 26.187551335566557 C80.80152617233024 50.88377450834529, 60.873933201078664 72.61994055934528, 35.814663856443126 100.39087145677344 M98.51155774426036 40.82969055794822 C82.92753692230154 60.41642381790245, 64.43082965104038 81.77487978219004, 46.91754526649643 99.22739664820271 M99.94895411151755 40.086717423789146 C86.7206130582528 55.67265550053469, 72.86447220477906 70.66359203189329, 47.152309447229854 100.57183080850074 M101.16211450734882 52.98514837238537 C84.78544911466287 68.90015257856977, 67.62957220705687 88.12478145259917, 59.429514349470196 100.77549354911142 M99.13453054354225 50.40329127927949 C85.54552815951209 69.27783157639777, 69.21300349617805 87.52716330786062, 58.03999258069329 100.39274988257546 M99.86188807283845 64.92147695036019 C91.71770593574969 72.16540973783525, 84.92706335580732 78.37948179154276, 69.70574594476558 100.06031117727541 M99.88416463411735 62.667989928198665 C87.78748372373398 75.86568840794959, 77.5478415340578 90.47336574033248, 67.86857089898828 100.17727932614234 M98.19234772819478 75.357597992131 C95.09148330922388 82.357250788711, 91.40293917547804 87.63058477122016, 80.0399071373428 101.9721704094198 M100.21707168765148 75.0832463620595 C92.6523631827136 84.97638204244858, 84.07591130377519 93.3230480480989, 78.61456654886011 100.22902884776137 M98.47266576626286 88.00059381013722 C96.22128669868104 92.26854791315182, 94.18508689516948 93.62687937672754, 89.03476068234625 101.31192054874353 M99.61483503233052 88.45317655877277 C97.40059860127859 91.7587069395661, 94.25374963919259 94.58964761515693, 89.08837168079451 99.34461881869775" style="stroke: none; stroke-width: 1; fill: none;"/></pattern><pattern id="rough-6553008456385473" x="0" y="0" width="1" height="1" viewBox="0 0 100 100" patternUnits="objectBoundingBox"><path d="M6.005640700977741 -0.2881231369257655 C4.094973507400216 3.0768833131251103, 0.8791147337661912 6.365488762627385, 0.23236173244210812 8.035675495212486 M6.458133063399023 0.45594387255757896 C5.0454973303826804 1.547621733728088, 3.82465609047431 3.89410774032766, 0.3467402695307561 8.283445778271403 M16.598515707822397 0.8664001255766038 C14.494401019629645 5.481304049447346, 8.673522726621556 8.99900758392291, -0.7017176316337954 19.279134029203917 M17.609957553415352 -0.4933051824991188 C13.369571004494745 5.244349009303349, 9.334035497236957 8.717871264359273, 0.8851371084405923 19.382597151523903 M28.641016986518423 1.3018913994143873 C16.989213297981905 11.342173478697624, 8.194069071129903 19.96348066067345, 0.7790880136113332 32.043566973300315 M27.301442352522887 0.967757536762035 C22.16970694642269 6.986811330953348, 14.163328404700243 15.09587747589826, -0.05816029241730103 31.88697920927743 M39.48686821329829 0.8771205876119206 C26.49653177824812 13.895863760053393, 12.617921024689922 29.197344828689648, 1.4342206598070248 43.584565319755086 M38.30340171884325 0.954529843489436 C29.003973034597003 10.541087757383098, 19.674160351720445 22.295686080071754, 0.8758293900213823 45.07010655495432 M49.829513575068255 -0.6073518377375704 C33.45146076447593 18.664415460930865, 18.772073159059886 33.865227971074404, 1.1713080234046203 58.416264855358115 M50.03994475067604 0.9138994891709604 C37.787395647955684 11.449180869284852, 26.13140331194593 25.233526488750442, 0.02093712140543813 55.92151807051555 M61.20306282170825 -1.9693434545595307 C42.75300641128468 21.116600333998583, 22.569426310026284 41.70413744105801, 1.4750817555768911 67.61629445411388 M59.09779397537052 0.4408383432893186 C47.6122166392521 14.170865418518678, 34.77374779519695 28.815322614964085, 0.8452126910281312 69.05701535563345 M70.33585976616361 0.9049003827740796 C42.95637533322093 29.544862281934712, 16.376846609796864 62.763982850852614, -0.7118847015934842 80.08036982546093 M69.67711310880061 0.6227948191154429 C51.41741403682758 22.33985393104744, 34.09355182739994 43.792248447921814, 0.13392059587364136 81.93043567587084 M82.28632428981584 -0.7310195586475805 C59.84783145002658 25.9983422771991, 34.829953782642704 53.740873383329706, -1.0115394907881639 91.7336913800961 M80.94644209932385 -0.48265971619410486 C59.53921306150366 26.335837868180192, 37.717174686674014 50.618252042788626, 0.9562470137144414 93.63248022466844 M91.91771091356054 -0.8110912443835492 C61.01344134104762 32.9049333775641, 32.676161865182394 70.65688648316811, 5.607113953635746 101.53796006112006 M91.61669653257633 -0.7883469900054827 C67.12863723328344 27.81490155335147, 43.63661703438457 53.73025624304427, 5.629286960972048 99.17831910651405 M99.27605019922346 0.9545752214999021 C73.10110811267286 32.24683080972512, 49.156963310823635 63.500553297491294, 13.942636358383602 98.91133731206199 M100.65787165539345 3.0424898016256834 C82.3792579472682 23.894998454440575, 64.62963151808982 44.272582185667105, 14.44745062440375 99.61843573864209 M98.1647310558983 13.041290766122598 C81.96944046347299 36.08974247011631, 64.43236512551864 55.72112086057597, 25.552511486199194 100.1247136049973 M99.9231655260837 14.970106485875682 C77.27683022249514 39.01783419452471, 55.02161074877247 65.1180791009317, 25.599726604883273 99.98379188789633 M101.97554868880312 26.20783318587928 C81.12018844346619 52.20864761064244, 56.851527216314636 75.76359486361726, 38.262825404251345 99.37622390683684 M99.92187723449011 26.476491469666556 C87.5648713166885 43.990008558507945, 72.90530192000688 59.88829618791585, 35.47126623457493 99.99321093240427 M100.31448377133523 38.34631435512218 C85.47729059302661 56.19830245718835, 68.43321497392752 77.7853628965698, 47.60891644412632 101.31860815279535 M99.26517614837825 38.42738220122163 C89.40656623051665 52.15048132849683, 77.05156363683889 64.60195581577817, 47.70252385978998 100.97147376576127 M101.78977759387253 52.86733771611354 C85.9885378595048 69.53458416876265, 69.19474434878853 85.75262399986997, 58.33529834707673 98.74006350487447 M100.88363289285219 50.73152119006639 C82.77814180147065 69.66205883256023, 65.84608402531396 90.62159046365468, 56.70933615611958 100.14908899753688 M101.8634138508492 63.60432436290486 C88.98766849396495 75.81051005609318, 74.74921096877061 89.92941863710219, 68.68273791970302 100.07569724108212 M100.89160665467398 63.99775666563554 C89.84881480450997 74.98384514596285, 79.54100518138088 86.60894932328684, 68.12435296581221 99.11774786832686 M101.89985867774075 75.5927599577788 C90.15554715527328 83.39508000837887, 84.51134451245005 93.2967365461086, 80.07222751841408 100.63679848404568 M99.02041354070623 74.85506460746409 C92.7465636039943 84.981182385727, 85.40346480470505 93.09784422869775, 78.89032295282189 100.58724796467946 M100.30240918842614 87.14074742536754 C97.12876900352782 89.90594928024882, 95.5125876467811 93.09810055952894, 88.5087923197304 100.45734035344272 M100.25200315096654 88.45079107345488 C97.47021690431563 91.95074662900574, 94.50822314658264 94.92388674141046, 89.77159184919937 100.07115078623258" style="stroke: none; stroke-width: 1; fill: none;"/></pattern><pattern id="rough-2537150371957131" x="0" y="0" width="1" height="1" viewBox="0 0 100 100" patternUnits="objectBoundingBox"><path d="M6.294127703388235 0.7380683583205563 C4.577017015936498 2.038166358887832, 2.202347030538639 4.114520840016657, 0.625387811088655 7.274003499997654 M6.432641165239488 0.40317442838228823 C5.511807669244258 1.22861296365821, 3.5541888957596823 2.843659140585686, -0.07931095116270093 7.552096990673549 M16.780745075950897 1.8429818662009705 C9.647843976374517 7.766356691290729, 2.4796080542501064 13.580109849379344, 1.6721763824435687 21.648588794096398 M17.49467405904298 0.23839238053111922 C12.394695306273887 5.6660939960118935, 7.242967263247945 11.699793539268816, 0.8389671422630376 19.924407400209247 M26.288274788030407 0.8052564538853018 C18.403638089652848 8.874143346444, 10.995271460684023 18.866683832660918, 1.5390551315419732 31.024877040416765 M27.40162531789441 0.5994201346579833 C20.88856771939978 8.810887812229408, 13.025617939773603 16.626521767691408, -0.06761004887754085 32.76779752451866 M37.619843336740054 0.30337248465999167 C24.01533669463859 16.62570401475662, 12.614593384237462 33.41805009711135, -0.7487801867377355 45.988492153015095 M38.166367687332354 0.5535170393404281 C25.25464429950163 15.492984712885082, 12.840919775731713 29.864892831314858, -0.013756416745607236 44.448815665662224 M48.15612787055153 0.5669038382339293 C39.66612944809473 14.555334556139172, 24.337397216836756 25.25161900196032, 0.9995949469997409 57.071758985476535 M48.623590900780435 -0.1397475673807742 C36.95490997526183 13.620201994790479, 26.39993459180537 27.739423267339433, 0.23999767506193193 57.269776877803515 M60.76329584804638 0.4035775343108039 C43.34915406235039 16.189854631386858, 30.043727269799 35.07531427053841, 1.97826473157666 67.84411595947374 M59.245458051945995 0.13616854271274592 C45.66316039319655 16.31791607116945, 31.459277684271918 32.796382140920635, 0.4040963867555183 68.33033996881156 M69.15178673505572 -0.5254142501823607 C53.47999682116928 19.604070192478474, 38.17238685187147 36.57168213447693, -0.2473002866984153 81.03257692380485 M69.70663947235428 -0.5495893841813841 C48.52233363670902 24.224254403311043, 28.728476829864462 47.16757122992139, -0.709238541083967 81.71534178282664 M80.628754819315 1.4217013746512217 C53.88583275402934 32.67846032788633, 27.60798057808409 60.35680019420933, -0.07610366635731669 92.38417902367247 M81.68669705552745 0.08396472992939685 C59.83299452852018 22.962580185926335, 39.88991928523273 47.872717138459905, -0.9847526208812241 93.40991382781183 M90.60475039839713 -1.4107473244207833 C71.07348760439423 20.41164077583476, 50.863480893762116 46.11232959153045, 4.543626403914278 99.52764042537693 M90.6799867634477 0.21439023304471494 C72.19064742825401 21.931155925446394, 53.250169101470334 44.06520501240281, 3.991269893057686 100.55728690928768 M101.09401369068594 2.489112982564337 C66.7935204890877 43.38684319006407, 30.509755366568655 81.07935101769726, 16.693603596488288 98.2021013885435 M100.40911054984466 3.1506082656097734 C66.77848746274891 40.438375247160614, 32.1630997351658 79.60823714353124, 15.148482519004357 99.46700983266291 M100.02665244118705 13.195714322630138 C75.37498218019041 41.36116535959889, 50.918625048402745 71.29637657516933, 26.078097224716274 99.57132001816545 M100.2733781625817 15.648240195197442 C78.21179919769271 43.01756148221581, 55.113187024244034 68.50844830473179, 26.802632614511477 100.6691813789341 M100.03267898111365 25.477874586207967 C83.98668446655957 43.90404932912566, 67.74773903266986 65.08388462693623, 35.43145270563583 99.2223785284564 M99.46172451982889 27.2173825734522 C85.61487145634723 44.01721905333151, 71.33271906588199 59.54956221068272, 36.495446387007156 99.61299888486394 M100.88974918150149 38.64187852600588 C88.9225986538672 52.96877653166119, 77.74735088776548 67.07344793223528, 45.94693417175402 100.44876220947269 M100.7396670108011 38.57983246087472 C87.41782023450371 51.423266880189686, 76.48639667443408 66.02339344676743, 47.350896051532764 100.60329743876669 M100.92758477009632 50.89795281327629 C87.17697716433038 63.97784781787804, 79.09712685259713 76.62614459217907, 58.85353725882057 100.90582780953801 M99.75141439193355 51.5379862265099 C87.14337081024935 64.92425315547004, 75.27456876651456 78.44926847526985, 58.52865448528143 100.64681990811144 M100.24864641182172 61.79547850869335 C90.29844755352993 72.49534002023627, 83.05130207865619 85.93501484948861, 69.66918989814963 100.54044422922257 M99.43436370140181 63.71503136584949 C91.10672927788086 74.6172624941998, 80.56426175026317 85.84236093977397, 68.26636854825766 100.32703396222237 M100.46297232962752 73.97693873378608 C93.04413104979324 85.57293245280461, 82.76235773252611 94.85607205843522, 78.76259900051508 100.70734835840986 M100.06677072756773 75.05968017681597 C92.25866380239883 83.43716995387584, 85.39728304708143 91.49758301437599, 78.04982098112832 99.65178616412251 M99.02408545875731 88.86901378390212 C96.37802321406106 91.30220779238499, 92.73720076417948 94.79367674202037, 90.30677374188022 99.75137899568924 M100.44996877794676 87.9884928264254 C96.14542980574484 92.29069783105707, 91.61599119640542 96.86845604474345, 90.04001325408741 100.37834428119038" style="stroke: none; stroke-width: 1; fill: none;"/></pattern><pattern id="rough-2160320231052239" x="0" y="0" width="1" height="1" viewBox="0 0 100 100" patternUnits="objectBoundingBox"><path d="M7.128252328756992 -0.4307491075765145 C5.228598795372665 2.1441735857446487, 3.099255907112363 5.575410279760672, -0.6967081585965954 7.064769131256155 M6.508730208365083 -0.041911339285467475 C4.381529005334891 3.464754380210117, 1.5505622719765797 5.7584612400288036, 0.19275433094688688 8.235648348621636 M16.96363419108044 -0.017964207117636022 C13.357900863731741 7.546117993905053, 4.070763837664703 11.228826166247178, 1.0659090241265075 21.141856510090747 M17.889952213751744 0.751503987606374 C13.19385620971384 5.579480292130658, 8.231315208068338 10.35727847697673, 0.9743857782789083 19.02280545826473 M28.556393687095408 -1.0692472924920935 C19.23161106683093 10.414156005713068, 9.094373452820308 22.1723566750183, 0.5403111291848042 33.24280015943804 M28.348071128398754 -0.8158888287436552 C19.35653402581862 9.525452202585551, 11.143791865865502 19.409542159081195, 0.9031800100081466 31.811206841061836 M36.68716039007073 -0.6565777459698205 C22.551221223682173 15.563969838413621, 7.898108699511356 34.500160198504, -0.16634188567007424 45.85550021379606 M37.74989248104103 0.02343051836219745 C29.280347716167118 10.906473979372382, 19.796315402406996 21.744812481050253, 0.5735235053016492 43.47820674923953 M49.73374598764099 -1.7138664190075055 C36.434216310510294 13.60153689953736, 26.28124463950689 25.796920968644713, -1.7062744028198713 57.796675628557196 M48.85997387734542 -0.4971421383576984 C38.94143880641085 13.402487447340079, 27.13363179995132 27.011257509542897, 0.5389993009912137 57.219354273982916 M58.291117817170026 -1.4800285233679134 C39.54622099997992 25.171266117206578, 14.824429953499116 52.28702576984099, -1.0874807422681325 68.70057469990618 M59.64826892611139 0.24876811871946147 C44.71401061237641 16.82374588215908, 31.452867659267543 32.10087949376458, 0.6584332470464882 68.26005583446968 M68.46124791862151 1.9420921023659243 C43.50109942497153 29.18646060808709, 17.939869232921353 61.850351542583596, 1.687848686339204 81.74372001554251 M70.40924360553572 0.2413202608212699 C54.930551405620506 17.261847535084385, 40.32986358879152 33.959941538126806, -0.9622712474104489 81.4586251343158 M79.52726285658235 -1.20320347376731 C62.33984657201299 21.019689597695535, 41.90103065454929 45.55136973376271, 0.6772251972238692 94.2292517563609 M80.48915021298572 -0.04091425200238685 C64.3255015238442 20.36447161758339, 44.814665318530054 39.68698806026023, -0.8050401186478626 92.93915776264991 M90.12062293235329 -0.6489149789834503 C64.93701200650708 28.914305248044457, 43.47503691492429 55.84271772529259, 3.999112421176001 100.63011005260341 M92.54528820886026 0.5653943039629845 C70.59373507380886 23.05928048654466, 50.33078011210151 47.32034531531111, 5.6296753607498555 100.0381612399481 M99.64611637722122 1.1444508854744315 C74.62425615447084 33.579816320991576, 47.26022960529215 61.662175157817224, 15.277843474864731 101.44831727444075 M100.56025045448706 1.9104162103135827 C83.04851546516952 22.729096109764583, 64.18813413410064 43.33818144332174, 15.772312124606243 99.34183812233387 M100.46116188064829 15.859968224459822 C78.57393803875622 39.4443567742607, 55.798237162140204 64.08764573102548, 24.879530491857395 100.23980133043645 M99.49112949114145 15.337345898161004 C71.630749441422 47.20606443422096, 44.650442416583076 79.90650584843745, 26.496855605801365 100.58727280356064 M98.09165204209195 26.4010670966543 C84.06776611774859 45.406019069682685, 70.11283954902918 61.325945690921465, 35.7156280689407 101.1643246524641 M100.51926565569447 26.491570291509248 C81.4522625483916 48.378983057866236, 62.991775477389965 70.42744343054233, 36.07203605584687 100.82598734242283 M100.59867918194298 38.70247435610745 C89.31933728144186 52.629722757187835, 75.94201388911249 67.98860484537623, 47.663272060371185 100.94539570421783 M100.24697029044972 39.65460292383498 C84.08048912777517 57.39017732087406, 68.35836247863519 74.602345517899, 48.010642929640916 99.80855843430955 M98.06621240993852 53.25552044409272 C90.36939438360905 62.40537979280808, 81.80310814625588 73.12842626011307, 57.55405417823193 101.98482504417802 M100.86038539972026 50.65103907081313 C84.50157715404414 69.52189041277994, 68.2430555200054 87.54353907929352, 58.149422969011155 100.36636771842684 M101.69450009893536 64.99033438386344 C95.4131782503843 69.5918116041612, 85.65898589797783 81.13658473741546, 68.18213966125616 101.81569369843595 M100.0958711316268 64.21226233743349 C91.02935900192692 73.13249119435193, 82.7516511256901 82.64035409394295, 68.23253756566898 99.9836585935946 M101.70634979778153 75.16448840061817 C93.04298891267666 85.89427163681246, 86.16754491267058 92.8435423640755, 77.55464786100883 101.5553028287674 M99.26484970674039 75.86816414244412 C95.21756090818928 81.65159435792835, 88.84967020732957 87.83839819679106, 79.36225499875664 99.88815917869442 M99.30928087854602 88.83631840676956 C96.50564864593483 89.88370912472818, 97.0075871386057 92.91143761253564, 90.55020365186768 99.14172383768958 M99.20806867363616 88.37648579734125 C96.67940794775697 92.74379446088145, 93.56227024032546 96.8368690052771, 89.957158823079 99.69171639466495" style="stroke: #000000; stroke-width: 1; fill: none;"/></pattern><pattern id="rough-8566098395639661" x="0" y="0" width="1" height="1" viewBox="0 0 100 100" patternUnits="objectBoundingBox"><path d="M7.275138288271873 -0.48491551765777474 C4.20200031514644 2.97473896026041, 2.2108993068445946 6.6297504702200865, -0.3529708273903216 6.879011782423354 M6.532104302753495 -0.002630834784288716 C5.542972549042552 1.6442255035310032, 3.4172073726983583 4.107025402811287, -0.10053733442666646 8.054469021774631 M19.119394537026974 -0.3535449845191163 C12.108450435656154 6.474045311180257, 9.363577794413846 10.725173927358618, 0.31336523880222256 21.85223918328409 M17.860701644227593 -0.7638318354099334 C11.440771108601409 7.154710972340231, 4.562013278776532 15.507888910007072, 0.763660529780827 19.31116815341415 M28.341113594592457 0.3619613991286057 C19.661197575291784 8.083221093613748, 12.352340386317694 14.422602023086103, 0.2806859347549171 34.00334164108901 M27.273522246236286 -0.11736861030252399 C20.79421859375327 9.346038140374489, 11.578844731715767 17.194373043341145, -0.5415064276899417 32.855079618716296 M37.16934416826061 0.2128021110685525 C28.684285280215988 14.978568788061633, 15.319073878580369 25.266565681997395, -1.060205649844062 45.6368775283275 M37.61595343720468 0.20654466548349726 C28.381954659623528 11.430691465591384, 17.61624305623163 25.117095177773543, -0.06415619653765114 44.4991735750787 M50.44990870408244 0.32353942739540464 C34.213661791276664 18.445171914099948, 15.742568535768056 38.42221053936181, 0.47620290900330176 54.649752563623295 M49.58376446735372 0.23728993310022295 C34.4813845254608 16.89760387747182, 19.80169978186746 34.057459773989336, -0.7504986881650986 56.13172180751724 M58.20348244125668 -1.4611251644151224 C35.17343920578428 27.76715188323936, 13.13186500189768 54.627856186198954, 1.023036429486484 67.81648986295815 M59.687700217636504 -0.5364480408591117 C46.53091835691135 15.14417022216021, 33.85770600312376 29.957455496372717, 0.6963790653560462 68.64447127675469 M71.71388862186619 -1.3356853711164742 C48.31349218910573 27.028835280974878, 23.05365047818994 54.099232466949665, 0.27821250964696453 82.72156579196972 M69.82294964034315 0.23424898325920118 C43.564912076946435 28.579592969846615, 19.36387949946569 59.37070227315866, 0.32083051054921663 80.34794170491163 M82.62196333453345 1.5274079756190337 C60.93344606873334 24.66076634832713, 37.7129972218267 49.85718973088147, -1.072066067775582 91.90473255046588 M81.98000398523502 0.48416699056919343 C61.704685930903565 22.83045461430924, 40.76928577628648 45.65064702378384, 0.3380505303293808 92.52347733060802 M92.4629574869227 -1.7550163440058713 C56.16060751306453 38.72009579682927, 23.434760314739542 77.47834670726297, 4.037924451195698 99.67526362548935 M91.51011592973217 0.1442992844446951 C66.90914987296833 28.73892809157289, 43.75232800995471 54.30876286567829, 4.5105725983693645 100.4159703970641 M98.00141232579652 1.5390224131595245 C73.44778057165468 32.957841399874134, 44.35338925402512 65.0687788664293, 16.14856033362469 98.18808199445944 M99.82113150122923 1.981354439488121 C73.47335545044564 33.89388212588044, 45.54425257607054 64.5118555729121, 15.967234644054072 100.70020332438602 M101.09229660655862 13.27514425188334 C78.5383520639694 40.42774164994014, 60.39063105088972 64.00868580962711, 27.145008649628807 100.83858481422249 M100.45018244128937 15.059432222691369 C79.84700136876549 40.32755624536703, 57.63723847297746 64.78248462791034, 26.36544044765398 100.51984659128328 M99.67594627246241 24.93430774683413 C77.63918264458319 50.4054196544111, 58.240450153752015 73.16405231363048, 34.63178433520708 98.8322293047225 M100.52019220908566 26.907993465724342 C82.36602354344856 45.607910852983395, 66.57684296784444 64.5776725653482, 36.4109063395345 100.85335093310199 M99.13480606513845 37.98981533193506 C80.1592428498133 59.91441563862065, 59.39361803101644 85.61007125762657, 48.73336843293845 99.09733328563688 M99.22165356471523 38.99795422262684 C82.36497989268739 59.89687551583628, 64.59440930914991 80.93613959289414, 46.576983699707945 99.68799600341954 M101.22238329948676 50.94388207035331 C84.4898494145636 71.45452973456464, 66.86645506350004 90.97365049528526, 58.790115988551875 101.61325714925147 M99.70740814103046 52.224213209366425 C85.02965139932701 68.37790919309502, 68.96691033736953 85.89068275910276, 57.6586713401021 99.81729030527467 M99.59875458167797 62.06137808055292 C90.56394061670792 71.44714959937944, 81.95571567872146 80.99467524697317, 69.21515657236509 99.56541202292706 M99.27815102610049 63.99909731722153 C89.70194137434181 74.18363782856837, 80.91368407606163 85.56362042360199, 68.8816102821809 100.75457353332213 M101.69298873580269 76.22179093307469 C93.49036699058607 82.55610901954464, 87.85875029281752 88.30662986973884, 79.39928083083291 101.33082641847949 M99.51199221744851 75.48328434542671 C91.88484882043002 84.6405667675471, 83.58610055465977 94.32208540373779, 78.56879327559106 99.26004069128895 M101.08262781464272 87.76253899296078 C98.55736427374775 89.93470763984148, 95.06502714816135 93.22541285328992, 89.85113705818486 99.92713187359928 M100.50147497706244 87.57492651440819 C98.10622316011778 90.29230460748771, 95.53532858610725 92.65117320861667, 89.68000221084907 100.14092228534855" style="stroke: none; stroke-width: 1; fill: none;"/></pattern></defs><defs/><g stroke-miterlimit="10" stroke-dasharray="3 3" pointer-events="none"><path d="M 124 262 L 124 44" style="stroke: none; stroke-width: 0; fill: url(#rough-2069020148492659);"/><path d="M123.64687101477263 261.54796708005887 M125.39495675576288 262.19965435698185 C123.64622494220845 193.60553069061544, 124.23603567980642 127.31724489754775, 122.0195885166079 42.365356888574766 M123.21641160795889 262.2200840910608 C121.96917337333113 188.1894325059293, 121.74379519649145 114.30613042585327, 123.31171691150077 43.15803673003471" style="stroke: #000000; stroke-width: 2; fill: none;"/></g><g transform="translate(58.5,235.5)"><text xmlns="http://www.w3.org/2000/svg" x="15" y="-3" style="font-size: 12px;font-family: Helvetica;" fill="rgb(0, 0, 0)"><tspan xmlns="http://www.w3.org/2000/svg" x="15" dx="0" dy="14" text-anchor="middle">adder</tspan></text></g><g stroke-miterlimit="10" pointer-events="none"><path d="M 94 242 L 167.63 242" style="stroke: none; stroke-width: 0; fill: url(#rough-173254901886667);"/><path d="M94.52314777081106 242.2279493720731 M93.6562554069621 241.54918298901237 C124.4352618756715 242.48501100099543, 152.36883565076812 243.083541145373, 165.65025261074115 240.70510062253132 M93.85313665952653 242.40990866008607 C114.80452905838222 242.7329496640973, 135.60952678909015 242.1173233782606, 167.2042694545953 241.1688276094516" style="stroke: #000000; stroke-width: 2; fill: none;"/></g><g stroke-miterlimit="10" pointer-events="none"><path d="M 172.88 242 L 165.88 245.5 L 167.63 242 L 165.88 238.5 Z" style="stroke: none; stroke-width: 0; fill: url(#rough-1533415123603929);"/><path d="M171.1402711286593 241.11555012049624 M170.7425802800886 241.3703873578612 C170.03816634193754 242.2725236285434, 168.15440132619972 244.42693348595597, 165.21638931689654 244.90806897211354 M171.29572455044703 240.84577206095105 C169.39336129681718 242.64541728918337, 167.34642841258062 244.43665951508018, 165.9179749094083 245.65063499651663 M165.4895310368509 245.57417816799557 C166.2231688338785 244.21447148479237, 166.95559614853806 243.5344487794713, 167.66253831971525 242.27022660483328 M165.72110185030687 245.48287786915265 C166.5140778447084 244.31981211041403, 167.22270760802996 242.96664172329386, 167.76502637056896 241.85518963254614 M167.8325754564887 242.0090985693206 C167.03685512875816 240.46838150088197, 166.02297242275793 239.51889873982603, 166.18032265209678 238.46573587664844 M167.4893745087894 241.80583693479917 C167.1143578046604 240.8489612362087, 166.65572010020162 239.68081710414666, 165.76055924109917 238.53573603433264 M166.4101512370836 238.79978356129826 C167.2609228429551 239.26261817773945, 168.3726808008085 239.48977475249396, 171.34657775589062 240.94286782177932 M165.87526183264737 238.37220792104728 C168.18169700154695 239.27627086115925, 169.79680839318803 240.36249789660192, 170.94019441845788 240.94855994072535" style="stroke: #000000; stroke-width: 2; fill: none;"/></g><g transform="translate(47.5,7.5)"><text xmlns="http://www.w3.org/2000/svg" x="26" y="-3" style="font-size: 12px;font-family: Helvetica;" fill="rgb(0, 0, 0)"><tspan xmlns="http://www.w3.org/2000/svg" x="26" dx="0" dy="14" text-anchor="middle">Variables</tspan></text></g><g transform="translate(174.5,7.5)"><text xmlns="http://www.w3.org/2000/svg" x="19" y="-3" style="font-size: 12px;font-family: Helvetica;" fill="rgb(0, 0, 0)"><tspan xmlns="http://www.w3.org/2000/svg" x="19" dx="0" dy="14" text-anchor="middle">Values</tspan></text></g><g transform="translate(56.5,195.5)"><text xmlns="http://www.w3.org/2000/svg" x="17" y="-3" style="font-size: 12px;font-family: Helvetica;" fill="rgb(0, 0, 0)"><tspan xmlns="http://www.w3.org/2000/svg" x="17" dx="0" dy="14" text-anchor="middle">add_1</tspan></text></g><g stroke-miterlimit="10" pointer-events="none"><path d="M 94 202 L 171 202" style="stroke: none; stroke-width: 0; fill: url(#rough-5683956566314695);"/><path d="M95.30139208163945 200.2625572554979 M97.06076743113951 201.68081327317847 C117.81156544978694 199.35800315022303, 140.49846469922093 200.20621224371448, 170.4166764273014 203.77920071232083 M95.25190275679951 201.20170194537047 C124.63756306919268 201.71583706860994, 154.02961719733585 201.93855665060556, 171.9808606610951 202.13939022137146" style="stroke: #000000; stroke-width: 2; fill: none;"/></g><g pointer-events="none"><path d="" style="stroke: #000000; stroke-width: 1; fill: none;"/><path d="M172.2220610121443 199.3438024666592 C172.5953849412299 199.03725751531263, 173.97438027784202 198.8709708340417, 174.54587367916318 199.24104036465386 C175.11736708048434 199.611109895266, 175.15868711307394 200.8380611688691, 175.65102142007126 201.56421965033198 C176.14335572706858 202.29037813179485, 177.58478153301144 202.9774757053979, 177.4998795211471 203.59799125343105 C177.41497750928278 204.2185068014642, 175.82840676332512 205.22072705480306, 175.1416093488853 205.2873129385309 C174.4548119344455 205.35389882225874, 173.8291140118732 204.04592569900552, 173.37909503450825 203.99750655579808 C172.9290760571433 203.94908741259064, 172.9039161279731 205.111364434169, 172.4414954846956 204.99679807928624 C171.97907484141808 204.88223172440348, 170.70368547827997 203.93828889494526, 170.60457117484313 203.31010842650147 C170.5054568714063 202.68192795805768, 171.50765163759158 201.98431831410318, 171.84680966407453 201.2277152686235 C172.18596769055748 200.47111222314385, 172.13728769412316 199.02039584932604, 172.63951933374088 198.77049015362343 C173.1417509733586 198.52058445792082, 174.75630206976234 199.65253521854686, 174.86019950178078 199.72828109440786 M173.39867159041174 200.3727953512492 C173.9248339655819 200.201266360293, 176.22390678848 200.44075608607187, 176.68325939782738 200.56514165612163 C177.14261200717476 200.68952722617138, 176.3810342108361 200.79567031431796, 176.1547872464959 201.11910877154764 C175.92854028215572 201.44254722877733, 175.52102726741373 202.03540834323255, 175.32577761178626 202.5057723994998 C175.1305279561588 202.97613645576703, 175.0688591019728 203.37743661940044, 174.98328931273116 203.9412931091511 C174.8977195234895 204.50514959890177, 175.11574790778928 205.74579907329644, 174.81235887633633 205.88891133800385 C174.50896984488338 206.03202360271126, 173.633937450671 205.56619982428293, 173.1629551240135 204.79996669739558 C172.69197279735602 204.03373357050822, 172.053880151418 201.9994917807823, 171.98646491639147 201.29151257667976 C171.91904968136492 200.58353337257722, 172.66597841814905 201.06936413840492, 172.7584637138543 200.5520914727804 C172.85094900955954 200.0348188071559, 172.2909607309055 198.6041157385675, 172.54137669062303 198.18787658293274 C172.79179265034054 197.771637427298, 174.10573223388076 198.03435041831952, 174.26095947215936 198.05465653897198" style="stroke: #000000; stroke-width: 2; fill: none;"/></g><g stroke-miterlimit="10" stroke-dasharray="3 3" pointer-events="none"><path d="M 34 122 L 274 122" style="stroke: none; stroke-width: 0; fill: url(#rough-1155105445666569);"/><path d="M35.22213314875403 122.11409654476556 M36.68140531528466 120.49173690726693 C116.25668204414345 123.91189172179878, 197.4619095096255 122.40441908287255, 272.77363815483176 120.4408820654724 M35.625259198887534 123.04106213925924 C88.19227662996421 123.9987949542048, 141.52046138431413 122.77600621869001, 274.42388149217516 121.23715804390055" style="stroke: #000000; stroke-width: 2; fill: none;"/></g><g transform="translate(42.5,85.5)"><text xmlns="http://www.w3.org/2000/svg" x="26" y="-3" style="font-size: 12px;font-family: Helvetica;" fill="rgb(0, 0, 0)"><tspan xmlns="http://www.w3.org/2000/svg" x="26" dx="0" dy="14" text-anchor="middle">increment</tspan></text></g><g transform="translate(-2.5,185.5)rotate(-90,16,6)"><text xmlns="http://www.w3.org/2000/svg" x="16" y="-3" style="font-size: 12px;font-family: Helvetica;" fill="rgb(0, 0, 0)"><tspan xmlns="http://www.w3.org/2000/svg" x="16" dx="0" dy="14" text-anchor="middle">global</tspan></text></g><g transform="translate(-1.5,75.5)rotate(-90,15,6)"><text xmlns="http://www.w3.org/2000/svg" x="15" y="-3" style="font-size: 12px;font-family: Helvetica;" fill="rgb(0, 0, 0)"><tspan xmlns="http://www.w3.org/2000/svg" x="15" dx="0" dy="14" text-anchor="middle">adder</tspan></text></g><g pointer-events="none"><path d="M182.37981961047197 232.14700129839431 C181.53839402736844 234.7566448890943, 178.74662133246912 240.11518590259143, 173.70172006532977 242.43323253799713 M184.46177209241398 231.74394708767431 C181.4499829361021 235.14128075105637, 179.7163672634085 236.52901319028155, 174.29977962781706 243.3647398710668 M192.4089441556082 232.91535147593208 C189.91313293500548 236.32190748004578, 183.7201849032531 243.28186252302132, 178.91863555620563 251.1608034065783 M194.4317138533108 231.8309445427902 C191.1567207989626 235.45211016888786, 186.1673004633721 239.46272545480298, 177.41925619417216 252.61552340981763 M205.0929511042478 230.9811200342618 C201.54402088648828 235.81008831099237, 196.39429078963013 240.7041215204844, 189.45791451362595 253.57306326499008 M204.92574521569534 231.9115746693363 C198.2049166873693 239.06146312349088, 192.57029028612956 245.9792471328787, 186.7717537447125 251.01112676299923 M213.7976450383417 232.81579560017602 C211.0896455634059 235.82847101319538, 206.17456921660553 241.35629894294595, 197.16020144610448 251.30534665947434 M215.72720032549745 232.73612145437522 C210.98820423134995 236.73829967444792, 206.381818521319 243.76151147554785, 197.383478223471 251.62225440237202 M226.21324827130277 231.30319298149215 C221.0206604521237 237.35853824314785, 216.790979086951 239.1850931049805, 207.96316004386517 253.17214068914416 M225.84046610394725 232.2453911667423 C221.75656697558895 236.63802132037534, 218.69215193946243 241.34274447132276, 208.55502749557925 252.94875082122581 M236.68187556657384 232.5903121991543 C232.44141967466243 235.17921379764607, 228.697784615152 243.79961497035106, 220.42572708483522 251.1543734340451 M237.63430125311737 231.99112665703933 C230.70678840651618 239.28966473181728, 225.334331271851 244.65848497105603, 219.45940396940017 251.1303496928779 M247.6070856771979 230.5928392086939 C244.02743592778768 236.14918148869896, 237.8965058330947 242.25417504991276, 231.38425782650285 252.15172877803394 M246.8616849519467 231.92823422650162 C241.64398929684933 238.30348618688453, 235.44626561373187 246.14390333167697, 229.44921059076552 252.49681547438527 M258.00957784152433 230.1069901374437 C254.17007396865944 237.8056616688863, 252.0635496274546 240.3633943249088, 238.94132897550563 250.00384314174312 M257.3107704298199 231.25234649160166 C252.07647246148213 238.6075273433226, 244.6832270678482 246.71642095033664, 239.72689602874073 252.64978816234355 M263.5583994814011 238.74366441210705 C261.6864500711183 243.0617380595614, 255.18580151186035 244.11992740459763, 250.73853362383028 252.24217504776797 M263.47175018689836 236.30718967162773 C260.39558654491753 243.1481042633091, 254.57551630965642 247.69736751483816, 251.15107676184118 251.99779564880416 M263.79043673148624 249.7393320622986 C263.3837686438746 250.37713677801426, 262.82711788970425 250.7277473124071, 261.6574117523861 251.84622174025046 M264.01330456132484 249.58903222603996 C263.42508145681234 250.08576825924413, 263.12692175127626 250.6098761700566, 261.89728382774064 251.96221449466177" style="stroke: #ffffff; stroke-width: 1; fill: none;"/><path d="M174.10491904939866 231.40991933447137 C196.7449342360561 233.67469164366727, 221.06812434091725 233.5827465357624, 264.82408905358477 233.54917283755165 M174.80418117689717 232.41512118884168 C198.41269491040615 232.5076868227889, 220.99702895645467 233.5107912626438, 264.4876296032773 232.25991626011415 M263.0554708192803 231.54641694749256 C262.73110227399894 239.44956983025014, 263.05854964162677 245.0578420894386, 263.6636824554946 250.24988571822072 M263.643042710449 232.99140551229323 C263.5847616716353 236.5084240177278, 264.6651868017934 241.37179912102167, 263.5859963667346 252.58020890099257 M265.45991764920467 251.36504887384854 C237.00562318430448 252.3027588648014, 208.42701743551245 251.44379600509964, 173.2036440399956 253.84576604956987 M264.0394629936608 251.68267164999153 C235.4861760708859 251.6680937689495, 205.3187046319038 251.84734242904932, 174.1397095421249 251.37442429687573 M175.81346504798185 251.52538555143573 C174.00783681448507 243.698427230374, 174.26141635657308 240.5488251241037, 172.0249933027535 232.12213259808348 M174.44609820433502 251.5081478162339 C173.70267151635548 244.0464596347399, 174.55117176749388 236.39770770558852, 174.53955988865312 231.95344041097522" style="stroke: #000000; stroke-width: 2; fill: none;"/></g><g transform="translate(178.5,235.5)"><text xmlns="http://www.w3.org/2000/svg" x="40" y="-3" style="font-size: 12px;font-family: Helvetica;" fill="rgb(0, 0, 0)"><tspan xmlns="http://www.w3.org/2000/svg" x="40" dx="0" dy="14" text-anchor="middle">...instructions...</tspan></text></g><g transform="translate(56.5,153.5)"><text xmlns="http://www.w3.org/2000/svg" x="17" y="-3" style="font-size: 12px;font-family: Helvetica;" fill="rgb(0, 0, 0)"><tspan xmlns="http://www.w3.org/2000/svg" x="17" dx="0" dy="14" text-anchor="middle">add_2</tspan></text></g><g stroke-miterlimit="10" pointer-events="none"><path d="M 94 160 L 171 160" style="stroke: none; stroke-width: 0; fill: url(#rough-6553008456385473);"/><path d="M95.90351336325821 161.77127765594392 M94.47299907136252 160.5917169544396 C121.10420459640623 159.03732427171923, 148.91185610239526 160.45817704719252, 169.4122507420008 161.2502438922945 M96.10058332644564 162.55874367194815 C116.54144406336472 160.82245622518315, 134.8791753425678 161.17853596400386, 171.7940989135763 160.81643361900527" style="stroke: #000000; stroke-width: 2; fill: none;"/></g><g pointer-events="none"><path d="" style="stroke: #000000; stroke-width: 1; fill: none;"/><path d="M174.37657262479956 158.14403124311409 C174.85401402560123 158.17224279147226, 175.35006472756316 156.93926789047953, 175.62493442067986 157.3865842506412 C175.89980411379656 157.83390061080286, 175.83448570661068 159.9794146295149, 176.02579078349982 160.82792940408402 C176.21709586038895 161.67644417865313, 177.06207873540708 161.99706857710146, 176.77276488201466 162.47767289805594 C176.48345102862223 162.95827721901043, 175.04309193083 163.82026126980878, 174.2899076631452 163.7115553298109 C173.53672339546037 163.602849389813, 172.82116521393715 162.1878567402598, 172.25365927590576 161.82543725806858 C171.68615333787437 161.46301777587735, 171.11414674766388 162.12569856942116, 170.88487203495677 161.5370384366636 C170.65559732224966 160.94837830390605, 170.6731989084396 159.14733173800852, 170.87801099966305 158.2934764615233 C171.0828230908865 157.4396211850381, 171.48650986957622 156.40219575837438, 172.11374458229753 156.41390677775246 C172.74097929501883 156.42561779713054, 173.96043708602707 158.2044922871644, 174.6414192759909 158.36374257779175 C175.32240146595473 158.5229928684191, 175.9567959840147 157.5272284337111, 176.19963772208044 157.36940852151656 M175.99640763207577 158.37327170611732 C176.5097076027481 158.65840380446272, 175.78374238487913 157.67866961361997, 175.79194816613358 157.85829590071566 C175.80015394738803 158.03792218781135, 176.10247751357127 158.54527353074337, 176.04564231960236 159.4510294286915 C175.98880712563346 160.35678532663962, 175.6666663813218 162.8342181461885, 175.45093700232016 163.29283128840441 C175.23520762331853 163.75144443062032, 175.122700335087 162.62352402496404, 174.75126604559264 162.20270828198701 C174.3798317560983 161.78189253901, 173.86982851178956 160.90294489449667, 173.22233126535414 160.76793683054228 C172.57483401891872 160.6329287665879, 171.14990875018796 161.9977406994728, 170.86628256698017 161.39265989826075 C170.5826563837724 160.78757909704868, 171.09607514245317 157.85523170458217, 171.52057416610742 157.1374520232699 C171.94507318976167 156.41967234195764, 172.6352375829663 157.19110814232502, 173.41327670890558 157.08598181038712 C174.19131583484486 156.98085547844923, 175.67517329794063 156.53135193046202, 176.188808921743 156.50669403164252 C176.70244454554538 156.48203613282303, 176.54241006806197 156.88871509742555, 176.49509045171976 156.9380344174701" style="stroke: #000000; stroke-width: 2; fill: none;"/></g><g stroke-miterlimit="10" pointer-events="none"><path d="M 104 92 L 157.63 92" style="stroke: none; stroke-width: 0; fill: url(#rough-2537150371957131);"/><path d="M105.72980210017516 93.89182769046342 M104.11613892220171 94.38593195642557 C121.61685716740865 94.09296517498372, 136.76794353579263 93.88150022271368, 157.01201303817842 93.03823458674489 M105.48341286962324 94.66602805631965 C123.2079863632171 93.02902624919585, 140.9626599238354 93.79197626261458, 157.4166683546074 91.8822645839132" style="stroke: #000000; stroke-width: 2; fill: none;"/></g><g stroke-miterlimit="10" pointer-events="none"><path d="M 162.88 92 L 155.88 95.5 L 157.63 92 L 155.88 88.5 Z" style="stroke: none; stroke-width: 0; fill: url(#rough-2160320231052239);"/><path d="M162.0565517223989 92.57556651323723 M161.8827036497682 93.01762826257392 C159.95414229719677 94.08989772946913, 157.0431603904164 94.62165367623612, 156.01348543419974 95.05054012601154 M162.3715900694225 92.62738798971486 C160.35795367389184 93.15220472321255, 158.77777411489475 94.32485528111509, 155.9263935839346 95.55694607938892 M155.54819711008412 95.32605375265497 C156.2578438036489 94.43947853330644, 156.9234667093549 93.50366942735657, 157.71799643568022 91.63727705264016 M155.8733249038308 95.4276180893225 C156.31591086970454 94.09234644429532, 157.26741607145476 93.0108649203027, 157.69835085274238 91.81297999598438 M157.30653816199643 92.25839065069927 C157.2408557464807 91.056137012702, 156.71034617862463 90.29735723127202, 156.05674284084935 88.54575710042332 M157.81851557918648 91.95492830883579 C157.03755299447388 90.9003798435969, 156.23352316875068 89.4755929786997, 155.84660617075585 88.4210343864084 M156.2615256994518 88.83198964914479 C158.77401955977862 89.92247950828568, 161.07870246376166 91.40161347001244, 162.07369157733163 93.12935484030501 M155.728102916292 88.7437822103877 C158.1491770077377 89.97845587999434, 160.01422624834512 91.07353430534789, 161.9669651132176 92.6520181790201" style="stroke: #000000; stroke-width: 2; fill: none;"/></g><g transform="translate(170.5,85.5)"><text xmlns="http://www.w3.org/2000/svg" x="3" y="-3" style="font-size: 12px;font-family: Helvetica;" fill="rgb(0, 0, 0)"><tspan xmlns="http://www.w3.org/2000/svg" x="3" dx="0" dy="14" text-anchor="middle">1</tspan></text></g><g transform="translate(61.5,55.5)"><text xmlns="http://www.w3.org/2000/svg" x="2" y="-3" style="font-size: 12px;font-family: Helvetica;" fill="rgb(0, 0, 0)"><tspan xmlns="http://www.w3.org/2000/svg" x="2" dx="0" dy="14" text-anchor="middle">f</tspan></text></g><g stroke-miterlimit="10" pointer-events="none"><path d="M 84 62 L 161 62" style="stroke: none; stroke-width: 0; fill: url(#rough-8566098395639661);"/><path d="M84.28345046869785 63.279479709476426 M82.64502237125431 62.27483802960188 C112.21557323754385 63.87619677655299, 138.0226824718784 64.07962721119289, 162.23447707284555 60.09536858517256 M83.76444974199045 62.407860148389254 C104.10710778174445 62.63171981688924, 123.73531776219187 63.10875600636193, 161.23820449274854 61.7404601136648" style="stroke: #000000; stroke-width: 2; fill: none;"/></g><g pointer-events="none"><path d="" style="stroke: #000000; stroke-width: 1; fill: none;"/><path d="M162.91911507782464 59.639047912543006 C163.56271854774326 59.611672169755444, 164.8919773948635 59.967927577453636, 165.6356984043361 60.22563717685142 C166.3794194138087 60.483346776249206, 167.21295320716678 60.6719463549097, 167.38144113466026 61.18530550892972 C167.54992906215375 61.698664662949746, 166.79111808406103 62.56994146372272, 166.64662596929705 63.305792100971566 C166.50213385453307 64.04164273822042, 167.1908098111195 65.143539455804, 166.51448844607643 65.6004093324228 C165.83816708103336 66.0572792090416, 163.34378068072368 66.20709877992391, 162.58869777903865 66.04701136068435 C161.83361487735363 65.88692394144479, 162.41779409215678 65.41486037125932, 161.98399103596634 64.63988481698544 C161.5501879797759 63.86490926271157, 159.92320471126862 62.107627981320064, 159.98587944189606 61.39715803504111 C160.0485541725235 60.68668808876215, 161.76229440716338 60.76980310260084, 162.36003941973092 60.3770651393117 C162.95778443229847 59.98432717602257, 163.10155791379788 59.26788253741613, 163.5723495173014 59.040730255306286 C164.04314112080493 58.813577973196445, 165.27006642300293 59.12286989920058, 165.18478904075207 59.01415144665263 M163.46908160079772 58.93532969049327 C164.08705374395643 59.0884287624271, 165.51813669074429 59.60440057628038, 166.19699372722528 59.892966774679635 C166.87585076370627 60.18153297307889, 167.32079165199528 60.11702032615545, 167.5422238196837 60.66672688088879 C167.76365598737212 61.21643343562213, 168.03342681187033 62.30442085049444, 167.52558673335585 63.191206103079686 C167.01774665484137 64.07799135566493, 164.93375104577316 65.87852591063785, 164.4951833485968 65.98743839640028 C164.05661565142046 66.09635088216271, 165.33631955432105 64.11987017093085, 164.89418055029776 63.84468101765424 C164.45204154627447 63.569491864377625, 162.72817846235623 64.40714452804093, 161.84234932445705 64.33630347674058 C160.95652018655787 64.26546242544023, 159.48760632001785 64.0848687653237, 159.57920572290269 63.41963470985211 C159.67080512578752 62.75440065438051, 161.60619493800436 61.21025438604804, 162.3919457417661 60.34489914391099 C163.17769654552785 59.479543901773944, 164.25375226484113 58.63508485241878, 164.2937105454732 58.22750325702981 C164.33366882610528 57.81992166164084, 162.6585388487069 57.976016976562505, 162.63169542555866 57.899409571577166" style="stroke: #000000; stroke-width: 2; fill: none;"/></g></svg>