<svg xmlns="http://www.w3.org/2000/svg" xlink="http://www.w3.org/1999/xlink" version="1.1" width="297px" height="268px" viewBox="-0.5 -0.5 297 268"><defs><pattern id="rough-509297608579705" x="0" y="0" width="1" height="1" viewBox="0 0 100 100" patternUnits="objectBoundingBox"><path d="M7.127366145218762 -0.7167285730842307 C3.9770908521994848 2.39916305081677, 1.81255032499468 5.3652059682784055, 0.5275526461653837 8.03357943851369 M6.7815750550760185 0.03860635448618599 C5.918087155259514 1.4909004787181657, 3.571808869761097 2.9988579109133005, 0.5040435142797259 7.601822290933953 M18.998462888572433 1.7480474889279218 C14.206079654021023 2.917178631687416, 9.255646509145997 9.02135874513982, -0.6994971223791726 19.73607659812422 M17.039371914280554 0.43252591129634244 C12.468067076502802 7.103399506741873, 5.087889567964551 14.49359891878911, 0.8519482279933097 19.417532994290816 M29.80789231570442 -1.3211267293190536 C22.978202178679354 7.388037038814329, 14.605576598054 13.76751672100275, 0.8979954454059245 32.94359508188068 M27.426369598614826 0.6345806249867971 C20.07697203803665 9.736606183334544, 11.33796366138198 19.48059185217055, -0.12159841141211158 31.749816171653634 M38.37564041984414 0.48811493170348363 C26.674436301055085 12.354003096241474, 12.508980738927185 28.387051976340942, -1.7087215091476313 45.58887146978492 M37.793384435493124 0.6011570674458144 C27.36195832054002 11.704659156559524, 16.59486078842686 23.541304283922212, 0.3834861768202553 45.25950190381678 M51.04098530373608 -0.47942429115373475 C29.66519405255941 21.9451628604734, 14.537577086798173 41.3303198032804, -1.6096541611277493 55.21833205784344 M49.47234478778688 -0.5915100064263101 C36.7181965771879 13.31232591033741, 25.719528341668788 28.158855930956033, 0.2976418355475494 56.69127101926807 M58.60668230922361 1.0604295834235913 C41.185744032753504 20.425650008469653, 23.209218932511423 40.31548689548957, 1.6927482703945733 70.30091301790773 M60.5837840893331 0.9407820781644722 C47.76056447587346 14.01147310343065, 34.6752784598248 29.51871575971107, -0.1261659952647931 69.00455563856265 M71.18787471329414 1.0429523931764075 C44.79125078359421 29.076094496878255, 17.470957373160044 61.40013744582775, 1.243324457448896 81.2825540126636 M70.95000766708337 0.9684458850496496 C43.373479184740006 30.79086956478007, 16.859855920235407 61.38023504005284, -0.31161180907998576 80.19590777093715 M79.37888937497625 -0.8822265428272624 C51.012713267438826 35.880958358785584, 19.817699959376466 74.13288196049781, -1.3962527001384064 94.4104006083224 M80.7901964277283 0.47403679858342196 C55.000504354998824 28.461491045053307, 29.974962286361226 58.505770879308045, 0.37117411846769377 93.1016245290991 M90.15438987334929 1.698644883536419 C69.74798554829674 26.870033239343837, 45.57619747373306 50.6546720849546, 3.884601730840168 98.3233269510321 M90.88409989047626 -0.2363458590590306 C58.58118671783792 38.70887319522396, 26.210768880100076 75.73099885267945, 3.7543423631256547 100.34947156401161 M99.62916832886084 1.3069177270752705 C73.19330007921073 37.47019577402653, 42.70416912857003 69.02303215402134, 15.542876793289741 101.16516005888323 M100.01158193022754 3.2993933152195893 C80.78306515786433 25.680453933041253, 61.0050935877288 48.53899639554824, 15.276098695053081 99.3828810933532 M101.1055119036567 14.437286986460382 C81.85251609319724 33.108891620489686, 65.37757025265347 53.16690583965685, 24.654625801372354 99.70333170961557 M100.69124853082701 14.79835527961714 C83.11461493881319 33.551525783180715, 66.93241736855693 54.442405839923545, 25.076680671794247 99.64950850209142 M101.41956711446473 26.62125011372619 C84.37434890181369 47.124083652311135, 66.49672259972678 65.65918769927156, 38.22367936608287 101.45730350951497 M99.40746714372838 27.354738804031268 C78.94705815314288 53.39023311564263, 55.64352183309345 78.19642880584458, 36.75662208250325 100.96128956403108 M98.35726932886134 37.64033745587136 C77.58488238804722 59.924474747538085, 60.583035181730544 84.10439889515841, 45.700205239309724 98.31323299731328 M100.7028975606618 39.186093127041474 C79.9764686885978 63.14897725389901, 58.67546636288844 86.36886518308523, 46.1240260474556 100.01901714349631 M101.53832425241734 49.819304717396825 C87.67585477181389 66.20499704710802, 75.38751926074438 80.55805245032482, 57.5772915681279 99.74711535366772 M99.10055849359793 51.04442716622527 C84.68686947069794 68.6403206047995, 71.09493122289234 83.77040381536382, 56.76804388926069 99.44274989489091 M100.14765899619871 62.41869559819904 C93.05635628768383 73.22468886522088, 84.10783685121224 81.87689157867953, 68.87265859455641 99.99699774387278 M99.87465044545866 64.39412858553135 C91.39894697016871 73.65875197946433, 80.6688389060717 85.30055899311998, 67.84150140171765 100.76259834976807 M100.10634667065275 76.72578370011456 C90.93255399717461 82.66397904072383, 84.91081509742254 92.68030858068727, 79.13607711008734 99.49107054320663 M100.34958140888575 76.00110762966928 C94.8061601018461 83.68265792799451, 87.28282352616866 90.71866137343714, 79.47084823039307 99.63717733852897 M100.63719605565102 88.38292133555899 C97.66220472993032 90.65376221078054, 91.94305973593279 93.87134890254848, 88.96267572825684 100.70607600333516 M99.47514225890716 88.05137335771173 C95.97475504199137 91.14173438427787, 92.97166637686584 95.38097833131287, 90.10829700206737 99.30724195997323" style="stroke: none; stroke-width: 1; fill: none;"/></pattern><pattern id="rough-6767691394114025" x="0" y="0" width="1" height="1" viewBox="0 0 100 100" patternUnits="objectBoundingBox"><path d="M7.099730693363458 0.0767006712151812 C4.535541594129808 1.3743614592100848, 2.352713010859271 3.9796799036158643, -0.9511029047976726 8.294865196019208 M6.5835151696733085 0.34971125983253615 C4.4502068742249765 2.6458166744935756, 1.9163898767316823 5.3412830194399845, -0.28156776183844445 7.7283709110561585 M17.180198433648 -1.0501487164461931 C13.525258871979752 6.5159013611251755, 7.471058923317533 11.83566479056202, 0.024405646714662943 19.45112610936071 M18.311587236739754 0.7995940312951033 C10.181854312854274 8.153711523043166, 4.2489210743836265 16.19720261719048, 0.8479851067027124 20.83505526169516 M27.328892655072522 0.5118838712564893 C20.31930945676416 10.25152283144255, 14.365111118610827 17.953725229900492, -1.8587947004007708 30.230049955642727 M27.589131674870725 -0.3309539317919765 C22.205228439410575 6.548180645788562, 15.0614630798252 13.49788363458646, -0.261309782818286 31.748595002872626 M37.62490713227178 0.590571365118751 C22.66674658855382 15.330002996083799, 7.947436576031552 32.94834723559201, 1.8226376232875445 42.6707713668839 M38.93745070699122 0.7861925714431943 C29.380956535180875 11.024439948592022, 19.480426002442393 20.869103840695296, 0.3786489356602458 44.4490872719047 M50.753418672595515 -1.401064388949365 C33.35282040312371 18.77665562807177, 15.009377614628834 40.40614761208081, 0.6436606635816977 55.15350018566795 M49.23901670089553 0.8329278367058524 C31.80153386859756 18.122251456911037, 15.379833559430583 36.94264312923438, 0.5107770036885215 57.23104454399947 M59.73925571373071 0.32990173820850455 C43.015931524496004 23.600045788121815, 22.807560390684444 43.58267530656333, -1.022373333379349 66.79503992070404 M59.70726820088944 -0.9704212531046981 C38.78209801261323 23.869490919232966, 17.02915117215093 49.28431872770817, 0.2465370319516098 69.7104620515713 M70.96502414752655 0.5582917930196825 C49.32794117030377 23.93801709937248, 29.83346316169482 46.07417729730967, 0.6981108793443278 81.19585053756414 M70.30266558249913 -0.3289742014508521 C48.52434929026865 26.167183281547562, 26.36148559003678 49.82212381625798, -0.3130677957215058 80.24296336142376 M82.31906989978067 0.8278079922426747 C49.40935289722694 37.83375333744571, 16.573280908500287 73.3378965442897, 1.4734217066206075 92.49924832117884 M80.18490507584632 -0.9905620581457022 C55.42701185907872 31.372658148512517, 28.663143371095035 59.69899213090481, 0.6808507407640749 92.8386349543638 M91.0421999726623 1.5593591467516266 C68.74042651155929 24.726734073324224, 44.35659292046997 54.78480087111716, 3.2795028019110193 101.7476824161939 M91.53168342159695 0.5342456109404874 C62.85791843679402 31.271531980984676, 36.34187319667139 64.13755230387349, 4.286827304296395 100.57155506816886 M100.51977485790086 2.542799270732372 C66.68801051558404 39.091048270699005, 34.66953442855465 78.65696718307076, 16.75845085273437 99.0569277261688 M100.33293062296569 1.614668425328233 C80.40193740577881 25.315124739807224, 59.53054623460599 48.8419889304878, 16.13855334825948 99.01972731425904 M98.9898042402811 13.401488676810814 C70.33809549750198 45.73571425717509, 44.74067963477796 80.98156099223688, 24.79077740655658 99.04489171902394 M99.75580838969948 15.636573723102867 C76.85340337395843 40.312641307646196, 55.90400937522058 66.48184917483762, 26.428441876076793 100.26677425043788 M98.69084844261928 25.730401984133508 C86.20138509909775 43.38016351277828, 68.88235788587528 60.64591541567079, 34.80236002371533 98.4022963944672 M99.06154264244331 26.254624396186486 C79.27005144782248 51.60454186175181, 56.49978516701579 75.14677526578349, 37.16958390366028 100.84442662264948 M98.7726031169761 38.118419591112 C85.31437647756502 56.55628598027861, 66.98031333190828 76.3234889369773, 45.521952402209465 100.748322816924 M99.52154151447937 38.46652005557118 C88.25146547124241 52.70367682530817, 78.0590605759778 65.56418184321592, 46.31468792291137 100.8234178089715 M101.53953676814032 50.79816163114877 C86.45063747146578 63.97299196495335, 75.59877777093475 80.531127625133, 58.470543779408246 98.49879659509082 M99.63261974101486 50.47699739159882 C84.66970236723598 69.84150621417197, 68.64845337578157 87.97970397009986, 56.915841980238724 99.6986796240324 M98.01708400264266 65.40743832122995 C91.30489923840089 73.87120687918174, 83.78830446412195 81.8525502668155, 69.32213064660573 100.73825279324129 M100.81662335839461 63.499607295146646 C91.61508817950272 71.96351678541147, 84.22191553851563 81.44820878869453, 68.60537902339696 100.83388505168645 M100.92983296780841 74.57613036460975 C92.99574055168408 83.02651110783474, 86.90427113645265 90.60308873140576, 77.48608142050753 101.09085240287678 M99.7164608009862 75.78802204346914 C92.33810387853943 84.90524670181776, 83.76876314486003 93.88978454389854, 79.37901440277874 99.5178299989023 M99.43476370759385 89.15848935386151 C94.73619859615239 93.75919933278708, 91.83532128990434 96.13622000682442, 88.90475865348587 101.42752573370655 M99.47311515166955 87.41873481787597 C96.37595304806362 91.69673242955957, 92.51478703597071 96.73348016613731, 89.52347403524325 100.47634557116145" style="stroke: none; stroke-width: 1; fill: none;"/></pattern><pattern id="rough-7672709288950269" x="0" y="0" width="1" height="1" viewBox="0 0 100 100" patternUnits="objectBoundingBox"><path d="M6.138071124010955 0.4981531506057473 C4.970564092233157 3.2785263424712294, 2.656355813606255 4.967286405412173, -0.1406684955507107 8.448484725166457 M6.731343172345195 -0.3374533997300876 C5.504705531049944 1.5158906297580277, 3.9428806425098335 3.9612866704282546, -0.13465415058261465 7.542610570264239 M15.785944508857455 1.5248556546866094 C11.688776922494593 5.8891608614526945, 9.912208147338646 9.328744848427768, 0.6644842529259085 19.519295222381057 M18.06078325566742 -0.9405061836916628 C11.496108599833342 6.593009647299141, 6.33535683517986 11.463716824875434, 0.752511412544087 20.09360803799472 M28.904699449004138 0.9179020465209344 C19.8897354408379 9.264533140242229, 11.78297290708734 18.255835815143023, 0.4910664876216515 34.150799299883005 M28.40805520171774 -0.5655513276753346 C19.496933857993252 9.825315224570256, 11.180115437970578 21.136245264248227, -0.06641990108353601 31.487069060964807 M38.1944831702637 -1.567462634397991 C27.385712180910502 15.116773547552128, 16.2699841139325 24.59143999036281, -1.8456295610011324 42.65425520785936 M39.56412716229762 0.7478409755583426 C24.04863056389042 15.719935469365332, 9.744388045052844 33.537894265871934, 0.971324968838601 44.06494869756299 M48.63568595542753 -0.5287195006039198 C37.93021894149052 14.329968994495978, 24.719566468638146 27.627836686481434, -1.1345319224895398 58.13989151243989 M49.187059204746326 -0.4547013121335075 C39.0082884344643 13.539016524400834, 28.250825953251397 25.619117350025075, -0.6319920072427347 57.33257256420511 M59.61841832217071 -1.3669620060500343 C43.78918929455515 18.39707007969256, 29.16792766953971 33.43967652818388, -0.5583786702733216 67.04181878037468 M59.538372624883394 -0.8750241804143108 C37.28983853969371 24.834022774249583, 15.954245241528243 49.19195869463666, -0.559469209002776 68.86360131593793 M69.56005908781063 -0.740241021772051 C55.385871551485224 20.089785410407142, 35.83660069696336 38.804224838742705, -0.8068039492593879 80.94019367093729 M70.27866669055419 0.2923235999537961 C45.08157129279142 30.50189781746982, 18.35146804403009 58.835736095304156, -0.8493991428446499 80.75585309636357 M81.41681550072941 -1.3679679318954943 C47.09510742829043 38.89291165874876, 14.255804519077842 73.42856624287205, 0.01724941740560304 94.66033087924981 M80.46383721900386 -0.6852497683748968 C57.95207698478029 28.28319974256815, 32.908262322299905 54.99830592696878, 0.5603204023511257 92.3699861674764 M90.50413794840001 -0.5272271921910043 C60.658465235779595 32.06370122584551, 31.739667438108626 67.358547418325, 4.4105147497000745 99.67215606677998 M91.89835435644048 -0.26067599210180115 C56.455981751628194 38.56417192097087, 22.47331171792386 77.58073589372876, 5.073377408677178 100.9306882310572 M99.53531509315388 4.075392960788321 C67.85475565151796 43.30928378329632, 31.265815901578613 81.53729878845247, 15.634985294052205 101.32037496414907 M99.29777557028319 1.7862053143289347 C66.61288712162249 40.72565719945746, 31.39694011451151 80.74511831789458, 15.506950900134768 99.57851610733633 M100.90882293532522 15.364428867422145 C75.49548590255364 38.83950673128146, 54.549769458194525 66.06484218587266, 23.932179744970533 101.10270006551346 M100.30355563919734 14.942503749772857 C71.23332404026254 46.29710042829626, 44.048801282598575 79.58286686944099, 26.440594185399462 99.2784196627344 M101.98464257596149 28.44891904930016 C83.74050983942622 44.61540959637861, 67.3049336518981 65.98167516220487, 38.16604704082604 101.85604998677564 M99.48859552735658 27.87872234154663 C87.73122457556914 42.08577663192871, 73.88837250982913 57.08536634250385, 35.649975687897 99.31130798988671 M101.51772246212839 40.41260872666571 C81.21766405865512 62.56846070389885, 61.17240518694892 80.91715374574123, 46.47331577890313 100.51953001536023 M100.61861892148669 38.71575071475498 C83.47939034142888 58.54276105085961, 68.02153993184201 76.80359956243518, 47.8680966786532 100.10396475897774 M99.05858121599121 50.47745869825157 C82.7281672138872 68.99209431808367, 65.63833415116642 89.79946276033465, 57.69130148549668 101.13289305948352 M100.78106968005359 51.922532598566505 C85.8519915328042 68.99135285376296, 70.60320266862124 83.60752722517798, 58.20082998153715 100.21118524621924 M98.55368409296474 61.62840850170235 C91.28974593826604 71.62032354506873, 86.06695437454842 80.35576497442109, 66.31997899959849 99.82948921896191 M100.50392989007176 64.0025209899573 C92.68806385277003 70.99649378576616, 87.09606042565918 78.60913275233983, 67.79755380411173 99.92261283266647 M100.4471296712948 76.03652529729753 C92.29552110011126 85.89309866508776, 83.983226643359 92.58477880324261, 77.53280488464546 99.0593921683646 M100.0479732307576 75.69140280175708 C93.70375224763156 84.00627619544483, 87.86760409481101 91.32521964968754, 77.89174451473757 100.25790463865907 M98.59736064636903 87.04613798672246 C94.36052108577888 92.29646180400088, 90.72409598772967 99.07110197878417, 88.85165610163078 98.76805668447325 M100.56307504717293 87.15191595076867 C97.78871517291066 90.37883604736419, 95.17804648485541 94.78374168145719, 89.95011850751916 99.58298544960296" style="stroke: #000000; stroke-width: 1; fill: none;"/></pattern><pattern id="rough-5406832308241955" x="0" y="0" width="1" height="1" viewBox="0 0 100 100" patternUnits="objectBoundingBox"><path d="M6.760984465266978 0.37125284561077065 C6.280867249790571 0.9811513179710003, 4.716773969672453 3.2383758618373597, 1.0344361814685326 8.484839034071802 M6.738264376875099 -0.4781630601434009 C4.341977418078056 2.440284525824189, 2.2227548311191043 5.630596167800775, 0.30842125331096926 7.520895915747 M16.860913552467096 1.38896216773019 C12.313974492813418 6.38776501959219, 8.205249085229408 12.761548966881676, 1.9579922891730543 20.329231799965843 M17.264275836210174 -0.3995560516005576 C13.290135821744457 3.480940660033497, 11.031286030059556 7.763012128124592, 0.4226041296373442 19.52769117300191 M29.80042277246561 -1.7902078662533434 C19.153324268601114 11.212722489827941, 8.826029887957318 20.620882348109166, -0.5764013581847074 32.59883418928591 M28.543836379299176 -0.3982318611434219 C21.883542909762205 8.008635381663217, 14.178515361087044 16.93931227422113, 0.08640345891534063 32.31281360528665 M37.905616155175636 -1.8754596762556224 C28.891364997170474 9.751307351122897, 21.053720319741476 20.204480833314356, -1.3507925688574343 45.401403219285626 M38.60335729522611 -0.25484099768444457 C28.26464237516353 13.465913501881003, 16.049457101468526 26.042068043755776, 0.4488008794449647 44.016831118278496 M47.640382270066254 -0.0772039559714548 C31.3704563241207 17.580562763142318, 16.38175667413215 39.202257332280965, 1.557708260600685 55.31957906410749 M48.891180382516154 0.7046376142146702 C30.46213479762678 21.03472955662282, 11.213062258080727 43.17705317422874, -0.2852780293066588 57.135036262379046 M59.42955978741993 0.5360773110461539 C48.831082812724574 15.259061939787843, 36.394018734985714 26.158001486705963, 1.601199515880114 68.64233575709049 M60.31019314778276 -0.6123366607277663 C36.59453936322313 27.89481612276606, 13.470290257036943 55.225609939288034, 0.31811405677647464 69.25369392543627 M68.5090529536815 -1.0516388478793832 C45.599367727933306 29.582696531486466, 19.761141541630508 58.943471049364874, -0.9522261869336575 80.71144472844364 M70.98072218484387 0.500567287520306 C47.341475262437775 26.54200597307254, 24.616078488809524 52.87544755691021, -0.19005032725709103 81.69436608580318 M82.82558836263165 1.655479933221148 C62.861623329479116 21.310350284223283, 44.996145303728404 44.140029451919915, -1.4079612672970034 93.29354256542901 M80.14592376019573 0.08951850229990832 C62.52373088798255 22.525998261061744, 43.135233157232186 43.7739492479618, 0.43389714542333024 92.66688287791492 M91.89136083719184 0.1864611300981922 C69.1169539312035 24.88279763155851, 48.21606233456011 47.544787396307235, 4.373028762059845 101.66227969851965 M92.39090585250872 -0.6465155770671589 C58.93854855408949 36.97694618615081, 25.54460828980129 75.68944464804527, 3.7969926753089345 99.59967064756289 M98.85070453612575 4.205012469219301 C73.18835202135797 34.909584670347755, 46.42985416312221 64.10774668221494, 14.525732714359453 98.07184896432192 M99.23963263457442 2.680040619296979 C79.88116826410499 26.338781384435865, 58.67801863370587 49.82857893596048, 14.776929482478414 100.91521381430455 M101.42526720307633 13.802075289696347 C82.06954065197066 32.888454367553564, 68.04965439457624 50.17576186572382, 24.863585945027417 99.49823086589036 M99.50813109062474 14.430640864743221 C77.08427921115172 42.07859338702107, 55.3029229977023 67.71703051761223, 26.677020924941495 99.71320461783623 M98.16857792489296 25.36802151442744 C86.21133056236542 44.31692035235675, 68.95137775566674 65.1462920732376, 35.936647303758114 101.783984394275 M99.11783508541116 26.97599848382412 C81.40704637436103 49.165372114121276, 60.94884777687143 71.9318235083012, 35.78725796253603 100.29510063802903 M99.00304672769029 37.74091507531987 C84.92999580600444 57.58923383376931, 71.25254127533599 73.63951875180884, 45.91463561200956 100.44077888407521 M99.75721717751166 39.221904822733784 C86.32598500100595 54.23896111177249, 73.65981345468124 70.00322423477954, 47.75728983773461 99.11518508230303 M99.49154207616708 50.75399001160879 C92.10316043637236 62.738412438222724, 79.61162266390552 71.67065089477512, 57.24014702091824 99.68721510308131 M99.58675987382294 50.639858821890456 C87.66988432127616 65.61147326236181, 77.34350619452549 77.3855514012728, 58.220604275846185 99.53374214652439 M101.26793113631169 63.95041877244171 C89.70382936747912 73.83362663595888, 77.15876165902219 89.07109369014889, 68.51559473875587 100.2508696750473 M99.20131637648582 63.38401016337704 C87.8638177446071 77.55181783757517, 76.21591526718062 91.93162774906779, 68.86778399514054 99.41412300758796 M101.1490525225428 77.43593782428049 C96.088900421361 82.459225291438, 90.94584169659682 87.36450049634044, 79.14225207501609 101.66418128186643 M99.85680228238733 76.20092495015598 C94.44379778620475 82.55072632596716, 87.85125388204466 89.52813686415136, 78.16083416925109 100.15215443630625 M98.43898818715381 87.34776857601587 C97.89194418898816 91.06646214575565, 94.38115314981911 96.70335045593777, 89.41904069972986 100.79454813614217 M99.29937260084017 87.30466022599337 C98.19049492014531 89.87176243945717, 96.1672725248164 92.6042980305993, 89.46932504839198 100.6600380199017" style="stroke: none; stroke-width: 1; fill: none;"/></pattern><pattern id="rough-2197124329433695" x="0" y="0" width="1" height="1" viewBox="0 0 100 100" patternUnits="objectBoundingBox"><path d="M7.590530615680498 0.2236992890356564 C4.516353499164365 2.103627629308627, 1.1534676103563044 6.0009564212082225, 0.4629072958801679 7.616689377984781 M6.497998874939238 0.055887897216985505 C4.471316653610538 2.4897365851047937, 2.8011326457933325 4.724022064691523, -0.22729234788975045 8.072154662181912 M19.311322892014548 -1.1452617860356087 C9.822961787342646 8.653614341711375, 6.098073710517374 16.09706949288445, 1.8214837777877273 20.72164614984274 M17.21828164591156 -0.750100729699152 C9.916504600116987 7.658921784118904, 4.348659322260162 16.057822488239072, 0.37018865320787153 20.893274164505666 M29.981734051450168 0.10658213921488713 C20.30266213872362 10.104424796471804, 14.708365081600093 17.572810528575634, 0.23934480047380635 30.844459957006464 M28.938282027095223 -0.34871442871442593 C20.480629571171743 9.059238505767528, 12.37854899775433 17.354186201787815, 0.058314996582016665 31.932251358424846 M39.44796951202502 -0.82221995614682 C28.99719581639043 9.088459816798503, 21.859423428693134 20.86853598372499, -0.3266332557396412 44.34322106222457 M38.31075433391851 0.2884493774258279 C27.676958651769155 12.211069364732477, 16.586488965386145 24.26098250399548, 0.6134971696626219 45.22991940073242 M48.74884073090738 -0.494027146343309 C29.091629759938748 22.717035151452997, 11.486541067381904 44.17935596845267, -1.6730737090270242 57.73819697038975 M48.71964038929679 -0.8580137941149899 C40.25629725135523 10.519675552796471, 30.509807383289083 23.941651224259395, 0.858006224669519 57.21453379358325 M59.96632586820366 -0.29128999882085616 C49.24170589100784 15.554454717509882, 33.6545869847536 29.16956107619927, 0.7476214647124149 67.76506396835568 M60.7638162982524 0.13845078396034527 C46.25986751115245 17.535407695278646, 30.713527451785712 32.04266667794581, 0.8554792546454544 68.92978812255447 M71.55351702588962 -1.6976305212398497 C58.2363145033254 17.241147267593995, 41.32156547385384 34.9009778876362, -0.3898480876231938 82.32123613552902 M71.10598923892658 0.11193969920169788 C49.44301475571685 24.849378522460725, 27.653275614305407 50.932136066871315, -0.6154503141280534 80.48344510356593 M80.69277826588903 -1.534051285469899 C56.42528957628282 27.889347797083694, 34.79516876859481 54.37769825840435, 1.0225481492211106 94.14944199119898 M80.9379276720794 -0.43399664687215234 C62.74677307279288 21.852769336835184, 43.17312532930754 41.58835062414815, -0.11500853377502684 92.48112535576112 M91.23675705780312 -1.7277928223389134 C70.77603030658032 23.642618713902703, 48.9412384979936 51.994843370733705, 3.668226057267156 101.69890253132272 M92.26996460283183 -0.34956722640422866 C73.21771060291492 21.747767812111075, 53.53465245969674 44.2935585529394, 5.219019993146717 100.45141082115285 M100.77649961808302 1.4649981497989195 C73.64456845339488 32.10723869379888, 49.472320570830746 61.050947009344, 16.929635288571333 100.13106237552289 M99.13346396793067 2.2956340259943646 C72.50858671041136 33.763263256696355, 46.79986864198865 63.2873211913553, 16.184947223086187 99.22962898526434 M98.87107956242274 14.399454777608085 C81.97372254410239 35.15762642449391, 62.5310651675576 55.34096511896801, 25.92503651222603 99.88181394489358 M100.36945757757624 15.17610099329727 C74.04232330668455 43.368593649230355, 49.727461541336034 73.4315496520913, 25.626539974891855 100.76387753511399 M98.25829836052849 27.783255055543094 C78.69435524199858 53.05808540527346, 54.039121683756825 80.46981104355744, 34.934637165382824 101.49946223353902 M100.85706501038906 26.751576089953247 C82.76356878017754 48.98963484665105, 63.37879755402985 69.73816436170135, 36.11759789749905 100.32240211525803 M101.24180039563473 40.493275152624896 C81.69047603712778 60.52104479800449, 58.93225746775631 83.83255191008746, 47.74403524235882 101.35738934371528 M99.46482416225375 39.707323046931684 C85.36295755284647 55.44773170417324, 69.72351689942863 74.03909846564312, 47.57350506286281 100.24878854126284 M100.35278087428452 49.87512346293432 C85.42056976862636 64.4626237547362, 75.93368838387138 80.95803677422141, 56.41123078805799 99.73532685430531 M99.56457128107851 50.83962193143584 C84.60375481281228 70.11819666301005, 68.43393457274014 87.07937734833112, 58.1813546134762 99.3426791285556 M98.95726390934193 63.533139220824 C91.55911406268116 70.49845461829526, 84.8003372156783 81.03163999451453, 68.57919119080313 101.31665074661103 M100.36117575158754 64.45155556402405 C87.31697179723136 78.44980701118415, 75.28144031705067 92.81605924800492, 68.4384056170684 100.32372048821277 M101.77668869057732 74.37131760176405 C94.10486582166222 81.43449320661416, 90.5683980494666 90.30238945093436, 80.56251954030574 98.37527220734025 M99.90294917976313 76.66196064311944 C92.16338540458663 84.9222945730721, 83.40366189868784 93.71164882373395, 79.3335910497453 99.60009997978095 M101.19911402628313 86.40360753806885 C98.48557305603535 91.84740227833701, 93.03041578632691 95.68853189750276, 87.94092073504474 99.10583062979144 M100.4043960540747 88.42848991116448 C95.68535168679246 92.35207196638042, 93.4144181257623 95.494308595606, 89.29491301359278 99.30065536693903" style="stroke: none; stroke-width: 1; fill: none;"/></pattern><pattern id="rough-2637541315022875" x="0" y="0" width="1" height="1" viewBox="0 0 100 100" patternUnits="objectBoundingBox"><path d="M7.028945629839522 0.8251029833051569 C6.2636778691627315 1.1411101280478713, 3.254884785147344 4.228415049678924, 0.04374466327157456 7.202071176342469 M6.28239578928579 -0.4638817589306397 C4.821274239961628 1.5590175018399186, 3.856540241427573 3.0097346739347035, 0.2846317248852873 8.131876926699636 M16.438174330799956 1.3297229944591864 C9.145188940851707 7.3173846996872, 5.352127228485314 15.224264701666097, 0.059631672298653626 18.267234347555224 M18.016957391080695 -0.5226629070857522 C12.038473057873617 6.017526253819597, 7.252678367506041 12.32897970836576, 0.9070245128441079 19.599169735701068 M26.722727434612658 -1.7636067402321514 C22.067087860360587 5.353496286651233, 14.345641129578041 12.185344459203783, 0.9542412310167654 30.986111820143396 M28.617330596183145 -0.494698776208053 C22.579549361165334 6.381833337036989, 14.464805638566057 13.773240399388026, -0.014492205999923957 31.651073023071866 M40.53352437362974 1.3454169791906532 C23.1813301388645 15.050159639706028, 11.413392666152314 33.3246586097074, 0.7197068995732048 45.36807375243722 M39.26558385153178 -0.9809076650118183 C27.592768311012765 13.195636427523919, 15.997522984709626 23.974657855434184, 0.5142657637018839 44.03037594597746 M47.365581424321924 0.13100039748178904 C34.417493256069605 17.679484847017026, 18.671068611667963 36.187069545154415, 0.18999212009621314 57.199890539324066 M49.48686105672953 -0.29964397014685984 C33.885961398508464 16.71218632440357, 20.669968518086304 34.812103861866994, 0.6079278604633669 57.29819180121714 M58.85517052098549 0.959618918475976 C37.433758223947564 25.14069471750379, 15.504614900908901 51.40807640257777, 1.2902178807383917 69.59363881402193 M59.433656168042305 -0.005296214088211126 C44.39588916327347 16.83720314378126, 30.453012451582552 31.435330864202218, -0.8437002323105687 67.79900781594601 M70.63002546122729 -0.028875510575254282 C50.188233794611456 23.08805721249668, 32.61243752567671 45.129746621298565, -0.6896928352053058 80.59216615911366 M70.06438012118744 -0.9716223391633632 C52.839542551866245 18.871071158026794, 36.898676904895225 38.584357847108635, 0.4876209474392663 81.35652420933171 M82.74219711230089 1.1685739795222911 C52.86557273676709 34.31363512285165, 22.98141474603199 71.43261520978568, 0.3427037124671717 92.49042818363024 M81.83600901609452 0.18563772016623492 C55.22590641031801 27.87973352313214, 31.649592506018863 56.1465965974843, 0.6625083607940745 92.22322056215312 M93.18634967445826 1.0333233524899343 C64.38891312583769 30.41526170133048, 36.923078244763616 63.27076792912535, 3.441549698121131 99.559787769931 M92.14413177124251 0.18093840830859653 C62.07336290000598 32.148903640291365, 34.791545125504705 64.29557571786874, 4.0741750149176115 99.91432119916203 M99.22522140671734 3.027704963058774 C80.74668222312647 26.330472144288173, 56.532752203540866 50.08895031501475, 14.292147249177187 101.84867228191892 M99.3768874156373 2.509182694662188 C74.40022184452246 31.854581797330646, 48.333317273796176 61.66605002097797, 14.690643600495171 100.29953080409456 M98.86741505136384 16.514158667407756 C81.4927361053285 35.926237433529, 63.847865193491046 53.10706672618847, 26.307370120349066 98.95145552595481 M100.39586077112774 14.571516788498991 C74.74426597355696 44.17272320489682, 50.01250426619866 73.28847398522406, 25.0809874825908 99.39333710629997 M99.89379462491385 25.796923218209812 C85.43969084957276 43.98463143274727, 70.4853175895104 62.69810659550656, 34.91623408205988 101.03109520412038 M100.58416948394398 26.423298706058517 C79.69796758710328 51.002967835613596, 58.15451785134192 75.68485858954355, 37.44446316483991 100.05988709556681 M100.179749943663 39.47368352090587 C89.77034464202337 51.23882626898752, 76.60761361731637 63.73910238613036, 46.70716453851854 101.1174248319936 M99.47277105444952 39.01006768692209 C86.64206218849722 55.41351810993882, 72.66310944281244 70.41658515633743, 46.33805442309659 100.2655524869945 M100.44115106476269 51.01045984841618 C86.48030898492519 70.44561618053784, 68.66598933265391 86.17066636354606, 57.48545995840223 98.92141142082195 M99.17878670623666 50.817667863513805 C87.143962106843 65.00275690238956, 75.14939868603405 78.96942036323784, 58.389399115792536 99.44310767162297 M98.84169655078601 61.929216670121974 C91.77652445304932 72.6026122568777, 85.13563168462939 84.95726741552058, 66.46618306242625 100.83521050249416 M99.65639841383214 63.68360373688701 C88.30547538877404 77.63380083845986, 74.36624900202439 91.80309641557487, 67.72184622265505 99.22383613668839 M98.99201001285773 75.83630888703966 C95.31441489523509 82.5012330794265, 87.0737459537671 90.00785768327484, 77.0287915047769 98.25070468835098 M100.58579940234148 75.05281903876707 C91.31202700023799 84.30397433264483, 83.65990579175683 92.62366123151587, 79.42033024213094 100.49836492332956 M99.65663468047715 87.07482808045907 C95.91617680881664 91.81709171874873, 91.47477901699638 95.18109151654065, 88.1084304038374 101.5518821786112 M99.61279984721038 88.13247929251541 C97.21820991974236 90.43123576926902, 93.98618245295188 94.26875417854855, 89.67585601269276 99.54533434182356" style="stroke: none; stroke-width: 1; fill: none;"/></pattern><pattern id="rough-7696984507778441" x="0" y="0" width="1" height="1" viewBox="0 0 100 100" patternUnits="objectBoundingBox"><path d="M7.745099190992521 0.49904320980831574 C5.675636387518503 2.364452722622758, 4.515394854785059 3.1367908146577896, 0.12297830725437975 8.724874552704968 M6.868026804044626 0.17067129460556862 C4.428473587533258 3.1581099103206824, 2.0734113030183776 5.422754550748993, -0.04483254996766872 7.3303072850895585 M15.947936433261042 1.477463464199384 C11.145416266816472 4.613441711949571, 7.700173378672443 10.447749727859689, 0.5841451565948175 20.412971683036908 M17.62948037212995 -0.5192090343191795 C12.520413706127712 5.521521835102924, 8.362177052989772 11.432638500117761, 0.23408890751046574 19.90928105508904 M29.331535932255285 -0.2210782798470925 C19.66941960655892 11.928153631628136, 9.681190376342043 21.087312426420176, 1.428015965082114 30.98653260847167 M28.177061262374767 -0.673902353260555 C22.54784548366384 7.7929953633323885, 16.48598714295106 14.787010422011463, 0.2150858431929028 32.5710387343062 M37.12023490989914 0.46434236638449633 C27.56900151218703 10.06031552720686, 19.166911102268852 21.869836047253997, -1.3989530244319148 42.56422653776676 M38.37555294873675 0.7799700070034588 C30.257614133191765 10.653463436191462, 20.34552973877779 20.517656798776404, -0.6769024095787692 44.49504353685115 M50.73214504628576 0.6915029269907453 C39.252185912046954 13.267348788978065, 27.020946491629342 23.529050191561517, 0.14272772688916557 55.663440278836674 M50.00295776348412 -0.6945396474169105 C31.51806347842675 18.497031634776384, 15.185637195370262 37.12415376787522, -0.5018693863915686 56.70113243567962 M58.693529993397846 -0.04315463634922789 C42.19649035159856 22.45338190720291, 21.87992767529383 42.65516847810324, 0.5656347848514836 69.12324719743107 M59.38079505302492 0.9450069690700507 C44.46729210983417 17.246197437959694, 30.066199340281297 34.5725396560566, 0.840623183746898 68.37539242326359 M69.4892374567785 -0.8633682116487078 C48.39689899024633 26.593333617472002, 25.320375802799635 53.72836363220992, -0.5522688508022284 82.66290031570834 M69.5174901450662 -0.3488185368416974 C48.57791179931154 25.01516182216409, 26.682171253739853 50.007635760376374, -0.8470029302599063 80.2179285094546 M82.63045873281843 -0.5342776402286518 C51.856365096431006 33.64113243040593, 20.9799715331107 71.11129650128231, -0.6140496613439304 92.81087026045199 M80.0696312201839 0.38926887588583003 C54.78527482485374 30.908998889418726, 29.24950436598091 60.629705084619175, -0.5061358036473154 92.55850386475177 M92.76149685366542 -0.9052109738607852 C66.69113254271753 26.981787789607647, 46.5246898758043 55.48574207294278, 5.943505510434967 99.03824530411819 M91.6233016392594 0.6974042516412475 C72.32523995148341 21.393140530486065, 53.61423470826759 41.924206251586774, 4.3272290748641495 99.45430913971667 M99.1685768786278 3.832781065153698 C82.01786848102061 22.659942164025647, 63.515854144423585 44.863019349408695, 16.108598952486677 100.31365616070234 M99.97429834251788 1.8232356730618275 C76.78953867949089 29.74405130982565, 52.938585745744426 58.10447672948209, 16.137251889559465 100.41465207097055 M98.97352669565284 15.6107095100858 C80.45373676565184 35.77847966654852, 60.6056620122006 61.347821610265086, 26.9454434770589 99.7050941257193 M99.08485910262408 13.927058700483663 C72.17931397862036 47.638853917946825, 45.32471170562421 78.03295640211563, 26.467882612672227 100.48330755838154 M101.49456775351531 26.081459499114835 C82.51463845888642 46.147843482999825, 69.14859458839273 60.924756747054516, 38.17299817223128 99.08540718980792 M99.97338478251987 27.370936273493925 C78.90448334420633 51.76378004062578, 55.61172551907849 78.75309431560461, 37.246788738428364 100.26001536928676 M98.00292826166297 40.8001911938491 C81.26139893204683 59.85091760852667, 65.08913123154778 76.80868568984377, 46.871047276861404 101.04396266553101 M100.07381770758215 38.739908458804194 C86.06900350977513 54.466744260072566, 75.0706023739234 68.35579861345609, 46.24713221091444 100.78583040592686 M98.66336655011503 51.53106991302646 C85.52189109245863 68.62381887326237, 66.58710669741845 87.90866478812119, 57.843678824343726 99.50166688945701 M100.62950587040669 51.93198731980966 C87.10090687550881 65.62281145048868, 76.21615421592993 77.94885027859155, 57.704001587507875 99.84004709861198 M100.44157907410155 62.10347599305702 C88.93766165670483 76.48378240068395, 81.03431090204552 85.56309562475175, 67.23070514739717 98.52581231881902 M100.45752223324335 62.62379462391064 C92.20974211489225 71.88566021474979, 85.72216456517195 80.42268424096966, 67.62198825563806 99.98345211503576 M98.23952345581229 75.41560089063736 C93.25858465754916 82.38744640567582, 87.49613735864627 91.39613231534346, 80.2641733770565 101.86822433581975 M100.51913542871937 75.73642110607952 C92.72474618999463 83.5222692959387, 85.56565082558961 93.91278060785413, 78.6470965031878 100.05587008427317 M101.19479162871362 88.42167907908353 C95.85950388567574 89.72529185237173, 94.00723793173886 94.77833847497828, 87.90235329418316 100.45397003482861 M100.67262322424735 88.03818764350875 C97.02151775328299 89.80697553322754, 95.37898047869677 93.45088425039035, 89.16184599026026 100.71473514354471" style="stroke: none; stroke-width: 1; fill: none;"/></pattern><pattern id="rough-8537876549950267" x="0" y="0" width="1" height="1" viewBox="0 0 100 100" patternUnits="objectBoundingBox"><path d="M6.539602568465672 -0.03528765574227721 C4.806782071606566 2.914189600505166, 3.1284768545444024 5.5417212760157675, 0.08852661340391776 7.421550605095067 M6.929661415599276 -0.2987439558751904 C4.480212196391969 2.790172233448838, 2.099774023192783 6.205702877150173, -0.40528891929790434 7.618547919956475 M17.10979964116327 -0.35742217010226884 C9.718610390544846 7.3830319855063635, 4.728429048853063 15.371668431083739, -1.4202292114562143 18.613695433812055 M16.760922283750247 0.4435850355491042 C12.76665485124326 4.1286014237224515, 10.221873475399839 8.666414303679568, -0.7217525646901692 20.412352581212023 M27.474558205666074 0.17011708585685437 C23.38537617844216 8.57630540000503, 15.46791061551125 13.59477326880175, -1.3484852089630932 33.65521949920529 M28.37370061854378 -0.1041791458517416 C19.97421364166992 9.37521661571896, 10.483628845605562 19.64446479943499, 0.6817441560001782 32.62346865897135 M36.77405467453714 -1.9565785328489964 C22.85554410651255 16.761370876125923, 8.999283210067592 34.24019547275654, -1.7753511191070972 43.26546712787144 M39.187005664076395 0.9529060586149134 C29.346505317401 11.85542099377796, 19.22716271417572 21.683970933895342, 0.96625621850652 44.36797497069864 M49.025153279532134 1.6181113017535838 C31.447060555605514 18.951960291676567, 15.006589619885093 37.25460460409052, -0.30054768768869966 55.583740261801296 M49.16542559171148 0.6556744214390888 C39.19023493619836 10.943313946990532, 28.429261324248646 22.554722019618325, -0.43368754996335923 56.35321589482407 M60.48585234269232 -0.09337244653494192 C41.42119969914239 22.833768770902825, 23.564784977510797 43.89527409759998, 0.46510501747652455 68.11800469991722 M60.49212226674712 0.01074318212527503 C39.19105602321821 21.551840396628794, 19.89589202722085 44.47243286929652, -0.5460701773333363 69.44755568994665 M68.78681747062822 -1.3719290217502103 C54.12961349736986 19.17630603283496, 37.28440794170392 34.08461284111707, 1.166271018964574 79.5607419004955 M69.82438764185913 -0.0013626690091879112 C45.297962042222316 29.568790339712372, 19.218139989372517 57.87528186734381, -0.2718881332608114 80.17599301758248 M81.26910086788814 1.3892582575558698 C57.91438703789522 26.468420388341517, 30.98705785598461 56.968763977022306, -0.3812834236187408 91.42496932129272 M80.25613348105685 0.9168405253896812 C49.14343257202484 36.75359745661463, 18.054009252494563 73.33815728010154, -0.48115676464405643 93.05774032663994 M90.13309181772827 -1.7495878335823702 C68.36043351641635 31.62822182284126, 42.80406907617041 60.82381179044786, 4.993522660805785 99.4188854778944 M91.35941463984244 -0.8223358091653212 C73.76893151328612 21.306080867747983, 54.2068554492595 44.43930963604377, 4.789492823515271 99.90258460859191 M98.99378808568828 4.249178933587186 C80.97702591266362 21.8886784269453, 63.874974271080966 42.18195029517624, 14.54421214709166 100.94271517074365 M100.83078131426005 2.7222473994732623 C67.8596938279523 41.212159424833416, 33.85277660512386 79.49833003214323, 15.129774740202967 99.97222905329971 M99.97258347942899 16.374511262937425 C78.28616053127035 40.07464054099653, 58.19751254729458 63.53700098108891, 24.48038931474444 98.01660395772096 M100.24361548227338 14.719090065581263 C69.93876731154512 47.579414537291186, 41.157770828071726 81.08197220171901, 26.79012349727023 100.45919172744779 M98.07019842040688 27.764302699849466 C85.0336547621795 46.20884191792031, 66.11436850864557 63.71893366176213, 37.80051657613326 101.46594122278101 M100.65337789972321 26.05147876777348 C83.80057856196163 43.79201339952959, 68.85312225558204 63.56744192936081, 36.472925526154775 99.648643790444 M101.65259146207354 40.8259128569109 C79.82437665394266 61.49004003094855, 59.741086828300084 82.2157607014903, 47.675393953562335 101.01712151766291 M100.2633768507878 38.312894821630245 C81.6654178531988 60.784992736017024, 62.314430886406754 81.94402713637756, 47.04774355830233 99.61935366282185 M100.81135856073713 50.36839027160149 C84.35727220605848 69.4268319849311, 68.43795566717155 87.58626380393609, 58.981108731033274 98.97607865123133 M99.53582419869 50.87628320593024 C91.96870665583542 61.109166369163866, 81.67351219828043 72.27496600921619, 57.43307828248747 100.31672235510156 M100.01943702010865 62.253633315491626 C88.78587093600194 75.68816421386238, 75.83441798278608 89.23645487417761, 68.24807576688067 98.14922708857601 M99.84885594298582 62.93141002934562 C89.02118251885597 78.00738865416463, 76.91450400996943 91.13604328993958, 67.44965901753605 99.02234417748191 M100.87035299742988 77.56330788571472 C96.74056801452079 81.00499697028549, 87.80577994779972 89.039381486201, 78.80382306533728 100.7259087573857 M100.15156280787276 75.9738877065252 C92.47896889656845 83.95985786829871, 85.13490223847235 93.78007181657934, 79.58720380731388 100.12987999333812 M98.54866669382693 89.32085010965406 C96.67050536962164 90.6404676997621, 96.03174852111201 94.73657416224546, 88.61794409405086 98.50132795785827 M99.64598813671643 88.00023617924641 C96.48973016987964 91.24104509688021, 94.17786335611616 95.38750819900835, 90.13885891757799 99.72122836393228" style="stroke: #000000; stroke-width: 1; fill: none;"/></pattern><pattern id="rough-4745408118463379" x="0" y="0" width="1" height="1" viewBox="0 0 100 100" patternUnits="objectBoundingBox"><path d="M6.779722167325436 -0.5083887941423096 C5.251885951239077 2.0516477723012074, 2.4557900804614783 4.404622987796526, 1.021010619475054 6.968689610184201 M7.285989683220343 0.24454620735480814 C4.3220142879942225 2.450048033373545, 2.2963940574987545 5.747813623350584, -0.2518521658171749 7.314501415907973 M16.7324542040537 -0.7800902203822311 C12.154364363669355 6.0398571257691875, 6.240512403127603 14.22085196679679, 1.0679170807152554 21.88746699332431 M17.81642567557324 -0.7309165319993531 C14.44808067484194 3.6206260818091973, 10.284395488982014 8.833798851175699, 0.1266176922345421 20.032110618895693 M28.55178760088061 1.3136642096916367 C19.96997560174191 11.837687132121358, 11.850734269458913 21.346328055275222, -0.8029504699373691 33.19114381424611 M27.352633351117486 0.42436779741951547 C22.072799153741137 8.07033266792213, 14.683440830258606 16.137049715581913, 0.0022983959525029185 31.834794121226587 M38.4599642090991 -0.48463543087807537 C26.47932973321144 12.790801533838458, 16.35538325671372 28.30625165970274, 1.292168731614737 43.19476592544329 M37.74151981994913 0.40130115706171 C29.746694752251393 11.691145160518237, 18.75480119761945 21.34967229358192, -0.2640907016773113 44.59145546673716 M47.53934491867856 -1.102079222618447 C37.31603009730101 14.051059416172084, 23.206109848080256 32.74489590033009, -0.33076602941498034 55.09421044707286 M48.54916925204178 -0.5077539782304394 C38.27549311433892 12.28698619486978, 27.55191910345361 25.480190819203937, 0.6402567664074912 56.658902173936276 M59.243046722582704 1.6867575426226722 C38.28664578013699 21.797277279924153, 19.290711661678824 45.44334100799586, -0.3638383047556122 67.41248849393995 M60.582201949132966 0.94816568301029 C38.14519502141404 23.62147651471946, 18.765785776911166 47.74232283896853, -0.11989720914813207 67.99227480931981 M71.82129630830615 0.7606739542613319 C51.52031925622439 22.832989709718404, 31.838435945345914 43.68924096609628, 0.20976974916524593 82.39938572251467 M70.83681356508055 0.6160094497373936 C47.535236492555825 27.3237895728914, 22.428706760797997 54.62431844514306, 0.3788715462692198 80.56160311697693 M80.79027110703322 -0.03672150638258298 C63.03010599678721 18.537361291080238, 48.97877961558265 39.31398345201221, 0.8375463309747015 91.66057959513446 M81.13895572506549 0.7009134893391327 C57.85225842187473 26.74028164413817, 35.740734337003104 53.72514071428414, -0.1705574357211348 92.21359510095206 M90.0470650093845 0.36117129257249747 C70.92328867091274 20.703321184866105, 54.56653729257753 45.58828575561164, 4.568871501652575 98.00309739269971 M92.02883309271463 0.5299645294836073 C64.09869763462973 31.924389940582145, 36.06947658439217 64.52422797818727, 5.659872212156436 100.32652033298633 M99.34507549623783 3.457649636740074 C73.0593209000469 31.773403746956077, 46.27336340846065 66.1511376224522, 13.739366599209923 101.67720016093799 M99.82531322511576 2.9271585417631107 C82.37566962743617 23.350271679581002, 63.01164249761963 45.770183508073906, 15.3566400757081 100.73282415166676 M99.64720926630727 16.225960668658917 C74.22058766616097 44.12958017918071, 51.01493222499267 72.79811462569573, 27.03982779263487 98.12441667898636 M100.39902761059152 15.221709187202109 C70.59197746883581 47.607880635678754, 40.91230823246505 82.14437028390562, 24.981603663435358 99.90685345995372 M98.18709781512034 25.176430571827602 C87.47317768378936 43.038310102525664, 69.88246653916454 60.52931349797401, 36.59031309039316 99.1229689285879 M99.12776640034137 26.47765482902508 C87.02889856192854 41.656508036974365, 74.1562105035566 57.31678753087152, 37.042825225872164 100.99817203712192 M100.10775093161823 38.23028506764692 C84.85748743775824 53.56817402289138, 70.65328216884397 71.38549155093082, 46.043197156491956 100.28926411593149 M99.62543071807079 39.55153742340702 C84.19672804116799 56.993986966275536, 67.86554583937699 74.83890471121867, 46.123032449328115 100.65384121409261 M101.79354817410716 49.805099591322815 C87.67556715326361 68.15720596197598, 71.61741674977984 82.83347434319916, 56.36429903666278 100.03301898934643 M99.3413933129541 51.8846289919723 C90.98654276357745 61.944261633620044, 79.85268827959563 73.54764613661882, 58.37309413208762 100.85832049117005 M101.24683688663156 65.34757872793536 C86.31726720695009 76.61440647891523, 77.5514230396913 93.52242861102437, 66.83509995288006 101.40012714886086 M99.2565503043262 64.06971530619904 C90.96524359917547 73.74523143455367, 81.93690706761588 85.89502963909457, 69.12115061321641 99.52248447626238 M99.20451214025186 74.78223773239523 C97.0120782835156 80.71301481138555, 91.16587229240507 89.3120144143699, 79.04489962822332 101.10630450339656 M100.7272096276683 74.79723372020666 C91.61349709613597 86.04239906598502, 84.8784267855099 95.09997847507621, 79.49928347726058 99.05756464244763 M100.78886191425134 88.26966219894776 C96.3842039061046 93.11937829044486, 93.16652386173749 98.25654206335024, 90.257565138708 101.17909041764575 M99.82209157007279 87.80547059221225 C97.2545417424806 91.1104862711536, 95.6351442714023 92.41377636616875, 89.53367382582103 100.29951574719006" style="stroke: none; stroke-width: 1; fill: none;"/></pattern><pattern id="rough-7134379056079385" x="0" y="0" width="1" height="1" viewBox="0 0 100 100" patternUnits="objectBoundingBox"><path d="M5.998113803991369 0.31837014504017724 C3.102529778296986 3.6331742797550977, 2.0853197630969045 6.274090015985111, 0.1975920702788334 7.137013481531061 M7.045684866529563 -0.3902118340181665 C4.043185894587581 2.593686968579531, 1.9977128291308932 5.197743160897206, 0.06861673563140946 7.663172321943252 M18.608878099241622 -1.177924172516848 C13.260517888055821 6.471426298557207, 5.930840447568556 10.895540003705513, -0.19153378133311527 19.967030368669498 M17.25794657245799 0.799619262610435 C11.476083281639283 7.342563018226922, 5.706255034852651 12.556858544738231, -0.008395916354627886 20.384691688245635 M27.520423808275943 0.01944111977374341 C20.992628715046706 7.396107067348546, 13.65046210432984 16.387234117376746, -0.7755739561594641 34.07591961871823 M28.293936918441176 -0.10383959209458293 C19.59378235920387 11.50082128835163, 9.24173810126883 20.268079680813756, 0.027828756407347832 31.687505062156934 M39.908964657241626 -0.7848978831862361 C29.181575846378237 12.981415002931326, 16.18876453219507 22.720780222283324, 1.2461465889771564 45.81272882769154 M38.01065652712803 0.3493433447259289 C28.26175571533029 10.812641778519135, 19.802240526893883 21.743054234055986, -0.5238776040382072 44.90457254738173 M47.6073735828231 1.1333590067438655 C32.778522564889045 17.81790510744571, 18.929751966889135 36.28843711738929, 1.2739841658443414 57.95273560942446 M48.51735952443135 0.25613859270097716 C40.65911079719761 12.163789823220025, 29.745997200578998 22.137758497854286, 0.4000597148371221 55.79340971392018 M60.69214588637795 -1.8573726065041791 C38.331615868033765 24.36307520940518, 13.992030799837154 51.82350274502757, 0.5459017584061048 68.44727444427491 M59.25348201512357 0.24716330462916059 C45.743404225649854 17.200217943320105, 28.997162873478807 34.92179368281906, 0.7617631609081013 69.00971448546308 M70.07224607510965 0.2316673912655931 C45.746242810258714 27.59300242025162, 25.42084915580361 51.760022963714846, 0.945582183355298 82.58962200581811 M70.13984611977389 -0.19665174235754268 C56.168772284200294 16.68851119355638, 42.70339451779187 33.52449363659759, 0.7684668062341689 81.91188693574303 M79.54583256893392 0.07868214886335512 C57.36115181066554 23.892272383111116, 37.84937779983043 47.671594962189985, -0.5244661290090393 92.59900421621919 M81.53835981069376 -0.6191249606094087 C63.045046352392205 20.3863608938209, 44.38953948963925 42.43615844042028, 0.5378980710076764 92.28063798835242 M92.53352161312728 -1.292650526959438 C70.0661666931033 27.48809101253245, 44.48712903047043 52.06162866537628, 5.130326959855147 98.1152227449177 M90.66357869012461 0.08744743482639272 C69.0198598795862 25.28754050996081, 48.652593726524934 49.222571929645234, 5.369578029814313 99.02423037982065 M98.7103779742867 1.130546043974416 C73.69523937558407 32.1973475469739, 48.2494454287721 57.974517919058215, 17.22857423373965 100.26161940298162 M100.03744763973275 2.964016309210286 C76.48381529752707 29.48384428876087, 53.360125192944864 55.84224727352459, 15.506963042169781 99.07643857472289 M99.98819370355038 14.48670450277719 C81.61167438208146 35.817624177030076, 67.284607376967 53.10447420511982, 26.67582687680449 100.78991487445539 M99.80374743662506 14.499138476747468 C84.53230403572861 32.89080157871233, 68.35007954584822 51.05191086135605, 25.748748399486093 100.13095094971884 M98.43882869156936 27.11826935950282 C81.50227427980857 48.90352231480287, 60.648509198188485 71.74206425519674, 35.632438977074315 98.1123910291052 M100.09358531254861 27.570019415691913 C85.03779017966309 42.80281538805251, 71.42157037753917 61.06518910592358, 37.42947733173692 100.23830303237717 M101.83006689622871 39.341260447667246 C83.90605865520284 58.33220329185781, 66.90819267038873 76.29231772543602, 48.51730586438095 98.65615227864977 M99.6802456250654 38.154006310758994 C84.14559508034446 57.21018111029984, 67.24337145134854 77.36821058243802, 47.95193209183931 100.36968559197174 M99.3461480155719 50.44626582782796 C83.77806254347726 69.50864267804523, 68.85561845958783 85.85076764675692, 56.05822196783078 101.38579084145769 M100.34814896073192 51.63308160387825 C89.51073737533336 63.091290934921865, 79.55546736335997 74.32889996002164, 57.34610115826535 100.82158819403779 M98.08502620109918 62.31238002966931 C90.33783277956482 73.69900187448401, 81.45464138920106 81.4938797295846, 67.61243768483139 101.50675757953772 M100.30706573593545 62.601114586936944 C88.15387791752111 78.45086312998578, 74.69134692028722 92.19407484687926, 68.80905057458479 99.79227425383436 M101.47789703367991 74.95524062746163 C94.80455440075762 82.13432505227398, 90.73656486772407 87.05212134111024, 78.18001913021976 99.28852345475067 M99.74661298208835 76.17455978986423 C94.4593652463175 80.02944335064157, 91.08101356893769 85.09605295784365, 78.66496345726807 99.88532833036668 M98.68630433708513 88.90947803512503 C97.20938173746912 92.25613023375544, 95.1947359979559 94.09431863465026, 89.29640702803748 101.371153894781 M99.40851356580008 88.19400760748545 C97.94425796879327 90.67123151860264, 93.63221303170403 95.13259272130894, 89.90291870821076 100.2166021051275" style="stroke: #000000; stroke-width: 1; fill: none;"/></pattern><pattern id="rough-298244227800095" x="0" y="0" width="1" height="1" viewBox="0 0 100 100" patternUnits="objectBoundingBox"><path d="M7.321842919033933 -0.19477330278735472 C4.274226121566573 2.0644794725708655, 2.0475808985551858 4.15922572559221, 0.2075031362875659 7.183540048837623 M7.15227796224966 -0.44933660980396384 C4.99804360940488 2.313775308118665, 3.300865438219784 3.549719740929825, 0.12170165654905674 7.756950311740949 M17.115278898344037 -0.053065570363527215 C11.567129472927334 7.006080394889017, 8.868863174875955 9.527842521982858, 0.49481939325740854 21.645332081157093 M17.4649228185401 -0.9681499655112162 C12.56813612523086 6.772800027574213, 6.4738161408565755 12.458234748092174, -0.11445939660007376 20.025207744853923 M26.189002576393392 0.3287647536027354 C21.219023141083014 7.542204798433788, 15.84548047114366 13.53424806887585, -0.007021358247818021 31.090605524756068 M27.846569715923412 0.13959339230910617 C22.092191791639387 8.290181619760286, 15.175205315230734 15.313099274534588, -0.02979112618326285 32.34037304825591 M37.201864545067934 0.9102514690055044 C24.451266564380987 14.585423847942181, 9.907572484022852 32.90070926376185, -1.2923032207460423 45.554808911864434 M38.89667674056945 0.1975598502742817 C27.928881093808464 13.465271444385468, 16.207841580127432 26.99335746075228, 0.08322080714714586 44.216455140792256 M48.91400035242161 0.9482225538372333 C36.14746311835951 13.25969064096538, 27.685677529804806 27.38268275538897, -0.21710126410398622 54.67677367118147 M49.29404804353648 0.5959131023715183 C37.57219045715643 12.26435851091599, 26.86613431038262 24.08930923284439, -0.7881402503776629 57.51187352366213 M57.92027931266365 -1.386575894973598 C38.43464418960937 25.282349542583983, 17.26272941264913 46.043903514685354, -1.6705394743661701 67.12849631333933 M60.381108491593174 -0.5841811504310863 C45.84541461398843 16.741739339945568, 31.128657862038736 32.58541899141914, -0.16900256829270344 69.65608947041014 M71.4563130568984 0.26287367308527987 C51.799365365352045 22.625472361827512, 33.4158486856562 43.85738822759905, -1.0942709197371432 79.70638437401972 M70.44965050149291 -0.7386237444150026 C50.9230697762809 24.26608596304854, 31.410932406783143 45.44545547274964, 0.9665036769068949 80.93099175048894 M82.88365083736632 0.6225926267676511 C54.419526159579945 33.42201385008568, 25.378766436942495 65.59852549275502, -1.8649835683067044 92.12646671352299 M80.61453588221323 0.7438267119651201 C61.09237568437603 22.62261100937142, 39.95909798889497 46.3837171924945, -0.8677337885670298 92.5068230877388 M92.93492519376917 1.483689716966368 C72.84738511398103 22.50264565290244, 54.83731212250471 41.725157441017394, 4.35723320565203 98.59930908063775 M90.630215119924 -0.8772922447231948 C56.35298656415043 38.28652919061612, 23.11952118510779 77.5222576692335, 5.533597401447136 99.93873642735645 M101.15103737573355 2.794997417972416 C67.16056736546506 36.94183158340197, 35.76586802045751 73.65608464025625, 14.064106450422173 98.38336561965151 M100.46965524445359 1.534803425071309 C74.9996807699161 30.5075367996637, 50.538260335216584 58.362793136647966, 15.609659442640229 99.73651862672321 M100.45301940093393 16.31818920808729 C72.3812142363456 46.82836172197281, 45.826634513837696 78.87101710360542, 25.66471827184972 101.4600255821612 M100.38230800972751 14.300897942599612 C81.05923095967353 36.45596120870695, 62.204376734275904 58.631716471878306, 25.04690736213842 99.14662088856866 M99.03726684019047 27.590714882496005 C82.00721741109126 49.35866120267164, 61.631055531516886 70.19478356870385, 38.10111176485787 101.13241438812693 M100.1742340818991 26.00964946591749 C81.94717811622988 47.72514816830161, 63.54200148700775 68.43341124114416, 36.68202978612708 99.62491288406954 M100.10254760952826 40.47566586063354 C83.22256931556933 55.96982397928418, 69.48757779937881 74.89257518228095, 47.701266185869194 98.59139737831369 M99.78577820844895 39.538846718980594 C82.65113730734086 59.03962591908677, 66.95715841777752 78.04465465404917, 47.479274370897365 100.34690644047662 M98.07193321166828 49.75494825056674 C89.46041852314995 60.741195353613136, 81.77994117203525 70.29125484400191, 56.5299218253709 99.66964207170292 M99.94461173683833 51.01922297609804 C88.37963631575514 64.67293171687933, 79.28943708971973 77.59415189084709, 57.729804625527265 100.01112771171857 M101.79344658153418 63.775066007416406 C93.15557007751005 73.15442972811869, 82.5990965877296 79.49144555204315, 66.73102835273352 99.84235304644528 M100.21405684457606 62.89582166511752 C89.74240995708399 74.17466177374837, 82.2039846446307 84.59989445605703, 69.18707751272053 100.10765982945854 M98.28029171543936 73.85772490120355 C94.92335623196274 80.03690555104536, 90.68826687687643 85.41479365324105, 77.8948566337111 101.70954137983345 M99.00595393416097 75.92189076419774 C93.48681379929897 83.57458157775676, 86.0659051236724 90.8226377946997, 78.3373809185751 99.92580085529303 M98.40836485673341 88.65834533852217 C97.5749909739952 91.554928888114, 93.12371211940696 96.27597516274058, 90.69905906545519 100.15800945547005 M100.06182384655578 87.58596728275278 C97.75184506786741 91.26644929738939, 93.99173374585345 94.2741075724206, 89.64199961166977 100.59513323019455" style="stroke: none; stroke-width: 1; fill: none;"/></pattern><pattern id="rough-3190130260227491" x="0" y="0" width="1" height="1" viewBox="0 0 100 100" patternUnits="objectBoundingBox"><path d="M5.835766410369585 -0.5750686417674001 C5.174056221314697 2.485571805288569, 3.231449009770404 4.3434356053422745, -0.7770951525197847 8.40317669651422 M6.719735099213111 0.045676640126433465 C4.345578074681457 2.058165367456767, 2.3198595486773055 5.134920294120995, -0.18324298068800687 7.714709460602689 M15.477704987327566 1.391209795369087 C9.809486567553833 6.83013468108287, 3.0271573568395604 14.44740783318424, 1.9758098541650577 21.74767587862825 M17.11511641592635 -0.4538590340629751 C11.001400305058949 6.112618963945252, 6.415155068065324 12.754327796875618, 0.5058092615459091 20.611539039046825 M29.201605423075932 0.6414659748787539 C19.184354651557957 9.894854944196588, 9.10997286829943 24.79274127994711, -1.627037218284368 33.459504587909436 M28.960478181210107 0.7860073224961495 C18.015113765033423 12.207859812034364, 7.5427038596591345 22.821024031931124, -0.06594628808570002 31.62536924914709 M40.27714406635412 -1.740472521120438 C28.9108642715629 10.753487731953388, 21.299103190191193 20.647728643662138, 0.4212300508006228 46.30500034370542 M39.36938380919147 0.18758342439587272 C28.212040433127306 10.046662828429685, 19.38996109804512 21.066423982907963, 0.1671559788833381 44.53850306899423 M47.59129693203447 1.168333227116121 C35.34937837018249 14.945664183579048, 24.56440704755713 30.845229524504692, -1.6514552953728456 57.75209053726902 M49.80099685405194 0.6069907634678504 C30.04553524226204 22.159741310037518, 11.314450735695583 44.388603672210884, -0.16637197484124266 56.90013606216285 M58.75703853828489 -0.2930612100673846 C38.54284967730127 26.46862845842688, 19.30702430318976 46.95540484161131, 1.5171181119474175 66.90231201229652 M59.40900311699593 0.49682596164014203 C39.94211841819706 22.472832972046906, 21.612889734421415 47.09338246139253, 0.3612959783802907 68.6220300984572 M70.40753834220808 -0.7930723432423612 C44.39130681533362 28.745913209366883, 19.17310460626098 61.91642047031047, 0.387072855328948 80.50309247983745 M70.39799137489172 0.821314299572816 C48.16875379107459 26.300833829521665, 24.703394567003055 52.482598243746516, -0.48882392702278565 80.82876933325076 M79.2393659618053 -0.5607311464408982 C55.4231687591425 30.078190777414413, 27.986543675976826 60.71963889354674, -1.1180137049638859 91.73821506943932 M80.49170389256102 0.05125745050302255 C58.77130048191857 22.36296137726298, 38.74436192907625 47.1759002602441, 0.8918981226522038 92.69546603641922 M93.14091544689038 1.8678910632216637 C62.226343704202336 35.48759273063349, 33.33993529860101 67.024646268778, 5.518482210354935 101.11237510036747 M91.65065202171724 -0.9250399012222665 C72.04347746277404 23.411816774549816, 52.44229325816152 45.67552593983607, 3.7293361527680218 100.4805972766731 M100.04205191046726 3.7978868046799246 C67.4300232306366 39.36756355188971, 33.972297503034966 81.01381673830772, 17.170606144348614 99.66831996479901 M99.19572993516307 3.3337276516316257 C75.6168810214103 29.5279894785015, 53.01089224315032 58.38741518950109, 15.015077863025496 100.93928454023474 M100.16311336648836 16.70127677891392 C85.27996365796068 33.58758601035192, 68.26102975938198 49.12596489486607, 26.071548663146572 98.49319491763409 M99.91838998702498 14.726728441851314 C70.7306525334434 47.12013772808172, 43.785287221790945 80.44305429256134, 25.1873970978562 100.40918739926276 M100.00024519521298 27.12718650970241 C84.41826774210715 45.67799265619041, 67.7878534295194 62.46695644750956, 35.81948783298437 100.74308998510274 M99.79506067457325 26.901056767907914 C85.66367538456797 42.273094029805364, 74.10381666712266 56.714723713525274, 37.12799211040344 100.69821574143829 M101.96114892918551 38.73201132877297 C80.1990075270583 63.62380465059547, 59.43516342903781 86.2850378319779, 46.39663930087903 98.67528770345723 M100.2121019804469 39.97188557294711 C87.84623221369631 54.30396264272173, 76.39652952376083 67.15527715949997, 47.21962794171035 99.39241224811879 M101.78622528869057 49.40355730107486 C90.58105296783805 62.12180169533342, 80.43826139840539 75.46409514112754, 55.93779154508316 99.03334712871782 M100.30744366463355 51.81756947041825 C86.50856382249474 66.25283574101957, 71.74915580836215 83.79044583209819, 57.256425019003885 100.05371361151721 M98.47895105309287 62.56242394867942 C90.31995167004645 72.09161848517549, 84.57043518462838 83.21006413823496, 68.60868160464558 98.3105188748228 M99.70769637820564 62.72079273285631 C88.95560681027139 76.46186856921501, 77.65301600454708 89.21556407473835, 68.86604418401375 100.48873697915296 M101.89534377264572 74.89168725739542 C95.72624018092614 79.38812813795742, 92.1732758474626 85.43419126928289, 80.62386266631296 98.50601133421543 M100.23365181334711 75.35847465169623 C91.81041393226909 84.75380689758602, 85.13357897582702 94.02686471128686, 79.13070072850383 99.14747293693152 M99.02563893799423 86.39574713224997 C97.70597084558958 92.77148847684722, 92.24273872385726 97.58538620108969, 90.49268726363279 99.08034857920936 M99.47289974106893 87.67076035092035 C98.37657247695287 90.1456317661494, 94.74026102725503 93.20756665373469, 89.38886828620844 99.99988817020528" style="stroke: #000000; stroke-width: 1; fill: none;"/></pattern></defs><defs/><g stroke-miterlimit="10" stroke-dasharray="3 3" pointer-events="none"><path d="M 124 262 L 124 44" style="stroke: none; stroke-width: 0; fill: url(#rough-509297608579705);"/><path d="M122.2738967990732 263.9947957904219 M124.13243895100311 263.8359136579792 C120.49292845877486 195.71442152464073, 122.92692022120502 124.43858407903507, 124.6442869235154 42.298793542050035 M121.29522306065626 263.2622098216466 C124.70822881675839 179.4001520174444, 124.84993140325577 95.18002305860193, 123.98503910774257 44.85199783096139" style="stroke: #000000; stroke-width: 2; fill: none;"/></g><g transform="translate(58.5,235.5)"><text xmlns="http://www.w3.org/2000/svg" x="15" y="-3" style="font-size: 12px;font-family: Helvetica;" fill="rgb(0, 0, 0)"><tspan xmlns="http://www.w3.org/2000/svg" x="15" dx="0" dy="14" text-anchor="middle">adder</tspan></text></g><g stroke-miterlimit="10" pointer-events="none"><path d="M 94 242 L 167.63 242" style="stroke: none; stroke-width: 0; fill: url(#rough-6767691394114025);"/><path d="M93.32225753797337 242.93033400368716 M93.16032311342072 241.10435199633284 C122.88114561611212 241.2919596259641, 151.71893455456717 243.09091611559722, 167.62515263707797 242.2103172332793 M93.83795257345554 243.11238829278253 C113.92008001942865 242.27712305869164, 134.28697461189282 243.61389195557948, 166.69199705001796 242.04617758331864" style="stroke: #000000; stroke-width: 2; fill: none;"/></g><g stroke-miterlimit="10" pointer-events="none"><path d="M 172.88 242 L 165.88 245.5 L 167.63 242 L 165.88 238.5 Z" style="stroke: none; stroke-width: 0; fill: url(#rough-7672709288950269);"/><path d="M172.87028394105974 241.13056373598204 M173.52036149559004 240.58418336561846 C170.62159706290458 243.3390773374456, 168.5376476429974 244.88993926515195, 165.7548958191787 245.06433744197787 M172.97912955543867 240.9404813353058 C170.969060041374 242.31712908760156, 169.66169755673292 243.03469188836036, 165.51203505771093 245.4452837974075 M166.07924058617158 245.61805610363587 C166.65107761086068 244.000202461096, 167.2043816038055 243.4616488168596, 167.68704349424505 241.9793052509072 M165.87297049202573 245.3732333886382 C166.25561520897088 244.59804221206355, 166.74656628748815 243.35405850844788, 167.53551272808843 241.91357693130507 M167.36755678566166 242.34394787080615 C167.47393113816167 241.44503796226712, 166.33412765700405 239.90026824551538, 165.77661141094694 238.7940106797515 M167.78115177535028 241.82196974290815 C167.08416561359408 241.04032759603305, 166.87431006201425 239.92561208704615, 165.7669900502208 238.45560048704732 M166.42535493765993 237.77449069336814 C167.32342390351536 239.81267497073, 170.5276900126204 240.23008987399044, 172.97578701678975 241.67449537494733 M165.8694047023319 238.1656874765036 C168.58976450390452 239.13632757951953, 170.7997847661282 240.19413835408065, 172.76558179905146 241.38454633471642" style="stroke: #000000; stroke-width: 2; fill: none;"/></g><g transform="translate(47.5,7.5)"><text xmlns="http://www.w3.org/2000/svg" x="26" y="-3" style="font-size: 12px;font-family: Helvetica;" fill="rgb(0, 0, 0)"><tspan xmlns="http://www.w3.org/2000/svg" x="26" dx="0" dy="14" text-anchor="middle">Variables</tspan></text></g><g transform="translate(174.5,7.5)"><text xmlns="http://www.w3.org/2000/svg" x="19" y="-3" style="font-size: 12px;font-family: Helvetica;" fill="rgb(0, 0, 0)"><tspan xmlns="http://www.w3.org/2000/svg" x="19" dx="0" dy="14" text-anchor="middle">Values</tspan></text></g><g transform="translate(56.5,195.5)"><text xmlns="http://www.w3.org/2000/svg" x="17" y="-3" style="font-size: 12px;font-family: Helvetica;" fill="rgb(0, 0, 0)"><tspan xmlns="http://www.w3.org/2000/svg" x="17" dx="0" dy="14" text-anchor="middle">add_1</tspan></text></g><g stroke-miterlimit="10" pointer-events="none"><path d="M 94 202 L 171 202" style="stroke: none; stroke-width: 0; fill: url(#rough-5406832308241955);"/><path d="M92.1856320424877 200.06055552075588 M91.4090040703847 199.6925873587377 C120.59436627518801 201.33203580652884, 147.99304245332146 202.52837020607046, 172.67669692461448 202.6047875892412 M91.67659024196844 200.43728252912297 C108.40755159329453 199.9672165437138, 124.3197031726684 199.41404173730115, 170.05600972932797 202.26609569169992" style="stroke: #000000; stroke-width: 2; fill: none;"/></g><g pointer-events="none"><path d="" style="stroke: #000000; stroke-width: 1; fill: none;"/><path d="M175.3768164826834 199.09961209123094 C176.16878700471267 199.02145955312858, 176.87082655408997 199.4115281983808, 177.2212164692113 199.85609647910513 C177.57160638433263 200.30066475982946, 177.4762807488978 200.99416884163026, 177.4791559734113 201.76702177557692 C177.4820311979248 202.5398747095236, 177.57127629739392 204.03447381504594, 177.23846781629229 204.49321408278513 C176.90565933519065 204.95195435052432, 176.22643522461334 204.54275120279794, 175.48230508680155 204.51946338201213 C174.73817494898975 204.49617556122632, 173.37833752214792 204.5749520887778, 172.77368698942146 204.35348715807035 C172.169036456695 204.1320222273629, 171.9891866777177 203.7615391534287, 171.85440189044277 203.1906737977675 C171.71961710316785 202.61980844210626, 171.97008129180438 201.56048503365315, 171.9649782657719 200.928295024103 C171.9598752397394 200.29610501455284, 171.22744059044572 199.71043178722857, 171.8237837342478 199.3975337404666 C172.42012687804987 199.08463569370463, 174.93995608568247 199.05444216343815, 175.5430371285844 199.0509067435312 C176.1461181714863 199.04737132362422, 175.6832671358515 199.23463173821565, 175.4422699916593 199.37632122102474 M173.64302524225153 198.94145071230815 C173.87570539886354 199.07061066880073, 174.6030405230306 200.65499560725968, 175.17431500040053 200.98662520075982 C175.74558947777047 201.31825479425996, 177.07531522829805 200.64763407630454, 177.0706721064711 200.93122827330893 C177.06602898464416 201.21482247031332, 175.6334414381921 202.0985151942602, 175.14645626943886 202.68819038278625 C174.6594711006856 203.2778655713123, 174.3498241520062 204.20499113322396, 174.14876109395155 204.46927940446528 C173.9476980358969 204.7335676757066, 174.22172893776073 204.4370330569961, 173.94007792111108 204.2739200102342 C173.65842690446144 204.1108069634723, 173.0564521550191 203.86327983861176, 172.4588549940536 203.4906011238939 C171.86125783308813 203.11792240917603, 170.4584552793163 202.64172886995408, 170.35449495531827 202.03784772192702 C170.25053463132025 201.43396657389997, 171.13771639915092 200.36028427768645, 171.8350930500654 199.86731423573164 C172.5324697009799 199.37434419377684, 173.92655695929372 199.21251575308602, 174.53875486080523 199.08002747019822 C175.15095276231673 198.9475391873104, 175.67266900936326 198.87000339007824, 175.5082804591344 199.07238453840475" style="stroke: #000000; stroke-width: 2; fill: none;"/></g><g stroke-miterlimit="10" stroke-dasharray="3 3" pointer-events="none"><path d="M 34 122 L 274 122" style="stroke: none; stroke-width: 0; fill: url(#rough-2197124329433695);"/><path d="M35.65355956860481 122.70912353384324 M34.413003078559534 122.50106181116195 C105.1811042564756 124.05425111921268, 173.36928071877546 125.55403427400134, 272.67344709540345 120.77525672753148 M36.195993738917565 123.0171099931805 C87.42125372912129 119.38050730632247, 137.73053127943413 120.21374224141874, 273.30763991278434 122.59840635394326" style="stroke: #000000; stroke-width: 2; fill: none;"/></g><g transform="translate(42.5,85.5)"><text xmlns="http://www.w3.org/2000/svg" x="26" y="-3" style="font-size: 12px;font-family: Helvetica;" fill="rgb(0, 0, 0)"><tspan xmlns="http://www.w3.org/2000/svg" x="26" dx="0" dy="14" text-anchor="middle">increment</tspan></text></g><g transform="translate(-2.5,185.5)rotate(-90,16,6)"><text xmlns="http://www.w3.org/2000/svg" x="16" y="-3" style="font-size: 12px;font-family: Helvetica;" fill="rgb(0, 0, 0)"><tspan xmlns="http://www.w3.org/2000/svg" x="16" dx="0" dy="14" text-anchor="middle">global</tspan></text></g><g transform="translate(-1.5,75.5)rotate(-90,15,6)"><text xmlns="http://www.w3.org/2000/svg" x="15" y="-3" style="font-size: 12px;font-family: Helvetica;" fill="rgb(0, 0, 0)"><tspan xmlns="http://www.w3.org/2000/svg" x="15" dx="0" dy="14" text-anchor="middle">adder</tspan></text></g><g pointer-events="none"><path d="M184.3593960962932 231.95915504308905 C181.4593825077243 236.1498154032268, 178.5800280613778 237.60051549038073, 175.01465850113053 242.6998879674245 M183.26942926502355 231.8393861794328 C180.88035622549884 236.59801286070044, 177.11941628014986 239.55697610219374, 173.2791591092149 243.0089664054548 M193.72933492091974 233.69711630506325 C188.65309823245363 240.18505503873646, 182.88613576498278 244.65184682978887, 176.09851486317854 252.87733118269543 M194.54749963623541 231.99503245830124 C188.28825850829054 239.20770654113173, 180.3518480147019 247.55830831084742, 177.58105605057025 251.71549557775427 M204.2562612182608 230.67499855603216 C198.2655851373671 240.19483374570487, 192.1945507441501 245.94806428820908, 186.77085956916426 252.06660182689512 M204.91657148894097 232.87087713255758 C199.99755838388634 237.29407024586968, 194.81908399964627 244.2452146271941, 187.9212872683476 251.88821591718053 M215.01409112022077 231.0689312851427 C208.65680133942124 237.72702220004456, 202.62544046090514 244.0286193919966, 198.49749851662565 251.25304934698767 M216.3460013085191 231.71082538642952 C210.13928811262025 238.5646985005036, 204.5896925181451 242.97508052684555, 198.49397855073593 251.82536287437645 M227.56566072365212 231.54475839282972 C222.4649846072899 235.77712557675548, 218.4056798995528 241.39326986727735, 209.0939582463375 251.8204128353979 M226.90532005615393 232.04342400505223 C221.64097208545252 235.85237416242254, 219.68738857022404 240.8100392105265, 208.56639357125425 251.3192824006866 M235.30900471742854 230.23486298208806 C229.98772560543853 236.11609830522343, 226.0091463653284 243.2904575479509, 219.51493611324983 252.46856533340446 M236.746047737387 231.59374312756339 C231.5987622186113 239.2533574045223, 225.23754901390154 244.4653333540752, 219.9608240763628 251.216380129989 M245.4707972443046 231.02515115067 C243.68775764855675 236.74972841555814, 238.01879180769265 242.8178807385235, 231.22234404468222 253.10243341281148 M246.7180067657503 231.5858677086187 C243.84610734477965 237.3165952895844, 239.55035318873928 241.49820059171552, 229.34637435365138 252.05710641918762 M258.2184419675346 231.773204255395 C254.55432598445415 237.54392321469854, 249.31767443489642 241.6631160730276, 239.11402040567344 253.39898192652007 M257.8182473506492 231.22596804242795 C252.42051026976688 239.57927358605338, 244.8212871434292 244.99546748481706, 241.0706773710926 252.22313740724422 M264.41220487251906 237.43249571613057 C260.92705852173253 243.0760048113387, 254.67749319699178 249.54300120359608, 250.39257625808966 251.45557644411417 M264.47543540128873 236.79079765993959 C258.74185760614785 242.39324641193218, 254.6126680435267 248.98632385789924, 252.03674058469144 251.26941959070675 M264.0641077024483 249.4581669679581 C263.5152222085995 250.329203609212, 263.2228612854339 250.70224452288082, 261.99424823790156 252.07393254662222 M263.99182780990134 249.57153922254795 C263.16718937454976 250.2019173033114, 262.67027177130547 250.94540946644005, 261.78703566625813 252.0611012580209" style="stroke: #ffffff; stroke-width: 1; fill: none;"/><path d="M175.71547096143524 231.68942971732463 C204.9825339415099 232.10321585943765, 234.06931863618777 229.90847826361934, 264.8755415770765 230.6780031247175 M173.23724193269646 232.31258486975423 C208.43879027916788 232.10835896644483, 244.2732334142727 231.9898999100817, 264.49564114829235 232.15801845155187 M265.25362120546254 232.43464640051138 C265.68990472584943 236.591399860574, 263.0076147940518 241.6488597901577, 262.4385848976166 252.71601733907227 M264.29772439296516 232.46871264890447 C262.8334965014675 237.03089840310045, 263.79748766847126 242.9505088794553, 263.8927734632908 251.31949723787065 M262.3827691012457 252.02576112217685 C237.77159554835794 253.5215103627572, 213.54222200387 251.62487142990616, 173.47550275569768 253.64696638353715 M264.204841416864 252.39305523303608 C232.17006250421147 250.53712576095438, 199.25913024123523 252.16949218740058, 173.72547925039655 251.10186494669574 M174.98008776035957 253.81091418212344 C175.22228334972368 246.31457387365734, 173.00727299769625 245.17781482664748, 172.678913428811 231.45050001158805 M174.05627984047203 251.08502599733055 C174.70656523448275 246.57067359203373, 174.56073013564992 241.0269334552317, 173.8440736222891 232.00633690537663" style="stroke: #000000; stroke-width: 2; fill: none;"/></g><g transform="translate(178.5,235.5)"><text xmlns="http://www.w3.org/2000/svg" x="40" y="-3" style="font-size: 12px;font-family: Helvetica;" fill="rgb(0, 0, 0)"><tspan xmlns="http://www.w3.org/2000/svg" x="40" dx="0" dy="14" text-anchor="middle">...instructions...</tspan></text></g><g transform="translate(56.5,153.5)"><text xmlns="http://www.w3.org/2000/svg" x="17" y="-3" style="font-size: 12px;font-family: Helvetica;" fill="rgb(0, 0, 0)"><tspan xmlns="http://www.w3.org/2000/svg" x="17" dx="0" dy="14" text-anchor="middle">add_2</tspan></text></g><g stroke-miterlimit="10" pointer-events="none"><path d="M 94 160 L 171 160" style="stroke: none; stroke-width: 0; fill: url(#rough-2637541315022875);"/><path d="M94.86136502228732 159.0544265005647 M94.87454152776584 158.21786832505904 C122.1366078238753 157.26403505574865, 148.6375994593292 157.65147840124735, 172.6300930212585 159.45070484485996 M94.4821446870095 158.51831993291475 C115.44477369805728 159.8981874252041, 134.86834857632164 159.04768789119015, 170.6326483338294 160.67151559496173" style="stroke: #000000; stroke-width: 2; fill: none;"/></g><g pointer-events="none"><path d="" style="stroke: #000000; stroke-width: 1; fill: none;"/><path d="M172.65529216475647 156.73275300825276 C173.25462585302475 156.57321399033938, 174.58740696023816 156.31941502651702, 175.29377269134906 156.53813284820475 C176.00013842245997 156.7568506698925, 176.65394408687968 157.38373098642808, 176.89348655142186 158.0450599383792 C177.13302901596404 158.70638889033035, 176.788958133919 159.81201577298816, 176.73102747860207 160.50610655991153 C176.67309682328514 161.2001973468349, 177.14973360254785 161.82493803588875, 176.5459026195203 162.20960465991945 C175.94207163649273 162.59427128395015, 173.77583252592243 162.83238474502184, 173.10804158043675 162.81410630409573 C172.44025063495107 162.79582786316962, 172.96475418354856 162.51738140879894, 172.53915694660617 162.09993401436282 C172.11355970966378 161.6824866199267, 170.56247893567937 161.11678996320205, 170.5544581587824 160.309421937479 C170.54643738188545 159.50205391175592, 171.87404826826238 157.7541912195527, 172.4910322852244 157.25572586002434 C173.10801630218643 156.757260500496, 174.14526739580828 157.37062848037843, 174.2563622605546 157.31862978030884 C174.36745712530092 157.26663108023925, 173.22428575194436 157.09997833717662, 173.15760147370224 156.9437336596068 M175.61861708705806 155.52271402585484 C176.09684783674416 155.87802876135973, 174.61514307941616 157.76949469712685, 174.90283282950355 158.66254250789305 C175.19052257959095 159.55559031865926, 177.04833188583274 160.44585194161652, 177.3447555875824 160.88100089045204 C177.64117928933206 161.31614983928756, 177.3862072561067 160.75909985466168, 176.6813750400016 161.27343620090625 C175.9765428238965 161.7877725471508, 173.57079192116416 163.89634309590895, 173.11576229095172 163.96701896791942 C172.66073266073928 164.03769483992988, 174.24403191684576 162.0846486495771, 173.951197258727 161.69749143296906 C173.65836260060826 161.310334216361, 171.83813489021531 162.119691725058, 171.3587543422393 161.64407566827109 C170.8793737942633 161.16845961148417, 170.89806134832108 159.4085512722237, 171.07491397087105 158.84379509224757 C171.25176659342102 158.27903891227146, 172.07940044398362 158.39142775883727, 172.41987007753917 158.2555385884143 C172.76033971109473 158.11964941799135, 172.77434455433212 158.13071986256864, 173.1177317722043 158.02846006970975 C173.4611189900765 157.92620027685086, 174.4109473014887 157.5926589328034, 174.48019338477238 157.64197983126104" style="stroke: #000000; stroke-width: 2; fill: none;"/></g><g stroke-miterlimit="10" pointer-events="none"><path d="M 104 92 L 157.63 92" style="stroke: none; stroke-width: 0; fill: url(#rough-7696984507778441);"/><path d="M105.74251582888535 91.33294994087031 M106.00506688658358 92.76159436914489 C118.13637481369076 93.65465136921495, 132.83615431151173 93.55701013581394, 157.39188481050545 90.25593162074003 M105.75589800804704 92.08795541464873 C120.88354085323006 91.61623228055356, 138.67521178077862 91.17613233466199, 156.6895741244125 91.36822001332341" style="stroke: #000000; stroke-width: 2; fill: none;"/></g><g stroke-miterlimit="10" pointer-events="none"><path d="M 162.88 92 L 155.88 95.5 L 157.63 92 L 155.88 88.5 Z" style="stroke: none; stroke-width: 0; fill: url(#rough-8537876549950267);"/><path d="M161.92248256610085 91.60264039972225 M162.4106191373936 91.47329411830599 C160.54971659563807 92.38014907047499, 159.8730553869962 93.01659478921049, 156.13242013161218 94.95307366590674 M161.93926684804944 91.30999617342205 C160.50840674077983 92.41095975866646, 158.6222000511268 93.77380653941533, 156.20723559051467 95.35615642794633 M156.24843511636422 95.38059921849423 C156.0300830143513 94.7994856339557, 156.85207865571795 93.56422389834161, 157.3467136363867 92.11672560907107 M156.07563987085007 95.39627375705547 C156.63805670918958 94.49871781673221, 157.1026851552449 93.29130869400475, 157.68109215376464 91.8247092803985 M157.32780024477856 92.36615286167378 C156.84802077311485 90.55743014812072, 156.1846790492205 90.07859464225537, 155.78385533643223 88.41564657508052 M157.52979139344066 91.84944404203165 C157.20180741435757 91.14539608402774, 156.81888926448906 90.13951217509117, 156.01486644590676 88.59631493620589 M155.39431070005924 89.08110937423014 C157.39035353595233 89.90579033781486, 158.55296507909722 90.42109041237741, 161.72839702043112 91.81689371628256 M156.0041222480006 88.7408235606306 C156.9373864210987 89.12667652538411, 158.67831840639425 89.61931829385844, 161.64555745374264 91.85338754953746" style="stroke: #000000; stroke-width: 2; fill: none;"/></g><g transform="translate(170.5,85.5)"><text xmlns="http://www.w3.org/2000/svg" x="3" y="-3" style="font-size: 12px;font-family: Helvetica;" fill="rgb(0, 0, 0)"><tspan xmlns="http://www.w3.org/2000/svg" x="3" dx="0" dy="14" text-anchor="middle">1</tspan></text></g><g transform="translate(61.5,55.5)"><text xmlns="http://www.w3.org/2000/svg" x="2" y="-3" style="font-size: 12px;font-family: Helvetica;" fill="rgb(0, 0, 0)"><tspan xmlns="http://www.w3.org/2000/svg" x="2" dx="0" dy="14" text-anchor="middle">f</tspan></text></g><g pointer-events="none"><path d="M180.22258548406148 53.03157929627797 C176.59201032722504 55.1954604668828, 173.97206510125278 56.21094731077267, 168.19392615635607 62.515098692243356 M179.00332326469942 51.44641251151776 C174.715455062145 56.58996773150153, 171.49707849612233 61.35930646549345, 169.11866389905498 62.9198871283686 M187.4004236728142 50.26003622756833 C185.61014039331178 58.40386337892683, 180.45401554491323 63.06808979065286, 170.5902324533826 73.82994431519766 M188.41692371285632 52.15975397831521 C184.01194834806842 57.888627663625755, 178.62421608524573 62.75128298994388, 170.9921686712227 71.12112758671961 M201.0276500406404 51.00542600496841 C194.68106693841636 55.691233601695274, 190.54369422845448 64.08094581092922, 183.24871186326624 71.72137809992701 M200.26488109983097 52.7152251365665 C195.79091048404308 57.011519014696745, 190.3737711225662 62.16887516502207, 181.7347297399476 72.9304642412419 M208.9538446528352 53.17741255940409 C205.70391836516114 57.54372672021147, 203.09329615291367 60.36828611016635, 191.36515841570753 71.26816437353278 M209.8227819340152 52.81519003760096 C205.80180876629447 58.68582380483851, 199.50941179249796 65.45752236753472, 192.54714402416934 71.6058280680014 M220.3142488682856 52.12411376153859 C215.79893121661033 58.55156368028167, 210.49266893561042 66.34035242497463, 205.76140323603957 73.58025245879574 M221.70856438605608 51.725975779147134 C217.31654094459697 56.53840108849037, 213.16418753911006 60.847739205149416, 203.74457577769874 71.22173744949123 M231.31829765027192 52.221733455963225 C227.1743966537152 57.68759234914277, 224.8265872880553 62.139832414641646, 214.8415919543229 70.94351261028646 M231.54006439123077 51.262681008259726 C226.40074745984722 58.09167674494381, 221.8586413044309 61.69002787455857, 214.98931082993832 71.98410179460005 M242.72458804024257 51.369908101053845 C237.60350822633526 57.04177059858457, 230.46538342662657 65.58288252124487, 223.96733302070297 72.90673950898032 M243.35415222366598 52.320967708165185 C235.55524021233984 59.56604244936576, 229.59760679805441 64.77798973201104, 225.7598211844982 71.93710837470942 M252.89320660604545 52.5944982029239 C248.20462546555027 58.162792758293556, 239.3845699302004 65.93421469742262, 235.234064736274 73.79643726274145 M252.15746162785666 51.63654476791322 C246.09930865518567 60.160112774823276, 239.98906218112143 66.99790667466073, 235.16971432971857 71.85851699554595 M259.3614208683225 56.211867284795495 C253.42656669987645 62.42242870377772, 250.17090434793178 65.64024324462227, 245.79401769733494 73.65212610762119 M258.13913910935855 56.97743791131527 C253.5571822105385 63.013665511849595, 250.0499840485758 69.17275140431559, 245.8564105962693 72.31552385606312 M258.74335266019494 69.35113744213928 C258.03180976998215 69.99094612873806, 257.40287647510905 70.8600019890251, 256.4872527246496 72.01686379479978 M259.07273308788103 69.32580738083549 C258.4544199370799 70.13917800398696, 257.9051231349366 70.78114127110331, 256.85835532795335 71.99829088781493" style="stroke: #ffffff; stroke-width: 1; fill: none;"/><path d="M170.34782519171355 52.95697846142295 C194.02575147464907 52.215071298068885, 218.5704296420272 50.164693401240925, 257.29017023876827 50.976817430837805 M169.95022744846312 51.04671917885435 C202.18243196835616 51.063152621429275, 235.50704182614578 51.30252260512921, 259.60329625301364 51.635766701869066 M257.0637136399146 52.32164427427174 C257.3448743763217 55.48250709417276, 260.83779475877395 62.56817069334834, 258.57419467260235 72.07131087628109 M258.81072845333745 51.612747692552695 C258.35485465431 56.01777319288717, 259.8530371417927 61.446363190815475, 259.6315257035107 71.50546910226127 M260.81315099887274 73.55095027799311 C227.77313532009987 73.30232498518633, 199.29319291197692 71.21559231220274, 170.68807914867241 72.81373747466922 M258.1033297950498 72.03481112499144 C240.27873703155058 72.74050492594122, 222.73577397184033 73.25647877799362, 169.06600442312785 72.42382620608271 M169.68218528199301 71.80918106967115 C170.51710991136687 65.15191852573449, 168.49217401234742 60.738624190807855, 167.47231354595502 50.96965484116792 M168.63318891030465 71.6597285179137 C169.44601932391305 67.55849653274429, 169.65354070350568 62.54447821203784, 169.7143173926477 51.28097810155377" style="stroke: #000000; stroke-width: 2; fill: none;"/></g><g transform="translate(173.5,55.5)"><text xmlns="http://www.w3.org/2000/svg" x="40" y="-3" style="font-size: 12px;font-family: Helvetica;" fill="rgb(0, 0, 0)"><tspan xmlns="http://www.w3.org/2000/svg" x="40" dx="0" dy="14" text-anchor="middle">...instructions...</tspan></text></g><g stroke-miterlimit="10" pointer-events="none"><path d="M 84 62 L 162.63 62" style="stroke: none; stroke-width: 0; fill: url(#rough-4745408118463379);"/><path d="M85.80247917594609 63.11412596212572 M84.97069204769704 63.38912778247949 C112.97106592907741 63.06696606254564, 136.58100333602394 62.91223449362731, 162.7830718621256 63.516369905746494 M86.36654056211061 62.574741112201025 C106.7268004717996 63.20978960497366, 126.34372641103452 62.47806211868393, 163.52661639357768 61.12486276799444" style="stroke: #000000; stroke-width: 2; fill: none;"/></g><g stroke-miterlimit="10" pointer-events="none"><path d="M 167.88 62 L 160.88 65.5 L 162.63 62 L 160.88 58.5 Z" style="stroke: none; stroke-width: 0; fill: url(#rough-7134379056079385);"/><path d="M168.9146316856061 60.02707477248819 M169.2772581533106 60.856714143561135 C167.5541446141274 60.6706919459436, 164.87380295584782 62.716068577065215, 160.8587655922752 64.8707290426348 M169.28463636783542 60.337612036062794 C165.5906218876169 61.9236163560573, 163.485169216024 63.586215807707546, 160.8229715685202 65.58420334575423 M161.2041383607029 65.55845039547528 C161.2200239783148 65.05781332862574, 161.43422847681174 64.18885817608293, 162.62172004656293 61.62687183537483 M160.97198878603086 65.52227248628425 C161.41216018553507 64.19083744508151, 162.14519738057433 63.0153788258322, 162.7735058359172 62.15643481722987 M162.67096581367502 61.83968706147438 C161.7775444009211 61.04913315203378, 161.0841296115987 59.86517209371142, 160.8104922386597 58.574049431620814 M162.58155709334565 61.96427305768822 C161.92164905659268 60.61228954315985, 161.43525052487539 59.55337327576845, 160.99770558556366 58.51432588691221 M161.01584252481015 57.70137415902824 C162.70213680215446 58.86201827093555, 164.53765837414065 59.68524684396967, 169.23557264522563 59.6214869782927 M160.74968073342555 58.41293852320648 C163.41726824084674 59.180316512458084, 165.71629039095754 59.55705273071061, 169.0426670573668 59.75339380190055" style="stroke: #000000; stroke-width: 2; fill: none;"/></g><g stroke-miterlimit="10" pointer-events="none"><path d="M 259 62 L 274 62 Q 284 62 284 72 L 284 82 Q 284 92 274 92 L 190.37 92" style="stroke: none; stroke-width: 0; fill: url(#rough-298244227800095);"/><path d="M258.85467616402025 63.94848233423494 M258.14089656200554 63.06627674179182 C264.09796871423663 61.97692702712733, 267.9061750554396 61.56829640025128, 274.6158810379081 60.75340563719701 M258.537743422893 64.20969591370343 C263.904438863281 62.9531275386138, 269.68807362552957 62.67506943290202, 273.7365624471091 62.29051715732566 M273.7573637844265 60.996181877641455 Q283.1006975647536 62.890515178437276, 284.18877920632923 71.67931255183503 M273.17180426219437 60.64585569636966 Q282.37006154383056 63.6674077841587, 283.69620566761324 71.39950385376656 M282.8270892414937 70.64787152032285 C283.7041831120023 76.19418191138992, 282.85943421032545 78.96294902738512, 283.2494726797289 81.32785464030152 M283.5023639160856 71.30502912799838 C283.8753284585436 74.04325239439677, 283.45233761427096 77.17064305128628, 283.797101409564 82.05050915165451 M284.4795628669274 81.93880838793568 Q284.4948552539123 93.15171156796018, 273.44993901573935 91.7446509752734 M283.93168966361475 80.88315581489013 Q285.7847951251348 92.78968767797193, 275.615804849528 91.120309611461 M274.32727459086294 92.61115874120965 C256.6115386444826 92.95652876168568, 242.66110793471253 90.64915631514181, 190.78202655449036 91.60811095198405 M276.07278734772046 91.09512816337573 C246.763267647738 91.74322558724182, 218.58439222174556 92.1214158599849, 190.4132870066045 92.92401071873465" style="stroke: #000000; stroke-width: 2; fill: none;"/></g><g stroke-miterlimit="10" pointer-events="none"><path d="M 185.12 92 L 192.12 88.5 L 190.37 92 L 192.12 95.5 Z" style="stroke: none; stroke-width: 0; fill: url(#rough-3190130260227491);"/><path d="M184.20940923886891 92.56758684911527 M183.83127255053344 92.49064780346782 C185.97286277660757 90.54041830841825, 188.0613072807696 89.53887503257329, 191.41711637683738 88.66043744298966 M184.23243615246867 92.73086772664965 C186.90200096053377 90.62436220062074, 190.0195722807927 89.12870950857778, 192.55026806232 88.10889118692371 M192.2563262238029 88.51282213921961 C191.94806780464404 89.68916455012572, 191.03173058941664 90.42373818878055, 190.30417669106185 91.91444662539014 M192.1753011668112 88.32062442808947 C191.65105700245982 89.72772530620084, 190.71039694526655 90.83784564843, 190.1927010619879 92.07427582606746 M190.21158711383845 91.69321223027835 C190.65553117507295 93.1766708214399, 191.2363707314422 93.86934663813331, 192.13396308832975 95.32960593200973 M190.35361329555866 92.03222563222614 C190.9898387946139 93.07899422368257, 191.2533415382323 93.94635355972608, 192.03163448581725 95.3404590010434 M191.88840523694023 94.84222121434289 C189.08713623345884 94.82944622327233, 185.44186857614883 94.01677009696725, 183.89146930933367 92.54633835620292 M191.86948950636076 95.2431202538074 C189.11012146057854 94.59053179594981, 187.2164862638004 93.77032892674886, 184.27157140767756 92.85332362734145" style="stroke: #000000; stroke-width: 2; fill: none;"/></g></svg>