<svg xmlns="http://www.w3.org/2000/svg" xlink="http://www.w3.org/1999/xlink" version="1.1" width="280px" height="210px" viewBox="-0.5 -0.5 280 210"><defs><pattern id="rough-7302060833490459" x="0" y="0" width="1" height="1" viewBox="0 0 100 100" patternUnits="objectBoundingBox"><path d="M6.570311265531906 -0.6361238446709931 C5.651626772087598 2.3330441067331407, 2.1835702821007734 4.461738955880431, -0.9689235011315209 8.609248535948597 M6.718838580560526 -0.12218240209047687 C4.844166464316783 2.233320744961164, 1.7928523227974018 5.867505122874995, -0.15400690244259752 7.709398168401314 M17.80169322208249 -1.6012068273104711 C13.185018645270045 7.896907920295862, 6.627801620189909 13.007670491666282, -0.3514665838862099 18.02423979765785 M17.264754839447296 -0.7847033570816815 C10.838551680339645 7.988056264717784, 5.330911253850172 14.403319385774411, -0.533473463500747 20.061451572061827 M26.92300044572594 1.0109142718738298 C20.06079218577176 7.48494766106066, 13.315504679034557 15.741065591927915, 1.649467177890953 30.373364847852827 M28.656381046843883 0.8706931986568667 C17.96029669833133 11.769835495017166, 6.5793576442293435 25.039399959081855, -0.6526237758121822 33.00640593715726 M37.549652077668775 1.0132252976580203 C26.139329951605827 15.413863306275905, 12.376815975530643 28.53733249190669, 1.52503925501368 45.191402141262515 M39.03813843096971 -0.15030205571506272 C29.436492954617243 10.180210158036363, 22.069828002963636 21.06519379696956, -0.12081344500211522 43.93420029300874 M50.536214280997385 1.4321436229588649 C34.816359769143084 13.600526391939312, 25.32985385541164 28.619110449283625, 0.5484313206819396 55.75937615928155 M49.89349860170035 0.07070556833664554 C39.426526528325944 13.527632342081933, 27.439660974218953 24.469627575449373, -0.551831127616798 57.26194722366881 M57.90381820924436 1.4966452199782712 C49.60940859733582 14.414041236622822, 34.97220707430785 29.034377263732523, -1.052115759622108 67.23399729357504 M60.0322946297464 0.8429703163212672 C36.64038659391139 26.63648991313172, 12.502882300465854 54.11983056010047, 0.9584196548891004 67.8558339688245 M70.19452777691292 1.6851975991005546 C50.46052007296956 19.26024601875649, 32.00633777067735 41.06430659987589, 0.9287194767656608 82.07881857781902 M70.98301277261776 -0.5233984559799296 C56.3857580021415 15.187472691504372, 41.136021951255714 32.60075895744717, -0.1852405710868399 80.683809663526 M81.53577389828139 -0.07364964766831505 C54.93739279058538 29.425923309004606, 30.320531841325092 59.05204415954008, -1.8476035048125867 91.80588936745626 M80.48616645050866 0.7831751833812564 C62.13256219842368 22.76064929295585, 41.53103783954653 45.87718627860541, 0.44987808530202544 92.99433626785778 M90.54637529590589 0.6772514485074339 C63.65254561057796 31.95728022931767, 36.91091142885298 63.01401593297656, 4.663513496510276 98.22899531440895 M92.1567628774414 0.7871482205769387 C68.14332132634223 26.44531124157894, 46.472823910071945 52.93024067616216, 5.180170491753914 99.0763040399754 M99.88403629491557 2.414095486671953 C68.61281520207932 40.642101408319924, 34.73503438120413 81.49587834754627, 16.19793898437519 101.21271564996412 M99.95081592631581 2.7827247224376164 C74.25013372077787 32.29390971214606, 46.01505038744369 63.09246914236157, 15.939603410371856 99.7854169840694 M99.0701183556323 12.837486664751355 C81.93926293135817 35.64609303118926, 62.36066784876577 58.6762903738493, 27.5088772018652 99.23102656632156 M100.14705752006198 15.547913476585999 C81.5640582260838 37.27370018280648, 60.33132328613003 59.38702880604858, 25.54818579330881 99.16095745262744 M101.14924774384197 26.873410156906367 C84.3827252603547 43.33164432029361, 71.2737260874785 60.34166556264039, 38.276733840884695 98.11205755435397 M100.69889614478626 26.204876820985085 C82.99438380667529 46.44889707781233, 65.60087666079085 66.54041645670013, 36.67280863021702 99.08338348422627 M101.29842118669735 39.51984069280109 C84.84911613958452 57.19231540177123, 73.89708983765736 73.07974090393893, 47.48121198834621 100.36687703984751 M100.41110408429444 38.30565078962512 C82.17873478763482 58.49568843958959, 66.63287714828395 77.84866258833958, 46.07184378771075 100.04022477289313 M98.96088418919396 52.16815090368291 C89.26496053090109 63.67197499339375, 80.20084100930833 75.13348473554107, 55.744817297797674 100.0861442919908 M100.31215265157145 50.7854777250768 C82.26239478605781 70.3923708884999, 66.57936349947079 90.80764539306348, 56.805672109196664 99.81273035835993 M99.17127717866188 65.08463108394741 C89.27592000279442 76.13625069070912, 79.86986627821703 88.4982308844124, 70.06829784068532 98.17896813299268 M99.62025809519211 64.4929188650886 C89.09264095221477 77.4551863485359, 76.7321023663414 89.59797299362191, 69.0904366434987 99.71020466101278 M99.93358185612382 76.0442381430088 C91.87568663672381 83.97169772700934, 85.94322443873818 92.06545501741547, 80.35339246556899 101.0545623013703 M99.6554207713496 74.87589520446996 C91.99565871081492 83.29006099587559, 85.93464241530677 92.82805262538908, 78.81477359714636 100.9440310245985 M101.55887286425357 86.69063317964478 C96.54739445490503 90.81380556896974, 91.6848183753606 97.2819793394342, 88.70053695625671 101.55069065745668 M99.43108718216803 87.16419714564952 C97.49507370767823 90.01131483940395, 95.6973746271571 92.396800366512, 89.15421866492916 100.56672084768108" style="stroke: none; stroke-width: 1; fill: none;"/></pattern><pattern id="rough-8157009732824527" x="0" y="0" width="1" height="1" viewBox="0 0 100 100" patternUnits="objectBoundingBox"><path d="M7.0111866824390665 0.5741722143180359 C5.313678390274715 1.707786902183649, 3.811444025330945 3.77105668427417, -0.6997675649366352 8.851309044439477 M6.323980112275584 0.33314044223343797 C4.415435098339966 2.0383210422355713, 2.5719278429340844 4.823800377268886, 0.49520204102001486 7.854320179765252 M16.52361176169914 -1.558660513001283 C9.981690417898612 7.91441081172042, 4.361097853446655 14.568262307965387, 0.8264621785366053 21.31703843751183 M17.962032863533068 0.6561404676977158 C10.38508762014473 8.907983399099066, 4.279629052617247 14.930563601630421, 0.03562372885354881 20.313722448957318 M27.823067841892748 1.0391649420918485 C17.960786969786064 13.09106567684818, 6.527493366315026 25.920177406315076, 0.8654912947566249 30.979412108536103 M28.29044996718661 -0.10253862759903054 C19.215049110011343 9.171923281666961, 12.646563235069962 19.000657430817647, -0.5294132796599778 31.409262933339544 M37.66955896561665 -1.1329949224572422 C26.1129910969878 14.086419997955169, 15.40325931571163 27.782502968292643, -1.385301396092303 45.20777191900334 M37.84918723538742 0.9827024010925216 C28.35885119889283 11.885199247279164, 18.330653449344364 23.47744450043742, 0.2804477801154346 44.85919213041009 M50.21114839610444 -1.351596721823972 C39.06479602996897 13.47491502151351, 25.061707734207527 28.103855141084775, 1.5770206541950724 54.95903661298377 M49.7326778988873 -0.2794909016710987 C37.12814267763322 13.805762013370494, 25.029769579893888 27.17621521378262, -0.29156909357147764 57.151447185755956 M58.90953920275684 -1.525026311902887 C39.983708714020565 23.17243798336729, 18.75331460330827 47.94420692199915, -0.6351460708310839 67.95805474898751 M59.91358753131008 0.7219626994338104 C40.192773572369646 22.078360539300796, 20.731337320254372 44.64720407803078, 0.2877221653074371 69.49879783751226 M70.61356533176384 -1.701067674275647 C47.632319645602365 24.17441736731835, 28.47837408455782 47.37856255213429, 1.5931542126591243 81.30049087176712 M69.59566376644163 -0.49963826970962266 C47.91582137892927 25.109830209107347, 26.08026285288649 51.800803493058574, -0.6159964638485578 81.73441428916013 M81.16996903656414 1.2793941549444474 C61.85938132738869 21.073451842159873, 43.16318937165055 42.58937031521323, 1.6072154292137242 91.28918729638023 M81.23353293530353 0.3931802406714575 C64.22490795055592 20.377241555751024, 47.88464236464288 38.018016070372056, -0.06552363917266213 92.33341918474507 M93.31498359630619 1.2606444901482519 C71.71859326679291 22.201402767581143, 52.09149703093731 44.11892607711879, 5.2444635860476305 100.24235486382018 M91.4259255857021 0.6075260327034306 C73.33249959288726 23.280649016582437, 52.62878541629445 44.364297103299855, 4.520106970108168 100.68044628877995 M99.27822088574901 0.7793319118822595 C75.82551724369068 33.60271896942015, 49.19781952006288 61.12537204995693, 14.075410369451646 99.20851013695574 M100.9659555880911 1.7194655619627635 C79.11053977905152 26.43521610840228, 58.176700758567954 49.911084405189996, 14.812053192002566 99.70469728431456 M98.03274043670778 15.579748221828929 C80.35583328369196 36.74025100722828, 59.4837201617543 60.14876610351076, 27.465586260590356 99.26877844384889 M99.98590019124319 15.466663361715563 C79.53313184483277 39.44327975065144, 59.03802285419008 63.61897438302168, 24.879780140262557 99.30378685041634 M100.01857324248155 26.736897327933463 C80.44120642430025 50.92890995829836, 60.90065844080996 72.59423859702349, 35.80760851708699 98.86601100885743 M100.64707319926545 26.836038249322172 C75.83912274841886 56.24956542897443, 49.6886589049177 83.76094234923694, 36.33911406884621 100.46294152864355 M100.80763713259256 40.49905488882614 C85.825994581526 56.17740169348879, 68.40757157142397 73.64725245130816, 48.33311153493022 101.86307966174115 M100.71478891938041 38.64472011976862 C88.96815053052572 53.39793104285441, 75.83424435177982 66.81748992663486, 47.81581264244836 100.91575896562702 M99.277362240468 50.30690230833527 C89.68345754421755 63.97003412884482, 80.68533534913907 72.18421235950811, 56.79910042795028 100.28270455087602 M100.36863503396052 51.02079842218252 C87.93621687291602 64.6763475166806, 75.80346135545062 77.83606262552675, 57.97618004854448 100.03470279545058 M98.7434098801026 62.38740833114888 C89.69821494094207 73.05451666176157, 83.00991624674246 84.52557063272006, 68.19165364705914 99.106679751662 M99.62160748559211 64.49680939059327 C89.40142163370045 76.49606306492399, 77.51261914189196 88.19596331396528, 67.49138255491201 100.68392187908039 M98.49258777209737 76.92595475142417 C93.96784299223249 81.38044012634172, 90.77150368185806 85.09596632993551, 80.69571091031489 99.6822855395018 M100.22602365581928 76.0449463942472 C92.65066078639042 83.13355331666705, 86.73268298022599 90.87725250662795, 78.43183939676587 100.59696833318522 M100.11296795119928 86.6484437704016 C98.357998125556 91.46393112353694, 94.43919078511018 92.3052694288244, 90.82194326439274 99.69541400600403 M99.9203348311032 88.17761477890798 C96.81827005256321 90.16285449127516, 95.52997769394467 92.93755103290786, 88.73475389615173 99.77718609019253" style="stroke: none; stroke-width: 1; fill: none;"/></pattern><pattern id="rough-4909784570202347" x="0" y="0" width="1" height="1" viewBox="0 0 100 100" patternUnits="objectBoundingBox"><path d="M6.427719479250062 0.04775090085911349 C4.933019884627573 1.5872162419672975, 1.762487363707279 5.874523975006571, 0.4255865630738489 8.546740130075598 M6.815563292824749 0.20411271177801238 C4.915687013958368 2.1389735975144597, 2.8380390570628924 4.6114251314006545, -0.08253856228932854 7.555974229179682 M18.314283693384162 -0.2204929856786464 C13.544825071664931 6.179880336317611, 10.506427460082566 8.393424689582064, -0.629764707791197 21.63245836731416 M16.981043282614177 -0.493634876830924 C11.357186038240352 6.68470492400529, 7.1928550440519965 11.673862474541046, -0.4274459620103519 20.866062506249285 M28.788004602513045 -0.19875256617988324 C23.5320029583355 7.319550564483812, 14.807506730739687 13.351748156101042, 1.622152888037082 31.909235699699295 M27.150298337209748 -0.6810506520470216 C21.873944298277824 7.664781293593109, 14.551751925910121 16.27174853544168, -0.9237256524988822 32.878076210477296 M38.21830179054175 0.2067641072156139 C27.05878920430682 9.643345861843498, 19.02312558919246 22.755326619315063, 1.8805784602124564 43.79354270433503 M38.38101948237421 -0.9562681850830477 C25.905985728731526 14.814868528181215, 11.370171018951584 30.70425690465297, -0.19892698519670038 43.90371931113743 M48.194113772088734 0.21497025459606078 C35.88306766339992 14.211146202309667, 23.94663599679427 28.90806547701032, 0.384977226138143 57.66259586331378 M48.21122497435205 -0.5156635917346657 C30.31857272020745 23.015614321246012, 9.723791159679852 43.9252487562786, -0.4628017623186804 55.913403680006375 M58.23590893155735 -1.8513838897496342 C36.095272491818925 27.748898684384883, 13.891969414341345 52.78621489637343, 0.33870116792951865 69.35255149929469 M58.98365143459873 -0.9866108668973648 C37.29958952075157 26.628463841402912, 12.906570100860469 53.61270391578544, -0.926665662084933 68.82644226592467 M70.15931669803615 -1.235771052601633 C47.62019660036995 26.445857003081485, 27.95982288302467 48.062667298293086, 1.039963109340528 81.50438614127555 M70.14465036377356 0.4508198408118034 C48.109368896431064 25.250820240849247, 24.86231198471751 51.64346389891577, -0.6955977753404001 80.22970991182903 M82.03216964031924 1.7321000902557842 C65.22019888087542 20.342773008022363, 46.30626133480578 36.66345073448505, -1.3463686801382577 94.9495572625821 M80.34036474496723 -0.007719278348629288 C63.10258116314251 21.997425725257635, 43.24345334068821 43.23148956553402, -0.8288905422389754 93.43717711864782 M91.1209158895096 1.2571682566688898 C55.66778336278857 38.78618595995063, 20.959107253558738 78.65277503281061, 3.0301697544494255 100.86204293350708 M91.88750671963368 -0.7133277883828817 C69.33921026999566 25.966364636362332, 47.04582725363055 53.687652615265264, 4.464727084375864 99.4553082775901 M99.62252317605396 1.8444343207049014 C80.99104611060135 26.076063494815585, 60.74450255759236 46.460930816864966, 13.527503962550378 98.21853686258916 M99.53216109630976 1.6295250216883406 C68.78286238955556 38.708205878655676, 36.91407124728179 74.6021007815233, 16.228811751776895 100.84539368971699 M100.49319913469847 13.823337146466459 C74.62165181873289 40.74597569590627, 50.805726556018826 69.21767680471356, 25.121720287370493 99.38130731463666 M100.62508262112128 14.240600505256824 C84.20776031135264 33.97970783710153, 69.29011248226402 50.319785870395854, 26.341246688760243 99.36165702479609 M99.32245980501139 28.134818948827785 C80.29035465627751 49.07684358427167, 59.757733194350685 73.70044539792877, 36.359100565736235 100.22814229621838 M99.42510850092751 26.496876670661575 C79.25276041780278 50.13754161166091, 58.47343960146166 75.00774225842471, 36.09200479586498 99.73302668104752 M98.90399789031473 37.568965988355245 C81.99697183886937 57.91730979749415, 64.07413098189666 80.80613815958799, 48.20817520108935 99.14065422095595 M99.17642346692087 40.109926431312495 C84.30217396832586 57.71268622143713, 69.48085456993643 74.25993447832614, 47.75243473175919 100.47410768879124 M100.36233881554503 50.477688351996854 C86.04193217915633 65.64931140471586, 71.43461414003977 82.68705252859544, 57.12758269670297 100.76027018900659 M100.39924128190553 50.59606088860996 C83.88211328250055 69.61855301716778, 68.5241530468996 87.00572151224866, 56.716749126043055 99.14896185847738 M99.00093736751525 62.149145354266516 C92.99767782994357 72.58454772006752, 83.16381439150014 83.98066181919674, 69.08913068242725 99.69602608241676 M100.74100350175456 64.21499230013141 C87.5637255314207 78.31052024656354, 76.59314349502192 91.41425999482756, 69.03096144468405 100.19826531370983 M99.11082675525235 75.57460244022462 C91.40406152620997 82.50748548490677, 87.28229708796043 90.72421361055599, 79.0012616053974 100.79966376089817 M99.0495414146457 76.300242367353 C95.54770215673935 80.16031212846165, 91.62258396350698 85.78093114505762, 78.47512535053022 99.32148197554325 M100.80457987844609 89.13705156874366 C96.41262220488208 92.63272406165632, 93.01416836882879 96.49429363125988, 90.29753531204786 99.33783192600906 M100.2929409060661 88.52928452211857 C97.84523483067619 90.62002610483184, 95.17634941657161 94.31471831188396, 89.00927899756495 100.58650996254727" style="stroke: #000000; stroke-width: 1; fill: none;"/></pattern><pattern id="rough-5401115283718525" x="0" y="0" width="1" height="1" viewBox="0 0 100 100" patternUnits="objectBoundingBox"><path d="M6.484325865863385 -0.11879800935594487 C5.123269378949019 2.133025974160102, 3.477417375104705 5.645840770791448, -0.10650999845137044 7.118755385559458 M6.656631079485034 -0.32717651227440026 C4.163227499026917 2.783532322467375, 1.1054850829214335 6.4022872681987995, -0.32099170504214986 7.696423547643253 M15.9726950286264 0.39807869796954964 C12.708181015785382 5.419041132375392, 7.747580428781131 10.33922160033012, 0.15811997740886774 18.557422546008308 M17.263919220940412 -0.5466870921875358 C11.795558981182875 7.160106570247801, 5.0222821546248735 14.917478348736182, 0.7192915404019096 19.758299046867304 M28.15836002505003 -0.6733119622136847 C18.19601536724648 12.118362739774676, 8.696775206057719 22.032309526678176, 0.5336124459176235 33.62772493896718 M28.9017971231529 -0.5680373491898951 C17.064556252603495 11.732457929696862, 6.937348731929779 24.66707162806616, 0.43731034454888684 31.98249513107878 M39.675645446134745 -0.2475040534615527 C25.505701494508294 17.625937115092846, 12.20802266460821 33.52106521600385, -1.8513920865489082 44.982294224144475 M38.552070428618784 -0.3268963333787509 C28.810186138540963 9.992213152010745, 20.47729866521695 20.680834832625663, -0.5033510190409523 43.749412768323076 M50.797938352509355 -1.912584762208934 C35.17827116283372 18.36604565578023, 19.412415881172635 36.34882380156688, 0.42520021878844894 54.72454068349732 M48.58725546920802 -0.04645423469091492 C35.58920506797443 17.016648737952835, 21.91423220989593 31.784905268698267, 0.4217370019529545 56.25661560338059 M58.20200020443627 1.282027546185681 C36.997006537327835 25.547070031324413, 12.916199916748024 52.51265185601747, 0.35776218187589315 70.20785551432958 M60.31504554507883 0.8095050754036128 C37.54834431636992 24.249630810677566, 15.049660874089197 49.8877110261286, -0.3245845687271216 68.74242865971685 M70.19654060501207 -1.6321770000024527 C46.9620948635064 27.3972275791995, 26.227994697078103 51.92694957241349, -0.287115050597496 82.72243112018698 M70.1868699219588 0.3211038437887517 C43.3314501664396 30.524783551770646, 17.26359023200224 61.35986942626203, -0.1955323102151354 81.16883728773428 M81.83164410222932 -1.217980094016034 C59.51592980417639 23.65600649376065, 36.55630373171674 50.71438268211532, -0.13536287224527666 92.3521106643782 M81.55487859463281 -0.8337327237095358 C58.1790253029624 24.068924174878813, 38.2893652257336 50.111094183511064, -0.06138288957370852 93.00877425888018 M91.0823980703883 1.9823508572067263 C62.12523036134241 34.45888300587321, 27.48001977277081 72.30861415782027, 4.1318081184027164 99.90622794450438 M92.55384475971964 -0.456553076523766 C72.66172242352776 21.62742943653238, 53.131560129956945 42.27213624474051, 3.8578524984258227 99.43622436652042 M98.51619870313101 1.8476009244917924 C75.03209477162946 34.04234074031177, 48.83812180639885 63.68397334571725, 15.085873677977794 101.07488910291875 M99.9627984102602 2.307369560792859 C67.53875794135215 40.4672175522925, 35.17213694683725 77.35348438434748, 14.866753101433314 100.37561722157366 M100.98724376552636 13.12859547044399 C82.54678070982763 33.723593049375616, 64.10457973121916 53.5647456106119, 24.56120791267076 99.9421937526399 M99.84081731942292 15.714931406283572 C84.52625953094169 34.98638361915843, 68.1888406015231 52.319988882523326, 26.085227600802554 100.0200101569302 M99.94110122979957 27.005275001682318 C78.924843728059 53.49360989530729, 56.46092868699169 76.87235209208139, 36.897476303816916 98.82346576678705 M99.71508995186402 26.134039164961763 C77.54445406125961 50.32936658616437, 57.13806565451338 74.94598439574439, 37.42585306114138 100.04832932465968 M101.1844793450653 38.51828207144117 C80.15991971622877 60.01081176509549, 62.917308284789016 85.79162912890808, 47.852148503091044 100.33489242868514 M100.62623018675708 38.536422032941076 C79.56904506335113 62.76550991200672, 60.130684900769225 84.57273534690285, 46.33773326721659 99.79105100801893 M101.09964056074988 51.416526285870034 C89.76902789122103 64.50680704733948, 78.19343588688405 77.58506615808132, 59.09179891496031 101.05920552070036 M99.37669891160846 50.40441143581409 C87.50504360673524 64.05848695130024, 76.47961388032076 79.06099738834314, 56.71958662628327 100.71559894598347 M101.77109559190376 62.95857275615285 C93.69635626915459 73.19347822847722, 86.14420152207708 77.74873148878929, 67.86074865925308 100.61614880740855 M100.51149988238268 64.31387464350586 C92.26213518437365 71.93837700248656, 83.97490397187563 80.9400049005957, 68.85173098334 100.22962676997672 M98.3793999253146 76.58062493732925 C96.3024754857061 83.67293039814619, 91.2650830156186 89.8233208665792, 79.186094046696 99.38706192997448 M99.41509286499759 75.36690229484587 C93.18352343399839 84.61371316676878, 85.55228730532788 92.84511529781264, 79.34097855204949 99.25429778433137 M100.22291349201714 89.00011765202527 C96.65143395314459 91.37057335658376, 95.25923642123401 95.95565335418848, 88.17519657500631 99.7367144555534 M99.6204964343818 87.31629088986485 C97.05066121206778 91.85491696890037, 93.99502989607048 94.97813541661064, 89.51389665351947 99.42948484107293" style="stroke: none; stroke-width: 1; fill: none;"/></pattern><pattern id="rough-3028127457777567" x="0" y="0" width="1" height="1" viewBox="0 0 100 100" patternUnits="objectBoundingBox"><path d="M6.903036313476322 -0.3049851901887708 C5.482236466604248 1.5529332115334145, 3.299161945257439 5.284980433639908, 0.4823514136820868 7.849947668323926 M7.300457596212471 0.39893096197125144 C4.409410855096612 2.536525977981755, 2.1427766274578084 5.869266344772726, 0.3904430040957442 7.544779809496852 M18.270605017941477 -0.15867412764608524 C15.250335770323346 3.7682564961606158, 10.879706828543135 9.70321279505741, -0.7228175913297195 20.81324493453085 M18.090591530664565 0.8685775961333575 C12.60671420589205 6.116884541243282, 7.340392067715441 11.317141429439364, -0.7331095388054552 19.870292976940135 M26.062616063558327 -0.7447383453592522 C19.492309261212434 7.790546813003571, 15.681612488225861 14.945544760936885, 0.14523416674993506 33.03616743460115 M28.43563347575004 0.6402769528466536 C17.483282182648704 11.113905970992546, 6.7123047035567165 24.12901097371195, 0.2669437297073789 31.482151131074033 M39.007023924906 0.3604291008780178 C28.870064468524127 12.146554259847093, 15.713027008995734 23.876835361410205, -1.9904298281013366 44.86492291966256 M39.27849323391269 -0.8721417866437728 C29.38708085050166 9.854652520244422, 21.182734780321695 20.260143653354866, 0.796923687196331 43.73757966932534 M47.86917173431074 1.8965321248359928 C32.21675338223875 19.011520899570755, 14.98079161462626 40.10536696099397, -0.9825441691558607 55.67644037512025 M48.69280291078554 0.37672233189447946 C29.81214580062692 21.410260555887035, 10.825408733176777 44.24485327635487, 0.3271258419100951 57.57111426323295 M59.005053000519474 0.506432842544478 C37.277659404180966 25.224725619162548, 11.248109488100049 52.8511802571218, 0.9742518636012418 70.47011639800888 M60.05965201431709 0.5191414061303483 C40.99377735770488 23.174235214665316, 20.820635238579577 45.58269724657381, 0.9531934952587386 69.66091449659473 M70.22246765938567 -1.3037376549231618 C50.564757779531384 23.9177087944597, 28.989023596647044 46.09225064917828, -0.06820012143280696 80.89676405987785 M70.04073758281197 0.6592259431641407 C46.896853098917006 28.577428511862042, 20.205076843209408 57.88873724456655, 0.25072445232556717 80.97864014075226 M81.82701225772749 -0.3462942371551909 C51.19100917243078 35.32843292116371, 18.182669994060205 70.79242671738722, -0.716306242398848 93.36612886671442 M80.93395062242497 0.3949308425242868 C60.50708105636267 24.58961444673837, 38.39427314692854 48.02468627799793, 0.16099542840027548 93.42342142862849 M91.7086300438974 0.9476060725515296 C68.32275414878262 28.223655570316208, 44.837371016694874 52.02904368016377, 2.8370476259118167 101.01816953111648 M92.4365234006897 0.44112938851106387 C72.60938622376979 23.179888611919125, 51.399911853226236 46.07453024291251, 4.101375302074114 100.3880109043293 M99.37312990365744 3.9689738547084064 C85.36863099591407 21.97387190476246, 65.4480055427986 41.85443396298453, 16.488934017959046 98.75634103463244 M99.88077237579559 1.8898312952772351 C77.03479426942003 28.20678364674526, 54.36734470322988 54.70473199187528, 14.905142428119566 100.23819483244743 M100.61285771505761 13.255137984964932 C75.24378338841956 43.18591104605446, 50.168887565090394 70.46504984848313, 26.558216466706547 99.87603945148335 M99.08891680417666 14.713626978366484 C76.37525476672808 40.49221912859718, 53.72579849879984 66.87897105959219, 25.54436373872248 99.25266761911539 M101.21163815592612 26.672213623601593 C76.55895891906727 53.54378128997486, 50.7715209700884 82.67247526176662, 37.546812108605735 101.13442089824741 M99.69591992182836 27.358995805538832 C81.72262547301277 48.425632090231296, 60.98827587147559 72.29472829639892, 35.857894229354116 100.9700771475317 M99.11158349116992 37.395367589011286 C86.79023970321707 53.4067837011908, 76.9125591345274 67.00439297183993, 46.77026903900401 98.50926372891607 M99.13621261586125 39.85539494747687 C85.44521385508313 54.53952794965717, 72.16610774754402 71.23426701816767, 46.63088784946912 99.46955448100441 M98.44871145317619 51.788365988119374 C82.61992720833491 68.8299030256225, 66.09896075719622 90.8686715307367, 57.627746928206854 100.70128624649972 M100.0380424003379 51.0558231608625 C89.31182001349912 63.456548301393056, 78.97027461306466 75.63285938441332, 58.10125815941347 100.98695142313245 M99.29492628513293 65.4704860003705 C89.51857706397774 73.67448599483949, 82.51807565485115 85.79353832392418, 67.90551704283405 99.40619649374248 M99.86102832550709 63.096028126545086 C92.41786551132562 72.98850934668246, 84.18314106396032 80.44060034394101, 68.1674057499961 99.53629159386367 M100.02074772661432 74.57304337212553 C92.6227688096024 83.1020933459543, 82.60147727604712 95.54048728796973, 78.49643310476374 98.5849783664141 M99.56416427899404 75.05920628811344 C95.54283714062528 81.35056488786485, 90.39592349120336 87.05938776572965, 79.76143182215627 99.81351650467491 M100.23581291343453 89.15516926300593 C98.42138606961876 91.31232800054838, 94.19439807653487 94.98927703012646, 89.51377669121331 98.49705325128667 M99.5930619802939 87.23532539860956 C96.63548206477175 91.82467976227996, 93.84107700882068 95.4704153381297, 88.87124740589634 100.04187849784454" style="stroke: #000000; stroke-width: 1; fill: none;"/></pattern><pattern id="rough-6313742177573423" x="0" y="0" width="1" height="1" viewBox="0 0 100 100" patternUnits="objectBoundingBox"><path d="M7.407079872772323 0.8454252224738876 C3.968236657667773 2.145821742727466, 2.3844753064050113 5.673397100519281, -0.9602791175850862 7.031503538947955 M6.43932709372703 -0.08784985643620763 C4.521312166181417 2.174869342687411, 2.6450490707791983 3.840816710041035, 0.4705356910782096 7.428928027086472 M16.694233917093353 1.807727955684836 C9.970754186311748 6.414818863711185, 7.175853675728225 14.914349267859961, 0.5982196564699631 19.495445223615555 M17.276505894141227 0.7631933676832046 C13.417710704881568 3.671841809293448, 10.734255343505305 8.78227405138163, 0.012597132413567635 19.42588333521399 M28.53749841251834 0.9295926357407529 C19.921831249868795 6.155679759272849, 14.307608572599595 15.676428923169741, -0.8822070650905411 31.287808014626002 M27.008192185457116 -0.9364292617211873 C17.733545749582635 13.55895300430663, 5.270834438229466 26.41564156946901, -0.057934707077325065 32.273670244553365 M39.51152325070059 -0.24832712805158508 C31.2969292646114 8.110595653868392, 20.68474982442331 17.62692288035508, 0.31249580110636543 45.83387820846924 M38.29278484320623 -0.7393618304673959 C26.05472265251919 14.4713099246961, 11.269695466674555 31.519595988820054, -0.05723432137739337 45.22634799204859 M48.80547628630447 1.2670336407424232 C38.56079891905592 13.979045420937588, 26.912172679013906 28.740146571869566, -0.7440196717359546 58.12761844739241 M50.07771262949584 0.7001700772480817 C35.587164448888544 16.207770416548684, 21.8854428133227 31.145786270378125, -0.7953049500550624 56.034584417720076 M61.189157986691384 0.7677800326637207 C34.761154861044105 27.376949275406524, 11.013916855732568 54.60158246529956, -0.4664835657925348 69.2331936308417 M58.810822937514516 0.7660429312939505 C41.138261040547846 21.795653528315015, 22.332543615228207 43.432926733900906, 0.08757345246562442 69.36848765874173 M71.89028821180608 -0.24709399120628106 C42.14189966702912 32.626176547845645, 15.431072499195807 62.682663460970716, -1.5643620458800749 80.6452562268147 M70.77544531248945 -0.5831622218405372 C53.89468028244272 19.311685964758652, 37.58658000304488 38.510480226480595, -0.34778215562166936 81.22205758651934 M79.22848869354688 1.57555024504435 C61.828307103101885 20.18883257148609, 45.61752516507842 39.004357591286485, 0.019335770707987088 91.20139510428642 M80.3394030949033 -0.651282531496082 C48.68035943560536 36.90652747017014, 17.950271612870345 72.8387316547906, 0.7752452680193498 93.15017599023018 M93.57091816608117 -1.9068446512574369 C59.269073391080525 36.52098130058828, 24.91790324875404 75.53472789653866, 5.2021493107456624 101.34233984047175 M90.731393723858 0.6190314896932851 C69.54436147136082 26.845282892838316, 45.5476300503264 54.049950533773284, 5.481994912121632 100.5708623637232 M100.72732332201565 3.3701443367158426 C76.73849023129529 30.43262519618618, 55.40005770497531 54.43711063939199, 16.546749256651893 99.4103629861794 M99.97048547670545 1.8998865903331814 C76.50502082203323 27.684691982003745, 54.69884995448281 53.35400620709151, 15.492528736495224 99.19664274538151 M99.55831976050484 16.347597901445294 C78.44687153730524 40.976140216066746, 56.61637652701345 66.34752565784949, 24.586301636082734 101.89325222816963 M100.83313615124095 15.040454898246258 C78.71776474647108 35.63575000385825, 59.881624313766224 59.044452488572595, 25.867070078642982 99.03985976021556 M98.2832939091725 26.7014889712299 C85.3622395407886 46.87291977175444, 67.34678271743171 63.6625820024142, 37.66274149498602 101.19694592603516 M99.31798254959656 25.98162702665553 C78.76295339364613 50.21595956556833, 58.93159554711195 76.37550657059458, 35.83439092605326 100.87524358278641 M101.88781591445586 40.11875868801781 C83.85960612405033 60.28725357697203, 63.168098157123794 80.38352513197337, 48.772412566283656 100.66136524207633 M99.35502986829478 39.144214434302484 C83.02931984874182 57.946585081165445, 68.82736686603306 74.30479698966175, 47.31600751030576 100.47040520117625 M98.45659997517835 51.182524404283555 C82.74060874840434 67.97422897231928, 67.61065544119782 87.1687862474863, 58.99806758118568 99.3212909605044 M100.05351196709492 51.94392052602705 C89.75533215596825 64.04679665832266, 79.87414202771068 75.21551522386108, 56.73042383046158 100.90999910111809 M101.57351139226456 63.29243051854773 C86.86965255111048 77.77064427957339, 76.00161061194024 91.568424040637, 67.9984605239935 99.72565711866173 M99.14996696465404 64.19369261898666 C93.17849532660497 72.06876957831358, 87.16753793633144 80.13831642769473, 68.4183380302172 100.89175985026769 M100.32459410794557 73.7856699899451 C95.40887070802128 80.22718325596504, 90.23915688192857 85.31746317127647, 78.93706837429876 101.43269092582209 M99.7363809867414 75.45246557510917 C91.43442032939961 85.99322370296456, 83.28662894126096 94.70394888135803, 79.08185401520466 99.29425121304338 M99.79457379507227 86.88826744223559 C97.43817443584044 90.25482811779254, 92.51052504959868 93.57554611864, 88.49490333641472 99.05132961362948 M99.31615718731875 88.55373964351483 C96.16005376730067 92.55657786698028, 91.58139799347603 97.2330882411106, 89.81284047767286 99.40563572403669" style="stroke: none; stroke-width: 1; fill: none;"/></pattern><pattern id="rough-7428789928777153" x="0" y="0" width="1" height="1" viewBox="0 0 100 100" patternUnits="objectBoundingBox"><path d="M5.9121445330310545 0.7221318671618533 C3.8237993292047427 2.936504868009509, 1.5583284373754995 4.173606376648411, -0.3119584114103977 7.748001108539841 M6.782544094632631 -0.008699346532396124 C3.8374005275579237 2.3696514785537333, 1.6857287551504687 5.451562508162511, -0.0067715949670221764 7.4716348402919905 M15.87318137224271 0.28863801927293053 C14.411319096141135 3.869214271897958, 9.872141255616103 9.908363029678341, 1.923966639564826 18.63363635771779 M17.809585500259786 0.41945965906602645 C11.33169897594875 6.098946214170244, 6.136006178895684 14.139222455127225, 0.3469046529854891 20.212654402400936 M26.21301013374073 -1.1951997220452002 C16.37636304849869 12.40199485931312, 6.486225133356464 25.995144201825322, -0.845272530404249 30.564654879672133 M28.613550542659855 0.04211970972238577 C19.22703293743051 9.218421423590625, 10.850094485605617 19.832801452291342, 0.48582822972763795 33.08224307035819 M39.199349311245236 -0.08700751174907229 C31.91431151184503 10.62731384990489, 21.985372194441048 16.30770783807039, -1.672441210406424 43.32795166701963 M38.15446321178156 -0.05215405077483437 C28.65000903478599 12.772486906485973, 17.634532707608827 23.975439305876392, 0.7376271623764055 45.199798413362416 M47.998459017590264 0.7384142213808165 C36.860596156950315 12.39826626620533, 24.95109321839777 25.517066128815593, -0.7948321047630156 56.39739157818552 M48.75520777052872 -0.8762631246371959 C36.71817041780738 14.215004655623458, 23.79924329302352 28.273763397478533, 0.5209581876774956 55.982083761356215 M60.76120192242158 0.5759204239586362 C38.397599440972186 22.216532255592487, 18.625865874120528 46.766987524547886, -1.8083961912467936 67.64954938454989 M60.01414892832063 -0.03179684864435739 C44.512950610386596 18.691388637683296, 26.958526933285512 39.529414676821936, 0.2246943818214584 69.50604334022886 M68.69854123697499 0.27681275553468776 C53.400074588870105 19.000360106554886, 34.713364504987155 38.763083645137584, 1.5787269317650487 80.43727854936822 M71.16683674613772 0.15596579397473498 C42.52804198502452 31.07202097358354, 15.973026342839496 61.52383913743372, 0.4048787638756104 81.10233596715204 M82.43330264275761 1.4744337402526142 C52.894705433235465 32.48342666517038, 28.911393654095672 62.14184636899711, -0.01235311449593457 94.29720212985009 M81.4686945115054 -0.7899373797592752 C57.3288345914631 26.826298109954408, 34.34418245654618 51.95604821608598, 0.23637899095037174 92.74064809433885 M93.57921094553996 -1.4958625577180236 C60.12830791501128 37.68818867632375, 27.54310119377207 70.64963605582776, 4.062387697075063 101.92194284718201 M92.17015529514892 -0.7858441333051149 C70.78965827188419 23.801869940791345, 48.80063108637619 48.18417131714435, 5.4337405817161155 99.06271285358439 M98.73015386310404 2.944391374463125 C82.94184668204433 21.225421051032754, 65.12877056505359 42.18368450058916, 14.28396229686926 99.75139032562174 M99.3673819869549 1.5757783143194355 C74.10300684862128 32.030819007414784, 48.282549776793374 62.301214946701585, 15.92374437176537 100.26332081807782 M100.24505823527724 13.770084592702986 C78.39244294509078 43.0986943878857, 53.27006805105527 67.43313627780483, 26.94980933689395 99.51736543760471 M99.89649133154782 14.263778524390087 C81.45003193557518 36.38122167984706, 61.55070664650377 57.15326029613595, 25.11042322935713 99.72139928209579 M100.17290682341138 28.772583762379128 C85.16991858610527 42.22974466479984, 72.76126355628368 58.63616570008182, 37.87937334743908 99.05684652863354 M99.59858370290868 27.237639181137276 C81.65870810988052 48.839128800579644, 63.36700000255259 71.17199963172644, 37.14476437049952 99.74381504060176 M100.5284679628177 37.37963168966116 C81.20561225034562 62.42928508595436, 63.13107352866353 84.27821465143168, 46.1495306706316 101.7029683222596 M100.39759891046575 38.838050488485436 C87.83217293504671 51.53380186617055, 77.6466178180236 64.62614646217733, 47.715487023720925 100.86907179166349 M101.2723350326386 51.625017896658335 C82.31202938380473 70.62848842335688, 68.9461595765909 90.13298759751642, 58.62487846500591 100.67644055335242 M100.43409888865182 50.36870327507729 C85.26634717728122 69.19202494683881, 70.6823809277376 87.08754777877967, 56.82279419051439 99.80973508065554 M101.50172330633416 65.01649011397325 C91.73349063468983 71.00196394558995, 86.72428423330375 77.21101268831666, 66.61980165485849 99.2131539783288 M100.16493643871932 62.61610349810908 C88.60856166341085 75.99165777975401, 78.34301381886772 89.0722358905649, 68.77885818322233 99.7259616071859 M100.10496503090064 77.48742748018046 C97.30306053770154 78.65284823296925, 93.19664796298956 85.33326058655956, 79.47460017160111 100.80317474483068 M99.27283954193805 74.91522292820318 C91.5215703065118 85.91990205796127, 83.0986209058386 93.53344030472266, 79.14088881199976 99.828736034597 M99.83361945093296 87.38946656544151 C96.70309102321862 90.58082524815882, 92.66553870332207 95.30743316601584, 89.53141188333767 100.47943090734088 M100.37870088145038 87.3879887829471 C97.17860947704447 91.415013797929, 95.24571747516293 93.49205333026907, 89.20686169891209 100.38576579814392" style="stroke: none; stroke-width: 1; fill: none;"/></pattern><pattern id="rough-6423606580047467" x="0" y="0" width="1" height="1" viewBox="0 0 100 100" patternUnits="objectBoundingBox"><path d="M7.58403316068825 0.19823541207576634 C5.508788094702382 1.9428267658099843, 3.973762335143178 3.1941476731587373, -0.8930537431975992 7.999944250066753 M6.911371767613021 0.4965958581720429 C3.8023847936303397 3.2248079734625317, 2.0204915601861813 5.495341055427131, -0.26192879349615567 8.125149817634222 M16.833038748226713 -0.034317892888060975 C12.221677353409369 6.277730428742876, 4.509554364102756 14.805944943232433, 0.32740247599952976 21.24404486499408 M18.174961796856117 0.06467814397464355 C12.161863424303835 7.671633905489637, 4.615294717445206 13.686815413620703, 0.9871279608902013 20.444327486934725 M27.32328028772096 0.972663942048344 C23.437396765071284 6.562817264273294, 14.6708303883575 15.310831537449484, 1.2350250775918372 31.684452429041453 M28.4462887463851 0.9154942910103285 C20.102647391705514 9.461408692910162, 11.671882778594583 19.40951616670536, -0.8449857912946852 31.44749374774553 M37.714651264622205 -0.6432024320341192 C26.245874142919867 17.545025917375995, 11.32373987585267 32.07566580719906, 1.3433182609296974 42.90335162064334 M39.268627069281166 0.021497298497038297 C30.198781213472735 9.530173263797526, 22.2009680112888 18.07095720592953, -0.9644751367666546 43.71320754428816 M49.013076589035016 1.3514244227044694 C33.02129161534987 20.49654870284541, 14.007217032597627 38.11534760343147, -1.9075998506795218 57.430414130898306 M48.27716388767254 0.6098558788620103 C31.113049042106283 21.85349287651245, 10.776077658216789 43.237638520472984, 0.927323604957496 55.9435347982322 M58.00376617740414 1.6011700748358217 C42.54661464178691 21.1020505906016, 20.314393115304103 44.72514246664551, -1.1524928370599739 67.98986669404063 M59.35781143960648 0.23704425927378558 C40.81450109932781 20.41549814672306, 21.257639970455806 43.36139649176315, 0.5870666734381409 69.73139006029366 M69.59105982775054 -1.970610395712292 C53.53348469794189 19.825322620362076, 33.609740143980815 39.13396596127337, -1.6876740617949366 79.50170953323627 M71.29701382366761 -0.17412727167389974 C51.54772582502988 23.226440855086953, 33.29075340478062 43.8838017732587, 0.0658997035888067 81.55983794130097 M79.44766834106989 0.533222466114176 C57.24873542295629 26.279921537189377, 35.619391020066814 54.12461132454086, -1.5590351375641873 91.56781642595764 M80.69613226423812 0.2132478193815004 C64.83693316996212 20.04259530051449, 47.34533737207997 39.43891212425838, -0.2602576551946161 93.97573619826142 M90.22920800585814 -0.7368396142286437 C71.6872810065298 20.87639541338544, 57.26878178074403 43.103560079436946, 3.509283999178466 100.5880122950318 M91.54788860513504 0.09133323330673715 C56.984685728702495 38.80746561177407, 24.727291922733023 76.93427622658491, 5.388052074404271 100.8211685712177 M99.32955590561346 2.681260198830313 C67.07990803539741 40.56242046655357, 33.81161256106943 80.17978756489869, 16.85692729984225 100.53417614452812 M100.75320244630757 2.87046943433768 C80.88873925305087 23.604234194242277, 62.086526311569315 44.782855593005515, 15.390098090231728 99.09751277477208 M98.73049694301552 13.68343239583454 C82.70524513710373 34.839800106670154, 67.75648409350221 52.79970415655188, 24.507656989306113 100.18714283482545 M99.45627931934122 13.945999270873989 C71.06048575535921 47.92042520155193, 42.38033651441265 81.32956832063793, 25.515089148184487 99.45026927207417 M99.79199696365885 25.492196607745683 C87.3757025580999 41.622762822823624, 70.94380146364136 59.188839626757805, 35.73013202393561 98.57747285442184 M100.42368895056826 27.672771278780157 C84.89372866183778 45.793099783763004, 69.63929468986431 63.65757749190108, 36.00996764014853 100.60783200775123 M99.19754129678432 37.438780030825804 C87.36993212826415 50.97053695054329, 79.87340854690146 62.93746547690403, 46.037927192978245 100.4330568568609 M100.31973965337042 39.17264858160924 C84.48383586089362 57.96274737612304, 68.34813876634979 75.46965659004212, 48.02034904365239 100.00714868201418 M99.51977907013692 49.95120336510338 C85.17669682579431 68.68979605563042, 70.39460290859046 85.79266754637388, 56.855957069990055 99.09115932583657 M100.19781945070818 52.01410267606169 C88.22335939169449 62.891250913680096, 77.92212472565033 76.8356538272127, 57.29372913845021 99.5366249506985 M100.60138115463617 64.50627159134243 C90.39598964710845 74.72865248369285, 83.27923601318572 86.22162582726504, 68.6209727898031 98.04060013702583 M100.78816978649908 64.14049075005656 C89.15894950315476 77.48024036147328, 76.56376423456236 90.76600311292685, 68.14453583097387 99.33267032505441 M100.34784862359173 77.54687251098409 C92.9996658831125 81.49832309060272, 87.68179273704085 89.47631098406788, 78.09832715140438 98.64990783611985 M99.40230506996164 74.78501571515528 C94.23642419660585 82.40823476506924, 87.48590358095555 90.0484057029849, 79.49976020255791 99.65249728479179 M101.12707588239512 87.27560491057031 C95.19621603737909 92.50134258801236, 91.78110742785285 96.31844026800678, 88.20246440106017 100.58347237754785 M99.81292193506705 87.75195236814777 C97.52690356129865 91.76922514114649, 94.82376652282849 94.16356847568133, 88.85077329468729 100.15426187601146" style="stroke: #000000; stroke-width: 1; fill: none;"/></pattern></defs><defs/><g stroke-miterlimit="10" stroke-dasharray="3 3" pointer-events="none"><path d="M 124 204 L 124 44" style="stroke: none; stroke-width: 0; fill: url(#rough-7302060833490459);"/><path d="M124.10268640356541 205.18117136242182 M124.71840623969865 205.67141900351132 C122.42838709170431 168.55480504767894, 123.41002279258127 133.5547901272599, 122.84928987669906 45.784877035570275 M123.57265531104515 205.08873856179204 C121.82113597407576 153.7070802557622, 122.84354682250992 101.40896347762794, 123.81225556809709 43.59648752725274" style="stroke: #000000; stroke-width: 2; fill: none;"/></g><g transform="translate(41.5,167.5)"><text xmlns="http://www.w3.org/2000/svg" x="22" y="-3" style="font-size: 12px;font-family: Helvetica;" fill="rgb(0, 0, 0)"><tspan xmlns="http://www.w3.org/2000/svg" x="22" dx="0" dy="14" text-anchor="middle">doTwice</tspan></text></g><g stroke-miterlimit="10" pointer-events="none"><path d="M 94 174 L 167.63 174" style="stroke: none; stroke-width: 0; fill: url(#rough-8157009732824527);"/><path d="M95.88229302434817 175.45298851330028 M95.1872487517239 174.69704982621647 C120.74062334514723 175.36788612470045, 145.2781361981164 175.15236249178116, 169.08915011378124 172.28455797721065 M94.97930800367382 175.5154206586216 C112.3411313235914 174.7864552496625, 129.01754051966014 174.8006573923686, 168.5638540027272 174.11786905323092" style="stroke: #000000; stroke-width: 2; fill: none;"/></g><g stroke-miterlimit="10" pointer-events="none"><path d="M 172.88 174 L 165.88 177.5 L 167.63 174 L 165.88 170.5 Z" style="stroke: none; stroke-width: 0; fill: url(#rough-4909784570202347);"/><path d="M173.6526350000687 174.07281181807411 M172.84290800666022 173.82512594600473 C171.3542507348649 176.2402331832963, 168.26419933519554 177.4462996239798, 165.4656611158293 177.74285739435126 M173.701373112195 173.94174866488376 C171.69065728949133 175.30730159208906, 168.8290244022714 176.0449948286569, 165.86439886772493 177.5855236026462 M165.73280801784878 177.82698765116493 C166.47502001711572 176.70931296402694, 166.67728320334885 176.16127543302989, 167.39034488397473 173.7679829889299 M166.02469994537117 177.36925753786636 C166.42605681474518 176.7351357796459, 166.60583070435806 175.66828554217818, 167.50504481155525 173.96906233493047 M167.35847888678472 173.66900267988652 C167.3638920062279 173.35030490354734, 166.42283216938347 171.99051583311427, 165.74792594846875 170.70945601717403 M167.49935196604415 173.95699576173757 C167.2598726487395 173.156111482364, 166.87301190742275 172.455121768385, 165.9734747093326 170.5612271536807 M165.46463978640358 170.4417169080755 C168.87151718457207 172.09838976155743, 169.9582805287493 172.61795050216688, 173.75616114628093 173.61146555004964 M166.1604411869631 170.1679510244338 C168.26631235347634 171.56095558997472, 170.55258866326412 172.4055811179649, 173.45299870215777 174.21411682837942" style="stroke: #000000; stroke-width: 2; fill: none;"/></g><g transform="translate(47.5,7.5)"><text xmlns="http://www.w3.org/2000/svg" x="26" y="-3" style="font-size: 12px;font-family: Helvetica;" fill="rgb(0, 0, 0)"><tspan xmlns="http://www.w3.org/2000/svg" x="26" dx="0" dy="14" text-anchor="middle">Variables</tspan></text></g><g transform="translate(174.5,7.5)"><text xmlns="http://www.w3.org/2000/svg" x="19" y="-3" style="font-size: 12px;font-family: Helvetica;" fill="rgb(0, 0, 0)"><tspan xmlns="http://www.w3.org/2000/svg" x="19" dx="0" dy="14" text-anchor="middle">Values</tspan></text></g><g transform="translate(60.5,127.5)"><text xmlns="http://www.w3.org/2000/svg" x="13" y="-3" style="font-size: 12px;font-family: Helvetica;" fill="rgb(0, 0, 0)"><tspan xmlns="http://www.w3.org/2000/svg" x="13" dx="0" dy="14" text-anchor="middle">hello</tspan></text></g><g stroke-miterlimit="10" pointer-events="none"><path d="M 94 134 L 167.63 134" style="stroke: none; stroke-width: 0; fill: url(#rough-5401115283718525);"/><path d="M95.0863557261197 135.4940320209606 M93.99045171345469 136.78107922243746 C119.65119114450479 135.89376519796318, 148.66284310717927 135.66718487105783, 169.3409244524403 133.11927475172982 M95.06529739980202 135.51205279389748 C113.02647423854563 135.37003255461772, 129.93359321355018 134.1957745355971, 168.357139534134 133.1478950260156" style="stroke: #000000; stroke-width: 2; fill: none;"/></g><g stroke-miterlimit="10" pointer-events="none"><path d="M 172.88 134 L 165.88 137.5 L 167.63 134 L 165.88 130.5 Z" style="stroke: none; stroke-width: 0; fill: url(#rough-3028127457777567);"/><path d="M171.78213735618007 135.4893981957524 M171.8714264086859 135.53927273525397 C170.56703798872684 135.93061888583807, 169.26625535671886 136.7652278977331, 166.28243527676116 137.6543828357609 M171.95643666404857 135.34213356671677 C170.68082837139525 135.66074086150076, 168.7837463579507 136.477446755193, 165.99211832203108 137.71834442287164 M165.64787071555705 137.45180531245688 C165.8653751798186 136.60697667713103, 166.32982109391403 136.33264736527303, 167.7853110126884 134.2310508689014 M165.9817008458122 137.4919181354609 C166.38338633891553 136.3183360815794, 167.17805564698568 135.07747619230037, 167.65802039994045 134.16421677570878 M167.82213963824634 133.84616072150607 C167.11118446082628 132.88706480961886, 166.48893204647433 132.1400098349412, 165.52802281885582 130.42757021314176 M167.80600636260542 133.90022891648493 C167.25405594042658 132.92314795609553, 166.57706085579346 131.81217126680923, 166.01955557194583 130.38143994564538 M166.34634268323026 130.68095745608315 C167.888530144438 132.15771610303267, 169.0745865062679 133.14386428291257, 171.92341214868514 135.24571902715888 M165.57526669120668 130.29329698673203 C167.21033584282193 131.54695848974305, 168.0249631950657 132.36276782019772, 172.0922690817179 135.80770290191168" style="stroke: #000000; stroke-width: 2; fill: none;"/></g><g pointer-events="none"><path d="M184.6082160001408 124.3559494066416 C179.68979367721258 127.36027135968074, 178.45982531680363 130.87111902189523, 173.52121550559292 135.65731973021357 M183.49230488139028 124.3998449738667 C182.020698570738 126.77960634985558, 179.70679616234867 128.75705816350637, 174.0831725538409 134.5894263848875 M193.40326024298915 125.12378971253597 C186.24769434798765 129.00640800566654, 181.86196731489036 137.5363889364432, 175.54700272055305 145.99360193676296 M193.50323903686842 124.59822623495009 C190.3584245053229 127.94210981049514, 185.3104457436596 132.64055281251706, 177.6203801412355 143.68265805501102 M203.8899960169453 122.94931782041718 C199.61050466508095 130.4996921362217, 194.9314279085703 134.4040522204269, 187.56916029540636 142.1228924971055 M204.38601468833332 124.98144273650823 C199.10916536354452 130.82782143804067, 194.3733838221043 136.25878909899117, 187.831762994035 143.93742310269198 M217.21462497122275 124.08392275020447 C210.15279641261125 128.95709671383068, 204.5913617857304 134.531428948616, 199.07955323124804 144.2468199701856 M214.66533097520428 123.02250946888743 C209.68335107048426 131.87898307945875, 202.78114612928158 138.263756952473, 198.59518011880417 143.36946389469807 M224.87451808667078 125.0729878470202 C221.2666102596492 129.39258267147926, 219.33404650302498 130.29242255889997, 209.14807407377205 145.31686060163926 M225.36003014832582 124.82869269843154 C221.84461054354472 129.0939810782319, 216.9574619480189 133.96266755039005, 207.79830777576325 144.5222754335376 M235.55950423963606 123.17422065609902 C231.91270623636353 132.75916826083713, 224.43439964249333 137.47474991516253, 219.49858131376797 144.11164323184917 M237.6336827323608 123.65586253600308 C232.2874799098388 128.6010172592913, 228.34239075564759 134.01387180149783, 220.36619724300053 143.22408512367605 M248.69469413057928 124.70516901199287 C244.24288726902748 126.47309771907572, 238.2462381420536 132.36039970014082, 228.5595166045582 142.89662721013397 M247.23503177336033 123.73301130169291 C241.46306040371095 130.83819388184693, 233.43476137763642 139.9736516325124, 230.33530334709397 144.8825948051447 M258.12159414977623 125.12778881265581 C252.11888073982962 129.63628184174817, 250.64565629544208 134.9496956193113, 239.9545505063891 143.43759051661556 M257.7522729639576 124.40132263362153 C250.46923188104367 132.1969607141331, 244.82070109312326 139.69083219558362, 241.26663748469184 143.2874991248544 M262.64079494973566 129.11878446905249 C260.167047641985 132.85977436860836, 256.77428469138357 140.48033523468317, 252.1363041110929 142.60653439810676 M263.3774336296819 128.7008141452621 C260.1453844136961 133.28194637183435, 255.89461642342857 138.55266750089848, 250.6927386002739 143.5029079833837 M264.2012731041475 141.31446618137429 C263.6688279027777 141.7596992666073, 263.14869324516775 142.4328260886562, 261.7720281912122 143.91427884519675 M264.1251359231456 141.542548075806 C263.47496995938826 142.2147522186624, 262.664790543797 142.77363207341725, 261.78499500726076 143.95080294745665" style="stroke: #ffffff; stroke-width: 1; fill: none;"/><path d="M172.9535908563793 125.13884362538153 C204.24393704534208 126.24592713436438, 231.3743729537866 124.90293712166323, 263.0554433932383 125.2508901147723 M173.28082761107999 124.47860200803454 C196.81405887138624 122.65221319029862, 220.16904170857626 122.8881491340078, 264.16196757500444 123.60346677656312 M264.8934334426705 123.11761060684515 C264.17937842065845 130.21732945110276, 262.53554461077226 136.34294064866333, 263.04687971277724 142.30684763743471 M264.5342009571558 123.20301974905131 C263.4924554011645 129.9808675043959, 264.058001500953 134.02872328478858, 264.3311391772975 144.9250917015911 M265.06948644723974 142.88436940704466 C231.16793010990406 142.4913677758736, 195.75559554005622 144.51837963298345, 173.84188932974808 145.12472155808217 M263.69543465428256 144.72968007468643 C233.16846089058936 144.88493742668555, 203.4034002044672 145.00255574665997, 173.44478751032148 143.9369323777881 M173.41261728427327 144.49798274881823 C172.3544633479213 137.47472789779457, 172.65772816109498 131.91199816084432, 175.98146660961348 123.02988960447938 M173.76340170352807 144.9980056856646 C173.04123465068994 138.59307139061272, 172.93603814282034 132.19929981357697, 173.90665349747306 124.38211097019993" style="stroke: #000000; stroke-width: 2; fill: none;"/></g><g transform="translate(178.5,127.5)"><text xmlns="http://www.w3.org/2000/svg" x="40" y="-3" style="font-size: 12px;font-family: Helvetica;" fill="rgb(0, 0, 0)"><tspan xmlns="http://www.w3.org/2000/svg" x="40" dx="0" dy="14" text-anchor="middle">...instructions...</tspan></text></g><g stroke-miterlimit="10" stroke-dasharray="3 3" pointer-events="none"><path d="M 34 104 L 274 104" style="stroke: none; stroke-width: 0; fill: url(#rough-6313742177573423);"/><path d="M35.684115176622036 105.43587852918691 M34.821933243290346 105.68374471299697 C107.86158390847133 104.01454285643877, 177.79776138821111 103.24603800186054, 272.7535665018143 104.74706744758197 M36.207907637094394 104.48688154048676 C92.33398585835332 105.24216877694931, 151.4720671845839 104.57512182282099, 274.85052112904356 103.555718908279" style="stroke: #000000; stroke-width: 2; fill: none;"/></g><g transform="translate(57.5,67.5)"><text xmlns="http://www.w3.org/2000/svg" x="16" y="-3" style="font-size: 12px;font-family: Helvetica;" fill="rgb(0, 0, 0)"><tspan xmlns="http://www.w3.org/2000/svg" x="16" dx="0" dy="14" text-anchor="middle">action</tspan></text></g><g stroke-miterlimit="10" pointer-events="none"><path d="M 94 74 L 168.75 125.39" style="stroke: none; stroke-width: 0; fill: url(#rough-7428789928777153);"/><path d="M93.92541616176104 75.70014707011615 M92.13465615925523 76.93147500367 C113.819587033011 91.07606255303384, 136.75405388731608 103.9532155790388, 169.5019284406157 123.71273033503486 M94.33604691802707 75.672946775224 C112.22459380351323 87.42654271195816, 130.46443989629194 98.90492941674032, 167.8686250132046 124.66444595131586" style="stroke: #000000; stroke-width: 2; fill: none;"/></g><g stroke-miterlimit="10" pointer-events="none"><path d="M 173.08 128.37 L 165.33 127.29 L 168.75 125.39 L 169.29 121.52 Z" style="stroke: none; stroke-width: 0; fill: url(#rough-6423606580047467);"/><path d="M173.90522140748033 129.98079434291415 M173.7516123694221 129.3815158910238 C171.13260915495118 129.49443526486488, 167.91920154772896 127.32066450961793, 164.8550911610392 126.46732754614884 M173.73403026602082 129.98120129965474 C172.31824237849995 129.62850259537905, 169.76435542283235 128.84787751805476, 164.92519214888083 127.38309478832056 M164.9699116088969 127.3797712115449 C167.01180453844367 126.50027896538869, 167.76183743428078 126.17750505157825, 169.00972085262418 125.18298013004241 M165.3845489792865 127.25458986717021 C166.6449008590683 126.84953382172993, 167.854689955923 125.83960205062597, 168.65311729555037 125.52842739846523 M168.74323347826348 125.23621909795395 C168.77389324535122 124.3183842775619, 169.36159717523466 123.96273304310368, 169.11978035097226 121.68165587240031 M168.68827722018491 125.28712582719426 C168.76241264111363 124.58064565943141, 169.08450612819857 123.84326042096635, 169.47548765860572 121.50204153373211 M169.9838676128929 121.62995447298654 C170.58076596955536 124.36110431748185, 171.03166041026935 126.1042926495766, 173.760734601888 130.1792982950361 M169.6359055628342 121.07943247453994 C170.77758692850196 124.9889401249637, 172.45717397979567 128.0000502935437, 174.20437192394863 130.0924370282633" style="stroke: #000000; stroke-width: 2; fill: none;"/></g><g transform="translate(-2.5,147.5)rotate(-90,16,6)"><text xmlns="http://www.w3.org/2000/svg" x="16" y="-3" style="font-size: 12px;font-family: Helvetica;" fill="rgb(0, 0, 0)"><tspan xmlns="http://www.w3.org/2000/svg" x="16" dx="0" dy="14" text-anchor="middle">global</tspan></text></g><g transform="translate(-8.5,57.5)rotate(-90,22.5,6)"><text xmlns="http://www.w3.org/2000/svg" x="22.5" y="-3" style="font-size: 12px;font-family: Helvetica;" fill="rgb(0, 0, 0)"><tspan xmlns="http://www.w3.org/2000/svg" x="22.5" dx="0" dy="14" text-anchor="middle">doTwice</tspan></text></g><g pointer-events="none"><path d="M184.63326145758293 164.31768556719592 C181.50314240774614 167.14516575147212, 176.51315273523727 173.50478240067366, 172.6514530784613 174.67029247829015 M183.1163906533446 163.56087321729834 C179.7366212174198 167.33721612686782, 176.8836469474171 172.50746212944972, 173.9951152824246 175.0044655537598 M194.5138776446281 163.16909591277374 C188.3768375228064 170.94222860027503, 180.66372788200863 179.35813714924265, 175.27104585050662 182.57772493432844 M194.70195146476797 163.3231769709397 C188.1489963138354 170.95160241651536, 183.003086811195 177.52364651059858, 175.98546865640606 184.32439614344017 M204.64477266781614 163.5286446024139 C199.96735917870157 169.68505453295515, 195.28933713862588 175.00740094800486, 186.03167985330523 184.9633757921316 M204.76329593404998 164.232422582609 C199.50405002252594 170.12252760119725, 194.07436759779594 175.1383250891045, 188.1507489117723 183.74614809529197 M215.40179063353085 164.24544565711597 C211.09702523850277 172.24154203830082, 202.59570528524725 177.0445488601692, 197.37286420129277 184.5105335199674 M214.82920789094487 163.8103006054392 C211.35044052835107 168.6865292024184, 208.45722272120665 171.41891524567433, 197.9447230408834 184.71341065523401 M226.113116641133 165.05213073049902 C219.63441395552465 172.0242526172416, 213.7346050650333 176.0554001535736, 209.82881284171754 182.19502205713363 M225.9139482767911 163.74295655639241 C219.87986569191492 172.35236830619436, 213.62266892322245 179.47499335572476, 209.2447168954545 184.66378405481473 M237.99125135814216 162.41395933268845 C232.17661799684274 171.76365946513053, 222.986553993687 175.97686136418827, 218.91080585175067 185.12919444948307 M236.34039704915867 164.74375094594345 C232.5037558260398 169.30664561040857, 230.172489963407 173.2788170706624, 219.79159275733042 183.3092267865817 M247.18656175249902 162.012324489911 C241.12283812857848 171.2024081366581, 238.5764072074226 174.3507182332189, 228.52699440700528 182.23161415750093 M247.748724447259 164.5841038271155 C242.82528610467966 167.72363378618948, 239.773113853446 173.2952320761999, 229.0032707943588 184.3685608958626 M259.2263569772316 165.36571940393074 C253.5556827394528 171.1554388251912, 248.7006988190364 177.3582208805611, 238.84632019720664 184.4109862280187 M258.1403547626423 164.89168090025666 C250.78492637923424 170.79123529418752, 243.73737514507172 179.13226464255976, 241.2670729364684 184.13705424098424 M262.19142560255256 168.90008002103278 C258.8813218809153 171.6715178783858, 256.16659598854955 177.25855860476975, 251.86028305500602 183.31442806996762 M264.5712875351693 170.16592930868637 C259.2033359457001 174.4986576003022, 254.6794562171888 180.60252003625826, 251.0592578787219 183.66724407783144 M264.2330444110268 181.74189102672895 C262.92132166099066 182.29960216880608, 262.03365230599877 183.4655873753708, 261.89506926987735 183.77334262513926 M263.86368275169093 181.40365691074385 C263.3600913267232 182.4732140963644, 262.51141653636745 183.28545357507573, 261.9413556196766 184.10155134489077" style="stroke: #ffffff; stroke-width: 1; fill: none;"/><path d="M173.08841383965856 164.24432159079126 C200.28974840128137 163.00939922025955, 230.7619167052451 164.94296571501172, 262.73230242270813 165.03853159125677 M174.79796146198794 164.19602752244862 C192.70853534567334 164.4847795674317, 210.52187618366455 165.21677759183322, 264.38184728353264 163.7127217790431 M262.99528907045755 164.0054499423591 C265.1366730462105 172.3325937550586, 264.83484357956587 179.99995157479083, 262.4014502646424 182.09885627354228 M264.19163843395825 163.1683975244259 C265.03305775539127 171.45410694433318, 264.20170357868574 176.8604840346097, 264.0549836526576 183.34192446547536 M265.3812747054019 182.87350098588166 C240.3156242790128 182.70623357935514, 214.8700588742916 184.16992775876244, 175.5500601630319 183.1340437943382 M263.8423670745964 184.94176033326033 C234.3016231642541 184.15533138468388, 202.77058211424267 184.33115441102964, 174.64203960410475 184.23751961328009 M175.23823545157612 183.27247396067972 C173.8908721022247 179.28341307328384, 174.96420793280174 174.24147085969437, 174.41957426743272 164.7187797644001 M174.67886299313153 184.38264613561827 C174.0760342821226 179.77130857514175, 173.48564530585165 174.0102866829114, 173.2965819589194 163.54734033170547" style="stroke: #000000; stroke-width: 2; fill: none;"/></g><g transform="translate(178.5,167.5)"><text xmlns="http://www.w3.org/2000/svg" x="40" y="-3" style="font-size: 12px;font-family: Helvetica;" fill="rgb(0, 0, 0)"><tspan xmlns="http://www.w3.org/2000/svg" x="40" dx="0" dy="14" text-anchor="middle">...instructions...</tspan></text></g></svg>