<svg xmlns="http://www.w3.org/2000/svg" xlink="http://www.w3.org/1999/xlink" version="1.1" width="280px" height="210px" viewBox="-0.5 -0.5 280 210"><defs><pattern id="rough-5946734285988619" x="0" y="0" width="1" height="1" viewBox="0 0 100 100" patternUnits="objectBoundingBox"><path d="M6.117187837470941 -0.6226597292237082 C4.007158244232887 1.480083610740719, 2.5377463016958117 3.5559917631599145, -0.027928360507051053 8.284972680960065 M6.827364815104165 -0.39990858381947325 C4.159994163062372 2.7319335112541583, 2.1306590126752085 6.175901713645589, 0.45071005957076515 7.88214420420705 M15.490057440548402 -1.6533767685951046 C14.618742729134405 6.254387459314163, 10.25244542237321 8.38380725665242, -0.6252477588700982 19.39012547420749 M17.19292209733419 -0.6327478615093112 C12.574150137157288 5.553958047039359, 8.192184294849888 9.71469451411641, 0.04596373952787358 19.310354392281056 M27.726440626278595 -0.1392403665520865 C16.552131494733317 11.446942950223086, 7.462333085252929 23.869704635878605, -0.14003885130695348 30.399552478667506 M27.786389040661103 -0.7167831748529694 C18.34652239162177 11.11802252464042, 10.311913029434194 19.890472007644796, -0.08258580131166848 32.468110518701614 M40.20804266384842 -1.1278183254950873 C26.277903984697396 13.527377154630635, 12.273334504121776 28.726753513152033, -1.818114036831541 43.435292193276304 M38.215140272353835 0.3035863949006279 C31.072197652556525 8.39872110647541, 21.25380745563055 19.204782756816975, -0.09829644742754384 43.872729532560896 M47.51162793502462 -0.2693056923885848 C34.70535837889595 20.97281414112116, 16.8898388280067 40.09870036935548, 1.1029236470826422 54.612242910726884 M48.88828237878381 -0.6101674359456832 C37.68517968358852 13.477733725386507, 24.704495548380756 28.387155178312046, -0.19973242582585948 57.05805455666928 M58.124585549072464 -1.6114740106487657 C42.73271423369276 17.51302541143841, 28.17418559205675 35.67952131551672, 1.541047348271177 69.49462469706485 M60.3580261963196 0.726138535739226 C40.32764284828505 22.386706124374342, 19.034520246613113 47.0601804684239, 0.14519804342716203 67.87718188794803 M69.57046115446973 -1.093733197215034 C46.31065260643129 25.216169241773446, 25.003162437112344 51.15280184490863, 0.7558576914211574 79.19303957145783 M69.52887535117623 0.9877232494013528 C46.5321510733777 27.17768805039143, 23.193656603893235 54.357873414525415, 0.3999504166226333 80.12532564936639 M80.91556870092094 1.8808886925110126 C62.07057631278145 22.588585206753287, 45.38284421442954 42.565893304141525, 1.6184793439325693 93.14851033097622 M81.137205775371 -0.7480544571015217 C54.42123967349967 29.34829544157647, 27.178035701261653 59.6938117578391, 0.12127381307165219 92.30866388565919 M91.05499818125811 -1.3077331383056103 C63.15139210374395 32.94097962737885, 29.232240539654683 71.42253347675991, 5.232367289157996 100.3895857764813 M92.11500125820706 0.23202301996724994 C58.35017349308868 38.96258003620507, 23.347228600372055 77.56498870816401, 5.603312338843339 99.98697520971274 M100.37154196352014 0.810229038487738 C73.80896390821314 33.43700513597891, 49.59233516432197 62.475226849351685, 16.10073253047988 98.86587723002141 M100.7977030528469 1.7776802704164227 C72.74917580458656 34.36081330069036, 43.92438023348832 66.35383044723173, 15.289314491006408 99.49773497336011 M98.43437799848509 15.572747567666772 C83.5787263744228 32.68596454349034, 67.1465359761483 49.89915672139901, 24.687160360483976 101.38271768052847 M100.84722074530798 14.130809592715202 C76.6607918679595 40.62515272055259, 54.10752382285849 68.41512101866294, 25.64176729709572 99.4645840958633 M101.7671825905747 27.039671969026983 C82.56081317694245 47.78099220221377, 64.38680913064816 68.570574906154, 37.4301323276568 100.8317997150484 M100.52729828568742 27.12480190281358 C86.64987598688913 43.27527413318806, 73.80840421005718 58.01887391865982, 36.75880996127831 99.14527942036861 M99.87665794338496 38.365747736444526 C90.43577792605043 51.4807562212298, 76.41786507341632 66.80105575657159, 47.54607409458443 99.46188147788493 M99.05497110134684 39.98068029966878 C85.27461177516064 55.56784441340196, 71.32439759084204 71.09834580281039, 47.14847614032401 99.7218058512359 M99.23661338076445 49.79924028362779 C89.2163112797721 65.29753025995888, 74.36261747751544 80.04240345856005, 56.36649545487344 98.84821591632704 M100.22767704518517 51.03070127114168 C88.82252894935084 64.59153956444216, 75.85489890375916 78.57358065406716, 57.72061902316316 99.87716567704582 M100.69225454165846 63.246109548945526 C91.53758111638092 70.100303121084, 85.4599050781437 80.67170659554611, 66.6065547421661 99.75879286568727 M100.89680496386148 63.776003725861706 C91.6846444151322 72.1483882257707, 84.19261622545353 80.9772702770813, 68.84823839305794 100.89095586144227 M100.00319884620303 77.19932042484758 C94.48962780276729 82.2633511871944, 91.87122057912782 85.72720006189017, 77.04183313851709 100.10366961698216 M99.34301042461885 76.508742088202 C91.96049922801235 83.6156088351847, 86.39815705610725 90.73758636027614, 78.13798642259516 100.88458068720824 M100.13965606625901 89.18764897541081 C96.5674013899245 91.65977496103565, 94.05738050907304 92.84559269925026, 89.24875329994046 100.02292151587864 M99.45811726521872 87.43261408090534 C95.77178965340254 92.51627249987177, 92.20896403665012 96.80349390280615, 88.93243050091434 100.13383899486355" style="stroke: none; stroke-width: 1; fill: none;"/></pattern><pattern id="rough-771499014402841" x="0" y="0" width="1" height="1" viewBox="0 0 100 100" patternUnits="objectBoundingBox"><path d="M7.795530603926425 0.6700383201823905 C5.270783601650287 3.840139708664686, 1.3109921235387372 4.931653689437035, -0.7013526332361937 7.604860531136181 M7.197551522632043 -0.4145005713993296 C5.176317180808925 2.7572231440041572, 3.0198356331921334 4.348879503850557, -0.009458245881345917 7.331513809750656 M16.911563103873764 -0.3713063378767574 C14.056023399298791 6.973601977358743, 5.754625374605707 11.432872746434107, 1.324762625561985 20.305934495632634 M16.708943007199057 -0.4086771709350723 C11.426384816331762 7.314416914557963, 4.653347410439158 15.106560654939768, -0.1715737267355033 19.83204453235701 M27.144714456138924 -1.455400390888581 C22.368241917852604 6.9126562651636, 14.370970196144025 16.609914813453123, -0.25212085791854655 33.24359040904259 M27.622656123083402 -0.3747042574211594 C21.369509051473 8.551317041453325, 14.306408672918796 16.36505225290741, 0.8061119537243306 31.443359497394784 M37.400534554050594 -1.8659059960415476 C25.93175849053089 12.693991815253263, 14.813302375067988 26.776741760277517, 1.485899119264226 44.02195050392086 M39.01095209316911 -0.026637864035099934 C29.351523701736 10.249440219795051, 19.394709680965388 20.65567939258267, 0.8710245801374197 44.41048468053101 M48.68500110287813 1.3690739734338253 C36.25953599240134 15.817327108224227, 21.815343503894816 28.74494612527667, 1.6868635609371418 56.75213753606898 M48.889737364464835 -0.29799557601234383 C37.2478700982806 12.857441226108493, 26.130392904872938 25.2517978844251, -0.5736551575414714 55.6464304863232 M60.12002326771078 0.02446531533843732 C39.090862909745766 22.17707143587758, 22.573142989907314 43.56865390906625, 1.3331483452820914 66.98721373303437 M59.21317501152724 0.23409150180814908 C45.391121962984975 15.80880988649287, 32.404160349309294 31.76462286894503, 0.5614461715348589 69.32832259324334 M69.26767300847978 -0.2264515699722578 C56.37390347123837 18.594757128512907, 41.27889988616258 37.08772016883644, -0.36103597652452635 81.37888427515455 M70.8473092217583 0.882858364736296 C47.132409707486296 25.65579436598373, 25.766308706249013 52.870476083467274, 0.6374540610632695 81.92634700476593 M79.73588020688032 -0.5886653126747401 C58.956299437100924 27.327277251075447, 33.922149261998634 52.728460109309715, -1.8233385591437719 93.09388638983937 M80.18352731875696 -0.9358834252404855 C60.00298008635323 25.058715427867014, 36.981061462096 48.77578482506629, -0.2248853822855006 93.76136858032346 M91.87800773275326 -0.39972886451023193 C74.79965652214484 18.522702623782813, 55.835182992497764 39.25012766546197, 5.981491164880022 101.49285475217633 M91.2423602010254 -0.49148898350754777 C67.85740829766986 28.646684523908394, 40.993252039129835 58.94064848880948, 5.201532377501495 99.38578897897415 M98.39632670664479 0.7956501219717689 C70.1396615487991 40.56937805839937, 35.50141717534596 76.04745602074951, 17.225342227293716 99.64628229014026 M100.78546747254761 1.7922094293645814 C80.07788666729431 24.078071498400654, 60.19288347662726 46.16415913159591, 14.57881804021331 100.96185324289183 M100.81382912127614 14.018469903240975 C74.58557068871633 40.755805785611926, 52.44913498434285 67.2199187765103, 25.36878045177933 100.41086803142126 M100.08747685853099 15.603839729130058 C72.9609777662553 45.69841208575644, 46.067088402083975 75.78597019973489, 25.27622043483507 99.091346092829 M98.04731101110877 27.427646697965802 C72.9150224437413 54.314492781685566, 49.35611202561583 84.25764235196249, 36.98407315955171 99.52727278717133 M99.51619921344931 27.21745513373943 C75.79917043547364 56.13268333863938, 51.77209423908856 82.83409191497044, 36.11084901578674 100.40339266601653 M99.07119862077096 39.38800280139402 C86.85046852289845 52.75200361300391, 77.24841408143656 66.7769091297446, 46.98388358193168 99.68792752449099 M99.99691631343997 38.864034965840986 C79.89967551878433 60.74959112514615, 61.99347138285764 84.12333931401665, 46.1054924706899 99.55898305781851 M99.77191020066381 49.766905936419505 C83.77546822567125 67.63008111049561, 69.06698834184161 84.73302230961009, 56.68390737950177 99.11266338142204 M99.77728874558865 51.10193481848778 C85.93736858070072 65.2893670127943, 73.3909703177705 81.48967778680243, 58.57615276388952 99.42883795406925 M100.14764872112231 63.182426724271394 C92.44737247976177 72.86108828441382, 81.15423797331776 86.6679469337102, 69.64704802507259 101.28147596340912 M100.39523380038528 63.567744281050224 C91.9551027662541 72.631343312536, 85.61312961458879 81.41247798936729, 68.09874247435461 100.73802333988712 M101.8266418406224 74.57534769527349 C96.01916180995374 81.67002208883984, 86.94816937132488 89.9062103666027, 76.9277620639272 99.51856891779218 M99.7129944596323 75.11450566041198 C92.22893442492702 82.88654388187366, 84.91561420249243 92.03189257985498, 78.76694301396718 100.6434965180782 M101.24528783808648 88.68357296352822 C95.12940963191384 91.51160904674606, 93.27368123947443 95.99744289449075, 88.8979083466305 99.95493526059629 M100.1087590518894 88.53678532329366 C97.45954692503994 91.28120434091309, 94.24500158635263 94.775781478014, 88.78230083422032 99.55855649132127" style="stroke: none; stroke-width: 1; fill: none;"/></pattern><pattern id="rough-843037870668957" x="0" y="0" width="1" height="1" viewBox="0 0 100 100" patternUnits="objectBoundingBox"><path d="M7.460523357588347 -0.3453883059984546 C4.812396608534648 2.840997217077138, 0.9026603017313448 7.132271665008362, -0.5396358566155923 8.397212471069482 M6.860319225721049 0.21388550963748765 C4.683437947089361 2.690211337963072, 2.124446900174815 5.9413354786349535, -0.20139329058260663 8.068498739983387 M15.667077402450658 -0.7742554072678276 C10.87640270972766 4.437503253215596, 5.530352934234816 12.508809488289236, 0.4264879851179151 18.178978047691206 M17.2728711759405 -0.32654107134686905 C11.12638110409611 6.863257895075353, 6.637405815331524 14.131197041772314, -0.9338404925090886 20.743374709190874 M29.329908826117094 1.6090493208982917 C19.993721407245424 6.89931451028614, 14.593957851232151 16.927075200874377, -1.3732569174360734 33.02519328368116 M27.35208371984112 -0.24593368825973183 C16.861897424217744 13.301294510140274, 6.4818706790024265 25.22898053137414, 0.5615747505639765 31.974091356919743 M36.9153789977304 -1.2237578497357964 C28.68054296861476 11.545407335486608, 16.702467730503386 23.780629367390816, -1.3108405421784042 45.18251607292526 M39.31722019203649 0.9129764112838368 C28.454681152311757 10.566041783362406, 20.028850856289534 19.91215095039114, 0.5091188432292526 43.539599003608316 M50.685487446317055 0.5991358215653761 C31.233711603471875 18.7960516275409, 14.273395851861581 39.7075797975, 0.498435914149967 55.12799237481528 M49.59855103679011 0.4817607362571801 C31.25045525152737 21.77914395419179, 11.990454130347013 43.588201910120176, 0.2600381541699073 57.57632646328653 M58.82242604833813 -1.882027134217033 C39.810564831598214 22.641564530854488, 19.72727904260152 46.33138061328985, 0.6956323139005445 70.34055632236358 M60.63094262305744 0.3227466458591013 C43.08290272420048 18.714104241582405, 27.185115293907288 38.87640945906641, -0.9215708223906547 68.60619588359451 M70.87984965166497 -0.2668605090252054 C49.60201084645735 20.92382317470864, 30.198744794548332 45.85555756785705, 0.6845710992581173 81.58155822635304 M71.17348510244321 -0.6506825991614447 C49.420448635324654 22.798074935361498, 28.81515053842173 46.654658436794264, 0.15187923893394073 81.29723258888467 M82.83575932602571 1.1465402974218426 C60.48757138619615 23.332715700971995, 42.011328287769985 45.27912484461349, 0.7596064444920367 92.12377463299559 M81.79803108616257 -0.4312627528905222 C56.91285632717973 29.594510333198343, 31.12952354084834 58.33800766057742, 0.6877527967381729 93.31668002466793 M91.36409353571776 -0.12777679060971003 C61.176955968064306 35.991894922454385, 30.25756937484623 69.72617362508976, 3.15343882876516 100.2197055069254 M92.44493914037051 -0.652300205021799 C69.47767152687298 25.641715450423728, 45.94120528986103 52.86786399655275, 3.739641094057422 100.63517228796955 M98.15488058361815 3.7369292230131297 C66.94036324443303 42.38333849292788, 33.95559487214017 82.16402341114599, 16.495976740178865 101.70065309180796 M100.54563102469936 1.5310906627563323 C69.90552668566278 35.853740435964696, 41.729214659364196 70.5131423869982, 15.641335694206461 100.31159721578761 M100.41979066072749 14.12158407341202 C75.20758709373335 40.421732152415466, 52.373479327652426 67.97993495587943, 24.614858558646123 100.41648385567498 M99.74857712699989 14.082394426735762 C78.8425863037017 38.06402260924109, 59.6879067715822 61.06030315690528, 24.90076674121397 99.36301336556575 M100.87780504736354 28.21048951052377 C76.2812180062655 54.761937407358104, 48.97501404720689 85.48978758888312, 36.38371612335608 98.01793063978825 M100.24102515189493 26.625260429834913 C77.1672653500397 52.637141149929946, 55.3475175613404 77.36398634559322, 36.72453545047091 99.101434099178 M100.00219539760764 40.35410815577032 C90.70422970380132 52.179456856627006, 76.6130708330461 64.65620531988884, 48.01639698335284 99.83414412465723 M100.50119718012373 39.600381351289116 C82.05522435286863 61.23179079724226, 62.889054308381695 82.39295682870282, 46.56684362342213 99.4024666080074 M98.39757008565307 51.6854717941203 C86.4989980454677 67.06280607955739, 68.75538748058666 85.43383568493631, 55.735319503767705 98.53606108060345 M99.66594105590997 51.199561249488646 C86.35803441702363 65.66020373878003, 74.96647296979104 80.01586374427069, 58.229127206901694 100.85316713834507 M100.82126467008267 63.46151276647672 C87.92390608717547 76.04462728979144, 81.06009823431137 88.9021816656776, 66.99178635667847 101.54020049398177 M100.43141157570233 63.59890165504028 C94.2619925381777 70.99212279010796, 86.58872259804912 79.49795187096586, 68.5998027985152 99.21831393869017 M98.80983386325306 74.76126225802375 C94.50290917507681 85.29881923804308, 86.39518471739804 93.3047466429512, 78.75407123664901 99.22290865704879 M100.71974135314653 74.69968300666002 C96.15231655210377 81.01006141592796, 91.70633010734804 86.29853778570292, 78.18392886682976 100.43839599864572 M99.11131756066248 88.12321818375587 C96.55814264525313 93.55347133010588, 90.33635029174216 98.89958834560244, 91.03214062357691 98.88438802268738 M100.32679257914879 87.90802125906936 C96.0038379317673 91.84724213560571, 91.43780300305566 97.78815193037154, 89.4341552158595 100.49593390756057" style="stroke: #000000; stroke-width: 1; fill: none;"/></pattern><pattern id="rough-1681864328931545" x="0" y="0" width="1" height="1" viewBox="0 0 100 100" patternUnits="objectBoundingBox"><path d="M6.547181188627524 -0.3883198069999285 C4.5996496792066495 3.888885064428175, 2.6045534488285065 5.915053972320056, -0.04328748155992923 7.352734856088626 M6.483506530353837 0.033808133328732226 C5.022879118083988 2.1091999682905316, 3.3446984477490025 4.634781116203622, 0.4355378629227502 8.296726735128557 M16.91075719346481 1.2265628229438148 C12.717420193396155 7.673252522549872, 8.172577259739704 13.103134260344506, 0.9916847486429381 19.724969275216708 M17.941391848748943 0.583982211599325 C12.1331595048711 5.055647154331243, 6.779201839179469 12.36330026157307, -0.12021839528004064 20.276611498690187 M27.22303987402372 -1.0653694363064155 C15.783747949093012 13.436421771816473, 6.976457247297789 25.810358593050232, -0.5312662430443646 32.07152911534174 M28.749833008784428 -0.6563603732282344 C17.011166906108507 12.575202385706849, 7.683405087334016 24.941950235822084, -0.10845448270504487 32.2427452281345 M40.063536694192265 -1.3713407649296867 C26.957636977990493 10.184119739972118, 17.41002799924574 22.88025339288959, -1.7729490210581096 45.6961377858466 M38.321672819421245 0.21119099868876923 C27.336728787304505 13.185889674708683, 15.346901453771562 27.626234053661815, 0.4608323737514728 43.537881022753886 M48.6619338611637 0.17575053963294707 C30.209461576726188 19.153665271072178, 15.766082493213585 37.656461167820694, 1.8676854368964975 54.672117601332346 M48.27433985492401 -0.5317097698198747 C38.55558335416648 12.204315093419144, 27.56225299617593 23.432019862528477, 0.9372777954040137 56.69152627617734 M60.34314104239734 -0.1509999342073609 C45.16751942313542 16.86168815725499, 31.629741982771908 32.35868949366066, 1.9685665536871664 69.49308637371088 M59.13431000983063 0.016678163929880974 C47.98614986961931 14.05954809851707, 37.02340626622184 29.15082479734675, -0.39357286442214745 69.72889740356963 M68.60187177223519 0.5636590731967033 C45.13505039748669 27.096492330891238, 18.332766640371727 58.15169169208911, -0.04231183613328948 80.68356938086428 M69.61701202839838 0.9645951881903274 C50.226403362509714 23.839880026511334, 29.431745286481025 47.156605662673876, -0.951342445178748 80.08519116858028 M79.95624365256748 0.7529552843016072 C50.1821215324468 37.94062206823181, 17.346095420979267 73.55638268805075, -0.33591600944991384 91.89134663250127 M81.05117930138732 0.739194439539482 C58.574136119697535 25.55402861154309, 35.36166720234423 52.093227206343265, 0.7247405079623381 93.01139347017961 M93.28238025524229 0.25015115039262614 C64.55445833421182 30.880411037330305, 35.998516949763875 65.97906353201518, 4.238768451558671 99.84402590424821 M91.417560287627 0.349438178081094 C74.17254125341977 20.62659284835211, 57.29268927646886 40.388929945732905, 5.1533759956942475 100.13022399849261 M99.45661082650811 3.0421436505420747 C77.53466048153253 29.697250498275174, 54.0747912260582 59.765186914573306, 15.255799440107372 98.32699323845618 M100.26551930600797 3.475176542775264 C80.59156851911105 25.01845041950828, 61.26595142957394 48.5636263546694, 14.80268864275549 99.80773861974086 M99.50686486488654 15.799864247254988 C77.68028016005827 40.51736571292342, 54.33727202375814 68.44260860054098, 25.5122772969477 98.98071782850592 M99.31856462083597 15.604747578041728 C80.7928603747506 34.71077555378742, 64.2738295987579 54.72338544240787, 25.664703030758403 100.87735597368007 M100.2009280772149 27.93573686630281 C83.7357279974509 49.8906483721403, 63.2978810590848 71.6215805042768, 37.237181641404234 98.98194266595007 M99.98891232472393 27.210481149670915 C78.26902451794254 53.50242824903749, 54.485655731767245 78.75509725721967, 36.129404155895365 99.73055110704449 M100.79480746449238 40.08719578581998 C84.05928425955217 55.36041849784738, 69.58929731740005 72.31868422827507, 45.23523292831177 100.35330029938333 M100.4932188362164 38.91340873899765 C86.15637505094419 56.176805251382724, 71.69371919938044 72.77995120318751, 46.136705476806696 100.07224662326543 M101.24914368741793 51.85692565081781 C84.9916864712687 66.99216805129032, 72.01902966462382 82.84486613354224, 59.156695108846236 99.62922146183735 M99.21553985411272 52.113718715313595 C86.91527685083952 65.39331334249943, 75.97562588757609 79.07005825708076, 58.168163877961746 99.80557008551328 M98.75653825840095 63.772725768469904 C88.9025644424823 78.96885751332485, 75.42195138051827 92.0227207010661, 70.00629389855703 101.47969934902325 M100.31834154283317 64.0686222868737 C90.28058613033495 75.04966012650492, 80.39732117702599 87.02794403680507, 67.93623424723118 100.17246903738906 M98.53127032929702 75.67940768561957 C93.82906477286805 83.75910500739118, 85.26729677139582 90.28172383063165, 78.2245606768415 101.6156892928751 M99.93146058443274 75.63739895448076 C92.4973836018299 84.4841807307649, 83.95049765578818 93.46451861927329, 79.76525391886089 99.34048673464633 M101.39805295616642 87.50425882404733 C97.99647870553994 89.99449621630194, 92.6359294098752 95.84369054639762, 88.89580436519206 99.81643159549607 M100.33994586869122 88.62386051861657 C96.48545402932194 92.08544376900737, 92.86506965512864 96.4280890914684, 89.20332925207042 100.48269881065374" style="stroke: none; stroke-width: 1; fill: none;"/></pattern><pattern id="rough-5240105153645533" x="0" y="0" width="1" height="1" viewBox="0 0 100 100" patternUnits="objectBoundingBox"><path d="M6.477604635903592 -0.8653012464008657 C4.402805395569785 2.1133753331214455, 1.8350254808489415 6.123723150281085, -0.5100383496709836 8.67818108114067 M7.101075447149117 -0.0473968560608109 C5.113018939111054 2.4772897695648814, 3.5061072433449607 3.9918933139793946, -0.3452627188699536 7.918091178274651 M18.45393404138248 1.7166112908490208 C12.033793174935035 4.607451272497904, 7.747229189122836 12.02027829915198, -0.987990365737379 18.882091741771422 M16.453177888576874 -0.8767433145502159 C12.295106607831936 7.143043427785662, 6.545191089876102 14.054950552556022, 0.26540422645452466 20.724641285386774 M26.69763050351645 0.29393471090079704 C19.04484049335142 12.798414648624934, 8.957982835886238 24.798476793418075, 1.6736197837727165 32.534502440698375 M27.438297508970162 -0.7332892946341323 C20.27923206947814 8.609563770245245, 12.403920723157807 18.047991272890165, -0.9689165121423118 32.96600517597542 M38.97268661289845 0.01838608747694437 C25.72240227405918 12.36254806269517, 13.777625827317946 25.792746777531008, 0.32535313645651165 45.55927242700664 M39.010171690655085 0.1882525656545706 C26.6353638713944 12.807673560126673, 14.760122205005938 26.164171345689372, 0.6140457803403518 45.343391426512504 M49.08100943327842 -1.424985261433978 C34.81084787783513 17.286780700072267, 22.12855904238054 32.69908552714632, 1.9315814887603748 57.562645243520485 M49.27376826355016 -0.7468797666553599 C28.661377597146167 22.067044862013404, 10.313857390489972 44.84018990754586, 0.8773190219759406 56.21078992365874 M57.851244292034 0.35193372984213145 C43.02605061088862 18.14514748054279, 27.61883491393509 40.329784521965216, -1.8497558167961436 68.8220162245353 M59.94896419293053 -0.46348558984836297 C36.75405236864506 26.736300113155817, 13.610643090229253 54.067217249105056, -0.4650937231443453 68.96619410109906 M69.76800442723605 -0.18365012981828865 C44.94637103140928 28.2947008313788, 17.535183498192172 61.55259118932172, 1.8953169059586816 80.87796423382662 M70.27301907443264 0.9184104644796811 C48.92102019945858 27.112373104517157, 25.677005376087365 52.9206873394331, 0.5925231306427254 80.4020567639534 M80.4376158432151 0.39520406870670755 C54.4801688684953 32.78543461573666, 26.586520425102467 64.89759574804145, -0.9559433245102937 94.22661943798231 M81.36170667624607 -0.10107425275823445 C52.206323676541956 31.21522296819338, 25.770827937077435 64.37727255330097, 0.5026945699064229 92.9433028727905 M93.55489220942077 -1.9007564499309186 C68.8316901733026 24.41576366835234, 47.11503230483585 49.923295097370854, 4.812990415376818 99.34754763846563 M91.69300292795515 0.9427070596665064 C60.618771063827275 36.234815683577814, 29.46055055297395 72.91652885739069, 4.498740540370916 100.40926182990383 M101.20331066024337 3.485087136885955 C80.8014088632164 23.318146323694247, 65.84880578982693 45.79998767860348, 16.555884274443912 99.36945693745848 M99.01858709464817 2.170906961843552 C71.10540815246046 35.751512980416685, 44.050935990008185 66.95143952074486, 16.249938383774666 99.26301277654261 M100.04705642058985 12.761370255885055 C83.47178820001872 31.558897812713916, 68.7104815986233 48.99879633999831, 27.482425983423845 98.85475607692783 M99.75750022496597 14.691930152275024 C76.14649347874878 44.018374908583176, 52.07036820190549 70.32013356777227, 25.099768686402058 100.12648569009507 M99.01929989747829 26.10582907013171 C75.83015425722614 54.04502077159239, 52.392700604870534 81.91697763634895, 35.97432019046908 101.36266631829285 M100.99850950395235 26.676703816787327 C83.48792803720904 46.279426979479396, 67.55463055846494 64.70401505598558, 36.21603199853941 100.56457430744824 M99.91956061138434 39.294065899899785 C81.2466833045529 61.69421849694065, 61.54942323654123 86.62809091850659, 45.172129861529754 98.7903241072996 M100.32921736418191 38.36326709731383 C85.16609066524653 56.80534348251885, 72.05908546457648 72.48659581983812, 46.14742733772998 100.78635753557313 M99.27682681308971 52.68958379189685 C86.58374069891185 67.1515053076306, 70.917742603055 84.97247330204083, 56.97458900071258 100.50022574110479 M100.54177177026824 51.805671715994265 C86.4540649562593 67.86591955345352, 71.75104956192312 84.11172315404137, 58.55905809451101 99.95747726675674 M98.00123921793093 63.58021534828635 C89.83206720311554 79.26558868757002, 76.84447590495193 89.55903289107009, 66.68983419702417 98.62967191857543 M99.44941470372859 62.66460538661343 C90.9858383651141 73.03229337246425, 84.22864510931174 80.90450397378899, 68.25961524786406 100.06729177753022 M100.77895734170707 74.27813094834704 C97.11702097242315 83.38922550040037, 88.56743116052245 88.97901105395752, 80.45363947250522 101.22631495758716 M100.26822279653388 74.89014756462643 C95.71997873043087 80.63815768584261, 90.92280100755471 86.48869606866896, 79.52331867300245 99.8032896050744 M100.99171018146001 88.29033734225753 C95.0624521192858 91.08227933916173, 93.7135393065761 94.98949960896755, 90.57075333628754 100.94184514668405 M100.3705267798055 88.33213436287153 C96.76968336458714 91.0988694547282, 93.9590926432487 95.58868539602211, 89.34503335909015 100.16435203989144" style="stroke: #000000; stroke-width: 1; fill: none;"/></pattern><pattern id="rough-3152981546883099" x="0" y="0" width="1" height="1" viewBox="0 0 100 100" patternUnits="objectBoundingBox"><path d="M7.22178007743044 0.983711018990236 C4.163251753649046 3.222598817977828, 1.7399991170631903 4.240041673644383, 0.6451472930993369 8.81332883960362 M7.121900037180538 0.3104504050344735 C4.1160322165837275 3.043622727098887, 2.0369825214630937 6.361802582090791, -0.356714773917854 8.287129255098506 M18.933825656942616 0.683504735353905 C13.823854494600285 5.180633104759608, 8.602526381469005 6.991962199286973, 1.8449000108278284 21.817745185478067 M17.675009667029016 -0.1670938409412881 C12.127434519205334 6.27839278239939, 6.900360877731144 12.672080201498185, -0.6197976318759362 19.12190310702103 M28.3698493662829 -1.1523626482203602 C19.472289360275532 12.442477673710348, 7.792000642714498 20.334913332622953, -1.7398203977830997 30.313493999342086 M28.341967731781416 0.10985467184117237 C22.060955525104262 6.886771685093521, 16.770776166748274 12.181471205186387, -0.803382242420656 33.018335601825406 M38.54434678071712 -1.4969146940983595 C27.0553938519155 13.286888962679594, 19.323039148935933 23.94128430952089, -1.5906985147929742 43.172878997872274 M38.26247971524029 -0.35211877226639077 C26.9813522319321 13.032765660683994, 16.004778580345544 26.775036527600655, -0.7605530269188896 44.35720742733357 M47.360837568562914 1.5918178233908584 C37.46088569099532 13.63104044062625, 22.94310597343359 27.900059712287195, -0.34040673561887846 57.57665614057442 M48.53405896286432 -0.7920437098572952 C30.88241842335475 22.395456804698615, 13.623000597428128 42.863755603668984, -0.7105179089664291 56.51848366685062 M59.881597730966895 1.774877149019571 C40.08630965348239 22.329728288146924, 17.359315716264657 46.57077840076783, -1.6353763997715456 70.33280733703131 M59.69087658829918 -0.030887117550353782 C36.650799820867476 25.82345896561562, 14.430515585225754 52.20458632575708, 0.4978121387055805 67.79641604967082 M71.23345438860042 -1.2374381367152125 C56.99090498446537 17.901339674443, 41.28759443371177 32.923061929977926, 0.5200324206501215 79.08106187803965 M71.21192587290835 -0.8680186769575315 C45.75400737902116 30.167250071705013, 20.784776269105507 58.3898765944133, -0.5762106215331748 81.27874643497374 M81.4249789825223 0.9727808123871169 C57.381030974390086 26.196779466431636, 35.310978237474735 50.50619178195632, 0.07169962371848992 91.8839190824524 M80.03649163852222 -0.5556384894337882 C52.44045799061166 32.8643745332867, 23.143608456000536 66.52437658095576, 0.32764659813703023 93.74642081572551 M90.80550813324142 0.7822546672296129 C62.31104469678776 31.48008748323111, 34.49021525594159 63.67035608659527, 4.9500671660137145 98.00911089880724 M90.95948188665308 -0.7188255909525543 C61.93850891163788 33.05538716818449, 32.94475705624607 66.06323380835028, 4.667669060100902 100.11930281914681 M98.71315935796541 4.055781740858117 C76.16778919063266 28.619758299142585, 54.21520207997904 57.9874059555714, 14.472997745535842 98.51406961876532 M100.40274614629016 2.399944633576975 C69.2439854151871 38.8883467071364, 37.122295653661666 75.00082509612703, 15.08541170218027 99.56524455566144 M101.81375833785339 16.25012429422546 C79.93145142476071 35.523876076251646, 62.895517557208706 57.186029633957396, 27.49220103585008 100.0287802636227 M100.58983632260433 14.367644926338127 C76.9148267560527 42.69706978838168, 54.033580893317705 69.64022939881093, 26.00319807744109 99.7157290582199 M101.31999489729142 26.58125317533449 C75.4174430525219 55.95092711509244, 51.783285365665954 84.28122709051675, 35.979410517550036 101.41807976349368 M99.7028418371009 27.826336743870705 C75.42230002844306 56.13842684873985, 50.7054410910289 83.75006681008745, 37.11526356734688 99.6364717193349 M99.23626886207343 39.923505202781584 C89.91470917917512 54.26654280759999, 76.14037850144672 65.39797836401362, 48.70173155447852 101.61478352222069 M100.30768839634739 38.192041171019945 C84.94255908694024 57.8147637204395, 66.98001147261242 76.62840445849488, 47.7943381880182 100.31145092248799 M101.9298561507704 49.990430383158305 C89.37762316810094 67.15745714709345, 76.58766795373681 79.71122699905082, 58.31129109044472 100.5836303249495 M99.02452270413727 51.30286304208885 C86.94525005421856 66.60493873644002, 75.30431410895449 80.98446526399569, 57.31425277349107 100.73673715204409 M100.80647966571284 65.48837593720965 C91.63122691490736 74.29084992160696, 80.83876152540422 87.06300466246184, 66.30173297268878 101.40633653075922 M100.69561850671317 64.18061774439195 C89.30892147967799 74.20003735147851, 79.0319176192685 87.71960282155447, 68.82190526142077 100.67414284983467 M101.29390209997213 74.66178767862085 C90.98091520913138 84.75978852004444, 82.00603570950653 94.62193708271224, 77.44424723435566 98.98927714633935 M100.06053239286001 75.20883686932738 C94.13335543801853 82.59068855652622, 85.82077139451862 91.05807140077476, 79.8265667370236 99.35686330469282 M101.51908992108103 87.68679639334455 C97.97365177516505 92.04996578108752, 92.0437420701652 95.62680783900264, 91.0391427576053 98.55966664939393 M99.80206750164912 87.18730337761757 C96.60532988163952 91.49765007497487, 93.474633041444 94.69732230854825, 89.70958529981205 99.60262394011723" style="stroke: none; stroke-width: 1; fill: none;"/></pattern><pattern id="rough-504775849655325" x="0" y="0" width="1" height="1" viewBox="0 0 100 100" patternUnits="objectBoundingBox"><path d="M7.029523075217929 -0.7158480541692821 C4.672641980584114 1.626281459556405, 2.943822020165552 4.329308432069072, 0.22360119222174601 7.715967477704087 M7.266331374097257 0.2718849167816819 C4.138463224244936 2.9131173724088146, 1.9132508452733648 5.008960933454475, 0.38459570284828326 8.106401272122797 M18.35885204491089 0.623844412584325 C12.440977689356417 6.531925000195625, 9.839421595629412 9.120892656224502, 1.625560783208753 18.06283177866442 M16.558707257382135 0.44216525138433127 C12.820611608812563 5.9021361440237, 7.387464075739789 12.314213387425799, 0.8218599473998522 20.788189198560573 M27.45032337852719 0.4682222204527884 C17.693440558513238 10.833940059152026, 6.191320059279187 26.40495747845238, -0.8060558134685687 31.592658911881493 M27.01323605859595 -0.8730732215738266 C19.858471391510356 9.514729920040025, 10.739028758257742 19.74205967544168, 0.06740987804781362 32.59884726488156 M39.64805265535599 0.4525840749068273 C23.56144743285275 19.568367828242824, 8.448505567343002 37.47794163865203, 1.4716613186275609 43.90021004757991 M39.11421976938667 -0.946906454155644 C27.212178004526056 11.797049028883036, 15.703088069055852 24.941150511871303, 0.02461381167813892 43.901459829499075 M48.37098400889153 -1.900665844169346 C39.1324221779859 13.451150558636243, 30.887698648676867 23.748869069151937, -1.976789175771465 57.81282554506945 M50.189925784478284 0.0053400241330212594 C29.790320662475064 21.446422797254947, 11.689878989345893 42.3296773723823, 0.7872200449166415 56.83033319980759 M58.87442074879424 0.6685568396542392 C36.644802076644275 27.15736495497009, 13.437641963225659 54.857407881766555, 0.3033225948854419 68.24766792604223 M59.191423359144665 0.9778980144743943 C37.00451168656563 26.477149216251885, 14.421521056197667 51.562404613536025, -0.4656286952329465 68.35600586765314 M69.47497724977845 1.9359754065628225 C44.17707976211875 31.131093906106504, 20.013896934504807 60.42145238041687, -0.9551263784751001 82.21983135474177 M70.24483908817497 -0.1800495028378899 C44.37795902610442 30.311542981903276, 16.807912210895438 61.787276583410964, 0.8603851708742916 81.42078898694324 M80.92531388158525 1.8548734908126763 C56.36430184902382 30.374536667681134, 29.948577859211078 60.41444086473139, -1.7810669278126916 93.0787160568471 M81.12290447400507 0.2441989607809969 C54.72587002340113 28.403873478667588, 29.686208604720576 57.41981826149508, -0.41211698603656055 92.32638973539169 M91.27608403262164 -0.5561340120423113 C73.10367182887758 23.6545735023716, 56.11867259638896 42.52760713442414, 3.0184771279085894 101.19871376885868 M90.7519428387703 0.9197262593344218 C65.96482768855218 31.755758277215907, 37.52090452117743 62.04416122219557, 5.289684541217763 99.61190258511319 M101.46004694676692 3.1498232495629326 C71.99101489731103 33.67701278262405, 47.921574907062485 64.65516750914827, 14.841939313993057 100.77112641368117 M99.26868238075663 1.531156083226683 C80.68348074871417 25.0610150985569, 59.92239172456696 47.64528750108754, 15.979697843924829 99.73682365102478 M98.91625574739004 14.933326643065909 C83.4956629897575 35.010650428426025, 67.88631224819977 51.60538415693785, 25.623933268424622 100.84040256594517 M99.30211686708327 14.106369138752608 C80.74831654066945 36.392275513338916, 63.37142813097557 57.81969305785144, 26.009933650131686 99.7471526743566 M98.70856321485216 27.064954220318235 C86.64343545714551 43.3711720634624, 70.15017015511175 61.20963453451663, 35.68186851412985 99.14917580816122 M99.05569315712904 27.779461477757234 C84.56867732075847 44.003217083179536, 70.82644248627881 60.676986667945094, 36.89046403527702 100.00035167723932 M101.94930921605705 39.766584159099565 C79.75791150070424 61.15631575337913, 59.270139841893275 86.2320593751946, 45.81216567454937 101.14660645711326 M100.58492357076864 38.71980885421044 C89.4381506004904 51.09393722259292, 77.99727173163592 65.36072944130343, 47.25140975161456 100.82810353535713 M98.91029751000617 52.939405668944396 C86.2009703962418 66.30608632279214, 74.51818128160805 79.67739816093483, 58.14719608471956 98.2215554870086 M100.14732618721655 51.78431452503259 C91.0799392665203 63.3018281210107, 79.63954291690422 74.57665711568396, 56.90476385075051 99.23113431556007 M99.89987740002196 65.331752868639 C87.54022842714393 76.14910467040042, 75.18301899839489 91.9148691524857, 66.59950747446017 98.87435348075594 M100.3580458411786 64.27329938331718 C90.27342536721234 73.83780378211792, 81.89634824603914 83.04523060216562, 68.33444796165821 100.66910824991443 M98.1235273671539 76.18713974040054 C91.17201409922214 84.2777730071326, 84.32026567945002 92.13431475656724, 79.74104281532239 99.88510758851419 M100.55718065537123 76.62843106908238 C93.31022580569258 84.26900154084201, 85.73670230916197 93.92229073946777, 79.03081116106975 100.8408312239494 M100.80528452323462 86.44109810383686 C97.199224571522 94.2635765724871, 92.90960500803388 97.91936890522504, 87.98352278677513 101.3973045646988 M99.95958885550095 88.00608965341358 C96.91143328659913 92.32450331175221, 92.91859194450083 95.58017832683328, 89.84485063255184 99.4818749462861" style="stroke: none; stroke-width: 1; fill: none;"/></pattern><pattern id="rough-8688058992760797" x="0" y="0" width="1" height="1" viewBox="0 0 100 100" patternUnits="objectBoundingBox"><path d="M6.689578249619984 0.7359493497243159 C4.5110147549395885 3.234853475948271, 2.1940600828776544 5.909232899942078, 0.6057762754271978 7.1841489558917955 M7.148057682949244 0.41949390433940337 C4.064694977850343 2.5499942062532175, 2.276612549829604 5.7064679109676675, -0.3733404971328009 8.007746893793273 M17.799363640361324 -1.1696712475693998 C13.041853739721448 5.0112533905466785, 9.319361203473656 10.421358300917078, -0.7832110328896054 19.642488411587202 M16.751431888242706 0.6184183252702784 C10.407006248247919 7.346217528445134, 3.78051551362029 13.715325948593328, 0.3827423593374091 19.136462517137183 M26.479350250421934 1.7044436872756679 C20.349547823028292 10.049393816937075, 8.726803788398403 20.528429839615015, 0.7374056539565421 33.39818433831512 M27.244762264534025 -0.42909175707279257 C18.251813372773643 9.457384148354485, 9.520941000428056 19.815842437549698, 0.33150142007999417 31.662289286488296 M38.52975353791824 0.116180529666428 C24.72470712331975 13.61462637779382, 11.46937030201413 32.15758415497027, 0.10105987314034603 43.9860825563211 M38.1100258473687 -0.19421993587294217 C27.186463924355966 12.44661406841798, 14.603978993371134 27.34738781983744, -0.2250743727364113 44.56085267526796 M49.86740065463917 1.1600023448412928 C29.475326544982362 21.55703706864267, 11.339725802352461 41.37087614309082, 1.018336393323227 54.985997463225395 M49.711832298528215 0.37036380813713654 C33.68119723355671 19.087877877772264, 16.19782458529166 38.41607692760882, -0.14745083800220815 57.55328817481494 M61.40247981965695 -1.6423315980188882 C49.05436146839722 13.90986963035488, 36.124880590383114 31.209223047675362, -1.6182035842638784 66.83219460509609 M58.96556019849283 0.7162559099155472 C46.31994952284584 13.278458754321278, 35.388121938499296 28.67748089370108, 0.8382372842333194 69.19960599509949 M70.37559887905556 -1.4166864822528256 C50.694341318401584 21.88112595897707, 28.77427937486528 45.68328413883894, 1.941922640783817 81.77193573196602 M70.28689709682001 -0.848881373015804 C51.95633196606779 23.331303194827765, 30.998585870982943 45.75765853695631, -0.6174491505725763 81.18852600057838 M79.6589935779223 0.6932923465344265 C48.675988413414835 36.089360246461, 18.403161099503606 69.40393355564089, 1.5165595883726999 92.8098754856434 M81.36608796928046 0.14061264852659994 C49.81271945463812 37.020122418463195, 15.697672428266884 75.21337445946226, -0.26399488611627886 92.64515262989745 M91.14921012937916 1.6379479048103507 C69.37343751642166 22.3961277901602, 49.055870040587834 45.375782396389724, 3.9222842262208273 100.35195545161928 M92.47045749490785 0.005471027079808177 C62.57436359668139 35.155715991955084, 30.921330077340677 70.22372818061962, 4.372637883581002 99.07610162297208 M98.87230593536266 1.9478702612467176 C74.6245336342481 28.857483842666976, 51.46580315799656 57.73207007342104, 17.052961308191247 99.82708233527323 M99.12357552058648 1.8223739339064178 C81.18309514913122 24.555114154833376, 63.30831774459435 44.394477570053034, 15.351075439273295 99.74597429950431 M99.21967501756045 13.307814273934621 C72.64811376666401 47.08082772765555, 45.92963164245573 76.01850943288699, 26.378707488854268 101.61143046478146 M99.49093835630755 14.325587421720467 C76.71306950606527 40.22249442129003, 55.25305730019222 66.63513578166784, 25.419151928724755 100.91745973037274 M99.74072537815628 26.63243995555539 C78.03260705231403 53.97519033987474, 49.90295243716819 82.73624927370304, 36.28288126927973 100.48154569669164 M99.21370658065327 26.057437205960202 C82.79454659810783 46.822516417185405, 66.36042646773821 64.72296867467317, 37.1241222448026 99.91429329295744 M100.94018149124702 38.44993493075711 C77.77110876051039 61.35949067416911, 59.93810146217346 88.17016920716462, 48.80786311670456 100.19605523154036 M99.60599953683419 39.94915761839704 C81.9122385898289 59.74241312078186, 63.636555263461204 79.77899327381004, 48.05448624321189 99.22150774230282 M101.8635025262531 52.0693762885937 C86.85216578461666 64.74594427556707, 75.22036737533003 81.30227700252082, 59.17375347791927 99.2525757202833 M100.58656785386813 50.46543040357208 C89.13128097260251 61.305999608445106, 80.35999646953401 73.27516714111306, 58.250099016367855 100.2507618935118 M101.38977814734908 61.61878317552417 C95.07731657961426 72.28055632253808, 88.07071395493506 77.54281110351315, 67.26395719261777 99.79632020289336 M100.66947359173783 64.45444426236416 C90.58010222444425 74.1160299156074, 83.29776850552574 83.64966543824605, 68.76060933252771 100.89600251158726 M101.5513335537239 75.32133956494076 C93.30096412830108 83.18141781508153, 87.41475616933295 89.13498719905591, 79.87459014513342 98.43595488678855 M100.17684469525682 74.93186671326849 C91.98022158671422 85.94067883292635, 82.65062248704558 93.54632624092126, 78.47641831808644 100.8862112041505 M100.24874231468259 88.38052440653948 C98.5649610157355 89.98245530213829, 95.20870366485316 93.65393049210688, 88.04068632615632 101.00484704697261 M100.0089424404005 87.3683663539246 C97.37699817916365 92.41397444154563, 92.67138283717658 95.73316921765007, 89.22682281601193 99.40054830411614" style="stroke: #000000; stroke-width: 1; fill: none;"/></pattern></defs><defs/><g stroke-miterlimit="10" stroke-dasharray="3 3" pointer-events="none"><path d="M 124 204 L 124 44" style="stroke: none; stroke-width: 0; fill: url(#rough-5946734285988619);"/><path d="M125.94699941314721 204.481671218734 M124.11212032929546 205.0590487995459 C128.07908903263242 167.6463037484161, 124.7506574177744 133.49832850378237, 123.7811971217505 43.34842669192122 M126.39459210937875 204.38709228108814 C123.47749854274733 140.6699579592453, 123.46258316727216 78.80498930418207, 123.87075407205687 44.35051734793936" style="stroke: #000000; stroke-width: 2; fill: none;"/></g><g transform="translate(70.5,167.5)"><text xmlns="http://www.w3.org/2000/svg" x="3" y="-3" style="font-size: 12px;font-family: Helvetica;" fill="rgb(0, 0, 0)"><tspan xmlns="http://www.w3.org/2000/svg" x="3" dx="0" dy="14" text-anchor="middle">x</tspan></text></g><g transform="translate(183.5,167.5)"><text xmlns="http://www.w3.org/2000/svg" x="10" y="-3" style="font-size: 12px;font-family: Helvetica;" fill="rgb(0, 0, 0)"><tspan xmlns="http://www.w3.org/2000/svg" x="10" dx="0" dy="14" text-anchor="middle">100</tspan></text></g><g stroke-miterlimit="10" pointer-events="none"><path d="M 94 174 L 167.63 174" style="stroke: none; stroke-width: 0; fill: url(#rough-771499014402841);"/><path d="M93.08351748584137 174.90885868235148 M94.56976715952374 173.12437742214945 C112.56714891011418 175.87148166327026, 126.79011245938541 175.52815915219742, 166.66735247961861 175.2348943631083 M93.91016485836953 175.70940084079996 C108.46077324057408 174.8686714486111, 126.4189525602278 173.53585392367054, 168.31556916293374 173.92363377980328" style="stroke: #000000; stroke-width: 2; fill: none;"/></g><g stroke-miterlimit="10" pointer-events="none"><path d="M 172.88 174 L 165.88 177.5 L 167.63 174 L 165.88 170.5 Z" style="stroke: none; stroke-width: 0; fill: url(#rough-843037870668957);"/><path d="M170.96784814862707 175.97171890827505 M171.1878144290584 175.72209030813463 C169.9668678548433 175.95716959165114, 167.9172728070557 177.28081336336032, 165.86562368525537 177.98335530065626 M170.98505310180965 175.74599535960112 C169.28464239386773 176.51667230033166, 167.51714511156953 176.7823084756981, 165.7341994782904 177.74181538481284 M166.18091482842203 177.80432126502674 C166.88042943124935 176.1879260141168, 167.09416253858296 174.68396063038224, 167.32618160162835 173.7280555049053 M165.87503760515324 177.51060924017096 C166.62429001912278 176.17318468440342, 167.17452002462647 175.03893732473173, 167.77747516677428 173.8134848385934 M167.67542426513563 174.12877655494177 C166.88086668723145 172.74585009657716, 166.05766960145218 171.3578583863433, 165.60524023154719 170.50705912980038 M167.76987588532225 174.1742151665018 C167.2174939229295 173.32544541188997, 166.8706929313643 172.12200276926322, 165.94565902251392 170.30844802095558 M165.15059058913056 170.95786763514687 C167.31813945478586 172.39278573787445, 169.60420866670466 173.37655122821843, 170.32725790250166 176.4144240857687 M165.72203483737343 170.73872577868514 C167.18544217955386 171.69258637344862, 168.28133428125227 172.78581613656107, 171.0080473473117 175.94206264432233" style="stroke: #000000; stroke-width: 2; fill: none;"/></g><g transform="translate(47.5,7.5)"><text xmlns="http://www.w3.org/2000/svg" x="26" y="-3" style="font-size: 12px;font-family: Helvetica;" fill="rgb(0, 0, 0)"><tspan xmlns="http://www.w3.org/2000/svg" x="26" dx="0" dy="14" text-anchor="middle">Variables</tspan></text></g><g transform="translate(174.5,7.5)"><text xmlns="http://www.w3.org/2000/svg" x="19" y="-3" style="font-size: 12px;font-family: Helvetica;" fill="rgb(0, 0, 0)"><tspan xmlns="http://www.w3.org/2000/svg" x="19" dx="0" dy="14" text-anchor="middle">Values</tspan></text></g><g transform="translate(39.5,127.5)"><text xmlns="http://www.w3.org/2000/svg" x="24" y="-3" style="font-size: 12px;font-family: Helvetica;" fill="rgb(0, 0, 0)"><tspan xmlns="http://www.w3.org/2000/svg" x="24" dx="0" dy="14" text-anchor="middle">oneMore</tspan></text></g><g stroke-miterlimit="10" pointer-events="none"><path d="M 94 134 L 167.63 134" style="stroke: none; stroke-width: 0; fill: url(#rough-1681864328931545);"/><path d="M93.06420365007345 134.20244746282566 M91.63063597942238 135.49556929312246 C112.11828694502148 133.04724871174406, 127.381126331104 133.27630458083283, 167.41245778693818 135.14961746146685 M92.44612452801405 133.6279275851164 C119.71973232025942 134.90379163196206, 147.65588843333663 134.14401912078804, 167.4659475015883 133.79750856807252" style="stroke: #000000; stroke-width: 2; fill: none;"/></g><g stroke-miterlimit="10" pointer-events="none"><path d="M 172.88 134 L 165.88 137.5 L 167.63 134 L 165.88 130.5 Z" style="stroke: none; stroke-width: 0; fill: url(#rough-5240105153645533);"/><path d="M172.56233047385462 132.1112202285474 M172.29826349209904 131.44478236657793 C169.60063138559954 134.28530882227827, 168.32228607553995 135.51277717968915, 166.51351595308168 137.29978007351494 M172.40132094498466 131.93315644025716 C170.63892147571192 134.13223164365087, 168.25683468235033 135.53147982101638, 166.00639771101154 137.7082647316196 M165.5218462568688 137.3061367998465 C166.4067453362792 136.58042746432585, 166.66104105071634 135.49382180879965, 167.68911921272692 133.8671879666587 M165.99091217839887 137.50087207057518 C166.30877438853375 136.40606109701983, 167.02181465608342 135.06373729561994, 167.51145892278814 133.9856787595044 M167.9663585296473 134.36460868960765 C166.76066177238252 132.7385535686813, 166.1038576612631 131.553752311812, 166.08666839393277 130.54624126530123 M167.73149736230167 134.01443442881245 C166.9985866719013 133.02751904039695, 166.49617972740572 131.9598627854164, 165.84699750900984 130.4578426008038 M165.89442360050475 129.8956701285549 C167.94997938342016 130.94777350032024, 169.79244069997443 131.08172820849893, 172.45387175165828 131.79236229149703 M166.00303712354307 130.544595006735 C168.6730649198005 131.45397292677973, 171.2179205859706 131.43662770892288, 172.6548421944136 132.15368322606972" style="stroke: #000000; stroke-width: 2; fill: none;"/></g><g pointer-events="none"><path d="M184.5645630865685 122.66803704335025 C181.1839867102904 127.83325834244177, 177.89500623193697 129.73256680948506, 174.33834144939922 136.36284457780167 M184.43481783110906 123.68006177156337 C180.93346728612306 126.50273420932626, 177.91103550448975 129.93028139365654, 173.81933487640532 135.3620478788945 M193.6107328487896 124.14068700736313 C186.68398057684377 132.67578257602378, 179.05499257590012 140.2585787832452, 175.07666992180168 145.22256121657836 M194.07397026395122 124.82624331495698 C190.5573543316813 130.66311566863638, 184.67160486592098 136.0425555888058, 176.76462520239042 143.4524613616994 M205.92506395970972 123.82786688475359 C197.75409625921952 131.78776039427288, 191.22673619788566 138.39993388265069, 189.05674672610465 142.13807209429206 M204.58643704112072 123.42238433603045 C199.72538407007144 130.46080690161074, 194.47886876945083 135.71822155113838, 187.7938892783863 143.68586488686321 M217.468777856384 125.79750956717278 C212.2419618923234 128.23572871487403, 206.1162207010726 135.47016537762804, 198.5397108471744 142.08815191765507 M215.8757896806808 124.01340194401445 C210.79750300211646 128.80510881006376, 205.14858910338324 134.23169380226528, 197.624860185982 144.95501250523293 M227.93399307449047 124.14994280371323 C223.3123667884135 129.15362225327337, 217.8109293050499 130.53712190386028, 207.37467619050676 145.091828224866 M225.2624103674718 123.62688350427123 C222.749361800575 128.4938101310503, 217.55719391534137 134.5748733517935, 209.29953838294958 143.18783934184643 M237.79261183367512 122.94471331726581 C233.34161850090186 128.93449556821878, 228.29615827194536 134.16881044027988, 220.59251973918373 142.6224433162499 M236.2762949771195 124.73513345301794 C229.67219243608372 132.0944221929167, 223.7063573850021 138.8692530964162, 219.19305967386853 143.4342434200644 M249.33448494839325 124.89740149298669 C243.30755511161823 128.31226155400395, 237.2629492877823 133.81130710311115, 231.55149751983416 142.70639184883296 M247.439555534195 123.54747228823038 C241.60789768666177 130.9629438071577, 235.67883386087468 137.62467719475717, 230.9257002009497 143.24423071802784 M259.67233348083477 122.52317238770323 C250.71389522224493 131.42908679047648, 247.65719322657918 137.24238869617975, 240.31592427935658 144.12109637660475 M258.55675298084003 123.36248909425514 C252.79849396718856 130.36071255668452, 245.4060579044081 137.81200520458222, 240.82584408105106 144.57191040966978 M262.0504225328218 129.2473823090811 C259.6281397873363 132.99833211664176, 255.15964333105572 139.41569269628977, 252.87711782614542 143.09817230509685 M264.85287215106905 130.0506090242086 C261.3088575928396 131.64787376749635, 258.94166139120836 135.02252560098188, 250.8327143802959 143.56928932356155 M263.83924605819067 141.76144533557212 C263.2295787568161 142.3103596714901, 262.8469443661271 142.68499431069353, 261.6309757496742 143.85313091474296 M264.12067387848856 141.44400825840418 C263.12888892622186 142.15195795154202, 262.71864042296033 143.051994067464, 261.8727354446355 144.0322712666913" style="stroke: #ffffff; stroke-width: 1; fill: none;"/><path d="M172.80818371937147 125.16838743694407 C202.282259561235 123.80956950426459, 229.12500318398148 125.63403995242315, 264.4566393071859 124.37606089345988 M173.74610723077853 123.76045776133164 C196.96817856263286 122.28401918978982, 220.64215967381998 122.98087225155884, 263.90706991567015 124.3961552682725 M265.3855515605124 122.29078505937406 C262.8945189620652 129.69685278883662, 263.116811400153 134.75630340278045, 262.4395111111461 142.01398603022744 M263.33150189823857 123.70195940049358 C263.3891223004812 130.00821476597028, 263.09638246837886 137.66539695976127, 264.86866964024813 144.41036062621737 M263.3139450130178 145.4254586745259 C231.71984617518427 146.77567639123126, 197.47215076140768 144.43190422681073, 174.82181004891356 144.75437147641145 M263.18682770873284 143.8904760487387 C244.1247725229575 144.81739196932364, 222.1498885534248 143.9758947677096, 173.32977503878365 143.73142238789495 M175.0161385668311 142.48745827174912 C173.27352947507958 136.86448594643264, 173.83697957697578 128.96823708826756, 175.29760267637366 122.96004047739281 M174.66292421039952 143.72954262056976 C174.5331617531946 139.36957332581156, 173.7013272443898 134.0478580869507, 174.04538329632263 124.95672555132786" style="stroke: #000000; stroke-width: 2; fill: none;"/></g><g transform="translate(178.5,127.5)"><text xmlns="http://www.w3.org/2000/svg" x="40" y="-3" style="font-size: 12px;font-family: Helvetica;" fill="rgb(0, 0, 0)"><tspan xmlns="http://www.w3.org/2000/svg" x="40" dx="0" dy="14" text-anchor="middle">...instructions...</tspan></text></g><g stroke-miterlimit="10" stroke-dasharray="3 3" pointer-events="none"><path d="M 34 104 L 274 104" style="stroke: none; stroke-width: 0; fill: url(#rough-3152981546883099);"/><path d="M34.177690060515644 102.69873290754633 M32.25894050619174 100.95181382039426 C100.00436607928162 103.3030625626132, 163.7424097300373 100.3648870599927, 274.8101215891118 102.13925337335836 M33.37936386107959 102.20376925388976 C122.31581538324907 100.5632331189818, 211.8257878693119 100.97893832430108, 274.57340995005 104.99777030659942" style="stroke: #000000; stroke-width: 2; fill: none;"/></g><g transform="translate(70.5,67.5)"><text xmlns="http://www.w3.org/2000/svg" x="3" y="-3" style="font-size: 12px;font-family: Helvetica;" fill="rgb(0, 0, 0)"><tspan xmlns="http://www.w3.org/2000/svg" x="3" dx="0" dy="14" text-anchor="middle">x</tspan></text></g><g transform="translate(183.5,67.5)"><text xmlns="http://www.w3.org/2000/svg" x="10" y="-3" style="font-size: 12px;font-family: Helvetica;" fill="rgb(0, 0, 0)"><tspan xmlns="http://www.w3.org/2000/svg" x="10" dx="0" dy="14" text-anchor="middle">201</tspan></text></g><g stroke-miterlimit="10" pointer-events="none"><path d="M 94 74 L 167.63 74" style="stroke: none; stroke-width: 0; fill: url(#rough-504775849655325);"/><path d="M92.0835819936042 74.73264233270025 M91.65331985948264 73.81892789873972 C121.91892704756063 76.23515598997741, 151.24024044467117 75.97187492817719, 166.1808955237856 72.32729382012789 M91.14843544756374 73.91286410564025 C111.77254433139105 74.51795310003196, 130.4212255726693 73.44818606779762, 166.7662486393746 73.47747074702323" style="stroke: #000000; stroke-width: 2; fill: none;"/></g><g stroke-miterlimit="10" pointer-events="none"><path d="M 172.88 74 L 165.88 77.5 L 167.63 74 L 165.88 70.5 Z" style="stroke: none; stroke-width: 0; fill: url(#rough-8688058992760797);"/><path d="M171.52532915931064 75.92448804940673 M171.71360668281065 76.08748248875997 C170.8885491713931 75.87506538370293, 169.24563444631826 76.720413390244, 165.94306458858824 77.5130311021704 M171.47382250379377 75.78684745197405 C170.03852615223948 76.67759079481272, 167.89596409953253 77.14621300999912, 166.14909148872843 77.39586135539541 M166.00864415592847 77.29830825644329 C166.67842331572237 75.89772452992871, 167.55033034007047 74.93517320699425, 167.9703275133771 74.31738135714407 M166.06076109598575 77.36460739415601 C166.32386195305313 76.49548420638804, 167.0851238645759 75.08427879000476, 167.55672741646325 74.04299762730922 M167.87428408365213 74.10637302278595 C167.13989548557413 72.97587172547229, 166.48571109842115 71.49271879760002, 165.53138352159206 70.58625897598532 M167.63640333832674 74.05208807604117 C167.14417036981897 72.84190876960146, 166.31835416132142 71.64594206599777, 165.77065035423342 70.31378613176771 M166.15422689679306 70.8222085547714 C166.408903771431 70.99751036014433, 167.83709445459536 72.10314982585486, 171.49806287835636 76.3165223913027 M166.1473107894999 70.3175348492501 C168.0061634332355 72.51571308458023, 170.119254164578 74.54297611619506, 171.71471856073762 75.67745688902039" style="stroke: #000000; stroke-width: 2; fill: none;"/></g><g transform="translate(-2.5,147.5)rotate(-90,16,6)"><text xmlns="http://www.w3.org/2000/svg" x="16" y="-3" style="font-size: 12px;font-family: Helvetica;" fill="rgb(0, 0, 0)"><tspan xmlns="http://www.w3.org/2000/svg" x="16" dx="0" dy="14" text-anchor="middle">global</tspan></text></g><g transform="translate(-10.5,57.5)rotate(-90,24,6)"><text xmlns="http://www.w3.org/2000/svg" x="24" y="-3" style="font-size: 12px;font-family: Helvetica;" fill="rgb(0, 0, 0)"><tspan xmlns="http://www.w3.org/2000/svg" x="24" dx="0" dy="14" text-anchor="middle">oneMore</tspan></text></g></svg>