<svg xmlns="http://www.w3.org/2000/svg" xlink="http://www.w3.org/1999/xlink" version="1.1" width="239px" height="150px" viewBox="-0.5 -0.5 239 150"><defs><pattern id="rough-5880123518882217" x="0" y="0" width="1" height="1" viewBox="0 0 100 100" patternUnits="objectBoundingBox"><path d="M6.047052193421312 1.0150804626886956 C5.175455251110108 2.8263128816895113, 2.1914745667547173 5.663763750891032, -0.9167385848839603 8.440204673851337 M6.928889305365671 -0.2815824760486765 C4.731641447945552 2.181002343529612, 2.975791347458094 4.781107789334056, -0.0876127367947298 7.391837130041454 M15.501087567664854 1.6502938076132274 C13.206813570795017 5.314129341541878, 4.878449410588711 11.412263675808617, 1.417152385084421 21.350486678221934 M16.80298861401863 0.4330849720899197 C11.80952182644887 6.219532670090713, 5.604311530394588 12.315463075487862, 0.0436023695935277 19.24279441963805 M26.53457326500184 -1.5457529386561601 C19.677442857181283 11.479054901236953, 12.10361440891176 21.35709259510233, -1.8048920518059726 31.220028473910588 M27.314997815261215 -0.5639867010411135 C18.018418353219452 9.933311422027568, 10.102576771496969 21.124445943230995, 0.32643486130137633 32.863403466350164 M37.8859318002161 1.0176354279530022 C22.274088080442123 19.07674785234434, 7.046277218048731 35.512753304352394, -1.8668421313539465 45.338443903202695 M39.18305791356444 0.7895364350948921 C25.980196018234494 14.198061835580592, 13.131096536330023 27.77339317084241, 0.9852619081356138 43.97969556793575 M47.52515248162304 -0.32623234355232444 C33.85397486361865 19.439281560743357, 15.692757510268253 36.97022915542858, -0.40282093572732425 58.18509492799069 M49.61929196124089 0.35889266683551924 C38.44099414026142 12.557694439006491, 27.422877690582716 24.33478625120807, 0.050827980592675015 57.590301238276865 M58.61466201591847 0.7673563518860957 C49.171381581728326 13.855962831195777, 36.543379742054604 30.0406101601418, 0.7877205616739769 70.23293559276046 M59.006205910171 -0.10893699593793249 C46.345121006150976 17.099985134959084, 30.310161635085777 33.4854630563354, -0.6759421237664918 69.42503965412646 M70.80313831361815 0.08378938191925211 C48.91515421743638 24.499943451376218, 28.644098983088117 45.585159493757295, 0.8538387754833439 79.35242992886651 M69.76364534406564 0.34427247837292185 C45.449385783661036 28.239432590718934, 19.722102399132694 58.46141636409846, 0.8112031645371811 80.45022997670719 M82.06357084600803 -0.17530683114634726 C55.60643133355631 26.940461947609993, 31.651298862188167 52.379849872079504, -0.24977640306326432 92.4093503883494 M80.7541215409286 -0.9651466898914385 C50.30876785832948 34.47504779131774, 20.378685196671793 69.34481067454125, -0.2574420806297262 92.46415628514178 M90.72376209835674 0.31116259323384643 C67.15804246383136 28.58517899884132, 41.01041994287603 61.79669755379537, 4.841849787949539 99.32283969548348 M91.74297808458535 0.4449722452059186 C60.331323241633996 35.63745866833815, 29.394747292988935 72.80737512833026, 5.011201451579423 100.80461145144163 M99.15965784172755 4.091454447648363 C74.78579044031696 29.251002046315154, 50.75651695144293 61.42176299204468, 13.880764718125533 99.60190262773565 M99.91708940223349 1.8401429037846628 C66.84246917070654 40.10813877490286, 32.67040337569143 78.88621906515428, 15.52894232409354 100.07579995643202 M99.5267386749122 13.985035963557984 C80.16096438371657 36.96712381839414, 57.73177023236699 62.39474402781913, 26.866654010789983 101.68918282727572 M99.34243410469766 14.442862215300881 C71.78569974813954 45.490960581746, 44.346774610736425 78.4563507068656, 24.99432062189848 99.79473205483666 M100.58337869644714 25.355245831690386 C79.4445134782118 52.803302227158646, 56.55348075055061 76.13124645459591, 36.0217128638016 99.12545035020442 M100.20883271624719 27.317404650611486 C82.25682824671641 47.341953287867575, 64.33679308709267 68.6072260839415, 36.40920146645129 100.72714093840712 M101.84710972013639 38.25563728399924 C82.38043261319059 59.11739968065413, 65.11420066252806 76.03128732250285, 47.72687598054013 100.79179241107649 M99.60514555795312 38.24904621854184 C85.95343137203128 54.54990060309839, 73.27453929795004 70.6794813437744, 47.29959350027901 99.80160746446379 M99.21157761262022 49.485272027801244 C87.45965021642867 67.8801745565798, 73.97295325246125 83.12092867454501, 59.004700304525024 98.17512365639043 M100.75621741188615 51.67733571448159 C85.5711242906463 67.77749798208812, 70.43306220827634 85.16227333839716, 58.52063758828698 99.44838249522479 M100.3813922287318 61.98941813466812 C94.53914743465302 69.42578021647584, 88.48221146897245 77.07215773547867, 67.54391943759337 100.8944720520124 M100.46483589994331 63.72577238273547 C88.17590160796136 75.94363866385055, 77.63682427051874 88.70317418113763, 68.04410684524528 100.36502846919338 M98.34738992974899 76.98787090953658 C92.84495071491702 83.88516151757821, 85.0380298194319 93.59212159370452, 80.01162299049923 101.04789477612375 M100.16048735775247 76.16721231885678 C95.17604155115136 80.06276216039245, 91.51779193706798 86.5278877890544, 78.9354147178126 99.95335447775314 M100.15420460790098 88.91291978331019 C95.02306989215052 92.24582824394308, 92.13939620915518 96.14076341426917, 89.96088726269322 101.0386407373422 M99.6785075897651 88.54274797688555 C96.02865294180238 92.82255133112555, 93.02655755984449 95.78299042155466, 89.89293368035922 100.53946708159286" style="stroke: none; stroke-width: 1; fill: none;"/></pattern><pattern id="rough-3259965991066179" x="0" y="0" width="1" height="1" viewBox="0 0 100 100" patternUnits="objectBoundingBox"><path d="M5.793770439413295 -0.7058797264114687 C5.710374240092993 3.331695658134502, 2.8663664676023615 4.30894404972229, 0.3185123057957602 6.953908755015968 M6.321382804852762 -0.4080191539238467 C4.288046063942895 3.0443400028907432, 1.3810649282971654 5.507748043174046, -0.3948724086710558 7.568634010836116 M18.910745238026664 -1.3823591056972253 C14.275277997731976 5.660926778920706, 6.727575885235511 8.385460055020637, -0.827412306728041 21.097482048987025 M17.21655093652154 0.5456158147597336 C13.183617391237304 5.810986505958338, 7.14885353227653 11.2010193938152, 0.30085412410594436 20.42113952503726 M28.08420412670917 1.3997322108891925 C21.975467717621225 8.66526298763079, 13.46670796815562 18.92918817981225, 0.8768104503189749 32.106926556107084 M28.973812181752656 0.1946530676262337 C21.797101709525414 7.703692156135845, 15.965395779942886 14.12899560610603, -0.014827954190274273 32.95588191967583 M39.413965605117156 -1.4318454226931783 C31.850509032100547 9.817559932827342, 23.732344589908728 19.84156578836909, -1.5453008459941504 45.33058814826145 M39.26635366477976 -0.6475206282137163 C22.787797080655448 17.89211573694018, 8.195380220019368 34.684950243519616, 0.737572569489096 44.346372762631034 M49.34658720251591 1.093710031633976 C36.06303112463746 13.24879523125766, 24.16699865327384 27.269742906134496, 0.2507716985137911 58.402390033616335 M49.88379608207193 -0.6518308764198899 C35.41741840972077 14.013924205352772, 22.24568886709003 30.24488424036567, 0.807611102486594 56.88152635182006 M61.769586724743895 -1.6791180007119104 C45.759018200385576 16.477583237838836, 33.6178527884835 31.048806135364064, 0.2814230663235868 66.98446758609028 M60.555306900510736 0.6117661674954697 C39.62770247130889 23.812689884213576, 18.422349120244633 48.22217333918392, 0.18051547010190871 68.64624842962918 M69.43341447623239 -1.2614400278213358 C49.31329443862881 25.67994857272295, 27.543278629303117 48.455077171472716, 1.0065513973652225 81.94363137713191 M69.5053421145749 0.3575059701006622 C51.13818446101257 21.919338361510114, 30.904362701062855 44.618040565149364, -0.6104490484148344 81.62812357926651 M80.14080518532577 0.44826846272501175 C64.46879317474476 19.471180815819665, 47.181389214495624 38.07093820189297, 1.7867347783487935 92.22021360967943 M81.35745163207407 0.025749651439513244 C61.29626170870773 20.30216088606071, 44.70956440036849 41.10500029373924, -0.8207811637355031 94.05327941703626 M92.28373206088855 -0.8510197704392706 C61.08805287239108 33.346493946174604, 28.464016680219096 71.34926802260648, 5.4094042399236395 99.82542923777359 M90.60046738884607 0.6618144621585107 C67.36701028857193 27.881817126025823, 43.70175989582988 55.659007229619455, 5.287422836154477 99.37896404313345 M100.84930745217953 2.374995401412181 C82.56742427880418 22.829922514692083, 63.33638383234853 44.34204439481962, 13.56406217090018 101.4220025651338 M99.21788207557233 2.1240143972059706 C68.5847152244744 36.32807661178459, 39.41054901072352 72.4297394883624, 15.078521161902941 100.78855549079054 M99.0457632953309 14.139962965268811 C74.95782335892947 43.03096700983787, 52.93719254699494 68.89077857616002, 24.09698338214283 100.96243904042852 M99.15958514414027 13.79531329925816 C85.28035710177647 32.66686453348108, 70.35522282801006 48.514061375964395, 26.469769608020375 99.07410895663688 M98.99572362290806 27.807691147025366 C85.32860131905305 43.04977907567327, 71.13136235509648 59.2877167729255, 35.56368128589657 99.63309641437544 M99.32558864561017 26.095693249522444 C88.17648054946592 43.43624711830655, 72.87013366096213 59.12421657705542, 35.7507282892562 99.30961868624584 M99.893470266163 37.90846515904769 C84.18762688435736 57.82374480983378, 69.77370658294693 74.29280666974311, 45.507726263327044 100.74447251826925 M99.74561921714765 38.81274836034365 C79.77258459427456 62.21170950486129, 59.18362724139498 86.18830989231529, 46.871004306332004 100.60024321083824 M98.50836407426016 52.05413421759558 C88.79458089005199 65.35753699866486, 79.03529889366774 79.05680090205915, 58.27283504686865 99.68963611893224 M100.29281366950745 52.3044519962871 C90.74455010107647 60.8395429995845, 81.88213675444642 70.52186637529871, 57.43707663386839 100.1435915054134 M100.67667482899564 62.42067099604749 C92.97486164821441 71.28458096803726, 85.8279004905737 77.53094603693513, 68.57251444136271 99.86114366136306 M99.02072306586395 63.766845181792185 C91.58924578951269 72.15109007761129, 86.08137655523058 79.73186139358025, 67.82958961768975 99.40557311386054 M100.46326579600343 74.89822952562763 C94.88773107944512 79.30873627811387, 91.09564135018081 85.88077046875158, 76.95560311392413 99.40922124236822 M100.60020754240641 75.42095174008612 C93.43746358464101 84.38763507659966, 86.44119899120665 91.72926050630122, 78.96964096428492 100.34923880072311 M101.16165312274744 87.94638785259139 C95.61262396969227 91.71970285108982, 92.80171648511289 98.36508340137529, 87.9204328867275 100.70096075439871 M100.505822543163 88.15547482632137 C97.8363553056626 90.62563518594132, 94.49932223467383 94.16095240503518, 89.65928892485324 100.65637554133629" style="stroke: none; stroke-width: 1; fill: none;"/></pattern><pattern id="rough-4744980064794621" x="0" y="0" width="1" height="1" viewBox="0 0 100 100" patternUnits="objectBoundingBox"><path d="M7.015042446686095 -0.840421313034656 C4.523070579669807 2.9405327095958205, 2.3184683887033026 5.6022990565949256, 0.4169242095832124 7.33002798930756 M6.835372410514189 -0.4168360304024183 C4.911743495971242 1.6872275024074939, 3.2595945419845336 3.974389885562001, -0.22242081888433707 8.08350665118883 M15.83039338396809 -0.07829552407562446 C8.936709883170202 6.6638728717151565, 5.719898854646917 14.824797993726925, -0.34828052440612645 18.553157948042667 M16.78340211034726 0.904206305640685 C11.983435620495031 5.7248034108550385, 6.462391514920764 13.217720017891187, -0.2626879284796404 20.06512273405816 M27.17868073015263 -1.0506525353198253 C21.945119744086266 7.238565307180071, 12.531804713079943 17.73887319979354, 1.9947280352850676 31.506047887132052 M28.82720111561466 -0.18830446476448115 C18.359586403802588 9.807383330691806, 9.534991442361717 21.382142475560915, -0.43692840540020716 31.962049886847854 M38.192693775382395 -0.25859946169631165 C27.13829875269434 13.332869099674006, 12.335141189932793 28.701594650978638, 1.7877732205107124 43.98180281950349 M38.10180950913796 -0.4291574152663622 C24.960058225961696 15.024597646902416, 12.095005744479788 31.19197936481127, 0.2898385109029826 43.47918888318704 M48.276034991401886 1.5294271478621084 C35.851727883746534 14.666643125303551, 24.112276851085927 30.271572502234854, 0.3194980377666372 56.87743996777815 M49.906495244124706 0.7061703036448437 C31.278463341890905 20.602507444475133, 12.33332229909862 41.78713594330516, -0.047368464085915996 56.21670085670298 M59.47911614074323 -0.9815450031090514 C40.94311856794625 21.810641381519876, 19.06124385923274 48.149869553686464, -0.292385992710571 69.06548414720058 M60.11918948161388 0.6381862469013386 C40.47276343548001 20.41165850917498, 22.73029488291871 42.79911719508452, -0.8481639712579767 68.39343873486868 M68.43227401035544 0.8273732264767863 C44.69691179127207 28.10859623874982, 23.847725585085037 52.60289369554924, 1.8628087456753732 80.30380532568725 M71.00353765153018 0.7897558873081811 C50.67324139384283 23.425961953716232, 30.7563644061916 46.11239835996179, -0.03146781389363884 81.9075101914799 M79.73148866211206 -1.49428447366929 C58.80163091441089 23.117001213870413, 38.86742572520335 50.03873842272995, -1.9219199973192849 92.68205408301193 M81.50895772604434 0.38818688660247425 C50.29489612871028 36.21321442738073, 19.756514812351735 70.55054345676687, 0.3678949852980171 92.2682426650493 M91.15143947917086 1.6844135748800104 C65.38691388495491 34.09730918614614, 36.17574907254621 62.48184537686344, 5.779958959589826 99.4242237414316 M91.54094716517967 0.1782367757605856 C65.8284971100675 30.440058623520553, 39.59284633715102 61.00911339705753, 3.855289175670957 100.06933598621323 M101.2019102431379 0.6499179141467994 C73.30022308881402 31.562253954064204, 47.33655686542673 63.30846498933962, 16.614783802209484 101.75674852310839 M100.49813120768302 2.529679597363951 C82.42147963414578 21.788010636492604, 65.43767696224353 42.480250713191815, 15.968639773505647 99.07901557186797 M100.634388809992 13.76848198497219 C78.2362476097359 42.37975695770967, 57.41464817795825 65.09915616635575, 24.78837753927389 98.08479355123035 M100.94369753627653 14.641183804655386 C77.26429819306006 41.65910663320124, 56.49491766163888 66.0370107206841, 25.4438814939701 100.48891251881508 M101.91575545200533 25.38706003195665 C72.72700842089671 55.224229270472456, 50.67167063759834 84.8925356517433, 37.669116409832185 99.83954121084787 M99.98052149834675 27.538648940328095 C83.22915276017588 45.611857168050264, 67.50484714699537 64.43331049632886, 37.41501237975748 100.24347228112728 M98.46926974571409 39.49824544521356 C79.2731290767559 62.278715621107516, 58.513338205738435 85.38988004998994, 45.79189966833418 101.01850427261891 M100.35919245394848 39.56446110082299 C90.66310990434557 52.366611288728016, 78.40998121829003 65.00368270535805, 47.97227606691851 100.89950493417253 M101.11223988640285 52.215128475752564 C87.33704459483268 65.86456725910583, 77.33142847990271 79.04322842522028, 58.42597190957409 101.386388257309 M99.81331867603659 51.92260889397906 C85.34871355106009 67.73028536880112, 69.65184344633684 84.7346385873762, 58.65485664016638 100.74381966437893 M99.72172362309259 64.63070228405047 C86.93165812560635 75.1765472430595, 78.26479522992518 90.31233688332952, 70.26537252639841 98.19926757956985 M99.61094321131353 64.46541292292848 C93.07743123951299 72.37564297021184, 86.20465905224918 80.48062316550565, 68.4964686289643 100.47506740540803 M98.8364309497795 77.30553369428073 C94.02277817612784 81.98805159266436, 90.18230311930202 85.12335016968666, 77.12186782663798 99.97879434353096 M100.71327994803606 75.85902437468762 C95.83594460489736 79.83349399759894, 91.75026904626606 85.031045604685, 78.56201231816901 100.47752609426303 M101.42031630639734 89.40784290391402 C97.00708390947584 91.41127659620848, 95.96160133943081 95.50150836259432, 90.00145705775236 100.78088910198676 M99.81575277338146 87.87649853760918 C96.78320207021977 92.67823772879183, 91.25296089720032 96.9585716855446, 88.9593130156193 99.78836277729549" style="stroke: #000000; stroke-width: 1; fill: none;"/></pattern><pattern id="rough-8016735801453343" x="0" y="0" width="1" height="1" viewBox="0 0 100 100" patternUnits="objectBoundingBox"><path d="M7.30614808868456 0.8210376365409309 C5.219965477230599 3.0305935778900825, 3.479043935334089 4.015664998097492, 0.5188891844739252 7.920043478743969 M6.79214262247891 0.45659276352511335 C5.084633749257133 2.3766801909741564, 2.0814498832663464 5.28066671828592, -0.45599224519896137 8.20433285880068 M18.709499516827275 0.9757319888438429 C9.345588641081491 7.106558645325674, 4.644683039197293 12.637016109534647, -0.9222982106279041 21.538259047143956 M16.670233489544298 0.5526201395545356 C12.504040411162263 4.481571384732144, 8.686712153266262 9.942354836681915, 0.3966379277634182 20.95045360665561 M28.375082900994716 -1.0388091574459475 C16.382464981870744 10.800627702176017, 9.231330274271922 21.37536214706612, -1.93920077260651 33.145244943896344 M28.569241083284076 0.22917100813865865 C19.276644388448318 8.734310925532897, 11.40624832298678 17.61729631381474, 0.894482104907186 31.75041597499827 M39.04143172969383 -0.16341823390049637 C28.335702798404057 11.416023597470108, 16.61774115232003 24.243476607949244, -1.3655521608046017 43.22062069438652 M38.796400992301194 0.140000798430838 C28.804800357241497 12.098303907955962, 17.850138229071764 24.901351945122364, -0.5728448351221305 43.71371610721833 M50.1468590575028 -0.28645010655733305 C28.709983326623494 23.483734180927406, 10.335260747672276 43.44417438140273, 0.034004658618785655 58.111552058737225 M50.04896238672059 -0.6203069723085544 C34.36057872058931 15.079973451999745, 21.146876988888895 31.971309075645152, 0.21008936370116071 57.284098485684865 M58.5851005306809 -0.7299426282856478 C39.776329383704294 24.919864838943326, 19.593799933621476 49.61236628094866, 0.4039281224303819 68.80605233371566 M60.6784163918615 0.9064935336350337 C43.393093627797334 21.312789961919872, 24.56678590557807 40.41179828074166, -0.6360940403726212 69.43018699004736 M68.89465107877169 0.9886553655700965 C53.984941957431694 20.743997399233514, 40.113512331834244 37.399184097150176, 1.4590642072854711 81.44252332697206 M69.63045025451126 -0.44000403027526236 C42.611089764790606 31.26715596688153, 14.350164670485892 61.74133291988226, 0.013651187018024036 81.79020589975958 M80.4308346962017 1.7818789090918 C49.786553428332574 31.36322607341625, 21.04546527244428 68.14329086401048, -1.9351577982963848 91.2686889387133 M80.22838406465354 0.044319438661319044 C59.19774477292762 24.181448498957323, 37.50690430590561 49.837675755644796, 0.8812619595842408 93.21563934368523 M89.74237283228396 -1.4457956832538024 C71.06689361776945 22.547088569879072, 47.52547981476825 47.10126599581034, 3.2369127561361566 98.27878430537845 M91.361723091317 0.5625135430935826 C67.04392919263799 27.513203046781037, 43.541908382717736 54.25946284275521, 4.006919935820628 100.4617156617241 M100.22901058099492 2.4871966071287908 C70.19249972771078 35.039589758093264, 44.86094255055626 69.06275347415595, 16.150560103929656 99.84119331188762 M99.90778058334578 2.7891946837286 C75.78570155923727 29.860157902312793, 52.00076630851028 58.56299844751271, 14.407073338493044 99.83975156086271 M100.6000230615178 14.185693785276065 C72.11455108065937 46.15435688372296, 41.466147288145706 78.237380819547, 24.74491277105339 100.70846831604284 M99.60993371006947 15.702767477151822 C75.77452394651763 43.30807005734598, 49.84641901763386 73.74751430667841, 25.73785457372998 100.79673483879745 M100.62368097231145 27.669440021787942 C81.32356070449309 49.82461245308753, 60.47035359442822 71.37444404832476, 34.920348757156326 99.16037907545277 M99.46088934128245 26.860286964581416 C79.73748731503814 51.19778382622539, 60.831979421599016 74.07165428675363, 36.191915105493344 100.9005550143899 M98.95764974250338 39.28422854845017 C88.95426170899938 52.32242101451811, 73.34698313543932 66.38871532620752, 47.46763579899454 98.38364096001469 M99.53359088736045 38.358163860067705 C88.94685506134051 53.943596650960814, 76.72584337959918 67.4183916226257, 46.8567688809435 99.90853590193022 M98.03772132717566 50.01892959821101 C87.47047187578244 64.49956399363471, 74.81786903761117 78.1381425893592, 58.786482392838295 100.8334997402009 M100.55454705637733 51.883069613549566 C87.52981033793202 66.70126497160537, 72.80002846120578 81.30025169086328, 58.48436383041539 100.85479048070431 M98.43403875421461 65.1239837314246 C91.90313284262491 76.0705588664169, 80.04720083815913 83.48184383881929, 68.74538617945129 100.68064482981538 M99.88952549332237 62.586816618964555 C86.84258032718272 78.06853575489549, 74.5879538683276 91.02957912260483, 68.2109158059779 100.2099193500537 M101.83301153114898 77.51979766978984 C94.0882696582272 83.77514335705209, 87.29053628902717 90.95952433724631, 79.08101158138405 101.41104059422157 M100.88572277927169 75.64026914564074 C94.67797463920036 81.7702956462468, 90.40994248174279 86.67572415789532, 78.30094747571344 99.76970854313362 M101.1398401677931 87.24504609550776 C96.20304693573917 90.16550716822312, 92.58475004445312 94.92535962330945, 89.13547420893569 100.64245529273845 M100.65142212728546 87.87770088727228 C97.31007562263076 89.96730106534818, 95.68042170427535 92.5014614923727, 90.16859876493237 100.66421140306878" style="stroke: none; stroke-width: 1; fill: none;"/></pattern><pattern id="rough-4852248324550451" x="0" y="0" width="1" height="1" viewBox="0 0 100 100" patternUnits="objectBoundingBox"><path d="M7.497164511063889 0.9075329656786364 C5.291745655021289 2.6671075266031057, 1.9805516920874162 6.466266100095092, 0.07897440099567876 7.190740537218 M6.5275461874648375 -0.4613633597895821 C4.636139148245201 2.337647472516678, 2.4943882351115745 4.749458520395191, 0.1902897133941911 8.187105068811306 M15.654113075436598 0.39917478167308573 C10.132818533571854 8.826175775956647, 6.36840659282955 16.481440928908185, -1.4308310062065335 21.566422930638296 M17.188301982401416 -0.5189738862474362 C10.496958910399735 8.03343543780024, 4.6458231544273065 13.925721194611215, 0.1742176977843859 20.284044339714615 M28.734496896499405 -1.7638011396089466 C20.858835956939124 8.479184864949952, 10.045042721173079 19.872786818015328, 1.6896520573514318 32.49632234768271 M28.89507778318649 -0.23911741617412519 C18.70331708329486 10.766454663692507, 10.590782635637991 20.30905615700126, -0.6276750576945949 32.0316303427114 M40.06743109905691 -1.5111035914032778 C27.723110428044343 12.422316310835825, 18.50448493551767 27.213071422852202, 0.17735378465020446 43.677548929317354 M39.16756902877259 -0.8046140971822955 C24.205226279965224 14.772700891139241, 10.175800368634143 32.043493697714915, -0.27964644900370095 44.74845089094962 M48.102026815109944 1.1963630024468843 C31.78211457555944 18.993714472844744, 13.885615891879226 41.998298677176464, 1.4917919810456821 55.60312613728203 M49.66349774522618 -0.953041765544199 C31.548545376651273 19.40376453070604, 13.979111102279326 39.54630944660692, -0.4908413718748097 56.35874331578144 M61.47449649276047 -0.05175307395871531 C35.893227019826504 24.269978614253734, 15.013428785227873 50.81455659927535, 1.9532666300242747 66.9181980767018 M60.60076758273875 0.684070356510269 C44.33995904148323 18.043962563419047, 28.989930612280073 36.247664052979054, -0.3263863573629755 68.94940599183067 M71.87612861589746 -0.7180937463026789 C44.92156732250433 25.759964061412333, 20.707009785564807 53.95622300392346, -0.649898802380986 80.34959758515362 M69.87937007981691 -0.6686164535875947 C48.349072085064705 26.79329565471888, 25.25685386821649 50.527369477531735, -0.8366272682359677 80.43911395047613 M81.08299194817955 -1.8473152584255592 C53.74702608974759 33.463582322677006, 21.620279959802616 69.29707097026731, -0.48206336223592583 91.36946887368279 M81.38575632219533 0.7736319357309545 C58.150477332352395 26.010415590120562, 35.3872565969775 52.07097289257607, -0.8965621835100857 92.90263414655104 M92.71122952578673 -0.8013569147189683 C67.90329965644214 26.736022946429195, 44.325202609089686 49.53922326132433, 5.977761257366932 99.72840820798703 M91.51660032221878 0.28266383058304845 C62.26397809540033 35.81250809306867, 29.711590804759634 71.6652228420067, 4.453201320850573 100.18314701683138 M101.89577210397793 4.437503018103578 C83.64294837409241 21.916237425455677, 65.43797226501957 42.64021690736767, 16.1028334158136 100.06120345781613 M99.74084206221728 3.3702782568241845 C66.08162280106471 41.30865190893908, 31.656846139313455 80.37236413916588, 14.878956405756721 99.78377811887782 M100.43154998371972 13.219498021098207 C73.75345630533536 45.112692888645675, 46.36775581788336 76.11998768281147, 26.151584652925955 99.20613872129087 M100.37765849879416 15.177535187078963 C80.70477925698435 36.711983447608425, 61.80024531013103 57.82245333837651, 26.24833044569982 100.14754263597474 M98.25275018723298 25.560459095977272 C79.28212284906667 50.56536377943293, 58.239403328859275 75.93469076093928, 34.97890709131342 101.57605555234818 M100.2421209757247 27.39569202933736 C78.99278603822563 52.02487562683847, 57.93927465720901 74.84730137869444, 36.591316827926484 100.79120073207343 M99.4848270934847 39.426269936656425 C78.76103327325836 60.66094967900737, 59.35534836128175 83.81852161081518, 45.57900779172499 99.26079915108124 M100.7731908825316 39.54546479636438 C81.74906632460126 60.86853510887665, 61.1744300162328 83.06679068717006, 46.07854607155859 99.71940493152681 M101.07899868962342 51.65191520605021 C86.10676542376179 70.05120521752774, 69.62165222850281 87.08633159585541, 59.66780406469621 100.74688088721234 M99.90108229053523 50.48191854205814 C89.60723028640763 63.83062608349515, 79.55908405574307 74.54285397180479, 57.498070660694324 100.58856430181358 M101.48917109268312 64.3638609912109 C94.67230729438664 69.52427372215779, 86.96718473986081 76.76331809550929, 67.36932894311038 100.68947370501027 M100.84847346550049 64.05127822997716 C88.76301398574834 75.25977210441772, 79.5095106868178 86.35279620669328, 68.70591539405538 100.51119024040868 M99.777111894454 76.75439517570855 C93.56050525547374 82.30270700703107, 89.92898370888422 87.98113080224856, 78.12611048116635 100.26810034535258 M99.57120545836378 76.4865405947424 C92.84347038040856 83.08646803240988, 87.98254624693773 88.87744224259261, 79.37457637700733 100.7439481452463 M98.71399280757602 87.01671917420846 C95.86512701910662 92.09533457419295, 92.31545714974617 95.74034028197454, 90.20995131056377 98.97227881318469 M99.79311414227173 87.7706334595283 C96.30103367526888 92.10883368236375, 94.3010652578688 95.65626873817274, 89.05526799330815 99.32888961692697" style="stroke: #000000; stroke-width: 1; fill: none;"/></pattern></defs><defs/><g stroke-miterlimit="10" stroke-dasharray="3 3" pointer-events="none"><path d="M 94 144 L 94 54" style="stroke: none; stroke-width: 0; fill: url(#rough-5880123518882217);"/><path d="M92.54799619429086 142.2612046154969 M92.16501757051557 143.96392090873192 C91.87361089895442 123.84300614454493, 92.28958537136897 102.15466607394353, 95.86173257987278 55.76137331034359 M93.35198722787283 141.79106019703406 C92.38398411568097 123.41630560742529, 93.22462231102959 105.4268671309707, 94.63883082502205 54.42998701379386" style="stroke: #000000; stroke-width: 2; fill: none;"/></g><g transform="translate(28.5,107.5)"><text xmlns="http://www.w3.org/2000/svg" x="15" y="-3" style="font-size: 12px;font-family: Helvetica;" fill="rgb(0, 0, 0)"><tspan xmlns="http://www.w3.org/2000/svg" x="15" dx="0" dy="14" text-anchor="middle">name</tspan></text></g><g transform="translate(149.5,107.5)"><text xmlns="http://www.w3.org/2000/svg" x="14" y="-3" style="font-size: 12px;font-family: Helvetica;" fill="rgb(0, 0, 0)"><tspan xmlns="http://www.w3.org/2000/svg" x="14" dx="0" dy="14" text-anchor="middle">"text"</tspan></text></g><g stroke-miterlimit="10" pointer-events="none"><path d="M 64 114 L 137.63 114" style="stroke: none; stroke-width: 0; fill: url(#rough-3259965991066179);"/><path d="M62.880456391982534 114.87716049394243 M61.50353106280498 115.52242338625578 C93.64984967874852 112.89229257556254, 124.05913488716166 112.46469417842293, 136.49520526200462 112.31799370816779 M62.31877772673157 114.93664262346762 C88.81651045573676 114.7309286133725, 112.10997918959337 115.07815003621307, 136.66719418835942 113.6267911821036" style="stroke: #000000; stroke-width: 2; fill: none;"/></g><g stroke-miterlimit="10" pointer-events="none"><path d="M 142.88 114 L 135.88 117.5 L 137.63 114 L 135.88 110.5 Z" style="stroke: none; stroke-width: 0; fill: url(#rough-4744980064794621);"/><path d="M144.12383504059437 115.13173881414983 M143.36754383075626 114.82183466214312 C141.2259141916559 115.60971769293157, 139.67282418062734 115.80184926105409, 136.05688878564607 116.75136505709165 M144.35770830069427 114.72439223620735 C141.54697768120542 115.88970291928626, 138.83301729568595 116.61617213418967, 136.01108348914747 117.42039694179978 M135.9708232490693 117.79297691264667 C136.09029031625923 116.34262345788086, 136.81807453098364 116.30173873708216, 137.56420092049873 114.03362928867664 M136.01175924094372 117.37823876427854 C136.35572299333336 116.84919550671479, 136.49980686305986 116.05697866268623, 137.46866747377734 113.97313313575962 M137.24910036905095 113.74461939613707 C137.0193756297492 113.0190095417676, 137.22534023076113 112.40858771934963, 135.78275986674686 110.19420325219032 M137.69832780898 114.0570477488094 C137.05107034492002 112.74669354412863, 136.18331734387752 111.44371090894238, 135.99280852252556 110.46529115007117 M135.3595061179836 110.19574502428482 C138.78684539755463 111.71609288892239, 139.40773816575012 113.38865832406681, 144.33650540498613 115.76437008761643 M136.05771801403998 110.28805962536225 C138.20553002614292 111.54114306496938, 140.32367684687316 112.79816390443781, 144.09097841681762 115.54904431778047" style="stroke: #000000; stroke-width: 2; fill: none;"/></g><g transform="translate(17.5,7.5)"><text xmlns="http://www.w3.org/2000/svg" x="26" y="-3" style="font-size: 12px;font-family: Helvetica;" fill="rgb(0, 0, 0)"><tspan xmlns="http://www.w3.org/2000/svg" x="26" dx="0" dy="14" text-anchor="middle">Variables</tspan></text></g><g transform="translate(144.5,7.5)"><text xmlns="http://www.w3.org/2000/svg" x="19" y="-3" style="font-size: 12px;font-family: Helvetica;" fill="rgb(0, 0, 0)"><tspan xmlns="http://www.w3.org/2000/svg" x="19" dx="0" dy="14" text-anchor="middle">Values</tspan></text></g><g transform="translate(9.5,67.5)"><text xmlns="http://www.w3.org/2000/svg" x="24" y="-3" style="font-size: 12px;font-family: Helvetica;" fill="rgb(0, 0, 0)"><tspan xmlns="http://www.w3.org/2000/svg" x="24" dx="0" dy="14" text-anchor="middle">oneMore</tspan></text></g><g stroke-miterlimit="10" pointer-events="none"><path d="M 64 74 L 137.63 74" style="stroke: none; stroke-width: 0; fill: url(#rough-8016735801453343);"/><path d="M63.25489204482164 73.31611202423906 M64.14117764154538 71.64468124183253 C90.49469456884479 73.83579191349703, 119.93907787131867 75.5153189136222, 136.6371544164675 73.67815303235801 M63.227731819456984 73.8960440601476 C84.67413771670235 73.7699780803185, 107.5389875244582 73.26923473074574, 138.46284600292728 74.58966055504659" style="stroke: #000000; stroke-width: 2; fill: none;"/></g><g stroke-miterlimit="10" pointer-events="none"><path d="M 142.88 74 L 135.88 77.5 L 137.63 74 L 135.88 70.5 Z" style="stroke: none; stroke-width: 0; fill: url(#rough-4852248324550451);"/><path d="M144.8655085248025 72.29741184936765 M144.8095580516421 72.78933270960574 C141.8725079039246 74.30883304241122, 138.3977740330476 75.58093588100083, 136.35913071008596 77.53564365671131 M144.6488817100706 72.78994655918632 C142.71209496033003 73.22841157731156, 140.58682212732162 74.52329441536747, 135.60941937364504 77.06950192030148 M135.5740714707897 77.36867542852937 C136.00188789395906 76.61833361656389, 136.40234653419677 76.06480880000309, 137.3048622915406 74.1292102852208 M136.046737259745 77.6243100385825 C136.4417060136035 76.53629083714934, 136.802414152503 75.53750585036484, 137.78495693547234 74.09048966152108 M137.28775985740631 73.7645533987609 C136.9637568476791 73.1814153862022, 136.55179102962157 72.16117012060587, 135.80085624368385 70.4099341821483 M137.74544549081554 74.07427722221317 C137.11080342709047 73.19823757240718, 136.90435682834695 72.2323930333927, 135.91577980146133 70.47324475279217 M136.72591429788125 70.75973488268589 C138.26485753563674 70.6966179984762, 140.7627231479824 71.03244728191586, 144.88261914445897 71.76691739172726 M135.74041029924362 70.06672927842507 C137.5713458060774 71.24420446292567, 139.63160197090448 70.91625249497885, 145.05527713039774 72.49671441993759" style="stroke: #000000; stroke-width: 2; fill: none;"/></g><g pointer-events="none"><path d="M153.3850972969973 62.99842545347656 C152.41325679890934 66.80542393085584, 148.7255192792531 68.82860630552887, 143.83104469826597 75.14718413722917 M154.29803269509276 64.42267566031707 C149.78684211675144 67.33897042864695, 146.9398284546275 71.04759390174647, 144.30065543527684 75.21623605222558 M165.65108161813157 65.32973035615149 C158.13714662767293 70.91714337395024, 155.8279994083147 76.79442254525921, 145.0249433989957 85.51232924506905 M164.93958082700456 63.74637935414797 C158.78836388398466 72.07738726385448, 150.18606960359668 80.07388405067445, 147.75085544577883 83.36195380328445 M174.20127648786797 63.65517830862652 C172.15395468623802 67.54527810436089, 164.59706974769708 73.6517103689256, 159.33197571058489 82.8167640081409 M175.7616350414413 64.76725040669298 C170.0683606153324 69.18456679244824, 167.37902580984152 73.42368139975201, 157.5619250902808 83.81581887862133 M184.1257988694331 63.636723003373035 C181.5353693420783 66.72702356744878, 178.69876419928167 73.1958722765774, 169.13521146644914 85.99898005018638 M185.30695810442697 63.95961042575785 C181.53565718153138 69.20874695526346, 176.10478737055405 75.16782520426217, 167.5180228155052 83.61944631222929 M196.22670332925466 62.534722147910124 C191.65229193175605 68.56293908977136, 186.5532737845466 74.87772000351441, 180.28806243163385 84.30418660003095 M197.06409069982277 63.230198705141284 C189.29899436529337 71.32707190194934, 182.2723337965862 78.61652382867207, 178.2943230442231 84.5414044220366 M205.14399449891604 62.436984140353395 C201.5536296219194 68.41565808710159, 195.29415452046743 77.28950355252915, 190.48775714611233 83.54567666039945 M206.51381283285346 64.54250897839415 C203.62156180261823 69.35990881002189, 197.86887364457817 72.6519078931023, 189.12580039556778 83.04621050616441 M218.65626137937144 63.74879581825745 C213.6456699124235 71.04295956246423, 206.53402096853515 76.91903820428581, 198.80948818224272 85.5721037178397 M217.67519056547513 63.18579562412636 C211.3782851501059 70.64036870423564, 205.62181378979514 75.91118461779358, 199.98025519338103 84.53327575902748 M229.00634201788552 62.42676936670993 C224.9744362178567 67.14304531692746, 219.9283546253832 72.5288952696202, 211.05093797002044 85.67972059911659 M227.93160164008924 63.03086698093658 C221.73269691118858 71.43165466610087, 215.01029513988573 78.74387117478143, 211.31243291093912 84.47842343336694 M235.16715788513275 68.43009066076817 C228.99412730841317 73.82901649012689, 225.97591775776144 77.23318739909419, 222.15738535657357 82.68777178963458 M233.82914263825595 69.54015116383613 C231.2595343074329 72.15109633800955, 229.14950099332557 75.70365968888817, 220.2780042202288 83.4663830219704 M233.67685358129967 81.42006889843557 C233.76205246831208 81.89536387688989, 232.83338449278975 82.36601451041216, 231.55633648211372 84.19244104355907 M234.06171656596044 81.55188112902808 C233.35255023089195 82.08011120230046, 233.05050064797874 82.5214591469897, 231.70995707433173 84.06147278476423" style="stroke: #ffffff; stroke-width: 1; fill: none;"/><path d="M144.7776900731672 64.40667854929114 C175.27339102000727 65.22960265965158, 209.49118943412356 62.67849569647295, 234.08874711644265 62.53059016516051 M143.41972184880677 64.38122304433568 C171.85227175282483 63.103492695782364, 202.06316018428447 63.6745101611241, 233.85669836745905 64.59135531582398 M235.97550064995275 62.9783168542657 C234.37176013125176 71.00298799429707, 234.5924806111673 78.45734008414563, 235.21044597811635 85.03058676789858 M233.6940271237997 63.912446998196614 C234.43372233834202 72.31495714474455, 233.4328844260478 80.17435652963235, 233.22217142775116 84.2960876908323 M235.14138195127524 84.80938937895814 C212.7273953544758 83.30395529594931, 191.77373728169775 82.79279193884136, 142.21187652454472 82.99980469202828 M234.99267500106947 83.0701401898348 C198.43217136807925 84.77788882192999, 165.24769393124552 84.5430228929804, 143.13816078926217 83.4484476529218 M142.91043872192378 83.52391258614092 C142.98910982159487 78.9211264153918, 144.96672658475995 70.64342601063238, 145.00946656199227 62.01621442424665 M144.87859714997415 84.51491545706537 C143.8371821633366 78.39123787819295, 144.55565120345747 71.40303864964743, 144.88995094617553 63.555780244945645" style="stroke: #000000; stroke-width: 2; fill: none;"/></g><g transform="translate(148.5,67.5)"><text xmlns="http://www.w3.org/2000/svg" x="40" y="-3" style="font-size: 12px;font-family: Helvetica;" fill="rgb(0, 0, 0)"><tspan xmlns="http://www.w3.org/2000/svg" x="40" dx="0" dy="14" text-anchor="middle">...instructions...</tspan></text></g></svg>