<svg xmlns="http://www.w3.org/2000/svg" xlink="http://www.w3.org/1999/xlink" version="1.1" width="349px" height="159px" viewBox="-0.5 -0.5 349 159"><defs><pattern id="rough-8591493575433547" x="0" y="0" width="1" height="1" viewBox="0 0 100 100" patternUnits="objectBoundingBox"><path d="M5.96739528469815 -0.006118685839114901 C4.288408677217108 2.004084899958448, 1.1708574209154219 5.053301586069735, -0.18369191885483538 7.014578743823586 M6.400575596953665 0.29387015729047017 C4.115748948354916 2.874782457146538, 2.6289739687233924 4.9482306143312025, 0.5164377095308084 7.965755856135711 M18.42559384559015 0.1664689653149969 C11.521279700442651 6.295609675430285, 8.632550002181675 9.258680998622062, -0.7075837279639012 21.56278799114329 M17.626555065996808 0.7012460303616499 C11.72122675480944 6.573469665102263, 5.539564078937976 13.303638293112947, -0.6727201401567595 20.406753734122496 M29.12243836058501 -1.7044896162710108 C20.84230637794606 8.026845978555148, 13.229084058395827 16.125746854695368, 1.3978064334926046 32.9294095368091 M27.12327861062984 -0.9514582848782394 C21.515450984101196 7.125502608822534, 14.136670391728853 15.85218945351526, -0.4361172296143616 32.71124720269378 M38.263559688923856 0.8064944865191856 C30.905747759989957 8.159703368887858, 21.644647740136143 18.62688182438713, 0.05753166331590265 45.13399327700719 M37.62363909594327 0.33535331335040786 C23.91491250087065 15.02017407628697, 10.953901964497895 31.644476778611192, 0.18529068773262392 43.56290047463713 M47.89240415856228 0.26781778370285636 C34.6139173624705 16.85279265961944, 22.978709072358527 31.402793017724907, 1.6229781523540998 56.46749411194535 M49.17880101402925 -0.4867202983798373 C31.19242951667996 20.275706364199433, 13.078343408780352 41.93909181778323, -0.4160720484024538 55.670307578620374 M58.07730084994286 -1.4813458878652703 C42.75985406909082 17.7058942743437, 27.032514128008213 38.724294799206625, -0.3689028415507112 68.98172979114824 M58.85698415481073 -0.22362062892395862 C37.682831259387136 25.752446555139358, 15.140274005416497 50.51951898874334, 0.9245645254277948 68.14247538672664 M72.3912815942083 -0.4072754636322973 C48.31894673936011 25.954837610579553, 22.508931181190917 56.076858353047456, 0.7495114611646372 82.86607957133693 M70.57044767423277 -0.23316020940555404 C42.28695561421155 30.987644654792522, 16.287366494165195 62.37474565976632, -0.7417821804773546 80.45070197086034 M82.18322422774705 0.1682633047228288 C63.607294259550955 23.352091718047042, 40.885949306804434 45.65515063085068, -1.1577045040885405 91.586086645507 M80.4080405310215 -0.045100140741960004 C60.58532324253475 22.371801556377186, 39.855648808483494 47.1287930325505, -0.7739908340934787 93.81505329858584 M90.96912539178689 0.5666206868902446 C65.48730081329487 29.845460893487044, 41.030141705806145 57.458734254160376, 3.467410735497954 101.7396865752337 M90.9691759309913 -0.40615646670991223 C70.26986506519467 23.241999718245495, 49.97772610856371 47.72652294440733, 5.423824667257498 99.4634835006382 M101.57406734823822 3.1624919241754164 C73.86921196653158 29.232930682864364, 50.6889769836559 59.248724165563, 17.064707504041486 100.7264846439755 M100.04952409433851 1.6068992310115058 C80.21874659902359 24.930815677417087, 61.4585938945307 47.20218454090944, 15.11060176827137 100.15267947665045 M98.6889007713432 15.00825370250329 C75.89728761585914 40.578035102842506, 54.03032860655845 66.37352714778314, 24.974763530711083 101.49566411347931 M99.50827780324722 14.12531844033155 C70.84663952900942 48.98946331228743, 39.95401936235444 81.52536693538202, 26.072232562701416 100.3330571361688 M101.27716545603103 25.769946295706024 C85.27225554982724 46.32729942713523, 67.12297956559736 64.77208923584341, 38.22709653775366 101.72761931864777 M100.25719080371368 27.6792965171036 C84.93118415810395 44.86223984843905, 69.29521042113959 62.06980694325998, 37.069373271565105 100.07320391450668 M101.6903083592209 40.70443400409876 C83.89611964440851 54.724829583558495, 71.8738293462654 70.16229815990602, 47.34155750260752 100.00698706653657 M99.94606819388007 38.112601278992344 C82.44880890931503 61.312055422207074, 64.35205096262143 81.2821520733423, 46.22575410517379 99.81120732699752 M99.26892680432509 51.522993090935344 C89.35581084946679 65.63828487187106, 77.21754600993785 79.65227406288855, 58.84144195591701 101.90488888149618 M99.24622913822519 51.481878355464104 C85.26587724490066 67.98609236940239, 71.46129687285334 83.57730072619223, 57.69342793166798 100.19698754398797 M101.35073497318355 65.06866345808461 C86.74397084595965 77.12435185324594, 75.44947057602384 88.77976867876741, 66.83954001810733 101.22584098981602 M99.75686586874393 63.5104616871177 C87.64169040402614 76.54088306982507, 76.34419621442636 91.59839617397532, 68.96873310250061 99.88888083271218 M99.00625505119967 73.81965288731601 C93.40496452292699 83.56322198615935, 83.83004967650493 92.08183681966581, 77.59195859134452 99.07780233748413 M99.07274101994226 75.1544775182435 C92.82256637853882 82.28482760405116, 86.35208752680117 91.15545154296917, 79.0222895487229 100.48120446403551 M99.25138122083195 89.19518793905807 C95.445453716199 92.92264704844571, 93.5435293353385 95.0821029350789, 89.0272797541805 98.49016530024782 M99.41892249723395 88.32234097594913 C95.91498008526497 92.82491621889467, 92.23550850703134 97.11928717682116, 90.07037892824452 100.31772101129054" style="stroke: none; stroke-width: 1; fill: none;"/></pattern><pattern id="rough-6114560174039561" x="0" y="0" width="1" height="1" viewBox="0 0 100 100" patternUnits="objectBoundingBox"><path d="M7.821457009369244 1.004339216905072 C5.500110962870307 2.8618062739552586, 1.6079925189098714 6.0004397070690265, 0.4421598182749089 7.880422035402776 M6.616881020556169 0.12548182316205791 C3.7061511599506582 2.8045856452698663, 1.9577622368924208 6.068382775653795, -0.3733531427338355 8.021607835030748 M16.089147898600853 -1.4570305344777017 C11.572743549142208 4.369795764627977, 8.320191716435058 9.011917546783803, -0.6266925254795375 20.717268843337305 M17.175344418211473 -0.5851602337084238 C13.397401880003542 5.89852497226264, 7.441679927987395 11.501757336743331, -0.3981873330023653 20.976333120811784 M28.809838166408404 1.2115609588929859 C16.176970618389483 12.23496467028347, 7.197187947787541 24.97136494109314, -0.6170018079093058 32.19058808488015 M28.08927123092792 -0.9470173546092706 C21.744008682734712 7.146873278769235, 15.42786176169876 13.682638545469642, -0.7686183327281513 31.670783933144232 M38.099179903437545 -0.4192415069309616 C30.447882581890287 8.851005679535879, 21.600066735294682 20.09550574498517, -0.20619758558081624 44.29409886236731 M38.678226339944416 0.5572705150243173 C28.730214380427704 11.697594019385894, 17.04685339850605 23.84663417071514, 0.5172997838370579 45.34639986288431 M47.69591228805788 -1.1224952609607097 C31.316341249952767 18.101444819611434, 17.108694258310848 38.97914275131671, -0.5182103604903245 56.51155421864641 M49.409632827383085 -0.1699824578294189 C36.33398652026678 13.406575924650845, 23.135276471503627 28.62733807751887, 0.933060718778592 56.30246650952872 M61.24708081129044 1.0557340443997303 C45.952385122755665 14.832535014056248, 31.29795043594059 33.70686809483017, 1.814874978646258 68.64232969878519 M60.4453700849819 0.705023045174523 C46.95137659914399 13.417470384239744, 34.15773043108252 30.119651031628475, -0.851118281111102 68.54219025334893 M70.05194704085521 -0.6840645327251167 C40.60975002130085 30.931708205426403, 16.212584273980088 66.09410249071063, -0.23587907645447626 82.24275470873077 M70.66156230263891 -0.37932207728734824 C52.89713923639347 20.38802620729861, 33.53142033811946 40.850180573439964, 0.3130591749596445 81.53292029308066 M81.96791787914914 1.432525135549736 C52.344527523880885 33.944211852204155, 25.324508230508407 63.8398018108916, 1.0006102675275832 93.62338458836223 M80.83109554885192 -0.20225251744403838 C54.287860732268655 31.089735665578516, 27.222535843892803 62.3927307143807, -0.2918486632020958 92.49112858386172 M93.40903105154123 0.9752977605936763 C62.280288652137045 30.80722768711359, 36.288036830837825 62.41694033248853, 3.9632668481669873 100.6684368519518 M91.64960170159058 0.8359644664558563 C67.14622921396186 30.107054722650496, 41.8424542346297 59.931981387313655, 4.585027834264013 100.62425248435751 M100.21663941271123 1.4605821390206186 C76.91228042876965 29.68299572456088, 51.55589106355204 55.75819733330623, 16.061999708826416 98.43798231566659 M100.53220657547037 2.7323675886107117 C72.99766932054882 33.18618496598526, 45.86686132720169 66.31733010462735, 15.943821266609046 100.3271960755664 M99.81387630290544 13.724787230818947 C75.66842750709539 42.85246455951158, 50.33970672454696 72.44337345686353, 27.49554880600916 100.85455952947282 M100.86977355722433 15.564595441147379 C81.11260277835954 36.58100320512268, 61.81279411585621 56.88705231947246, 24.967689600489877 100.19877917037387 M98.70918523127231 28.022541261230486 C78.81116672586862 51.79343032979943, 58.94884756863123 73.7826606904833, 37.28908985890522 101.68778151414752 M100.79470708947505 27.720233117225593 C83.12911934175716 46.45848810807468, 66.15325676892294 65.05995287392652, 36.80828127143331 99.29941726620017 M100.95672006759341 37.47987868824858 C87.66076449974 53.043542476695954, 77.06975772677936 64.08021271634547, 45.6494828093231 100.61002167867535 M99.85417501866789 38.643912471535344 C83.05313255075971 59.57464728724028, 65.29121809280134 77.93308411039398, 46.635296350842225 99.68683107657404 M101.16334572958418 50.45481208397679 C90.15159943155572 63.73530229645961, 78.78381187858206 75.94001549220144, 59.23063969235246 99.23195155302868 M99.27506379777988 50.3070307564947 C91.50411120267212 61.538182791700244, 81.57275538066303 71.36349205338156, 57.66039208283942 100.1332134671082 M98.28363185466885 64.28831560875217 C87.07398023658187 77.1061928692163, 74.77415199181719 93.00957401686323, 66.94214644984092 99.48087071672023 M100.2146946466867 63.321189000896496 C92.88447554017107 71.1555175323208, 86.51312651384295 78.33615940259394, 68.039909625565 99.58749555729247 M100.10122774344103 74.13726368049122 C91.80520660909832 86.02884725237207, 85.5333621229404 93.49046005431032, 80.69732131906152 98.1023089853789 M99.81746866796227 76.39493140213591 C95.21242831528436 82.19667950671267, 88.07037189133379 88.97866278160885, 79.82452965554606 99.7053999271286 M101.10146902397751 89.38620143269144 C97.71866851759503 92.04891367191325, 92.40378295792925 94.96245560064447, 90.53133142678203 98.65958533201979 M99.37915716366024 87.28527309792561 C96.70224229428501 91.3338411867424, 94.02987587732375 95.26257620733251, 88.70980343966636 100.76655533327664" style="stroke: #000000; stroke-width: 1; fill: none;"/></pattern><pattern id="rough-2842654064869157" x="0" y="0" width="1" height="1" viewBox="0 0 100 100" patternUnits="objectBoundingBox"><path d="M5.904546323848835 0.8814936704137535 C5.3029936256779155 1.698194393360085, 2.296859778778714 5.6540608522047675, 0.9700929459779122 7.40632728902864 M7.183130353696683 -0.4334028998525047 C4.291918235959518 2.2128377411096047, 2.452349588969944 4.935596965051311, -0.2914586368785329 7.3849440311723935 M15.501076825674911 -0.830206948985774 C12.07123437786564 6.934147401282788, 3.392378158134944 14.1270727615569, 0.17843462721844627 18.293578344422656 M18.180067093308764 0.23193612338069958 C11.696995445582518 7.253307698603045, 4.054700801206728 15.891522316160906, -0.5859026692142315 20.9815642734538 M29.10102895464194 1.565660280094483 C20.302315332451748 11.036118727014374, 12.64091294324321 20.288959587060745, -0.41577265010215037 30.95103556907122 M28.33882639937675 -0.23474295808082601 C21.267109547140787 7.826141268962761, 14.134217382535331 14.867516375780374, -0.5898604288022451 33.000900989344444 M38.5738540928703 0.8811999697026165 C26.567211045357457 15.663005249100038, 12.579435903612836 28.40988346713933, -0.6814518774745402 44.49332240543429 M39.05998014971129 0.26623933283972256 C28.04450503878099 13.984695116967012, 17.76369061089906 26.421178434913617, 0.21240180288014976 44.720662342201976 M48.15541884921371 -1.15444749716458 C34.58759330851823 16.580418147335926, 17.56177714079503 34.82065489615433, -1.343739678753587 58.060877294112665 M48.674549156817136 0.6225640827086694 C35.227168852942945 16.694603223507364, 21.308756489735817 32.247061572296225, -0.4466313389345915 56.48845760917615 M57.94689514213491 -1.2445540839378486 C40.85180595811992 21.524174897586022, 21.121318142372633 45.03167975349325, 1.6025071871313408 67.8138392080588 M60.305559952962746 -0.6539905298984681 C38.06952856681937 24.668181750350524, 16.055844537202617 48.80478504658601, -0.852733633858394 68.8646424264812 M71.5756895732504 -0.0836451273472516 C57.039276998839846 18.419475835995016, 39.78998990006206 38.23554223430793, -0.12147424137753404 81.0364706523859 M71.19718370293597 -0.6177313426708388 C51.2190650483344 23.38615639610308, 32.035391337544105 44.138634845765864, 0.057364905241705344 80.24962439945529 M80.6746620977608 -1.3336876211134454 C48.03859945322902 36.20954525341708, 17.668783630432138 73.83526321428785, -1.3044114494546477 95.07954838578426 M80.11899098382399 -0.4154414221373308 C61.7856938892639 22.791840578159245, 40.80357875707803 44.54858847645676, -0.08272141232248487 92.95511286397372 M92.7635597030023 1.0385869321504266 C75.64231195115963 19.64179371167235, 55.553580927543194 40.565424374237864, 5.87878347534667 101.06835654358186 M91.90308072403127 0.6798017640106981 C61.28956979010568 33.622905742334716, 30.87402992836449 68.91576630946255, 5.494201779603586 99.46249848350533 M99.90080814171917 1.3584919476298847 C71.74040415671291 35.73701115360038, 40.8774772757262 73.80337922697129, 15.459420872623907 99.47444166872346 M99.7340418398789 1.924070166735846 C72.81964438615049 32.614897479486935, 45.34922773575597 63.025890196191284, 14.598226939481169 100.76840291156955 M98.42395802346151 13.044734119275905 C79.72568368974916 35.99351398783877, 61.26839361139545 61.3641043439718, 26.9796526642047 98.4993101613061 M99.359938137008 13.93358688137572 C77.54348540120793 41.99796212807798, 54.38858104993533 68.97180075038581, 26.58444320180092 99.49724392401035 M101.71804676017244 26.036129688315857 C78.65117594199809 53.45605144910762, 53.17730061911793 81.31794413867429, 37.72563904790577 99.01006750495948 M100.41508518615323 26.070294069495283 C76.08252625009204 54.45918127485963, 52.780002130176904 81.19746912016268, 36.11676860038156 100.01102973445433 M101.0574500704393 40.689342535357056 C79.74433293856262 62.65207782512349, 60.417145495411816 85.17630163630629, 47.56020792615001 98.14445616376996 M99.9588563652888 39.427487528759926 C84.57533232487887 55.368083695641836, 71.06615913041509 73.64547937341999, 47.28840564981038 99.64557661012127 M98.66969635694235 51.96295340839527 C89.47975763957982 60.51818934415501, 81.02812859435095 70.23334118302182, 59.45075343984573 98.68061103262156 M100.73510929175325 51.46322968924583 C90.1112014886757 63.252109652886695, 80.70519834227538 72.54464216639599, 58.030541988686146 100.88946887894969 M101.51283915890176 62.436470010206776 C91.63913798226947 72.2854678849649, 87.07082332210469 80.15525991596843, 67.06245782680762 100.85222258912196 M100.96465082628993 64.4782806907123 C87.88843612994084 77.28393733123892, 75.65122445090073 92.48296970617687, 67.39770795221936 99.06753995407038 M101.80383049173312 74.63244804939573 C94.32091773037504 82.17165345134971, 88.0163355549678 86.76748083083739, 80.22587526662149 101.55234627699487 M99.67907670919116 76.15137973421092 C94.19808791433908 80.82052023083726, 90.27362563907836 88.33616438408943, 79.0753978194526 100.91128715234352 M98.48863157613026 86.87550318818674 C96.89151405605821 90.31029984891724, 92.8145409481214 94.73982689104457, 87.96916592673357 100.07343791292297 M100.03948582103959 87.22273504894207 C98.23152102074553 90.21550131320822, 95.53977009362195 93.61652832710556, 89.32382853632453 100.24567880095407" style="stroke: none; stroke-width: 1; fill: none;"/></pattern><pattern id="rough-3632613500806189" x="0" y="0" width="1" height="1" viewBox="0 0 100 100" patternUnits="objectBoundingBox"><path d="M6.559283805904377 -0.09428910718903771 C4.335293416698913 1.361276891281343, 4.085584399508869 2.9407788595471485, 0.030004748934971515 7.988613316768816 M6.467647469595335 -0.03771588531835768 C4.971954776258932 1.9564423845773038, 2.75564572455673 4.9927578039470575, 0.2591046753289058 7.751214965734736 M18.545943424181516 -1.690579690829014 C10.371844110376045 7.529948652749095, 3.708127568763464 16.128602654181698, -0.3036480099540615 19.540282568805015 M17.62365604749366 -0.41217737754767114 C13.587653347329645 3.485731352303565, 11.123544663340965 8.745538177898814, -0.6322765192404964 19.875131755066345 M26.06316857289097 1.4286840414108726 C15.115155642403504 11.44446282340116, 5.647748534851938 24.025326013029467, 1.2809186342673877 31.08988280605295 M28.49225767912529 0.5988016674439187 C18.928223759435145 9.311249088944194, 11.220815732304988 18.694010040450564, -0.4874739245442625 31.36767840997656 M39.06701647624247 0.5598227732326748 C28.61143207496389 13.477617293029653, 18.185502171690352 26.18804270050611, 0.4797849640397107 45.606808430005856 M39.09087771244968 -0.7565540036428682 C30.166141059100017 11.008995685637522, 19.618999285766364 20.175155529972134, -0.16386899959410473 44.315014461210474 M50.55349804848231 1.4467726466318354 C33.438190338524095 19.59802605575686, 16.059756999003724 36.85175369622402, -1.1438289528954595 55.35766620772738 M48.50851540290601 -0.9439574821303527 C36.70357017035907 16.060287412217825, 22.09482141328749 30.19241685197821, -0.18672813894443863 57.38340319649199 M58.6446909269925 1.2049706247598513 C36.30920962039765 24.85938433851538, 15.481238322176601 51.8861658876582, 0.28213803211363686 67.7236508722842 M59.582379897192006 -0.024193096999458596 C40.769410559872306 22.132908454285964, 21.876810803296067 43.803876109197404, 0.3873621644934646 67.8819528339476 M69.01118244115293 1.833163815655488 C42.73556367658341 34.485479823846255, 13.480349498393927 64.29678646179109, 0.9739197709407419 80.16532640397655 M70.55837767544166 -0.7699383185961763 C52.16445255942138 21.88036986606927, 33.20738399884882 45.204491030180854, 0.40043431012214903 80.24095190575461 M79.81477654388482 0.5975851500610752 C65.31273593186044 20.407402974859856, 46.23997489325137 40.94561123462394, -1.6718293904163106 93.4036971093314 M81.92387427835664 0.650338241250151 C54.22926292090645 32.77408503465759, 26.83716744231274 63.42166959362422, 0.02672215984536841 92.32334508370745 M92.17748118317873 1.0956696163918478 C63.96690151149397 31.206976277130806, 34.3123921971221 64.52814686174544, 4.016084176119017 99.89481564244792 M92.29986465165837 -0.13774497719487622 C71.33583164691277 22.304017102953324, 50.15221894129273 46.318659577175374, 4.984600908321065 99.90682045289807 M101.41172301863163 3.8157030958280647 C71.38679896811749 37.93920301145946, 38.70429790328222 71.5330091456265, 16.555815599664765 99.09602380495811 M100.62886876030994 2.3434563676697375 C76.49373438685402 29.390660017731552, 53.73638552692871 55.510685792894705, 16.141391946393952 100.73873177780686 M98.3881727430679 14.821938214114287 C79.12344062933026 40.9178528422542, 55.47980733984385 66.52541604106811, 25.01159382438236 101.11588821482123 M99.13818240544266 13.795425812753873 C79.75618975992994 37.676558930142335, 59.804828370103436 60.093240429625105, 24.91883938540976 100.78346276795945 M99.56744187225276 28.763112309625747 C82.01409246455268 47.842608026738986, 64.1006311179124 69.37427986842442, 35.97673823867598 99.7349282622084 M99.32426186255549 26.58859897977014 C86.8175178495717 41.9221589092905, 74.7886522434506 58.65573490634954, 35.98806380000533 100.5426966003501 M98.4874016533571 37.729960262730835 C79.80120694135826 62.10982382978616, 60.976456776236326 82.34457857968349, 47.73784878312756 100.80587499374596 M99.32455416560033 38.783877946284726 C86.46404458318351 57.00474370383628, 71.75857885439149 73.72331552700598, 46.28080525949005 100.00517449718706 M98.9072464390844 52.15273442684421 C90.37261170004214 63.11564083994784, 77.28186863619835 79.84851157378006, 58.34948387514572 98.60970681190308 M100.89379527607012 51.73910826518949 C87.96577204382578 66.14740040929738, 74.28904632726197 81.91045168061439, 58.30379929021617 99.39429029216302 M99.80745890260384 65.48884086159717 C86.79184462676162 75.83109387737204, 76.31937802798844 92.76777273430716, 69.83073526943213 101.6191972913489 M99.35509835365974 63.840690488701824 C91.24384077898073 74.5612874583741, 82.00371287702886 85.53281098095182, 67.59697980471212 100.59341397236952 M98.8395314708114 73.94620616168 C95.70378483484477 81.78155146005868, 88.8583327614533 86.79922792955455, 77.99960086169648 98.94286227343474 M99.86578609257019 75.02570236957503 C95.79108701055645 80.26904615857545, 90.33146926114027 87.32106614302894, 78.78484942560935 100.03823827038556 M100.86154711441431 88.41599072905957 C96.42975719048668 89.90384266820362, 93.7323587580133 93.56318818292462, 89.94270491137085 98.86135436694737 M99.3125790033007 88.47599352602361 C96.68667678930677 91.06152800302135, 93.4913891336499 94.75842153430177, 90.0117843848674 99.97097969238135" style="stroke: none; stroke-width: 1; fill: none;"/></pattern></defs><defs/><g><g pointer-events="none"><path d="M193.3543195142275 4.682788283108476 C191.65223339187102 5.5072550811918415, 189.7744171386986 8.217678431697273, 188.6491459158192 9.517983691696235 M194.205011054608 4.048090031352343 C192.54336010356607 5.965073563252799, 190.074279997033 7.936901063029756, 188.9668485333276 9.755593033362288 M204.19879743370504 4.895663438087971 C200.4580680905652 7.958893995982272, 195.63409891534408 13.313593757235354, 190.0201676024402 22.07938344448635 M204.86076850537012 3.151157160789216 C201.62240757754236 8.80292152695895, 197.261351235711 11.5762405723273, 188.68016418668878 22.713878357403075 M215.05089486528087 4.954251624362407 C206.86960763110318 13.728878809300243, 200.84629317878452 19.666569063807536, 189.71434918883463 34.66016856134099 M214.43567233104167 4.556385045459909 C203.98286221449445 15.243879222131321, 193.67495199949414 27.947815668898023, 189.04539769729988 34.647633450017686 M226.30904756217248 5.730831893473747 C213.88220303998153 19.495207509060226, 200.47386886876913 30.26195320022115, 190.35411853870036 44.445557070978445 M226.36109217683978 4.504758368645971 C213.1497000207452 16.38228184771981, 200.99496576419563 31.46598207399276, 188.31515869737308 46.00878626316831 M237.44593477977244 4.769259620036217 C221.98639983912327 22.162466629288986, 203.011485832705 40.21935348365919, 187.94880738040592 58.463838701734375 M236.9458354775609 3.400477561256346 C224.65988876673498 16.050104508475894, 213.97665993661732 29.229935796538353, 188.35401934135464 59.199297130791166 M248.2072740515354 3.3665075175723187 C231.11115235898555 20.265827715036103, 213.90342864032124 40.40658918963445, 187.36464043733406 72.40509067461582 M246.67654242747182 4.973814880216322 C232.48226823223578 20.635673860177352, 220.21227548167258 35.02130830552974, 188.5283748239124 70.2154730295713 M255.9467140812903 4.213574945962173 C237.46099837415184 24.873769562779305, 220.87169773918095 48.09636592091632, 190.7160723625527 81.00286738908524 M258.2112640075869 4.869950859120797 C239.42070325602148 23.77803899568757, 220.1797444872036 46.100348590175685, 188.76883369532166 83.58089944318296 M267.89450121767743 3.879903086655446 C243.88453405330924 33.98188934463345, 216.654123964521 64.054657382353, 200.24356817830085 83.05329558959917 M267.3424705947079 3.4038366128639677 C251.7779050124892 20.491370755068463, 236.1584187569985 38.26423585532513, 198.0040574806074 84.07503010997164 M278.2453971864476 2.6722239194479114 C254.0283891230178 30.471376768402365, 233.1196891533823 55.03530321716115, 210.17500439661467 85.44970442797178 M278.2828375947777 4.308187291288711 C258.03258807806566 27.30133167993459, 238.91885223530429 51.77520045862547, 208.30099322502264 83.43351414345126 M290.7241039134037 4.162492636964281 C267.32093215044557 27.35972344313713, 245.65266654417601 53.52711777559722, 217.81989766723186 83.46707193357558 M288.64767268554647 3.5386913587072164 C273.36694505962356 22.221980235427605, 254.97121519457158 41.554728321081704, 220.49534498094027 83.87171540085072 M297.9507847654429 2.1583446501606725 C270.0758489446204 33.60099942977102, 244.1594667123805 66.04525681004282, 231.92023928941765 82.57696082825544 M300.0589321104892 4.524342765233692 C280.9588628106275 27.257200547667992, 261.3873397089129 49.02655715604679, 229.79060886138473 83.52005723101851 M309.5076641626668 5.199051291027646 C289.1418606580208 28.21148812606337, 267.0848423046229 54.05781686168334, 240.92961862781772 82.47228577483452 M309.80554104990165 3.7135314824132424 C281.8287456394314 36.10192680030433, 255.50095954768364 67.810238981352, 240.98651053863082 83.63779738426473 M319.5543799721871 3.550593239419565 C299.31426010043566 30.637597480150312, 274.9963841606934 55.9494115945991, 252.85980176867042 82.90848039693697 M321.6606707484419 4.723835164090098 C304.8489558165538 21.603081850760763, 290.69576337222855 39.0477505277721, 252.3175916562021 84.64716647208051 M332.3300745711716 2.7365859638677303 C317.2799935010603 22.298001375280364, 303.269807079162 37.09277401607328, 260.84353042236177 85.94489633390012 M331.41185194085074 4.5782645294758515 C312.08316262572515 23.966410399410098, 294.5141391727162 45.55952500693452, 262.86820268468335 83.88502590365086 M342.21897869515675 3.8092969329951236 C313.53183962744873 35.18161796324734, 290.8158471973093 63.136776464562416, 272.17497456398286 83.73797905509188 M342.8442772693584 3.730165102141178 C316.9870338834941 34.71768157472017, 290.2686523411945 64.00491295487727, 272.27957983162986 83.57420525404463 M345.80717229457747 15.969418643190085 C331.6203532889122 27.949175643346294, 319.3111812798457 40.77317913075959, 285.01265727807885 83.20525831648892 M343.4199678868722 14.151812486282106 C321.3127599861507 40.31641550892545, 298.88322348711006 66.29691266009809, 283.50600010429133 84.54076005772706 M345.48805289142575 26.18751673728995 C323.3195509987148 48.3887735469169, 307.33689304919585 68.90588691472425, 292.637933855259 85.97724581313778 M344.21667790305395 27.186424975739047 C327.31551382532825 46.25593538090947, 308.2720921750179 67.35819413450893, 293.65462934323523 84.14691229222342 M342.5585580469035 37.936197676364976 C327.3088122369972 55.018477779013544, 312.9737149657574 75.31643679893142, 304.7164224640021 85.36001618751595 M344.88800134755246 37.7675096214442 C332.39086527377896 51.56657692000088, 319.2139561761004 65.9792826581224, 304.3349090717968 84.20967442061922 M345.2485839086018 50.186181749285 C334.4365804464239 62.348761522350706, 325.3040661285727 70.88655769801461, 314.4567961438239 82.71935840518923 M344.7566228138437 51.39429228683135 C334.13989754623867 62.52009815390104, 326.21737716200244 72.56500627573814, 315.82712586504135 83.279264484726 M343.5689258717133 62.83104142558995 C337.37160968816545 71.16850675897898, 334.0322192693365 74.44600707082819, 325.19968379788725 82.70649956858998 M344.4797642881812 62.616194209744606 C338.4074309359963 69.95361032193182, 330.6910676751718 78.41649342292341, 325.56042392620446 83.77032986457569 M342.94435802876325 75.16093021475128 C341.94431681758005 77.47705800170839, 339.2901714592504 80.1302887073381, 335.65774284024786 83.35774433586812 M344.1571252482829 75.30302847795676 C341.74383480553115 77.70110456640668, 339.8227534458385 81.15407292274529, 335.8698558711527 83.70492745037919" style="stroke: none; stroke-width: 1; fill: none;"/><path d="M187.70360435741293 3.4330156789689745 C222.6077160042648 4.887061255817606, 260.62177283102915 1.956494635747895, 343.5267787480745 3.418874251580861 M189.3406335966806 3.904059280080558 C223.68471922266866 3.272445072512033, 260.27421249042254 2.7236631319738427, 344.489360918177 4.288259495878455 M345.9599385854112 3.262345979271407 C345.1796481294264 23.945136834675395, 342.0223512905219 44.275123997876356, 344.58575706823535 85.67892491866354 M344.55432576472646 4.806618475885166 C344.7181180929361 30.211138214877487, 343.4221184769588 54.35332709425582, 344.6688880942599 83.57409762405268 M345.77937621823435 84.08651478390297 C308.6628673017402 82.63294875310358, 268.73855150114525 84.71884253567193, 189.83393381836737 84.41640564004082 M344.2759438153884 84.41173654028142 C309.30328189295284 83.80382145184636, 274.3761058630264 84.55244614110813, 188.75767130680308 83.44314036199745 M189.74046081340313 85.60923180136388 C188.68123833569692 62.58334309835143, 189.41626207079648 42.890692904128066, 189.4905458333121 2.8409487750002453 M188.18440630440773 83.99356058455822 C189.75709999755432 66.46869860150825, 188.46858680354134 47.75541343462772, 189.38126143780036 3.184784897169925" style="stroke: #000000; stroke-width: 2; fill: none;"/></g><g transform="translate(266.5,37.5)"><text xmlns="http://www.w3.org/2000/svg" x="0.5" y="-3" style="font-size: 12px;font-family: Helvetica;" fill="rgb(0, 0, 0)"/></g><g pointer-events="none"><path d="M12.552750481472746 95.16529649207385 C10.071291212159469 97.47813974387026, 9.378558623409033 99.7609062853787, 4.522791356039382 106.09064772263254 M13.908782287003175 93.624473702949 C10.711794203551703 98.18048046471242, 6.759501126109258 102.56221793497622, 3.9059636067142938 105.2515196580507 M26.211390614802237 92.64097148909647 C16.544014495590254 103.5448006047269, 9.864115847906238 110.20240111287815, 7.6934924742698385 112.38308803668943 M23.577504087964737 93.59834682956848 C18.961635504353378 100.2772104835462, 12.985443949895796 107.67820147988128, 7.711894931521792 114.60794312151059 M36.378155300659934 95.49262324709956 C28.92951541649878 100.37524229696159, 25.57974427110638 105.3415921589995, 18.0287785044421 115.21876035634743 M35.68763050425827 93.58768863168319 C30.083402491597823 99.8118295296211, 23.42084170908265 105.56710608386852, 17.352899344337448 114.20437151574282 M46.9566803928899 94.01854931716458 C39.26171111283852 101.56250818831887, 35.47443609761511 108.45394990927478, 27.065261524620894 112.48890027508482 M44.9455819839998 94.68865354599849 C38.19024219873083 100.69958605218746, 33.36037399385248 109.84454240586153, 27.56112223736608 113.3350138010024 M54.23138441430424 95.93367182289971 C48.72967984065828 99.94597015756791, 42.54297160067489 107.72090128405662, 38.14965004599732 114.65563285522713 M56.93401789556107 94.26391622553653 C48.593155684796685 101.03682823181765, 42.87087427675606 107.77373544882889, 39.382459530081576 113.8900950419691 M66.49782974167657 94.39463641384884 C62.491082303545625 98.7876182704677, 56.66455453386496 108.09548029059442, 49.947599560704774 113.24465244288794 M66.4742335224482 93.64659217699887 C61.438078170262074 98.31885646927856, 58.48758664488541 104.72052947102658, 48.61184945885748 113.17562609472832 M77.51576913944758 93.11885235438848 C73.95819313068452 98.96777298322938, 67.51793272195923 103.75636009586792, 59.90388476697615 114.81020995357655 M77.02579434364449 94.66739404970967 C72.4066476065315 98.69024016104697, 67.7155925925381 105.74007043804357, 60.258680526308254 114.05439586485222 M87.99207549543819 94.60336218058262 C81.7037298792909 100.59752743942374, 76.17604345512412 105.21216254429191, 69.82396425143195 112.75616086228175 M88.06862060442359 94.49669465728624 C84.23945406569509 97.07897165338092, 82.00300085182664 101.14200012586304, 70.06825404496486 113.02010098047027 M98.13321177698703 95.25417895326936 C92.34669396224935 98.42035449424003, 87.30966683222366 105.64285941478452, 79.97510366341393 112.30804646012204 M99.36849897994965 93.80479908926297 C92.6771539367112 101.18705380950746, 86.8549771691168 107.76156137044855, 81.10172781006418 114.62168255772113 M107.81059298532941 93.45199499595887 C101.95098280165877 101.58396981380719, 96.38301664888769 108.27423001613927, 93.13015872524123 115.55352812409974 M109.17812382885683 94.17210256869545 C105.55619547827575 99.01020125163109, 101.36065904472581 101.89185024766543, 92.24720989767741 114.34647513012578 M113.24655922606287 101.11486056040162 C111.89445100532426 102.98400941099824, 106.16163235213955 109.11617786826332, 102.31436977261029 113.01881175695324 M113.7851273516628 100.12506020334415 C109.40736561645502 106.24241826874663, 104.36575306625072 110.57108204720106, 102.99800950084799 114.44036591731178 M113.86127147240448 112.68597685982594 C113.63040993263179 113.13104431736723, 113.45225177041371 113.46880384482813, 112.95172256169455 113.91928053972129 M114.00138867663712 112.79304132960692 C113.64923948607849 113.21296264618441, 113.37727825677766 113.58845033645498, 112.92109833236324 114.05764108939378" style="stroke: none; stroke-width: 1; fill: none;"/><path d="M3.3790583721057095 92.19709828962182 C38.10442414437865 93.56275310696019, 73.29685026912448 94.98249641475606, 113.51490843794589 94.61918258746614 M3.0794177745561586 94.59768191596322 C39.616948847783 92.64108177599577, 77.0763503926846 93.48414909185983, 114.27033627953722 94.99289033636956 M112.19984484345493 93.06625688408543 C115.10594763584346 98.73045355220277, 115.42794268310055 103.34579527166697, 112.24986196004267 112.49172107483602 M114.89028792792783 94.60774530084126 C113.59780106320953 99.4916916494018, 115.09692502558306 106.6904786353315, 114.83552823285548 114.45612422461514 M114.93839686252994 115.79367581667503 C82.55215442984024 116.21337185009108, 50.52227357493996 115.04621271219726, 3.4235812678674913 114.09740253559087 M113.09815906381783 113.08910650631059 C89.66470654160918 113.17335000924001, 65.91364766367032 113.13245457612149, 3.06562908082691 114.28990026800955 M4.327465710513402 112.71442585734756 C5.379715672880258 106.91226552467809, 3.273829901971541 102.22258102448754, 4.5668624020608455 92.3546791089276 M3.937942621968245 113.75060694816293 C3.769617943318834 109.66723981121557, 4.0839811624170075 105.20054652332628, 3.572231731081205 93.57241311735172" style="stroke: #000000; stroke-width: 2; fill: none;"/></g><g transform="translate(27.5,97.5)"><text xmlns="http://www.w3.org/2000/svg" x="31" y="-3" style="font-size: 12px;font-family: Helvetica;" fill="rgb(0, 0, 0)"><tspan xmlns="http://www.w3.org/2000/svg" x="31" dx="0" dy="14" text-anchor="middle">initial action</tspan></text></g><g pointer-events="none"><path d="M14.764945545973736 115.30738791579252 C10.829366462174308 119.12374420339663, 5.6241017889624185 120.74417705463868, 5.290721653838086 125.88410618157334 M14.44929934208609 114.23611091935206 C11.135249063398168 117.36099606789709, 7.549956168771996 120.92379408281234, 3.790043985766616 124.73711314591752 M22.875429047401614 114.5212321486279 C17.189922369256777 122.87820564265246, 11.97436121428153 129.7770489076939, 6.771570462032628 133.87709528859293 M23.976646041041793 114.90062267094703 C19.46351531485552 119.60252440331516, 14.422675615659907 124.96321084034756, 7.791284600768712 134.88778513416318 M35.07982232151685 113.5406931363754 C31.20805910923495 117.65437423172972, 26.009465981126255 123.92338214685473, 18.214231408906823 133.17650089941048 M35.71580949710512 113.88424241965134 C30.527353913594023 118.75572394415619, 25.50140926878482 124.96136625861753, 16.729199768214823 134.26414824147756 M46.29539979938481 112.15751851762323 C41.63796176322707 121.257800347712, 38.26449192552416 125.21291381137128, 26.716934094806202 134.40691737569597 M45.48859074505451 114.79026366664291 C39.84814819433047 119.58187857552254, 33.704926491874524 126.54738955824166, 28.085812628780268 133.93653331472612 M54.37531233544025 115.40281977357995 C49.65092698080701 121.90333626880036, 44.528469523906715 128.00677130307795, 40.08590226488038 133.73439802868225 M56.38313651792153 114.46405673932826 C52.14636173545733 118.21741808181181, 48.037591280031 122.02945486026228, 39.31220797490037 134.42615302413472 M65.71669579113654 115.37392945544441 C60.76036214803588 121.56394835548151, 53.54717583762173 125.6387645527117, 50.25187297971374 135.76987613452545 M67.06018965106438 113.29219386346782 C63.35405997555544 117.75602786060293, 57.88772200438194 122.66513017410709, 49.38108754397011 133.80186339176382 M75.90305931139993 113.64593875986436 C70.45175346739511 122.27752386019849, 66.13597232651288 125.99215523316822, 59.6877990267658 132.08258753245576 M77.54792035237547 113.39131425223994 C70.8428512916296 120.72101751482103, 64.49886624558293 128.51088471911055, 60.678679271188685 133.34023287922264 M86.9189715548583 114.0353811098502 C85.57472613033735 118.77624712588828, 82.28654215577738 121.78897180118636, 72.15440923290221 135.5124265466629 M87.94421848628994 113.78993007336963 C84.27821919158052 119.13768833299248, 79.87904851252259 124.80594686817882, 69.81904186681567 133.48432755153135 M98.82084162424698 112.00486184480505 C92.13494709835223 119.63525390725074, 87.51545647158821 126.37355634991296, 82.555085413595 133.09716002354233 M98.17898414961107 113.35710134330441 C90.96225259426285 121.63302288517522, 86.25805154179558 129.5005185552164, 81.69533250184628 133.8684944168478 M110.42501301885919 115.00327846062626 C103.70829438824012 120.43832958969332, 98.28667690177551 126.35680743429131, 92.12361204855443 135.34566423072079 M108.21407467180785 113.41196938897419 C104.0010374269563 119.58153859661999, 99.45648232622315 125.63661912528288, 91.44135383085795 133.62821385135513 M115.36508320104794 120.71690383216952 C109.54552500174422 123.52126773695586, 104.83048263666163 128.5611232617021, 100.97885103687005 135.0111228166287 M113.3669601774415 120.75947434469266 C111.74711252497927 123.8708854054538, 107.6008346230208 126.94133281163235, 102.09509785886871 134.22136791545427 M114.01225297421418 132.68066242517617 C113.71983854891339 133.40868438425227, 113.38245420875906 133.60796766645274, 112.9514421125326 133.9005817709699 M114.03911947072487 132.7938787551847 C113.5534224067601 133.28371027689454, 113.18107432037272 133.77726700491468, 112.97069149863533 134.00945378775265" style="stroke: none; stroke-width: 1; fill: none;"/><path d="M2.18635735916403 112.45807493290364 C36.6104287888205 115.82542897976755, 65.66889980565827 113.94989821447491, 113.03133210275548 114.90544687350254 M3.1668265880369875 113.1834736269831 C43.94223734223218 115.05766006827109, 81.60375438774378 113.62416602186391, 114.7104282399949 113.15253322427706 M114.25997719291665 115.23228264570463 C112.07237693321693 118.96784293547275, 115.53350739652366 122.98253031613335, 113.07774313491001 133.78329828298482 M113.97719995482164 113.97626206725458 C114.36093889898584 122.54994496587709, 114.84321486166495 129.64003690651936, 114.04171777167917 134.98198535812972 M113.06027145147696 132.9612227866551 C89.1459412605282 133.95662462371544, 59.94844865601547 132.22297845708857, 3.1264850787990346 132.52956482654906 M114.58413296238827 134.09126535706022 C85.9727536945339 135.35268696855593, 57.1905297650677 135.3967252436679, 3.281938691332015 133.58483550014648 M5.632460993565599 133.83907766215623 C2.4614940393220675 130.67933948563933, 4.172548192177473 123.58247071261272, 2.575946023413837 114.73332763291934 M4.739065280381518 134.30223455705283 C3.4083452553154543 125.7005741744231, 4.455409833453243 118.64542280065247, 3.0563238179224292 114.35223419341617" style="stroke: #000000; stroke-width: 2; fill: none;"/></g><g transform="translate(19.5,117.5)"><text xmlns="http://www.w3.org/2000/svg" x="39" y="-3" style="font-size: 12px;font-family: Helvetica;" fill="rgb(0, 0, 0)"><tspan xmlns="http://www.w3.org/2000/svg" x="39" dx="0" dy="14" text-anchor="middle">success action</tspan></text></g><g pointer-events="none"><path d="M14.144371636966234 135.33365466160458 C9.503736017445474 138.4688412511508, 7.1354425476979415 143.19784176971402, 4.725295186710845 146.65144913050204 M13.0274930884954 134.38660681260262 C10.26550012237569 137.60206935186218, 7.400316659362732 140.19597766278488, 3.386159893854025 145.08289019536969 M24.510314854727216 133.10464032717843 C17.896253154713598 141.5755557897845, 13.010985736113772 146.24308690579372, 8.676741193435337 152.38126989017857 M25.36783976190966 133.66886517326483 C19.235390189637855 139.067782858001, 15.411563470346028 145.87917023394155, 7.761942892352337 154.30887232597715 M36.73141414606621 134.19327771734717 C29.739496265951388 140.5677381709944, 25.71850496963679 142.57010565538872, 16.571248800459355 154.22141701984933 M35.21295131517002 134.21157679229975 C29.833160718804706 139.63509378101432, 24.84307920634044 146.06245539248553, 17.4098367459176 153.0809608442557 M44.433951787937 135.82820264141142 C40.51722961898446 140.62380205244554, 35.489233495502184 147.9083137997735, 29.921340048103094 152.74127673660158 M44.695476509518734 133.15064473282587 C38.21201138426922 142.53254414937192, 32.964768573543026 148.73628840183505, 28.636937253955093 154.48475284124038 M56.08065553219613 134.22643144190573 C49.68796196565451 143.3800107254315, 44.119417462234445 149.1157685425635, 39.05538149474941 155.32947041667902 M55.666236759747456 133.03435985818834 C48.602584229209526 141.5884249477704, 42.91775160474065 149.39862080074408, 39.52839187719594 153.92926640871283 M65.43898579482179 132.82242320882085 C59.11337717180614 140.99753565248923, 54.99045872362346 150.77964410884036, 50.4051887062208 152.70031173134024 M66.84322001682015 134.52638413157828 C60.94063106557602 139.9241393964085, 55.270356363170585 145.92210015297292, 48.928964444390196 154.2155449670185 M78.50304885387011 135.34897283603087 C73.99725574652152 139.24436640441493, 67.33868884897312 146.20395233684445, 59.86678294217642 152.650861622709 M77.50651368896875 133.94105273553853 C72.13148392441991 138.6864074158812, 68.10801519709798 144.8454690449318, 59.28709078777466 154.6042171826394 M87.39895017892098 135.2798314638332 C82.5240888656458 138.268794012302, 79.83150061780874 142.45363852410088, 70.55381501566521 155.57269980009923 M88.80747906895658 134.5279673561254 C82.54565274313201 139.8418065067619, 79.186785285332 144.24186780291527, 70.23086501862753 154.93281106773065 M100.40156327898166 133.73919409601092 C91.53851056287448 139.68288459587689, 87.23098353272275 146.28649519527548, 79.95554693982994 153.46053892597882 M98.54139786462014 133.37242308949203 C92.69531323238661 140.71018139046978, 87.45820759151974 147.11741616425817, 80.47782233180443 153.18196277794857 M107.46154705385929 133.87588795404665 C102.41781198376502 139.6052533105537, 96.0722061015022 146.87385136712854, 92.10140400587154 153.16848743124788 M109.99183206486543 133.28414390173364 C103.02794226333577 140.0580570923755, 98.44426253342064 147.62472325806334, 92.5590052115803 154.80697227800206 M115.67746830441482 141.94809574236768 C111.25909249305265 142.20470013633167, 107.53944484887305 148.3909467165754, 103.75202008509774 154.6056834777969 M113.37727423345065 139.8097783099817 C111.36648119031477 145.35098757714442, 106.76396095131143 147.83419764263323, 102.415121845803 154.72777471789178 M114.02389066344392 152.87793915152764 C113.78033580301273 153.20680973436725, 113.51889801299599 153.35171392220605, 113.03693353565288 153.99491990319908 M113.97890162903502 152.8060875609549 C113.54528653880742 153.2583729287207, 113.15706628374366 153.72964820125245, 112.97915599284832 154.00304582533855" style="stroke: none; stroke-width: 1; fill: none;"/><path d="M4.207802425967949 135.4207062697329 C48.03039203743215 132.11565326234256, 87.63680841673096 132.07354901076152, 115.46244392982439 132.90074086821753 M4.547779923773174 134.6847837840919 C26.300184705978527 134.4372968055109, 49.41345317472828 132.93716506008207, 113.11503788364536 133.79731461302632 M114.94311548467809 132.58965422882534 C115.07940011004222 141.26323261369797, 114.50525134817653 150.29194976949367, 112.8199648417565 154.50508550596882 M114.88878847838873 133.35967150808602 C114.918721835013 138.51683524368676, 114.53049324736605 142.25162061557205, 114.63222238902654 153.63190770232669 M115.75561842537859 152.0916355974278 C71.69217947733496 153.76240417951266, 32.17107318348524 152.92684260387003, 3.1760388882786925 154.33550585141666 M113.37284154800894 154.85248601147404 C84.12754798099958 154.60584630526876, 55.861705060293524 154.69650406933178, 4.873179264231215 153.40721042430903 M2.3607013679777715 152.25946309222317 C3.380686762451741 148.69807368557323, 5.568543291709657 147.69104924590994, 5.426538094434918 135.41845940240563 M3.054567872108329 154.27868125065606 C4.766492550687286 147.3279078367893, 3.891636561528719 141.92671198551983, 3.8876214509160985 134.40972827812087" style="stroke: #000000; stroke-width: 2; fill: none;"/></g><g transform="translate(28.5,137.5)"><text xmlns="http://www.w3.org/2000/svg" x="30" y="-3" style="font-size: 12px;font-family: Helvetica;" fill="rgb(0, 0, 0)"><tspan xmlns="http://www.w3.org/2000/svg" x="30" dx="0" dy="14" text-anchor="middle">error action</tspan></text></g><g stroke-miterlimit="10" pointer-events="none"><path d="M 114 104 L 183.38 67" style="stroke: none; stroke-width: 0; fill: url(#rough-8591493575433547);"/><path d="M114.12962304004672 102.83360511186342 M114.37840321584308 102.0786360977532 C142.4827105455294 90.71270310865037, 166.82725969549696 75.78801180774644, 184.4726227158874 67.36818346581519 M115.0750687996138 101.89193813647759 C128.25120813465898 95.89752347929316, 142.4432761561291 87.73439032727306, 183.60417867236902 66.28905639462464" style="stroke: #000000; stroke-width: 2; fill: none;"/></g><g stroke-miterlimit="10" pointer-events="none"><path d="M 188.01 64.53 L 183.48 70.91 L 183.38 67 L 180.19 64.73 Z" style="stroke: none; stroke-width: 0; fill: url(#rough-6114560174039561);"/><path d="M189.48918518396556 65.6443092506258 M189.2050190214722 65.05085010171146 C188.20399283201127 66.82523517487105, 186.41287507870223 67.6201216331185, 183.31340443587194 70.30728385125877 M189.2826574313348 65.24599048746576 C186.83265294787742 67.54546081987435, 185.26817916786732 69.70136409353621, 183.39029733509537 70.8635008104511 M183.6216905277453 70.60021538496453 C183.47120751842274 69.23294194132504, 183.31555697092725 68.59655846735629, 183.10466833325475 66.74563434451328 M183.43111413072805 71.03999809988449 C183.47301020967905 69.49284943234156, 183.41578579310388 68.3887372793829, 183.47428298575318 67.15719021822169 M183.11011366508367 66.66781963720665 C183.08640034529185 66.5510180936025, 181.88662295391262 66.12129150995273, 180.36384993798103 64.41751718927804 M183.37922906586974 66.81288684144495 C182.47186381005758 66.61081520999461, 181.62882409367032 66.04347149592822, 180.00864534933095 64.79554721192798 M180.4032834652197 64.50021188726474 C184.16650110929658 65.06733174999408, 186.8887060320857 64.8405160634268, 188.63014548920646 65.9666908108791 M179.94525451815872 64.65333170761296 C182.35281670303087 65.26215371690353, 184.07237875702 64.86277089321128, 189.87579628081735 65.59041773317848" style="stroke: #000000; stroke-width: 2; fill: none;"/></g><g stroke-miterlimit="10" pointer-events="none"><path d="M 114 124 L 186 124" style="stroke: none; stroke-width: 0; fill: url(#rough-2842654064869157);"/><path d="M112.3466076020038 123.9440502689407 M112.67407509913129 121.97858323045209 C135.7337054611737 123.78372533830975, 154.56123342601367 123.88223975628897, 184.80074179693557 122.1784444598343 M113.34257083384529 124.45228909564595 C129.10659338942554 125.34254278234835, 146.37787697882857 123.99327731642684, 186.2056582781289 123.62177796372904" style="stroke: #000000; stroke-width: 2; fill: none;"/></g><g pointer-events="none"><path d="" style="stroke: #000000; stroke-width: 1; fill: none;"/><path d="M188.83901285978382 121.44380684667402 C189.4558876243678 121.40528885278671, 190.6875131084885 121.55743206832645, 191.05135571710352 121.87566515838414 C191.41519832571853 122.19389824844183, 190.85409423850984 122.77026720390968, 191.02206851147395 123.35320538702017 C191.19004278443805 123.93614357013065, 192.21112517633262 124.99159673521196, 192.05920135488822 125.37329425704706 C191.90727753344382 125.75499177888217, 190.61642051419187 125.47242763084566, 190.1105255828076 125.64339051803083 C189.60463065142335 125.814353405216, 189.72589903929554 126.28352241389337, 189.02383176658256 126.39907158015805 C188.32176449386958 126.51462074642274, 186.26786871355466 126.79101515602953, 185.89812194652967 126.33668551561898 C185.52837517950468 125.88235587520843, 186.74910274785586 124.45984496527346, 186.80535116443252 123.67309373769474 C186.8615995810092 122.88634251011602, 185.87350342439555 122.04811702778207, 186.23561244598963 121.61617815014668 C186.5977214675837 121.18423927251129, 188.64451643281325 121.14486308702806, 188.97800529399694 121.08146047188238 C189.31149415518064 121.0180578567367, 188.33283336915355 121.25601341788882, 188.23654561309186 121.23576245927266 M189.62586188639452 120.31102872152502 C190.00511355316337 120.31011006242831, 189.95078786640357 121.9125203240851, 190.1396815208615 122.69228360740848 C190.32857517531943 123.47204689073187, 190.39798215389476 124.43698277535313, 190.75922381314217 124.98960842146539 C191.12046547238958 125.54223406757765, 192.43062585952018 125.80885994622847, 192.3071314763459 126.00803748408205 C192.1836370931716 126.20721502193564, 190.9677342614307 126.07976686774202, 190.01825751409638 126.18467364858695 C189.06878076676205 126.28958042943188, 187.4681661750872 126.96912084144951, 186.61027099233985 126.6374781691516 C185.7523758095925 126.3058354968537, 184.97063647111443 124.67955035349031, 184.87088641761227 124.19481761479953 C184.7711363641101 123.71008487610875, 185.41305540564593 124.33906336438946, 186.0117706713269 123.72908173700691 C186.61048593700787 123.11910010962436, 188.0437152314278 121.10085890003518, 188.46317801169803 120.5349278505042 C188.88264079196827 119.96899680097323, 188.36455779792806 120.32254110387152, 188.52854735294832 120.33349543982105 C188.6925369079686 120.34444977577058, 189.46548545760626 120.22208606227434, 189.4471153418197 120.60065386620145" style="stroke: #000000; stroke-width: 2; fill: none;"/></g><g stroke-miterlimit="10" pointer-events="none"><path d="M 114 144 L 186 144" style="stroke: none; stroke-width: 0; fill: url(#rough-3632613500806189);"/><path d="M112.55964016559851 145.4427503129399 M110.79195931639391 145.73581838681375 C129.93161897891122 144.9418610794737, 145.62442427660662 143.66543068318506, 186.8753730908525 145.39410224118302 M112.63631045081453 144.9693544904491 C131.631724999063 144.79598780923934, 150.99828983304266 145.81537219489405, 186.4665913753022 144.6581177727778" style="stroke: #000000; stroke-width: 2; fill: none;"/></g><g pointer-events="none"><path d="" style="stroke: #000000; stroke-width: 1; fill: none;"/><path d="M189.24693612495992 140.71312626690488 C189.80009783013682 140.90595709444273, 190.44743039329816 142.02129774221893, 190.8794562016418 142.4364998065631 C191.31148200998544 142.85170187090725, 191.72156559829887 142.783018147219, 191.83909097502172 143.20433865296985 C191.95661635174457 143.6256591587207, 191.78768875024576 144.39199535305022, 191.58460846197897 144.9644228410682 C191.38152817371218 145.53685032908618, 191.23885940560538 146.445390068483, 190.620609245421 146.63890358107773 C190.00235908523663 146.83241709367246, 188.50467483281852 146.1608021985109, 187.8751075008727 146.1255039166367 C187.24554016892688 146.09020563476247, 187.05475183493581 146.9479708973331, 186.84320525374613 146.42711388983236 C186.63165867255645 145.9062568823316, 186.59036665521205 143.63716263356886, 186.60582801373462 143.00036187163226 C186.6212893722572 142.36356110969567, 186.56540567769258 143.11386339075875, 186.93597340488148 142.6063093182127 C187.30654113207038 142.09875524566667, 188.51301163751543 140.37736034404196, 188.82923437686802 139.95503743635595 C189.1454571162206 139.53271452866994, 188.92762536417766 139.72489386688727, 188.83330984099692 140.0723718720966 M190.33516287226155 141.8872077431707 C191.00183620418483 141.5713449498006, 191.6428337197258 140.16833296125446, 191.78779890381438 140.57785067270433 C191.93276408790297 140.9873683841542, 191.52451848560202 143.49707375817482, 191.204953976793 144.3443140118698 C190.885389467984 145.1915542655648, 189.93352854726743 145.3149547083385, 189.87041185096032 145.66129219487422 C189.80729515465322 146.00762968140995, 191.31094360853967 146.36467747987436, 190.8262537989503 146.42233893108414 C190.3415639893609 146.48000038229392, 187.77180317828962 146.29645428658108, 186.9622729934241 146.00726090213286 C186.1527428085586 145.71806751768463, 186.33028297911292 145.10441141484637, 185.9690726897573 144.68717862439476 C185.60786240040167 144.26994583394315, 184.3934167279554 143.87079699275682, 184.79501125729038 143.50386415942316 C185.19660578662535 143.1369313260895, 187.67657998853707 142.72231010201924, 188.37863986576716 142.4855816243928 C189.08069974299724 142.24885314676638, 188.98597863730484 142.5591218003725, 189.00737052067086 142.0834932936646 C189.02876240403688 141.60786478695667, 188.5005749834784 139.9477549939673, 188.50699116596329 139.63181058414528" style="stroke: #000000; stroke-width: 2; fill: none;"/></g><g transform="translate(29.5,67.5)"><text xmlns="http://www.w3.org/2000/svg" x="24" y="-3" style="font-size: 12px;font-family: Helvetica;" fill="rgb(0, 0, 0)"><tspan xmlns="http://www.w3.org/2000/svg" x="24" dx="0" dy="14" text-anchor="middle">Promise</tspan></text></g><g transform="translate(205.5,28.5)"><text xmlns="http://www.w3.org/2000/svg" x="0" y="-3" style="font-size: 12px;font-family: Helvetica;" fill="rgb(0, 0, 0)"><tspan xmlns="http://www.w3.org/2000/svg" x="0" dx="0" dy="14" text-anchor="start">then</tspan></text></g><g transform="translate(218.5,46.5)"><text xmlns="http://www.w3.org/2000/svg" x="50" y="-3" style="font-size: 12px;font-family: Helvetica;" fill="rgb(0, 0, 0)"><tspan xmlns="http://www.w3.org/2000/svg" x="50" dx="0" dy="14" text-anchor="middle">  if (...) resolve(...)</tspan></text></g><g transform="translate(214.5,66.5)"><text xmlns="http://www.w3.org/2000/svg" x="54" y="-3" style="font-size: 12px;font-family: Helvetica;" fill="rgb(0, 0, 0)"><tspan xmlns="http://www.w3.org/2000/svg" x="54" dx="0" dy="14" text-anchor="middle">  else (...) reject(...)</tspan></text></g><g transform="translate(205.5,6.5)"><text xmlns="http://www.w3.org/2000/svg" x="0" y="-3" style="font-size: 12px;font-family: Helvetica;" fill="rgb(0, 0, 0)"><tspan xmlns="http://www.w3.org/2000/svg" x="0" dx="0" dy="14" text-anchor="start">fetch</tspan></text></g></g></svg>