<svg xmlns="http://www.w3.org/2000/svg" xlink="http://www.w3.org/1999/xlink" version="1.1" width="379px" height="179px" viewBox="-0.5 -0.5 379 179"><defs><pattern id="rough-3036462338530635" x="0" y="0" width="1" height="1" viewBox="0 0 100 100" patternUnits="objectBoundingBox"><path d="M7.393712099811358 0.2209731171849625 C4.917873528387268 2.08830121837535, 3.471084947937043 3.064498068825957, 0.6688741744585824 7.422042746890036 M6.427904733885819 -0.004909427024313295 C5.144591493233082 1.9137139599388622, 3.7092422935214397 3.855889306882598, -0.3150577712191106 8.003218205026931 M17.51573149876065 1.9371041056574105 C14.012226782071902 5.628225549133592, 9.259808768011954 13.551106019448259, 0.9625212079767564 20.4100725170321 M16.88050351131506 0.5020011698816256 C12.73104407843038 5.699137190448161, 8.490559959600944 12.07055635345942, 0.5984491112221066 19.46052417975895 M27.50255789951434 0.19805408166622396 C17.52038422747539 10.259072656711245, 6.9335256704376995 25.226841113050412, 1.7227289578920661 30.888877579975798 M27.580997056626643 -0.39698721625186906 C21.080652221875607 8.535410305705089, 12.810654654221306 16.862987716947142, 0.7800692727548029 31.381439137502273 M40.27534153366126 -1.7314894852599299 C29.213362575379854 7.519142466412431, 23.775676672396816 15.914144966257094, 0.8653266090004452 45.38734990329638 M38.30976763859977 -0.2166699637103382 C27.670162484728504 11.801466499675005, 16.494861310042523 24.040795541857648, 0.3994748909554331 44.665233052039596 M49.3730799213776 1.8504163778420697 C36.60939745900721 12.419666510901493, 29.045792014394934 26.453849970916544, 0.9326260791208991 57.63571949968081 M49.347411220828995 -0.7287414787935602 C30.64145178934264 22.5157472611072, 11.259403809274595 43.78513967648715, 0.6933583218550305 56.81536175334649 M60.64611383198908 -1.668428331652171 C43.20424651347079 16.781771373717795, 28.688816246633657 34.94386117978, -0.3401429697507794 68.4121530630195 M58.906536389038145 -0.0688693564332552 C39.95185188157553 22.815985085600616, 19.66987810405565 44.886685007471705, -0.13535845241604916 69.27471025064978 M71.21187746671391 0.8198747611709303 C49.39949292804964 25.246271285262626, 29.759881418510716 45.50185981688607, 1.7572638560061682 81.14195001723893 M71.16327793559388 -0.2801433238035349 C47.36533086641348 27.35600401585851, 23.712921698022466 53.22636634315029, 0.1262476046813572 81.17264560062938 M79.18674999264056 0.4579348706499422 C57.57415259077891 27.078435779651834, 34.31910529526379 54.31218621673098, -0.763473291594897 94.14515111354575 M81.52590284241349 -0.8184930844745191 C64.56469474798834 17.801727191468547, 48.356710206188794 36.36643925050354, 0.4699503825282747 92.35615065223863 M91.95371691386605 -0.7329924369196492 C70.41977818327102 25.837936517326014, 49.11838633243031 51.90197478993646, 4.653531819448739 100.16984740620606 M91.06866435172738 -0.9855044685560688 C59.77738905813208 36.62675739669186, 27.213198672472217 71.97519076673268, 4.189970546515969 100.35799349458375 M100.03195933839285 2.7546185938438237 C83.47984514300923 21.67852401331383, 65.26439013000174 44.43130141596649, 16.323395831044298 98.5181732077572 M100.79119954333662 3.503437035196435 C70.14734456839595 36.91246364872666, 41.61968250946929 71.21630005033593, 15.670936956200691 100.60184087926253 M100.19799578159612 14.372548753758592 C73.27104995668266 47.695621338831785, 42.82053933558873 78.30158396531746, 27.667003974979973 99.89635171108772 M100.73741548598343 13.852212037850379 C71.74901558009539 49.43797568249848, 42.818025731611705 81.70343049791896, 26.164491116358068 100.30111045587189 M99.1101900472556 27.48926242040073 C79.91780229506078 49.1193619851762, 59.70110977262229 73.08989403742984, 36.72145751282655 99.46385429085997 M100.76143049476732 27.736756365139712 C82.60316056063279 47.22538403580576, 63.66025712957687 67.708971821218, 36.64062184769779 99.67444700937598 M99.78718381158956 40.16923996325928 C82.07484240567014 63.558552268603165, 61.21223433131429 82.1737158573848, 45.53471699709714 99.98518924034695 M99.06747447310204 39.753201817811046 C81.18212917120445 61.00020610172513, 61.512120783258794 83.13689471019298, 46.519565441629716 100.48076815576081 M100.77340642237112 49.77859092550013 C87.71975918442007 64.79627371704225, 75.97054368161247 79.66333664465803, 55.93687708894708 100.09369705157376 M99.61129366886543 51.014723934733446 C84.72563257792308 69.43994277798897, 69.19852040670263 87.22383657749933, 57.00189824462368 99.57236618147408 M99.84677940290685 62.17058747954644 C87.07209558925466 75.03562500015232, 76.05286200788959 90.79352730232361, 67.3104484502058 100.7288933705848 M100.4694468468037 64.23734458871161 C87.70552100326766 76.87076802038673, 77.52209596090196 89.84986396592603, 67.31112372589914 100.74936957212273 M100.2497596427716 76.61136145731906 C95.1806187568449 80.5369360620531, 91.6613659221107 84.20799639622851, 77.55266482010073 101.9108108982004 M99.49676501978988 76.63038844582668 C92.40372107543394 83.27302032133328, 85.37628268964279 91.65201897699157, 79.36563688015073 100.34017780848679 M100.33591996746331 88.45754325519917 C97.92084353484309 91.74918145588548, 92.97644254620846 93.72648686348512, 88.49867917934117 99.64179711977344 M99.93675994341373 87.7940073658767 C96.71077868214977 91.31301100176167, 93.83758490038907 95.22372061030222, 89.34033734666221 99.76007244453903" style="stroke: none; stroke-width: 1; fill: none;"/></pattern><pattern id="rough-6325380898034479" x="0" y="0" width="1" height="1" viewBox="0 0 100 100" patternUnits="objectBoundingBox"><path d="M6.248359495786578 0.2615127514340976 C3.730627856253774 2.3888794512809617, 2.012270870965266 4.902954619813106, 0.46362183678170465 8.273044881957574 M6.653567514228231 -0.12936317297699929 C4.443372548062217 2.6037846617242355, 2.48954692274273 5.038537552140169, -0.35576223574317656 8.273524986323988 M19.251536721050428 -1.0477873246049905 C9.68390221196299 9.83982102814123, 2.2422953083749286 15.069367471224744, -0.6971640773730856 18.54857737720665 M17.6920648565048 0.8854570693191404 C13.370558725402516 5.626402494802363, 9.644963587290196 10.734632829240711, 0.046646964425402615 19.467713555560856 M29.771916235700772 0.7366885675572652 C20.21663905143382 7.307583222895703, 11.321066869724284 19.36457485904912, -0.5614651498707159 30.291161530478384 M27.344349516293423 0.6749651577108966 C21.41622645303098 7.175586750117187, 14.343741603363142 15.322243828175132, -0.6290082180657621 33.10327096137616 M40.29012556358729 -0.10825735340195575 C28.849725017120786 9.874413897457737, 20.003176256516458 21.16704344056255, 0.5605797061013069 44.24988513546424 M38.130258125613004 -0.27273629187064596 C25.32544021293972 14.550333346373941, 12.416786302835556 29.608264574494193, -0.09876433515158745 43.69572003673927 M49.67979117344104 -0.3614410451673651 C28.13315314278237 20.797262375278898, 10.107710393549862 43.80022627538617, 1.6207992097326906 57.04441862803992 M50.08548442798882 -0.6065476381204817 C37.77744623096586 12.134271724963495, 25.712838407876667 25.89086325500575, -0.5442867767999555 57.07692454628234 M58.95541527135238 1.0289917731430709 C47.00787816913193 18.919860453251165, 30.42011425772288 34.697166751679774, -1.2375804521024563 69.88436258062266 M60.00973157682762 -0.15308917253724852 C35.3266490195281 27.080827795532223, 12.96633294976402 54.265495427025016, -0.07011829789523105 69.58806622712044 M69.5354667699934 -0.558846505144686 C43.33941054205415 27.764930221413927, 20.38662521769958 58.65340107062029, 1.8914709972720765 81.26139509516632 M70.83256849062333 -0.9900833315698963 C53.93581832619555 19.29067326893576, 36.761336068800254 37.47645705240463, 0.3776629605707118 81.68184301280694 M82.4235092959482 -1.7949340431549716 C61.594398921667604 24.277263045613644, 41.30078317802127 47.47597647150454, -0.5286390031554715 92.5013189992051 M80.81714237492156 -0.09753149194299882 C53.56723180277875 30.006820798758262, 28.350386982320995 58.0828380453948, 0.6953834532191601 93.82927842448046 M93.59212305730595 0.9205406719559823 C61.03874002808274 31.512864570238527, 35.43653691416827 62.57449381923674, 5.420082162874507 100.57060910951037 M91.5835502651385 0.10266852915819413 C67.02765369686823 28.90148975473857, 40.39543554340069 59.20731746332863, 4.535348391071475 99.91686172299472 M101.0008053921914 2.2300616783532554 C76.58577299690711 26.354011117703905, 54.95954344000898 53.00336067789394, 16.908921322034587 100.14474117505776 M100.92388688071601 3.1399605051262376 C79.18579692531625 27.916589399862684, 58.21438660583289 52.29365479152426, 15.643227181785363 99.12613419174563 M99.51811797630738 13.298141393174275 C74.76172100342983 45.81731661609379, 48.75765635308718 75.94488879196368, 26.909113573698 99.1637179012429 M99.20114318455697 15.010958824149617 C84.33627661603775 31.671235575085905, 70.26231296219207 49.84477896741273, 26.004549315956684 100.65568604536828 M101.74862187077102 27.35612395381863 C85.18940978523868 44.857947062898695, 71.43108968368338 58.9460819594114, 34.55284563751733 99.15547932670542 M99.10289963084254 27.080696733502247 C80.4081556939339 49.03430224008991, 61.20037427081692 72.07733508055769, 37.137827465916224 99.10055235907372 M99.75348842955479 37.6451973562727 C86.3497671370728 57.03942364688292, 72.93076055284646 69.73149904772748, 46.77096814889016 98.4562907090887 M99.17595054663155 38.82017196675983 C81.96395575460726 58.76999162806732, 65.31216670981921 79.028129072394, 47.55966152234222 99.11787584003393 M98.7163555461499 51.67821742152793 C89.3303994478373 65.79832872230281, 77.3834711611871 79.0157550580557, 56.129228558885195 100.91933073418662 M99.90052923764591 52.287443962218646 C88.31152458553534 65.77708550841761, 74.84119755068879 80.72195741363566, 58.52129176755312 99.88826234233989 M100.6793156366383 65.27525579437447 C92.89133825460863 74.11976331798621, 84.1472272412598 83.11896122607364, 67.67981760640961 100.53247548200315 M99.51310563944068 62.72221949452999 C91.35920122542407 75.63670883515988, 80.26713084571762 85.23006888571629, 69.03553036017432 99.80637835569803 M100.50682642578819 75.62585377145015 C90.37822549716023 84.78536443204885, 85.43232430156306 94.95566122496734, 77.56459043159893 99.82138490193884 M100.79608712719727 76.18395964563669 C93.63438920300393 83.38502271062463, 87.27438640826718 90.91075141039252, 78.10745830146982 100.32534127532944 M99.69344529458515 86.62920681639311 C96.72481969350521 92.06642035968676, 92.90298029448154 96.71357439494764, 88.49625231713632 100.54198361109316 M99.3545145998266 88.1800240691409 C96.60123487927899 92.52060749447273, 91.91063666528912 96.95163913603606, 89.80404430221223 100.73405991458486" style="stroke: #000000; stroke-width: 1; fill: none;"/></pattern><pattern id="rough-2688760129916573" x="0" y="0" width="1" height="1" viewBox="0 0 100 100" patternUnits="objectBoundingBox"><path d="M6.836178052556715 0.16009274388834616 C5.355390564306999 1.409928420595305, 3.712637046309951 3.7431755911326228, -0.7807830584146906 7.600283530642175 M7.19615502148627 -0.2789997685885825 C4.264940469735737 2.6094972942300214, 3.09596842202113 4.939625355542694, -0.09824531034910733 8.328723775441945 M18.98610884601398 -1.040579900886538 C12.160865162669417 6.199532090700062, 5.909859917200688 11.5836109436407, -1.5996339028482458 20.50320096356668 M18.337266405023406 -0.3102350936331204 C11.02420887474754 6.644419661348291, 4.3273847271351995 15.81487716500164, 0.06470346587357456 20.40958846632246 M26.507253269349405 -0.22428427717630228 C18.709151594949898 8.649046211292745, 8.43217167837192 20.720656002439863, 0.14619198370526565 30.761273457308842 M27.647189185910204 0.5112062363055383 C19.23365327483576 10.60322703994811, 10.11793250828762 20.266450203129093, -0.6187529031518193 31.619949599515856 M38.86401089328935 -1.6340882248350708 C28.067809854643393 8.009117530652981, 21.046158813428228 18.66097793063659, 0.3361207511530129 45.355263856347804 M39.56424019749102 -0.5698913113771682 C28.320069875004833 10.52101068089114, 18.24616402471672 21.928167776867284, 0.9196910499175459 44.47171201606267 M50.90858286081664 -0.13027407384670386 C36.05754332229372 13.280833918209861, 23.575116254727345 28.604666993855936, 1.6559244891743177 57.480231281416195 M49.14584546128611 -0.97095934748755 C29.750686011451165 21.636951195165185, 9.351446112856106 45.35810619381865, 0.5380265593066444 56.072990432300394 M59.356488502592164 -0.3505670108469383 C45.03585284289096 15.5466084786513, 33.55196184725476 31.60681080780135, 1.4772233169486109 67.3863738511506 M59.79573879563914 -0.9860647078090206 C43.39075164745328 18.652947380957634, 26.935198499957973 37.65227776582571, -0.42395430532960177 69.4193965657541 M71.83301721503544 1.13176551353921 C54.93898844146994 18.060313689784444, 39.053010736462156 40.00111730177555, -0.072638209824758 81.75108743747609 M71.15548111694747 -0.26935153858110006 C53.05458825910449 19.264707619281978, 35.68343950658173 37.817202234087866, -0.31112750879796813 81.16999084991673 M82.25368052603869 1.6907851125473705 C53.38160696203813 30.817613382323916, 26.53414614508287 60.16390057205668, -1.5271549879271245 92.51641299939324 M80.29079531840785 -0.3079492017411387 C55.283924006415035 30.612934120796048, 30.30051997606801 60.11505755799354, 0.37703990565741874 92.92425996505638 M92.6978236504595 1.2560834858071548 C71.16843571631374 22.887555879182084, 54.95423347790448 41.864571559954165, 4.460372744622732 98.27435696394429 M92.48429226492718 -0.10905428553083496 C66.3778571088337 28.24822184981781, 41.62531013693239 58.55909314348038, 4.5886112042574565 100.58007551882456 M98.25061538545744 3.402419842899983 C71.76079268960703 35.23829646764285, 47.293550428067356 63.913982430825605, 17.061535099845607 101.61106237919758 M99.52463626570879 2.900379062302771 C69.38809033702695 37.76577240491291, 38.908244281079746 72.21278436738284, 16.213725533321448 99.80910924060228 M101.85030220863035 13.545201905655395 C85.40470988335018 33.8273187642166, 68.95857991441271 50.95336453789506, 26.73410511051228 100.29698225207602 M99.64401522337428 15.6554932673249 C76.20406571991384 41.470285433759535, 54.141314298066185 66.70467108068604, 26.64532712537379 99.79616815078475 M98.13150291552853 28.176219054634764 C77.36827056874392 51.30766470572303, 57.536791575521754 79.51287522482914, 36.463877586494334 101.00497877218706 M100.09157645913356 27.478736590293355 C84.10028806190049 45.364877898495855, 66.84218423709812 64.52438816748787, 37.15887910810677 100.83134249763549 M100.24315717618123 40.821621294203666 C86.52574536446103 54.0520203018373, 76.21633563531653 69.03020467594567, 45.2182003309056 98.77718540920642 M100.79537532629502 39.1285073890228 C85.18207773937425 56.12316642268621, 70.94564596190038 73.62302620877401, 47.85751787816563 100.8718754307102 M101.49973868607815 50.120445816561386 C91.2470148467383 63.85405277506316, 79.76888391052064 75.85740356023089, 56.831758956202684 100.55815379660164 M99.98229186507069 51.03155704879076 C87.77723681408766 66.71829118569823, 72.23807977364896 82.69402552300309, 58.22018330531406 99.52136968620732 M98.45572117179371 61.508254555091106 C91.2860866991788 73.55557245701989, 85.51558919524632 79.98325476085503, 68.01101877761089 99.52545013738097 M99.69419107816259 64.32223643125091 C91.33842197640813 73.47483332186357, 82.76759463318686 84.43581558283695, 68.40783407999713 99.40165289760962 M98.21187300199455 76.41859777320057 C95.14262776321051 82.31139542900054, 92.18401367567073 83.93276003359036, 77.1967734020992 101.63655846851493 M100.36660848787031 74.8433073820506 C94.74242385165431 82.92045044628942, 87.49915959569142 89.63009007016146, 79.27566221197641 100.93790204108916 M100.35304133893771 87.30800263719102 C95.88572890696096 92.077510746112, 91.71597947703421 96.92260398938635, 87.93141250314035 100.90647137630353 M99.35784393833869 87.70078629968019 C95.43391494969205 93.16502097997429, 92.27721877612015 98.21021553223018, 89.38438336876845 99.38974016427679" style="stroke: none; stroke-width: 1; fill: none;"/></pattern><pattern id="rough-7169820915549749" x="0" y="0" width="1" height="1" viewBox="0 0 100 100" patternUnits="objectBoundingBox"><path d="M7.596603094097562 0.5934298616415541 C5.183742968606679 2.1257739881408506, 2.8200860134997443 5.33743213525524, 0.7714518244335262 8.012198087983728 M7.178868154173509 -0.047122292171428604 C5.59146162216988 2.15249976071355, 3.3576018801358414 3.7194791826140308, 0.02406433803203689 8.205876095670634 M15.84647778528294 0.9814646332243706 C13.735865455785003 5.957329608614423, 8.843978756832282 11.640530098862119, 0.9591626445545751 18.716005748004847 M16.48052671022933 -0.4250809791688117 C11.370458220862595 5.652037140393086, 5.803431647716733 12.926448789508475, 0.2778370831376842 19.943524608471186 M27.888566334393037 1.1382117596372527 C20.007926829968753 9.314948661551421, 10.980129583084583 22.19638455928208, -0.5873262083418709 32.87606555156353 M28.12180719557512 -0.23924277027734187 C20.107308662549425 9.222239761865712, 11.66776450928954 20.21784175219286, 0.4941970370732416 32.04458581415751 M39.696422654583806 0.34415899280527995 C23.77179983223663 16.529717796573884, 10.88525902023362 33.43114617060527, -1.4320775884938968 45.825016472480414 M38.6242489568349 -0.25163579713281026 C28.68139966044967 11.370225997525443, 17.378696948852806 23.11471162296773, -0.24482547537882038 43.97905935039152 M47.8804181404814 -0.12667024192459753 C36.27144181700474 17.05523212350365, 23.33627371184673 29.423891907296415, -1.9867845221081497 56.34399143239199 M49.30407040956805 -0.5813854329820671 C39.10322957529229 12.908226209629202, 27.350701938614954 25.857922970300184, -0.3828202357773023 57.4887452921842 M58.18542395809351 0.9430490014105795 C40.134357815463 22.31197452456206, 16.29640654232165 49.22668137205631, 1.1743437742610627 67.15050377783463 M59.62655220341968 -0.9268068566741197 C42.851709544510385 19.783502590285078, 24.271886214921853 38.96206026851982, 0.8453689737051517 68.41295569079746 M68.78026652597025 0.38692919982917306 C50.3144182315863 21.4151791173717, 33.281883559838846 42.66828250696174, -0.46869989742630747 81.2147650821805 M70.70041499149747 0.1677821998398672 C47.7248856080705 25.208860646818046, 26.15694936443114 51.382620545785414, 0.4646764001988526 80.94511246943108 M79.2086115998923 1.834305312415582 C64.91774563716373 17.97559720903502, 45.74644587641032 37.09704179665205, 1.7648271787233627 94.42749604561982 M80.52703588329283 -0.5900375013437884 C52.617056862878364 31.512301517174926, 25.23444638763295 62.656745337763645, -0.7004164952470022 93.51105743848042 M93.50755383474882 1.326056535313481 C64.85772962774041 30.82847131539684, 39.21120632117867 58.58139420249564, 4.58906749096821 100.98291649555101 M90.91335313569287 -0.9603026322569188 C71.44919803392781 23.65963310995445, 51.18092993939291 46.36008866736508, 4.628583949637267 100.806121593879 M100.59946591730426 1.1728540673242467 C70.7528108966163 35.1368539247498, 41.03315216729017 67.87781500909489, 13.669541221046568 100.82101354023314 M100.08411142014559 2.0872310225382193 C68.83038428695562 37.293098312512214, 40.02535079588218 70.75016469440125, 15.437607559205638 100.00583973600192 M100.51135124838368 14.48902281859052 C79.51791916739967 39.90814972532748, 58.555903915079014 64.08147228732383, 25.660189142232607 99.60896155473874 M99.56631276236666 14.201221814061018 C81.60810972024417 34.91657823675554, 62.53726497472285 56.432267610276156, 26.545025505960496 99.8003485732203 M99.16044497462221 25.128875643209454 C79.1862420493164 50.58877888269847, 57.381747410116624 77.86722976914855, 37.235933759988434 100.91878418048063 M99.6542966273602 26.443240856817308 C81.39227794504737 47.922031266381715, 63.70802084918799 68.96189341249661, 36.51108359660735 99.6687873819637 M101.82794778379302 38.314030884397695 C85.20868581894702 57.09463740876833, 70.08501382738915 71.1790666635132, 46.141498033748775 98.37313345726479 M100.64420796812156 38.27784821432364 C79.61221407684519 60.506223101090484, 60.576165679977485 83.19794376658345, 46.816007470517754 100.24624455814354 M101.17401672532154 50.349120196340664 C85.03178545459836 69.6418237695483, 70.01647048924238 88.67750429297124, 58.11859401430801 98.9166152980092 M99.3941977025563 51.738117119502895 C89.8184101257168 64.51680102380423, 78.04221034799305 75.5224509354076, 58.37852008469048 100.91424101961786 M100.29746255925355 64.1022800795276 C89.75017409163188 75.3902657310704, 80.15702258517415 88.88465558629191, 69.88088043657108 100.53682969416468 M100.20067647061633 63.656108954244345 C89.91387216747545 75.8478127584924, 80.57287996181842 86.21451953661779, 69.04499722434423 99.81663473773463 M101.14038843677695 74.65858290363444 C96.73819479312844 81.95461731421851, 88.80096191559252 87.76640876678884, 78.49504909651027 101.54640617392678 M99.08898032376466 76.59655864248549 C91.46581542135856 85.14607689339951, 85.54066226487156 92.87759644513937, 78.57493061142281 100.20155322195218 M99.60288216271144 86.6309235320734 C96.14084225625797 92.24774716654896, 92.94671660236291 95.6668150590649, 88.13689523064697 99.52408419841353 M99.38598098919914 87.61153880411709 C96.09330072703376 91.58874471615236, 91.82567810820547 97.02456798676694, 89.10351461752555 100.15024404426238" style="stroke: #000000; stroke-width: 1; fill: none;"/></pattern><pattern id="rough-7380694218901479" x="0" y="0" width="1" height="1" viewBox="0 0 100 100" patternUnits="objectBoundingBox"><path d="M6.880883802645436 -0.4073515094619994 C4.6376248410260175 2.5799497229527875, 2.596512610113179 5.791346452085764, -0.012009211852772594 7.944947800669168 M6.769796867062382 -0.4052418440865752 C4.3435468659765295 2.4533616246299808, 2.2292428865246543 5.639224155770826, 0.40398644819798035 7.849020705009227 M15.926841770772507 1.6622263315574122 C12.51702693770407 5.004239578211961, 7.644669343792805 12.361058640723307, 1.8293612050135062 18.759346109001793 M17.320584826202243 0.1706219395635502 C11.49955741857329 6.335319205881493, 5.9159801581047615 13.089388006518423, -0.21775251780279037 19.77809223926938 M26.42440075697816 -1.2989448809883548 C16.12500739154701 13.793043956216078, 4.5246088661472 24.752165705368217, -1.0568880120452064 31.633465463212378 M27.083516626696113 -0.33989496820138276 C20.16735514250776 9.700474041309633, 12.008570121224576 17.4271701377151, 0.2545706027182022 31.80257444634694 M40.38623469763049 1.302997091993511 C29.3903714068476 8.779147697640479, 22.109891652294763 19.911833275013336, 0.9875523290007093 45.90217330448557 M38.6406759806026 -0.9969840991837042 C24.17969562570562 17.83610021541373, 9.384984215354564 34.323144363667794, 0.7230503283688479 44.79342105365685 M49.48897957366506 1.1850630653809366 C33.03184792019737 15.793842939454297, 18.466384567505294 33.620771690671, 0.22043216895689888 57.970116368423675 M48.68711621780546 0.43455007561804493 C32.14464375842919 21.34469088272415, 13.14426213263217 42.04113340009304, 0.9890288430173637 56.213349919432126 M59.02917707409257 1.3722789341647568 C42.38841550864682 22.820247890067257, 23.70114410743566 42.93610743846596, 1.35046364923193 69.96957505237532 M59.85717187069771 -0.35755319956623355 C36.43886624517886 27.455233739989268, 13.117475709612936 55.189613151493226, 0.8465432669179602 68.01593461060097 M69.39382926095136 0.7543689828891953 C47.35330707961215 22.49889033657998, 27.914399290955572 50.6932442561264, 1.8111635308518679 80.00627157571942 M70.99542973865093 -0.5612487395133448 C49.23910203093881 23.55078491073888, 29.012482418893242 48.26690071360706, 0.5632932091141125 81.01135408351215 M81.5133088678043 0.733976951194732 C50.57738388254051 35.35462686524961, 19.863406918608025 71.4519112403545, 1.7774550205799784 95.15662154966711 M81.44668270528803 -0.9959009752394827 C50.6173454072578 35.4989700328056, 19.340042523066504 71.87845189990189, 0.27220126884705387 93.09276589444995 M92.32594067382314 0.006332347993538434 C56.7676999623466 39.97481728437616, 23.66629947198447 78.77243044068719, 4.594116158615854 100.51976256179876 M90.83977332499205 -0.28334530442915495 C71.84038873914781 22.663370731912156, 52.15998409693209 46.36845834033257, 5.612874425884582 99.3237662258387 M101.3080222144863 0.6089847124182848 C73.32855459956819 33.55846051298757, 48.92722974083971 64.72850000494535, 16.5433897652832 101.10932629487769 M99.37965970876358 1.8941925015910406 C78.73952631293648 26.045595665148053, 59.78756654717757 47.83151805509811, 15.958845837369529 99.32648823387358 M101.21463087960865 15.955701717127297 C71.04790205349386 46.18734763937332, 46.46698406606139 77.896057413045, 24.07654026879066 99.41478839799564 M100.4740310267113 14.948196369709315 C78.5359629485936 37.96989442228915, 58.75731939974133 63.72009997300015, 26.33796277644378 100.30080931660413 M101.09054388276685 25.764361370063515 C81.68536749663656 51.851697560474804, 61.13641354312581 73.81068365410515, 37.80651569799143 99.67323408939083 M100.43417690098897 27.587079066622692 C85.19401189313731 43.80319421609359, 69.7085270966809 59.8750667773567, 35.8936177477976 99.81294350092494 M101.05560661621091 37.710060095778346 C81.53153480362138 58.13067740645239, 67.21861087541065 76.26834848910485, 46.51150841765754 101.30120644734039 M99.71760561651462 39.34120247288294 C81.24577521436579 61.09838693912338, 61.65365303724932 82.95623577392374, 47.58016108997779 99.18175065696353 M101.3241136887628 53.29702018052685 C85.8787872413813 65.34666592404861, 71.34050753361394 84.54921210663112, 55.813798570627995 101.1815363130288 M100.97543279535812 52.24856099411623 C86.64383866048355 68.1991188436261, 71.62131073679853 82.67643338235666, 56.84617283852862 99.89664425045234 M100.6537478914108 62.83153863283536 C88.44025621418774 75.27374914655928, 77.77871324286228 89.70465431230853, 70.2255371001036 99.55551949021121 M100.93442174587824 64.45816341445388 C88.79292188625737 75.06393317010432, 79.8889506050786 87.14096310592532, 67.5094608135056 99.18071166985288 M101.32476508606882 74.29376490020317 C91.41471823406434 86.55923643756796, 84.02045258594259 94.90048244223746, 77.44408351617679 101.28402818745874 M100.14169686278163 75.7252005757632 C94.68697982555216 80.87610407082896, 91.84673451503691 86.18400553331415, 79.14834271766743 99.66831124960252 M98.82298760238787 87.97605613567633 C95.18164354411876 91.34747915232958, 91.6072003736193 96.3918883494208, 87.93236186771736 99.14121816629567 M99.93501439032033 88.30866646474519 C97.6667505749651 89.9247145783797, 94.73368858365271 94.23197369660012, 89.42934252334038 99.93017607420119" style="stroke: none; stroke-width: 1; fill: none;"/></pattern><pattern id="rough-1770379153042907" x="0" y="0" width="1" height="1" viewBox="0 0 100 100" patternUnits="objectBoundingBox"><path d="M6.612048829789162 -0.5089375564756312 C4.876615302528056 2.479079349374417, 3.091822099912597 4.188981183851357, -0.6904758128826504 7.405386610193442 M6.322627241481767 0.281503384503237 C5.062300580894534 2.013266631601946, 3.073752046994697 4.603890594177937, -0.20470565802862078 8.183047649109506 M16.331574620411672 0.6786292199831472 C12.02504962523075 6.041142249990832, 7.746595487316347 7.717947639535294, -0.5984771228194044 19.17977201289288 M17.343964436847738 -0.864568450788866 C11.50309749613615 8.337783726309734, 4.598413617577961 14.992215101923824, 0.9453085840190814 19.31607782938066 M27.72190871582481 0.8982555471519129 C18.706822523865135 10.237991263503313, 11.1069589462921 18.912134707639943, 1.2990291656272168 33.26763564298388 M27.857264694360918 -0.6543143184636868 C18.353115809580924 9.05174479386257, 10.852613298283792 19.311458075623374, 0.29065157315823864 33.115612621316714 M36.777281352516454 0.46355143640394214 C29.601826974190104 10.744910856265548, 21.84072844434048 20.01274364848561, -0.36000762723316715 42.566044672591026 M38.344236917619455 -0.616751353721138 C24.722723072723596 15.88359733820311, 10.226067851410878 33.034619695270614, 0.7720788458459382 44.201065420049034 M47.68518722168338 -1.4106716859166797 C33.45343557649671 18.61379502849885, 15.875822760739466 39.27851488133273, 1.7494218368591241 56.189454744924596 M49.936416499026194 -0.22976473056728075 C33.04756305710681 17.041439736520054, 16.510727921646847 36.9722083177178, -0.7083293540418336 56.58007928507223 M61.103321325684426 -0.7909769303598662 C39.604808812898575 23.79797565673232, 18.82721959440933 44.20421303766102, 0.4645703343322687 68.46467523656202 M59.122502975846416 0.1599658497352947 C42.89510925362708 21.308999783665666, 23.16397824960307 42.73904125111884, 0.5869654166793001 68.81383107332302 M71.4597722155156 0.19422304305639404 C49.39023024694531 24.333207968424702, 30.352805541429948 48.56509146123501, -1.459601922320819 82.06178017588086 M69.95876803947866 0.40204555944858056 C52.090581033182076 21.234183844346717, 31.999887523357526 42.866562912274624, 0.7046358632972782 80.18277684836153 M82.26233789350285 -1.573109795802953 C58.183322844481886 25.33028691089551, 35.21834918078096 53.19020635214044, 1.2233961696000488 92.92228936676268 M81.77748695842182 -0.9126167576684168 C56.50405318631188 28.634387563262873, 31.656907567838644 57.377769463530285, 0.8676498410182019 93.02622743554184 M92.29580647856574 1.952721052408532 C63.47071740429308 31.879255302304884, 35.01206511057855 64.26918372179726, 6.094999699283277 98.78498288104376 M91.2221033144576 0.3351305807471099 C61.231982139543845 33.49047110323553, 33.36337205288978 67.61065687060162, 5.49886348394791 100.69721036914588 M99.44797518534372 1.0714585943342465 C79.60806672139299 28.205959985836756, 56.52920762050585 51.24358323655696, 14.575593595177367 99.00704394725227 M100.19303381786833 2.7074457097661035 C75.96078387969887 32.25988646561713, 50.281180876220624 59.00590640299012, 15.921282345368796 100.34347571734823 M98.33142430828882 15.471376992438064 C76.81982453854299 41.44602526341485, 57.04992921001956 66.6735616157597, 25.25415777687273 98.08052933528991 M100.14277391009072 14.695705571571107 C81.29159881153402 35.830368003498954, 63.2228029530247 57.97104375674375, 26.020849507386743 100.5987539869441 M98.12117867851035 27.135136997966626 C75.72551470672322 54.84844217024513, 52.560941248066435 81.27589360055087, 36.50209418354759 99.15764096560268 M99.55448736967557 26.161852285534657 C79.4253432374498 50.03199241142178, 59.95718248350332 73.42212908489041, 35.50580628876375 99.53269647777547 M101.53462426482174 37.2526075484869 C91.24764995996026 52.810465523914814, 78.13285906610196 62.27285788959618, 48.948080015263876 100.34398664551644 M100.06223575427333 39.89488225871677 C81.15817442110946 61.60360515990334, 62.505365961778 82.9261450147864, 46.52134510575338 100.45057225565778 M98.48071445123692 49.475680747977975 C88.9600819061752 65.0613517438731, 75.63618894297426 78.16776158167568, 58.265142098440045 101.55166876478665 M100.2769595898211 50.633229501246085 C90.56546414882128 64.09151629206767, 78.59655240469495 75.5386359049082, 56.752414962959165 100.85610183295174 M99.49764811173094 65.14034854938961 C89.08081106086715 73.107127987721, 79.96040374812267 86.399062675826, 68.95777415113622 101.49909122016402 M99.14514327192232 63.70606078792689 C91.19217621527034 74.42557140668652, 81.08397039386873 85.01765527850431, 68.28006809926664 100.4881390882278 M98.92663573808336 77.10044890601688 C90.85274501866529 85.60176495268999, 85.39255983885904 94.57362652121712, 77.893801764812 100.46519573967451 M99.10932373930672 76.04581694915422 C91.72767118611324 85.3449938987937, 84.30242749521041 94.57206646701997, 79.16365029455301 100.64600089209554 M98.6924580409962 88.600061663821 C95.78053618216983 92.89688122264015, 92.30158142711082 95.43230314967008, 90.68714078543455 101.4101077914741 M99.21934039936772 87.15433886160608 C97.10525512102272 91.88299709172237, 93.2121532541049 95.10078732697532, 90.04301473650355 99.706071049405" style="stroke: #000000; stroke-width: 1; fill: none;"/></pattern><pattern id="rough-5907135491987605" x="0" y="0" width="1" height="1" viewBox="0 0 100 100" patternUnits="objectBoundingBox"><path d="M6.5774306285464474 -0.16705520981947108 C4.625040392129296 1.335398468798285, 2.894770613499522 3.078214787103588, -0.3217347419197586 8.582121441069017 M7.285879372826458 -0.2635537285886871 C4.974590193419164 2.4405154237205267, 2.8739075277952075 4.204573465167215, 0.07990432016947713 7.479373970549679 M16.550998408659265 -0.6800562056328996 C10.504078357396322 9.220433476930328, 4.325923458255167 16.68085110248084, 1.3278473436216327 19.77573130592822 M16.51679127628469 0.17635724614728776 C11.522231829157045 6.374680061439909, 7.137805320916083 10.752678484210069, -0.13155430904659493 19.046376233830365 M29.70024383228387 -0.04390914469192886 C18.639123991952555 10.17691146083867, 10.920317316025603 18.180942673221182, -0.3508598237911107 30.985150346097267 M27.99990595589984 -0.5685575810461887 C18.041413185850068 11.299171744781349, 8.931088041620985 22.365674363943377, 0.9452238947696601 31.490351957916484 M40.545387038288844 1.3706691694347368 C25.505754037208234 15.936096546093857, 15.377641069505241 28.244993294686388, -0.8007990768767899 45.258716360606286 M38.96878805021923 0.9609161201196073 C26.306703609244657 12.784535260940242, 14.86634901386475 25.958129983511643, -0.3469319541130762 43.78766379968901 M48.23967446550018 -0.20691378975077068 C38.366929829587285 15.466245648441411, 23.308539951637787 28.242856963571267, -0.5164538823539901 58.34841646909254 M48.89689414873705 -0.4465967398790669 C33.38105164472093 18.179652921116666, 17.48288574957626 36.12845260775657, -0.31676058282899167 57.40524803888065 M58.05675956714899 -0.34094266164420883 C41.2902145511974 20.239926740924844, 20.795357073838495 45.15253562729476, 1.2947917358704393 69.12746345601546 M60.78682122590582 0.42442540169526843 C41.57747054017145 19.33302081513017, 24.878179773470595 39.14815085272736, -0.6339823433020464 68.72224649045094 M71.33297279978105 -0.31239200995166794 C45.76134426098388 30.06045622982189, 21.34968235770112 60.562729293801524, -1.6808061393640727 80.35456505933885 M69.57123163434167 -0.7810880982295241 C54.44899181740686 19.199807898370988, 38.6518084657309 35.93548783465177, 0.9161552066325762 80.50708411182202 M82.22819972773904 -0.07744565615072485 C50.2622913317542 34.00222446739615, 21.803384367007503 67.08353594770665, -0.566761695672608 91.45885597266741 M81.63288085953369 0.6797689504363338 C60.67050557148395 22.28954008085117, 41.54347294723291 45.48548138403587, -0.5030969561739949 93.32786119785732 M92.74799177273329 -0.8136773566937565 C62.24900653785985 32.130285620099244, 35.050983645396244 65.19882634572635, 3.5926896950579117 98.85904398856042 M90.68771657900193 0.40885075730982967 C68.34363703558365 25.902997467527744, 46.23712552981682 52.54168676259954, 4.611700872923698 100.29372462077319 M99.59193775481074 2.734503957095405 C81.50031566654843 24.36506989584936, 63.51993841398661 45.04965453352868, 16.306828275853917 101.78634312756728 M100.31390409965663 3.178666539386138 C78.27759325222362 27.492289953033023, 58.324689257448775 50.810313916063414, 15.984127052920105 100.41659381191337 M101.71738691010893 15.354293377761234 C82.47507832624079 32.399310981991114, 65.10176687662116 54.13265136843599, 25.346684314380955 101.73277841334806 M99.08870122144616 15.67911359447641 C71.12135287413331 47.915964011001435, 42.83613833716772 80.78237913096012, 24.962157446774388 100.0514230983975 M101.45680362348347 25.905715092853026 C75.19898795649561 56.114904022032796, 48.26553475718638 85.42606278316558, 36.64674916375083 101.31297202973003 M99.14903721263593 26.040799061941907 C79.63096181330515 50.95279287790844, 59.17610594774934 73.85105914207455, 36.0998627097199 100.59456600336758 M99.68714891985836 40.55958741462168 C81.93146643634991 60.68677789594414, 61.81397984020303 85.75045146595593, 48.35518591989129 100.82310283094375 M99.57949386502608 38.27429378165778 C86.85166480071588 55.94942770417555, 73.01617836892896 69.72658509988241, 47.99947657413362 99.50228345075878 M98.40655046609793 51.01989919601378 C88.95819083839936 66.23856078660734, 76.60164170398409 78.85949429728403, 58.339661492486904 100.12218730427924 M99.7161658150049 50.653797217561134 C88.65087629661707 65.06125319688013, 77.36195188309117 78.01967589940685, 57.47884593702231 99.16627982992182 M98.85556968374775 62.543388772689994 C88.71395058951062 73.71371680290899, 79.05219782274793 87.60185429851016, 68.82697129963564 99.67716561884576 M100.6452031554796 64.37811952338679 C93.90077874978539 72.34270293839243, 85.4986535484699 80.55454103820612, 68.31585226307071 100.51719430607743 M99.7532804764547 74.13480359350415 C93.42335698465246 84.38186000318731, 87.13041403429983 91.87770742248442, 78.63450952740105 100.01059277937625 M100.73842051279648 76.23990659201289 C92.45219966856439 84.26852685540153, 85.0202802037866 93.33080298450551, 79.77382252167706 100.58246700572225 M101.23263958521959 88.9221451820341 C98.68092720998388 90.34595796385813, 95.84459954907386 91.97377589959592, 90.64348844769673 100.61245385254377 M99.32546212707223 88.13926632836622 C97.84217906910295 91.38185069548604, 94.04900408168943 93.32177256627264, 90.21609163870237 99.5212368037156" style="stroke: none; stroke-width: 1; fill: none;"/></pattern><pattern id="rough-8809613846624587" x="0" y="0" width="1" height="1" viewBox="0 0 100 100" patternUnits="objectBoundingBox"><path d="M6.924286856535704 -0.9822867435481862 C5.2894171998203205 2.3819245836106697, 2.2802616090008563 3.6546613235677787, 0.4357507415753321 7.981455590336134 M6.8965628000470485 -0.18884209334666668 C5.010514776859979 2.298255754172899, 2.80197983774284 4.575937690261069, -0.4891205900936537 8.3264431482741 M19.270561842077125 -1.4025943647555819 C10.711485632323082 8.386721910875734, 6.05659373946539 14.051475841922525, -1.6649302046206769 19.121963980524853 M18.079919549177866 0.42124382097882673 C10.551904207077964 5.885605165919245, 6.240205986012951 13.110732235809541, -0.3416851368238105 20.673360394309363 M27.592972869407212 -0.378140434765573 C18.671443145319653 10.468131392830681, 6.33328475715647 25.526823792209566, -1.7032719780300125 32.10963312588368 M27.922923153137404 0.7145427684551517 C21.144795897113987 8.58330004721542, 12.952334418986826 17.796630402772056, -0.2852626774223803 32.683860557026634 M36.6784128772464 -0.8885696468234014 C23.782848943146107 14.942751781151053, 9.447561877078432 32.38196840160741, -1.1863467487093073 46.17289698545029 M38.61044463174719 -0.15233677838908743 C24.348415743662514 16.921335655173287, 11.19857845833575 32.647672811937326, -0.33166864153762754 43.77656769296496 M48.23284919870286 -0.6699778825646829 C32.67614554537163 17.56867583995975, 17.357699439060497 32.776665861702774, 1.4818727615436904 57.12436960926849 M49.21230756463757 -0.6527804581231411 C32.60016250456316 18.814806616884603, 15.883415007409658 39.017311928785176, -0.6318953688566129 56.20475881458398 M58.43508824740985 -0.6503862675770327 C40.137874169846654 20.100584489902015, 22.073538344028485 42.523635631606815, 0.03705481350671658 70.58752555850172 M60.631015754198174 0.0590060523776903 C43.43115955116219 18.569317314784875, 26.43403953134176 38.50591029268969, -0.40924655580241476 68.44172852221381 M71.44676212870007 0.9173724439179409 C45.80634652932737 30.119001467026244, 18.044244128901568 59.94356356272418, -0.8826704428989176 79.82978638058327 M69.4443662657546 -0.9582328774977245 C43.69420726106877 30.541907116952572, 16.892806718599182 60.40236663363212, 0.21169158466967986 80.21461213700087 M80.48156651422877 0.183786557311997 C51.76701815491953 35.11759378867122, 21.35490236910457 73.04222724819242, 0.9784406328733954 93.60083272413132 M81.6543992488139 -0.7242758296247569 C61.79032171762902 23.525542524659382, 42.780327189419246 44.495439069007766, -0.9996018948067134 92.79829221267171 M91.39909436846193 1.587366335608185 C64.49698810911536 35.286901696521326, 34.339376699035846 64.45329098867347, 4.377435107422171 100.07480965342963 M90.60813547084379 -0.05513186536254899 C59.95821123371333 36.20401855178334, 27.266277450966395 75.37506826268336, 5.474939811552387 100.57860010490899 M100.45246712136378 3.1712081755225947 C75.30615054350828 30.315532370035847, 51.80419001830884 58.27321048100568, 15.219202026698058 100.57727685336909 M100.24219990869203 2.908366128863282 C68.63013417855262 38.58016435995851, 36.48998129912954 75.45589012731014, 15.17160537864839 100.79562645505847 M98.84704871096862 15.983969723797854 C70.69257717419133 48.08026485462938, 43.40897324016707 80.26460463910671, 27.384154118847892 100.48179318690505 M100.21087030603172 14.595679806709914 C73.70782818141545 44.254913507355745, 49.42711675432956 73.3151227827966, 26.486542639705192 100.51805817695384 M99.80457936762183 26.943809119444083 C79.31400678932694 50.279019158363546, 60.480432893064624 74.26490982456748, 35.77758958438207 98.47512986611066 M100.70092562870664 27.33947165946662 C76.01624167178394 53.636462804078135, 54.143917487368995 80.59245458313094, 37.20815546096669 99.20166393503803 M99.81424059678669 39.693166203999816 C89.19171890686594 52.99380893484605, 76.56208228901578 69.1981506301762, 47.94293828502293 100.49605660877761 M100.18546302307249 38.577759049290535 C86.8155344428608 55.251986812559046, 71.31890872342262 71.51312900890561, 46.43318069838744 100.71838387659199 M101.14056370042393 51.99472701342472 C83.3043717079874 69.97694306425849, 70.9668814976554 86.17046992162814, 56.9308030293953 101.54502645752098 M100.95033261451174 50.9151284463502 C91.32718732332575 62.005793285223056, 80.57620097818717 72.49998696299266, 58.39719765809202 99.77694650419795 M98.10072076139497 63.32097308427586 C92.63564876103044 72.05747502704796, 82.08105932384068 84.32782280967005, 66.79425960910986 101.44810564449875 M100.75626752427478 62.89899158991442 C91.71570682369489 74.33615849040918, 82.59076853085487 84.53285220275583, 68.28592167383825 100.15552046181155 M98.69995688501517 77.42947801147298 C93.90864675173246 82.3879192724613, 90.15481026311407 85.91707502820178, 78.6799918033836 100.60124066674373 M100.7410320287436 75.79824773319288 C92.90513920980744 82.5160149119246, 86.88540790428814 89.49006834753249, 77.92411638217449 99.38404398036147 M100.53113762684059 88.57989723355738 C97.54114363683831 92.77202983200219, 92.55056353243339 96.97248539703143, 89.54096536178182 101.42472667810515 M99.55055239836325 88.31102618205504 C97.45557642751605 90.75881609507101, 95.60847028577166 92.67782894360707, 90.12053443885252 99.67189248329171" style="stroke: #000000; stroke-width: 1; fill: none;"/></pattern><pattern id="rough-6232438926135985" x="0" y="0" width="1" height="1" viewBox="0 0 100 100" patternUnits="objectBoundingBox"><path d="M6.124514188635661 1.0267159938209613 C3.8713192211337284 1.8193973849706975, 3.768205932010547 3.8016862594343044, 0.6837348358487185 6.810627164990336 M7.239809139169731 -0.22593679978372716 C5.043657880458466 2.104165045420631, 3.7693222077613315 4.004103699488694, -0.3532052347769229 7.440505284963766 M17.578044697572956 -1.9365011626157536 C10.711951857362237 5.869335528707863, 6.465800026237148 12.317884833550004, 1.7999109337921162 19.76808564631158 M17.333525647949482 0.28200331503108034 C12.777208551676738 5.700456422326652, 8.447752745221239 9.80052793686569, 0.10136907810492302 19.997373875485668 M28.689921082830796 1.3574117850022054 C19.01415922196936 11.259701683742394, 12.060565119541945 21.34725358105308, -0.8497116122468764 30.82770920415086 M27.70494117982225 0.22638308546589858 C19.0504400676665 9.586910681406037, 12.050204789439503 17.408374181485936, 0.9545146128885134 32.179388860529805 M39.42799122235322 -1.4971757493585427 C29.903867730719295 8.091925373631721, 25.27273887635277 19.735552180002493, -1.430431708579519 45.75325032967483 M38.53896045117969 0.7563325387382243 C25.241347371098286 15.040909603262481, 11.74920987933655 32.77102974892766, 0.8980670273512752 44.06939534431095 M48.35365780641102 -0.487995653292181 C29.05755038144222 19.96959903718601, 14.308500998120962 42.80268958335049, 1.2708663484422562 57.08501372861915 M48.363342310809585 -0.9190952751812778 C31.583592467769606 21.008188617068825, 11.233785230520674 42.49369069023889, 0.37003195459252236 56.30977060740176 M61.716254890654575 0.560934359634695 C45.492599197803116 17.237722376321003, 30.76578243807277 31.927416849070624, -1.352203959597519 70.76454450969123 M60.38533285403011 -0.608774664274069 C39.15151979463797 25.399528917606947, 16.889865974553366 51.22342018800511, 0.9005560673123449 69.54582500383391 M69.02911012786721 -1.015215917931945 C45.03008334289814 27.016356151220783, 24.124172733686706 55.718283312786, 0.08752915032678565 81.53640386640976 M70.89946328084393 0.6956241494938489 C45.285090126601666 29.608576054513247, 18.78892524508705 58.72600461516806, 0.42069472705352595 81.97400767936247 M81.27299326384049 0.24086203660248984 C63.34973870057041 21.301270208046116, 46.94802671356991 42.56460814666329, -1.8214936648239215 91.50642388086138 M81.56268827158839 -0.22370205052566838 C57.36071995902636 26.02284417778184, 35.05519848808965 54.68810600621386, -0.5877370393986445 93.01664132341459 M89.89826890197685 0.8003097638282419 C64.45893136264428 30.21035351818531, 34.90769449980165 62.558204881416295, 4.352830247953036 99.9815380350284 M92.36901926792322 -0.5205501362451663 C72.48988073187793 20.588480556902606, 55.482072297384875 41.17034867226467, 3.751077142088601 99.02092257505456 M98.2799090943029 2.1432068087819243 C81.88409709744099 21.151570132131518, 65.46174162218209 43.805974334900114, 13.316129790058927 99.9586342022467 M100.12563439342624 2.5203681173646135 C81.94401083779042 24.113840395768893, 65.52943657954219 43.839991691030285, 15.03336149111928 100.61594145461237 M101.07306303016829 16.297884741658063 C80.16580879454831 40.611718896735326, 57.941142942191206 63.5486673713124, 27.63600471809728 98.82307960425815 M100.50588114616274 15.114211200262456 C81.68874715815299 34.85421142650359, 62.619448807551784 55.69155298173773, 25.529053347908974 100.09236868244082 M100.82487695186498 25.247399013607712 C76.27816052484611 53.68566385842749, 51.414359683189446 84.53350196917064, 38.36384204660478 101.32171739081835 M100.79719837621225 26.025341397827972 C84.30851179594242 45.06020552820808, 67.92633345442302 62.36894698345403, 36.955723903097805 100.05334373383836 M101.15624833406122 37.55501283807847 C85.43780569861579 53.30019266831126, 71.47560480890378 70.42674028402446, 45.65500668788745 98.84842513169593 M100.46087730514664 38.79060961528062 C81.43350930723192 59.533967264411096, 63.30833744201156 80.21336444032626, 47.159270697739125 99.62778119495495 M101.43159167695629 49.47736040892599 C88.93202612686406 67.57372775256772, 72.95586906770329 80.70298941745015, 58.098047058332796 101.0683529286779 M100.45534955292148 51.16919249417501 C89.2444959592144 64.10240474174041, 79.09507040115362 74.59485663951595, 58.2912661568359 100.75748686594022 M98.06535545805284 65.3124509051645 C90.05599497130831 78.25764070266149, 74.6188092329304 88.93124288449764, 67.77606516517719 101.65266785000259 M100.2918073270686 62.81147830359594 C90.42354510433479 74.11951743366892, 83.10646899574363 83.30158148462345, 67.48799526301468 99.09829023767081 M100.23011729577912 77.38255660118222 C94.77827628054095 82.63792181882813, 85.00860590563667 91.63282919622313, 77.36449381368581 101.27254904033042 M99.46131902588841 75.20990649038107 C92.734470417189 84.92171819761475, 83.90395601788597 94.0972123402366, 78.25944584532836 100.61631651917402 M99.82839180850213 89.09644842929373 C95.07507567924156 91.96460947326777, 92.14312818957482 96.49257226088217, 90.3335475274433 100.33704633462357 M99.47556375933837 88.12154938734137 C97.27407355818553 91.4237439716698, 94.20614391526962 93.42106563160199, 90.25207249066078 99.70692101909164" style="stroke: none; stroke-width: 1; fill: none;"/></pattern><pattern id="rough-5885684616527063" x="0" y="0" width="1" height="1" viewBox="0 0 100 100" patternUnits="objectBoundingBox"><path d="M6.750611566603226 -0.0024884462142038544 C4.010642895588283 1.76029123468141, 3.1551129835731127 4.844556031915006, -0.9990242759413528 6.869773171393629 M7.009033929467979 -0.07093112354955089 C5.261338037552089 2.458507396668681, 2.81710079162357 4.1186547445140285, 0.2678182560494792 7.327339574437503 M19.23732348382594 1.9541995829178527 C13.608610012724917 5.789297638964341, 10.64762858563381 10.41497809262157, -0.9326434374153498 21.162150524038154 M17.059904408760314 0.9126053344703378 C11.832983211819494 5.929517792049544, 5.539835886731973 12.841305324548625, -0.5808257575277 20.123765498557347 M28.68561360414169 -1.639629409542045 C15.270093957461288 14.048751393835548, 5.905174746938798 26.019709884942337, -1.5251693028902409 32.43559487834662 M27.601743386042852 -0.1511609023452678 C17.047762076483895 10.89052393127831, 7.963000989740229 22.475490578941088, 0.6967076968035215 32.974968046556484 M38.07337782836322 0.47326766204790083 C28.51083508381864 11.759053189900943, 17.736193963417747 23.455001707250474, -1.5722507748067809 44.43822432464854 M37.864164773306584 0.9050487430193712 C28.588702253410514 13.111644764717479, 16.628927454191167 25.454760266062703, -0.05876389555235306 44.78993186912795 M50.32675826671576 1.754308813883343 C36.23935453807991 17.863374016234722, 19.38983500578349 34.54313323802339, 1.6155538751500336 54.65415679052403 M48.65550016958678 0.7304155695109147 C35.83994577279128 15.425808547685847, 20.65283627819472 31.446503986088256, 0.5721812501163153 56.10494365500766 M59.2958666144982 -0.3961885645962395 C40.52929480556725 24.370559331677356, 19.159606290466282 48.1011846040803, -0.32760029957019743 69.01548890989687 M59.903125087232524 -0.5538449084257722 C36.638674149359076 24.76297914919445, 16.443371150214006 51.62053687519908, 0.2889936512360429 68.42941810278427 M69.21062565482141 0.3859633446653712 C54.52715751689803 16.674794130862143, 41.60675327548557 33.136781658175245, -1.4886842887724558 82.53706529027849 M69.8570862161096 0.8868045332827066 C44.50150155406452 28.81743039339196, 20.128513878593683 58.996880771678285, 0.4085328451812211 81.66239260284817 M81.47019047493644 0.24005664064233212 C53.72548004926726 33.34100578439028, 21.172270661128426 65.74289132411509, 1.559268895604263 94.55373092683 M81.28320651497434 0.8478122158312895 C55.067758596226675 30.121484841784607, 28.726759184311824 59.95795419835296, 0.5736133321462229 94.0912419350177 M90.25634366456127 1.0207317135357359 C72.5102075871119 20.695256840903266, 57.6267041130623 42.69123933320524, 6.109931146346498 99.54363314718954 M92.00786090244219 0.15348117206922218 C64.25118336154614 33.17134173710167, 36.1795380604455 64.133252072831, 5.501114311882871 99.45922292154553 M100.37039485391254 3.467188791732699 C80.3483166430811 22.97704028731336, 63.37384839969158 48.17768299910176, 14.017252188037581 98.58704382041593 M99.60609470870727 3.0273638399905125 C79.49156681527964 24.95298237207567, 61.225708210021374 47.87630649596439, 15.860592921620594 99.96531848155131 M100.35235220224556 13.720711915915262 C75.06883390549135 43.14660958652741, 49.2843535160322 76.36455408687871, 24.052691330527153 101.37614550122248 M100.63729950046137 15.304670953365951 C77.80244050768295 38.757300281946264, 56.11171480402969 62.95988063768801, 25.55762533922179 100.13338354756753 M101.50864462814671 26.409061532134082 C73.11788883254863 57.3054611730592, 49.2337528133151 85.15184052891578, 34.751926840688455 100.88535489188304 M100.34097543530548 27.648387032061414 C87.47432610218334 41.34804235796085, 73.76759569654092 56.200526800571254, 36.35317382800977 100.74507464165433 M100.99468530980636 40.20794684281058 C84.00124812573407 56.4037038969904, 67.39660339998413 76.51011421675878, 46.829356622690135 98.8312066832227 M100.12510505708127 38.387711639248586 C83.42642408267267 59.894462775674754, 64.94957854787027 80.58703652533758, 47.06741921293007 100.846750167373 M101.27038184793284 51.72216631033225 C87.40420553540568 65.70557031241283, 73.46632203242206 82.33188801123171, 59.190603192417974 98.29559072387005 M100.1148182630729 50.40658141191293 C83.49001539132787 70.09371745203039, 68.5646308685475 88.10297797003001, 57.878963888419676 100.51707722896643 M101.15344932544362 63.782214288690405 C93.70876611841905 70.11567599975007, 85.49392427059986 77.9452480774796, 67.0338835431068 100.47366934260157 M100.41167060384284 63.22189145643119 C91.25517575693921 72.49477934864238, 84.49317250660219 82.68251731992127, 68.22476816784449 99.84563305996969 M100.43186201846817 75.0502090190835 C96.59701903242437 80.34483216753075, 92.64531420653141 86.75178613731993, 80.38933269457262 100.08813924807802 M99.49780348183839 75.63677640437993 C93.98617329690424 82.53834917925485, 89.02162970339981 89.13938937806859, 79.36356099448712 99.72122066446116 M98.97890357567756 88.91541168428009 C97.50703977675167 90.87558795760862, 94.98984603004013 92.91896016850787, 91.0070147798426 101.53374791995672 M99.66344502212627 88.46470563475968 C96.55080562263069 91.01512749170456, 94.04577681298795 95.2921764525449, 89.56154836504149 99.51690387448231" style="stroke: #000000; stroke-width: 1; fill: none;"/></pattern><pattern id="rough-1593681671169801" x="0" y="0" width="1" height="1" viewBox="0 0 100 100" patternUnits="objectBoundingBox"><path d="M6.78516127063997 0.3957355736399071 C5.977549513476091 2.4662354602741052, 2.9221367432070124 3.5804101139293096, 0.7681948752700123 7.545997281339335 M7.153080302120744 0.1069650126310655 C3.979401194682278 3.0168296749201042, 1.571036883275371 5.480346480182969, 0.48617030604807177 8.265181342745064 M17.97781811071647 1.5838707712115667 C11.729836100258364 6.616248810294793, 7.937705234468182 11.370434717237345, -1.3252761245882896 21.51080074012366 M16.708154294390273 0.1359299967535481 C13.910622280516396 3.3064338995193534, 10.819424932507928 7.60981400450945, 0.8711270775656592 19.992840009137172 M28.74217675209581 -0.5542380759636361 C20.159253300612367 8.911023407239046, 8.24099920719967 20.56663650442501, 0.03247114810668972 32.79130799163375 M28.171471027830812 -0.6861374878761914 C17.128839808349127 12.698794282241877, 6.2470550940522465 25.14740041849421, 0.03929284146059775 31.88026004457864 M37.600995929241435 0.8359091412500348 C27.98957759498964 14.032571467925331, 18.132805475079834 26.44711902801358, 0.19335016058796128 43.184441751540234 M38.05374391008315 0.10123795938776148 C30.08525439957607 10.635805205211549, 19.877626545604638 20.136938716758383, -0.5941316582898217 45.091279892630325 M49.024790260738456 -1.1366315930181798 C32.801095926003846 16.901994208456976, 16.316231620395158 36.891822168132954, -0.12624117976399685 55.42499423762486 M49.244874832121745 0.8166852702364524 C37.851386050617 13.47557808337215, 26.87701106477115 26.559420906905554, -0.38158695527634245 55.94895115135437 M59.81781746121883 -1.617330620145336 C43.754563433042705 16.16412486669983, 31.30134568289147 35.8819388788186, -0.6433415674204221 67.80734124218816 M59.4207633003128 -0.014704365705106248 C39.31872799197384 24.093664463716316, 16.26095292006323 48.85667399078741, 0.8954579856945304 68.99855948517731 M70.44323566408934 -1.8878967936757514 C52.110945848565 22.28644130302928, 31.10770253302825 42.033825618230445, 0.8140952055672619 82.16329976874644 M69.76521809092212 0.18338891044550287 C43.097000696337204 33.01609925559518, 14.295966897395342 64.53660843967334, 0.13081023570192496 81.11496235250792 M81.54146801703565 -1.214960172813207 C63.47018606270333 19.7216015513838, 48.34949843613861 37.490620691115055, 0.3705924962186229 94.85849730778965 M80.78049205093333 -0.07003861504452713 C54.66816629419455 31.153330607869815, 26.287717987247028 62.21339725487411, 0.2904755856345096 92.9142121335821 M90.7717346131716 -0.0949206769947546 C72.719559518543 19.761764209388147, 53.295236750955354 40.980908319335484, 4.926900809834894 99.10267033924207 M91.03261409364217 0.5751816306980375 C56.727886209788 37.880990266990736, 23.83467052297774 77.23077901978044, 4.329911467567525 99.89557019982033 M99.09112917768567 1.5437441334264737 C81.76644713800991 23.739904032352054, 60.46758362249012 45.05548289314971, 14.367393037816228 99.3977905485623 M100.08913130851424 1.6538310006178696 C69.24885180572572 37.76813347513524, 38.72534891024222 71.70678998841393, 15.68972302543319 99.42106070382239 M99.63113672413391 16.60157759970296 C80.6321856979666 39.48484816758688, 58.75266994391583 61.47616190291733, 26.286258799193185 99.47528759204096 M100.29632150435553 15.699873145523386 C72.45789261450004 47.858621996920974, 42.51355729380302 81.38017364259062, 24.912522988781802 99.18629916087956 M101.66942688936103 28.799799911293707 C77.38137658954302 51.54688050109725, 56.326896464819555 76.62565298793821, 35.91046341661883 98.03101034883676 M100.07604303743194 26.000696298888386 C84.00802443351398 46.37389059280951, 66.96170461378979 66.38387859534102, 36.811205318932764 100.65469843560149 M99.69154572101574 40.33627306484272 C80.48835297027509 63.242077527853574, 59.023480242260774 85.58648430613702, 46.525144999215954 100.2175303484676 M100.61915613538622 38.90156722546349 C78.73863703125488 63.18885353517151, 58.61513416079818 86.19562372789136, 46.30357697010019 100.33900872160982 M99.51640567652076 51.26560079323298 C85.49159780265006 68.12290430279288, 68.99630868741467 85.81350452553737, 55.85916858318412 101.80673363111524 M99.75874095579181 51.79269048733398 C89.97827775173499 63.13611035345378, 81.46299027556613 74.02832592215097, 57.92264694368649 100.67027565066165 M98.15570244614544 64.8388464203469 C91.6689037436145 71.23807228636163, 84.7762826446858 82.03324108821589, 67.67831402776865 100.94585787421344 M99.4046073764694 64.39274245685341 C90.92528514958865 75.27607259234308, 81.19686857515903 85.37684201896167, 68.27014361359937 99.4130239660786 M99.7100725841696 77.62518133213487 C91.39484847367095 83.32004119071124, 84.50559710351888 96.2896828799857, 78.6778309149279 99.27350859852241 M99.04865567188239 75.19213295692309 C93.9204743763617 83.89302488956714, 87.51724401193385 91.19500970885296, 78.73588657506292 100.46303708914022 M99.34892922437521 88.99301756622643 C98.56488108641894 91.4931902110467, 93.48315786774334 92.34123722787307, 90.71802796312853 101.42674971260212 M100.48362900632723 88.34114725355926 C97.43794814694681 91.66743141745421, 94.90627101002589 93.2805309567711, 89.31906151935574 99.60476370092381" style="stroke: none; stroke-width: 1; fill: none;"/></pattern><pattern id="rough-8794276821752209" x="0" y="0" width="1" height="1" viewBox="0 0 100 100" patternUnits="objectBoundingBox"><path d="M6.224761438784496 -0.3192155142234374 C5.509276688857588 1.9016876406909846, 2.334991730114063 6.348141822653473, 0.2096778326186426 8.26171402812301 M6.488379686634635 0.10489454705519541 C4.63700495787531 2.510215954280138, 2.5739709204275445 4.772606671810408, 0.0380256271905558 7.720224121658751 M17.187235424641564 -1.9920632995459409 C10.565219443305 7.172057279104632, 3.0083916343535906 14.64413994768978, 0.15564016237153222 20.252240613733914 M16.859139458170823 0.15189212787042683 C12.59130155086691 4.837030768184261, 9.307211789059547 8.193133220005123, 0.8926940758170812 19.132900321272803 M26.30203581114841 -1.3196787132510757 C21.06291217412415 6.5141992859258115, 16.890131029518656 12.714590910480702, -1.1711058611375966 32.701838503622696 M27.955368175971937 0.7256984350124553 C17.74905899472351 10.343482242356057, 9.62845939664032 22.458954450610676, -0.03652987738222668 33.14491333103465 M39.22671110329132 -0.6814246691952945 C27.425774108564376 14.070693508458447, 17.038900251746448 24.20392134512005, -0.35834686019416306 46.175498509431144 M39.416590589860064 -0.9854861488176483 C26.766572642619188 13.957770554044973, 12.755520435144891 28.997250115664365, -0.009019876948538563 43.79400555466815 M50.20044052400231 0.485082150562663 C35.31782825933846 14.21816966838899, 20.7005111185306 32.09768481795296, 1.2561707621690914 58.48102046851697 M50.12953868869816 -0.9660157268672123 C32.666513200916654 18.799019983898695, 16.08222432423797 38.15554818065478, -0.5079812748182753 55.63012602417025 M59.34600481473991 -0.2915272409488816 C37.49246410304485 26.612433799936706, 12.470194412172592 55.60909812847127, -1.771454395335046 69.18494519637187 M58.93246505233536 0.09110650976863077 C34.545015687412445 27.65427783771264, 11.467514294962445 54.143545218841425, 0.16928903384373095 68.5683168049803 M70.44198447046537 -0.11225455950707186 C45.94553147627474 30.142171894535192, 16.443547979280297 61.351551242067465, 0.06707315630593147 79.58306556389516 M70.28857416536717 0.22658371351740092 C47.97673930568771 25.931968656889804, 23.89913758107454 52.61616918658346, 0.9938582132138527 81.71551414391516 M80.79062160113591 -0.5741150333361151 C63.737992877173035 21.470838304580685, 46.38402264709938 41.17132500440859, -1.0355640564676438 93.40507842998811 M81.97146646323752 0.8680022548228896 C49.517628516172195 36.52223891304041, 15.599013956237 74.25207784923282, 0.6887604267128826 92.96354671261886 M91.63084193368377 0.7673292101228526 C57.27762243757129 38.474312756719556, 21.37540549855352 79.9326045351168, 3.0058600753536 101.8200300451119 M92.10467356636457 0.1516326338613423 C65.21138142680859 29.326232237691002, 39.20982682552253 59.48931958634534, 4.463010792138505 100.98777919835219 M100.3431829633589 4.302764231848844 C75.91110420398492 27.21224561226226, 56.146201410461764 55.485315632404294, 13.931018792742996 100.68612205976038 M100.49359907811646 3.263658583177035 C75.44691521020644 29.055018898862752, 53.56058171795577 56.39439478450143, 15.90127249711097 100.38533074247236 M101.8651965023446 12.974978888051883 C85.79011128545874 33.015780941860235, 69.10093131948126 47.83450731080275, 24.769288163667962 99.47842185476176 M99.69925165980709 13.839330138344101 C69.66964348539156 49.74444640064548, 41.607638137538885 84.11388083889965, 25.54895766590174 99.80062142456921 M101.45058084963742 28.756630488402635 C85.7890131704253 42.81213213356136, 72.58410376817334 57.07814971908365, 34.482922138613105 99.05829448284538 M99.53611817262893 27.64808277055628 C77.08871159540926 52.84164346027031, 54.9815278112634 78.31237752407584, 36.56914313748022 100.80257022099126 M99.16823442555683 39.0482645200878 C82.8928835710083 56.55327575060523, 66.30337831912288 77.35327479852808, 46.84454253569495 101.78215103170866 M100.7482142384506 38.439902485795905 C83.61947716722307 57.42348678446699, 67.91142476932957 74.11750656890155, 46.17582377491931 99.8883189396346 M98.64415186746547 52.01546554538873 C86.43014974001278 65.68394413429044, 72.01141823285727 82.97449448983964, 57.13120939612192 101.88277311937044 M100.5980480891976 50.56069666739895 C89.79550008178472 63.11794298442531, 79.42042047468448 75.12474305648223, 58.338819264555596 100.04500753354729 M98.2471715835266 64.63350036704418 C89.43511401423078 75.51032993505628, 75.81816096974191 91.04002650365253, 70.18032348735981 101.28046927267765 M99.50555314080249 63.3863403551329 C89.88345834448741 75.84581526172059, 78.53440978316324 88.70893739614826, 69.18898800927978 99.57871933040366 M99.54989176165944 73.7816867121422 C93.78394892625693 86.4762440224747, 82.63577283142538 94.54703180942906, 77.5563892389363 101.77058053749286 M100.5996502144699 76.21829623383975 C93.2038980655768 82.22933201884376, 87.92865355489079 89.72725321400691, 78.78340950003408 100.91687754965419 M99.67292601251226 86.61374975898102 C98.51012601798395 91.04569958630015, 94.90233594245885 92.6662275585822, 90.1926003774451 99.19575346007385 M99.70600238437162 88.11230475878381 C95.94231082300914 92.17825330480483, 93.54931191132047 96.45999647022465, 88.85632729173666 99.99545002081268" style="stroke: #000000; stroke-width: 1; fill: none;"/></pattern></defs><defs/><g transform="translate(21.5,28.5)"><text xmlns="http://www.w3.org/2000/svg" x="82" y="-3" style="font-size: 12px;font-family: Helvetica;" fill="rgb(0, 0, 0)"><tspan xmlns="http://www.w3.org/2000/svg" x="82" dx="0" dy="14" text-anchor="middle">GET /lab/index.html HTTP/1.1Host: bio.euphoric.eduAccept: text/htmlAccept-Language: en-ca,en-usUser-Agent: BrowseAll/1.3Content-Length: 22</tspan><tspan xmlns="http://www.w3.org/2000/svg" x="82" dx="0" dy="14" text-anchor="middle">species=452ion=AUS</tspan></text></g><g transform="translate(287.5,7.5)"><text xmlns="http://www.w3.org/2000/svg" x="31" y="-3" style="font-size: 12px;font-family: Helvetica;" fill="rgb(0, 0, 0)"><tspan xmlns="http://www.w3.org/2000/svg" x="31" dx="0" dy="14" text-anchor="middle">request line</tspan></text></g><g transform="translate(296.5,57.5)"><text xmlns="http://www.w3.org/2000/svg" x="22" y="-3" style="font-size: 12px;font-family: Helvetica;" fill="rgb(0, 0, 0)"><tspan xmlns="http://www.w3.org/2000/svg" x="22" dx="0" dy="14" text-anchor="middle">headers</tspan></text></g><g transform="translate(293.5,107.5)"><text xmlns="http://www.w3.org/2000/svg" x="25" y="-3" style="font-size: 12px;font-family: Helvetica;" fill="rgb(0, 0, 0)"><tspan xmlns="http://www.w3.org/2000/svg" x="25" dx="0" dy="14" text-anchor="middle">blank line</tspan></text></g><g transform="translate(277.5,157.5)"><text xmlns="http://www.w3.org/2000/svg" x="41" y="-3" style="font-size: 12px;font-family: Helvetica;" fill="rgb(0, 0, 0)"><tspan xmlns="http://www.w3.org/2000/svg" x="41" dx="0" dy="14" text-anchor="middle">body (22 bytes)</tspan></text></g><g stroke-miterlimit="10" pointer-events="none"><path d="M 264 14 L 200.12 32.25" style="stroke: none; stroke-width: 0; fill: url(#rough-3036462338530635);"/><path d="M264.13011531492367 13.50687780650625 M263.13695379130746 14.28921171202274 C239.1626882739268 20.40227786713202, 214.9116844226387 27.34755455467736, 199.28257764401215 33.48683630765333 M264.53388838047704 14.476967276449784 C242.8886037320696 20.182762669008625, 222.54990563989492 25.94928397769199, 199.28483716227666 32.452932425513936" style="stroke: #000000; stroke-width: 2; fill: none;"/></g><g stroke-miterlimit="10" pointer-events="none"><path d="M 195.07 33.69 L 200.84 28.4 L 200.12 32.25 L 202.77 35.14 Z" style="stroke: none; stroke-width: 0; fill: url(#rough-6325380898034479);"/><path d="M197.01796192678307 34.15467849113049 M196.60180036790695 34.606814561581714 C197.43764461448006 32.70105225161286, 199.1449100967564 31.39677942502354, 201.36748770240368 28.34896955391579 M196.70130620075122 33.87829510740051 C197.8345900962363 32.54739556574147, 199.16945071777167 31.127987765470397, 200.5409439031365 28.167181925104465 M200.885666599392 28.48278078342767 C200.26054159647768 29.422468801329213, 200.24673424617282 30.603405222463724, 200.13027314891875 32.34527944500715 M201.02734921437647 28.408738088410207 C200.55941798578658 29.41749088394089, 200.45383856895793 30.259926071251183, 200.22864661446496 32.41680366212827 M199.91455636167694 32.387390037452604 C201.14761807590898 33.42450053039734, 201.97618660513422 34.53790826018531, 202.48317289168148 35.154597644769844 M200.10023742352092 32.43769997339689 C201.1534342925464 33.43301009679944, 201.9001870854177 34.31844038012035, 202.6679835848362 35.32786309262198 M202.33176253701114 35.313462157473225 C201.82087038507103 34.89330856117588, 200.77241216546295 35.278614229384885, 197.30886919465792 34.23124876854054 M202.92239885336633 35.06215347556555 C201.52956532470176 34.91111489698941, 200.2745122784177 34.41026254123162, 197.1678511832954 34.10838230618302" style="stroke: #000000; stroke-width: 2; fill: none;"/></g><g stroke-miterlimit="10" pointer-events="none"><path d="M 264 64 L 216.33 69.3" style="stroke: none; stroke-width: 0; fill: url(#rough-2688760129916573);"/><path d="M262.1779715323812 62.25963395343341 M261.9670361152293 63.07117477499223 C248.59684285276032 65.0388549256401, 233.80670813236694 66.21309340484179, 218.24500265588208 69.91209099390936 M261.9332526886521 62.89681219199018 C252.63907820753417 64.4039393382924, 242.81972849314218 65.15400602442118, 215.45726145704438 69.02875467974359" style="stroke: #000000; stroke-width: 2; fill: none;"/></g><g stroke-miterlimit="10" pointer-events="none"><path d="M 211.11 69.88 L 217.68 65.62 L 216.33 69.3 L 218.45 72.58 Z" style="stroke: none; stroke-width: 0; fill: url(#rough-7169820915549749);"/><path d="M211.97402244548476 70.9666388766972 M211.50838775647154 71.11533194064157 C213.8844124160508 69.01337564935957, 214.31302204318382 67.66675045895077, 218.31218541900842 66.36111183335285 M212.0989418125999 70.8939101128052 C213.02254586016377 69.98653668398987, 214.79940466170532 68.32216935347093, 217.41022204239025 65.68418296026152 M217.4601071104769 65.81860172985792 C217.63874602963017 66.57059817939853, 217.36680567675393 66.84177273268017, 216.53536723005757 68.96346545891062 M217.5312623220212 65.54354977563547 C217.17997537731802 66.43294640010741, 217.10409550821498 67.56123738825202, 216.26367050297105 69.24912717888549 M216.09088296141707 69.04816337058158 C217.1257515464292 70.17289817712634, 217.15077710435267 71.34663853157011, 218.758895021681 72.77696825716217 M216.3944367015794 69.20823316067869 C216.80703517800757 70.14413443705403, 217.13194688169932 70.60586658233353, 218.50464237401275 72.44275605132165 M218.5795880074484 72.48475516118964 C216.00242821896447 72.20706864080222, 214.64798322532582 71.0552606606452, 211.78456622768678 70.34398304095409 M218.24990457500553 72.8509156012415 C217.20586975128322 71.99884863516061, 215.57063240349015 71.61214648517547, 211.67576753614043 71.17001746906533" style="stroke: #000000; stroke-width: 2; fill: none;"/></g><g stroke-miterlimit="10" pointer-events="none"><path d="M 264 114 L 180.37 114" style="stroke: none; stroke-width: 0; fill: url(#rough-7380694218901479);"/><path d="M265.6479478000719 112.38280173555447 M264.6053116721743 112.18842127318437 C237.66006684887677 112.9798055861979, 207.15425764315103 112.15150653923433, 182.08847570482197 112.59119341454918 M266.1337988838546 112.65387386108749 C246.8199094417462 111.6087398048001, 226.32983769992083 112.04797826444185, 180.5542966379289 114.58188380021649" style="stroke: #000000; stroke-width: 2; fill: none;"/></g><g stroke-miterlimit="10" pointer-events="none"><path d="M 175.12 114 L 182.12 110.5 L 180.37 114 L 182.12 117.5 Z" style="stroke: none; stroke-width: 0; fill: url(#rough-1770379153042907);"/><path d="M175.54968092888163 114.35497602930135 M175.63149285854215 114.91907016629786 C178.34474373661016 113.46626372503049, 180.05387937436723 112.44261280773894, 182.83031650307478 110.64601447244371 M175.20711817915893 114.06439991121596 C177.26651996048776 113.01532195015214, 179.40581743522475 112.28605246303455, 182.1550093654313 110.58950539434977 M181.94347540459026 110.77054202608457 C181.76717808394045 111.44843460521288, 181.08611068017314 111.94926760920103, 180.58640279220037 114.33363364129758 M182.20615420890607 110.41680357549724 C181.8077107894125 111.43750638763278, 181.39492410509277 112.3341084092845, 180.18036384453916 113.93634083377994 M180.4928066859728 113.67616490785306 C180.48097884342897 115.28897084053878, 181.12482480766468 115.71699155756438, 182.17144579478648 117.11138324968967 M180.42950370506853 114.04906243194979 C180.90382640197353 115.23254177263317, 181.25586260960574 116.25457926819124, 182.2711620450039 117.31306214514359 M182.58464217557818 118.1168632902231 C180.1028244992033 116.42573720132346, 178.7489937838428 115.58555207163037, 174.9508877839182 114.78531636703728 M182.11017175873147 117.27231630027259 C180.19208163131768 116.29730462135171, 177.94697550825686 115.79536019199003, 175.73589912702604 114.7127969313262" style="stroke: #000000; stroke-width: 2; fill: none;"/></g><g stroke-miterlimit="10" pointer-events="none"><path d="M 264 164 L 180.04 136.01" style="stroke: none; stroke-width: 0; fill: url(#rough-5907135491987605);"/><path d="M265.9545301306863 165.63313146487758 M267.0990623169711 164.1608638368987 C247.341894936338 157.40020970913244, 226.53661006812771 151.0679899668573, 180.37892997641578 135.84583971746875 M265.456922276736 166.22637291524177 C239.70909973184376 157.6479945885781, 214.7606668304942 147.39670706671131, 179.24215147787277 135.2380192724868" style="stroke: #000000; stroke-width: 2; fill: none;"/></g><g stroke-miterlimit="10" pointer-events="none"><path d="M 175.06 134.35 L 182.81 133.25 L 180.04 136.01 L 180.59 139.89 Z" style="stroke: none; stroke-width: 0; fill: url(#rough-8809613846624587);"/><path d="M174.01236392230146 133.47721689107007 M173.54319772145433 134.1644872293575 C177.00467598092075 134.15530125281492, 177.7372090824111 134.06418393726176, 183.06671985285513 132.94004526615402 M174.18507982370204 133.73985637810725 C177.15547897098642 133.0487048296163, 179.41217472364139 133.3816864860981, 182.64434147387246 133.5569382261107 M182.96924355415752 133.55702743087946 C182.27754529172202 134.42619431104188, 181.13204100195242 135.27621893993006, 179.88466115440403 136.37153274553177 M182.61653786032136 133.39579995540362 C181.85968443688935 133.97537424077152, 181.0894823933331 134.9826792008391, 180.12207982179615 136.02689549531004 M180.1062605093668 136.0949514360949 C180.38314965519572 136.99297480335966, 180.1067396534713 138.230507491438, 180.82328343671836 139.82918282112934 M179.87004418947882 135.84080001620208 C180.16337429140327 137.46542167389634, 180.29125007766038 138.71650699533345, 180.49998239823603 139.97025034827695 M180.44711400693694 139.41818715885518 C179.56326093375048 138.9827267719765, 177.1405477426626 138.13830241028643, 173.79232673307297 132.98888934487715 M180.22195145326106 139.43505537413722 C178.69226448992168 137.79668697010888, 177.26533937029643 136.55870603319698, 173.61280637285648 133.7700728237137" style="stroke: #000000; stroke-width: 2; fill: none;"/></g><g stroke-miterlimit="10" pointer-events="none"><path d="M 264 64 L 220.24 55.25" style="stroke: none; stroke-width: 0; fill: url(#rough-6232438926135985);"/><path d="M265.8841779890397 65.73384084734178 M265.6724111691221 67.07103147770444 C254.93219343446586 63.20589765449172, 243.06776683114643 59.691314925961166, 218.27926843737666 53.5127147317478 M266.3270209129923 65.83067411009543 C249.6101773341859 61.77783671801981, 234.2274500762731 57.727867859416165, 221.16439596800817 55.418211423590215" style="stroke: #000000; stroke-width: 2; fill: none;"/></g><g stroke-miterlimit="10" pointer-events="none"><path d="M 215.1 54.22 L 222.65 52.16 L 220.24 55.25 L 221.27 59.02 Z" style="stroke: none; stroke-width: 0; fill: url(#rough-5885684616527063);"/><path d="M213.68082127356408 55.96188375478966 M214.31359167299684 55.14904837863513 C216.20231546132976 54.40882414012098, 218.25042324719905 54.42313362936755, 222.25519213413034 51.427805726484266 M213.9358410917737 56.23188102692234 C216.7390821889964 54.24441237057705, 219.91474457343776 53.01315467259444, 222.53733069152275 52.54325692394224 M222.5109819037442 52.501145143092515 C222.17607728731727 53.50370323363331, 220.67920716130348 54.29494624177444, 220.21479618458665 55.35706498444563 M222.77538670953905 52.231648988793495 C222.08408172979384 53.037401383619766, 221.3487589456058 53.704792859813715, 220.26127948020024 55.34734205094273 M220.44809468901838 55.601886065106605 C220.3233352029762 56.75490068124665, 220.859911312415 57.5327480061777, 221.41020910350326 59.32874048474476 M220.12567591753321 55.18691096913352 C220.5454881685675 56.48916352146761, 221.0537627847957 57.9111556508538, 221.10507469882026 58.896370199184666 M220.8688869438151 58.4226715798217 C218.50896792637585 57.69118458699438, 217.63518817557986 57.37177454310067, 213.1066651345575 56.2788263788423 M221.3909987489964 58.89566794087757 C218.44349684059083 58.16126066637223, 215.07835299803838 56.30903984622747, 213.7713743973252 55.88968942474263" style="stroke: #000000; stroke-width: 2; fill: none;"/></g><g stroke-miterlimit="10" pointer-events="none"><path d="M 264 64 L 219.91 81.63" style="stroke: none; stroke-width: 0; fill: url(#rough-1593681671169801);"/><path d="M264.4054793111926 65.45147920590368 M266.07917458742526 66.46225493854946 C247.18998305788273 73.09365018888208, 232.7635399350581 76.56364123290354, 219.7117454987904 80.51833379756228 M264.2209983317333 66.04266319528679 C253.5529973403355 68.4999020831241, 242.29220425216596 72.83637735352043, 219.97313591961336 81.26091111094357" style="stroke: #000000; stroke-width: 2; fill: none;"/></g><g stroke-miterlimit="10" pointer-events="none"><path d="M 215.04 83.58 L 220.24 77.74 L 219.91 81.63 L 222.84 84.23 Z" style="stroke: none; stroke-width: 0; fill: url(#rough-8794276821752209);"/><path d="M215.2873930461979 85.18348751494734 M215.4925404202504 84.57516747847137 C217.2801807128275 82.54656075054727, 219.70635808501342 78.84590119080106, 220.62313016979428 77.95616093767936 M215.66445957139257 85.19997449480434 C216.1777332339078 83.48781768728145, 217.87514255494582 81.94349862392964, 219.83282210099213 77.66732355801781 M219.98131561498033 77.64764504648457 C219.88063116085195 79.08528452961292, 220.0105799064727 79.8117868379428, 219.8841013029974 81.73902886225648 M220.10164824774006 77.92682308498256 C220.01454273908058 78.88473793766211, 220.13035688512633 80.35439694098655, 219.91618756054854 81.77893472877207 M219.59969231573604 81.89935328237353 C221.01120274121033 82.26753735785874, 221.99534021085796 83.59950065452682, 223.06928632472804 84.08094045162271 M219.71826429990372 81.47769849058734 C220.36287923194254 82.28360105925614, 221.243154480176 82.62059806303323, 222.78414344774743 84.15258371372674 M223.40338209404987 84.08199713551112 C219.6250209162308 83.95788846274986, 217.4881969777092 85.1773616603728, 215.70683890667044 84.97458941462428 M222.6627757295574 84.32546475613361 C219.83051256737113 84.73501426554517, 217.6898535553775 85.11827532811567, 215.36724365068898 85.45989137173994" style="stroke: #000000; stroke-width: 2; fill: none;"/></g></svg>