<svg xmlns="http://www.w3.org/2000/svg" xlink="http://www.w3.org/1999/xlink" version="1.1" width="330px" height="179px" viewBox="-0.5 -0.5 330 179"><defs><pattern id="rough-5718295842247873" x="0" y="0" width="1" height="1" viewBox="0 0 100 100" patternUnits="objectBoundingBox"><path d="M6.764869676143741 0.9698102859237152 C3.8176038611329153 4.007761857776037, 1.9163628401368757 5.522012735602697, -0.7016507986349356 8.201405744653448 M7.314228871339074 0.16745670579268535 C5.389518574222211 1.7058128049613586, 3.0285365367017487 4.307155733917109, 0.356895380631971 7.7301613270256695 M18.539025571552266 0.5423223105963997 C12.661604022703944 7.85372185187419, 5.5708009869182264 15.768670300280743, -0.7300704663476401 19.748324906736237 M18.07461355977413 -0.6415355723846989 C12.50876818152674 5.969846427749543, 5.751158189592859 13.233906947874843, -0.3070797426838978 20.91697125567059 M26.628353089915645 0.8338143354133338 C19.824208580710405 8.974392965734065, 9.49852271915147 20.89689344952631, 0.7238794809822684 32.05907815035433 M27.583334830535602 -0.46282240771028693 C23.02922387794441 6.452613999718849, 17.838326621115346 13.01760911942206, 0.6966558027601217 31.688607954033138 M37.94847539824569 0.37339502847054895 C22.40451986252592 15.287820866347893, 7.866139277022017 34.31602567447461, -1.2742995035452553 42.967669130862284 M39.384241767974686 0.5648188829394036 C26.284720792842453 14.579774795068111, 15.17426304822528 28.821690078887425, 0.32401475876419017 44.62710111923564 M48.219575918917215 -0.12348907172668433 C27.794410962814904 24.250240431989994, 7.709422208067525 44.16765526072743, -0.44602802357392957 55.57069407618545 M48.896746192415485 0.04073825521015362 C30.9902253079086 20.14464146342245, 12.387302190455985 41.28374969100347, 0.5283807403498391 56.30160191904607 M59.22129675522309 1.7417855587568205 C41.285515125447894 20.285207475911587, 20.95970349050647 42.37759310090483, -0.8373049869164655 67.43513904196001 M60.426288611482924 0.9552818793194509 C39.54889721934522 23.034236108201817, 18.21595241701558 46.76865608775245, 0.4240349216550454 68.79854124772783 M68.43839024492068 1.8044862009368998 C51.24589268505362 19.573259350720683, 32.77492520444304 43.7887802759961, -0.6187359228684697 81.51650777903129 M70.03417182666738 0.4885780397524382 C49.12822354215456 26.286156903571033, 26.79091590274745 53.09011210303589, -0.29538596118357185 81.4322107752276 M79.48325644039924 -1.1758910387959762 C56.356445490437146 29.34433089833333, 33.026036521436794 57.845926423422824, -1.412519360620566 95.10704518169565 M81.70355994315516 -0.9024763384823076 C48.66664087584508 36.361243664689944, 17.40247447740418 73.44180240615053, -0.3619511626627121 93.97497287851495 M92.93491045706763 -0.8128184769744013 C65.73579063041394 31.16110894026534, 41.95569280549075 60.15262432912904, 3.1893368331363856 101.39224338073569 M91.77461644781202 0.7009321172824388 C70.08780775556953 24.404128720986442, 50.44224080870396 48.40911667610797, 4.413183745188686 100.73175233863539 M99.65620562568287 2.0090559627874516 C70.04938902902592 38.09777457930949, 37.972312761543705 75.09909638307812, 16.36230661336788 100.68445360094796 M100.48449785984786 2.1180075038850616 C81.74786990420223 23.17619718586561, 64.42504660768526 43.91423846336399, 14.880578328483544 99.48690007226548 M101.66830247388543 13.116365207956258 C84.61309314756599 32.503970995435196, 68.56794461245441 52.181679114164666, 27.02670361116999 101.90806129902131 M99.64392589636446 14.709991030919262 C78.69968986635136 38.493839643752764, 57.6635528142146 63.9130250979828, 25.96934792589959 99.87187032102382 M101.00899836688414 26.34094495119321 C84.50230875042689 45.61608201861953, 67.66365340298613 63.0298054131366, 36.26364819880698 99.59873800340685 M100.8086692927957 27.456124692481854 C82.87433939257608 45.93145921992648, 65.93501714655913 66.4998077232985, 36.881636145612916 99.03157191494135 M100.16597127621104 39.34507341180294 C80.86813058231151 63.689765001543755, 59.263737513925726 88.2938385062647, 46.59212155674422 99.18246120535544 M99.93573472103758 38.4880103352891 C79.578526965767 62.32029918198652, 61.35046683930055 85.06499288288481, 47.54126412433308 100.43600754239522 M98.72789361632921 51.41185343787802 C81.44587515752052 69.53790370837527, 65.02038559533833 90.33420408879775, 58.8777842274286 100.74116965666173 M99.46430212644265 52.216850233521114 C85.88865733391219 66.58362286792448, 71.12984471659875 82.88993512622176, 56.961060968600165 100.84510064203612 M101.6591964406536 64.26497609492236 C95.06450162950756 70.38986143809953, 85.2368361739607 77.38130421238355, 69.61325934995665 99.22789459904399 M100.47395291928454 63.66377464342514 C86.52446323799967 77.78357655176139, 75.75984661621717 91.47697139466322, 67.93012725699114 99.02832077450833 M99.8870668865635 77.19132730542991 C92.7346363629442 83.9719192821398, 82.56233096535068 94.37614615432635, 79.00484302805982 99.95477254691257 M100.83791505300027 76.21562782106054 C94.93096701843795 81.82428124348864, 88.76083827556747 88.61093982938307, 78.45316993235662 99.9425882023966 M100.40255717441423 86.69060277303981 C96.05139237886372 90.58107079009123, 96.28476932202237 92.69988228285602, 88.84160684062003 101.15814850014341 M99.95872021958694 87.98440131344142 C97.13193831387734 90.93689338086537, 94.39308205988979 94.4361439612837, 89.03773772061665 100.43273630906575" style="stroke: none; stroke-width: 1; fill: none;"/></pattern><pattern id="rough-973753190636325" x="0" y="0" width="1" height="1" viewBox="0 0 100 100" patternUnits="objectBoundingBox"><path d="M6.239806123830242 -0.6352367078546421 C4.580561716005214 2.2645956979303756, 3.1597756606802667 2.965453188632112, -0.06433635756131728 7.566134023624402 M6.527362373168812 -0.10717003889309917 C5.042345609810966 2.0567266066959444, 2.651664151457547 5.063094309239402, -0.3873863828944594 7.8217949573062615 M16.572049159478357 -1.6137056686585147 C11.620269552493074 6.918264132199991, 3.8385401692056202 12.996173776934906, 1.0929741232198813 18.6635606552409 M17.927470913979192 0.18432143804071321 C11.799611979409297 5.196585686646445, 8.288368749406452 10.71451266943528, -0.9100683320882097 20.375562338407132 M27.64832760594291 -0.11838789695483065 C19.578761691594025 8.904854050700383, 11.090060195935944 17.832035726970723, 0.2587515455371223 33.61932564805089 M28.934099475431616 -0.6509896666502697 C21.00659961866853 8.633183682120114, 14.098739341862109 16.071121618768366, -0.48825892036674823 33.04145160242471 M39.68678537222174 -0.28548156951310233 C29.921365441302548 9.301610889478397, 21.454529851950717 19.57706714545988, 0.352439090500245 45.682321676088534 M37.73593692623887 -0.28060234419074037 C31.21773704406061 8.998733513260852, 21.337033719137942 19.333352986161184, -0.18609949005316606 43.53925120265873 M47.851926699803116 1.566198428631366 C29.93893940716424 21.886891155787175, 8.095694126198115 44.997868724435754, 1.7221279654746304 54.640060092389376 M48.322108878167505 0.3385366814708646 C38.114346054070225 10.982530762448224, 27.984763695886446 23.923208350457234, -0.43684839489049887 56.681370002407924 M59.6156405906838 -0.6761591038392591 C39.459002493813315 19.264193316618663, 22.039027847903427 40.11254725266559, 0.007366763569092605 68.26137122169312 M59.831689111532306 -0.6599440825852607 C43.72742695723478 18.866436992817846, 27.107713473313215 36.859567696511974, -0.7747280699304575 68.91483891025085 M70.73329426136918 0.971136183424405 C45.01083351128253 29.858891935616242, 21.759453079790553 57.020959193745036, 1.6866768641105034 82.13309545583125 M69.57128760437348 0.3909741428254665 C43.937442042227296 31.201285814115842, 15.795905377675714 63.522780348256724, -0.23563619452040419 80.99118295103172 M82.16349630802902 1.0185434603690977 C56.46248821051168 30.242852256886415, 28.176845251705117 61.186537505667445, -0.48144587697002184 91.25438123492349 M80.83020172639095 -0.9961465532647553 C49.7093599266504 37.1127859068435, 17.94291586528623 72.85434326953525, 0.6482733208366072 93.94575006697164 M92.3789659013123 0.1642294668576172 C59.15142585031337 38.37008811029805, 27.443490650859328 75.43918952636571, 3.0497852105129057 98.36486493973086 M92.2975729545772 -0.7290969251200541 C70.05526450977862 25.141540533565387, 47.415995847711756 50.64532350292926, 5.494386076520418 99.84542050269542 M101.10412561924805 2.2400032536081067 C67.89461786223909 41.40036659018399, 33.3275248807441 79.28475715306044, 13.614114913455813 100.79054801619975 M99.25221145687804 1.862060900675087 C66.32212534985734 41.13772895837914, 33.54614211118016 79.96111674973795, 14.87229248840357 99.82317844037458 M100.6285657080138 15.070476611332118 C83.8520190194778 35.95560468394933, 66.49775369569707 53.96621311225362, 25.012392292636832 100.58111497053108 M100.69029164486584 15.563277489068888 C79.16382701255858 37.9542960224722, 58.11484598915188 61.43361254981934, 25.49379684338963 99.34729484900393 M101.05344197570132 27.0394654913872 C73.7596157480901 53.89891527904952, 50.62140108104498 83.65052531738677, 36.70746596535099 98.46974185928516 M99.12043895140188 25.95916457715502 C82.86400038351611 46.09424942656253, 66.34179575819273 65.18223505163209, 37.065980236934514 99.77477154920494 M101.6693305075704 40.75941115632972 C83.22835925919546 56.69856651886008, 68.66084263006776 78.49450852013764, 47.313712087510204 98.18535492645721 M99.4381178940035 39.98108854175966 C86.81494227201232 53.8262782846315, 73.86200719736782 69.00314590906568, 47.418899296246664 100.64313315122097 M99.62517016331691 49.69940837878268 C84.70106299741516 68.68999343124065, 68.17659866325924 86.25240138792715, 55.94444064354656 98.72386913637847 M100.63028014650108 51.54674674081096 C90.55103615061614 62.46756907948166, 80.13809179904288 73.39763547884691, 57.589050087734485 99.22657331532373 M99.0775417941394 63.20172808528185 C95.52990551887153 70.71307729646021, 85.98685570581077 76.16500406493498, 69.19933451841192 101.41935877760021 M100.75046804722827 64.30946921253611 C91.42269886861855 74.2902107805682, 81.68599634993419 83.4581965156649, 69.11328249081544 99.32120622636168 M99.97498594783835 77.14529161273298 C93.8678703356893 86.14800079677221, 83.71207712662684 90.97590111078964, 80.56239457341607 98.32265079006197 M99.28378113894523 75.04874137046315 C96.51867722181335 81.1116384192739, 91.96722102159505 85.01026930226587, 78.59934080185901 100.24959641807916 M99.67606787416773 86.47568376829646 C96.01905759262479 92.65823313283083, 93.11705870958747 96.53039127989796, 89.13395480956058 98.86896564045333 M100.5904848149815 88.45986202116727 C97.71603477251064 91.21954698144192, 95.67855534686652 93.88791815125515, 89.60734347641885 99.35078099140333" style="stroke: #000000; stroke-width: 1; fill: none;"/></pattern><pattern id="rough-1335489920779375" x="0" y="0" width="1" height="1" viewBox="0 0 100 100" patternUnits="objectBoundingBox"><path d="M7.668680269920912 -0.2864808677316224 C5.886112907424938 2.2052514108083114, 3.554588421260474 4.273851313265166, 0.9700210494862902 8.228756613163123 M6.845614314252343 0.013183524957866122 C5.41608142678171 2.1781739509335667, 4.3356887274335785 3.6023162242571356, -0.0036630834613519125 7.350331430605965 M16.526053731290904 -0.7274733413662249 C12.055638170040329 5.278894780555934, 6.6016910708435255 13.899768438607232, -0.5726686035347193 21.783452649437802 M16.619384585557263 -0.8223673048463072 C13.090390606917788 5.602843000317691, 7.8450611246053 9.934527144018123, 0.5346985083391602 20.22218429843126 M28.81905491172251 0.1940958560831163 C22.693239577618762 5.302977499900856, 15.696033286248024 15.389047174660032, -0.46634850471436806 33.83033361579056 M28.456376733481154 -0.7026760249994606 C20.19748916942084 10.52431585649784, 11.15670444709638 19.27526044626977, 0.05910522208929292 32.75199135061858 M39.263483849681975 -0.1963904815946309 C25.698760910580546 16.14672626161804, 11.36737823067278 33.672328975229206, -1.7797952922154758 42.61581288565226 M38.02683301179122 -0.464724347248322 C27.952685702641435 10.334079674142846, 18.37337715770206 22.875081318184503, -0.33677579915096345 44.189693109396835 M50.692719483932315 -1.38228926578015 C33.16229385035488 20.660569730013464, 15.710873326506547 41.301151486643185, 0.43359258220114594 55.52924420744579 M48.61422552048907 -0.5167692009065918 C37.08746475576764 13.505357438125683, 25.119212108765925 26.779945600751713, -0.3049326281710627 56.750192764809256 M58.57335207110435 -1.7160594178198068 C35.04254560838901 26.41493354811875, 11.243210924837118 52.84692920167542, 0.39587125288450675 70.01680090862834 M59.560180743183565 0.8601743787411218 C36.92819954080919 26.4825565925414, 13.747371669411926 52.91114051764483, -0.7922749300496719 68.74675916779584 M69.28568083877998 -1.5882491060109123 C51.90071414443348 19.717538614591927, 36.812306664950825 35.58648531230342, 1.1313576559294125 79.30388168727276 M70.01080120490242 -0.5011485726091167 C46.799613994092084 27.294896624833612, 22.77593939405351 55.27890690463716, 0.0011022273073391098 80.33899752472995 M81.23641095255648 -0.9018095125968735 C56.96830478532567 28.89153289815711, 32.93494886629383 58.09072730166783, 0.6665251675130026 91.42261287693921 M81.31916369136506 0.6864644655769276 C50.88667768953863 33.157191772543136, 22.68455503087914 66.9969662390841, -0.4334483298874865 94.08588741457785 M93.11357470030244 1.9071920224169618 C60.14732811536561 37.247169119570955, 32.27739011949996 72.69499815655175, 2.7750442932503985 100.53359436680466 M92.03228497198349 0.9805313154554889 C73.71393049805619 23.771781158700165, 53.45991514219232 44.69980430387578, 4.096100650546589 99.22673457088653 M100.63084522852623 0.8315326295663814 C70.33368109733587 32.60761707889817, 43.06660167403384 68.68255037345519, 13.903332468829039 100.04348464053449 M99.99178906289698 3.226541917019929 C71.58343512531715 35.553040450757265, 43.133848953002186 68.61838376216852, 14.99588506378171 100.30545449917673 M98.65115029851684 13.797784441658294 C79.17927485370303 37.35441031852812, 55.88901870645974 64.42470522337058, 27.426076524378228 98.1928966380123 M99.3639920095626 14.00280369527853 C73.54912382150069 46.11387175788899, 45.40729580641886 76.92048544120867, 26.74458758487952 99.5901048319087 M99.7381136973272 26.0466837054634 C81.4576562685036 47.48616441240302, 65.22322111886031 63.55804582714478, 35.60039972736946 99.11384193158626 M99.1465853657275 26.237174701938876 C79.77418229238117 50.86926273576996, 59.14739334727859 75.03260142711866, 37.35440248171839 99.26444732627473 M98.00897822697095 39.989385367052535 C79.81596865833414 63.11153171132067, 63.018084023812136 85.0330421894373, 45.61776080765806 98.77240835461743 M99.1009660053895 39.44166739849852 C78.51329793855062 61.92471526119562, 58.24909108363598 86.30818702530831, 47.592286876371205 100.1910028916162 M98.41934396190607 51.03824913571264 C91.13139051297811 60.80226335369612, 80.42116818310633 72.24714328733111, 56.04764881671557 98.35462947002259 M100.74254399555547 51.99944303931254 C89.95457090912333 62.83995363143995, 82.4502472257017 72.54046510463857, 57.44167704337891 100.02447326063273 M99.15514189440033 62.76900821446231 C91.00419421475783 72.79629176420856, 84.40020412619548 80.12234738704825, 70.02470543362504 99.16250532167524 M100.05798752480837 63.45161650661366 C88.65973401727977 76.16840752498936, 76.24885414130625 89.67594829449078, 68.97916366368975 99.17714077638094 M100.41085403563429 73.98090680908267 C93.82608812013723 80.38361720973485, 89.17189976782701 89.52553683436334, 78.0797041008223 101.86295999326352 M100.78654487690265 74.70193568863908 C96.3782410850862 80.59611117634593, 91.63496628952767 85.55912481207592, 79.63887332466557 99.04956403527284 M100.9930847800079 88.96809019021883 C97.14823776973242 90.9446621706488, 94.00754412622958 95.34827555602254, 91.04711153814033 100.26431807825512 M99.47093404059703 88.54584734409906 C98.02839638904375 90.33058678420977, 94.78762216979942 93.31659616433241, 90.02978735662457 99.38749026746386" style="stroke: none; stroke-width: 1; fill: none;"/></pattern><pattern id="rough-6846399642136803" x="0" y="0" width="1" height="1" viewBox="0 0 100 100" patternUnits="objectBoundingBox"><path d="M5.86243906572962 0.6875912548361771 C6.071058843825063 1.8599922063307581, 3.8933153168070476 3.105202589831512, -0.9678300840318594 8.560587729365489 M6.802121548298155 0.08951185036084319 C3.6590650285695014 2.784430614971729, 1.3419239939657528 6.199045217097659, -0.3839040636106461 7.4261006116158965 M16.930828642443323 0.18397509740550255 C9.946881120647486 7.736543656523912, 3.037378412539584 15.172489693381298, -0.9613310145025107 20.70894019922196 M17.460510553151146 -0.7653035508587118 C12.670319533642873 4.2542729208649686, 9.955092044911645 8.89466636906682, 0.644489951140033 20.46695172538721 M29.01899595035495 -0.46386449451828415 C16.628407519222463 9.693918374510984, 7.420281467394263 23.45425340668934, -1.1843057433401798 30.68656493959032 M28.197769877741788 0.03717951605281611 C18.221930221914306 11.156053966313255, 7.9525598807437285 22.466338051141648, 0.8202329896171641 31.22427586309325 M37.80012754538096 1.6249786792299057 C31.06373195209497 8.958061416243826, 21.33335724414023 20.585223285146835, -1.1037980960146747 44.954890926707726 M38.42221581086294 0.9741737929816998 C30.11817761466208 10.6646237705109, 21.28547454058239 20.064813826318293, 0.2536030436952128 44.57513575743032 M50.3635472012204 1.1082881734029009 C32.989959564783355 18.72138022037744, 19.298349713521564 34.938381070521814, 1.5567843604268665 55.407606390142654 M48.333282133882925 -0.9765860194867653 C37.06162143914548 13.117694989779167, 25.57604800100711 25.682299761846703, -0.7451594225685989 55.73343599738648 M58.208062472712946 0.2906590187779212 C47.76572315834852 12.77990151061715, 34.51073030424956 27.519685939204535, -1.4430262975864103 69.86681477651324 M60.541380641593676 0.5255045280434465 C38.45343423091232 25.406715453186848, 16.444407247581314 51.34725798822545, 0.7688741837380069 68.08433311696206 M70.31150878963865 -1.2800346967061875 C50.548239895104665 22.378438816627074, 32.01936737191035 40.81347057778636, 0.36635564931374276 79.28587152469126 M70.7870556365251 -0.21089383371101844 C43.957197838702974 29.482881481409617, 19.132824220007713 59.13692473685599, 0.5638888193632692 80.46463432593876 M80.32419846249174 -0.7681449764378945 C53.84868327085523 30.844328757755356, 27.33325564191951 64.3672028408439, -0.9963587167160908 94.45087368470806 M80.852651029685 0.10292191317297394 C61.823272635633806 21.121478966162307, 42.70828265382941 42.7959243067591, 0.7570047399824458 93.11249681055679 M92.05567784487097 -0.3420308705490891 C62.85143518304812 30.09010018523309, 35.046779913117895 63.220792685185366, 2.8099694278233507 99.46126763659557 M91.51353506487152 0.23090197881933028 C69.01634343334474 25.336490259731026, 47.443025766617396 50.99796223630249, 3.841670971565277 100.30115252844055 M100.9554615912361 3.5690464420941623 C81.33202300127147 22.748838992694797, 60.645098745194524 47.57750143037635, 16.789808666256626 100.74575308508491 M99.76812426655337 3.046671104701904 C74.63026748075008 30.091568818760237, 51.35586849733065 58.130583000475454, 15.260560416786735 99.2016325463876 M98.96073730832292 14.074017391759039 C75.25762428877636 46.44271199249225, 50.79784239459637 75.43735649283397, 27.47240201665748 101.80444084952539 M100.21278113730457 13.772404914744035 C83.53701166396354 33.464402246330145, 66.01529604872337 52.861793408168374, 26.67916010880144 100.3801465741328 M101.71883198250512 26.25987476552726 C77.6422471964181 51.6803532073756, 53.896201722552306 77.89170957282585, 35.75599201695048 101.61462491439963 M99.79775171978436 26.329406830978435 C86.47269579323823 43.13372977853545, 72.08632774641649 59.9913420876038, 35.94132152082209 99.1976813648714 M99.83211855094976 39.355424148584305 C80.67429307859017 61.533237447050624, 57.9261116832513 88.67979830312913, 46.0269334436256 98.99301915079171 M100.36515365093832 38.16052357740141 C83.1772037277047 57.82525899310648, 67.95903833690113 75.09399246888155, 46.08581547559925 99.52252330123824 M99.05970462036089 49.636135819437115 C88.72870713059145 62.460736223165874, 81.46957460099166 72.86123121222764, 59.179197254046045 99.03667965450565 M99.23964481864692 51.57578514168717 C84.80185289988407 68.9128966242511, 69.53008481378193 86.91621958436757, 57.06294813754691 99.40361641244972 M100.10294369538008 63.923875208049274 C88.0961154321501 73.83485750606026, 77.03551746212901 89.51625293750645, 67.96922206168294 101.55875141323878 M100.42132067355209 62.827114149781416 C89.95581294581238 75.0595720794183, 79.92503816290647 87.47411322651543, 67.98272290404839 99.40999790301113 M101.3319098554383 77.36415575016913 C94.8594890573991 82.42890919773166, 88.72077989117189 88.65310969881567, 79.43866074122329 101.65007531825665 M99.38498281841696 75.28587901101177 C93.04231419108726 83.66140646560629, 83.56923012242176 92.51211903472962, 79.40452068335347 99.64814462663173 M98.45727927030832 88.49734190751296 C96.49007516777951 90.78340513984018, 94.13434000143141 95.44938795759883, 87.91819188455177 99.81780550800187 M100.1872110365987 87.9437243871814 C96.36809043724082 91.62583695853994, 93.43124500833724 95.82271053677522, 89.86527904843172 100.62969331174797" style="stroke: #000000; stroke-width: 1; fill: none;"/></pattern><pattern id="rough-790871499868839" x="0" y="0" width="1" height="1" viewBox="0 0 100 100" patternUnits="objectBoundingBox"><path d="M7.38690046560018 0.8504634799393669 C4.332655115362874 3.809763833808354, 1.5060499341022489 6.620793654956252, 0.16463773306069807 8.604495298034061 M6.806047901856276 -0.001104791809525607 C4.281369180924683 3.199426661719604, 1.5966340014219713 5.840259853637921, 0.19784565560224243 7.429729878542982 M15.696915966973592 -1.7966964878321496 C11.916542080487698 5.003818636989672, 10.323648010894527 9.221277010650851, -1.0084649948249211 18.069526750400406 M18.31942788357656 -0.9168738052328571 C12.175717710820784 5.484386636118603, 6.188810366843876 11.570318134215468, -0.6231795900437529 20.691562558148973 M26.149516464971974 0.651881872194437 C16.675601051729732 10.00681569032406, 7.710241809507665 23.40885832258242, -1.2715278455756458 33.59847147452343 M28.626578384821613 0.7845774237701586 C18.365623093746343 10.447902834078127, 9.222889557100283 21.491047828664787, -0.718363351139029 31.258255422411374 M37.4700003657485 -1.3066547368547807 C30.725027011896834 8.86392292915476, 22.799212884822175 15.972188827938325, -1.9627253609105821 42.87767775932422 M38.08921971744643 -0.4449538938209887 C23.470029711907856 16.59021698308364, 8.892920056621236 33.74487192442193, 0.4885570095792704 43.85129841017061 M48.886565606886556 1.23627121827617 C34.32693703261934 15.924340956293463, 19.21599778346545 33.40704032683988, 1.5993855906531618 57.275542362357626 M48.58718605942062 0.6403308312772955 C36.55814768562564 14.106532900529531, 24.044775702147604 27.884267585329052, 0.4540826362978576 57.452531680417984 M58.935058542140304 0.6541464988331382 C41.43122929331641 17.29628686406809, 24.54636971778553 36.94152246785732, -0.07261023943675671 70.13214104003087 M59.54448070572154 0.677747344229727 C44.47399035523923 18.623374148787875, 27.93491046855982 35.68422431658662, -0.06553056903027121 68.00279366109369 M69.2722918404974 1.2323159702765212 C43.38960150432277 31.027891377480127, 16.39467668359211 60.45484210456658, 1.2366777694110276 79.58336641707947 M70.2750602858994 -0.3752277505620203 C42.38316102452814 32.793176752366826, 15.05047009703522 65.09503393931047, 0.03378199914279101 80.78403837449636 M81.53086244452388 1.1222549681626806 C56.3881833017218 26.581041977101446, 36.27114476337742 50.23463018384523, -0.7109496619997699 93.91135579416277 M80.65426478669359 -0.0006824635555089387 C61.81771772163333 22.193232888140308, 41.012492559146615 45.701764459852704, -0.14749648821230954 93.47452939957321 M89.71477542179498 -1.3659471194815254 C74.5550589557652 19.96821435396761, 56.20883333043503 41.414849443695985, 6.223365987382247 101.82705617297701 M91.41395662925203 -0.9537594765728716 C66.82474894324855 28.656967328676537, 42.92587635070234 55.51230806696665, 3.739387641903492 100.21272511006082 M100.53266912175081 2.4180692622803726 C69.0775965198194 36.49275615462274, 40.626774693907215 71.03733520763728, 16.5228481681029 101.09655551216281 M100.6259212425538 2.719956779171483 C81.58099891390675 22.81729213936282, 63.56885987951575 43.27945920382092, 15.982514030104099 99.42050904207741 M98.21231198593695 16.295204787565844 C72.81319468744705 44.28440780339868, 46.15962528863575 76.5003738899324, 26.51029964952447 101.67076734537122 M99.11482297898645 14.116609765056332 C84.10982704114394 33.98127481672401, 67.21430187023037 51.78326072790548, 25.647828232248177 99.71761771744815 M99.97926928896806 28.911501611699194 C81.13016101662924 47.14849126345069, 64.20409939404378 68.78173624823678, 38.052020427878205 100.67437303379091 M99.39034056127298 27.836447162697223 C78.53872101163388 52.272057389903516, 55.51717566536264 79.36547335613342, 37.3630509403494 99.00188829848703 M98.25831190834646 37.84310760690969 C77.65888426550022 64.11968257717058, 60.102281589746696 87.7013052578799, 49.03391548111367 99.84448193954017 M99.19690929406015 39.30811358242363 C82.00394380812915 59.77216722616769, 64.07875177086336 80.28668117615953, 47.51368967181272 100.45044312454357 M99.84478625110668 51.72154946295174 C88.97615610054775 61.99709963266138, 80.08568781845443 73.7530087649944, 59.1002463929112 99.55447605195943 M99.35251976767404 52.1126055373016 C83.44097499834564 70.37793693461458, 68.40824292470816 88.29151001027347, 58.188229353871854 99.9060675213249 M99.96593995389591 63.49659007161358 C90.25023088138938 72.46271921038353, 82.52660090519669 82.3328791177911, 68.96463288767671 98.19662966544017 M100.55871906253678 64.36546823332799 C91.91233013564445 72.20778531530142, 84.56615449052427 81.40896177521718, 68.44707075652555 99.69438453459395 M99.74106202151265 76.04841806573333 C94.82779914881087 80.52651576718553, 88.78762364594091 87.7730723322729, 78.54859254229807 98.35930147216969 M100.70291638256072 75.38151332466933 C92.95685187812946 84.60098706892249, 84.54027333489687 93.39243406885157, 79.77099081740693 100.30553317653064 M99.85604419749991 87.51850172553888 C96.20304934972798 92.7597742440472, 94.03707719906926 95.02589615936823, 89.78878431369463 99.57034534421857 M100.20873394970506 88.00464867339308 C97.1870517447123 90.803533197268, 95.81916366229287 93.30994296392818, 89.07508137098769 100.60887625994454" style="stroke: none; stroke-width: 1; fill: none;"/></pattern><pattern id="rough-2308206388712113" x="0" y="0" width="1" height="1" viewBox="0 0 100 100" patternUnits="objectBoundingBox"><path d="M6.9672251789556885 0.6728355778411634 C3.6056705762032983 2.0956896233893882, 2.1635536876836943 5.851461929692722, 0.3016400732269937 6.795394422888849 M6.701335719220148 -0.2986536833756556 C5.324777041760956 1.7115708766189242, 3.200593975292793 3.5894711220316746, -0.38668127430783056 7.929678181529217 M16.835901811131617 0.5568250446841594 C10.818165767177305 6.1653095637315065, 7.3624081483952555 10.074915261719735, 1.9610805054660903 18.625504897579432 M17.685617529785354 0.8765150213373913 C10.002257838250486 8.431401826473182, 4.110388940243002 14.998644673712798, -0.006083219910880011 19.69929663224159 M26.438368394567256 0.6449963089934991 C19.048766707346072 11.631288407753887, 9.754831641205376 18.60411303758893, -1.0275072001079852 33.85472875275866 M28.710417457466793 -0.010263757197698897 C20.680714620685734 8.914517365378142, 13.491341572881513 17.61366613466508, -0.9646060572351294 32.96663721971558 M37.136487169905934 -0.9169946226272616 C24.115171187529704 14.335642172849528, 14.211384516902196 28.677054039952814, 1.470888583394931 44.93225627464967 M37.772382257219085 0.5936104247745941 C25.11524600993962 16.6368261644842, 10.546880531537685 33.17706269092705, -0.5043806849106378 43.57868728817047 M48.58102289312122 -0.9451636430433625 C28.84794848777975 23.02287188518844, 10.562702033457821 44.83946905388217, 1.2823063175213933 57.97971605968139 M49.428641973433166 0.04161083687126066 C35.26253528832857 17.491899270977363, 21.327582904230955 33.496895060309996, -0.7125817071280642 56.02533398806537 M59.06682862200494 1.3568296942695035 C34.9823076264139 26.03616734540619, 13.178509711721116 54.9950750455856, 1.0869645857014776 70.40928755013007 M60.35342187372607 -0.1620195852504005 C40.03904035830141 23.423181166045932, 20.529191602049085 45.83190096736028, 0.0068702454729345774 67.86596271283614 M68.6431879390009 -0.13226130212301523 C56.11447262835216 15.547601928476254, 40.24109189666363 32.87275908796681, 1.9536227608789094 81.95219731195834 M69.51950258535344 -0.8774774310050049 C49.391269578427256 23.92173308489931, 29.731796247412454 47.49450741534876, 0.5410663042749668 80.42418681242968 M81.68035935308656 0.1341384155650438 C48.258120375283255 35.3732850907734, 16.846625948990557 75.68123757789253, -1.0715283668947366 94.16801188017806 M80.86054352156305 0.050579838266874955 C58.13152427070543 26.63037525222869, 34.51319300777898 53.53820765704785, 0.8062907218570605 92.18471742169434 M91.41426792583708 0.6648431244055422 C61.32246654600912 34.63271345781238, 26.784514396342054 71.88991911860013, 4.09297841689718 99.71544966242693 M91.1156647880838 0.4899082831947488 C67.42596715199997 27.245410130090438, 44.02091651071896 53.79257845047474, 4.315889540851586 100.54178778708525 M100.8792543586738 1.7674475836538228 C78.56494482860668 27.465073566165398, 56.63637173391274 51.86306653013761, 15.523798450339484 100.71057386115544 M99.8496008009485 2.2334817403991294 C81.1979908277429 24.749784333926964, 61.483234321316644 46.21002103403418, 15.533413232075164 100.49183257503476 M101.90665192918432 13.161517727564162 C75.34366778901594 43.81683509482948, 52.0305850960877 70.26539809845924, 26.25675624212829 99.03225970579932 M99.80876687326216 14.836348970330906 C69.80818554510662 48.181550681205906, 41.456824921203406 81.48006400744369, 25.82158808047647 99.44224945173183 M98.44579953168233 26.27728294205138 C82.82679464458462 47.02864541772405, 62.28356637266985 71.57050806878323, 36.85295772835084 101.86738606119862 M99.22331814856766 26.821175434606538 C86.47692061582438 42.23461314377768, 72.33511711753009 56.703175722187005, 35.70546066677187 100.2980422089234 M101.48420208976361 38.191232101449685 C87.38923919161682 54.5385994457723, 73.43435211290812 73.16051867551973, 45.86249945607665 100.34198289663694 M100.18058825266961 38.26989265511716 C80.98406782773095 60.383429581503826, 62.03662073866041 82.2385756177035, 47.948911103211465 99.60123838709235 M98.9064947182829 50.038414109713656 C84.85060496518835 68.28745087254151, 72.44343789762988 84.4600390680389, 57.466414689987175 100.02786381731624 M100.1336700077368 50.451479860807076 C85.06012352994838 69.83986548919049, 68.69482482194589 87.88112549029238, 56.79922647572452 99.63818190273314 M98.51040080497644 63.0897331926061 C91.3477352733441 73.88202334583018, 82.87514536849415 85.1065211513585, 68.43742849770496 101.75281867887384 M100.43761595033347 62.59848848864086 C90.27306959045482 75.6063071647776, 78.133364768045 87.6920935316095, 68.04770498712857 100.39394164458186 M99.3265979147943 77.01521723328062 C91.15903041598642 82.82149299624001, 83.99163307737209 93.520365598236, 79.4181242139298 98.2180952563027 M99.74896236765913 75.79327949270535 C94.33352689295567 80.6019331238858, 89.85344004944977 88.0605785451929, 78.62672417393301 99.87568373216148 M98.93607220127953 87.75752875323231 C97.22520310368537 92.60129695606234, 91.63046705246083 95.82222062779601, 88.03832947235101 98.70100599071 M99.23723440123688 88.26342345831449 C97.12039769385004 91.42374805741113, 94.08399110707373 93.70418795593542, 89.27462379396619 99.6671817527165" style="stroke: #000000; stroke-width: 1; fill: none;"/></pattern><pattern id="rough-2887667119486565" x="0" y="0" width="1" height="1" viewBox="0 0 100 100" patternUnits="objectBoundingBox"><path d="M6.759364273407912 -0.8905692160101655 C5.146710710919408 2.5254031055424098, 2.8493598654030485 6.306868547029521, -0.3427682233468582 8.85175333589807 M7.1111876159848535 0.2564288264472565 C4.960424475899507 2.179891774384529, 2.767759865355153 4.416668288034101, -0.30266065743246184 7.83769862392207 M18.24829715962087 -1.5686339513230125 C14.025426285859712 5.309972225412198, 7.9494896840214055 10.369235638574846, 0.6971519814286946 20.604451513546124 M17.36762115019971 -0.21111417279773503 C12.866829622089005 4.1659982244878515, 10.569598698805148 8.704978703883139, 0.6047607957117593 20.58098704331457 M29.095681984777222 0.3560380636358742 C22.517598808410725 8.266133235539588, 16.232311308580517 13.856270075342792, 0.4441167003173918 33.94638827565185 M27.02606063111659 -0.9931701121842087 C21.63272060162029 7.609243839599242, 14.155949699509012 16.08056163837019, -0.41700587128457345 33.13846972911433 M37.44230152176679 1.732642943112511 C28.588355161322916 12.739540703646476, 16.32070918030078 23.7802142989411, -0.7685070139997316 44.86914021907735 M39.37449840730773 0.38318060294900347 C28.704479074768145 9.55451445406892, 19.053394628996543 21.174203597876485, -0.29007291700930526 45.05290141003266 M51.112541657062344 -0.1444356875554913 C30.807560579688406 22.79335613014073, 9.746332067515615 43.87961742381696, -0.36756463645179416 55.86116124621218 M49.780863585916926 -0.13659260809601603 C35.80719273076419 15.476215894549172, 24.402841425024985 30.69834405309039, 0.48181024201375067 57.34973550972476 M61.62761538918598 -0.950292956783513 C47.71021058127871 15.609101503266846, 33.80008094475528 31.473949786793387, -1.3953449997782181 67.67546947256098 M59.33136270100585 0.35358555038404305 C45.1639429801413 17.83649434398688, 29.18222751193149 35.45961257999562, 0.061117438011251135 69.45791306116692 M72.0903797652515 -0.5597045379832712 C57.23691738158611 18.675524207724386, 39.79836326905701 32.333200419075474, 0.21099769124155898 79.1576424394592 M70.82271860014998 -0.10678467035745953 C48.192672470271155 25.996137797872652, 25.912305486826586 50.79071750662942, -0.15256050623785722 80.59024467045496 M81.2135269016893 -1.069415892504968 C59.29076712572555 26.86931587912617, 37.2897893891962 49.83434957628766, -1.227895836165101 92.82947468104831 M80.12731979216888 0.71782579400928 C49.78869043161914 35.97626342293631, 18.062219983410444 73.67442494893606, -0.3924083896635726 93.46174838656836 M90.83110043876584 -1.3888704799270712 C72.1240969463297 19.11341246318284, 55.335221900346 43.80963628629443, 4.340691410021624 100.26470188953519 M90.96234044309188 0.6858576227601954 C73.00356007495124 22.782731635943204, 54.61921803205375 44.00564800080505, 3.85712975706007 100.48922572824664 M100.24186565285673 2.242761911355017 C65.96439470976605 41.45431831040134, 35.97329489012502 78.34918056566114, 15.536981876494082 101.57173630936157 M99.94166858389889 2.5503681475904543 C66.54039320912017 41.63159709506072, 31.955655895519413 79.73398784897489, 15.478202095955007 99.60279156234988 M98.55808188117541 13.963731964257882 C80.64127969415073 40.0615139918639, 58.0682576570892 63.81399878858018, 24.009899336233133 98.50829697933592 M99.36240585217307 15.61938815798142 C74.37256355297237 45.30867517314135, 47.5702300836474 75.15498562483, 25.32145056097826 100.15903139538513 M101.07181113170837 28.192145037914187 C80.71338906842072 49.34078044229936, 62.578819669635 70.56907090444395, 37.65730248517245 99.89726537411805 M100.27984975278913 25.98257192111242 C86.05707504872512 44.16643946477298, 70.4649128991697 61.840456045619426, 35.49805728485981 99.84951417053296 M100.1594645342198 37.473434657777496 C80.88981038393969 60.547562442480306, 59.38063002926029 86.07737707205219, 46.567791750911766 98.34265668458708 M99.63833498329903 38.15307585836435 C86.85134783416414 54.52413393671752, 73.26203871624115 69.65089362619781, 46.77472535980757 99.3404924791439 M99.90453908845977 51.601685782175366 C88.18094227675957 66.66538015202015, 76.43647048202638 81.47723683899743, 58.12250424625414 99.41340618601254 M100.98501061870138 51.22710929725341 C91.72644929098988 61.82865218093184, 84.16144805119451 72.28226480057829, 56.94572169352528 100.8924719263579 M101.39123514658331 64.08205083233317 C88.2993705103755 76.4314097596363, 78.84468754109731 85.73011939051811, 69.56480080473285 101.54205104383699 M100.8384931907728 63.99245510281635 C88.66827286020137 75.8666997623312, 78.0544486569229 87.73443142810612, 68.42334354257876 99.46958231010177 M101.9218851691105 74.66818106285757 C94.85602566472119 82.86135048602885, 89.39108154912823 87.92801798289469, 77.87874444594668 99.54665272136322 M99.27737123267676 75.16320189359769 C94.95405264387803 79.94145790488585, 91.36068311458658 85.83682166084408, 79.18910218954943 100.10114534963465 M98.86746871656119 88.09485844186575 C96.03027827908932 90.39530787826715, 93.27711585654203 95.68298456731573, 90.40389068927234 99.03663740155902 M99.77398335949437 87.50763653835268 C97.08526528842211 92.05969163643849, 93.3226038972981 95.47201581223379, 89.02388931532977 100.01287919041849" style="stroke: none; stroke-width: 1; fill: none;"/></pattern><pattern id="rough-2669762472992637" x="0" y="0" width="1" height="1" viewBox="0 0 100 100" patternUnits="objectBoundingBox"><path d="M6.741749556447169 0.4730081093201042 C4.216208872396307 1.7156036357002842, 1.999064681246428 4.724316787446732, -0.7505931387124438 7.0563123694110494 M7.134671309692673 -0.010174102825698084 C3.817402531921094 2.7440701975558905, 1.4193577291117943 6.01579006906526, 0.24415505073153387 7.4535252913391234 M19.096237831424222 0.12425117578059908 C14.525428705538516 6.102030988230724, 8.161189378815878 10.35327518219255, 0.10008380085208302 21.21740156473152 M17.139986917174454 0.27281115212875084 C10.235619601663048 8.008963526748673, 4.060056844877044 15.355687293118134, -0.16184029204095518 20.35327120197138 M28.41962745913815 -1.9890601967398576 C19.931640968338076 9.186874602065709, 12.705197140959456 16.613957466994876, -0.22246277778330903 30.523194101135974 M28.03768324267693 -0.7758505852053954 C20.058026065335955 9.804866312341224, 11.8122434998252 18.726795584061534, -0.13188151422211147 31.424643417465585 M37.325669292323546 -1.6712124164343134 C22.1640627166625 16.217931414756347, 9.447057400388069 34.999042401534155, 1.421650794305081 44.82871402453426 M38.501261478476344 -0.13326947202490214 C23.120062168547918 16.623057188527707, 8.090543673886572 34.335941524098686, -0.7952351594341964 45.33636519226547 M49.463644714094514 -1.4602916168502382 C33.59772731496596 17.4098764972666, 21.91640337456215 32.18227449974873, -0.14548627133477243 54.655646359806134 M48.57856988047349 0.30042516881061365 C32.44216427014817 18.978775598652263, 14.068185348036106 40.74883534622508, 0.1996664011345537 57.451980260135386 M60.33285840201491 1.3341461536697192 C44.948091553089256 19.975266284728892, 27.279114301982425 39.58677527137931, 1.214689141801526 69.13662935611606 M60.64028119725385 -0.4587128878245239 C39.500981420689044 22.98072674246052, 19.01159206736682 47.050233608078514, -0.31427125611961726 67.83702276756138 M69.8362834451599 -1.5259489876158243 C43.350757839739515 28.449523292386992, 17.154254608721896 58.754572918458415, -1.6581456992259929 82.98220131073009 M71.09187984065174 -0.8906581346137092 C48.31018188966631 24.54017909838477, 28.018790036315536 50.34772899556588, -0.9095725354698887 80.25105478942771 M80.92940080689593 -1.4179131327418766 C64.23699659222211 22.362199811003396, 47.13582417673679 42.66855307575369, 1.8354842204922894 91.93444961222848 M81.47511268513549 -0.32056824282076546 C59.66097265702936 25.638076273192247, 35.66404632324475 50.20877774559428, -0.7132637897247558 92.28756775547247 M89.91580833681617 0.3828029348115898 C64.85454963795173 29.928261029672917, 38.80712748994223 62.36142026259552, 6.197032135340042 100.84787108905104 M90.80115400044491 -0.18638980615117084 C56.840214685712326 39.09182466356219, 22.61461790492181 80.18615657102156, 4.558807008469351 100.64068592302834 M100.83645529621847 2.700339004175868 C77.65821456367068 32.593097860491646, 50.449255529928635 60.574286926732356, 13.387385944208042 98.34600357550231 M100.21788136122404 1.5832011739415734 C73.26513994465813 33.55291432721925, 46.95206944055424 65.40227710221721, 14.682453154323573 100.75263488982351 M101.66648936086958 15.808710734492198 C70.85015517522463 47.869938626884576, 41.067587588994535 82.22792264063546, 24.011331111765756 99.15116612382694 M99.8475610401379 15.626034180345341 C71.49438712451517 49.488290417326326, 41.696928357698944 82.20454229968934, 26.39878058095427 99.36441603873776 M98.44267587198381 27.262670483793197 C80.88592154067454 52.41473875708545, 56.19397479298676 76.8480611890156, 37.707344622320385 99.09173756233835 M100.13828132207477 26.686828972781125 C85.29645111433807 44.720576491681754, 68.61736999264265 60.92321489225447, 35.80413967913799 99.85040495462233 M98.22074396220734 40.041502857595276 C85.06388387879616 59.511126722973636, 68.11950617932271 75.52515389108612, 45.68361241482225 98.26606178417036 M100.14490381572799 39.298469497782676 C82.72613094956365 58.77227004856983, 64.19802345565537 79.29449049411653, 46.52389362764856 99.58023423197893 M100.00373570762382 52.83088176784043 C87.97962006194533 66.13372457758885, 74.63942344723321 81.81875739094816, 56.703877964821054 98.04467926012907 M100.14809494702101 50.95744449325751 C88.77906530697126 63.663237426511394, 79.19739944498133 74.94389357984575, 57.66060425187121 100.40552484129077 M101.46946328265766 63.09583836983646 C90.0913745355767 75.95735215124787, 76.7090112231035 90.22159007645611, 69.16372917653031 101.86730577122725 M99.77860311987975 63.395769809931394 C89.06767101771464 75.93697089259126, 80.69330778388932 86.63095430962984, 67.86352817935534 100.18282268810327 M99.051776299706 77.1538315096646 C93.27341757788285 81.93853697222215, 86.34555720825614 91.84569616525089, 80.5993750258953 100.40344740904813 M99.18651121617629 75.36551452759662 C93.03783580365386 83.40730157074859, 86.0320902721888 92.17899676706664, 79.8426093592474 99.24864894657497 M99.46771026213615 86.85591854787951 C95.22124567634165 93.05798492611508, 92.59707557017065 96.55390351782306, 91.00605040726937 101.0523739759749 M100.00856205915173 88.2098630880558 C98.02303786620108 89.96187155833901, 94.64725243977965 93.42061833152552, 88.97998652965441 99.70077087224601" style="stroke: #000000; stroke-width: 1; fill: none;"/></pattern><pattern id="rough-4753142171454443" x="0" y="0" width="1" height="1" viewBox="0 0 100 100" patternUnits="objectBoundingBox"><path d="M7.009983749022968 -0.5781028916210358 C5.827087259433366 1.7647426254733085, 4.0816911474124655 2.368477731862036, 0.24812571213279533 7.6437854759043855 M6.693862259409789 0.30897144137337307 C4.779417690660754 3.374478935833194, 2.0321005488292823 5.832101532310359, 0.1825115064018923 7.557248192644074 M17.529628270070887 -0.21360446448295622 C10.91254624400338 5.187216757461313, 6.85919657676245 13.45630233618509, 0.7509799895655389 19.5907215248203 M17.620654735450387 -0.8127516571456059 C11.394387630200846 7.377544509106913, 4.831947495635336 13.807871683618766, 0.2265638299161168 19.685229357508227 M28.335377140382278 -0.4429682493779863 C19.072186770034484 12.779090484188341, 5.676357477819615 23.069962917452557, 1.811377425036027 30.467374675966834 M27.87752030112981 0.6759823701053946 C18.060588882272405 10.329501867378438, 8.133027620095783 21.968766097478323, -0.3088472246281686 31.814831789640245 M39.70545489310494 0.49411468551134163 C28.335835225334495 9.439386214316814, 19.807762696567995 22.259182516498406, -1.9188362828599779 44.9216077961 M38.619224676907024 0.5379907543114149 C29.952439939471823 9.45006802670123, 22.05368420737988 17.498894234071155, -0.8896655993513329 44.2753729270506 M49.12896733236891 -1.0938939558763394 C32.995821237898326 20.67914632580349, 10.583880871698245 42.56910198197138, -0.08846092729673849 57.5452686908465 M50.030925216563055 -0.9231242060243732 C30.323733561848158 21.989088861549515, 11.042845402467727 44.45897524967312, 0.769100513711054 55.71849470425126 M59.88821500638908 -1.1419298958907973 C43.60111808696502 17.970250694443983, 28.15471188520773 38.502351715642234, 1.3694883694805746 68.02627253908258 M59.791498645214205 0.2549229809680438 C35.82554306464955 27.65187313370876, 11.459743275587176 54.522022632722226, -0.9198812467869093 69.61303492658298 M70.3493995567899 1.6609856467457709 C49.6973560327647 25.724137795821726, 27.269287122677632 50.47547904007248, 1.3920182934238428 82.69714174693272 M70.64240409073746 -0.36563291847876256 C53.7326972820293 21.08564241895016, 35.69713987158586 41.49715464436836, -0.9446128001541356 80.04236006295275 M81.70694310121661 -1.0841381369517347 C57.67936861684682 27.234007661251937, 37.663861486481295 51.378199583022116, -0.3258408406423934 95.06590634605368 M81.88624616172228 -0.9109237870300193 C57.25374344885999 27.51775608660284, 35.128452454916584 54.99709347379739, -0.34788934934204585 92.44671097061308 M93.02846735457406 1.3616426636392704 C65.96912130686854 33.987476314274886, 35.9196305823527 64.11823241004235, 6.627188440558345 99.72543102886372 M91.35912353803312 0.34236538258134974 C72.71779591222794 21.265882523130784, 53.188163278766865 44.27553991383317, 4.675630750427193 100.17251432381322 M100.19266826702537 0.8196927787316453 C71.56595045321453 35.969471090971815, 42.091513995017465 66.13775632883704, 16.261716305183825 98.24627500090213 M99.62011128469629 2.2028650609785227 C79.10351992290475 26.296307648935727, 56.78454416345296 51.879854214892205, 15.298343516277892 99.52298677573346 M98.50381571313083 15.978779956943239 C73.91321532848693 45.9237873990982, 43.34543269260789 79.49188646561866, 24.143534272849063 98.94198942283062 M100.00740766407145 15.14760964355336 C77.3071317091012 40.129005396442466, 55.420264532050275 66.36556565987732, 25.469873385543018 100.91513481316787 M98.21131614008402 27.842860229016722 C82.29794214389048 48.16767794407314, 62.62755860414729 70.64109332324085, 37.33430786431868 100.5976889479192 M99.94368179591059 25.94236940717911 C79.86148054349992 52.211049751260006, 56.86031037942258 76.70883392929272, 37.390476451498515 100.58929958027 M101.19721185224957 38.81029027849748 C82.74818960171564 58.911408970635264, 59.98517312291558 81.62299870763648, 48.607563104866266 98.26611067743526 M99.51334060812538 39.91595147896742 C83.72838856525551 57.143168747134084, 69.01885519877482 73.9234004142051, 47.67163417061869 100.82543004884593 M98.57768843178496 51.9398424979526 C89.42412049855292 62.59668413145, 77.47817102436724 77.25530835886259, 57.57043268513183 98.82198515762846 M99.27538678186106 51.556734941066 C83.15283949767154 70.25246930552157, 68.80111430301363 87.77605388542923, 56.711918278446475 100.38299630850646 M101.77992761729197 64.68378373156722 C93.53677774724852 70.58988323404859, 86.65811175981749 80.12173389154209, 67.28352936002837 100.55471598122944 M99.80584958908334 63.329914983335115 C90.98420075189667 73.37129612150002, 81.7546353904815 85.27582423404829, 68.0541972073574 99.49849647742452 M99.82898235084498 76.08550417855956 C93.51033354057238 83.11515828411862, 87.76256419405307 91.73613635478632, 78.68203920376276 98.85200725211249 M100.81285785193083 75.11326213237832 C95.44456338717553 80.84192399580931, 89.27536544364837 88.59076405609369, 78.96605990832043 99.18980512370385 M98.74332799098586 88.24895188255215 C94.95831354495505 91.43871673818907, 93.116017989861 97.16818274859632, 89.72997648242814 100.61302060932758 M100.41578070945373 88.42807909895426 C98.03003402864876 91.54664843077956, 94.21983235915056 93.80956051837211, 89.66901839332733 100.049193118149" style="stroke: none; stroke-width: 1; fill: none;"/></pattern><pattern id="rough-6664317822077313" x="0" y="0" width="1" height="1" viewBox="0 0 100 100" patternUnits="objectBoundingBox"><path d="M6.0709811562357725 0.017310284502155326 C5.777110490967735 2.149497491239141, 3.5638175066312145 4.70518405194108, 0.3095212753018226 7.580355851773732 M6.355720500010452 0.491497900033361 C4.8678697579747965 3.2456995736297953, 2.2675801594226592 5.124925125849136, -0.5137347196041884 7.831337221995675 M17.610102899156136 -0.5440973391222963 C12.31399467594349 6.972922714752129, 7.929695561238523 13.26267795868511, -0.9678608665118249 19.263239359458588 M16.502443279937626 0.01108037030366349 C11.373994921554488 7.824416754527978, 4.271684404864082 14.588718329264388, 0.19708061429130463 20.978900945255493 M29.351673003566738 -0.28382257922689647 C21.76417863816538 9.633410308728433, 13.228333446780125 16.73189819852664, 0.18674532176149672 31.864702099663372 M27.198850164018314 0.6446776302568233 C20.43214858342629 7.804797729586049, 13.28180195047532 16.687325766307044, 0.24799834604573334 31.483636741268263 M38.11194960234706 0.9379607775392422 C30.02056245008095 10.498983846194703, 19.025966247880355 21.9957215264336, -1.2343023576764658 45.31258478800866 M38.696155336682935 -0.03817715799223942 C31.12510176534043 9.575627654706716, 22.557475819644946 18.988224018945168, 0.5369038853829626 44.86253456375693 M49.40248324129361 -1.5824261192143956 C36.293298417246234 14.17725132361852, 23.97278271025582 27.949754129287047, 1.315108409224182 58.30802387862336 M50.12539484520122 0.282179005176733 C35.691335023759386 14.626371698800783, 25.147436867748766 28.15134351777372, 0.8481074205946744 56.383919669971796 M61.53864824532507 1.2017031320284461 C36.3148176303642 26.684601760732974, 15.548382986658236 52.64770962052681, 0.11196902844571 67.28088758494191 M59.28736679017233 0.9406343179700727 C36.40501160486246 27.20652432826988, 11.477830378739029 54.34626871557831, -0.3786233918000619 68.53151759024784 M69.15170670945288 -1.982417789428598 C50.983762486255316 20.03183900813193, 31.647399375870624 42.54131295293677, 0.07501645050727745 80.64241611079156 M70.84599456998157 -0.5125253362355404 C56.44481086416173 17.642584516108037, 41.33863362304058 34.72959962508189, -0.39432025328898623 80.18858415423274 M81.68467175558818 -0.5275218267071002 C57.15048218211693 26.662946354795228, 34.75722711410142 54.65958126336327, 1.3545897601687695 93.84571051902161 M81.94546975425098 -0.07218766242907693 C56.56313134501152 29.240886359947748, 29.94784507120761 57.443163231638934, 0.4416741736797749 92.7699950713929 M90.42864564781549 -0.41334796044374134 C60.643095167854355 35.41825914616358, 26.319000846959266 74.20802287721699, 2.8624849050203443 100.37585013632477 M91.56964952177934 -0.7505175746476782 C71.26548127135162 23.53820631262103, 51.79889890084949 47.05736821303998, 4.195550714039042 100.67757500399135 M98.96829061850838 2.12815078612085 C67.82246822635898 39.44182955435017, 37.43554943878619 73.158603536523, 16.007882684734266 98.19908464658567 M100.7396211591779 2.7658546793747445 C76.14600847951306 31.01905213235566, 50.68505473281315 58.638699628298184, 15.639984093537036 100.38488270469057 M100.95559913402498 14.725385317428017 C74.03235781500383 43.828563902007886, 47.130574614248154 76.12378219321988, 25.636548477770305 99.11373306878984 M100.98370234351039 15.352774131910024 C79.97610708145089 36.9887397505097, 58.62893737287849 60.47924903551379, 26.63616870345647 100.68634895088624 M99.70310979510289 27.834397788337384 C86.92245284364299 42.419783925011515, 70.78043364282391 59.79737033025532, 35.24888075155494 100.35653478405298 M99.72628779742658 26.034758081691148 C85.91823589483108 42.133781456693065, 71.47938350657567 59.356782749341804, 36.71397211807006 99.04061967924451 M101.14731339736575 37.462307648140865 C83.82959373914653 56.24992775380042, 71.31224306529818 72.02270118348217, 46.67768129718724 101.28175543185208 M99.9226187352509 39.37693976722477 C81.44456269322768 61.61218873046556, 62.20779686657797 83.82030689565666, 47.840434717925824 100.61943737709937 M100.40454801762883 50.821088943327105 C90.54185735005507 64.77248812252886, 78.31475803156816 74.29965091569652, 56.63442842616854 100.55255229704117 M99.9359581157938 50.633167184636214 C87.59635955842218 66.38426224597835, 76.03434024185461 80.00101444027892, 57.71394997928376 100.86744143513849 M99.72463293697116 64.1246029422677 C92.47255771523254 76.27586055703014, 82.00594144639471 86.86498204741292, 67.06188477266878 98.46374212250007 M99.1683268472702 63.41286892809285 C92.2694897763192 71.50236469486654, 84.76922850734285 80.27904525716285, 68.64956087955402 100.40125962788511 M101.28701528954556 76.49519260920906 C94.04902254499622 81.33513239757391, 90.18174450266909 88.08001850838242, 80.48929556843905 98.62883169994412 M100.67458219749288 75.41614037780143 C93.91946712750592 82.95145088245755, 86.9219255897679 90.4935442961256, 78.3365154963355 99.7781219427396 M100.09075709934667 86.77895046838655 C95.72705611781863 92.84850706723212, 93.59145662512177 93.88402527961499, 88.51828890910191 100.27484458275943 M99.92116704489258 87.2650313191815 C96.73056018778603 91.58790554573348, 93.09024855620659 95.11450878611552, 90.0562166319669 99.47259177531313" style="stroke: #000000; stroke-width: 1; fill: none;"/></pattern><pattern id="rough-8716128016535339" x="0" y="0" width="1" height="1" viewBox="0 0 100 100" patternUnits="objectBoundingBox"><path d="M6.9087861838234845 -0.675129319183404 C5.492446199690681 2.6473526330460113, 3.792776985503738 2.793177362257324, 0.8030490734416376 7.945886249591162 M6.378808474565324 0.35341299555558103 C4.552431624680231 2.44632865760085, 1.7765919416141602 4.985495292393964, -0.29296178441130144 7.563757066229453 M16.220779314474356 -1.53748104909669 C10.812234693822113 8.396565902733162, 2.857140349580937 16.902058816964445, 0.6751070399509018 20.170224749988826 M17.554749907115692 0.12091309024759456 C13.963863524945737 3.3154041717959073, 9.588348470320497 7.734970575385599, 0.1942754808696523 19.345953269674855 M26.170632533868222 -0.2081880077667435 C23.0835027483135 7.767547634721434, 16.474561916953146 16.085674570038968, 0.7157432662193983 33.948871003590035 M28.79040657619694 -0.15561468084715813 C20.307363610714344 8.365730689212967, 14.990043435075147 16.24662989875525, -0.8094412163165461 32.795843221336526 M38.93974950644414 -1.5966682780145955 C26.830782307121837 9.983282577247707, 17.552120292440478 20.309445779420166, -1.2355348421673344 46.20105198857617 M37.972809768945545 0.4568401311404715 C25.471570440649185 14.554184123891797, 11.527776629793717 31.60607701278795, -0.5709553382837709 45.11243633278493 M49.91939456295705 -0.3525363916999762 C35.37699016343445 17.026106219654253, 19.947297537718303 32.29529347625581, 1.9868398438763366 57.54363684459659 M49.88458967857277 -0.1585436915968237 C35.42897321061423 14.531021275251327, 22.389669840252758 29.738592251964484, 0.20152062541089055 56.36702023878654 M59.88538368546393 1.3312649392281841 C44.09017932920884 15.941269534058042, 30.025398644144076 30.168285905619943, -1.3101912911762934 69.08304021985121 M59.945992551645936 -0.368730518761363 C47.10931658553104 14.20804400195193, 35.19028894377324 28.4458824830277, 0.7034099766850344 68.56275031461674 M69.28138839902333 -1.1187779557414563 C45.63800149119987 29.441887881441883, 21.686293174268947 58.12308965331253, -1.0241759539638489 81.74041262738604 M71.16871334023025 -0.12707496083896652 C43.35221307048494 30.50294541574146, 14.971173035062547 61.2103624075471, 0.5875913451404413 80.02216461778251 M80.98019182676957 -1.2754260519406442 C51.429474334442254 35.615530328913714, 22.16168467305554 69.74551142298442, 1.9656586179056594 91.63667435695038 M81.33990984714477 0.22415934968908902 C60.09747119401078 24.39562278556182, 39.744717740462036 47.954116794839535, 0.45787453241102316 92.57136359683956 M89.87429794264558 1.5979494203655689 C70.7032577082913 23.93730298486475, 49.888823706414264 46.47774897179996, 2.8055038106961225 99.56136811919379 M91.91825420206958 0.6974207180450587 C70.21058637170543 24.065384238492292, 48.915918133819524 49.767542454538656, 5.337861554438773 99.32558521015133 M98.9028251613656 4.199107104924805 C66.66100886760879 39.3720511631069, 34.40985677369251 79.22876629600621, 16.13803248435911 99.11481595990857 M100.3583060900821 3.306349559954732 C68.1214318346288 38.94377576740593, 35.20712680281038 77.21914302493366, 14.439010596158859 99.1357693173532 M98.26668371273416 13.999659591267008 C75.39169726126518 46.24899195268077, 47.9156447575448 76.41645470432778, 26.12004376822513 100.41046809853071 M100.53655284147113 15.337941455809583 C77.21334526626487 40.44763716925845, 55.99025437077486 64.27007823541902, 26.470673240355467 100.22439717133919 M98.25560564556403 27.82141350966212 C84.8930481239347 45.76868063361692, 71.7467969055179 62.93723273416619, 36.62787809975496 98.20614366321995 M99.15717051670175 26.83613685100609 C86.93039501463232 43.51860515840156, 72.85871434355006 58.51339790339563, 36.80539285102778 99.49993422859394 M101.28420360292054 39.37071782727002 C83.80716975846816 56.49400820423723, 72.5941612956907 73.18493654523134, 48.63574373754029 101.91453506017083 M99.2799613847969 38.39466751300975 C79.9193613037096 62.307235751558714, 59.32530347976349 85.28055447280838, 48.049258725896 99.92746337838365 M101.16837216548987 50.865425824935436 C90.05744504790795 63.72782026016315, 77.2530201625649 76.96650380606083, 58.481969312363624 100.05885719784806 M99.96930730710594 50.99042204848561 C86.79372102813397 67.31811385987582, 73.78552936428979 83.27769833190118, 57.60508344558474 100.11114104149496 M100.97687689392468 62.33924960272755 C93.42272035325685 71.83382930848433, 84.9500687891453 82.92667837881494, 67.79794615439171 98.07417807710678 M99.03638142339702 64.17627958290744 C89.20733629126424 74.40545031727805, 79.75145420633451 86.47689085115185, 67.95323758546971 100.23279029913888 M98.54264161714846 76.78890626874497 C91.91700753649761 85.51944777419047, 84.16322416859067 94.24422580873032, 78.79242572109344 99.61706238153799 M100.87553119996264 75.68238675481086 C92.79181620902885 84.12901747667266, 87.4347670124727 90.28603798163854, 79.59090025721322 99.0614191289894 M101.3397344527898 88.68635619993002 C97.0294899502321 91.3055441919979, 93.96450016943366 96.25747435618861, 89.59329023620207 99.92623303688467 M100.72478543969935 88.67949502243023 C95.7373017577942 91.97232077326349, 91.46790491754983 96.67815602224967, 89.81452989675368 99.63302615299128" style="stroke: none; stroke-width: 1; fill: none;"/></pattern><pattern id="rough-1793536347984013" x="0" y="0" width="1" height="1" viewBox="0 0 100 100" patternUnits="objectBoundingBox"><path d="M7.798803550557594 1.011630394478782 C4.9112618625322 3.35107649910719, 0.6697328913483674 6.593636458543753, -0.7038750790582511 8.266853458010068 M7.278504391277597 0.37287767715081643 C4.17360667610839 2.9898255355337526, 2.930096507465476 4.985221573889, -0.01785144118408033 7.8572151758816755 M15.964736738139493 -1.9993885429479112 C11.988460475532323 8.371677016841868, 5.243428649368184 15.052733233096466, 0.9548048117352019 19.256464380462493 M17.422783581156427 0.581392660383532 C11.97982646170272 5.900209028912673, 7.697438072200118 11.343745688324393, -0.2062364080339747 20.012898520779384 M28.194916039372433 -0.13639027576687646 C19.60768331250288 7.236912427122789, 12.84159021217559 16.647726656615706, -0.35385793267811394 30.423883356852283 M28.482241352855368 0.9536962255200794 C21.862925207376648 7.237255736228773, 14.939662801063498 14.72570372087378, -0.032249679405143894 32.62298686474109 M38.865111108707886 0.1630008762028572 C25.523747744655964 15.235534675515675, 10.776571148605088 31.552228947913754, -1.5927199127936307 44.79787763634086 M39.19955565901664 -0.699697459919034 C28.905826525219194 8.922864709327623, 21.93812984269302 19.725081168890693, -0.8730748430975295 45.37994643554639 M48.08943981982273 -0.24956702724420943 C36.90686852301969 16.6923414343303, 24.84850599076737 28.528026374784353, -0.4653216638864768 57.372114885986186 M49.48831559356814 0.056439421702175085 C31.25479917179712 22.118441059739226, 11.919811991101563 44.0275713229422, 0.6088273379688545 57.2971025041813 M60.919098884063686 0.24832876494147538 C45.08984601559614 17.164820522314248, 27.558852834307153 35.77890043796435, -1.8428205396737498 67.94182618558392 M60.692653555356216 0.047522806434772136 C43.88111650563855 16.103182126049575, 29.299418113234786 33.95717008818512, -0.975468340493626 68.5301136673831 M68.6217143258603 1.5442950387137904 C43.72132993217627 27.88172078020758, 17.692891579835205 57.15512246952532, 0.9237857942681096 80.61989704468043 M71.18622073463679 -0.8474892007615455 C45.621454276185915 29.156070847722944, 20.429451716825042 57.580427998325696, -0.08444097148330121 81.30607343582297 M81.02947002500981 -1.44065909510911 C55.30117034315932 26.83434654302885, 34.586084871936976 54.930636823746646, -1.8389041030603712 91.75009749819233 M80.69645426874281 -0.31012921048896214 C54.85728100433674 28.327896520079126, 31.674741037967795 55.95619026161558, 0.24878755769448269 93.01018784319473 M91.54845719889494 0.5905510661033837 C65.28312510302207 28.72272735762034, 44.19533447254411 55.44385147284558, 4.630633450193853 100.22686501690907 M92.03330814534561 0.5973706734408677 C71.67017188271203 20.140157988901912, 53.90241610780217 42.374129580902576, 5.440789659962245 99.93236868383589 M101.97856025386587 4.451777882775386 C67.24400454035441 42.15141616904907, 31.00501130247406 81.20633241141543, 15.542894671375464 100.03208136953994 M99.16155415985119 3.4113910295041494 C68.34737867891161 39.64313482547614, 38.42439410413553 75.7944408190809, 15.153798462094226 100.59695846438828 M99.41073963636795 13.373183289796767 C85.3809012557805 33.263098588452486, 68.09799999567608 48.2113439508929, 24.025475769165254 101.62833926599579 M100.01794884216925 14.844347534524246 C84.21362805712134 34.4561097753567, 66.29456159775488 52.947255529576616, 25.296581786485252 99.94178957696691 M101.96926651012603 25.242155373734185 C79.67660023739948 51.11220536492359, 57.71594659141086 74.50858957751947, 34.63462128167343 99.88318936641063 M99.69104612947025 27.47507204528667 C77.28002015561846 54.20746914741655, 52.962409158973365 81.42151394208705, 36.0025008714976 99.15788969944357 M99.80880198329848 37.34127900494354 C85.88608473641082 56.138312930905734, 67.35988210205053 74.5264103239456, 47.08306762770406 101.45449361293821 M100.31742092146108 38.174592500986044 C83.13556932911732 57.62935186144651, 65.83460716037553 76.51401605667613, 46.10569940934472 100.3426463879009 M100.01868253202277 52.1353538356223 C87.7224416450509 67.67218495374607, 71.9019014519637 83.28711836158259, 58.662889777439055 98.26948605960966 M99.84424386336254 51.34701997116876 C91.17200334667615 61.97449786430828, 83.22349852768052 72.66243309093375, 58.616720215968115 100.36997852580431 M99.14017203483156 62.11708833180082 C91.28019262929406 76.43197614990699, 78.68365767732205 87.88750428799291, 66.4651032036451 99.81111570118749 M99.73375401076454 62.73129622032085 C88.93432128014202 75.71980389587753, 78.84892563921414 87.65806477290468, 68.13378721619728 99.50575097507878 M99.77236758007112 77.4840572674984 C92.92251762526583 86.09638735266279, 84.04341890732515 93.06281346845546, 79.97493516689008 101.73449818792051 M100.54456030715104 74.9225199169154 C92.73847122034182 84.84570525321583, 85.76403221806726 93.14251797552089, 79.35015828275202 100.47561027726118 M100.33843536046149 86.54109237494812 C96.49140228508126 91.32836210184271, 94.2018937565819 94.8950594780669, 88.70211266013537 98.62588074423061 M99.89048426357928 87.20585347822731 C96.65965035717406 93.15799383252299, 91.39975172418919 97.07870088015387, 90.1847033896888 99.25269815449921" style="stroke: #000000; stroke-width: 1; fill: none;"/></pattern></defs><defs/><g><g transform="translate(235.5,7.5)"><text xmlns="http://www.w3.org/2000/svg" x="0" y="-3" style="font-size: 12px;font-family: Helvetica;" fill="rgb(0, 0, 0)"><tspan xmlns="http://www.w3.org/2000/svg" x="0" dx="0" dy="14" text-anchor="start">request line</tspan></text></g><g transform="translate(235.5,57.5)"><text xmlns="http://www.w3.org/2000/svg" x="0" y="-3" style="font-size: 12px;font-family: Helvetica;" fill="rgb(0, 0, 0)"><tspan xmlns="http://www.w3.org/2000/svg" x="0" dx="0" dy="14" text-anchor="start">headers</tspan></text></g><g transform="translate(235.5,127.5)"><text xmlns="http://www.w3.org/2000/svg" x="0" y="-3" style="font-size: 12px;font-family: Helvetica;" fill="rgb(0, 0, 0)"><tspan xmlns="http://www.w3.org/2000/svg" x="0" dx="0" dy="14" text-anchor="start">blank line</tspan></text></g><g transform="translate(235.5,157.5)"><text xmlns="http://www.w3.org/2000/svg" x="0" y="-3" style="font-size: 12px;font-family: Helvetica;" fill="rgb(0, 0, 0)"><tspan xmlns="http://www.w3.org/2000/svg" x="0" dx="0" dy="14" text-anchor="start">body (22 bytes)</tspan></text></g><g stroke-miterlimit="10" pointer-events="none"><path d="M 234 14 L 180.37 14" style="stroke: none; stroke-width: 0; fill: url(#rough-5718295842247873);"/><path d="M232.54882068861656 14.434999368790788 M232.49708724902754 15.188419112412 C219.41216042362703 11.923729921414417, 210.5238760235319 12.599107286529915, 179.06580128870038 15.495420313918665 M232.43142518401316 14.58347242644373 C215.09749768381872 15.62790623329068, 198.63049312861287 15.20217432669575, 180.41940735099624 13.296757129205101" style="stroke: #000000; stroke-width: 2; fill: none;"/></g><g stroke-miterlimit="10" pointer-events="none"><path d="M 175.12 14 L 182.12 10.5 L 180.37 14 L 182.12 17.5 Z" style="stroke: none; stroke-width: 0; fill: url(#rough-973753190636325);"/><path d="M175.9237790855297 15.273279262271267 M175.87342250094002 16.016405931396747 C177.15385477566522 13.083472438567583, 179.9907039688565 12.281149135645995, 181.85669008745344 10.623850593936321 M176.147746710018 15.511864749318482 C177.14667775399326 14.418966123234986, 178.45118042097636 13.59821940555819, 181.75904963317356 10.112040538264436 M182.36953107175142 10.878289252211431 C181.33999741702436 11.787764939690526, 180.96815394889956 12.450131537802362, 180.17448660943796 13.811668092034934 M182.07905270875875 10.633709448481826 C181.73330257696796 11.5935195111062, 181.08375858932638 12.930025175738821, 180.39532149486027 13.875837748223528 M180.67670633369517 14.119363150617144 C180.9564843718534 14.636022870957689, 181.5829064624983 16.0739730650111, 182.47446013496165 17.32402121114083 M180.5279390033127 13.811012392052715 C180.842509508568 14.70171402566749, 181.0709197864345 15.723011441793444, 182.13113701715034 17.595137838044753 M182.41075065234904 17.932019768486477 C180.3853720645666 17.16648663966289, 178.6243799693343 16.65966508565073, 175.28266427907494 15.88055405879957 M182.06299601439113 17.82786139683267 C180.0067765226832 16.494482470185734, 177.82689586626392 15.697624685859765, 175.85195801865925 15.372809300872586" style="stroke: #000000; stroke-width: 2; fill: none;"/></g><g stroke-miterlimit="10" pointer-events="none"><path d="M 234 64 L 180.28 72.95" style="stroke: none; stroke-width: 0; fill: url(#rough-1335489920779375);"/><path d="M234.38067279368175 63.647511457266646 M232.79416018152344 63.688256552230364 C221.03583623049863 66.18686123694647, 207.4216704236707 67.30710824680249, 178.40419669639283 71.92543748348453 M234.95525261009365 63.32737540679693 C215.38530691488393 68.22896841910914, 196.6916854491921 70.51348131950911, 179.3711085131485 72.53550184061784" style="stroke: #000000; stroke-width: 2; fill: none;"/></g><g stroke-miterlimit="10" pointer-events="none"><path d="M 175.1 73.82 L 181.43 69.21 L 180.28 72.95 L 182.58 76.12 Z" style="stroke: none; stroke-width: 0; fill: url(#rough-6846399642136803);"/><path d="M174.90214152508096 74.41515932146378 M175.2986618667603 74.92139307681634 C177.30957250996553 72.87291274690014, 179.5947409760758 70.60070820554841, 181.20117623578426 69.04038579157553 M174.58220228669484 74.70065568287588 C177.0427778117333 72.09404258069988, 179.83651204526586 70.3848271089318, 181.7578540256755 69.29679050306665 M181.4439995629965 69.3880894223028 C181.2446623659253 69.84067415746387, 180.90852387587015 70.87945447711012, 180.5002840649704 72.83778814434339 M181.35077168304193 69.29973799847626 C181.0903060317585 70.1084922425683, 180.8104309619212 70.6733420351442, 180.2023039453865 72.76411449899268 M180.36440350859016 72.87498344855511 C181.1246948137119 73.60786588377498, 181.40061013465942 75.00429359229264, 182.21491431802988 75.75244720190905 M180.43348566104214 72.95022752659227 C180.90417233163004 74.01097391522279, 181.6688097101597 75.0416098850791, 182.38774876016237 76.2716754044026 M182.2435075265178 76.1402626622969 C180.03109072143022 76.0643814464684, 176.26338061156727 74.84276317772726, 175.5206450110106 74.80050659773403 M182.52611801074124 76.23175234303811 C180.5051234314145 75.20078957409727, 178.24747083531864 75.36865457061747, 174.75219710867407 74.3744199096602" style="stroke: #000000; stroke-width: 2; fill: none;"/></g><g stroke-miterlimit="10" pointer-events="none"><path d="M 234 134 L 185.37 134" style="stroke: none; stroke-width: 0; fill: url(#rough-790871499868839);"/><path d="M233.6218207875478 133.98832272527218 M232.07707690702102 135.77351668140142 C214.5523479291895 134.89214621302241, 196.49772447032876 131.90323365464494, 185.18310592695377 134.13141581917557 M232.8421215039488 134.53920716641503 C222.65277062178166 134.26293862351937, 210.08446902011698 132.82803237214867, 184.56195450187676 134.36918416148703" style="stroke: #000000; stroke-width: 2; fill: none;"/></g><g stroke-miterlimit="10" pointer-events="none"><path d="M 180.12 134 L 187.12 130.5 L 185.37 134 L 187.12 137.5 Z" style="stroke: none; stroke-width: 0; fill: url(#rough-2308206388712113);"/><path d="M181.5453797278948 135.714176344127 M181.0231965649833 135.85859101735232 C183.75590417526735 134.01213376034312, 185.58553343696207 132.29905713576895, 187.68454338191466 130.27243295255522 M181.66614948887997 135.6892161833496 C182.79713514999418 134.51319174614326, 184.77520266485672 132.86069995395115, 187.12935935063783 130.77384211465122 M186.81577422792466 130.1127162576646 C186.77608296968742 131.32599042219405, 186.74085774045716 132.2886232103374, 185.74245555909656 133.79089325156716 M186.94833813087124 130.49174481879083 C186.4047863696995 131.77685768080744, 186.08982621820417 133.06697716609693, 185.42461162341758 134.09254036644026 M185.48905118023205 134.3760986824669 C185.50642404646263 135.1425946531085, 186.42668362634527 136.450101508305, 187.47198551856468 137.40403091291503 M185.43697995453485 133.91878240703113 C185.8273835959535 134.9120382231698, 186.3665799260512 135.60269073714633, 187.14541836896464 137.53878832102032 M186.7836209501826 137.9461974223337 C185.673706998838 137.6429799451942, 184.9512704689979 136.9441168388211, 181.29506439626772 136.1400531746204 M187.16400836898777 137.55519721486058 C185.10148882163938 136.9457791353096, 182.97028124158672 136.23957028986544, 181.8149968187283 135.77439446636726" style="stroke: #000000; stroke-width: 2; fill: none;"/></g><g stroke-miterlimit="10" pointer-events="none"><path d="M 234 164 L 180.18 150.54" style="stroke: none; stroke-width: 0; fill: url(#rough-2887667119486565);"/><path d="M233.74055185825085 163.5700453098739 M233.007680946489 164.62340201042008 C212.6365902091018 158.275119407561, 191.10856817308616 153.9843613132358, 181.09753044684936 150.78373800705103 M233.6880303451886 162.7698104165765 C216.69412536485257 159.03742528832387, 201.22734666282034 154.91078931812424, 181.17775300255408 149.7996289723733" style="stroke: #000000; stroke-width: 2; fill: none;"/></g><g stroke-miterlimit="10" pointer-events="none"><path d="M 175.08 149.27 L 182.72 147.57 L 180.18 150.54 L 181.03 154.36 Z" style="stroke: none; stroke-width: 0; fill: url(#rough-2669762472992637);"/><path d="M175.38070241807577 151.19116280251095 M175.40632206190827 150.98410341613905 C178.39971152882805 150.1634582245109, 179.73899412620804 149.44404313561367, 181.9543119744933 147.00586619876105 M175.7271026589115 151.30615283640338 C177.42871171332644 150.37118419112687, 179.09076678521637 149.0396843912115, 182.91166024238208 147.74350438635528 M182.4380114909139 147.4065730198907 C181.76954905857443 148.3241101334003, 181.59692220138948 148.6188769720597, 180.48966441061384 150.33886437721856 M182.65495769890327 147.53944201719386 C181.93770037582178 148.58150063293073, 181.21536213139171 149.46225305438585, 180.188417133022 150.6043056002861 M180.31949361988998 150.28686304119586 C180.03445373464066 151.164419418019, 180.86971157284847 152.89647881542078, 181.147029492066 154.51375382177397 M180.35879197113474 150.57367173547652 C180.32929984781416 151.74703095485978, 180.84234686934673 152.82432708728314, 181.1114549455765 154.36784171066213 M181.46047813770247 154.8531707402077 C178.8047581896834 153.2897286858116, 178.09530364611075 152.19488445527796, 175.87792558696881 150.83099382744052 M180.87680987270127 154.63958135798788 C179.25560081464258 153.84030900488122, 178.39093744942872 152.95125722443248, 175.26265130838215 151.22264232503045" style="stroke: #000000; stroke-width: 2; fill: none;"/></g><g stroke-miterlimit="10" pointer-events="none"><path d="M 234 64 L 179.7 36.85" style="stroke: none; stroke-width: 0; fill: url(#rough-4753142171454443);"/><path d="M232.51244508234646 64.59006938407916 M234.31595486198134 63.57990065778152 C221.92856872381662 56.52773457715182, 207.19816074132885 51.37782804971454, 179.62942147391274 37.052120077743865 M231.77084546574014 63.99622624699282 C219.29985420463552 57.759474487115725, 207.5677923306158 50.918786057764855, 179.08319734662277 36.729908918629356" style="stroke: #000000; stroke-width: 2; fill: none;"/></g><g stroke-miterlimit="10" pointer-events="none"><path d="M 175 34.5 L 182.83 34.5 L 179.7 36.85 L 179.7 40.76 Z" style="stroke: none; stroke-width: 0; fill: url(#rough-6664317822077313);"/><path d="M175.64004951274214 34.699793730279474 M176.05402268214254 34.28795690109373 C178.82394229210428 34.379045045039234, 180.7449433696299 34.05085065288891, 182.6493711555059 34.59728196917346 M175.66699667670088 34.751547860394574 C178.4904162960564 34.4971904571363, 181.04119430789456 34.616951631536764, 183.12874050493355 34.71707419090329 M182.90078709896235 34.84400792056926 C182.00700297222966 35.273974185141014, 181.09863965933738 36.049322323720176, 179.92522795571168 36.7571389441639 M182.69637140227493 34.348300375955645 C182.182136340875 35.292212602697724, 181.0759919993681 35.70943297178917, 179.8809241375704 36.97456567148609 M179.5482971918066 36.85809778880863 C179.78613490995218 37.6332143920159, 179.48901414216311 38.523655977478874, 179.43571993562583 41.08703783592325 M179.61352463144746 36.69329982729066 C179.61572604593695 38.284639167468775, 179.57240939819525 39.376270225352414, 179.8010749984741 40.91314185046422 M179.42870357838456 40.69978549106222 C178.2374953143224 37.848024054764444, 177.21044997021517 36.272875892713756, 175.70072188614762 34.79737607150853 M179.99047946422817 40.862026338084625 C179.07469272030974 39.201445591555505, 177.71697029665899 38.0135919151547, 175.47616234390938 34.608990896181105" style="stroke: #000000; stroke-width: 2; fill: none;"/></g><g stroke-miterlimit="10" pointer-events="none"><path d="M 234 64 L 178.89 109.92" style="stroke: none; stroke-width: 0; fill: url(#rough-8716128016535339);"/><path d="M233.14379900288844 64.49174374248256 M234.31040556092813 64.97060926968152 C212.789591720768 81.87647205063844, 196.7944922350168 98.32668545472436, 177.64490751649623 109.81060369810433 M233.87360727952336 63.7951345579508 C218.89421144271674 76.65972690412592, 203.58827695011593 90.08482821420345, 179.3657794884147 109.75933924303747" style="stroke: #000000; stroke-width: 2; fill: none;"/></g><g stroke-miterlimit="10" pointer-events="none"><path d="M 174.86 113.28 L 178 106.11 L 178.89 109.92 L 182.48 111.49 Z" style="stroke: none; stroke-width: 0; fill: url(#rough-1793536347984013);"/><path d="M175.4615889956836 115.26874882778995 M175.03975680646417 115.40816222282304 C176.36377609990805 111.84065011082542, 177.09293900789993 110.8664473492274, 178.69422410754817 106.20289654692735 M175.36642676187626 115.50253803966872 C176.54845316250834 112.48037731168729, 176.85618389897365 109.74891464395498, 177.89041562145997 105.79175995847399 M177.86883348749552 105.99608611406279 C178.29246542121055 107.0753056343707, 178.57565574060996 108.32161450919581, 179.05633089947327 109.95172132031064 M178.05615225773596 106.30210744260863 C178.2713655185198 107.30544527033156, 178.48525950383436 108.4420943640575, 178.97084025369244 110.05569503124457 M178.50763515406706 110.22528615402375 C179.9744782651426 109.9944917674022, 180.0861486316462 110.23728127269561, 182.2388035515014 111.72456730841496 M178.92440271664967 109.99670475053593 C179.95424158748898 110.38154288902466, 181.52935933820805 111.0055253548019, 182.41324620277365 111.44096604538312 M181.99545001272838 111.99990126293841 C179.8061329599589 111.97745924264986, 178.4023854383023 113.59292903027188, 176.08020917524334 114.78140507204975 M182.5815879362788 111.87695188875767 C181.10462221639895 111.95543413649453, 179.00948783015295 113.43787734542602, 175.57032726083924 115.42877277701551" style="stroke: #000000; stroke-width: 2; fill: none;"/></g><g transform="translate(5.5,7.5)"><text xmlns="http://www.w3.org/2000/svg" x="0" y="-3" style="font-size: 12px;font-family: Helvetica;" fill="rgb(0, 0, 0)"><tspan xmlns="http://www.w3.org/2000/svg" x="0" dx="0" dy="14" text-anchor="start">GET /lab/index.html HTTP/1.1</tspan></text></g><g transform="translate(5.5,27.5)"><text xmlns="http://www.w3.org/2000/svg" x="0" y="-3" style="font-size: 12px;font-family: Helvetica;" fill="rgb(0, 0, 0)"><tspan xmlns="http://www.w3.org/2000/svg" x="0" dx="0" dy="14" text-anchor="start">Host: bio.euphoric.edu</tspan></text></g><g transform="translate(5.5,47.5)"><text xmlns="http://www.w3.org/2000/svg" x="0" y="-3" style="font-size: 12px;font-family: Helvetica;" fill="rgb(0, 0, 0)"><tspan xmlns="http://www.w3.org/2000/svg" x="0" dx="0" dy="14" text-anchor="start">Accept: text/html</tspan></text></g><g transform="translate(5.5,67.5)"><text xmlns="http://www.w3.org/2000/svg" x="0" y="-3" style="font-size: 12px;font-family: Helvetica;" fill="rgb(0, 0, 0)"><tspan xmlns="http://www.w3.org/2000/svg" x="0" dx="0" dy="14" text-anchor="start">Accept-Language: en-ca,en-us</tspan></text></g><g transform="translate(5.5,87.5)"><text xmlns="http://www.w3.org/2000/svg" x="0" y="-3" style="font-size: 12px;font-family: Helvetica;" fill="rgb(0, 0, 0)"><tspan xmlns="http://www.w3.org/2000/svg" x="0" dx="0" dy="14" text-anchor="start">User-Agent: BrowseAll/1.3</tspan></text></g><g transform="translate(5.5,107.5)"><text xmlns="http://www.w3.org/2000/svg" x="0" y="-3" style="font-size: 12px;font-family: Helvetica;" fill="rgb(0, 0, 0)"><tspan xmlns="http://www.w3.org/2000/svg" x="0" dx="0" dy="14" text-anchor="start">Content-Length: 22</tspan></text></g><g transform="translate(5.5,147.5)"><text xmlns="http://www.w3.org/2000/svg" x="0" y="-3" style="font-size: 12px;font-family: Helvetica;" fill="rgb(0, 0, 0)"><tspan xmlns="http://www.w3.org/2000/svg" x="0" dx="0" dy="14" text-anchor="start">species=452ion=AUS</tspan></text></g></g></svg>