<svg xmlns="http://www.w3.org/2000/svg" xlink="http://www.w3.org/1999/xlink" version="1.1" width="571px" height="239px" viewBox="-0.5 -0.5 571 239"><defs><pattern id="rough-8436360998983173" x="0" y="0" width="1" height="1" viewBox="0 0 100 100" patternUnits="objectBoundingBox"><path d="M6.223240065010255 0.6913747043960905 C5.255328586050487 0.9368255090598503, 2.8021081367788274 4.544824956766476, 0.0005817577824851483 8.62134724190571 M6.293456857857196 0.028980388607034335 C4.6182283162013515 3.2154458988779604, 2.1149195281632656 6.039783548506779, -0.03575402322267757 7.831740208892429 M18.01678936839837 -1.0678850469545518 C14.986880675355383 4.189345386271826, 8.399825992323596 9.814594113684212, 0.575747007011338 19.121031589830878 M17.177265572356042 -0.2119365587391644 C11.669589253412028 5.844520281929633, 5.908484096997938 13.499354928490412, -0.35429478314524454 20.28266154040277 M29.940534068571846 0.8441344511588689 C22.40249055585328 8.802296796262493, 12.98860758981779 17.455582036310837, -0.07994362948447442 31.815694756106453 M27.488356778849255 0.3048174840087725 C20.88519786898881 8.24173449791094, 13.100160791857357 17.272746605792722, 0.007637062782182458 31.710863254754194 M39.16980701019386 -1.5627564675932017 C29.54634037416924 10.85998432931535, 16.171559087601747 25.305595680499863, 1.2111311687791746 42.78164295246824 M38.59978821390159 0.8428784153464512 C22.477244037228683 17.05783054630371, 8.473242424597403 35.71311262818267, 0.4309843815888148 44.465562298766955 M47.90407148947322 1.695032458248475 C32.87911604926261 19.151699408871675, 14.526509439191042 39.603257775192425, -1.286061016093048 54.65934570850115 M48.421905827313324 -0.6806594637335981 C33.81873068285505 17.321008162395525, 19.1808781160548 34.96949855778223, 0.17405070471952255 57.16946488198968 M60.58831867948759 -1.8859631460640154 C43.3601458634595 18.077512059109157, 27.08956582367315 40.55035662963779, -1.8039197021797815 69.49327551650765 M60.53608925759664 -0.3983197808173755 C45.01606507297782 15.675104855963289, 31.016945386811837 33.17966111101044, -0.10015025374492348 69.01208033748456 M68.66220401845494 1.4905366385764163 C52.11406797784877 19.177378123188028, 36.70010373562492 40.065982083567235, 0.25991036131863865 82.70131312689644 M69.85804083911914 -0.4447512878948099 C46.54165505604923 28.059197496166473, 22.593873596252184 57.0805783168754, 0.71905154533387 80.55779558162007 M80.07631610756616 -0.45389364732723436 C54.80407139213159 31.012818669053285, 26.589218094969496 60.806273652085125, 0.09459963158514029 93.4313624715248 M81.2380970912846 -0.17746645303118713 C52.28745518879881 31.902904522882242, 24.703062511000997 63.984913003484905, 0.6518469115288616 93.8728759558281 M93.04959948968295 1.9736713958813485 C57.2131735245883 38.5203147218267, 23.625780618959578 77.39549108252808, 5.569307456698056 100.70704768638552 M90.98551882547909 -0.8283953496515344 C72.31363414482844 21.691343682759104, 54.905182094260795 44.09056003162751, 5.392861695252085 99.30655843331053 M98.88311735052687 2.357009021068248 C75.77059964748081 29.33998466361192, 51.05247635610671 56.64837337353722, 14.800085085254736 101.0050328411062 M100.52388110200621 3.0942677064475075 C70.03633488332508 38.08157923207996, 41.04654870437709 72.20886615981232, 15.619746816501412 100.8443614206336 M98.90873076737441 13.574661460905395 C79.21545487819273 35.195444340106505, 61.019368356595834 56.91739046632718, 26.797502815772134 100.81912098722535 M100.53217500179043 15.289187337613239 C72.33648376453984 45.68256745748966, 45.55919633428559 76.74539895913759, 26.741663973928894 99.0426492540396 M101.24766270859433 26.25721209768308 C81.8277328084017 47.48463331926392, 62.30016638145494 70.0196409534668, 36.915631754562654 100.92068311786635 M99.88967922942611 27.841068789320097 C83.75536421247288 45.67831806714877, 65.91548176105837 63.751986928404314, 35.49784116601758 100.60222911814063 M98.34229498316509 40.21561360085194 C86.68367437887736 57.51658632238684, 70.6061839628152 71.84893940901462, 45.459407516367946 99.38755741692563 M99.82446282930411 38.59916854800548 C89.12118788612914 52.29313859738375, 77.9493721076241 64.13548470896585, 47.2978501587302 100.46362752764679 M99.70310392187095 52.55724811636802 C83.25222873070246 68.14378469193046, 71.04868802287166 87.0235413337356, 55.85932278863549 100.03089554491085 M100.73723754363128 51.58392958417619 C82.8995783931203 70.03928260459345, 67.27351862786504 88.67136705664035, 57.75495336596885 100.13212341005352 M98.62652695089098 65.11745714747059 C86.94436265362741 75.55359696423295, 77.19953441306643 90.29219980234062, 69.36783998063791 98.47008701052793 M99.79115590347001 63.361100751596354 C89.77319373793276 75.55455021450068, 78.3095593829672 89.04363322730664, 68.15563998581385 100.86630189831399 M98.64332440942412 76.98322542195535 C96.93652490848217 79.42307684613107, 90.07465941242197 87.28581089053621, 78.20871148463435 100.19452999330032 M100.65460275277451 75.70459792817117 C93.57182169514883 82.90940948993031, 89.37725767112556 88.15673000515018, 78.14228370773365 100.5705979280628 M99.19878261147367 87.91714033544002 C99.00113230095465 90.91893438498984, 94.93762536041822 93.19934800168798, 90.96677645278791 99.08038834450228 M100.545777684502 87.94966537827507 C96.71532119701193 91.25646520724571, 93.32192126405717 95.3182682106437, 90.1345835909501 100.70190942769561" style="stroke: none; stroke-width: 1; fill: none;"/></pattern><pattern id="rough-6840365820161949" x="0" y="0" width="1" height="1" viewBox="0 0 100 100" patternUnits="objectBoundingBox"><path d="M6.22465933804781 -0.9928645058772603 C4.56957550873631 3.338197538992513, 3.1374998179778086 3.950879950384911, 0.35136280060055314 7.585731733198462 M7.131395615375781 0.1926160430460402 C5.483695700874914 1.8019769914200325, 4.295382017902435 3.394020710382641, -0.4061712538843463 7.476982307146352 M18.69454138033734 -0.9070340010221338 C12.010727469946552 4.896296480552922, 6.295866090208434 10.951877100529657, 1.0237253494626355 21.48076035568365 M16.855333265089506 0.8180191187789854 C12.337893104986476 5.152356128563271, 7.093743700231276 11.629537267206548, 0.669950636250249 20.96180074826293 M27.82398951068152 1.7589600681823567 C21.09984410891856 5.972018710859237, 16.407531265493358 13.842889017111025, -1.7604173659824376 31.30365092567416 M28.070722554092402 -0.4174068707593226 C22.031318794446825 6.740859571401449, 15.88518923914338 15.449661379333966, -0.570000907938454 31.643532831916616 M37.157673556726834 1.237605480363066 C22.95083079993188 17.44788156677629, 12.260338121652094 32.92142768381243, -1.1528198835719712 44.89158907876489 M39.560094025610546 -0.9474409650175599 C26.064221518989534 13.388913523755221, 16.477631339505148 26.104223098053037, 0.2680924055515006 43.462596519803945 M50.79176813664138 -0.9909011410516042 C36.49865434212951 12.326925071110097, 26.314248410780664 29.322968728307004, -1.0478943649822465 55.03978763286646 M48.93261665729623 -0.5682880623626958 C37.29908737979727 14.858092491652432, 24.60943663968666 28.789177801288186, 0.44769617280295115 57.56398448902421 M58.30353529548411 -1.700805669949184 C44.03331955940205 14.085058204125158, 33.24601212228991 30.78631795673965, -0.7469622739280268 68.60013457723066 M59.57743220632671 -0.8016645565331935 C36.18044095228767 27.04291497145754, 12.8931733594582 54.21723376505393, 0.9737129292922453 67.87232087119754 M71.6185521481563 0.12077056624135363 C54.390828495396505 16.861528713847413, 36.75627546391996 35.48640519861339, -0.22664757070270536 79.0603225388103 M69.49828197376864 0.4807934290191769 C48.237764114181346 24.5315021806963, 26.63744625368346 49.263517453422985, -0.0804177951397973 81.68948782188177 M82.71343744036486 1.120964399581502 C58.52034416907553 27.034349656102226, 37.557989200644826 52.17645990114303, 1.7721740947008957 92.85332291652078 M81.81568578046978 -0.6766134398641768 C52.89634387478082 31.08814213405755, 23.915532216816434 64.4737632141634, -0.25620490251589834 93.1100970881951 M91.32763681520673 -0.7769784664201183 C57.657086382896416 40.82799555332551, 24.014131718415204 78.04598932655823, 5.434798075784086 101.58115221297376 M90.63552814627636 -0.0003402437353234866 C60.717413313850535 37.19589402642225, 28.19377773777373 72.68439433974847, 4.066803597750816 99.85288284028866 M98.94298318201916 2.5376648929444796 C79.52523882074604 25.99533991331257, 58.74249679169802 50.29965989119394, 15.74508726188283 98.7861494018818 M99.68293872617306 2.0262359287327 C78.28681215704522 27.040632861057095, 56.41812106735885 52.95920635120025, 14.786267025853057 100.72416557587195 M101.25059880580244 15.866949706037818 C81.98538792451755 32.33975827209967, 65.88017138616563 50.75804711695809, 26.9322361607995 101.18497127276852 M100.8150794958046 14.762305107858543 C74.43602404026487 43.631804806810635, 50.61433445768735 72.6305115522898, 26.001277782371734 99.51066529085298 M101.26229183354012 27.94749039935421 C76.28272015476843 56.08980800501547, 51.1215457942844 81.4230711082289, 36.26573291243129 101.09521361777446 M100.5563186315833 26.77822873274106 C87.8524091708484 41.548325336475706, 74.0257013321545 57.73360025567109, 35.54368136681448 99.75626870197209 M100.81887913116176 37.77574340353924 C85.66679947193629 56.94324133571104, 73.0383428414863 70.83660072222781, 45.66454966751076 101.54624908014804 M99.80170119008325 38.458986010936705 C86.84717391034566 54.46172637442576, 73.09502173024477 70.78543539171564, 46.55059400256828 99.55736929358156 M99.41174332970425 50.255268013788424 C91.07795944789225 61.12115743361876, 81.50837499977017 72.0037405254303, 58.82847209215244 100.91708042850617 M100.41839189597155 50.95984522995041 C90.09657378062475 61.978708084710625, 80.78643628309086 73.01412560200608, 58.232539297702125 99.72916953646693 M100.01513778638387 62.58199855329165 C88.61411781354721 75.28131585160507, 75.23859055405462 91.57023136942492, 67.98067089117134 98.99742766341313 M99.15485165327793 64.32236022068027 C88.45213730133494 76.0337733256869, 78.65405502554619 88.93950972460927, 68.66045479063933 100.31926434781023 M100.30068586412699 75.67936008172846 C91.66285401911655 84.90777338809484, 85.19548174702003 92.50881409444241, 77.00975273799776 99.1815153370184 M100.12992893589502 75.09531148231353 C93.49802336052045 81.62158121214539, 87.2091950582506 89.42090920137389, 78.99031153836692 100.86412813842183 M98.881881781109 87.0437788347816 C96.83180860783692 90.36398547450557, 95.94892788148402 94.0084951114638, 88.59410442041269 100.71906597936287 M99.57415371338459 87.40288991898012 C96.846319345396 91.37119609531226, 93.30097863612951 95.01806257646494, 90.19905773852636 99.24818067529463" style="stroke: #000000; stroke-width: 1; fill: none;"/></pattern><pattern id="rough-8188961155336123" x="0" y="0" width="1" height="1" viewBox="0 0 100 100" patternUnits="objectBoundingBox"><path d="M5.96452063041655 -0.3778074694042668 C4.086523375218539 2.04558161554145, 1.6275027237643807 5.0251220388413484, -0.13289345888396675 7.495826749606861 M6.411946496325834 0.011235233526004085 C5.4696348195166555 1.5423181835885127, 3.0920284098049975 4.11529976721165, -0.08159416893817795 8.231993998740869 M18.951919431554767 1.2678379897535033 C11.974483349002538 3.898455841497719, 7.397989261258722 9.67232575776538, 0.5689943882446178 20.764740649498375 M18.093262404138194 -0.4704642522177216 C12.725849901453135 4.191624777167983, 8.968842017514522 9.13741133102929, 0.2175223567236677 20.322832896342085 M29.462276629303233 0.9091582406510286 C19.745375413794367 11.782643016020087, 10.885630680241107 19.061301659954474, 1.9990268545836472 32.04459422035064 M27.181003803873516 -0.09893163166703145 C22.182994572422416 6.0695733015886955, 15.258135007707818 13.904980918775205, 0.40457439453924104 32.439887846308324 M37.77526278141578 1.9502461008459484 C26.91914850475792 14.468587925510972, 10.59987410981081 31.676538660439164, -0.07689260529120823 45.025648910528105 M39.337023107444196 -0.12469464929070195 C27.196505732395146 13.67850764894246, 15.09657990139264 27.333705546507524, 0.8333042331452942 45.17119262737517 M50.70596155952036 1.8780372358860715 C33.699853772456834 15.9104759318199, 18.642624074660837 34.243371925627656, -1.9822897739367589 58.301573089488286 M49.80715113416104 0.02518806339776125 C35.69797395125977 16.025953327034518, 19.86137734417145 33.14313019011973, 0.49751786067213244 56.59723407092722 M60.741243197222076 -1.5583619405144642 C35.03541758757236 24.947521140368128, 15.444478212589829 53.36487914414061, -1.1612738706766201 69.47140769500986 M60.0551667018345 -0.878384672408858 C39.73966203926658 22.093749639446155, 19.51038235561816 45.144467203631386, -0.5266149599419521 69.39093644872725 M68.60475635599776 -0.5947001930056102 C50.20454226488992 22.334201804134352, 33.18751138191769 42.009400798753525, 1.7193649309043808 82.6654778580513 M70.78318878571142 0.07763520186248973 C45.51125063549967 28.818003504668305, 23.161454817397907 54.32947573995664, 0.9023062844688812 81.91668129553167 M80.3607835590493 0.6198223361688759 C59.64476935134337 21.41342237858665, 42.430346295771656 47.39076210143248, 1.3744973908812907 91.6553011182878 M80.94084678038728 0.9407949739533574 C52.48146939877056 31.728446282067743, 23.847579514369425 65.49431918084767, 0.8799179601162535 92.57313742802774 M92.24424302772174 -1.9925451243893697 C60.37594510531519 38.09865430268548, 28.642341636761543 74.44304688367836, 3.1469415457658343 101.5785416187964 M92.1146608441086 0.6364221183419145 C62.89590265894375 31.165286533228333, 36.49104460556505 62.446906551382575, 3.8814723506904127 99.87272262782454 M99.9822436925824 3.991546894339834 C71.59002880009797 37.418100495440704, 40.31899778013821 69.24895707165665, 17.17896571803832 100.507175004497 M100.68928794574286 1.6171627058228744 C66.72245863179627 42.08226944310629, 34.9434922851279 78.94229990509326, 14.790494775288192 100.01792148326719 M99.77362131194931 16.262288071506717 C83.3141055509355 37.04781460730882, 63.75551118175405 55.983798510801336, 25.816587948259137 101.57641196864957 M100.16223890892027 14.161849734051895 C83.98685981284366 35.06225982562694, 66.50120249307838 55.62810998800176, 26.564291870397454 100.26334565199105 M99.11392208530702 28.204025884211223 C73.96373455389869 55.8510147011628, 50.18002283437478 85.86205279425275, 36.30266367401583 101.3162540989469 M99.86663483909082 27.726325747948795 C82.56366758594133 47.01440335938484, 66.5260085464182 66.07730721890158, 35.95384514179158 99.14757101865959 M100.21222652276941 37.12928893185959 C85.58279475695971 57.125408868569714, 66.54086375030901 74.95215464412112, 48.34287353423076 101.39239798557678 M100.68437539822865 38.14973994790451 C83.53114756674402 57.68121091016274, 67.46312349515877 77.76333127787692, 46.714593164620425 99.56245468820632 M101.13392524373032 50.91560203050469 C89.58217372419747 61.74923457027921, 78.49653013536319 73.91990946141912, 58.07607997871337 98.78989826956095 M99.37095671990244 51.56694231956262 C91.86365331720751 62.09493588998871, 82.9798341260462 72.00713679197378, 57.57572172134337 99.72640478155034 M101.87347631000179 64.61079490260447 C89.35006844206643 75.54559752832994, 78.03460631378027 85.47038103411563, 66.64249438615904 98.48865225606195 M99.84937087546369 64.20918794505477 C92.08097474376237 73.0469182565795, 82.27810344177054 83.95630233219643, 68.06156140379173 100.30213164881575 M100.11414543675448 76.23056356040925 C95.35400645405875 79.85034510542962, 93.19293698437849 86.56464242247719, 80.4600687284946 98.164260798003 M99.40608435676405 76.00768548150918 C94.62219307771039 81.45029680876992, 91.4399044803225 86.58509814187457, 79.09749782803927 99.15581698248938 M101.5402386486177 86.54603142057886 C95.51199551144711 93.83004329946755, 92.68721971942637 96.1360134559988, 90.69378309299182 100.6966737709173 M100.27322072683307 87.8052780986956 C96.1526541739816 91.53069447648642, 92.69641504260784 94.7924113040575, 88.86834193432293 100.07297364221915" style="stroke: none; stroke-width: 1; fill: none;"/></pattern><pattern id="rough-6966239631548031" x="0" y="0" width="1" height="1" viewBox="0 0 100 100" patternUnits="objectBoundingBox"><path d="M6.669812022416551 0.28994692735586014 C3.9602956732094086 1.617730088246713, 2.9169777877787917 5.223677904320538, 0.8646645742683776 8.512127489082738 M7.108326211463895 0.3191746417821867 C5.07955062457987 2.6831001716233898, 2.943637522732817 4.64041104347599, -0.10785644066400885 7.793808347280919 M15.456344470318882 -1.4395943182465682 C11.116023729229186 6.250752334683932, 5.851997531793489 12.539876816685156, 0.14936854267766897 21.559152368271842 M17.83559812031093 0.5448599000565704 C10.371470920793715 5.862703457137899, 4.468217861197378 14.186308912697438, 0.5715222964112945 19.59007258329601 M28.02930306048689 -1.2306173439510353 C19.176302452223183 9.119715158759739, 15.345550843404451 15.565824886952852, -0.8364834203231801 32.801892300679455 M28.221927437679494 0.6717447929547999 C20.712038171967098 6.900921444736275, 15.477859676746723 16.3166020765601, 0.6451177070413938 31.99153792941305 M36.873783023281135 -1.7182252363879353 C30.210425944439383 9.215506964762271, 20.702096963242173 23.18212789998588, 1.7960823358071423 42.446203049423275 M37.614314594799154 0.9265393365278478 C25.57018302569473 14.499514732453838, 14.103373804089497 28.106063861342683, -0.6563189919310872 43.54289916974403 M49.94384256272162 -1.579892779569704 C37.47036471021894 14.076746323924198, 21.839870911191444 33.05460121882668, -0.2017454672067025 58.483865506218464 M48.802960278886644 0.05510665327383624 C30.398054788626002 20.64094393836829, 12.77561374635022 42.85123752961159, -0.6263231598360224 57.086997424590315 M59.73955726682023 -1.0290206533234727 C39.31945700090734 23.75885454366559, 18.297568311873835 51.087745104188436, -0.8651318038897244 70.3055689622004 M60.631481373413116 0.8718747321285458 C43.980093092924704 16.375180801226744, 29.614846712176938 35.0299833945647, -0.5689639905198969 69.78132185154676 M71.93037782771086 -1.6079190384857087 C43.8841895838566 30.096473337637384, 18.521318365532387 60.31766310301186, -1.4689839437021135 80.36955693647415 M70.04389359743026 -0.14853434301032298 C46.57294849243494 26.549452507855275, 23.442174181528607 53.74062378623638, 0.10610332923526844 81.18207945998985 M80.30927636160942 -1.603238441028635 C51.308909459256164 32.62998715942601, 26.31533228422892 64.89768575947738, 1.0548674963873363 94.58189526609702 M80.5224386038026 -0.8757828943746038 C58.46938964144941 25.936953799411896, 35.86433609280516 50.46790052582356, -0.07052818448468967 92.40557647905486 M89.71953691590562 0.04977993956171911 C70.55187686948535 26.304442861153444, 46.489590546260075 52.59489312995224, 3.707021866587251 99.21232053985175 M92.07075725454335 -0.38209194006932945 C58.24309619778406 38.589520343938055, 25.48538531438247 75.6511480640518, 3.8891283190960664 99.08729606904913 M99.78904049851381 4.299010449031526 C83.27853594280981 24.988448257703297, 63.12654871571451 44.227502741233984, 14.67369477785121 100.8179947581738 M99.27849679388386 3.4812625278908653 C78.0485468285551 30.780600511982207, 53.086656513342355 57.0177866434849, 15.615427275953724 99.62602773737652 M98.02405311357002 16.39634092623267 C78.84383380080558 40.80558949826022, 55.143373516718434 64.81680709921653, 24.723592311773725 99.83707881881843 M99.40651169912475 15.59376873622373 C84.01939902641077 32.95944934907427, 68.05737254310773 51.273924923271444, 26.08766210352834 100.66009984742122 M101.33778923595055 28.279234177202177 C75.83378462026356 55.47527137198773, 51.820819293858285 83.43638180151662, 36.75555748833725 98.66747586510364 M99.67943819313874 26.444944268496705 C77.08798158746335 52.00109045096894, 54.850927021269456 77.61504813968718, 37.207719638232525 99.11269039928604 M98.41651852099272 39.93009616486018 C80.98354910223703 58.10513048169878, 67.33981940102593 79.32809533075435, 48.84383725527312 99.42412237137839 M100.69570498125834 38.8296553676866 C87.26972799329351 54.550392215920475, 74.25066092290501 69.42893723939353, 47.473887840329176 99.97409357343217 M98.41325646928381 51.983256714161755 C90.55631495904296 63.41409685619991, 80.53403247316281 70.5853232398141, 58.110730747140636 101.18328484555968 M100.36482758997522 51.63638409857855 C83.65857968493334 69.13120109413289, 69.16861349392879 87.06668079446621, 58.636413272393014 100.93665502433223 M99.22660107441146 63.77264365409906 C90.23001744332691 75.01698719149887, 85.04916802165657 82.86987399845673, 66.55075952386333 98.75516546896063 M100.556063392488 64.46622877939049 C94.82565326176993 71.37093174139449, 86.90402807461942 77.53020530585974, 69.18082914060112 100.72681520075851 M101.5672118698473 74.32005051276928 C90.83851633127937 85.13779280182854, 81.52371805814944 96.10408212511007, 77.29314773335265 98.97778504197905 M99.80808237536361 75.98690437519899 C93.12142592263787 83.29049735649261, 88.16965559835798 90.17562856708457, 77.97766206745868 100.85413346752745 M101.27375760328957 89.09040645404735 C96.92706794138913 92.66292861554204, 92.45159423345704 97.98841854595993, 90.9700576486669 100.22075979626709 M100.55619077328603 88.07515357166994 C97.44234209119816 90.76816068875533, 95.21885896648213 93.41000896614354, 88.83287271082632 100.51221859113735" style="stroke: #000000; stroke-width: 1; fill: none;"/></pattern></defs><defs/><g><g pointer-events="none"><path d="M9.197526800557307 33.84091931866695 C9.27079966293778 35.07668962831009, 7.286459465938593 37.341394965614704, 3.9647137350969066 41.396401572565246 M9.610200319203667 34.05068557830838 C8.459966019223268 35.16203869896141, 7.643667629011995 36.6606371728893, 3.6419594759492413 40.32945793548541 M21.95120746407286 32.883147624922344 C14.214925248205375 39.77540211603062, 7.822465701684609 47.01371789960015, 4.450795185733341 54.059664381883536 M20.096526822575385 34.26070920386845 C15.164934281694721 39.2847474312448, 12.89185686173511 42.89256259635305, 3.0350515684577637 51.923881184822854 M29.991776701552773 32.84844983091017 C22.84326846634465 44.18828587951847, 16.774948380808276 52.15573862694736, 5.415729642931776 63.79446959663252 M31.694556838699842 33.23910107619396 C21.812717452423907 44.775173571135824, 12.87794772634583 53.67874399366807, 4.940784142773012 64.66057726828085 M40.30722013573203 35.43716480118111 C28.853513596814626 49.49856228778441, 14.62801679297532 63.65470905027701, 4.717943178631302 78.2312234101928 M40.56353804994282 33.17221610676276 C33.98170459850798 42.557404656233594, 24.51034613273508 52.13880320539321, 4.630186170044729 77.76126811345253 M52.319164053956904 33.48156754681181 C42.615693174693774 45.684767478699435, 29.956752475231255 55.325132748560016, 2.900563098269491 88.09231146070728 M52.4924915338226 33.43085438938714 C37.99244661785305 51.40842823842075, 23.723483078138024 67.82780006358968, 3.943884613792733 89.3588427108066 M61.67115898956229 34.16766969696902 C50.67068767222436 47.08838496112731, 36.75690176134344 61.72832652748298, 3.927706911540282 100.1458990500138 M61.7874332170652 34.49810585504303 C45.07096301949653 54.54421732561529, 24.974379613751115 75.97633777584075, 3.091936788198672 101.40974819967231 M71.51224434679382 32.19426520898508 C48.58267201513234 64.92783723103823, 24.698063371696527 92.01848333231443, 5.927049400216412 113.81893819084954 M73.0656516129819 34.14391350464678 C48.85749877397448 62.65754446703001, 23.307870247345438 91.78487829627844, 3.7103566316669863 114.06106729875525 M84.90156158953016 35.495827270383984 C59.61960537724361 61.711565604160995, 35.21582357230138 91.14173799282982, 2.849904428060481 126.94861172206033 M83.41643423136215 34.619316474700746 C61.81832344526415 59.56501724527698, 40.348290674776976 83.53810345655754, 3.1368060223581717 125.62190179417084 M94.58065757131624 34.60666926902137 C61.93613142638748 72.96513792672607, 28.71202787657208 111.76427215225702, 5.553021367451394 138.2864032059258 M95.04658329955176 34.595124609624165 C69.62963184172911 64.4009853052121, 42.675549179424685 94.85828595760265, 4.884413293908246 137.61077924068633 M106.14513817525797 35.80567841348315 C74.6074997120182 67.60992846996055, 44.31756463114657 105.34149251725503, 5.8447534663105465 149.94996865527548 M104.14158760265185 34.7407494015151 C79.55407841000414 64.54123915904748, 53.05623850487028 95.18110822337881, 4.028556656859806 150.86583882591043 M116.863232229643 34.64543356970913 C89.36493199648466 62.394560986873884, 65.82517411060086 91.53766772045219, 5.023594476384023 160.71423005370684 M115.14385795691739 33.62511412528946 C71.21840209205003 85.38589143637866, 26.731358703503744 137.34385674245047, 4.3147121325072195 163.51318046815564 M126.78263268992576 32.59619158283202 C101.25790261338459 65.7309931086724, 75.66328182768122 94.03936903447716, 4.279856743804067 176.0595476718772 M125.46203075543224 34.77679748731314 C97.71744726812499 68.57024830407066, 67.1041592925438 102.27205763015935, 4.170248071615164 174.48389466063423 M136.08587302695932 34.0175757130211 C102.81685509839814 76.03250011489858, 67.03410681036024 114.71625361832415, 2.4874168582422147 187.21361209102722 M136.03982075967394 33.724898583372315 C110.08219821371023 66.61231853716801, 80.98072521455813 98.88983564399041, 4.798955290015999 187.6713117689251 M147.16672332016876 35.00032432714683 C113.48169079893393 78.63781445532928, 73.40741213588971 118.95193701555365, 4.119459565151619 199.18994008595604 M146.5960570900888 33.90137382616347 C114.40753696683244 73.03552246665504, 79.68889847893945 112.92284144819543, 3.862014568051922 199.46673602351052 M157.97610226456794 32.83437380951962 C116.1548444926064 83.56566079197819, 73.12304879118088 135.4246871336274, 5.1007421996663265 209.78944197607072 M158.58785468579612 34.60752701520822 C129.07401442321904 72.04936702933283, 96.00281582519115 107.81567726215486, 4.483858478430692 211.06219247457278 M166.65257748237684 36.65237844569117 C117.12207048968557 91.92685108631831, 70.4699579651677 144.40787078878787, 5.735701590232085 224.63586571523894 M165.37740775829747 38.27903477624725 C112.0823336761545 97.54625036896624, 59.73331358852817 159.40448123105102, 3.7828091820839465 224.1317666855417 M165.88196306615635 51.38742554190747 C115.58844440339078 107.07212721707774, 70.03480037888775 159.1807309750802, 6.869318017258902 232.50197068807955 M165.35076415834277 50.24272104226486 C102.48251068303213 122.92893664969607, 38.41791220783108 196.71858836869004, 5.01516804941679 233.25531419980402 M166.36948025487035 62.80133696097336 C118.09157633764309 114.53827303167384, 70.35059246824484 170.7352718558191, 14.345698006366035 233.62912231338285 M164.84677538608676 62.660899182736415 C124.87723252545153 110.06431854064829, 84.80139261820034 156.57723763603107, 15.078547640152745 234.36558497211556 M163.72501727817422 74.3433247612873 C127.67534591072874 116.26734924111923, 92.81261428552646 160.13516782773857, 28.666953374034534 232.18717027545122 M165.48313987681362 74.617297194869 C117.61913737607834 128.1863757245149, 70.29480181749831 183.65513758698864, 27.002880374481585 234.50567289641486 M163.76858139914825 88.40365447942166 C119.26749072037876 138.02290932096523, 75.78651308154645 185.40346615968846, 37.98165829094186 235.51481744707576 M164.1427614387239 87.6569971430811 C132.78917546276125 121.2777276022268, 103.2992940508494 156.05748825138278, 36.59134144379195 234.16955841181357 M163.77501703516873 97.71606596627144 C119.40311413435903 149.87804685251206, 73.8782937147316 201.22946901149405, 46.370088982518006 235.52560328347676 M165.16275427296625 99.58057110784061 C140.09599672636492 128.37102562927282, 114.15109646178173 158.18373102797923, 47.410692383868 233.4995671419332 M166.29897713025264 110.52114476409865 C122.1516324542253 161.4249424382607, 80.38429404735271 209.0990640747148, 58.62374446557431 234.8034090317426 M164.98881160333065 112.32902455951304 C136.1924968222299 145.88184369196512, 105.6698742992798 179.31605101091, 58.75546288462158 233.94827510855356 M165.05050454152627 123.06830603761631 C136.438011932126 156.8926164716136, 107.85332557317885 184.602462588066, 70.61940716563068 234.42419518796166 M165.050819348128 123.53055813401167 C130.30209924167835 163.39848691958335, 95.01704202610595 202.64322269181446, 68.88522219377793 234.60161393450798 M166.1776490643404 136.30876245276605 C139.45812564858883 164.68861351667636, 116.46339584890954 190.55716725361205, 80.2654109203979 235.1275357475605 M165.6720774431268 135.90648871341588 C142.03602385477055 162.89317890106423, 118.35713990274675 190.34956611838498, 80.31602137476959 234.8258277173605 M165.57275861036638 147.40428992090168 C146.44683831675607 169.37694335728278, 128.55806588325217 193.4167729202845, 88.43337984643146 235.98076109765253 M165.70905359339818 147.6497998559307 C145.44427608966183 171.66334420110087, 126.13096795036324 192.55632778989605, 89.95111806369142 234.77640574753434 M163.42548972295376 162.0122062084421 C143.91631827551714 186.15017780145095, 120.15235145213691 209.75787743999354, 100.5598147373063 234.08987717757344 M164.90571231918716 159.76941344850184 C145.51923692163948 182.76774463648886, 126.30425802565276 204.9867626132701, 100.77436650711134 234.31419209504944 M166.3373444683741 171.48228201060144 C152.16996490034944 185.25180207815274, 141.6692565090807 197.77936026726735, 111.19116498218676 232.75390380896525 M165.47673613370287 172.84387979889766 C147.87720678493227 191.37013407720144, 131.2892342083209 210.61934378726247, 112.09594415440476 234.26497580854488 M163.64171273934437 186.51878211896096 C152.6732795503384 200.82507253179307, 138.1672991141656 215.5992118050356, 122.88698735579513 235.9975029548288 M165.1050027164093 183.66722933996948 C149.0339452604301 204.2458802350113, 131.75201767313177 222.3612090454298, 121.62309835893636 233.09325075483687 M164.05991646271968 195.40785031248245 C155.01770802160124 210.83223567995236, 141.4234490490914 221.84581306597187, 131.96618374530553 234.01352004612306 M164.43022685917353 197.33673087029848 C154.41365196989992 208.58337447219316, 144.90122221208895 220.1682943022015, 132.14922229193454 234.60399310356445 M164.71900597638245 207.71938272283438 C159.21634018432147 218.16034628642737, 153.41862558301142 222.5861478519973, 143.1647264134437 234.68466544946335 M165.23358605725429 208.94189862913504 C159.7699678498848 215.33974924423043, 152.7155990113291 223.31405258025492, 142.9861184018806 234.30758192762138 M164.52465246954702 219.8310239514042 C160.4341990935443 225.98808746614907, 157.17137136063536 232.48115498538843, 155.30039617888954 234.35552305667395 M164.33231787177965 221.36083322399344 C162.23889814625275 224.8296620423549, 157.5076070120222 229.17869548815085, 153.48082290324643 234.00115718430447 M164.93607899491292 233.44764934975038 C164.7970459097032 233.69061513627085, 164.58629172132535 233.83612313676431, 164.43728970621402 233.94339831496015 M164.9658853310271 233.36751112846724 C164.9071451078159 233.52431384083982, 164.7808592308563 233.70206649072492, 164.48456371111777 233.98094438598275" style="stroke: none; stroke-width: 1; fill: none;"/><path d="M3.014078292592849 32.3063182773963 C50.73658432382522 35.880903644644725, 95.2877049704049 33.30338163522958, 166.51359516850815 33.614609436515366 M4.256158535571863 34.393024216814595 C54.43641575383101 32.85845685530925, 106.66044763938997 32.365631822286055, 165.40415495724065 33.68220686442998 M164.44571923311707 34.35220012702112 C164.30579792882688 103.98385951206731, 163.87463009449957 172.42402529206387, 163.2555215825546 234.17361394997457 M165.03251594440533 34.30009112129541 C164.35261033592127 88.81963866690451, 164.86883167521765 144.35104746508566, 164.75103581941647 233.06629407283546 M166.2579948946925 235.20335391119056 C124.64546593631117 234.14022868537245, 79.74859727881484 232.44967127531294, 5.7450853175395915 232.29639352470198 M165.4895528578636 234.4497019550742 C118.00714466461586 234.54178084414508, 70.09615759865721 235.2809095446204, 3.6946067582517386 233.96586340185053 M5.1877602243819805 234.14526038417947 C4.581035465236506 170.0338965384814, 3.8031499969854625 111.021552974951, 2.245945483997434 33.84523163676194 M4.4920074930874385 233.04625817465615 C3.391140518168433 174.5931062885228, 3.1612753539087364 116.46987724006327, 3.8394396245057654 34.52071449417641" style="stroke: #000000; stroke-width: 2; fill: none;"/></g><g transform="translate(59.5,7.5)"><text xmlns="http://www.w3.org/2000/svg" x="24.5" y="-3" style="font-size: 12px;font-family: Helvetica;" fill="rgb(0, 0, 0)"><tspan xmlns="http://www.w3.org/2000/svg" x="24.5" dx="0" dy="14" text-anchor="middle">utilities.js</tspan></text></g><g transform="translate(450.5,7.5)"><text xmlns="http://www.w3.org/2000/svg" x="34.5" y="-3" style="font-size: 12px;font-family: Helvetica;" fill="rgb(0, 0, 0)"><tspan xmlns="http://www.w3.org/2000/svg" x="34.5" dx="0" dy="14" text-anchor="middle">application.js</tspan></text></g><g transform="translate(13.5,173.5)"><text xmlns="http://www.w3.org/2000/svg" x="0" y="-3" style="font-size: 12px;font-family: Helvetica;" fill="rgb(0, 0, 0)"><tspan xmlns="http://www.w3.org/2000/svg" x="0" dx="0" dy="14" text-anchor="start">module.exports = {</tspan><tspan xmlns="http://www.w3.org/2000/svg" x="0" dx="0" dy="14" text-anchor="start">  clip: clip</tspan><tspan xmlns="http://www.w3.org/2000/svg" x="0" dx="0" dy="14" text-anchor="start">}</tspan></text></g><g pointer-events="none"><path d="M410.07414361329995 34.27710380736548 C408.6666478552092 36.574143091632386, 406.024007995521 39.13533908262319, 404.6487342879627 40.377804877013126 M410.51746707206337 34.145942810197326 C409.37021179809534 35.69175090521978, 408.1878092630014 37.36569631181677, 404.89091608422535 40.334416693775395 M420.364571795825 34.69317538624597 C416.61092248264526 37.63910087475507, 412.7565324745678 40.67664458089796, 403.10959244450146 52.39415544348818 M420.920389165886 34.90020700868461 C416.3465107357619 38.97429797443104, 412.6392613662925 43.30497385068182, 405.28354309746476 52.827063935637206 M433.0754764666307 32.412978349353345 C425.7138589145606 39.91839682367881, 419.47969237907637 49.28575321018852, 404.86690778176137 63.986826998899666 M431.21265255614236 33.45840824675228 C425.21155802142493 40.34280085828995, 419.963471452472 48.193468917972154, 404.4707224433058 65.94587461612737 M442.06355546255895 34.03802442961706 C428.3754296030436 47.59094342032229, 417.00070751843054 66.06176544634492, 404.29125327043397 76.20885354743709 M442.63692269140813 34.90763078211493 C435.1613104845946 43.25289424782397, 427.62276262468527 51.504789467838336, 404.84564547622574 77.19789893522139 M453.03874492329425 35.05715471247015 C440.3997372367599 48.96904686317335, 427.60433283856935 64.09632508671545, 405.41643728015913 90.5544249803368 M454.1083231648162 34.942414276142905 C442.891925493131 45.93584250753198, 434.0786210733678 57.72142063803553, 404.7113349794723 89.50136193075595 M462.3069321929198 32.90068852301334 C443.5457932904636 53.52424533838574, 426.294570804213 75.62577219583636, 403.14502693843014 100.99856561930154 M463.47770859950117 33.97567234753298 C448.1200131299313 53.05741033337386, 432.89219039330067 70.9684010019811, 405.71139130278635 101.52880797552959 M474.150826916123 32.86690803264133 C456.4447780210569 55.739140238507, 439.23761232334545 73.45575709146154, 406.11875417746126 113.27946070502077 M474.6628854361708 33.7493190703176 C447.01024410960184 64.71940203940797, 419.67895816939836 95.8162146165774, 405.0669601537703 113.98004386842517 M485.9731936075634 34.529403965431236 C464.3488853393365 60.29424757143365, 439.3335459029755 84.10351175290543, 405.5692717777896 126.2160085295895 M485.4034668805065 33.023383675168304 C460.5470417697737 60.24665504291838, 436.4297019498779 88.65328775579816, 405.919869057791 126.34738497746733 M495.81969995704384 34.940365586478094 C474.49605394085154 56.6799576804377, 455.95344769053276 80.94138228929614, 406.6228258467451 140.04585109847298 M496.0150042075547 34.388266050502814 C462.29420197652126 73.0630904941615, 428.3450963334821 112.778305040772, 404.30019506787994 138.90158891646507 M505.5024111511388 33.98708244721635 C477.24767548147406 69.88705638043945, 446.50726668321107 103.94605464102185, 406.7203740014608 148.78919381430717 M506.72738205979465 34.885908754512926 C476.50489723303116 68.34439267030733, 445.3037795878975 103.28346109229913, 405.30539820109544 150.4754620677026 M516.297964988276 35.41339084488834 C488.5423159226398 67.94194021829485, 458.15444423491505 103.94332263530136, 405.0656244358063 163.70476801459805 M516.422718576652 33.292032158263666 C479.76804115677413 74.90801178131126, 442.8344129343613 118.16124272184621, 404.677343557821 162.14184762751592 M527.9251772514261 32.09080834116246 C490.6542751330632 79.82424135743965, 451.7578034908965 122.12148444142986, 406.0112552542128 175.5204108383245 M527.1135750331493 34.64607467213485 C479.60409373157313 86.17377136415915, 434.6434440957756 141.00052616115454, 405.36762031146327 174.36014067479212 M536.5090563132593 34.5228266612411 C484.2548226488108 93.38840811010587, 433.9178303140291 149.10676661465783, 403.23285059813503 186.0363188079918 M538.2585212311975 33.87252893517403 C507.1079357502386 71.9666833842648, 473.7279326587875 108.0878665560332, 404.9358811776136 187.86264264043825 M550.003341285171 33.92243072156878 C507.0664647556766 83.57918289065687, 465.67078980803177 131.04696537778017, 404.09705632019535 200.55742055966718 M548.7801047774999 34.864332679480526 C512.5082633829719 76.49089178594309, 476.50568510220165 117.01194674284707, 405.85835280870134 198.4616908126416 M557.8029750336577 32.642369801986156 C505.5413570211708 100.2794462593064, 451.9496361091922 162.73123532983544, 405.64769453007244 211.38285945088967 M558.4971272171094 34.14448211876097 C517.4526729498607 84.26814013917729, 473.02181828258745 134.04584728938238, 404.4068465945258 212.0946046856961 M564.5979826064496 37.977554985600875 C511.4823330821469 101.24413267008526, 455.5617019192765 161.09527581408605, 403.92588008490355 223.43317156446815 M566.0957272888498 37.67171584058769 C508.25022343886997 106.6648225088757, 448.94285310266486 173.91982985311117, 404.0404526432643 224.12653128803169 M567.7211122931317 52.26786067203095 C506.6857003230008 115.27517434399363, 449.6638470799976 182.24392992877537, 407.24124601064557 234.8105644701825 M565.454022022568 50.7711809666792 C506.3727434068747 121.04047026478287, 444.42296382590064 192.26382874143917, 406.67298692550094 234.04300114063426 M564.5406995850284 61.702280215552726 C518.3874951069159 117.1475326282808, 469.15705916098597 172.85077536791175, 417.8271750744662 233.67820204564185 M565.6637882721442 63.02111601500456 C523.2467379284096 113.94463752291374, 479.9563751364985 161.2387949840195, 416.48565035903874 233.16283557866979 M565.4381688247215 74.08701669489147 C523.1984112368477 124.45451685563297, 476.2479364769761 175.08938768015506, 426.88204469863524 233.0229859040605 M565.7474769703911 75.23289543588129 C530.1259054612859 114.76393805010989, 495.8122175151312 154.10401741074935, 427.3361558423691 233.47757667404557 M567.73972815571 85.9319962899544 C524.5575610283934 135.84878155415748, 484.8247590869064 180.08167187361985, 440.2085564530196 232.73553584187732 M565.4789862006245 87.14866337978407 C527.2752601059578 130.40057311895416, 490.8563581576711 174.1946459985444, 437.48574831233583 233.7655532231396 M566.5797929109724 98.27500992323097 C524.4658105834942 149.7123539245124, 479.344093975631 196.31706168604, 448.6396924731599 233.0969928632152 M565.513456802471 99.66214805654508 C539.1165664130405 131.4892447343948, 510.8432041693266 161.61904580315976, 448.71359160751734 233.3922739263427 M564.8574871479711 110.7590924635565 C525.6125646432646 153.89731221579692, 488.85454580338273 199.09271571819707, 457.67410977954415 232.9282199036438 M566.3094590296629 111.32742972048432 C530.2260922361065 151.7916283726748, 494.6734103674897 192.87267621425107, 460.1146801340734 233.56568109211 M567.7377557150586 124.40411113115047 C534.0841317774372 160.66189355068295, 497.2826331450111 198.36090960306188, 468.5715158573013 233.34061211892043 M565.6640153678383 124.62182778765883 C528.8858081638951 164.51143191321765, 492.710308794943 205.12161635969753, 470.40875795121934 233.74689107599383 M564.2326907237237 136.60620055911232 C534.1244768990749 173.8961492628619, 502.9789291599879 207.45553120015487, 479.0299628138598 233.7923705647706 M566.9687506497258 135.25651062835465 C537.2924483495057 168.23934963062877, 508.93301423476396 200.3440116348166, 479.9582166887611 234.98967361916036 M565.1123808419981 149.74416950586902 C552.3266917449503 164.4547933283987, 534.2846055286395 185.13884095305968, 492.99779822648895 234.65450083439228 M565.3298623379173 147.71476751007563 C545.6580160891571 172.34640203428145, 526.2112970277897 195.35683782650725, 491.9111592179141 234.41224818560679 M566.743569149801 160.94637863296666 C544.7541595701678 184.57744500731474, 523.2428009979332 210.4272117178042, 503.39692282415143 234.42894045728661 M566.8068702708969 161.1334731479528 C545.9156390884166 184.27313745122757, 527.4679184737911 205.99296485746225, 502.5038408221392 233.14470417979123 M564.3037361540868 173.75661805521509 C555.3505803957702 184.20170784395225, 544.3084401626998 197.2583262976639, 513.6934427536726 235.46407613188248 M565.505627934842 172.38347740908202 C544.8152994600113 195.8698316840765, 525.3055469366326 220.96718595991345, 513.3454336296974 234.04146088149645 M567.2149039569531 182.68016181850456 C553.0836167915204 198.81866329445083, 543.0667606214506 211.337316787749, 524.9752377049011 235.01441152112537 M566.7102424475411 184.1661073767011 C551.0438830136742 201.56894896297595, 537.4210064224235 217.86507133978765, 522.9039938155566 233.91484130926443 M567.9539735717743 198.53180964660788 C558.8298677098154 206.9938830397367, 551.1132205431455 212.2070281834227, 532.7425199548225 234.01558421540028 M565.1654048561661 196.84472529157938 C557.1128097832823 206.32543440788442, 549.3955584771168 215.58551285057376, 534.3610623669624 234.95250429648087 M565.9521249229216 209.46792389897027 C559.3025377567425 215.24926530360455, 553.8729740449384 226.14317807409995, 542.6203045911263 233.86555729168077 M565.593413427382 209.41012652469843 C561.8023001971206 215.3948582036246, 554.9403638945149 221.0848691393252, 543.9293271487645 234.06834394021718 M567.2473690570259 221.39282821535832 C563.9154373474274 222.11313670248725, 562.772512415802 224.94700829146578, 555.4530683113906 233.88911088084924 M565.2964038387042 221.39758632424494 C563.1339639947009 225.0120514448703, 558.6601521416777 230.29135932486443, 554.3913626521197 234.68924394133117 M566.0228335189659 233.4589779918076 C565.9075907353695 233.59980531744216, 565.8209057002715 233.70805394100688, 565.454150403707 234.03305669712537 M565.9633033281514 233.4352425746122 C565.8498198871639 233.58919606620566, 565.6186437478276 233.7814082976015, 565.4570902990185 233.9875463320362" style="stroke: none; stroke-width: 1; fill: none;"/><path d="M406.48767925722484 34.29992934946534 C455.61591652246915 31.843326459683354, 504.4131575971956 31.978947733579847, 565.0280708349404 35.66916930633338 M405.0630242585662 34.884166998349116 C455.7897610092031 35.04908665495759, 506.1516954671313 35.21912504169775, 565.3764742010826 34.531404614106364 M566.7214309912614 32.42705876378256 C565.4142207130376 81.98485066472611, 565.964567891801 131.96391209798173, 565.338514467452 234.31884383869064 M565.3810629998616 33.07382748015283 C566.5127357097213 81.42262653645983, 566.1700680048804 129.28503258641658, 565.4898837744779 234.12930485659962 M567.7321539828562 233.09936041866905 C522.4153017072778 236.3081493980139, 476.37756946568595 233.34818245631584, 404.3491546371585 234.88026405329242 M566.946347810948 233.54363746258807 C503.3495121780999 235.21887534442666, 439.4496697124076 234.73607164864256, 405.38623305917935 233.53956507851947 M404.87927656982134 234.7892999697502 C404.9862507581527 162.6182560197196, 401.93646911686005 94.77998799749382, 403.3877379547101 33.25192303042971 M405.99844706445106 234.20805645325976 C403.05485047608227 167.94648726963865, 403.31109221245015 101.56607178048455, 405.08026525037656 33.664176007369804" style="stroke: #000000; stroke-width: 2; fill: none;"/></g><g pointer-events="none"><path d="M209.3546721048532 104.30831226272063 C208.79690378819078 105.25180480851824, 206.6116014362353 108.59800943616357, 204.91861327682608 110.97465023447728 M209.69139903813704 103.64997962546322 C208.480674583351 105.85731800096598, 206.4825569346089 108.34352044444788, 204.46833751598245 110.56911421437955 M221.8436604753381 104.83149015579392 C218.1151902132661 109.30123275116948, 212.24347943311537 113.68633687626692, 204.17778168816648 123.99872163618687 M221.39375293109404 104.5269172621171 C216.87684324689837 108.79790001220965, 212.51398353707094 114.10685565755561, 203.70422643124428 122.11518189183556 M230.95219665027977 105.57640174841023 C224.31442373775636 111.76829400509973, 217.9465087367645 118.61335994131258, 203.70732516509568 134.9659005096342 M230.3277902341692 103.69361596573951 C222.64907257158774 112.77701584178995, 215.78107139204639 121.63849590203547, 205.35346445128295 134.66356688866827 M240.51012335487812 105.1455761939629 C235.64752057945083 112.11390987750855, 229.21935827853542 117.70731111110597, 214.28401816989881 135.3434659625437 M241.39901267796247 104.06549227652492 C236.41521545228616 110.80786357937069, 231.60393069479105 117.12747454193604, 215.35026875304308 134.68503407581514 M252.11470965943678 104.97925946850505 C244.49887437265826 116.54136457990116, 233.5149220264993 124.06058318683876, 227.60933752320895 133.27692439221784 M252.24501397230352 103.22824771740375 C242.91425331086535 115.53349827176267, 232.29970400909951 127.474398152057, 225.63532579263912 134.1525404286211 M263.5208394370716 102.7385482431237 C254.84284111483902 115.48465482384756, 243.40390018330424 128.07234502206856, 235.79978063591122 134.75149451575092 M262.78084679741033 103.20748151355711 C253.77185444636675 114.88294976115027, 244.24829638101622 125.54489436912526, 237.48858655144056 133.62473015211646 M272.60472289287503 104.27029515642606 C262.93964651466274 115.59981027497726, 253.20101424493257 125.89468128718077, 246.60975250852653 135.09344871972573 M272.8192035575764 104.26194017240557 C268.81320126975197 110.4741831938587, 262.4713132342954 117.0699344888827, 248.2572500785178 134.07173652101648 M283.5835686687384 104.54051280153105 C273.5266415931612 116.60302024752302, 264.6313064951883 124.32986638928972, 258.10345206266135 134.566307899202 M283.19075916866205 104.99885433085554 C274.7200915919102 113.47063805291833, 266.3359611256827 124.39219181322446, 257.3986455985299 133.74577898907708 M285.8320794082442 113.09789366544689 C279.5289950491645 119.35531187040918, 276.923928097949 124.61371504728379, 267.7081679680467 132.00318347369682 M284.8948925144097 114.1876148393855 C278.8081355338337 121.71066652628573, 273.1191687136717 126.9526225213551, 267.7476120388454 134.39081607700984 M285.90922083635826 126.7564388481988 C283.8257344238474 129.94869066573506, 280.4145397221378 132.56972156507814, 280.01721655802606 134.25997742827792 M285.09826724173547 127.12239983308574 C283.28105682328516 128.84474868189403, 281.438072682381 131.1508598637098, 278.8555173587651 133.78041747032438" style="stroke: none; stroke-width: 1; fill: none;"/><path d="M204.873730512307 104.20477303375927 C220.5655804920741 103.51218580494688, 237.13889324134053 101.63004294585696, 286.4935440899751 105.66125407656203 M203.84266896543653 103.23577261785955 C224.1531571583049 104.25717012513365, 243.14166319478593 105.22124689316082, 285.7148459001932 104.17268960429256 M287.3712459918331 105.80728318054807 C287.52184499337557 111.69553536737247, 284.50201529664076 123.48401679090341, 283.59709593284197 133.32770444619408 M286.4939633427209 104.68299887022614 C286.1680075688326 112.42468653787178, 285.81922434809576 121.73105751046229, 286.44587044930864 133.53933296554575 M285.67263010892236 133.529199447343 C257.4546752897663 135.87454245021723, 233.85591188391845 133.94062523873274, 205.95529683042676 132.99997944866263 M285.0465866906076 134.55927200986068 C259.0526831014176 133.0169867597398, 232.47677026984726 132.96444918171716, 204.24058944093107 134.48792469470504 M205.82802955206193 134.37208684473546 C204.84498993258907 125.55030910925574, 206.4335631967886 117.29906522733384, 205.63416423611702 103.04346039521876 M205.28136609827718 134.68803722368028 C205.04635585950626 125.98389392551029, 205.34789014421406 119.74767956797551, 203.7807492842304 103.4358168934114" style="stroke: #000000; stroke-width: 2; fill: none;"/></g><g transform="translate(234.5,112.5)"><text xmlns="http://www.w3.org/2000/svg" x="10" y="-3" style="font-size: 12px;font-family: Helvetica;" fill="rgb(0, 0, 0)"><tspan xmlns="http://www.w3.org/2000/svg" x="10" dx="0" dy="14" text-anchor="middle">key</tspan></text></g><g pointer-events="none"><path d="M291.5875133015554 104.28573662781668 C290.0191879078068 105.3241964098073, 288.22623653899757 108.16120943236038, 285.6347927941752 110.18016252771231 M290.76632822215265 104.09418791017256 C289.35374119723866 106.58781379727063, 287.268579721648 108.8258497932015, 285.67538359432194 110.25117827352516 M302.572602801159 105.53850348096204 C297.48545617403795 106.91747272834064, 292.6519311769513 114.03638598510645, 285.0243057762876 123.20408307799794 M301.2385185273177 104.08700128822497 C296.4158346561369 109.41386357662972, 293.6386431858679 114.60298882176416, 286.41508492507313 122.9446428841905 M310.66008187415895 105.9726458172845 C308.2759730565145 109.03744079034769, 299.22072229302876 114.94528568643418, 285.16225567826604 134.31897279079035 M311.4818619731481 104.27470539025553 C302.63246583905635 113.66057017676543, 293.5739415110294 124.40639381322657, 285.2352665597454 134.25796859470665 M322.88874121368815 104.03020011785006 C313.7973151550967 112.3889225481204, 305.35412296405104 124.69743344695951, 295.64572784915134 135.1315080694435 M322.71755232553295 104.80038006971229 C315.64467440372135 110.59819899155518, 310.01079225886775 119.29310724758997, 297.59783290346905 133.04799707443107 M332.97162931575315 105.17256140240376 C326.29907177508164 113.51930622474931, 315.75914382952885 125.32057474880786, 307.8257033545564 133.52825710171692 M333.2430784100375 103.59792461851127 C323.97758216507515 113.28731870462133, 315.64820186198614 124.99378143827015, 306.54232474770674 134.4498957210013 M345.2257596988369 104.00931210251352 C337.24508293361845 109.48904826364989, 333.43047952988394 119.88172663306374, 318.0329261251564 132.21309591945274 M343.5225087121387 104.33559338051279 C335.69248787375244 113.9860369399418, 326.47387003671633 124.41093773950647, 318.43048864670067 133.84830689578814 M355.29556658867864 102.23807208829018 C343.62579696316374 114.92104166245777, 336.29395143108445 126.57799943476628, 329.1820493963556 135.4718603811161 M355.44476820195564 104.78283665691791 C344.8678528901652 114.32242081131305, 335.5576143314518 126.57927519305557, 329.3302647273705 133.19096403206257 M365.86951473302577 103.93685709962641 C356.4791876599645 115.68629781872612, 345.35835798836797 127.2991909233423, 340.57402109446787 133.4679659547008 M365.88998555300964 104.11555274053732 C355.2497607604129 114.52820432291057, 346.5443784448002 126.70280962542301, 338.1332357366133 134.16818105437534 M367.00404250299533 116.13144168736528 C358.6304388809737 120.3496924337505, 354.26587656106636 128.88603812111967, 348.60729326211145 133.52709823274606 M365.61725753441846 115.54112100328533 C360.5726224627839 122.0436845184787, 354.47190494593644 127.24696658770438, 350.5963844658666 134.99470985261584 M364.971994953242 128.17654207952867 C363.7216151135309 130.80371996781236, 360.89863577470476 132.72637864995968, 360.19968168485445 133.62884617973654 M365.14652134122025 128.2370071944602 C364.75222368235944 128.95228214221115, 363.0529669434616 130.25552800154423, 360.55173916625006 134.36117084814754" style="stroke: none; stroke-width: 1; fill: none;"/><path d="M284.73095473662164 103.47611489499438 C306.2817603728816 103.35763132505386, 326.2023320011695 102.48025422949246, 366.9719219115946 102.37617623901397 M286.20841370871256 104.56853858167224 C312.50766040733487 103.77919407868669, 339.3491696453522 104.38565258196643, 364.8960665891619 103.30108015514269 M365.06717624577874 103.3792244534181 C364.74688508724483 110.72870241915352, 363.6027253532564 122.14402465781328, 365.64252755373127 132.30316459639604 M365.69012330222535 103.76337405757687 C364.82729977308105 114.59885433055086, 366.3496629719723 125.66495022605386, 365.00833067471376 134.62188257073376 M365.4854674421629 132.0762773098561 C334.8629614042702 135.7313358732993, 302.278213900093 133.45367117913275, 283.75409793846416 135.8038693965394 M366.46185814138386 134.0955997350959 C348.49546853033155 133.833366810906, 332.5986508141516 133.57025502077957, 285.24530011563905 133.54416725788118 M284.45627433428524 132.9502725801487 C285.3175867710814 123.64316905657061, 286.5910752514838 110.0565411199336, 285.20164617956794 102.62324671365432 M285.7648903431894 134.34403368477808 C284.7204062412621 122.9430073724815, 285.7082654766272 111.16421749304506, 285.1690503877422 104.91707835605808" style="stroke: #000000; stroke-width: 2; fill: none;"/></g><g transform="translate(309.5,112.5)"><text xmlns="http://www.w3.org/2000/svg" x="15.5" y="-3" style="font-size: 12px;font-family: Helvetica;" fill="rgb(0, 0, 0)"><tspan xmlns="http://www.w3.org/2000/svg" x="15.5" dx="0" dy="14" text-anchor="middle">value</tspan></text></g><g pointer-events="none"><path d="M210.139250349075 133.3778810590657 C208.17077573465795 135.01866865670493, 207.6915341338742 137.3150432288455, 204.87698295901546 140.64960430923807 M209.9567945993445 134.068544821012 C207.76340505637683 135.99172919441085, 206.24761621266705 138.32168741682628, 204.12243678306567 140.32041158874497 M218.75837871340752 132.70152153841366 C214.46943415709643 139.5073834646505, 209.06297155238917 148.0850160417602, 205.3975667489038 153.7311745156794 M221.28206232057704 133.42561430425232 C216.31784496437155 139.70378736158509, 211.33222889767205 144.12338546359575, 204.8161844178375 152.98878596053095 M231.44859469535902 133.77691858245757 C227.27383761446129 139.29121070670064, 218.34927490337674 144.8110089703476, 203.5155066201893 165.64507279343522 M231.40079882808445 134.95239277403022 C225.92034226912077 139.95697955933997, 218.99933947987734 147.68387525600778, 204.98337489725265 164.9280421514322 M240.0885133455948 132.82917643455008 C229.7704708630757 147.0118386702841, 222.01143250858647 159.75838431650433, 217.3031385579121 162.14582687231712 M241.64143650752715 133.1477830371483 C234.1260991685142 142.58385750910233, 227.5764515151531 150.98421312193642, 215.08099305118492 163.1590437371105 M252.66608839311098 134.52224832992545 C242.33482922635534 144.93456574952387, 235.57151002041115 154.07759101944134, 225.96554409309044 164.64345457713225 M252.53729605802224 134.19591786643502 C244.40308467727817 142.31256905120057, 237.5207016008948 151.0878294071922, 225.95183377167538 164.75598329033576 M262.39078613783846 135.334820160275 C253.232685814497 144.73106757515794, 243.92457319520005 153.5073995898997, 236.0919599175382 163.34828169230224 M263.82372822326084 133.77541253549236 C253.79857198838644 143.21405184268667, 244.6314576035701 155.09320500054093, 237.46582582918342 164.69820593568767 M272.29462593400683 134.23201537454756 C261.7271847081074 145.24676933611588, 253.1443978913604 157.85013750891537, 247.0938681071004 165.35240553542866 M273.01032854642216 134.23958232103294 C265.3362800380579 142.94126483911793, 255.72913344847723 154.35429230035035, 247.06792432649408 163.1686555268338 M284.9750324742625 135.31605622584289 C274.94215453773546 143.12855297082373, 268.04792579734664 153.43687762644052, 257.31318747591587 162.84359538872286 M284.9283359978491 134.0275485477254 C276.5446887901828 142.11930611332522, 269.89458205745825 149.4990669498275, 258.68659004387547 164.73267884238393 M286.43887562741475 144.65389843247766 C282.76308686181534 150.92344750080542, 276.1943489711173 154.5591811112134, 269.64724514854146 163.18991377233115 M286.36132683811604 143.73542973494384 C281.7343096963955 149.64918896686558, 279.5050038164713 151.8028680075403, 269.4553981623391 164.2688261644385 M285.0892383101015 156.7426031631077 C284.6106218071625 157.76252593734432, 281.6476260198674 160.08485218286447, 279.1563020270231 163.21699627087435 M285.713751409775 156.4851318172395 C284.2631089247194 158.57734111803524, 281.987631453297 160.09245883952542, 278.9664711498098 163.68671651688965" style="stroke: none; stroke-width: 1; fill: none;"/><path d="M205.57482894035775 134.87054389408794 C231.49046322624812 132.21805524889183, 261.69123375919025 132.5279664277715, 285.0936210368719 133.97091087924366 M204.19110988706822 133.07212498648346 C234.47642897364662 133.90754907887055, 265.32520131534324 134.00082834799224, 284.86600268777545 134.33979780249996 M286.01609162835985 133.39158451385123 C284.6634403311565 138.98419320783103, 285.99018025683205 146.7496250510404, 286.8018057586984 163.15835849683978 M285.4653479558531 133.09715720714823 C285.57363439406544 144.08316033392728, 284.9726318672314 153.51203721821085, 285.6125838157869 164.47235760402947 M284.3264345945062 163.88166110348615 C251.36350357216773 162.31672141859707, 219.96602138747244 163.91199049114363, 205.01127230311064 162.0539369401575 M285.69630199238094 164.67960270062878 C263.2020991933725 164.79014900096206, 240.09513069293718 164.84207744235138, 204.52206436273693 164.04873587805966 M202.89659897470668 164.88242331889387 C204.6909141686178 155.46178450468412, 205.24248636070993 144.230019855381, 204.6572774166575 132.08097334113125 M203.85099270716566 164.0048111771856 C203.88411302639733 154.4216512827204, 204.70204212338294 143.5775012231433, 203.51089447777505 134.02096891417688" style="stroke: #000000; stroke-width: 2; fill: none;"/></g><g transform="translate(235.5,142.5)"><text xmlns="http://www.w3.org/2000/svg" x="9" y="-3" style="font-size: 12px;font-family: Helvetica;" fill="rgb(0, 0, 0)"><tspan xmlns="http://www.w3.org/2000/svg" x="9" dx="0" dy="14" text-anchor="middle">clip</tspan></text></g><g pointer-events="none"><path d="M290.4972842602536 134.1844312385533 C289.2418383011961 136.54234351187364, 287.0587296944017 138.07795766274774, 286.0588798083403 140.4198703619541 M291.0810563039916 134.1378502986216 C289.15097401944524 135.95721279877299, 287.7274817264808 138.60574797254026, 285.17662580936934 140.04157723675795 M302.4175179459481 133.5347847416243 C295.8847144075889 140.56617221466007, 294.4281842006259 144.83738005944696, 284.9529998997355 152.9810817148821 M301.41914998848904 133.95272846559416 C297.73638560660714 137.06141224789064, 295.49230567897854 141.3970043127701, 285.47581487242576 152.59702169914976 M311.3425823317448 134.48694091527943 C302.40504162517334 142.667731716897, 294.5277448670529 153.85993088071595, 287.5386205664957 164.90703839510215 M312.21992198458435 134.47468859222474 C305.99447531494536 140.43253680365356, 299.04517581799973 148.66838452095325, 286.5304206571667 164.95634740702178 M323.50703937391864 133.7276416983309 C318.28795912748774 138.45841141844576, 310.08157365914997 145.64960006679925, 294.8040666517448 163.84899819135774 M323.19440955645894 133.38754198869754 C316.5461409113541 141.4659535358062, 310.1095151596822 148.5622315823033, 295.7185472541972 164.44252039392885 M333.7191297349261 133.23879057301838 C320.8548361528844 144.88179209812856, 314.20897693298843 159.0104504288954, 305.45735088789337 164.04984266150353 M332.8966204629557 134.3347678647792 C322.9848841178595 145.8495050905406, 313.96960386333126 155.49829441988132, 307.8057198081029 164.8057676305659 M345.37042530391244 133.95968481061874 C336.03384108162396 142.67528795802846, 326.2072589664897 153.22784503566564, 316.14088205361116 165.38177840778587 M343.9314595922955 133.72037516599312 C333.1747927026299 145.83781575828598, 322.86466171010005 156.80822852463044, 317.2242910563539 163.84341690218224 M355.07654943851634 135.20691217046314 C344.78885809599257 142.47089114677732, 336.9037038534849 153.88323931521035, 327.94344795537836 165.2920339889061 M355.4019867699589 134.08040843566425 C343.43106133064543 146.16927057890007, 333.5480290186594 157.93600240570186, 328.9560165552507 163.13317443667154 M365.6193742167135 134.36738194047524 C357.4835007639825 142.8846781741404, 348.21857792573707 155.63181477275788, 338.04714451036676 164.5219514916868 M365.8327677909718 133.42787542986136 C356.77510397661416 143.2683908195601, 349.258506449273 153.09685065346733, 339.80633577592533 163.28573935930515 M365.8899444650798 146.0187093000322 C359.3858871462497 152.39498383181734, 354.6061035408533 157.33414043351578, 351.2647297978982 163.72280126559141 M365.95735646086547 146.04138275625513 C359.87917035075844 152.34487157055142, 353.7079302230779 159.97887804386474, 349.3229254174641 164.07223439291377 M365.7045722403541 157.48423714377032 C364.2321925027264 159.60916405498506, 361.49333297180465 163.15365741990905, 359.6926473530861 164.34935794171102 M365.8071786671391 158.2798700554823 C363.7310391222687 159.41007395251532, 362.6420455287637 161.36313545596963, 360.4246489221901 164.15528156641273" style="stroke: none; stroke-width: 1; fill: none;"/><path d="M287.15185575732033 133.27205879375657 C315.5955572254929 136.13845863958852, 343.6002819525242 134.1052697497694, 364.03898021611707 132.55227352093704 M286.43096362845125 134.6684123277081 C304.68484417761573 134.36225279379997, 323.76795119141275 134.36390149652004, 365.3769020241175 134.33476973116353 M366.0050105801541 135.2690132246702 C365.03152000225487 143.17455805590143, 365.9825060835649 153.68814104928, 365.47435731200653 162.58998005041101 M365.211292505126 134.55002842251523 C366.40833769698276 142.21850916176456, 365.37605895146595 149.51488683275932, 365.29933117797634 164.79163924588988 M364.13926296089005 165.8741350012637 C344.78775952626387 165.36746437477993, 327.0086793844863 161.80520076014696, 284.0750659147829 164.68442374967879 M364.73727853574906 164.67553135583935 C346.9745643132664 164.31833275176268, 328.1419581226228 162.4968257759454, 285.66743538952875 163.5849221369471 M284.038189620472 165.3714916495643 C283.71296757336137 153.8316427078695, 284.7206616952073 146.9809082267703, 283.90023551748703 135.0736786061376 M284.7127589372083 163.84077429027835 C286.2062858978689 153.35824250118085, 285.0978054975644 142.7689016414087, 285.272432689098 133.8496855676753" style="stroke: #000000; stroke-width: 2; fill: none;"/></g><g transform="translate(294.5,142.5)"><text xmlns="http://www.w3.org/2000/svg" x="31" y="-3" style="font-size: 12px;font-family: Helvetica;" fill="rgb(0, 0, 0)"><tspan xmlns="http://www.w3.org/2000/svg" x="31" dx="0" dy="14" text-anchor="middle">...function...</tspan></text></g><g transform="translate(416.5,45.5)"><text xmlns="http://www.w3.org/2000/svg" x="0" y="-3" style="font-size: 12px;font-family: Helvetica;" fill="rgb(0, 0, 0)"><tspan xmlns="http://www.w3.org/2000/svg" x="0" dx="0" dy="14" text-anchor="start">const utilities =  require('./utilities')</tspan></text></g><g stroke-miterlimit="10" pointer-events="none"><path d="M 122 194 L 255 194 Q 265 194 268.58 186.85 L 272.15 179.7" style="stroke: none; stroke-width: 0; fill: url(#rough-8436360998983173);"/><path d="M121.71439478975505 192.1853891848861 M119.72976487099385 193.95104219818595 C149.97588831941707 192.44125198324258, 176.98898684428923 193.421710230335, 255.94504944158783 195.88127074657666 M121.9889783358235 191.99886544347873 C171.04534132427946 192.95392110439363, 219.61994084226293 192.79141890709593, 254.73904039726773 193.1765667122061 M255.31464040624067 194.7944019968152 Q265.21899397316963 194.2413271174452, 268.9055791029685 187.7681732057944 M256.68192660934454 194.18588476786718 Q266.80500736447175 195.75973593325998, 266.75778700923075 185.39375339779463 M266.83557594856114 185.0058080457069 C268.5359245754288 183.86570850610497, 269.7175131688526 182.27286922075885, 272.19464402717745 179.01042428730278 M266.63125381489346 185.64829373932218 C268.45641950060565 183.30698799073207, 270.5501349296773 181.8483045662959, 271.76268464993984 179.7730253333875" style="stroke: #000000; stroke-width: 2; fill: none;"/></g><g stroke-miterlimit="10" pointer-events="none"><path d="M 274.5 175 L 274.5 182.83 L 272.15 179.7 L 268.24 179.7 Z" style="stroke: none; stroke-width: 0; fill: url(#rough-6840365820161949);"/><path d="M272.93233396741937 173.34798098664265 M272.5878036078171 173.80306580644927 C273.17569130424084 175.4264535830294, 273.69423646387054 178.3937819904475, 275.4237031298892 183.58223807845377 M272.70457515980894 173.36607752295777 C273.1312468738822 175.75985107932812, 274.01280007911095 177.3468029101229, 274.8078204339557 182.46853271852953 M274.3056040311022 182.78418609179053 C273.8254104517436 181.92199249785966, 273.50952919340506 181.66713921016088, 271.966831887488 179.46714092095544 M274.42723180203666 182.64392308275885 C273.7774078037679 181.86895307297814, 273.41776168890243 181.33992515644653, 272.1869323640341 179.69540589516157 M271.9533601064097 179.68872495902696 C270.96820773838084 179.6649593644512, 269.95140924478 179.61437675221507, 268.1334590578687 179.5113022208239 M272.09441712149686 179.73626671242928 C270.5331601929816 179.82917317464043, 268.96920586914246 179.8967350227282, 268.0774826502194 179.88145346616488 M268.4143188271981 179.89146555348157 C269.937873210081 177.18717176263482, 270.3595948766654 176.60632940399532, 273.61898602413055 173.54682092585193 M268.47353539008856 179.807592703634 C269.7370731106588 177.1131471716329, 272.11859677878357 174.28536899142884, 273.24171338580055 173.18296973802188" style="stroke: #000000; stroke-width: 2; fill: none;"/></g><g transform="translate(186.5,189.5)"><g xmlns="http://www.w3.org/2000/svg"><rect xmlns="http://www.w3.org/2000/svg" style="fill: #ffffff" width="39" height="12"/><text xmlns="http://www.w3.org/2000/svg" x="19.5" y="-3" style="font-size: 12px;font-family: Helvetica;" fill="rgb(0, 0, 0)"><tspan xmlns="http://www.w3.org/2000/svg" x="19.5" dx="0" dy="14" text-anchor="middle">creates </tspan></text></g></g><g stroke-miterlimit="10" pointer-events="none"><path d="M 285 94 L 292.25 68.62 Q 295 59 305 59 L 408.63 59" style="stroke: none; stroke-width: 0; fill: url(#rough-8188961155336123);"/><path d="M283.6876338800012 94.78830925778666 M284.2852597427568 93.70914459094067 C285.9391971597301 85.88711220656558, 288.8258870653899 76.56834009787322, 293.8321322994248 70.18538837304243 M283.18072138833963 94.92309606352812 C286.8252483529799 85.68640920979789, 289.1026900076919 75.04545290213652, 291.7082758097284 68.37184836504136 M292.23205906968946 67.84493083949666 Q293.8412996980106 58.318456187466964, 303.86437080494824 58.198238852764526 M292.24589187884226 68.09545849356047 Q295.4134354824789 59.8175426039176, 304.49029403431183 59.0559904834015 M304.3400758769798 60.0665218743175 C331.32963128926656 59.39706081839342, 357.4847626841795 57.776506097904836, 409.00703842838925 60.06582998784292 M305.28307187906347 59.57619338064586 C332.7418855943803 57.34273823542871, 359.96098363065306 58.82358633758875, 408.8382984249134 58.32067926455463" style="stroke: #000000; stroke-width: 2; fill: none;"/></g><g stroke-miterlimit="10" pointer-events="none"><path d="M 413.88 59 L 406.88 62.5 L 408.63 59 L 406.88 55.5 Z" style="stroke: none; stroke-width: 0; fill: url(#rough-6966239631548031);"/><path d="M414.04553297185646 57.207047855285765 M413.5978575355722 57.77228604087788 C412.4069674097385 58.16834874258024, 409.65467043383455 60.63033202000852, 407.1069763925317 63.29435108143901 M414.43727108569146 57.216646684520704 C411.7513273627913 59.14177001670653, 408.7542030617884 60.97043877611234, 406.4653174831431 62.404197247844564 M406.57474748176594 62.43239909638207 C407.7943312451619 61.20540625870333, 408.0087021770821 59.96259792862566, 408.8817256848836 58.995127632512336 M406.9074280998276 62.39993904259024 C407.27357569238353 61.21048146957358, 407.90061443985365 60.141350515838816, 408.7181901882822 58.848905113758676 M408.9311339051563 59.16987928122327 C408.1781113057738 58.10433373938201, 407.61164270685214 56.780810714533594, 406.6566074667828 55.454442156745195 M408.4436334940204 59.13799652332369 C408.2272054830428 57.97431963476538, 407.7051732085162 57.16850398076607, 406.7281189741625 55.32715089737735 M406.9356141767104 55.00838850695956 C408.762996893677 56.181501150041186, 410.92357873187933 55.86607733699619, 414.30881534240956 56.9394207516866 M406.6205103145129 55.554347139575256 C409.7745222819513 55.999292507913694, 411.8324018287556 56.95773553421552, 414.09697778186074 56.97138243146483" style="stroke: #000000; stroke-width: 2; fill: none;"/></g><g transform="translate(316.5,52.5)"><g xmlns="http://www.w3.org/2000/svg"><rect xmlns="http://www.w3.org/2000/svg" style="fill: #ffffff" width="49" height="12"/><text xmlns="http://www.w3.org/2000/svg" x="24.5" y="-3" style="font-size: 12px;font-family: Helvetica;" fill="rgb(0, 0, 0)"><tspan xmlns="http://www.w3.org/2000/svg" x="24.5" dx="0" dy="14" text-anchor="middle">becomes</tspan></text></g></g></g></svg>