<svg xmlns="http://www.w3.org/2000/svg" xlink="http://www.w3.org/1999/xlink" version="1.1" width="259px" height="180px" viewBox="-0.5 -0.5 259 180"><defs><pattern id="rough-8902512383036859" x="0" y="0" width="1" height="1" viewBox="0 0 100 100" patternUnits="objectBoundingBox"><path d="M6.952993247713568 0.7293046022959995 C4.530278304430827 1.9960012725315814, 1.2873652256277963 4.927395668902286, 0.38932281900106047 7.3281581129301205 M6.516505220371978 0.25851534665030396 C5.1812282259431655 2.169713988300371, 2.973695860971752 3.630203710035643, -0.34051108814576553 7.420851222506532 M16.402541970565807 1.3736091361715062 C11.55946528294124 4.605423301837571, 7.884625909481426 7.920425849931401, -0.9631159258490518 21.59619431026792 M17.009203931218742 0.740924094433332 C12.559037416229941 6.151808565605991, 6.818499776440281 12.28944495203668, -0.09248452206427649 19.789985606762514 M28.50621864837886 0.3861133397151306 C20.938423267033905 7.7729855475171465, 12.649819540021678 17.330332246820266, -1.1462522253451892 33.608088844691665 M28.690617010931337 -0.2064999120505333 C21.0919854896574 9.046196719086675, 13.233492569786776 18.476109136363927, -0.5217636079697665 31.881083938625007 M39.668497285533654 1.1521986677201994 C29.829039403165137 12.806344807836128, 17.83147117838301 24.873963088960124, 1.0732295900524091 42.676338302760335 M38.697371159840834 -0.0478723056175161 C30.96682070489281 9.719948173042967, 22.855976676158598 17.812310590522866, -0.6434009191173371 43.50405181499367 M50.245391142095734 1.513900589418819 C30.559075494421187 21.252193165661584, 11.993376800820041 46.03604717411744, -0.4450760679238446 55.763529755907996 M50.07098479253807 0.6017882266373942 C37.42488249141488 13.141461245435718, 26.22439313275787 26.759646935103767, -0.5422868153114089 57.15991605518339 M59.907220335353735 0.2126264253010257 C42.137420007656154 20.0382869646734, 27.73844101601865 38.87452469702002, 0.354895690801575 68.9945448820392 M59.97899872267751 0.7245176535626241 C39.17720792141247 23.79749368238951, 19.863751937921034 44.327778594567434, -0.881141962723508 68.68836069721713 M71.56045573538432 1.2825470385026936 C52.592102442705524 17.152868312594304, 37.663217655271694 37.37406244375293, 1.361581167541571 79.64212541367351 M70.46503400566863 0.3586012506298082 C45.31769482351288 28.004101920398845, 20.96018960887263 56.05530656454193, 0.8733059349910799 80.94108510614147 M80.72194382735877 -0.7008637874906691 C57.27904996693377 27.29177431872005, 31.685117195387143 57.02970878937728, -1.1713088238026446 92.38143955617903 M81.68830814325146 -0.5943883591185131 C57.178188757524005 27.16790279701884, 32.1386494856049 54.392804668142496, -0.9807166358717976 93.67710643924428 M90.15997190524124 0.24927880449029427 C68.71529929774512 24.36763401848025, 49.414569145106576 49.272725584010196, 5.258621961149026 98.10665384033086 M91.56769219647748 0.5327759014578577 C61.55150310077382 35.08657638859029, 29.45674072171635 70.18605483446025, 4.521923438404197 100.68144593925317 M98.33114477679052 3.066308280705729 C72.2348814359512 34.76038415736813, 42.43762144675944 69.94985987964805, 13.617114188101061 101.16206922001768 M100.69315570490696 2.974724661017615 C79.65879495920431 27.166454812936458, 59.57740629474287 50.44243668340719, 14.319537177035695 100.79970186417967 M99.53701622906617 16.531596411185504 C74.50600720046951 44.342984465870785, 47.43002522235701 75.73847347842279, 23.947177512711622 100.60969781132144 M100.72461023212463 15.232712462012147 C83.92529655693525 35.10762819133016, 67.14452537237392 54.11901217819714, 26.041379479307135 100.58932097685975 M98.67919929016568 27.968695032448935 C85.54065943521836 45.40006085584436, 71.83347124168391 60.703090905567485, 35.740637892260104 100.32991573876006 M100.93024460232034 26.875837779445874 C81.46344234004957 46.18887851866154, 64.77807848184153 67.24902341370921, 36.14294793701741 99.47495514615106 M100.74721495126127 40.25847277095938 C85.73379695241114 54.27730402616142, 73.75800200348905 70.28246017814664, 48.8593758998725 98.3658317604251 M99.53763415013846 39.239490504062374 C79.83816293795974 62.26380577984068, 59.730141790907254 83.95481088620991, 46.44138813414948 99.00229553630389 M101.09065614963735 51.59144247722882 C84.37665629869636 67.99840917682441, 70.16204830779256 84.96045497984016, 57.169401298085575 98.82255874928249 M99.84370772406669 50.925206391832596 C85.07358849105505 68.43200962626443, 67.77956845120373 86.04084074798662, 57.1599643526731 99.57919605103385 M101.97445525171435 64.9602207570501 C92.26601123344847 71.14373216298677, 84.22506589082855 83.44500741321475, 69.38229047063001 98.00138823081866 M100.12930378849846 63.223954797118616 C89.0338514558583 76.37471818238645, 78.8176116790183 86.86177044700639, 68.17424845268056 100.53194749174604 M101.93819365955319 76.95725423222352 C97.09625717080459 80.8588898734667, 89.4598299047872 84.46127304686797, 80.52527401631396 101.13971233818096 M99.9098296435597 75.52736019163552 C92.06730650555836 83.56793088304994, 86.05552488552597 92.90457496860567, 78.65956263973435 99.72309034938296 M99.40199410860785 86.66029708903224 C95.59015610120153 93.40830024240165, 91.21579335712066 96.20468772027837, 90.67707326891829 100.90039811077465 M100.29454036606502 88.13114720448092 C95.55219643238857 93.33338608611115, 91.25593599169073 96.62692214791605, 89.32086115927079 99.76476851756165" style="stroke: none; stroke-width: 1; fill: none;"/></pattern><pattern id="rough-3120822195415125" x="0" y="0" width="1" height="1" viewBox="0 0 100 100" patternUnits="objectBoundingBox"><path d="M6.079284823788617 -0.6375214160883689 C4.718075630729976 3.5924016217386754, 2.468005873870447 4.4064817207428835, 0.03461433005979697 8.59809746322644 M6.66689160997201 0.3305996609614218 C4.695613797709112 2.1071199738980804, 2.4594378065717506 5.3886383721718545, 0.3583499254374163 7.525144345379845 M16.234381545814294 -1.51377767183169 C12.821289829645268 6.322453783308358, 6.217076155550727 16.059251058936848, 0.5172829315459175 20.515576266463796 M17.161989247618695 0.006169086677855873 C10.679802463056578 8.429258189025687, 4.799503331445113 13.965329061760828, -0.8281602188191473 19.81446383555036 M29.82326007825091 0.1597089106324514 C15.774465849479768 10.838160668635378, 5.9703962847102146 25.64558724723701, -1.1685298296066975 31.274577049389954 M28.34507611985302 0.8928809781275602 C21.194546949433462 7.923170744527303, 13.840678090964118 15.539809510926112, -0.7674401375678013 33.200864796681614 M39.12869464568732 0.7790710425431344 C23.992500175109992 16.258682614173054, 10.19802644113801 31.371514251119578, -0.9140921918416991 45.27621173453633 M38.14893531552564 -0.4924411729455227 C22.38397677889778 17.71233600317022, 7.022645323634453 35.98507567855804, 0.9944856224555991 43.629060403659935 M49.45799684894111 0.322091818000807 C35.66525824481967 14.763525871856352, 19.43341744595266 32.846408110286, -0.5326796842072516 58.37322307516241 M48.70972704918827 -0.823591910023985 C31.788885265540323 19.950031808351746, 15.230887698399178 39.01243584747271, 0.9463162550716491 56.90570735870711 M59.82581638335654 0.2590548176974714 C41.688619196488524 20.84469160469419, 19.716575883199233 43.82058269710181, 0.5124964105036529 67.86914731668311 M59.15645721948178 -0.6993450313957945 C48.04284757603127 12.972734258203955, 34.92095766965994 28.569953803738223, -0.9471987572962521 67.99095028865793 M69.80889730568154 -0.9891680818843138 C47.81315334898444 24.528100806267837, 27.106249462330226 49.899219677860074, 0.5409151333218825 81.67214650695773 M70.83736042469825 -0.8381192579072243 C42.942031045290534 31.92632091791557, 17.294636834924045 62.82673744380505, 0.862089243855412 81.9102818074859 M80.83699216660087 0.7797243092176283 C53.1600012376859 30.378308198107938, 23.208658367592804 64.1197035020154, -0.4100864284389161 93.55796938992108 M80.6945959894172 -0.5269670435575233 C54.6044399492297 27.526625414980753, 30.16772573638543 56.362257184550586, 0.22377576837489643 93.97203224153516 M93.26365099939152 1.3433112249720276 C73.03515363077811 19.794426663704993, 57.862504739542416 40.67138224561202, 5.768811646971719 99.57175405428994 M91.36112089962661 0.4210911647773852 C73.16641178175128 20.090415644857853, 54.90883842441259 41.53169785321375, 5.321623727170324 99.33756778844042 M98.18275384374954 1.2175563744007887 C78.8849003996566 27.540146921599373, 55.34760846045022 54.25974334080541, 13.542706992680248 100.88193074165956 M100.31246972180733 1.9645858053938334 C77.43744702932332 28.099774090075417, 55.35085139028137 54.00430833209944, 15.826663702121241 99.27852869164202 M100.4214308134052 14.64427058004809 C75.21307142874795 43.95807738287751, 48.88849400024375 74.54627693171922, 25.07997049769736 100.72384501872408 M100.87487308580708 15.653789660585346 C75.8120021524873 41.63343137324806, 52.316108838024924 71.06585518283505, 25.554294043095794 99.7481210067498 M101.46545462775683 26.509799394878925 C80.91043455012156 47.365901420807745, 64.21804507242571 64.92428778356987, 36.66673528024685 99.20842232296496 M99.5739989494519 27.50966104428078 C81.93182153347733 47.51248327007047, 64.66302685990672 68.12602315231437, 36.20477294117155 99.5213079815995 M100.83306782673584 40.43358979934462 C80.18319652960248 64.95262329086607, 57.83080900563418 85.4037299057257, 47.14161470039241 98.17123333741607 M100.05691234808067 38.24431909697182 C83.58825024492805 59.05244323665512, 64.82132791242745 78.80288583650987, 46.23316934555921 99.04975164246201 M100.58290248653938 53.20822567094949 C88.60758168288861 61.346827834034976, 80.53039394988446 73.63305043306488, 57.38768080064541 101.56450967545598 M100.31659961563591 51.83626945524267 C87.15043096941768 67.68136183354541, 71.59867992240196 82.37128387132547, 57.52685076755583 100.16760056448017 M100.01415707610427 64.0124787963029 C88.79372752929476 74.32868046799796, 81.85204406166649 86.4893181881114, 67.9032988152864 98.54662434275973 M100.4763250669705 63.27816349321182 C89.24694476141839 74.35043895572107, 79.5733626552908 85.37287000906584, 69.12986169605179 99.19478551812877 M100.0323872126455 74.86911153590886 C92.92312134013687 83.91381068832324, 85.89932904078064 93.37906127887099, 79.6164390835823 100.22789028843788 M99.66363653012071 76.4221911822309 C91.91512319210005 84.37770295083446, 85.34619360853841 94.28308917737276, 79.04931311459067 100.93662365534436 M100.33315351046718 87.67062222822435 C98.22474177044217 91.07792826089974, 95.64211372092306 94.07237742795093, 89.60978798745617 99.06455631668388 M99.78199513111004 87.83303665701575 C96.11732062715998 92.87305907464378, 90.93906452842961 96.94152263242253, 88.76636151413678 99.70600364663107" style="stroke: none; stroke-width: 1; fill: none;"/></pattern><pattern id="rough-4879475529353557" x="0" y="0" width="1" height="1" viewBox="0 0 100 100" patternUnits="objectBoundingBox"><path d="M7.164870232924893 -0.314662989431409 C3.336931153461352 2.9215426810486766, 2.4876436636042936 6.025597276670437, -0.19188661881065083 7.3881033612684295 M6.621165704841046 0.47474978346543084 C4.842818631829896 2.67216097867409, 3.1293186207028785 4.228822007254552, 0.10683632144887989 7.813744070727832 M17.489473452044916 0.7841203896409388 C10.26316441426917 6.876867743682597, 4.682026462100475 13.920938933821738, -0.3551583811690273 21.67419424622492 M16.526708138788557 0.22200041629253153 C11.245962718443145 5.914199327402548, 5.980371438382954 13.756711737025043, 0.395247756078168 20.92689027769587 M28.496801092301233 0.5523125406784901 C17.090149165067075 9.619570091254928, 8.052203060644644 23.02867822622251, -1.733515323002469 30.768131577526724 M27.351626595423717 -0.8804213232415834 C19.59606602921794 8.494145748275868, 13.037490706098932 17.150979868598085, 0.8697057281242837 31.377921413918457 M39.65087779585776 -0.1119088672121693 C30.49312778252168 10.052221323967443, 19.525699015544383 19.969265399327163, -1.192140074413805 43.38359674601042 M37.768721520915406 0.1268376441822281 C24.048296350982447 15.212014218598332, 10.547492813881451 33.45979160081028, -0.5057888004760587 44.83197346591607 M49.60358847816582 -0.8196296094310753 C33.803742016356026 20.256901543445686, 16.402858919322078 39.268596360180965, 1.1709141368063634 57.0374506050549 M50.00646032506913 -0.8212793990260514 C35.74142933505795 14.704421444305815, 23.239430021367014 31.618950475386278, 0.0870223799025589 57.00556566013095 M58.16879670936556 1.3330458755981072 C37.79569023471238 26.55544066757713, 13.496908140451437 54.46692655422831, 1.6286704250417445 68.65730706118111 M59.50460499526863 0.8446916425063695 C41.2579821250841 21.388334189703716, 21.743284581747787 43.516370272057806, 0.5258666278545916 67.79277230365783 M71.92656285133461 -0.46814157076520235 C51.084454412296566 23.35299861737911, 32.90029441764095 41.868727290248415, -1.9230241353065036 82.18393018883779 M70.55608965315764 -0.973375083611367 C47.132233696715986 25.226186058361076, 26.34648430863579 50.7766082892066, -0.3151546508527736 81.19292996014634 M82.15571230204273 0.2536734904622229 C54.47705692072887 29.30977886197693, 30.42963938263926 55.81368086672752, 1.917593953962072 93.85539434153775 M81.5914563477118 -0.8694547738925631 C49.509362809935574 35.83354981446935, 19.890433216830818 71.02763271944376, -0.6691897665976496 92.5827927885986 M91.84243692232353 -1.891899470044633 C65.51000655520869 27.11008987159287, 40.869404736325215 56.48435394586345, 6.055780964818148 101.80258604695562 M92.44948575429913 0.47213215069866443 C67.48612038461309 28.85001280913528, 43.234285736560544 56.11814031444119, 4.198213836278809 99.17575387051548 M99.77761190282963 3.853686528958459 C73.02521668300227 35.93710186964286, 44.64704799753695 66.57367077301973, 15.520934230419723 99.77955557788468 M100.37520886287099 1.7380234778234307 C70.31127880177857 37.46370299157716, 39.40289019140701 72.5154883843423, 15.605419986506117 99.21223660514292 M101.17425270940463 16.709935545511964 C82.0818034707929 32.58814511174813, 66.81912687752295 55.20313977755381, 26.308445292549838 98.92243926273245 M99.63125408030935 13.78855554996401 C72.08312275774267 48.0517200861503, 42.94305757101841 81.1302302451092, 24.99196490893707 99.65295523230087 M101.15931855086725 25.586199109091403 C77.3141406029029 53.61505172204987, 55.56113040284094 76.79062438493298, 37.17952967497153 98.57534001358233 M100.7986938162975 27.751495852676676 C81.49757534266762 45.914369548862226, 64.91468186424102 65.58220996540393, 36.8838873341651 99.18624104212275 M101.09881429715516 38.67680663679063 C85.21555897825155 56.72795505911842, 70.07108942234457 73.27143621223371, 47.9311898472132 98.84350005205319 M100.01916198153491 38.82987018982425 C78.80794223362169 64.27347309899778, 57.85102334505554 88.39240976628257, 46.8001528454516 100.70699350684042 M100.21152147339122 51.33641815714673 C85.81907642194963 64.60348309133599, 74.03770937208797 78.30739874993539, 58.12571512944959 101.75587148257739 M100.51291063433992 50.8740829536034 C82.62090442185442 70.56306328509726, 67.75731474159929 87.5931363858821, 58.179450150739264 99.7734568936222 M99.69986931962748 65.49616618292261 C90.797140453276 76.50834456052853, 76.683570226756 88.497394654533, 69.40490219247059 99.12811268738612 M99.92162614851124 63.35522615606113 C91.76291690181539 72.87651069376282, 84.53025084273227 80.96989481754598, 68.6737170216221 99.98024008492594 M99.55410241852275 74.96927273871904 C93.86548213679718 83.06842027160214, 85.78382278779749 93.88905145441494, 78.83624215603488 101.46036041231521 M100.01853872705573 76.4312379044821 C94.07725752513235 82.39727253582589, 87.76259329208172 89.10227312079343, 79.43447977345842 99.1787170631232 M101.47324632777175 87.65388651385705 C96.89317356238394 91.70388941850541, 91.91502967922708 97.2525886409337, 88.30735948816049 98.57174608257185 M99.25157590742046 87.13100422027796 C95.68291445755466 92.38659962621446, 93.14462649689054 96.12739945689616, 88.99462259140998 100.23169440978322" style="stroke: #000000; stroke-width: 1; fill: none;"/></pattern><pattern id="rough-8193073065194875" x="0" y="0" width="1" height="1" viewBox="0 0 100 100" patternUnits="objectBoundingBox"><path d="M6.6724267603958705 -0.6706159704603075 C3.42992192304292 3.7356839162573823, 2.7711433113929975 6.126007156856554, 0.6080951089449078 7.22513355665091 M6.418348069855112 0.5079373115631713 C5.209894266553864 1.4949579261829045, 3.819005501213915 2.8409491699974807, 0.49434472951345687 7.4738758757821495 M18.176580136397984 1.7634960402205913 C11.8978619943455 7.559329712177133, 3.988345545254563 13.493202096700944, 1.896929425024159 19.351381468504293 M18.375641981086822 -0.6742136771385185 C13.289621389717109 4.884931108117982, 8.163103427803827 10.570394942157368, -0.9654317221737592 20.374421050985305 M28.779256795204333 -0.07074642607874093 C22.348542205747105 8.007215520502086, 13.006045755433014 14.566397643011369, 0.5867581619590885 32.92255143074424 M27.254549287004025 0.21350234712040095 C21.754252628850168 8.751053142374563, 15.287661164773423 16.10869706773193, 0.4601447170298507 32.82593265389187 M36.808257123058205 -0.43641020436291456 C25.48751562631401 12.965857268551968, 16.295835777512217 23.927598716466807, 1.5257222662372483 42.417214825709195 M37.720939107678575 -0.011922556831517994 C24.918272248865485 17.42837837716206, 8.557994215365834 33.779549296240354, 0.7500458884063703 45.31870795029861 M47.794822534548175 1.2483779915575903 C36.91157738256994 12.94648940776303, 24.615223544741593 30.385863172479905, 1.84892970373728 55.027416208792516 M49.49230755771238 0.17095119451893526 C37.69758184990901 13.293027807884268, 25.033773235847764 28.52467313496839, -0.6487039103388601 55.80050886739981 M61.13203700606126 -0.8533396287635311 C44.56002014627661 18.741645596563394, 28.197529836662724 36.114124153346346, -1.785151475402749 68.89442937030528 M60.434426143691034 0.8693599945419805 C44.94035191259454 16.85193768303382, 30.184470393798826 32.47753641286234, -0.5948891203718949 68.12721967516568 M71.44996877302647 0.6398169473119841 C51.180595734385896 23.67018108196202, 28.198508290663998 49.41711737218707, -1.6862267315333455 79.85063354645773 M70.11358429319259 0.8019173035334868 C43.930655652120656 31.117562434392934, 17.394912702146225 62.53454648821663, 0.08032247976111995 81.50196105096958 M81.8959035293012 0.33068435338280544 C52.887481461927926 31.886292357422455, 22.99165614288496 65.73594919425196, 1.1276489002800716 93.21209229770186 M80.87420374981836 -0.8956287672784207 C63.20755373647356 20.374827421897518, 45.29905137937294 40.93749707589881, 0.9826176487344118 93.44136636676124 M91.17976351312106 -0.4128741550545465 C56.00595883234678 38.57263260340514, 23.669824988980743 78.53366139848056, 5.323747918124376 100.30103929268283 M92.11254591591143 0.6094560722272542 C59.69556268222663 34.74508761707438, 28.717088179913496 71.95594174949909, 4.373454486674756 99.36189574163613 M101.93993076927765 3.25283490719871 C77.52444713329987 30.61806542198136, 52.330500122152095 58.09487949595885, 15.860143545037506 101.71462451898405 M99.85007354414093 1.9325958083391348 C76.34666991852865 29.73498111741126, 52.809870445141485 56.61758549282411, 15.50120045806948 99.62907635063563 M101.6691246116549 12.930006812070342 C80.39099108964749 37.87850773583254, 59.13832058420113 60.99580700795349, 27.532531314386112 99.26080794650126 M99.15379230230437 15.537206087185524 C74.63368391572887 43.289417504538896, 49.14501310266359 74.03202871024081, 25.893569807723836 100.75913951256693 M100.98735194554736 28.37246249135636 C86.58223715143623 40.695969805060194, 73.90738763945672 55.340338309368384, 36.22240048038098 99.50056180777248 M100.70128623298268 26.789013597906006 C76.82953985750565 53.660840830123156, 53.75107946810142 81.41052596603004, 36.12715367179611 100.35927396095857 M100.43372489394486 39.662693318951945 C88.27153683801836 53.28118125520569, 76.89859011588254 63.38362068595976, 45.56070151218266 98.61394877349431 M100.65113012793846 39.03208929462124 C86.38566592509913 56.086159208063, 69.98864217516947 73.8365591012396, 47.802969432051604 99.51429920816642 M100.69873577300858 50.40370718528935 C83.89173076645437 71.52780473067853, 65.77680707800528 90.11085508309553, 55.67638779632429 99.73681396731658 M100.67768774777426 50.77555042884008 C90.37420443765625 61.54840908420183, 81.90319603194752 73.17370462032521, 58.1148343026213 99.84683239269174 M99.67587014170338 64.93544237902066 C90.42497483810504 71.81019038130889, 84.21197028312525 80.74765046538117, 68.31265045778218 100.20043116105764 M100.94862210416072 62.79536990793842 C88.25801112429393 76.89107600185592, 77.42174759246002 89.48521984795019, 67.82947038484565 100.44147303043103 M100.52964709194403 75.93756878465354 C95.45278985421467 82.18096446064459, 89.53367471474576 86.63631803534057, 79.80722494488026 101.27521626901671 M100.65799357444303 75.9537053303753 C93.51879368127932 83.65611358236357, 85.90651210709534 91.70745735165877, 79.57674208546484 100.1865359229193 M101.309443702054 88.6488554958769 C97.12856326978935 90.08767108734709, 92.61315715826089 93.36107049496101, 90.12282675267438 99.68125087469164 M99.69199915400667 88.27173178620141 C96.16786754420255 92.68746872134122, 93.30087150828699 95.28752665943105, 90.25976557614331 99.61562859336699" style="stroke: none; stroke-width: 1; fill: none;"/></pattern><pattern id="rough-6243399183864003" x="0" y="0" width="1" height="1" viewBox="0 0 100 100" patternUnits="objectBoundingBox"><path d="M7.281052346612929 -0.16591110902616701 C4.626613530558163 3.031616096457163, 2.1593424462234236 4.8044733445265, -0.1343349417248738 8.493190545761545 M6.551039195863992 -0.33080277439868166 C5.139394565916923 1.9068599225348595, 2.9194266241942923 4.556223921045315, -0.09801941754485533 7.584136192422559 M19.360718795505658 1.0511952275651524 C14.006561971156525 4.597407801185537, 10.638457149718795 7.792890077215204, -0.15465849610055216 18.314226432475415 M17.856397562483092 -0.8415999711583559 C11.15935624656766 5.5854494767750005, 7.08360213000468 12.331617018313285, 0.2816166120028556 20.535319327430727 M27.269346865691293 -0.5740124122036123 C20.21686530817041 8.091010615201032, 12.933931685415043 14.751432136247475, -1.254496357620427 31.196695291810222 M28.326571277947743 0.3618148610717826 C18.307346898819056 12.348701698360943, 6.73953397023746 24.945562053389573, -0.5722308549085318 31.618544436913666 M37.50731131209772 0.7672026699875483 C27.715434737625774 10.91350538920409, 21.403217317742037 19.49216909558058, 0.8305623706669536 44.97934963112648 M38.42290112880401 0.7608067851240401 C27.299987546930993 13.110515046450642, 16.530372524206335 24.009828412322417, -0.18514195406616052 44.935512798191674 M47.30544442133981 -1.992800165722655 C32.8896600647637 19.02215616915297, 19.86638352364909 35.23592525389069, 1.4346868314910077 57.4791849360222 M49.53829259701364 -0.2126833971406219 C34.96432231717084 16.72414530088627, 21.372486781772892 32.8381447628653, -0.5859907295223912 55.99207018067029 M60.36491662908332 0.9257441667553756 C39.127452175215986 20.46794075542715, 19.185989850200677 43.442410654989786, 0.9882082799754404 69.99210616429633 M58.93155421762461 -0.36733463158152135 C42.16695851379151 19.689132690375086, 23.359736514860995 40.7818948797098, 0.036626538459279434 68.47532494630774 M70.6611841375486 0.9354360033508016 C49.691190927459076 22.44686122038131, 33.05375225794674 43.375354094334, -0.8628661669735846 82.29674896628465 M71.25840885374457 0.8224747545159361 C49.11075858462521 25.218400794248538, 28.67533132089693 48.31511241004057, 0.5784473221213 80.36639261248693 M79.31810800754009 -0.07379450594588022 C61.41975932873403 23.196521056865986, 44.3039918402724 44.575295018476574, 1.41381662436864 91.48108876465487 M81.23659422059282 -0.3873840964491788 C48.99666932164798 35.778469675247294, 16.389593196062975 72.62223320912749, -0.8307990735379103 94.01824585706528 M90.25109731799157 -0.15316000576929234 C63.507577492891954 32.24870967396205, 35.942513733957476 68.13419180392803, 4.719915422987257 100.77174852972405 M90.83370339569787 -0.1401775821008009 C60.74695693350385 38.148627123921564, 27.761485329335564 75.99448540723256, 4.522951537968485 99.3368757758036 M101.85017235991322 2.2335455396479063 C75.42541758078225 32.92656458634003, 49.526033855272736 63.278757176025984, 17.21568550007491 98.63729139963344 M100.27584795858866 2.6791389372231067 C78.57031419851059 26.325305550894832, 59.15583279141155 50.94686942476877, 16.25838205646822 100.28176807906408 M100.86321683225586 16.080122301031263 C73.85608281775362 43.70313102573778, 45.28539277727201 75.86552446932099, 24.61192243109064 99.48153400164779 M99.11858618941895 15.532506691884109 C79.40440932545765 39.010201263241356, 57.068612921773514 65.5015203543504, 24.939114212729642 99.65582946242591 M99.31409650363261 25.604356924689558 C80.76857251358952 49.307149140836124, 61.88543667120661 71.65414220677135, 36.08238553986699 101.29807820307347 M99.50733767256003 27.847429429006816 C73.6817919643619 56.7686342662002, 50.29685570307542 84.20819607191588, 36.78083077796477 99.76129482474646 M101.44678775736347 38.792527708836516 C78.68271649074319 65.07613977511414, 57.791841245392156 89.61617316910097, 45.290266852649786 101.22835461200334 M100.90410847024748 39.55823916684607 C85.89302227046923 55.047778220414585, 72.95963097597122 69.52788710560999, 48.00676961034687 99.42108500088956 M101.8501774654223 53.02984673150545 C91.06329450729217 63.88479409145918, 80.84571809466507 71.35700056710695, 56.38359631594304 101.21656650803894 M99.91923706629363 51.079149751242774 C84.96077685295525 67.5339289872044, 70.15126836692365 85.26416261386693, 57.18050401120498 100.57530263388695 M98.90391363851285 63.912337035340535 C89.8146857570644 75.95740219934585, 83.29163699454418 84.92981456768709, 68.73630985116523 100.14284829669381 M100.48723678716026 63.32784930094573 C92.61837636397433 72.2483903817869, 85.06713613031962 81.77486952732876, 68.08882264517455 99.50918164878887 M98.96317433052468 77.08300725864663 C93.60581234619704 82.49523933731241, 87.55479058081113 91.36563000963848, 77.39558449852272 99.86520477697748 M100.57454560544892 75.94735642896849 C96.59687462638517 79.85928670562507, 91.08102965379567 85.93131910335558, 78.73761810693075 100.6312312986975 M99.15761677864198 89.46359315080377 C97.92300870308927 91.69230353240154, 91.46470024084083 96.20177207207689, 90.2840183346594 98.78149752846139 M100.73421259042678 88.28277057660576 C95.60040611678723 91.86105240055937, 92.88513075126741 96.33554157162676, 88.95696819668059 100.04376921886357" style="stroke: #000000; stroke-width: 1; fill: none;"/></pattern><pattern id="rough-5214100301175229" x="0" y="0" width="1" height="1" viewBox="0 0 100 100" patternUnits="objectBoundingBox"><path d="M6.4215640995685135 0.6266469516007622 C5.106062859426293 2.35948717866435, 2.4812556363966722 5.403406295659215, -0.16072854890688237 8.51076727099977 M7.211590774301244 0.40649496401806573 C5.007321234742252 2.182609863123876, 2.497445197881094 4.483485170839738, 0.16671079277226564 8.149183359835364 M15.487331697455154 -0.16071235216070523 C13.816434938917173 6.918770861636607, 7.728421477218748 10.458463722537111, 0.3019601089102064 18.03391230483197 M17.278104312417664 0.6472729567951285 C10.197156507095494 7.902425806859593, 5.247746226913925 13.480305081969338, -0.9727184471051467 20.97398787577936 M28.373905258195286 1.2704105537750543 C21.291416870766433 9.106860122195052, 12.394382814125635 16.388954029247856, -0.010330614557741313 31.98318715298737 M27.89751718628191 -0.6531469105042547 C19.447329681789316 10.968497883156251, 11.108658356541923 20.88953549669766, 0.1040893956279687 32.361099822945455 M36.652987702369074 -0.0803649048395183 C31.129035902180476 8.825443899150095, 20.77092247173198 17.994376503913116, 0.018588618674393764 42.460538499224555 M37.809420219315015 0.7977647455807402 C26.53735765978755 13.358073045657129, 13.204128073211823 28.87365521098733, 0.3243778917460127 44.71428093593264 M48.302641343568396 -0.6773152845522139 C36.23003812209971 16.027350764984025, 23.72462046123386 28.76743919217659, 0.5633735535233004 57.4445767329194 M48.76552001287849 0.3183047512741046 C32.87920597353781 16.494900069316593, 17.812053171722344 34.13623017819717, 0.8793698140788986 56.00563844148484 M57.995354796943346 0.5792306357795844 C38.76078957962212 25.565544335714037, 15.989033760171491 50.98811502762261, -0.3826224625051253 70.56058900483734 M59.04589672335039 -0.18425901083614482 C41.08401898898146 23.259639732824226, 20.304772234371217 46.42989625788023, -0.4351797646099316 67.91284969855819 M69.78273016351686 -0.3608132629186791 C46.030760238288266 26.56660007181624, 22.677443745579986 53.26079504047695, 0.909754466878419 81.43456704904668 M71.16704464782596 0.030512689713054986 C45.62719943924255 30.56457774466126, 18.077832770152266 60.95017718442756, -0.5979729876130588 81.67288701865007 M81.8245733902298 1.338059350750501 C49.865274984543156 37.67724463917911, 17.23110002127693 70.98540222946053, -1.3718955378512305 91.60049433574088 M80.95978923775935 0.3893517187174105 C53.42831581752203 30.92052279706604, 25.39380122109985 62.17688297812006, 0.6733168377462904 93.41757264324367 M92.36718194555738 -1.6251196208524368 C58.15788442215032 39.65352989564698, 24.848288814501956 80.11859384766912, 3.386873697031297 100.8513359446039 M90.89320200947638 -0.0561640125460916 C57.393890363511574 40.6473005197251, 23.722518260455388 79.7649352107864, 5.363283923232281 99.9308825054949 M101.2455935317733 3.9428128413618104 C75.89575958492983 28.707429336595872, 53.64281587523453 55.832535948131294, 14.461899011266068 99.49244491920912 M99.67783298573377 2.371227693032002 C81.08114994688428 24.991110142386475, 62.162416085996206 46.05564030203863, 14.83685638737227 100.63721428991649 M101.79686588136774 15.824577231168885 C72.28567911662323 45.964166152991574, 47.826400095952245 77.41456472203812, 24.251095963142234 101.59723031257504 M100.41345613165905 15.252096876340804 C85.04568352098777 33.03040626664851, 70.46276445184708 49.91945434410151, 26.325567993581224 100.32565200502339 M101.30176691378753 26.800962530962334 C85.35586199667021 44.85923783474945, 72.63365387013434 60.25938944123084, 37.889798063711694 101.61006096435952 M99.73273075104406 26.46588498952736 C82.13217834692993 46.50489873476593, 65.38576808348363 67.56152317082682, 36.00060564388447 99.11384594551505 M101.09852018157233 38.46072675594809 C85.64789828184493 57.04557249862054, 71.682445724176 73.62850776954123, 45.67931307853751 100.01062838852842 M99.52471939366572 38.83828216214849 C81.15668891018831 61.68735725001486, 60.67781860179277 84.89668629238693, 47.024382499540124 99.30586584668332 M101.13954825939193 50.309936437802605 C85.84122361369711 66.30721576057692, 69.03445993560257 83.7775916566716, 58.11559802711811 98.49986193170528 M100.9882063583697 50.4052513422555 C87.97656562569264 64.03827311564557, 77.26309491360084 78.64906747791493, 56.755755743150345 100.75420200427136 M98.2937206591337 64.72098511800237 C88.46508626395924 73.10383070159175, 78.20866217263762 88.38875165464266, 70.10023278304463 100.33894126157247 M100.8384176091901 62.66192202854218 C93.24107432298169 71.04416045404052, 86.73811905108786 77.83866964114212, 68.998991336686 100.33930204553049 M101.53308123914022 76.69038591390921 C95.23444160249316 83.3989451422678, 87.89626631202711 88.1181994247807, 80.17746519887727 98.32096569037752 M100.61075911982488 76.19850091107338 C94.01704760191426 82.20968391759679, 85.77235865496651 89.90386827571513, 78.75797041754734 100.48928826048179 M100.81115741977158 88.6949952511598 C99.40379238173674 91.00154027219725, 94.75437816710877 93.57844140974878, 89.43969600611962 99.09571280436475 M99.47891585222597 88.01918513283539 C97.92655886981588 91.35391657764112, 95.8835247314454 93.61180770331225, 89.18860367043439 100.105343587906" style="stroke: none; stroke-width: 1; fill: none;"/></pattern><pattern id="rough-6519623746715957" x="0" y="0" width="1" height="1" viewBox="0 0 100 100" patternUnits="objectBoundingBox"><path d="M5.934283349617766 -0.09301953939491925 C5.102549507689278 1.706450110495875, 3.7783982187661245 4.938862550553558, -0.2787221557876277 6.819946166466792 M6.817325261626324 -0.4456413723260324 C4.544609471083111 2.6361725086010765, 2.441922661939312 5.292044620223998, 0.29251320570833994 7.559960530626846 M18.358187718675346 1.909416507260059 C11.350261060806542 7.144756591845225, 7.382452582311189 13.03569511191233, -0.6951540800081499 20.53043007079176 M17.993595840243998 -0.3256081731158269 C12.355698399807734 4.999025429881405, 8.410101430386645 8.708299419873855, 0.355353146378508 20.804812668002523 M28.2758811904049 1.034698593214613 C22.08363548313296 7.591404610866217, 13.518946612262734 17.06711044642506, -0.9407109090940224 31.404874479317638 M27.610910742623513 -0.04160050285470218 C18.706923644564885 11.00372934690702, 10.98499840309339 19.23743126765425, 0.6372920245839122 31.29263502615143 M38.46608414799009 -1.3971947931244477 C23.995371346642656 17.589970433662245, 9.813942566255472 31.33516327014624, 1.7393016377335933 43.71485902347949 M38.863188063995324 -0.12239072875297152 C30.47489507893662 10.603834589267434, 21.343571227567764 19.196508333263626, 0.0782067268585469 45.35997455378181 M49.266005083218495 -0.6713502172119794 C36.65389584713789 13.85897916165895, 25.056974106315085 26.967330464415994, 0.5528792152612345 58.44918191098912 M50.00526184420078 -0.7548286335492693 C32.12932025907381 19.594968157729088, 16.218665369224595 38.702068388471034, -0.10091569919408849 55.607795218838326 M58.69678026743227 1.7853987309840704 C41.716517987974875 21.04814001411716, 22.484853766783345 40.89135388413814, -0.1649468921644548 69.75546511584389 M60.26034351119352 0.4307878269728289 C44.432831966352516 18.902066788331446, 25.54396701958642 38.27819364138467, -0.38719752488280124 68.13354105461931 M69.52387527714434 -0.804595296961983 C53.000499013963555 18.918986234970582, 36.959780158964676 37.868761328841984, -0.15427608896829081 82.90300293361072 M71.20512029009133 -0.09136727453008664 C54.937400440415345 16.19381129322188, 40.334774222285645 33.81460585613504, -0.4597624341162363 81.44056685688426 M79.70967428911536 -1.0931655445156636 C59.072504622302034 27.882979262879363, 33.36809948297326 56.38016643324618, -0.4323147102757412 93.59586356513391 M81.16010375100655 0.6439683046926832 C60.470826828384936 24.89289599846372, 37.13533406202596 52.40677751948934, -0.4670088823410228 93.1736880683891 M89.69202617937096 1.5739190391609164 C71.48860401247717 22.793281431498606, 50.177817870136074 48.358661868708005, 4.111923522388935 100.00545861474386 M91.35516702403726 -0.4274791392332804 C61.42688794252333 34.98041685149221, 30.96143581442513 68.87558486819182, 5.494132650613015 99.07671343775596 M99.57482126354832 3.374203901253721 C70.8639488601334 35.38314003221, 44.54309435452974 70.13404931537924, 13.8024331019095 100.98280489665547 M100.69602135904674 1.772473005269152 C71.20959400907154 35.166941787341585, 45.07325006026027 65.53163105573114, 14.402509970200276 100.12171289836951 M98.27173585761298 15.78255905662331 C69.9697998394412 50.983897177231704, 40.65243093691233 84.41063187067427, 27.033687956568667 99.33829616303625 M99.37712805882308 15.586233817573198 C70.25179434715825 48.919817586003255, 41.41031456147858 80.71250222175833, 25.73871876724219 100.57468000628316 M99.73028579575397 25.437892872885797 C78.5684234728575 49.008146676814604, 60.61987589028328 73.06000206358347, 38.17410591365081 99.17232528079367 M99.7792119581484 27.916648301366 C83.8001806528059 45.31219891636831, 66.51982989851284 63.53768919667026, 36.81190984057868 100.52299262626298 M98.14211849779205 39.152662193190935 C89.42992561491111 51.44174823772911, 74.8781303708514 69.06489074074362, 48.65438757821381 101.09635374382808 M100.4917875365253 39.544748443297316 C79.30415596943854 62.40725937564404, 59.705252362341575 84.94503288042252, 47.16848979994331 100.86439196942663 M101.02623254247304 50.149924779500964 C83.24046510620049 69.88747409121324, 67.42793196253952 85.35188864663937, 56.6790003447938 100.52467703097085 M100.2487375451395 50.71536751582852 C86.67336562785181 65.8445446844386, 74.43711677572624 80.42702046410952, 58.06054863997407 99.21546163204886 M101.30166970719179 65.33659489149566 C87.86990449857672 76.60621485762034, 75.9722368576677 90.72753643391444, 70.25894617471631 98.38129879354422 M99.20352816652894 63.4886009021506 C92.44114801368681 71.81283552180653, 85.65867857177419 80.26009495800315, 67.4862359957839 100.34653284333083 M100.24083150713888 75.99592462821673 C91.52014205073138 84.4657589225169, 81.32879122256098 96.80930886284757, 76.932792142352 98.07649230442111 M100.34374554871209 75.1438070254673 C96.26879990553303 80.62366509872116, 89.56100698128995 86.7079394342541, 78.43721268089915 100.23445047983472 M98.65684362424778 88.0486268844695 C95.27573144160849 91.32554214686442, 93.98932943318381 95.36831075125421, 89.12038848980833 99.83002646669777 M99.57782626434305 88.16902841477945 C96.45916393899756 92.44703359263885, 93.81650677751713 95.1115257030205, 89.11137083290554 100.19402562206669" style="stroke: #000000; stroke-width: 1; fill: none;"/></pattern></defs><defs/><g stroke-miterlimit="10" stroke-dasharray="3 3" pointer-events="none"><path d="M 114 174 L 114 54" style="stroke: none; stroke-width: 0; fill: url(#rough-8902512383036859);"/><path d="M112.224342178789 172.86702893922268 M110.95925853824912 173.98725692112953 C110.64243947654947 128.39359115109258, 111.02880424659573 85.89396658875619, 113.33397096313453 53.825372815758406 M111.52850528496397 172.15622881785754 C112.10223583516101 141.45834974192204, 113.88748910269571 111.02468529566066, 114.42329406590237 53.91869939525588" style="stroke: #000000; stroke-width: 2; fill: none;"/></g><g transform="translate(48.5,137.5)"><text xmlns="http://www.w3.org/2000/svg" x="15" y="-3" style="font-size: 12px;font-family: Helvetica;" fill="rgb(0, 0, 0)"><tspan xmlns="http://www.w3.org/2000/svg" x="15" dx="0" dy="14" text-anchor="middle">name</tspan></text></g><g transform="translate(169.5,137.5)"><text xmlns="http://www.w3.org/2000/svg" x="14" y="-3" style="font-size: 12px;font-family: Helvetica;" fill="rgb(0, 0, 0)"><tspan xmlns="http://www.w3.org/2000/svg" x="14" dx="0" dy="14" text-anchor="middle">"text"</tspan></text></g><g stroke-miterlimit="10" pointer-events="none"><path d="M 84 144 L 157.63 144" style="stroke: none; stroke-width: 0; fill: url(#rough-3120822195415125);"/><path d="M83.44192046979717 142.98520379110383 M83.24448191427737 142.47495478479172 C110.96086151177698 144.5408529108109, 137.8734422455808 143.94833608078406, 156.1675347393399 144.62569091787057 M83.03062797611749 142.12371884361545 C109.50936518954187 143.40917738290452, 132.9485117655665 142.90239237766008, 158.56507479369597 143.26684016596744" style="stroke: #000000; stroke-width: 2; fill: none;"/></g><g stroke-miterlimit="10" pointer-events="none"><path d="M 162.88 144 L 155.88 147.5 L 157.63 144 L 155.88 140.5 Z" style="stroke: none; stroke-width: 0; fill: url(#rough-4879475529353557);"/><path d="M161.9866331231531 145.25661513208357 M162.3282687767748 145.64641675078767 C160.19287852919157 146.04040874967257, 159.08009075615507 145.5803361715326, 155.8322561749202 147.89824928504697 M162.05122763877552 145.26465480171524 C160.57258992878457 145.95365422162595, 159.6247696724193 145.8581861728551, 155.75133264722533 147.52791087884245 M155.7297980623967 147.44944115737928 C156.0790859575798 146.78872797525383, 156.52466300706214 146.28699745815473, 157.91190119050083 143.76223383768772 M155.74766666027148 147.4254149526498 C156.4035808878754 146.01344071032196, 157.19207019247378 144.57275990852852, 157.7314366073585 143.85624337525957 M157.9045623175592 143.85559535272438 C157.20885488451034 142.93335832368132, 156.10322452590324 140.87217618263716, 155.60433959076147 140.43993612897413 M157.81390344557593 143.94916338797728 C157.04758888084484 143.06345161661568, 156.57052648181158 141.68095893602458, 156.05527014386917 140.69482692616305 M156.62269972428857 140.8397580993065 C156.82986281117556 142.1170216532314, 158.22085311436385 142.40480629397638, 162.10144422034548 145.5725914116758 M155.7495614541258 140.27202953480094 C157.736209791911 141.92669086068918, 160.2455373127371 143.48424338207104, 161.87530704595767 145.40538031839117" style="stroke: #000000; stroke-width: 2; fill: none;"/></g><g transform="translate(37.5,7.5)"><text xmlns="http://www.w3.org/2000/svg" x="26" y="-3" style="font-size: 12px;font-family: Helvetica;" fill="rgb(0, 0, 0)"><tspan xmlns="http://www.w3.org/2000/svg" x="26" dx="0" dy="14" text-anchor="middle">Variables</tspan></text></g><g transform="translate(164.5,7.5)"><text xmlns="http://www.w3.org/2000/svg" x="19" y="-3" style="font-size: 12px;font-family: Helvetica;" fill="rgb(0, 0, 0)"><tspan xmlns="http://www.w3.org/2000/svg" x="19" dx="0" dy="14" text-anchor="middle">Values</tspan></text></g><g transform="translate(29.5,97.5)"><text xmlns="http://www.w3.org/2000/svg" x="24" y="-3" style="font-size: 12px;font-family: Helvetica;" fill="rgb(0, 0, 0)"><tspan xmlns="http://www.w3.org/2000/svg" x="24" dx="0" dy="14" text-anchor="middle">oneMore</tspan></text></g><g stroke-miterlimit="10" pointer-events="none"><path d="M 84 104 L 157.63 104" style="stroke: none; stroke-width: 0; fill: url(#rough-8193073065194875);"/><path d="M85.07715058701147 102.31152889279308 M84.97850191658854 102.07907401081404 C99.30696108165813 103.41188006250366, 117.08627358723638 103.9136896632968, 158.91215534732305 103.32605574707841 M84.58088812186773 102.79209259881175 C112.12761383134065 102.12633430142225, 138.15702570390542 102.88098102885816, 158.5874136837921 104.72015829297098" style="stroke: #000000; stroke-width: 2; fill: none;"/></g><g stroke-miterlimit="10" pointer-events="none"><path d="M 162.88 104 L 155.88 107.5 L 157.63 104 L 155.88 100.5 Z" style="stroke: none; stroke-width: 0; fill: url(#rough-6243399183864003);"/><path d="M161.78423387972364 105.46914976278268 M161.75264847786886 105.34686293269131 C160.48307515500986 105.5581570540815, 159.46733418924845 106.7131943451706, 156.08688840298575 106.91687674205309 M161.91814149506732 105.61766365855784 C160.62900022530584 106.10622528578371, 158.93507082702257 106.33576024371143, 155.56999725032145 107.49886969284132 M156.1077591934627 107.53563918585608 C156.766197153349 106.65293106288861, 157.22884059219078 104.97425221008194, 157.52358457768526 103.93585894317738 M155.78224834441625 107.31685723623603 C156.4934568068426 106.12647205817203, 157.2467010657322 104.68946256883567, 157.53867108624817 104.0127380496457 M157.98580833392603 104.1441671882456 C157.05279881339106 102.38048324027537, 156.46179416421353 101.20326795739484, 156.01478115208383 100.64859072994123 M157.5225436081878 104.05678427652158 C157.19600989518256 103.39788030075215, 156.9441201021873 102.43927476372458, 155.7625102478356 100.39567285280437 M156.05027574069004 100.404778573371 C157.45798693296837 102.46888160525644, 158.82705458435245 103.63543236958824, 162.33914861219623 105.00208249136145 M155.87799839889186 100.17917779887719 C157.09312050515106 101.67715098144754, 158.4729384840335 102.9289655716449, 161.69342121612596 105.35079022706414" style="stroke: #000000; stroke-width: 2; fill: none;"/></g><g pointer-events="none"><path d="M174.86178431151376 94.1293708962329 C169.8603997087076 98.09963598979856, 166.50011031983374 101.26522666707918, 164.50199124610805 105.18811312413531 M173.45625530864987 94.46618843250182 C170.6787016287326 97.6428412675547, 168.33164575766853 99.87497697418273, 164.06799682163654 105.14351663285855 M186.20165472243383 93.93987318492174 C179.26382435364366 102.07956249169371, 171.55135956201275 109.47617965602996, 165.85087006284235 115.53470385389869 M183.9861370951137 94.24435644952149 C177.8684430222433 101.63957014028361, 171.492530795977 108.81805049639821, 166.4482445950378 113.94109606284589 M193.42029073138013 93.26569886635063 C189.54436141785882 100.34440291755557, 179.8647997482087 109.92223256728747, 176.36345600994574 113.56440444260241 M194.96927636400494 94.39229089798954 C189.38809931138132 100.16252907521357, 182.57361197923268 107.90336360296331, 177.5233605663404 114.13960232461498 M204.47708135337325 92.3085316045302 C200.29782443690857 98.77488646973723, 194.1776837054036 105.0783063134678, 189.48372802310453 115.31766806519127 M205.90617399804415 93.24032678691303 C202.15079062729743 99.2335535732777, 198.0545999568102 102.46499286345136, 187.80038139018393 113.9176503331922 M214.31288461306573 92.13140916611228 C209.78253701214874 100.77717878580359, 201.17748613687164 110.9945524143169, 197.3467655883863 114.3077038461488 M216.3897476156244 94.50847621291405 C212.15626570387627 98.80673071727477, 208.14284347192955 103.17101977462329, 198.85558076774245 113.29812894797055 M226.10321796505227 95.56466649821289 C220.97333037371078 100.89116039487605, 216.42806494528892 102.01267818663452, 208.79108889004524 113.03447483261559 M226.01954933715527 94.03602090348963 C224.19396450445046 98.70613214757358, 219.96765050719677 102.90790465575265, 210.34760765898676 113.97651780445864 M235.5216303000165 93.31239901142398 C234.44329763204502 100.61649482398761, 227.3423835584841 103.65036492952667, 221.09470787032927 112.19021622049404 M237.67306152406874 93.25955269954677 C232.58762851636854 99.09457848508386, 229.23310110866475 103.60462766707259, 220.33406455777913 113.95157881509184 M249.88936298072005 92.06749292430827 C244.0738846208319 101.02396420536097, 236.88286216364935 104.6223749653811, 230.8752377296292 114.97247443091318 M248.3530808433462 94.49583607394828 C241.41556286105438 102.45786646249404, 235.26005359340232 108.45374414074179, 230.99687150337914 113.59130640964065 M253.7317194248073 100.00154301765673 C250.7420976222489 103.45840444929064, 246.94569262155855 109.67043281908484, 239.37764749725807 114.43555706926021 M253.4788109273532 99.49311612342396 C250.50269621171407 103.20307953883432, 245.37766088508735 108.49273459199043, 240.5048961718538 113.54524024986787 M253.98188327990846 111.3720809630702 C253.63062056753395 112.0284421738154, 252.7004072023236 113.10019083455695, 252.0180608046121 113.71693560685755 M253.92202879723015 111.3547025102479 C253.20181609837633 112.52269079677656, 252.5158302808306 113.21525628523875, 251.78195886265289 113.85592498988566" style="stroke: #ffffff; stroke-width: 1; fill: none;"/><path d="M163.58826935618796 92.4700557055909 C193.83469433408087 93.9549086655789, 222.01239228771036 95.0762655135421, 252.8569817400959 94.14730663716645 M164.95473758310757 94.48505376172588 C193.74723736831447 93.95356190013739, 223.1042334934757 94.40061277536147, 253.49548286377228 93.47907983432493 M254.9522533028703 93.88780888830708 C254.3747200519617 97.19024500339464, 253.37503580202917 103.74131429475162, 255.6800500739112 114.93005785522986 M253.8564412767023 93.76499501529281 C254.11886498985754 99.1463889155247, 254.1584839440079 105.25596025582207, 253.54527542752155 114.46285585177188 M254.12988373226938 114.86278211277745 C220.62214946498187 115.24359438240323, 182.41962242821162 113.73359911611384, 163.2397994185482 114.34057268687356 M254.51598616075856 114.20418882713498 C224.14495976536833 113.2802550490039, 194.23990701707308 112.88874190349107, 164.10105407164494 114.42936215707716 M164.89994761921002 113.72761637982904 C164.97306524330762 106.63850260448453, 165.28658435262167 101.6167756304099, 163.389766998126 95.30720432104917 M163.78165646240615 113.10431830725169 C163.14230163516956 109.05421560949236, 164.50248358133476 102.48447275627778, 164.12036469021842 93.73252447369676" style="stroke: #000000; stroke-width: 2; fill: none;"/></g><g transform="translate(168.5,97.5)"><text xmlns="http://www.w3.org/2000/svg" x="40" y="-3" style="font-size: 12px;font-family: Helvetica;" fill="rgb(0, 0, 0)"><tspan xmlns="http://www.w3.org/2000/svg" x="40" dx="0" dy="14" text-anchor="middle">...instructions...</tspan></text></g><g transform="translate(7.5,57.5)"><text xmlns="http://www.w3.org/2000/svg" x="36" y="-3" style="font-size: 12px;font-family: Helvetica;" fill="rgb(0, 0, 0)"><tspan xmlns="http://www.w3.org/2000/svg" x="36" dx="0" dy="14" text-anchor="middle">anotherName</tspan></text></g><g stroke-miterlimit="10" pointer-events="none"><path d="M 84 64 L 158.17 96.45" style="stroke: none; stroke-width: 0; fill: url(#rough-5214100301175229);"/><path d="M85.85755910800066 65.769783643969 M87.34406849470973 64.70120599830872 C107.42586426613757 73.94641875240772, 128.7341201584546 81.6140528526713, 158.97893176377536 95.96802453526772 M85.67440557074944 66.55957899531239 C105.60869342835457 74.08442075034543, 124.01779655473918 83.56488305514114, 157.97645026748935 95.78391398459452" style="stroke: #000000; stroke-width: 2; fill: none;"/></g><g stroke-miterlimit="10" pointer-events="none"><path d="M 162.98 98.55 L 155.16 98.95 L 158.17 96.45 L 157.97 92.54 Z" style="stroke: none; stroke-width: 0; fill: url(#rough-6519623746715957);"/><path d="M161.98755254625593 97.02241615375016 M162.03297429499213 97.30369868615175 C159.5309699174556 97.53086226972157, 156.93893301429748 98.92683372110342, 155.4301052369969 99.23042562446702 M161.82309880692307 97.27344746341883 C159.28213972907352 97.94457706933505, 156.5425101935022 98.30938282953997, 155.34278085367592 98.59667083554012 M155.13696973996116 99.20006941672173 C155.59125178932624 98.5787310994726, 156.5057588324083 98.00211619174439, 158.00745352599307 96.20855781546865 M155.255076507959 99.0316841629862 C156.0439193420381 97.99559960808725, 157.25857391629168 97.11618123624672, 158.3290252058171 96.58948142148638 M157.8160006731744 96.39775759255532 C158.30757815404078 95.43227421978463, 157.82906500631108 94.74405167874876, 158.2955498135308 92.41260154281201 M158.3510694736165 96.31924750041831 C158.00049604827637 95.2892383680369, 157.90557318690793 94.59630115434274, 157.98054652977552 92.57098277542383 M158.53885693750163 92.51114852917587 C159.36127311894646 94.0040772151058, 160.6899256192155 95.53292042662656, 161.81295423770393 97.25283553980842 M157.86677851583025 92.83756765169473 C159.54653115719557 94.28423266533028, 161.24536156730477 95.7946699038208, 162.0398860458977 97.14166828292817" style="stroke: #000000; stroke-width: 2; fill: none;"/></g></svg>