<svg xmlns="http://www.w3.org/2000/svg" xlink="http://www.w3.org/1999/xlink" version="1.1" width="349px" height="190px" viewBox="-0.5 -0.5 349 190"><defs><pattern id="rough-3479903281980841" x="0" y="0" width="1" height="1" viewBox="0 0 100 100" patternUnits="objectBoundingBox"><path d="M7.641499996937846 0.11473928972234293 C4.212479936820035 1.4688530618086877, 1.7863857339663158 5.589836871369929, 0.483868697666078 7.828487130678114 M6.996714832571308 0.15866576151066125 C4.0750559509331135 2.8064681336666917, 2.515261105631933 5.747262532500089, 0.17155978949308526 7.712246409008981 M16.270630063134426 0.6456040913048051 C12.870456248636852 5.523492434002481, 6.56751445377281 11.840813100344853, -0.6865022849133569 21.8872263094968 M16.974888762886938 0.9312851259362906 C10.627027696331943 5.640271051154975, 6.917271915830609 13.86842663067347, 0.3702974803981598 19.683257191300346 M27.9260672303826 0.6966009249483216 C16.71387196455948 11.480759056280613, 6.936198537937529 20.448785309779176, -0.030889835355528028 33.00519571049589 M28.7969306417001 -0.6893235842891894 C20.023845513225197 10.23896003213289, 9.896963954280032 20.102447155181252, -0.03293844197909612 32.63187327143287 M40.534363064836114 -1.7614716793627094 C29.010744966091462 11.540186115284023, 16.69014670597059 23.9071533005825, -0.33622677464232886 42.64838202876598 M38.71237677141395 0.32296505879857174 C30.470556312744478 8.571220626932584, 23.539532650666796 18.076261216585614, -0.6470852600392911 45.34425214498365 M49.34136594488336 1.0803344520836928 C30.709901342911976 22.404236713460932, 8.862440467245943 45.827419947052476, -0.7730057703440787 58.35145501782529 M49.7537390681219 0.4250120836151381 C35.9755781548871 15.232266058485044, 22.544639600426244 28.39845877048725, 0.5207626578374516 56.966969857821624 M59.97595928217178 0.1473274649204983 C48.880501863738566 13.436004830063656, 33.84875472089353 29.263443131413993, 1.563168465223451 67.39989824963213 M59.804071213825935 0.28685532608986897 C43.25894508282792 17.698109183597886, 27.279663535409167 35.4580318941946, 0.9549434330187698 68.49168947952509 M72.14003931764287 1.0931571547138619 C47.06987554533849 25.014868350784134, 25.529244115468416 51.40889520431847, 0.8778638315182121 80.36153445887795 M71.20015701898294 -0.9903522872371466 C54.369650978620584 17.967577468729335, 41.08541896358107 34.965429579759125, 0.243965888836847 80.97976467504095 M81.47693154945209 -1.94653537977974 C55.03737038795283 29.952712635042914, 31.746007733177343 58.37638110097689, 1.9346870281498312 92.61315793836485 M81.92471063449959 -0.6745565106287814 C61.14141792445617 23.38116665922504, 41.42086059194072 47.16204192950523, -0.8749829703696554 92.20621679303038 M90.08590963260345 0.06896551049795097 C66.23654532780934 27.485919274512163, 45.3970789507229 55.48206797110762, 4.05392324961962 98.91597691983151 M92.39267898981562 0.15672307720904355 C70.48223624896711 22.06226526920182, 50.20637759779594 43.758972972439054, 4.00800940871299 100.90197680026317 M98.69525314374998 0.701803215397435 C76.97032811184512 28.99939667413355, 49.813863983711926 60.35026451324826, 14.913704222337289 99.85596603423227 M100.98978646153591 2.6409392073828934 C67.1066120556098 38.70927565497345, 34.74329044963249 76.30823323371747, 16.168726975807175 100.22208624030195 M100.1889083517142 15.780786831528484 C78.40964617376277 42.74372177172934, 53.50873538541742 65.39529858742453, 26.56461183715667 100.38491718879584 M99.97068224412516 14.995239813191361 C78.265024800066 39.18046602307625, 57.61677278277773 62.86516623108894, 25.24484934115651 100.60525671261473 M100.1264634640688 28.495543341281568 C78.78933913272438 49.604147108468126, 60.00908926399587 74.74107684747443, 36.765357788253446 101.2112785053861 M99.47838057514578 26.557444332985032 C86.91325474332753 41.259615463407215, 74.14378841564405 56.0377390652941, 36.71310878069725 99.34848864393783 M100.80928060584603 37.69289025193595 C86.17373404107609 55.3777457698655, 73.18456671937341 69.36700991478716, 48.472512858199 100.74335660143532 M100.22330888382989 39.557829581457874 C89.2239750418645 51.85103716746063, 78.08792327536878 63.49188025543337, 47.00297564317079 100.89547301738568 M98.83739937169592 52.99527905227924 C92.3273836611406 60.28221925034883, 82.79779745437436 74.00292338623794, 58.68825703397444 100.97722804303213 M100.56192309373515 51.25388400304794 C84.4872552334769 68.85029099737123, 69.55940284201984 87.3512465243055, 57.75224563657623 100.76825529423137 M101.20788669952786 63.5256727530588 C94.51827649242136 71.09887859794435, 85.71469097208343 80.83489200389756, 69.01529826208366 98.5661045779117 M100.67261475584486 63.82312152410083 C89.04919791784869 75.8454443242764, 77.79382099506617 90.01669827994535, 68.37626392253334 99.95215074068707 M99.37293633987363 77.56411287434607 C95.16036732725104 80.55205426154853, 91.22406783622016 86.00403900519635, 77.32576261702343 98.26864016258924 M99.93420804590453 76.25848732270099 C91.68449231466256 85.2199392490833, 85.32503652200596 93.30202165466186, 78.56910429297012 99.60455025399034 M101.05717254378192 88.85003881259348 C97.43828955947778 91.28394571225157, 91.64482467254558 97.47966597265244, 91.04348233774361 99.68187297078785 M99.40852128159293 88.01551840798186 C98.24217579511064 90.73218856421799, 94.6887932720041 93.28985097111978, 89.22831567685053 100.09779934246602" style="stroke: none; stroke-width: 1; fill: none;"/></pattern><pattern id="rough-7466509667992283" x="0" y="0" width="1" height="1" viewBox="0 0 100 100" patternUnits="objectBoundingBox"><path d="M7.088883937317088 0.05896729430971126 C6.020144091748422 2.377881771115439, 3.958244411559102 4.1779199763706885, 0.9205747547641305 8.168625548170592 M6.971685075873079 -0.12271505461863402 C4.373897809533192 2.6728559715291578, 1.6745936628086853 6.169115286542685, 0.4035673133784228 7.667732119734082 M16.069469284552714 0.5649879113033833 C14.178571271258669 5.175807489882892, 10.141851990190577 11.158881812325294, 0.983208993905949 18.26490457701124 M18.0918198203858 -0.43098258940426737 C12.419001874390863 5.992788148236147, 8.687584364711878 9.911567592310085, -0.1848844747515943 20.091529532445723 M29.112581580739633 -1.2244504529026914 C20.698594803682937 5.558874150207421, 15.117505897053434 16.545231597567565, -1.6855648472595828 30.98757199196004 M28.3517548406694 0.0536937622329452 C19.301766710558603 7.984866730501727, 12.986519751972253 17.62014373899685, 0.8867859623024796 32.92325088253551 M38.4702731348252 -1.685244767666636 C28.355427186275904 10.511568376462236, 21.473331210232942 21.980856339310073, -0.8514228943485316 44.64363599999158 M38.1903247743748 0.9807498006341837 C30.92015403084908 9.46676056196361, 21.6664933329481 19.752361724704873, 0.4531166773438451 44.519708164624014 M50.320929618566424 -1.5890917978008652 C29.079804747958384 22.364374816287174, 11.99488130570168 42.45801650561626, -0.07021435393562392 57.70897127954944 M48.48201980607636 0.2419492515948405 C39.438515710002164 11.33470408478587, 29.217009131615782 22.39957014039382, -0.6464924349298231 57.59030288433099 M61.24797361666467 1.8880200547678259 C41.455368474537224 22.082879938294656, 25.103095808000106 40.044573403467126, 1.2504821825564463 69.44902310901274 M59.93115320720569 0.35464901795197346 C43.24176778484619 17.59329078456352, 27.255296227293858 37.46677540769898, -0.22698645881210622 67.83912671509758 M68.87904930736572 0.3129776754246594 C54.917536250038836 18.063659407960515, 38.644465845681864 35.285781768119634, -0.45011911680255867 79.36732227607061 M71.15923422698806 -0.3874957057553936 C43.40495866661581 30.88515380126518, 15.05359588341231 62.640608440843835, 0.25542548825211187 80.20097358624675 M79.70552556885438 0.07299835233333773 C59.330523523980716 27.227209769074314, 33.62921847288175 52.14363171651904, 1.0362362661780047 93.75325530802517 M80.20143100962545 -0.5232537933031551 C54.346337387810195 29.953034275627957, 28.905016548642713 60.33170379106775, -0.699555222435083 92.90312437762853 M90.67421159355224 -0.31761386223254817 C58.22536691759784 38.22540143708467, 21.96250032414987 79.03009196870921, 5.370438432307606 100.40435153892861 M91.98423562407538 0.6490818452217462 C71.8022789286401 22.871063341694, 52.278799750771455 44.03477475206688, 3.753532729191344 100.02827957823509 M99.74056555273779 3.528235241070984 C68.41148769380825 39.014552106101746, 39.51717349404524 73.71523116519792, 15.662075332604509 101.54103442726341 M100.78654923873184 2.1702446534192035 C76.15887624698439 30.443459338207116, 52.09992956736638 58.1244418238597, 15.177783746012686 100.24684343896305 M101.75633790694377 13.303317214804377 C84.40384402128474 35.233293855491084, 66.64567409095648 54.16795919537109, 24.94430081181317 101.30054285411249 M99.0151606361422 14.140597099157628 C84.04588769422828 31.76743986593537, 69.51645287185828 49.164121970165006, 26.550672234228998 99.2354038084201 M98.5815903586292 27.747830685151662 C79.59468027106409 49.5025909048049, 58.05933491298693 74.2690736170625, 35.147985197982976 100.24532797134675 M100.2414269793459 26.698324886693204 C84.91839240394988 45.318433281851455, 67.76199494087727 64.51648613293516, 37.24518665783668 100.10055124080766 M98.87253672220214 38.79124359489718 C78.03709841722203 62.85417599689357, 61.743416906176826 82.66808938242006, 45.08837196947748 99.44515973624537 M99.81970945551235 38.848108381578776 C84.21348904525422 57.30404314470069, 67.14770992547929 76.63490629671459, 47.84635704911222 100.76076662970307 M100.89579001723118 52.062881362079914 C89.12522398355537 63.5993611443929, 79.50068618765258 73.40231129995401, 58.68184255472379 101.75664309487298 M100.59691655543816 50.87328364266304 C87.02522129965337 66.1664747580011, 75.9587979111935 78.79801989487733, 57.19978448778644 99.14256546122549 M98.07094965369856 63.44292374679742 C91.7584567194932 75.38540291248489, 78.85600990809642 84.31949168488727, 68.7264901097986 99.73675872342423 M100.79194677936096 63.02112224132074 C90.35042868740908 74.25246737421625, 79.82077375231385 88.1824880366061, 67.28450860960784 99.40767975111608 M101.65066041456564 77.56159412922766 C94.73365619685674 80.45840107128704, 89.03026536612013 87.07933764597593, 77.34875636670024 100.92035595896529 M99.63994023196396 76.37835349113092 C93.62305986721185 84.05945044089076, 86.59954174922743 91.69075797525309, 79.74435414731641 99.17165586482648 M100.7159510852412 87.09759805609441 C97.57648461408569 92.67996347747243, 94.11409606050762 94.91785150833063, 88.5579591531993 99.46985980352277 M99.75707225263088 88.028365373674 C97.76555100582173 90.69667417132568, 95.09638020770676 94.83900401217362, 88.78163626984072 100.38914806359416" style="stroke: none; stroke-width: 1; fill: none;"/></pattern><pattern id="rough-427024531384779" x="0" y="0" width="1" height="1" viewBox="0 0 100 100" patternUnits="objectBoundingBox"><path d="M6.359553255867514 0.00893735710935828 C4.8558961589160905 3.6406647081548487, 1.8705336635992689 4.778753684024448, -0.16442464067824247 7.813816384293332 M7.060608126325789 -0.08382437930682535 C5.143782555350082 2.9595456087510774, 2.3721864975595643 4.979046676672854, -0.2784292267428552 7.595354346226457 M16.106501630475126 1.0233022754961736 C10.209865078243674 5.52292426416112, 5.744282828027782 14.419265177961577, -1.707450522010503 20.703546941488984 M17.918918936780507 -0.594927902963486 C14.253917607691942 3.8453383268975845, 9.370467810328897 8.201748899197637, 0.914440725982105 19.204336397792137 M26.405950396698806 1.2775516817887658 C21.689437579033 8.308430562706853, 13.54044185414216 19.65823760785934, -0.34861056012139446 33.68278928611744 M27.003853732330864 -0.9083877807040737 C19.72274636270245 8.170434289537063, 12.867323952743057 16.62336206082876, -0.5442769063966537 31.50900867121265 M36.768548794975835 -0.31375638908388126 C23.820176393019594 14.844550710592092, 12.46174410975235 29.459750483596977, -1.8506915659601306 44.136303098345024 M37.74407234654187 0.6710376256896016 C26.73765320058617 14.62724327571887, 12.707755391862898 28.00940888789293, -0.30701895655934663 44.76022153078814 M49.43526657016448 0.3748355707808466 C31.605183706235245 20.361893872920163, 15.14605065431303 40.239903031895714, 1.2461838088784525 56.590781202271394 M48.38182800860124 -0.2894341399630722 C38.28085860185757 12.726616427883986, 27.74735688740602 24.557747949183813, 0.23720053675709263 55.977743563552224 M59.96836807790361 -1.6527746661807843 C39.93424860372189 19.119361509647614, 21.518248936396105 43.77723969983702, 0.00578996681643229 67.06315935618805 M59.07318602308951 0.9760242138699766 C44.20519585821103 18.255834190906434, 27.201164760805195 38.16417887994521, 0.09054280045424523 69.48996920483 M71.69845873122443 0.37053681555925433 C53.49785583744567 19.227183159706353, 34.27794769573068 39.24701641238994, -0.7344033464349575 80.21607152398234 M71.14387240274054 0.45158509085160015 C49.424653332233085 22.36901507519211, 29.312705702841548 47.47291277485613, -0.07605450311479167 81.1647411175452 M80.04263994899523 -1.8448709110706147 C48.07836555562398 37.30275239052675, 18.23347085855888 74.88446293076015, 0.07270660830235887 91.8275516217129 M80.61195647158345 -0.9817400937543517 C49.647478517592276 36.361366823907325, 18.595110662234454 71.46053596927644, 0.3176547266464329 92.36246999348694 M93.34938431605144 1.0421561313110779 C71.41866031338392 24.6019586953276, 52.16809461369776 43.32241829785748, 4.933041935290497 98.42501893041958 M91.921455699962 -0.8473733152542224 C71.30450032077256 23.99898655296961, 52.451893044508026 46.18703144877211, 5.188415227928987 100.99312483413438 M101.33251925848369 1.1761371237582994 C70.46457292929045 36.713854266070385, 44.559791932950525 66.00626343543269, 14.074109082649038 100.501107438269 M99.022053564262 1.5967472871260302 C72.26626309281683 33.60031787129391, 42.45753729619215 67.17624307650429, 15.103933955456188 100.51013834647232 M98.46621829149217 13.07797926807015 C82.52648971370266 35.75930414743849, 61.707128487063116 57.42325121933631, 25.72550135740153 99.2843949043544 M99.98865447622094 15.294501471095135 C71.36227556828682 46.18331085276258, 43.86697138759563 80.65988659321116, 25.36518999496506 100.67711770461686 M101.86217717737037 27.364332112819923 C77.73908092805368 57.04915682463475, 51.15713412995592 81.53781765350973, 36.32975071873734 99.83705232560813 M100.89711211789857 26.862161607277184 C74.91413666209974 56.51538543711997, 49.79898493695248 84.14987996331548, 37.22943626174451 100.63220463994088 M99.64357176233038 39.398434620746514 C79.66554804275177 63.388008579218194, 60.79438726282147 86.20500090482142, 45.33358179519855 100.61761006050561 M99.44086835738833 38.4010950261397 C81.45674966853872 59.343815317460525, 63.77757878101277 79.60911732485921, 46.927418466190204 100.83062231430219 M98.81634353258423 51.49520667284258 C84.64228587062678 68.31369068447347, 66.67338219641232 89.32460476439665, 57.0358273613274 101.14057111323787 M99.92708380958243 51.31359702268749 C85.27608572206589 68.49567420642322, 70.92511160690482 84.71460399678253, 57.763880926176206 99.28091525572799 M99.42555801531103 62.04944309446506 C91.68717264349782 74.9242590891835, 85.0757870808335 83.73501822981542, 68.96884590911819 99.2314168873155 M100.38191861630848 63.3935246360988 C88.77698148202786 77.06522058942232, 77.75087608148536 91.04789877683558, 68.58938958215664 99.4528092008457 M99.57569221595249 74.36803206595775 C92.97537304251969 82.83669208225602, 86.42642654456289 92.4079357293069, 77.03466384085513 101.68595229073195 M99.25035882264011 76.32100932724805 C94.98663620540985 81.91929615368029, 90.02534821960116 86.16266070385697, 79.58620974232282 100.53941528498132 M99.68268774283187 88.07894994318795 C98.82083761420988 89.07460536070822, 94.09104143664061 91.62792213668831, 90.28882362704712 100.03550940179603 M100.69088457096319 88.0164912233449 C96.63734480262744 90.89460556851147, 95.0191655437166 93.71766616407157, 88.93261242523621 99.33254920701627" style="stroke: #000000; stroke-width: 1; fill: none;"/></pattern><pattern id="rough-2669218169824377" x="0" y="0" width="1" height="1" viewBox="0 0 100 100" patternUnits="objectBoundingBox"><path d="M7.101909582529721 0.6003124052794893 C5.755772451803643 2.3427101532839467, 2.9453000056508287 3.168619206935745, -0.4996914926046231 7.782606833594282 M7.222122642043116 -0.029734970419148965 C5.60583630364701 2.3386484862518246, 3.7929339947031293 3.4308148073159535, -0.21272425954776275 8.33349860855255 M17.81964904361744 -1.5923237681499645 C10.740233578394882 9.365129873396787, 3.5800097772327764 16.731187638761806, -1.1276981239497497 20.80988602518591 M18.076602536895756 -0.0221629443078859 C11.719200504861668 8.00810313733559, 5.336065636851734 15.40600808124211, 0.3128620821623347 20.1679236329606 M27.493587668629885 -0.22859737110902767 C20.874114953414015 8.647759345367156, 14.237298326383485 17.291386533959205, 0.2550346399402432 30.46713438196891 M28.05913187621045 -0.13868579880712728 C21.347942418101304 8.447511465942895, 14.64341983485551 15.738206969017405, 0.3822246456568337 32.082354046977066 M36.92576148687954 0.41719180481551366 C25.471388177855033 13.473471017718822, 17.02002828783235 23.851162087456427, -0.4681925171175516 45.02011389196076 M39.38090524677155 0.6411435857400178 C25.07667519280214 15.580529375280719, 10.746832696706345 33.26558875994122, 0.18288868278609183 44.10355906522934 M49.01346084610298 -0.4379309130825302 C36.06844688383881 16.0749448657201, 22.014728222461336 31.444888163520016, -0.942625665064373 55.58309652017324 M48.575216733023574 0.8798910574751888 C38.77063787136345 12.771307019138543, 26.785353514686346 25.88118967583797, -0.9400966761873795 56.19944715527468 M58.68561013725801 0.2320377090599557 C42.14485307388196 22.301005015009416, 22.532158266815696 39.96328682016577, 1.3455875385964857 68.83184884970608 M58.931340325892336 -0.6347424565841147 C42.67328756790664 21.984075206339575, 24.05925025361982 42.205708925760206, 0.9661979461835353 69.68771414958418 M69.760011102407 -1.0493945647920624 C49.36517094186336 26.216143298961814, 25.017503922381206 49.04491546190282, 0.5971708918442484 80.3322158681924 M70.98185077774814 0.7799710628019731 C44.565707111426455 28.478940245763255, 19.870260426293356 57.720419101415125, 0.1620360880141618 80.88682957469351 M79.58194840340506 -0.9642249410922954 C51.101075746024385 30.484225326611305, 25.066743070007576 63.80203235928724, 1.0843507345831407 94.11986657087131 M81.58294602858997 -0.3223364635817898 C55.24868984398838 29.587804630682708, 27.67374405588087 59.43058845994178, -0.07478092412309856 93.7221963752667 M90.11233958904563 0.35038118069473967 C67.10259149161648 31.135663962324145, 39.56604637646107 61.28896214401005, 3.5308475137441313 99.93035156270885 M92.38721596250333 -0.13685161095353315 C60.727658328957446 35.50045233934968, 28.25279280824882 74.21025854811771, 3.8555765323243305 99.32113243224427 M99.235656546838 0.8662979149303176 C82.84686669908663 22.034964717766627, 64.13292276458625 43.63329465644729, 15.090576734634036 100.59193426690607 M99.8045918353858 2.8623521373335854 C81.58219371476885 24.7270407342041, 60.72482032721617 49.23094988707786, 15.492557600476278 100.02986979036808 M101.09910616834038 13.164556714093688 C83.54310225637424 34.52051957105231, 64.71812330302836 52.187606750732996, 25.96238548796365 98.13511441197552 M100.00613840655738 14.07153446972699 C75.53217292895016 43.15728566929008, 52.10513933458023 69.99269333843709, 26.66109629018806 100.04920030077818 M101.33297454846576 28.30605712802362 C79.89080525689029 47.544631633333964, 64.57364492691651 69.62220223946322, 36.091343382234015 99.31711310030855 M100.33719405417054 26.371083233630017 C81.92521054200004 47.4867226762952, 65.62784457253468 66.29493619933334, 36.12718764978807 99.84339463230482 M98.1373367970577 40.25160403302152 C81.81386118649627 60.20293852143268, 58.63911223268102 82.38231751890116, 48.205410946374336 101.67710034171715 M100.17626220461987 39.362690024130714 C84.94103969658931 57.20400155056756, 69.36462617513185 74.66693126225042, 47.02577848834929 100.8821087024081 M101.69273225313565 51.42127925953817 C89.85967949469983 62.28720784725472, 77.88711972160894 75.86637759645028, 57.623949582053996 100.46116796206243 M100.44856404918649 51.48721122758212 C87.81258900406627 64.02541501438384, 75.25760615224945 78.55115036436011, 58.29087752810972 100.23189714775128 M100.73828570555314 63.164835864291 C93.31953075357194 73.16723168148023, 85.60101122365967 81.49143779276673, 68.7378830106984 100.42806450280305 M100.44597234912463 64.20532948156786 C91.7693676292637 72.03558052589072, 83.55237702378668 83.18508584506276, 67.82300155118358 100.88123943697506 M100.89371094679248 77.2371365952704 C95.16116676170738 80.79844444880666, 89.4370391967079 90.28770553749997, 77.61406036323967 100.14571437319107 M100.26012082417962 75.54061888094498 C91.06583236451296 85.09810655880504, 83.96298601385516 94.7178839717153, 79.24694963693275 100.1150255529376 M99.08154233523693 88.6275555499617 C95.24259658587464 92.99981854524508, 90.9335371385758 95.70357653085526, 88.99791612654415 101.59646835796894 M100.74768897598938 88.39976722101203 C97.24439673805487 91.63680010209106, 93.78456964825335 96.03274092674802, 90.02394155707884 100.27496961982806" style="stroke: none; stroke-width: 1; fill: none;"/></pattern><pattern id="rough-6958455589158287" x="0" y="0" width="1" height="1" viewBox="0 0 100 100" patternUnits="objectBoundingBox"><path d="M6.089968940565029 -0.8612471357038054 C5.080882986032632 2.2130005533809545, 3.000324272819652 3.8356269836111876, 0.7664997256032322 7.872169147899118 M6.904663137823579 -0.1791244500392566 C3.8798222905126334 3.117729427095437, 1.6066135269546482 5.801212720905005, -0.2839106665682654 7.328080294205185 M18.506920345246645 0.6138546732052763 C11.56883931656765 6.169449835651902, 10.103725139481387 8.130657386914677, -0.9602277991669252 18.18941744695461 M17.518908455659833 -0.7524554811263027 C11.560038746085334 7.251411740211228, 3.4077708886571636 16.10481179714508, -0.1531157833078982 19.275010376194967 M29.5461527366668 1.9395808905318983 C20.616441684682314 6.753527362546201, 15.1155430648328 18.62993594678116, -1.0827143967882193 32.82415570724728 M27.46885041327261 0.03616271591154252 C22.086074129414094 8.206411285665098, 14.138694389457772 15.632636760143843, -0.8916536876829309 31.82963936558692 M39.68159405083661 -0.515183528520434 C30.251055340656357 10.654963383700997, 16.937369338090058 25.474824666295113, -0.8482940013681421 45.39939229117209 M39.23160204485578 0.46458970515140807 C29.62827427993329 10.201563082267327, 19.634892114771947 21.502965180879457, 0.47874688415732747 45.31893136655354 M47.63706311081644 -0.0820551790091395 C30.734849543778875 21.442219823297492, 9.942473857143103 45.60274141236697, 1.1061170331388341 54.978034535660406 M48.307369176012386 -0.7505344919240247 C31.92872410708025 20.362842546955935, 13.578288670673412 41.391847749128985, -0.1632576225527269 56.217124837377135 M59.58018785802534 -0.18221110934897666 C45.138004040268676 17.435278442214045, 29.652797402493746 36.90751676549127, -1.2206319707708584 68.24985378609617 M59.78600842369907 0.27425441224741576 C39.74464443565122 23.979238446425285, 18.0561804736657 49.9578520081695, 0.9900396549491925 68.99663188979699 M68.89390036469435 -0.1464179026474648 C49.73492191522163 26.170014273815788, 28.457243395783138 48.66414633611892, -1.2494456168990622 80.68872236305256 M71.30278052902109 -0.4076846619774801 C49.85631826120475 24.330391064523322, 28.066643951200792 47.92224371749748, 0.2190369767663669 81.02223515098461 M79.89943337265159 0.08044799506574307 C60.44743584446826 24.035039423096585, 40.12044581561275 44.946094783716426, 1.1009643650494416 93.14839710100797 M80.98832927413898 0.07298734783050786 C59.19498171192809 26.417045440595484, 38.36456379913126 50.71973709079417, 0.20592139491511086 92.47211770916326 M91.83568538727772 1.9728975104969262 C68.21404125840053 23.928583588912097, 46.283043858879346 50.481783946026255, 5.631262304886839 100.66313915510406 M92.15054056590286 0.21814586676716674 C64.70809666181898 30.863504240891448, 36.30528300087773 63.31849344906127, 4.186180778322054 100.69623540790185 M99.37263174507214 2.6822244696369566 C80.83808564750075 25.3180448498023, 60.51342278376067 45.470009389007906, 14.363085311972153 98.85630884998008 M100.22257249596225 3.115328976046568 C79.94531466018563 26.788199719583176, 59.18916689769756 51.93827260221781, 14.563558825549196 100.1581368441462 M99.22884667273827 15.336103683182753 C78.92159374540951 36.82766497762542, 58.57113157092974 60.3969480804916, 24.947377210681296 99.08514599640328 M99.47505129571203 15.360849100202586 C72.71722941013051 46.051183036965504, 47.40160060421111 77.64179142423103, 26.766110888054044 99.44745247763956 M98.13137720146601 26.90094981577892 C86.85877819509034 42.50088404258418, 73.73476052155902 56.61503148887889, 35.521962706286764 99.54470983186252 M99.80639568196831 25.938170318192256 C83.57168784850788 46.33974101949648, 65.5931997014595 68.24093842612662, 37.2213310483501 100.10642568446688 M100.53499908654503 39.02745315204647 C80.40821100838313 63.351522505720794, 59.83255812184913 86.76625091249811, 47.67617109790362 98.91113553879603 M100.32584909273265 39.96933490832694 C87.08564851063585 54.97153793121769, 72.38710485022543 71.31542557428982, 46.097686932110086 99.23843009207306 M100.40833823439287 50.45706780404966 C86.59872411584966 64.08502242073892, 73.83858337165346 79.24453820389127, 56.786040697644054 98.57188633083332 M100.45779509318605 52.28491448663102 C88.92676112869759 62.9613743134576, 78.38405575177745 76.14799382841852, 58.22058247343351 100.99861169131286 M99.3297482858573 65.03270287469347 C91.00229607651436 75.84507486268532, 81.80989617663695 85.7744260551938, 69.82083874410381 99.12854543695418 M99.75924209801093 62.89954906869187 C90.63937252404942 74.77263577948354, 80.8254464027706 86.64084128195374, 67.69170794624739 99.84902213928015 M98.5322964297263 75.60240649055812 C96.00940158693821 81.70533118699181, 87.5984276804684 89.8418238482793, 80.6734771070537 100.0984484747682 M99.95295866146434 75.84275720401286 C92.06249472216905 83.6975011330707, 85.94962649444653 91.90223512797914, 78.2245803742573 100.09486955864229 M98.58611888397304 87.03084146025758 C97.0619067053303 93.28510316373682, 93.27848273255358 95.61615968680799, 89.59055101270962 98.66881994080227 M100.06938244767194 87.61113390708991 C98.39606061239179 91.14822593576926, 95.42122770301381 92.86748978650208, 88.72598428462351 100.65436096089081" style="stroke: #000000; stroke-width: 1; fill: none;"/></pattern><pattern id="rough-1312153509720433" x="0" y="0" width="1" height="1" viewBox="0 0 100 100" patternUnits="objectBoundingBox"><path d="M6.8198966095337585 -0.29840352165214523 C4.076865415583074 2.156556040286524, 2.643790197055475 6.200538494200291, -0.7731126019571749 8.322587089568092 M7.251376736172143 0.18155804552963017 C5.181017580076126 1.656519322382122, 3.230421709528087 3.7042697593077123, -0.41379855047752756 7.48443634860112 M17.920218968966136 -1.8130003368207497 C13.305675674918103 4.550818306680203, 11.160677555518298 9.34144777658812, 1.5571988585002163 21.136966624390098 M16.856159431872165 0.7421078802309342 C12.68916415468407 7.036874059514123, 6.077904128901491 12.906572342849602, 0.8999284765067452 20.165169707558587 M28.017573170289385 0.4394875498319175 C17.50376948537962 9.836663377055553, 12.685700490109268 17.705273926626518, -1.4418735602075854 31.036408257768365 M28.122977519586133 -0.3607543984573982 C17.40463294939793 12.707941005410516, 7.3151826553654855 24.551001776685503, 0.7003630571962289 32.02078664030213 M36.68201342654185 0.33465119792379117 C23.09164645440147 17.326436030903725, 7.726534632690215 32.98891235074257, -0.28665630608606296 42.95274731785622 M38.354385341995375 0.7708365529147319 C30.059327774076472 8.832455440768811, 22.078839783010856 18.426990366420384, -0.15611276771380567 44.73425910048111 M48.98567391291318 -1.8149802853089891 C35.4280932084592 13.86985144303309, 23.299990965334608 32.91811981872642, 0.14878593773361715 57.598328206912505 M49.48666911131253 -0.7092540283429578 C30.17465495145266 20.952365711591014, 13.924322994342374 40.779514886544234, -0.41327237384683446 57.32940989641876 M60.386963481384456 0.49175649692065626 C42.47927388708783 19.917999246586618, 26.720860810242932 38.580908522632086, 0.11980165407383403 67.80955652009744 M60.38682029025462 0.4235940081967726 C41.92954995101077 21.93000514028783, 20.670879365128386 43.65041806862028, -0.25677397557243564 69.53303156164856 M70.34237888298706 1.4315001821525382 C51.9715310665212 17.986185272219213, 36.808332286254654 39.99077855873291, -0.23505746051561882 79.71384563792373 M69.80794001775375 -0.5516414297522867 C43.441608361556256 29.597922198440028, 17.430537931846054 61.21941405927932, 0.4209563008529562 81.92275818650847 M79.33255236938122 -0.6199770413809516 C60.66368714758428 25.33267444576379, 37.27702509637002 49.430516572562745, 1.4510855646701861 92.05008673445707 M81.90153778814327 0.6267572535742283 C55.05518417461221 30.018503327403085, 28.114836760622303 59.346697280236796, -0.709532381127818 93.17764026756404 M91.14738267124577 -0.3019317235097514 C69.54459919905628 26.22194431195567, 47.9614246607976 54.45649223671701, 4.723928506793125 99.75643740253714 M91.29934899044541 0.4267723320107857 C59.02721771899167 36.17912479162407, 27.413071410535068 72.84683166333387, 4.472935770239476 99.47058143509793 M100.00992038182004 2.143505522899707 C67.90367101323099 38.99766925722997, 35.650194649664684 80.33151369514519, 16.03123908477226 99.28126325754741 M99.86676500337828 3.5060905124940027 C80.32146498862588 25.6384317975843, 59.266110824507294 48.900563481423966, 14.608514061632468 99.81413776578673 M99.85176560547708 13.55542896982741 C81.6042087706095 35.66644713759548, 62.91029527502282 57.18762237384673, 27.853787862162406 100.62769886334429 M100.52498131060491 15.364846769753296 C78.69245082614563 39.75322211590648, 58.071562294649176 62.24965347744364, 25.69355938017671 99.6243224969441 M101.45969598647396 27.09016640622466 C75.4489918546926 53.194973832020814, 49.76149050222834 83.38350174212579, 36.9359351694304 101.11333811593006 M100.0648976583968 27.056327278196317 C74.21615458949142 54.69832203239296, 48.11374013457865 83.71228911350711, 36.6093126617607 100.48007218736288 M99.49371044704324 39.869283690811116 C86.9546020169219 54.22039048859602, 76.43148289568474 66.28169131378951, 45.42911677744965 101.24176207258692 M99.31427766076106 38.67416949051641 C81.82492096451625 59.95709902156401, 62.11146857489213 81.54398401045576, 47.63794022636168 99.13528183967333 M100.07556417951021 53.23286427307801 C91.63786343718279 63.057542904546594, 78.62686912629472 75.90760573680951, 59.20324609122653 100.85147058322842 M99.52947972018578 51.21392121953354 C83.81637777822382 69.66476490040624, 69.24008664117089 87.1210326441827, 57.35204017281105 99.3088739130464 M99.89559696837028 62.15078793991497 C94.83646806419283 71.18019305847768, 84.67857395247383 80.68218387313132, 66.67916779525645 100.40541880082084 M100.47687613113033 63.70296969160643 C91.78440451007612 73.22056974638718, 82.42631349735225 82.85273528801734, 68.93296503210556 100.04771279025464 M99.07288803268432 77.58984144301857 C92.5018331706591 82.92692499388444, 85.9128253603011 91.05814122425146, 77.07416637613046 101.76903833106057 M99.86379036237703 75.35452300835284 C93.75554303770976 82.61794456588672, 89.35219895565442 88.94784752915714, 79.59683709692106 99.19556988589949 M101.45097509649315 89.08676068837883 C97.81619889505536 89.85088481396998, 95.67245242383503 94.23139420566345, 90.00034903180546 99.13392447763187 M100.09036582466297 87.55459680422325 C96.05473529382722 93.29660201443882, 91.06993485947123 97.02048780606155, 89.41433867792979 99.9762933064112" style="stroke: none; stroke-width: 1; fill: none;"/></pattern><pattern id="rough-1432905375525349" x="0" y="0" width="1" height="1" viewBox="0 0 100 100" patternUnits="objectBoundingBox"><path d="M6.95816835825093 0.5678143507652555 C4.1322153867741624 2.2479786383721434, 2.0220673166400895 6.231899036483883, -0.7653500527280848 6.917917813253595 M7.021734450562005 0.5072708995289184 C4.784708647526167 1.9823021529135723, 2.741350621579114 4.911661568528784, 0.17681551353025093 8.254715117918352 M17.556865267902563 -0.960480372464283 C12.79739305282606 6.530743958537072, 6.6702872889301315 15.4622275155938, 0.5011547127950919 18.573667403957778 M16.964935942639826 -0.7560707815065792 C11.578700594041505 6.737270734899211, 5.48536412915273 13.962639633509344, 0.9637829563933344 20.347305676090873 M28.92123910521922 -0.15484596229005376 C20.730656373344303 6.999858940320417, 16.747393572732282 15.600360282767081, -1.9913181490006382 32.991991581723134 M28.140313372807988 0.43749653609662653 C19.90392573875029 8.748124078707868, 14.583436967108492 17.23696515486634, -0.07276277237399453 32.99199434276161 M39.883571683759314 1.1104369116352224 C22.920565973703194 16.16745608871444, 10.824788097083115 32.39410043309862, -1.5497928466393187 45.573724585707566 M37.66372039166667 0.8540801798743853 C25.45725332282423 13.607276092336864, 13.695967339062612 28.86870863720323, 0.9466195516079012 44.49033674895337 M47.627041986933136 -0.5003919162917834 C33.232969707363964 22.483148419913974, 14.871737812244966 40.03401817317968, -0.9445129140424902 56.52569738212686 M49.36388929732107 0.6021263273699788 C38.608355926272566 13.352808258327716, 27.287312131640114 26.10653581283223, 0.6416151782888964 56.143096131348386 M58.947142891512684 1.2882800619877797 C42.49295737355512 18.52832490353004, 24.561498809333234 39.26159371120856, 1.2698476412437394 70.33184533930395 M60.085471194806914 -0.37817322940657894 C41.110354126610304 20.81142311312572, 23.997738282238533 41.03826687394177, -0.7611634708455552 69.55203308788211 M69.10780145899386 -1.3772432232374605 C43.72845530931464 34.0413010342661, 16.435295015701726 64.90222715359306, -0.20747596068650243 81.2241033660487 M71.32726590548909 -0.1885812100991724 C43.14168115187944 31.65922944060607, 16.186353051047103 62.97139024369933, 0.12088060019117286 81.20474382899701 M79.00013081845438 0.7403718581608496 C50.628910420945296 34.947203328314544, 25.805409443750023 67.15171145844332, -1.4479217763396495 93.87565776188683 M81.36944340210515 0.6770057848319699 C59.09126165325167 27.772352601684045, 35.552338514250934 53.61045690084476, 0.46167225599885553 92.56653289562273 M93.18377971426071 1.2485863231755152 C69.18971002664281 28.773655489899653, 43.67811356983561 58.047285253461446, 3.2555952323242323 101.47520326785529 M90.61347157227706 -0.7187384376910129 C66.10014645389244 29.089976799138114, 41.38377675619937 59.12832526650313, 5.0729410094494725 100.04557020191808 M98.73587632748811 4.011324168652694 C73.62830748007734 31.600891503212743, 49.78309001606877 56.88111272177771, 16.91602983682246 99.66018167584353 M99.37375920924273 1.989731854289721 C66.58647645413856 41.434913969369184, 33.519358276766326 78.62284959582753, 15.863738625644777 99.24149007545533 M100.32181329349201 13.195016537644134 C78.2208591742315 40.195792330140634, 52.09026567278218 66.99239925430925, 27.859904322921782 99.27916411780127 M100.74041569755298 14.7373420241301 C85.42808966542869 31.737098869766307, 70.17538981727942 48.370099030806955, 26.144214796884516 100.16955520433056 M100.73300990246327 28.504011048476478 C86.13247452500484 42.673562443378934, 70.29060021712675 60.00411858269176, 38.11290319983778 100.47818472739378 M100.10604397813063 27.54636161729033 C85.77475889307911 42.86232151586984, 72.52021367024683 57.87638422511153, 36.64277593564385 99.72850482595774 M101.17388448703379 37.4951812631191 C78.84324908139382 63.31639278824244, 60.37994007929291 87.42017406390164, 45.958062811787585 101.78724546130344 M100.5320454339746 39.66767849017773 C82.75840793664665 59.291924779241754, 63.280869516382246 80.51768879862472, 46.19201446588258 100.95483526848632 M100.05954359093735 52.526980128646976 C86.02566584845177 70.65618143691395, 68.52964996847254 88.0998069278433, 57.40101568402417 98.83534840528377 M99.81520738581654 50.97892003781447 C88.14872046728541 64.39065405871104, 75.87145923813729 79.09377098809163, 56.982394085228506 100.53473496907219 M99.94039332377656 63.31508536947674 C94.00798103229337 70.6320495397173, 83.81652208951535 83.51018899311998, 68.59617412190586 99.09737667745006 M100.04555226193814 63.40134139550988 C87.98498796086011 77.63140408605874, 75.31865549960725 91.02826099436028, 67.76618160317499 100.46280926754683 M101.81883846501451 75.57768047694903 C94.01928253223123 82.94088167773728, 90.6381420809353 87.86963540932054, 77.96282731276652 99.3039214333632 M99.80988321724736 76.29263772206728 C91.81208945243725 84.65569386311488, 85.02101562131415 92.12528394787442, 78.10172533467431 99.5875676180718 M99.62026763659152 86.87292564240154 C97.38863627663889 91.91168002854499, 93.66282090572983 95.80412160120358, 89.31337002158298 100.49775044524853 M100.59577782312661 87.99524657060039 C96.9108885379416 91.43345125157774, 93.24642075113871 95.88667575188686, 89.53624576426823 99.26064165809572" style="stroke: #000000; stroke-width: 1; fill: none;"/></pattern><pattern id="rough-4732560961415217" x="0" y="0" width="1" height="1" viewBox="0 0 100 100" patternUnits="objectBoundingBox"><path d="M7.633252947907501 0.6158117762480164 C5.19978052316317 1.5940278606612188, 3.202529137545981 4.393018221177025, -0.6584753329800674 6.955211439155896 M6.711218996921005 0.21680067009767567 C4.751641245725197 2.760647968939332, 2.619317737321471 5.02595736780011, 0.4310941573376551 7.644678482316377 M18.56630684408761 -1.6446980088398648 C11.164320385572427 8.276824875002799, 7.658822531860589 13.715135542455052, -0.48557463424133207 20.382023808021977 M17.34535650589176 -0.955083704036455 C11.82606653877944 5.785881418780358, 7.102876583838812 10.614264636524796, 0.05033257873262498 19.204491254433062 M28.795509079075067 -1.6445308547807391 C18.42326238553389 8.055139495784527, 12.008177297383531 18.868900698004587, -0.311210574204174 34.00902066170543 M27.21861777242594 -0.5393716435905191 C17.869716130110646 12.288124754095609, 6.3092843232929905 24.559091430993345, -0.5721350521684769 33.05233340344789 M38.110626273747584 1.7744095115652216 C27.082201395494746 12.670554065156189, 16.495529194414715 26.242324892332892, 1.9769558646508152 43.27142129026297 M39.45802806316901 -0.8049418218408855 C30.371785632876566 10.49438825905283, 22.484649754829668 18.68994111314597, -0.7654900896108687 44.95702472675522 M49.642975154437316 1.4883884211613614 C34.58122399432267 16.448304586835846, 22.126416646882255 33.6096436605032, -0.5809190927472319 58.115818238674805 M50.18236574844914 -0.6973415916438297 C36.742243068100755 16.13694963078045, 22.04489418852908 30.652647016458502, -0.2552188228663872 56.7847386667524 M60.12684734069141 -1.2712116787497791 C37.63398159594129 22.97575598475562, 17.76609800544459 46.04660784871518, 1.3624317862050184 70.38404062996625 M59.641940816185134 -0.8447465473710065 C45.34842574363877 17.767206766314832, 28.676311641604762 34.74980217788305, 0.3174705037336798 69.26094866275396 M68.91657825745231 1.9132140288031785 C54.959438388193455 18.573660677087044, 40.04921121253591 37.42978251689199, -1.5641820737786833 80.20574483506624 M70.10296581016975 -0.0869507894398529 C46.16306566481163 27.485091847838984, 20.89331571744513 57.26401013382173, -0.5358570617288678 80.99028761680303 M80.72054619764947 -1.015361733764503 C53.84672740615763 27.4729326124426, 27.588922086654016 60.08094425960642, -1.061245928113351 91.56576697906462 M80.04026901845452 -0.8791057396361892 C53.96522588154574 30.804086199749236, 27.56329176936296 60.86396129714255, 0.3600885975549022 92.93170292874845 M91.37666718813114 -1.3181498368940225 C65.08195103589216 32.36827100550747, 32.97120895070487 67.21194127971754, 3.78818114754152 101.97520679090206 M90.90853946810415 0.842620921167391 C68.98243623666303 25.896138523478903, 46.76026140610649 51.587551316059546, 5.4800201871890035 99.11778879240856 M100.90588476225255 2.1167241663194956 C72.1710047753499 32.63451393614125, 48.7264162993975 63.0870986039865, 14.580206369997645 100.51676619675536 M99.84018110764437 2.8764474199441135 C68.8977040466695 38.4894373717479, 37.99272566766883 75.31357869744885, 16.184746115910542 100.26037094370805 M99.76379099188505 16.324861898578554 C72.04376811024115 46.88615531360566, 46.02561582120947 74.76322426458319, 27.13500682436299 101.3689875359232 M99.04842193161895 14.749894232168744 C79.52521267772013 37.30747183853836, 61.99317379819288 58.449786360969945, 26.170764294892013 99.45179507964463 M100.77206238642188 25.634178243833492 C85.09294225365619 43.41214289311264, 66.44980042246723 62.51839226647767, 36.71619265747777 98.30719390711687 M100.3626582122536 26.961556810198303 C85.7840187317362 44.20272099116406, 69.9411309577974 62.33576169199586, 37.00870352246324 100.16596585188591 M98.9732975871615 37.318050703981044 C84.18988507637225 54.941779312198754, 68.14822999182515 71.93757565498282, 47.6666450330846 99.34922014614256 M100.28882609851391 39.934335018389305 C88.07820073618386 54.05494469789545, 74.12625178554751 68.54048798534204, 46.839591421742824 99.91520218463684 M98.02682193381347 51.449874947888475 C88.98631971046214 62.734590623660615, 80.64225268039328 71.70083437720017, 59.04078221860882 100.51561739804092 M99.17659872564414 50.490937229391584 C84.35140451749774 69.73851904953402, 67.5953813638353 87.59428319323676, 57.62151543258602 99.19429821181846 M101.54769479730794 63.73469668945049 C90.41100749211047 77.3336996341746, 75.45926568031197 92.08642271478347, 67.57305630595089 101.27520682346115 M99.93010809118353 64.47303530880932 C88.0718213690304 78.36688380870966, 75.6398809253528 92.29255834620261, 68.79727940574683 99.42074378437933 M101.59817419248742 74.91701334255097 C94.91041812790381 83.74779807001671, 86.87847796844079 89.15199210652979, 79.64485739423387 98.28946303530591 M100.35236494369536 75.23205846384852 C92.00545387537301 83.82723731422544, 84.13764554118872 93.0902678334309, 79.25646482111941 99.3853733724373 M98.5610776604791 87.71210577013217 C95.43846695812489 91.26209435663036, 93.5410730967189 93.75283441179384, 88.74925270620648 98.80653348253007 M99.94483992709131 87.11201476103581 C97.45887882882064 90.31820946121934, 95.1678102897072 93.64521789185792, 89.07013109427368 99.70867915725216" style="stroke: none; stroke-width: 1; fill: none;"/></pattern><pattern id="rough-4688539510176121" x="0" y="0" width="1" height="1" viewBox="0 0 100 100" patternUnits="objectBoundingBox"><path d="M7.741426422804086 -0.5852053548779192 C6.238849999288767 0.7055486863788083, 4.023318235496936 3.2104102687978675, 0.022891414798373422 8.47299939694727 M6.976957989406204 -0.32928189100122796 C5.24605603125794 1.479505219445755, 3.851434548818105 4.003710467726, 0.47055804935751244 8.057177940899269 M17.14869210443257 -1.681011778776341 C11.494503266484191 9.09335050084308, 2.997169118595461 16.600527078623003, -0.41594812332431363 20.030848066379825 M18.308277281774746 0.5021854931874192 C13.348663426092342 4.3659118672362816, 9.840352703686936 9.165214850178309, 0.3774529528072921 20.42597642255431 M29.616964658377956 1.3267341198710438 C20.30834067843429 10.095090311471512, 9.81849868856428 22.035519540032702, -1.4393764355938874 32.45078697374483 M27.416898672770564 0.16477608389042997 C20.852385568971123 8.51630535978176, 11.850632790633057 18.337652812868942, 0.4888020326125062 31.588270219811317 M37.83651645282845 1.40095096408551 C29.363616278217215 12.412305323162808, 15.59637853612357 25.359699779548457, -0.7115188157523651 44.69050290204909 M38.570985123834156 0.5248486247890947 C29.43746730923116 11.894596185411391, 19.68580158022113 22.227100670260437, 0.7221204032385411 44.11520469439236 M47.585807648176896 0.5232892387179877 C37.62449198867411 15.563177916605916, 22.655673805904108 29.884361334495757, -1.0143963095050195 54.73931327357074 M48.28974882543748 -0.008820268208658888 C34.218708441111794 16.352342688606743, 20.275435398113377 31.78818562862685, -0.8753439847992093 56.01245274597602 M61.55648623873459 -0.8787144071544999 C35.260051457126146 24.89041199804391, 12.80610767359337 55.267015614476556, 1.8237177570864533 70.49835646330007 M59.54404742213862 0.32230785412996976 C36.281333487029286 27.103095913150383, 12.632294987151962 54.834265159234995, 0.6478626113792689 69.02815562754365 M69.95511844195131 1.6187306277783495 C54.78821986125491 17.97628022483736, 40.388858736290274 34.103864467034896, -0.4005403906390299 80.23895756349667 M69.63716943822365 0.3192063291131313 C53.89563494181526 20.512157170066928, 36.30820287853347 40.13344962652147, -0.7929394959630289 81.8457528355912 M80.3254661463697 -1.0594152249307216 C62.916595070897515 21.66338197625948, 48.150429385276894 38.79341803838428, -1.2478121452738202 93.24089862830122 M80.0049456780147 0.6424763056558009 C57.24213743143314 27.05738258481076, 32.40846236850901 55.29504202157419, -0.5453117104590275 93.17471104677665 M91.71594818155158 0.46168505157597206 C61.256844209239425 33.54304923953177, 30.07324738787554 70.23500730428977, 4.587014101340112 99.33451826967834 M91.34446686191777 0.824829556866205 C57.560598651744314 37.74948155860433, 25.686482772347702 75.33727357225997, 4.610392110051301 100.33470500051688 M99.5075384871095 3.467420001179561 C79.14000747949099 30.89403832582089, 56.01736214777181 53.651064991579545, 13.48047802254951 98.58389698809417 M100.57100232917026 1.7012374919128672 C81.52383803294848 23.081956142309615, 65.32528546023637 43.03201034792415, 15.005340341057101 100.27607509847927 M98.17332921563907 12.899950469263622 C73.68761498608131 45.961391705862326, 49.17070893882123 75.92984453624037, 23.963863175922242 99.25532214683962 M99.77986003525851 14.43985406679002 C74.51228804780055 46.169339558682985, 47.58502334112057 75.8724098697508, 26.02895065681581 99.5938765990834 M100.59325160230672 26.053693564260122 C87.49276992481502 42.49371927052005, 72.84874284096179 57.46051142749491, 36.811112900627904 101.05115388451983 M99.12733642349342 27.624370014930317 C83.63840343625948 44.69229145461846, 67.90499490117944 64.6845364072313, 36.73803513500618 99.89484462357642 M98.08185144430288 38.04096238521927 C81.00271548391333 57.306988772925656, 63.18010168688395 79.80554203773399, 45.91703930567244 101.24315443524263 M100.75840572026951 39.834560637283396 C80.72148314987457 60.21551197478544, 63.08187194685599 82.69841017395838, 46.870219823563644 100.48794556166712 M98.7160137926344 51.078569260844056 C90.84946194472951 62.34054136832232, 79.8395102721303 71.44476306343923, 57.069803191745265 98.97236823722817 M100.59032825953048 52.11691046121076 C87.62929141231639 64.79438192598886, 76.14183730890271 79.39287997701113, 56.76631657935017 99.97578695678719 M98.96228919208 62.04205126275707 C86.2948479392478 77.84829082897059, 76.85889339392777 88.86992263600071, 68.6566884123458 101.92320884448552 M100.9145335425038 63.93133454882975 C89.57042427892384 74.1180847642396, 81.20116657156689 86.51443467206393, 68.7643679672853 100.06049555574063 M98.1160810200735 76.75524827676963 C92.63020190476966 83.25620142886532, 88.5931905872905 89.38334935753748, 78.2665036254286 101.43866865097914 M100.2750251164945 75.93170479489355 C92.62217149516769 85.60793308041224, 84.8256348418726 93.39497147166685, 78.94020961141199 99.79240130948226 M100.01966524304007 88.61617842372073 C96.837972054778 91.66688479821471, 95.70256217405142 94.5465363920261, 89.26107903159908 98.75173602035444 M99.87532380424948 88.6704209985886 C96.65830988472271 91.10443504464607, 94.82486929210975 94.03434386212237, 90.00940175571183 100.70707944176299" style="stroke: #000000; stroke-width: 1; fill: none;"/></pattern><pattern id="rough-5688877836856851" x="0" y="0" width="1" height="1" viewBox="0 0 100 100" patternUnits="objectBoundingBox"><path d="M7.317876269633649 0.6844433994864498 C3.6789177284939507 2.0318639692350904, 1.8816732688108913 5.868596857132415, 0.7488094885423899 8.301575725339893 M6.754827543398427 0.4804309154055435 C3.9055104801606304 2.6539008264134716, 1.4719576782089316 5.9161154500752, 0.24991091832752943 8.018099548450763 M16.55782077403123 1.6212840569311986 C10.033801767059751 5.801623507528948, 5.782366474500309 15.808232042134975, -0.6249789855419232 19.43652148440328 M17.258048759209032 -0.8887500357819942 C13.148665030974701 6.2319441862178895, 7.830406782118192 11.032178215283444, -0.7239886934702646 19.54861241381805 M26.358253941378095 1.175073909555036 C18.188114545947354 11.029144942811392, 6.552977973064578 24.442871312919095, -1.0280139509425803 31.65464974053736 M28.792075607108956 0.6777618711079496 C21.98560968984108 6.987016421609722, 17.100015994702176 13.980572629570071, -0.6538454145563208 31.69457046184003 M38.778165394203214 -0.9983462258622042 C28.566150816258094 11.945952391414616, 18.012069933942723 23.55071789635893, 0.5813008312875603 45.43613696312472 M38.92705213059334 0.09915885607080144 C24.45721075408259 14.978602363707179, 10.928486070156197 30.39018907822881, -0.814740869654706 45.071084846066235 M49.35400178318615 0.3951321874992164 C34.93648876840145 16.827230039275925, 21.74978693973068 32.78537330913103, -0.30938903796805395 55.83931374124406 M49.94944781300372 0.7469116399716724 C37.60080852497121 14.291925894725122, 25.210289611671584 27.936697086611787, 0.8617104386189536 57.274653056269536 M61.40229648052837 1.0127636878711934 C39.56980954747475 24.954875586361442, 18.46079832858097 51.32705214814, 0.7991066231311148 68.2828224529292 M58.939363847043694 0.48688015378255756 C46.26393886387057 16.3437715718465, 31.8341817982142 30.517813178536162, -0.6243842209351316 68.38113139605339 M72.29840675234028 0.6097779297266257 C47.23096507133784 27.515100297900386, 25.608460002282275 52.415752279391484, 1.9897763773964163 82.4284912699624 M70.11234664654236 -0.6683906479805288 C42.570272984525545 32.06582838824876, 16.351428569315846 63.91053671977881, 0.6878079148416987 80.86269800825492 M80.07106284722998 1.5413262403316867 C53.52230444839204 31.23003588465772, 29.912240829551916 58.57099136318932, -1.442484794320924 93.54684866245502 M80.05356229575544 -0.5479697007039444 C50.14107682758201 33.90599403110409, 20.986021000703182 68.24315327935378, 0.2629034864635873 94.12287695635578 M92.99921539898446 0.950528457411675 C66.49052283767651 28.204738294218267, 46.510933259998374 52.744521750728765, 3.5593677769242325 100.86061986053653 M92.11227358601089 0.48554506186860147 C64.76988472544652 29.834451063011905, 38.33965458694769 61.65258184183465, 4.965846785980521 99.6724872976565 M101.82632059237883 4.334766620215811 C74.99944102294207 29.65272582464037, 49.01680446186981 58.150558390030405, 16.82463289323227 101.3513650999323 M99.25276438614539 1.6818159732544866 C77.10587859814133 27.15355709915739, 54.148982261034206 52.813630213513726, 15.42283209689507 99.34012350819319 M98.74763464044777 14.333164581264086 C79.23559525936437 36.449145902783876, 62.44432423900749 60.48767596246206, 26.332763932500963 100.76923239998618 M100.54585958971222 14.66213876848318 C73.22982770015965 44.43221602620319, 48.0613588001559 73.06828543188651, 25.571420197234584 99.17769933722013 M101.12966785969216 28.303258428515967 C76.84338040786727 53.19048111917358, 49.06513345139462 83.20940787699249, 36.129105479518 101.1766379824397 M100.00384307623627 26.7798410079585 C80.12996294955536 49.66023546789058, 62.611386898694604 69.7192245235769, 35.97526726733358 100.0173782368273 M100.2929028650764 38.375417018193694 C80.76615164730569 59.44884788976749, 59.834994672180834 81.81972293305905, 46.86986915035702 100.66120273775911 M100.78885999822185 38.998915578716236 C80.4617732039626 61.93738523012752, 61.76084333864476 84.12161701235118, 47.449862457101574 99.49822364772892 M98.73052050503193 51.58491295943379 C90.15013915821037 61.79436151930415, 77.01012996604415 73.67849393213115, 56.76381855701288 99.11300868730024 M100.1833824083395 50.73271830039539 C90.61548724296135 60.925110020754985, 81.43816236432153 71.41341299568681, 57.635804257869246 100.04448255950423 M98.22984508869408 64.59504162103089 C87.3100130382988 76.12810624214639, 74.44583808979735 94.17517509162666, 66.92228707358633 99.27023301689549 M100.03208246306552 63.265328329077576 C87.09382771170421 77.53745796394671, 74.41444933475834 91.96543927588809, 67.89361274533005 100.47286823957697 M99.84439775570584 75.67596240518814 C93.88591741811459 80.723909012005, 91.57070619702772 86.8925231936106, 78.44423871366845 98.47949480414918 M100.45073930856064 75.98880582857637 C94.33610637156592 81.70101503995781, 87.47203816874432 88.42960031065883, 78.36994595953979 99.38854247050598 M98.59004123222881 88.67404802101677 C97.29426525712952 89.84152872814221, 92.61999723835964 93.50570406910111, 88.41708095638727 100.83550021676814 M100.56740526139423 87.60194221691393 C97.01377666431162 91.02314393936079, 92.93238048083654 95.31426263987647, 89.09430993989014 100.08564428415389" style="stroke: none; stroke-width: 1; fill: none;"/></pattern><pattern id="rough-473046167377721" x="0" y="0" width="1" height="1" viewBox="0 0 100 100" patternUnits="objectBoundingBox"><path d="M7.7997269833036365 0.7904638365181385 C3.5452999205288735 2.1410917521931943, 0.7270870275106246 5.7884664310681355, -0.817564113330725 7.019835457788253 M6.8532381794425445 -0.05709303190385273 C4.420903724394513 2.840226277023353, 1.8888376836052991 5.786772654294651, -0.3651302849106168 7.684636269220138 M16.906527124975483 0.3595451226752093 C12.749238064910713 5.578130596206182, 8.031049706161248 11.487212617398013, -1.0830190504251203 18.147436963249756 M17.73942767884099 -0.22233012238045635 C13.003669944818117 4.862890470981833, 8.70074294300171 11.038210025090201, -0.004565466772347371 20.442683648572753 M29.620169409698967 1.812662268145803 C18.586416631682084 10.077061296862958, 8.72062370263511 20.61712609987266, 0.7537994662949128 33.14121040890328 M27.019547583540287 0.38897996905468224 C20.25857357422758 10.032682635032359, 12.476518093538834 18.815226991808885, 0.6151060369279149 32.42726383972382 M38.5664505189484 1.0462472480365772 C31.89187255788705 10.640942957175689, 22.36943002629054 19.198763956282967, -0.39823536982705665 42.42564397129299 M38.4814962421879 -0.9553478089510317 C28.663402184803616 11.457942421658009, 19.769917645725577 22.324056023395226, -0.02183953164334662 45.349197503415986 M51.11827516903313 -0.5780797279370873 C33.54507620008335 15.700424232970509, 19.728913638057307 32.99187386167458, 1.2661549592762151 55.04420250806753 M49.03997977668434 -0.44436204304437865 C38.165250413578015 12.025582835013537, 27.30629827350909 25.55357225584087, -0.6984678170505516 57.40269891259034 M59.91619148811984 1.176554316572167 C43.911153726037 17.386403158080427, 33.246929576369205 30.623864030808683, -0.9293615280782435 66.8856755931989 M60.60884898378313 0.9782724538349505 C43.807340938719854 19.987849369156944, 27.496038072778482 38.34889282136646, 0.4979738801119882 68.35187733374 M70.19391937902175 -1.9167637690253532 C46.81978002561335 31.259589354409698, 18.235062687846042 58.71891332587888, -0.17480297613548323 79.57105705605045 M70.69836976598413 -0.9045280682074073 C46.466905068145465 26.796783315517352, 23.60936983696647 55.29321500808078, -0.7784702892494986 81.78203746768752 M82.56809983469799 -0.18811856550233497 C53.158223376191984 30.83712931638931, 28.591148472791488 61.422932685803715, -0.8901983543973495 94.5775636231554 M81.90082653613699 -0.37351588143054837 C58.16247354161643 25.694868413023265, 37.55796752514178 50.08471042623544, 0.4166346241107477 93.21941467948162 M91.81348512689891 1.115457063454948 C60.614794840415044 36.79918786797447, 32.51000420248418 69.3776711911504, 3.6353096328369654 101.23451693730019 M92.49552132067681 -0.9932170112074217 C62.64804558116062 33.09135951657391, 35.05119876816489 65.7452933536575, 3.7368929175719625 100.1832542217392 M100.75708177652099 4.3188257852666805 C73.4430598108456 33.86612149894731, 47.29320521932179 63.86848823749077, 15.569996759484997 99.90829437838866 M99.86889609201955 1.6101913641947512 C79.22085367516458 26.614923757594404, 59.56439922960844 49.578710819322964, 16.00048531649613 100.51824450797807 M98.54075991177686 14.248340946931219 C79.70125699823033 33.95055359539835, 62.231223772807276 54.76496257012749, 24.427770715901982 99.92097405086496 M99.46634885432897 14.51270164207664 C81.68784967424872 36.175576708718296, 63.173878683250365 56.56022791272776, 25.935037169049266 100.500519573843 M100.88458583133664 25.616719063075887 C81.12596119926582 48.87329020863133, 59.404206352823074 72.95717159929379, 35.72106272714438 98.5384581165665 M99.00548159084744 25.992636208167596 C82.03105152148015 47.71633794705348, 64.06323721954246 68.00134168945013, 37.42920893952134 100.80377515338634 M98.99530605360557 38.74680291658855 C88.58668847161987 54.06406175026457, 74.76746656921922 71.57535667483893, 45.621450003448146 100.44104080148449 M100.27249697063256 38.974414154354164 C84.71927282318156 57.16400228215565, 70.25060602805769 75.00757162081132, 46.933125708826736 99.74869474495391 M101.4355624810451 52.96197099581915 C87.47883452213162 66.3402546597612, 71.9549336431195 83.73344177608485, 58.81460789898844 98.22970284205161 M100.73609341507466 52.30141042420877 C86.08327231700893 65.97982327104657, 73.91682626363948 82.06332947657835, 56.81757414548003 100.7123274363097 M100.69018180026313 64.98765412064277 C89.03172487719766 75.01555674036302, 78.55238230290819 86.53908534288138, 69.0971325768078 99.9766410364941 M99.28506004427274 63.188466827275754 C92.86656679320248 71.53146641808935, 86.82124903671041 79.52180331347778, 68.45225433958375 99.56103421521682 M100.31987116987595 76.82763704096214 C93.621953849418 85.39231245482705, 83.64233735606872 94.43424791467143, 77.99952544949068 98.73708072345877 M99.36659964026562 75.2897353367929 C94.81422852147342 80.02875026303808, 90.7305494047758 85.5849316021192, 77.91436889909608 99.51128755015668 M98.44416067404397 88.62569597389479 C96.00378029163296 91.89564789352823, 93.13208484208423 94.86117573613397, 88.55487056449505 100.82644197851886 M99.67389520512148 88.0047266384821 C96.5743806741356 91.97025754768538, 92.28474414170653 97.44987172549328, 88.79342745375304 99.70135034033828" style="stroke: #000000; stroke-width: 1; fill: none;"/></pattern></defs><defs/><g stroke-miterlimit="10" stroke-dasharray="3 3" pointer-events="none"><path d="M 129 184 L 129 44" style="stroke: none; stroke-width: 0; fill: url(#rough-3479903281980841);"/><path d="M128.9620107773936 184.4095617745123 M130.03758196337296 183.6470473194232 C128.86217829610283 151.6294438830877, 130.59042451911105 116.80800940769579, 129.8760752960192 43.51322425300013 M128.93826079478936 184.33885873167085 C130.13388526123242 142.38011706560593, 129.2186716357762 100.944437200589, 128.8338122895 43.694930774239424" style="stroke: #000000; stroke-width: 2; fill: none;"/></g><g transform="translate(58.5,149.5)"><text xmlns="http://www.w3.org/2000/svg" x="15" y="-3" style="font-size: 12px;font-family: Helvetica;" fill="rgb(0, 0, 0)"><tspan xmlns="http://www.w3.org/2000/svg" x="15" dx="0" dy="14" text-anchor="middle">adder</tspan></text></g><g stroke-miterlimit="10" pointer-events="none"><path d="M 94 156 L 172.63 156" style="stroke: none; stroke-width: 0; fill: url(#rough-7466509667992283);"/><path d="M94.74251414445764 156.10426302561132 M95.11905311852712 156.21647562868387 C121.53479625300274 156.63122109663453, 153.07758257571834 155.777249256418, 174.4198468280138 154.1599696062226 M95.20018445217939 155.50382879148745 C113.05396599563275 156.11640308155995, 130.70154917275835 155.18746336524705, 173.0212379005574 156.10822085955647" style="stroke: #000000; stroke-width: 2; fill: none;"/></g><g stroke-miterlimit="10" pointer-events="none"><path d="M 177.88 156 L 170.88 159.5 L 172.63 156 L 170.88 152.5 Z" style="stroke: none; stroke-width: 0; fill: url(#rough-427024531384779);"/><path d="M177.45369300158285 156.71694345251365 M177.482363042193 157.13574216534116 C176.62769243475614 157.4006844297587, 174.8684997027954 158.15445367164716, 170.44971626103282 159.48269377190258 M177.769466879771 156.85287945998635 C174.6846262992798 157.60674517716186, 172.34871510411745 159.10511459555048, 170.79808371206815 159.50848294635836 M171.07393457745607 159.38278591559228 C171.78292868229403 158.22780744359795, 172.48382433285207 157.3965549722229, 172.63649644612377 156.06671673920647 M170.94701681405365 159.63732260294853 C171.1807739814027 158.69375267663136, 171.71701346820547 157.870432528239, 172.46508786745693 155.98091133331846 M172.33712314154064 155.75313352162163 C172.30488797676364 154.40891113418076, 171.04613776525048 153.41881397874505, 170.7760008658707 152.15025057130262 M172.59798719856613 155.9846605678907 C172.2251808104229 154.6105302703874, 171.62805902318098 153.7464946317952, 170.95956279209483 152.5402263885204 M171.06335539222093 152.12407732659221 C173.74909935455193 153.5218638961345, 175.0427420193115 156.03649316792925, 176.7050757073961 157.1701159625419 M171.21643262624642 152.70368508905023 C172.81115947236097 153.9713413449011, 175.71673630736632 154.9684960992623, 177.07119363258494 156.61576743778392" style="stroke: #000000; stroke-width: 2; fill: none;"/></g><g transform="translate(52.5,7.5)"><text xmlns="http://www.w3.org/2000/svg" x="26" y="-3" style="font-size: 12px;font-family: Helvetica;" fill="rgb(0, 0, 0)"><tspan xmlns="http://www.w3.org/2000/svg" x="26" dx="0" dy="14" text-anchor="middle">Variables</tspan></text></g><g transform="translate(179.5,7.5)"><text xmlns="http://www.w3.org/2000/svg" x="19" y="-3" style="font-size: 12px;font-family: Helvetica;" fill="rgb(0, 0, 0)"><tspan xmlns="http://www.w3.org/2000/svg" x="19" dx="0" dy="14" text-anchor="middle">Values</tspan></text></g><g transform="translate(56.5,109.5)"><text xmlns="http://www.w3.org/2000/svg" x="17" y="-3" style="font-size: 12px;font-family: Helvetica;" fill="rgb(0, 0, 0)"><tspan xmlns="http://www.w3.org/2000/svg" x="17" dx="0" dy="14" text-anchor="middle">add_1</tspan></text></g><g transform="translate(-2.5,99.5)rotate(-90,16,6)"><text xmlns="http://www.w3.org/2000/svg" x="16" y="-3" style="font-size: 12px;font-family: Helvetica;" fill="rgb(0, 0, 0)"><tspan xmlns="http://www.w3.org/2000/svg" x="16" dx="0" dy="14" text-anchor="middle">global</tspan></text></g><g pointer-events="none"><path d="M190.1188975159902 145.03936839403548 C187.10568765882084 150.17705808089497, 183.1152134564352 152.67180120013893, 180.27858363591415 156.92069806000472 M189.1200127735253 145.66356387622275 C185.71537407277341 148.25746199877665, 183.0826061317518 152.18247112982002, 178.45407688717012 156.597432652882 M198.04476443428194 146.95154517369093 C193.3058080504793 151.268296850784, 188.0904962042572 158.74440370325937, 180.63845437145602 164.52294054849406 M199.78691032458264 146.40561890559425 C195.33698051505476 151.88105296755475, 190.3573848036345 155.7079491304229, 182.0335516317008 166.8514338096874 M209.25032974063876 146.37870266031803 C206.92715157456615 148.76839614656097, 203.5434359479935 156.73524878192885, 192.48168087688762 164.09116148847343 M209.58171916611562 145.34999189444628 C205.38391618849224 150.8440664891736, 202.86171532876187 155.50457713236372, 192.8400533670959 165.16978348432255 M222.50119857777776 146.68848967307304 C216.39565559781593 149.2843193347785, 211.53021096394977 156.94993028847597, 204.63763954150937 164.95797346854744 M220.2122517830054 145.2542312621431 C215.44833880371837 150.96665439791133, 212.46959145600312 156.85548247476643, 202.69426388816467 166.27200611346106 M230.22337095952003 146.7543307894197 C226.46666358964637 152.07839716124377, 219.4400765251244 161.4317669653794, 214.18768328652055 165.1945403061243 M232.06455576808386 145.16307092100624 C225.5204592616307 153.19599587604893, 219.66634724290665 160.08827155173407, 213.27100686721542 165.8600203720011 M241.96048030194487 145.37954207591338 C236.75732078749166 153.18728747790925, 227.25362148613442 160.35422914855747, 225.57969107541274 165.07934082216033 M241.3788925380621 146.849517177004 C233.97359846471193 154.35768927918517, 229.00995543736747 160.76132329903592, 224.1026846556668 165.14991405194493 M250.61458971882277 145.13999905000978 C248.5387008711766 153.5476738988079, 241.76015908192156 158.2461761273302, 234.29740605582327 167.4359997856802 M251.4524565837542 145.62194552548019 C245.38700498571257 153.8548026550355, 238.8787670356582 159.6543167066429, 235.23503677901851 166.79952249302386 M264.1362966047906 146.0509677738353 C258.61860127390156 153.27205706859934, 251.8235879416195 158.84247585224617, 247.26218488894486 164.98836601108545 M263.3218673746432 145.10205526947047 C258.50499518838296 152.36707689160173, 253.14114260900874 157.01512488214667, 245.2388612081011 165.60790968770397 M268.87683775881607 151.88218373025313 C263.579061417864 156.09305140981263, 257.38318918432947 162.08796787397034, 258.1134052138943 165.70180453354524 M268.80231778108805 152.14016619352785 C266.5083117879381 154.88030684390782, 263.5371323229558 158.47864214544458, 256.78578006633103 166.96577237512744 M269.0310541290807 163.67278674791135 C268.1465910055093 163.92978282232343, 267.7064232172094 165.21570550119688, 266.9700797669571 165.86012627984252 M268.9254493773642 163.5979511627306 C268.53241435709447 164.19297454703567, 267.6995556358155 164.90956708458918, 266.75593071339 166.12492840430463" style="stroke: #ffffff; stroke-width: 1; fill: none;"/><path d="M180.26070923236807 145.40640074440518 C204.5845235249149 146.4107819551978, 232.46802500613228 144.5016093081939, 268.73061578894124 147.81084731810313 M178.05498463922441 146.22207569129057 C202.9658994678733 147.10912720868893, 229.20318548742384 147.03601325258666, 269.46432250034655 146.01381093968186 M268.45565358963506 147.3651163959833 C269.3594381186917 151.35951404458996, 268.11879669941374 157.34275203851118, 269.3419192302361 167.4185885118546 M268.6725717830081 145.29936338863206 C269.1217090393599 152.3284386150283, 269.51894625122486 158.35697209047376, 269.7278511824633 165.61388492135669 M269.02365258167106 166.36625067160986 C243.0148272445989 167.68466051937244, 216.0101204822463 166.75310914227506, 179.46970731473144 166.95236762183583 M269.25460034324357 165.42615768596932 C250.92895485645053 165.36428297303945, 233.32053660384324 164.78395489721473, 179.6178818890344 166.59248209811895 M179.27810323735548 166.25832029747153 C179.52267222571564 163.33937132481594, 180.1492885646982 158.3553354592723, 178.15743608990243 144.5564906715744 M179.35420572317673 165.79873295923628 C179.72736510203467 161.0313825611844, 178.42768697816544 154.68897663503836, 178.72646416961402 146.73424162185592" style="stroke: #000000; stroke-width: 2; fill: none;"/></g><g transform="translate(183.5,149.5)"><text xmlns="http://www.w3.org/2000/svg" x="40" y="-3" style="font-size: 12px;font-family: Helvetica;" fill="rgb(0, 0, 0)"><tspan xmlns="http://www.w3.org/2000/svg" x="40" dx="0" dy="14" text-anchor="middle">...instructions...</tspan></text></g><g transform="translate(56.5,67.5)"><text xmlns="http://www.w3.org/2000/svg" x="17" y="-3" style="font-size: 12px;font-family: Helvetica;" fill="rgb(0, 0, 0)"><tspan xmlns="http://www.w3.org/2000/svg" x="17" dx="0" dy="14" text-anchor="middle">add_2</tspan></text></g><g transform="translate(330.5,109.5)"><text xmlns="http://www.w3.org/2000/svg" x="3" y="-3" style="font-size: 12px;font-family: Helvetica;" fill="rgb(0, 0, 0)"><tspan xmlns="http://www.w3.org/2000/svg" x="3" dx="0" dy="14" text-anchor="middle">1</tspan></text></g><g pointer-events="none"><path d="M189.51791535840516 106.19039988414914 C187.55202639412263 108.27230398471926, 183.9991484545924 110.64471474524719, 180.23836678480453 117.68101863737284 M189.49572108033394 106.61069676749692 C185.02035426994328 110.01526822867099, 181.60391888904564 114.95811699150289, 179.62863308279194 117.7301300717511 M199.76629578442567 105.7884417997747 C192.74122719805518 112.66782057107922, 184.5411298428662 121.45526666082154, 181.55098098031914 126.12982095471294 M198.8602571052806 106.9749955592204 C193.53060282993792 112.44857206194476, 186.54205670066952 119.22029925471362, 182.3946781851638 125.5649770602753 M210.05205133229666 104.51565543612179 C206.51082940545348 112.69578226732942, 202.1265515593829 115.98335177414343, 190.66829968225065 124.2665183971007 M210.68031164627476 105.4206559468943 C204.6113084697525 113.17685146614444, 198.67668597855948 118.56605577316472, 193.16049141720586 126.17136343218544 M219.60866821810245 105.7621627156102 C216.41144981370041 113.30630239951624, 209.47884903068237 118.03099122608674, 201.80631612044573 126.81620196423651 M219.7944245929838 105.18421249557572 C213.6015330353549 115.06137439812275, 207.69778971055783 122.82257832891527, 203.6335292816064 126.56068015842449 M233.01480105536936 106.14171395642111 C225.2320547504056 115.43270177806934, 219.19335232407988 122.75925111764597, 214.1011201462828 127.18432712254157 M231.75838001368496 105.09435480067248 C223.75971603095758 113.15665383092204, 217.3181132557721 122.42535254030655, 214.7456199938849 126.47990589137956 M240.53759760001336 106.9162838402111 C235.5111172530865 114.91198818873616, 228.35152215708192 119.4918711092424, 225.45321459974545 125.85784755044207 M242.4126423602927 105.29060813874058 C234.32007650810002 113.85240380178917, 229.62051410341533 120.74160485716645, 224.16632270143995 126.52054080542713 M250.4210327389044 107.00478108813502 C247.5693540658 112.94816602154889, 241.86950059898763 116.56623636179728, 236.0255109543928 126.76739861158165 M253.26363491848318 105.4802428613082 C248.9736462850559 110.32756319634011, 245.45948815400553 114.01837492038423, 234.33379933769214 125.24978528703032 M262.79669873294284 104.10838115000865 C256.0204891140795 112.4625112444478, 248.9981333711487 121.53912562744226, 243.94358674143504 126.7995432545538 M262.84719878612947 105.6456888439602 C257.41008498187784 111.99591195691836, 252.8561813769735 119.19760304659891, 244.912502173802 125.2236602043579 M270.69016219947014 112.46186906102892 C264.70675165852805 115.47408681940723, 262.5128254814489 119.05910113223493, 257.33654167153855 125.77029163207435 M269.7728514344372 110.50401055581335 C264.6475899680931 116.35678214012022, 260.34540007045996 120.95527989099226, 255.80908738887948 126.25949281415174 M269.1535002963431 123.74374831004073 C268.53101769182103 124.00057011354703, 267.48364134806684 125.28664171402339, 266.62347447748635 125.81467466781692 M268.88261804605656 123.41138620230468 C268.5003713724152 124.10792795168445, 267.93243551247497 124.75633752496194, 266.8461669829232 125.93656120535877" style="stroke: #ffffff; stroke-width: 1; fill: none;"/><path d="M178.20523352402824 106.59732946905874 C207.0425758539252 104.50552687569895, 230.7639392293507 105.75544969650201, 269.78693479237666 104.30152022625118 M179.73180622920748 105.88435189621555 C200.44012601039518 105.09228707355167, 220.7534945125808 105.64196282340014, 268.07626036926905 105.77181222502864 M267.460664697913 105.03261516051963 C269.2736916011664 109.4947076830927, 270.1837659829955 116.2765403336694, 268.61159934750566 125.91796925030243 M268.72353051134365 106.8544555918713 C268.8179178879016 111.60378027861758, 269.34557214587403 118.49402878312486, 268.4780510327373 125.16121885545921 M267.4431754561766 127.745508065214 C244.25490572097075 124.64080911252461, 218.53212122751867 127.52040593344249, 179.92067506937198 127.66104989394775 M268.61029245040396 125.10283713897736 C236.52924287397462 126.8413183251918, 205.01427432420496 125.37791798947862, 179.66879110168694 125.10582105808551 M177.71885509938093 126.38992314455948 C179.09394122626475 119.56633730722666, 180.74521908358412 115.98419283325995, 179.96221393150506 105.79031489716785 M178.5968359391453 125.37810040585478 C178.548145498981 119.89951755214558, 178.99659325650512 113.69918035522838, 179.45407246607837 105.25950754451375" style="stroke: #000000; stroke-width: 2; fill: none;"/></g><g transform="translate(183.5,109.5)"><text xmlns="http://www.w3.org/2000/svg" x="40" y="-3" style="font-size: 12px;font-family: Helvetica;" fill="rgb(0, 0, 0)"><tspan xmlns="http://www.w3.org/2000/svg" x="40" dx="0" dy="14" text-anchor="middle">...instructions...</tspan></text></g><g stroke-miterlimit="10" pointer-events="none"><path d="M 269 116 L 317.63 116" style="stroke: none; stroke-width: 0; fill: url(#rough-2669218169824377);"/><path d="M270.8267797758772 116.2066029296035 M269.39746291769103 117.329964821255 C278.83094804958847 115.77397809490542, 292.03950101816423 116.1296298329837, 317.6195387569772 114.34955490930616 M271.24109144665624 116.71690500187191 C283.2405008029213 116.75993350995289, 297.92600749817075 117.39850286319017, 317.37615375537973 116.56625977817112" style="stroke: #000000; stroke-width: 2; fill: none;"/></g><g stroke-miterlimit="10" pointer-events="none"><path d="M 322.88 116 L 315.88 119.5 L 317.63 116 L 315.88 112.5 Z" style="stroke: none; stroke-width: 0; fill: url(#rough-6958455589158287);"/><path d="M321.974599144938 116.69127663564183 M322.53297743435775 116.59583679888584 C319.18761067222624 118.2130243513979, 317.00031843636157 119.05104177571953, 315.5618423487027 118.88056737867097 M321.6892171605377 116.7516683851619 C320.3076798730962 117.22186104443503, 318.3407006867011 118.55838715553959, 315.77719100331143 119.2933476365121 M316.05335658786356 119.30790508444946 C316.4296165520578 118.6813755918107, 316.7671275714828 117.52004092044011, 317.6149151444172 115.7764238464646 M315.92303791625807 119.50280989337833 C316.41782540234635 118.30284014141556, 316.8141926595169 117.33123760748029, 317.7768625503818 115.83563337075303 M317.4495114742142 116.27753700402113 C316.9205295145233 115.2963226359698, 316.6722834348893 113.9256068179874, 315.5682913679723 112.88708873380826 M317.59687471665586 115.93313187634875 C317.1891953741182 114.77041924293613, 316.55470767092305 113.51175848055716, 315.87348980873986 112.59573176336696 M315.9494537548667 112.0602767843626 C317.6389248554267 114.0453320574865, 318.9231725677578 113.80796614135511, 321.33879594730655 116.7507307276842 M315.7363645450448 112.18627613724186 C318.0289655811969 114.00669389779817, 320.46557618396724 115.85227269228176, 322.2875181411165 116.74976628291715" style="stroke: #000000; stroke-width: 2; fill: none;"/></g><g stroke-miterlimit="10" pointer-events="none"><path d="M 94 116 L 172.63 116" style="stroke: none; stroke-width: 0; fill: url(#rough-1312153509720433);"/><path d="M93.57242471068975 114.14234883223469 M95.24933867192111 112.50350225216731 C110.07317435518604 114.89274088616563, 129.52566474976192 114.61900446123083, 171.29322685073993 116.31371871925415 M92.87488032734315 114.28140220138319 C121.62840660379005 114.43720940907849, 149.8262789492911 114.39955528756832, 171.97808793447 115.97683749648465" style="stroke: #000000; stroke-width: 2; fill: none;"/></g><g stroke-miterlimit="10" pointer-events="none"><path d="M 177.88 116 L 170.88 119.5 L 172.63 116 L 170.88 112.5 Z" style="stroke: none; stroke-width: 0; fill: url(#rough-1432905375525349);"/><path d="M178.134653959783 117.00002396573811 M178.00392807131573 117.28057577501781 C176.20764586454354 117.61717986157699, 172.49066934536538 118.43761618642989, 170.49370459774534 119.33148729081424 M178.3280602032764 117.05661635328495 C175.8017756442999 117.36233319233163, 173.54891896737217 118.85925312156336, 170.76618802437056 119.15291735875009 M170.52925990325195 119.82993259056495 C171.1863372988573 117.84002943404168, 172.3592434331775 117.22923426262805, 172.71210650488337 116.32819599259186 M171.04444031433522 119.58524173577676 C171.2955785483864 118.47412425192228, 171.6710956284847 117.69005281951671, 172.6474522436879 115.93460206629014 M172.7419740211372 115.91011349668179 C171.91697669871562 114.55288071688832, 171.02345326734718 113.68183139294169, 170.75665039207414 112.62736646313873 M172.77678855676106 116.09155178055437 C172.43199250544228 115.25985315998446, 171.6597143376359 114.31430324576537, 170.6951957129411 112.49554721879457 M171.51478563169508 111.66791952840751 C172.07159529928083 113.4519133240722, 174.9434909528517 115.3023255447218, 178.0967172555518 116.8170544311192 M170.52979268967454 112.86644215504415 C172.56521107670127 113.34735214643986, 174.81912202059544 115.20598317388871, 178.39599574968074 116.87438454686315" style="stroke: #000000; stroke-width: 2; fill: none;"/></g><g transform="translate(330.5,67.5)"><text xmlns="http://www.w3.org/2000/svg" x="3" y="-3" style="font-size: 12px;font-family: Helvetica;" fill="rgb(0, 0, 0)"><tspan xmlns="http://www.w3.org/2000/svg" x="3" dx="0" dy="14" text-anchor="middle">2</tspan></text></g><g pointer-events="none"><path d="M188.4529586138109 63.22278542884922 C186.5919107009435 67.05453277683226, 181.0557816876114 71.77699043389585, 178.01633296470197 76.63739130231245 M188.87152054175985 64.14017985478735 C185.28632533232667 67.71041495969664, 181.6003745586081 73.45931723125057, 179.32250138528659 75.1752758814166 M199.9752255300364 63.980492441885865 C192.82395794311302 71.41143898887458, 187.48336033825956 77.95801079821386, 181.10937191813335 83.70352815866472 M199.8981536660982 64.56779280457955 C195.55129800326347 69.678123778097, 191.8159116875376 73.38045058258022, 182.7142918558461 83.0994443610819 M209.01797921015321 62.46308470711289 C206.9961132976725 69.05655371298346, 199.86187374517746 72.14482413433348, 192.81830482076683 85.18232858545473 M209.04873007419783 63.99917792818922 C203.52757776108055 72.12342729676172, 196.81499491211886 78.79968499422932, 192.36547430732023 83.48801645318163 M218.99870982651515 62.89434759684461 C215.94695035583334 68.77029430845359, 211.24726676587355 75.77635230766617, 203.64391070531366 83.32371977134083 M220.10395521282635 64.14154576359621 C215.93150144706257 68.10553998977565, 213.02581004732917 73.40596412374539, 204.05979049530666 83.46928852423217 M230.25235228971115 64.03328914561108 C225.94329816908456 68.7557530228351, 219.70923957888104 75.86250173357325, 212.1918495317844 85.39336627068265 M232.0995676294504 64.89025747336551 C225.72029275343306 71.28080900262233, 220.26412407787157 77.11279232725623, 214.14780830249165 84.98182178695285 M242.37798968180113 62.997704568896246 C236.99852571236315 72.09888789486654, 229.47182039293196 77.99359745146603, 226.21775516720734 84.69464247538005 M242.62495865242903 63.83615067548725 C235.31846928405744 70.44841867591803, 230.89988207872426 76.69889734499229, 223.69406499217328 84.57211435610839 M253.7283927155436 64.37782906944618 C246.84857433758054 70.6188438411357, 241.4295872976228 76.86186478880364, 235.71821753003832 84.70196507129714 M252.35810019879472 63.05491497426109 C246.887168602356 70.28077908681468, 240.959775393526 77.04001275794195, 234.6495247154382 83.02273303878617 M262.10047170793695 63.954416395047915 C259.43555538481024 68.58465466889281, 254.56658250410965 75.28018733277611, 244.51044031475737 84.05494774854415 M262.9018655912769 63.97010119097839 C257.26944926465444 71.29425617287751, 249.96205210615318 78.32996445963141, 244.67750139269322 84.93807608821709 M267.3358156630127 70.84617624173796 C265.1192569221882 72.3048549009718, 260.5755173989343 77.16397895913724, 254.6113731405398 85.06622491182348 M269.4757812974733 69.16102734996178 C264.05181894649246 74.98062915616623, 260.4130112374122 79.31643874668632, 255.6599801889269 84.1653289093847 M268.69224316341945 81.75495589206766 C268.35819504751 82.3688144033367, 267.66708566301816 83.27851724984089, 266.7386680274167 84.2579111304958 M268.8526371813822 81.5682699336294 C268.3549566290197 82.15111474128561, 267.6282699782425 83.23585293317318, 266.8957556445157 84.12949376171343" style="stroke: #ffffff; stroke-width: 1; fill: none;"/><path d="M178.73921319391894 64.96768921063847 C209.3305368051085 63.35143443612123, 235.07979788000011 65.31148111584525, 267.85329079148113 63.08590975413367 M179.6254594084855 63.77213399916518 C214.61319505507063 64.93989894630754, 250.2693219542459 64.68589174666226, 268.77893219879 63.57816779321689 M269.40497843852575 65.80945536081944 C267.6827722811655 70.98828794519224, 270.268765574584 77.17400917896181, 269.86814675440485 85.64169740506333 M269.0857753928622 63.26744930438632 C268.74889124336795 71.54983154297578, 268.65752321404926 80.53990172891773, 268.88077997638493 84.37479348235671 M268.0095513602549 83.56951276637936 C249.56675103946935 84.76065893478406, 232.78348273739405 83.31956062747336, 177.21599308101077 82.3942182803449 M269.8275829445489 84.21419541748605 C240.64870695643182 85.05660768964464, 212.8088538342984 84.15618391394183, 178.79080585338082 84.00162574049655 M180.80645503504914 82.07568485886566 C180.61384701530557 78.244707959806, 179.93646768035939 68.73677106711001, 179.7945142969877 63.26271579141246 M178.43441713201446 83.32090749718823 C178.81278986913685 77.15979276705447, 179.27911168446187 71.99593990547311, 179.00774181811403 64.02153214169553" style="stroke: #000000; stroke-width: 2; fill: none;"/></g><g transform="translate(183.5,67.5)"><text xmlns="http://www.w3.org/2000/svg" x="40" y="-3" style="font-size: 12px;font-family: Helvetica;" fill="rgb(0, 0, 0)"><tspan xmlns="http://www.w3.org/2000/svg" x="40" dx="0" dy="14" text-anchor="middle">...instructions...</tspan></text></g><g stroke-miterlimit="10" pointer-events="none"><path d="M 269 74 L 317.63 74" style="stroke: none; stroke-width: 0; fill: url(#rough-4732560961415217);"/><path d="M270.0858229544729 73.7983984894337 M268.5138503968277 75.75327153321054 C289.30700617680515 73.17847122004677, 304.9771140992366 72.07091427151467, 317.27121614073445 72.12770807696874 M269.8462971517424 73.90886023209914 C280.5314743612826 73.65258230842133, 291.52280154026056 73.2350795403065, 317.84591905518073 73.05787567178938" style="stroke: #000000; stroke-width: 2; fill: none;"/></g><g stroke-miterlimit="10" pointer-events="none"><path d="M 322.88 74 L 315.88 77.5 L 317.63 74 L 315.88 70.5 Z" style="stroke: none; stroke-width: 0; fill: url(#rough-4688539510176121);"/><path d="M323.94179486254455 72.70074634850116 M324.56840360722424 72.76034708617959 C321.20231205368566 73.77512401065765, 318.4734450043864 76.10471043261714, 315.17715682616637 77.0992092311045 M323.6627966532244 72.86318524207584 C321.9063180986867 73.71554710602584, 318.7945467466728 75.90663013906361, 316.16356110870476 77.79878196341186 M315.64474681392994 77.30401447080477 C316.1207670536978 76.55300072863311, 316.9567788690637 75.57166510403995, 317.8429317773289 74.36539216434565 M315.9698976187727 77.60841878761188 C316.46391893968774 76.6044907045017, 316.6349088805317 75.76003563598104, 317.45105901136856 74.19183406599606 M317.3924538515205 74.14449052354126 C317.2448094822212 72.8618836943242, 316.3432680407183 71.45122098994908, 315.7397203294458 70.1908186451956 M317.82460160683115 74.17897974891322 C317.26963389955773 73.20542967292154, 316.88629702077156 71.96926151609051, 316.0498278151313 70.51207899248855 M316.55698193476303 70.73692704572339 C318.52941263011155 70.49815590145776, 321.7894262916095 71.97509887440681, 324.43918398317777 73.22169967492958 M315.92164764194985 70.30849710465505 C318.4483538237078 71.64730295455257, 320.9840811207071 72.42965175776061, 323.77049964806434 72.70729977415208" style="stroke: #000000; stroke-width: 2; fill: none;"/></g><g stroke-miterlimit="10" pointer-events="none"><path d="M 94 74 L 172.63 74" style="stroke: none; stroke-width: 0; fill: url(#rough-5688877836856851);"/><path d="M92.02272422571816 73.0743804633112 M93.41219227928447 72.13404733081825 C121.6250138370685 73.79500514612076, 147.64746940135709 75.10628552835351, 171.96976773388758 74.97045222947655 M91.07736889997925 72.48716050661662 C121.59800574625206 73.68898560748586, 152.43067539573906 73.98753657749083, 172.5269663891825 74.44274701855808" style="stroke: #000000; stroke-width: 2; fill: none;"/></g><g stroke-miterlimit="10" pointer-events="none"><path d="M 177.88 74 L 170.88 77.5 L 172.63 74 L 170.88 70.5 Z" style="stroke: none; stroke-width: 0; fill: url(#rough-473046167377721);"/><path d="M178.41143580414584 73.39309170206214 M178.6642108133743 72.56028207949805 C176.78910617017837 74.50364840653066, 175.07847444435706 76.1275710231685, 170.50625901182636 78.02341992929605 M178.18924200364617 73.1837478784489 C176.1267672973685 74.26762087141373, 173.71556512947444 76.10092299050656, 171.23214968365784 77.28593126524717 M171.16858020010542 77.11949791482722 C171.235564572192 76.70435798077733, 171.6896076856291 75.3062311313369, 172.7234037821559 73.87587978278206 M170.7092752267545 77.6916358919056 C171.41515015273043 76.899558416515, 171.62646792430897 75.92007749191187, 172.69826329408556 74.19138407922276 M172.80205440713803 74.00293145340741 C171.88370905981515 73.06215186346505, 171.20698641669878 71.68651506848025, 170.74670966095366 70.34044079496891 M172.80866331275053 73.8157470121349 C172.1027278091717 73.10870499518829, 171.74071781496127 72.44324061058897, 170.69557094992055 70.40352775195424 M171.4087148750722 71.21884017888132 C172.56626046618763 71.68360270037466, 175.32194878443258 72.34158044937246, 178.94831474289427 74.08946415932557 M170.68563376356883 70.19436512483772 C173.52079113334202 71.61408122344072, 175.9570250319168 72.36431430001585, 178.61007536193407 73.58756418832442" style="stroke: #000000; stroke-width: 2; fill: none;"/></g></svg>