<svg xmlns="http://www.w3.org/2000/svg" xlink="http://www.w3.org/1999/xlink" version="1.1" width="189px" height="130px" viewBox="-0.5 -0.5 189 130"><defs><pattern id="rough-1886947502916345" x="0" y="0" width="1" height="1" viewBox="0 0 100 100" patternUnits="objectBoundingBox"><path d="M6.243438110632492 -0.3985443657531048 C5.7725592184686 1.6285564435253104, 2.884995666536724 4.757314726424074, 0.5750936864767449 7.932215125623496 M6.35653495612086 0.39113064190159874 C4.649394860051701 3.128359088703263, 2.021046462993616 5.797528658586721, -0.30773122544207676 7.397142889550226 M16.156654928936256 0.13005822805013523 C13.16109747133558 5.901500148083238, 7.531701183802492 9.22793154177561, 1.046647886817846 20.746436963270803 M16.787102256200278 -0.27811182506479337 C13.397400890610111 4.53037116660783, 7.575375221255586 11.202995411650406, 0.5938669500491844 20.890294853154042 M26.61788487250256 -1.8904162648297609 C16.805627487767637 12.189006928148252, 10.680392773581854 22.839387673267858, -1.8091569557263245 32.65384440118405 M27.306239093635238 -0.6537423339669814 C19.812913391199046 7.697424189235456, 12.208230312237742 17.31842414626554, -0.7434433311323376 33.05319414586974 M39.72269380807865 -1.7705610595368197 C26.405413012300194 13.403880420988187, 16.246614512261726 22.545771292536795, -1.6634527213260677 42.515769262865625 M39.51610083679464 -0.4443301219325244 C28.279583508879938 13.138547244041321, 14.970285140377733 25.8130333629587, 0.09024415041485767 44.15093940098886 M49.789387875485474 0.8031925981440118 C33.26736779538242 18.867741939089733, 16.382234749177513 38.41622169873452, -1.7323242215959995 55.05496515579095 M50.01962177861094 0.11195427617499387 C28.765890483718277 21.512128718464183, 11.349997597236758 44.83894858356349, 0.8589654217034974 55.85851885431154 M60.07250151941102 -1.6633050588123588 C40.4558944667187 22.194775571485543, 23.545897401675887 41.38107170211773, -1.5806241183717722 67.17227817376366 M59.62228958555961 0.7826703590984985 C38.913539245465756 23.40568841711311, 17.370915658100234 48.24239654012018, -0.9997361964107241 69.61157874103289 M71.72462268162562 -1.2660861959543555 C43.59659590077952 33.00501281628392, 15.434878578037578 63.535339461141035, -0.22578831075548766 82.46562924552434 M70.25731454047967 -0.3001286963888372 C52.292905581662254 22.079160829903586, 32.25414755537782 43.296722044673054, -0.6686050676767148 80.76864837307535 M82.3010030152966 -0.9398097256949036 C54.69635747339934 30.37841175591052, 30.634227327917944 59.136619148487384, 0.059289225821764546 91.68090858740914 M81.6083057143089 0.41351767288098307 C55.24979647779877 29.149113490422813, 30.15735038223201 58.91999086526767, 0.6842761457494237 93.23423286080859 M89.92560144229435 0.19207417685153594 C66.80682076736018 31.92464629815116, 39.5337474567572 58.67198424510892, 5.981603322990223 100.58057890152348 M90.97425409356642 0.47757497377984937 C73.44028386616931 20.35576375907086, 56.02598627684219 40.703262292245846, 4.93361296660701 100.62867625052735 M101.5339391057016 2.7606578387413396 C82.53986784624429 25.402054993341714, 64.23652730987907 47.17402761051976, 16.337626949955 100.3159993899859 M100.57560558659861 3.3920092705897167 C82.75810758077978 22.934133005296143, 63.55323725201975 43.7521277038998, 14.938903156158279 100.76312917437436 M100.75054260082848 12.780674001432917 C81.22280947502966 39.20599495365213, 63.228017135504636 61.03264571932779, 27.17229583992983 99.98050465621056 M99.95320836603369 15.16425318870178 C73.77787001090617 44.15465129379284, 47.281859208279535 75.765939142658, 26.17829370272701 100.63741447286255 M99.95324045500364 25.039798959822026 C76.56844215556082 50.96542384565042, 55.86938021964153 76.92706739282887, 35.880803402803274 100.0965886685502 M100.86077082419457 27.829573438040285 C83.8882426209636 44.46072547924059, 68.47710207203205 63.965959406968416, 37.0411877052793 99.34148458752394 M99.86415823174279 39.14882228010851 C81.92499333566977 58.76821031590221, 61.16514893538691 82.09176095609159, 48.75711768078069 100.92650069474757 M100.09516589975259 39.51023157187342 C86.11794737967826 56.613155706572265, 70.77911294600995 73.43554362928884, 47.72596429257889 100.80999234081402 M101.47356749740702 50.587451614879285 C90.3644663044912 63.38822074948564, 81.49743738807359 72.9416865678225, 57.9873006732191 98.50096385634566 M100.47638801495143 52.07430714397622 C90.67132805650017 63.37474243473167, 80.73409184590751 73.09770371765464, 56.718637280458 100.04305036019983 M100.17274710220669 64.89156910137889 C85.62241265544824 78.31321440228554, 75.16838437475131 91.51710006604326, 69.68592382995107 99.43091136046641 M99.59765984083326 64.3409599267791 C92.92606263509728 71.28654106906733, 85.57804005133313 80.50823905404778, 68.40047488867332 99.86060367739138 M100.72606498900817 76.64867116104357 C91.47464483597123 83.74095057388729, 87.26740955484465 94.17439939180647, 77.33733404227982 101.0490971068023 M99.45492413490402 75.74945115970596 C94.9766570720533 82.75865534061653, 90.03783167683294 89.24672559031687, 78.8624178057749 100.09381796525882 M99.0532685668861 87.00371326514536 C95.30682441039062 92.8822730905295, 90.7310511389237 95.90611811765011, 87.92206347849076 101.58668411583903 M99.42722995719961 87.89303947910496 C97.117872424885 91.46274189406387, 95.05345227642492 93.5106322126546, 89.42084627758997 99.4250117921196" style="stroke: none; stroke-width: 1; fill: none;"/></pattern><pattern id="rough-5643932328227663" x="0" y="0" width="1" height="1" viewBox="0 0 100 100" patternUnits="objectBoundingBox"><path d="M6.111023658456156 0.3841807467929761 C4.0383736258963445 1.8723338487639194, 3.398030894294941 5.033381893266411, 0.18208508301219295 7.485154870273543 M6.741777986947047 -0.4208511610113229 C4.841454896577372 2.7603485622687134, 2.4122111638940633 5.216968953151719, -0.2524219644167756 8.32797425462793 M16.534175098712307 1.2216438102433953 C12.645678484279527 4.334264972179249, 10.425312888351126 8.948595164996984, 1.2855696880172882 19.047626621250338 M16.935193143990414 -0.0447021065826263 C14.378145685190335 3.4355023977563937, 9.57799986362604 8.04178766947293, 0.8612148367704022 19.106300807785754 M27.131650310513805 0.24740723308126267 C17.665560989820627 10.625661226145432, 9.452678153777251 21.337383320506348, 0.5082168745589097 33.10943438016496 M28.87901181522219 -0.6436263084272533 C20.964228826019262 8.637087070206203, 11.644116813908381 18.516587631963496, -0.18795234263999916 32.300225091247334 M36.89920177841565 -0.5744953380870461 C24.740637870470398 18.1882094387488, 12.150467332493015 31.103442319138487, -0.3554718958811911 44.93782166101031 M38.90821374204669 -0.5517947250305193 C27.258570402004427 11.204135500810185, 17.78520133812117 24.09990742356872, -0.37696064724895484 45.355000169156355 M47.605848288412915 1.9022611001713408 C29.746897247298417 20.70474503479601, 11.441184508764533 42.17759643052208, 0.8462312637930349 54.59772965605896 M48.25408164168079 0.9303440654239776 C35.227356028961424 15.462455192359876, 21.6801523562135 31.61841052201983, -0.40546926608461176 57.30908301347313 M58.27160638245273 -0.7090381156191627 C40.48544412871252 19.581360494252234, 21.01233702470801 44.012951441100235, -1.6405933355947004 68.7002672887474 M60.416439875453506 0.27635701323299067 C42.18204523111249 20.29186500685843, 24.79951733942289 38.692328845293176, 0.4653668010341292 69.6519106662928 M70.40943897118518 1.3086363391156102 C54.80922871944176 20.063341234696185, 39.9561407904989 37.445433731625855, -1.685628852678951 81.38654870576026 M69.66914427727095 -0.4310658650680237 C47.572241537298424 27.131647689250933, 23.5263485077319 51.66318598615478, -0.6485808696616888 80.79469108809042 M82.89214940132055 -0.26204733425821125 C55.077488430833505 29.452830898461663, 29.041799636839283 56.21440681421502, 1.1001614709300425 93.98428062333971 M80.79639400076452 -0.8129164467485626 C48.439287556736346 36.84239013506412, 17.701955484120706 73.05345495607153, 0.1648146901827361 93.62154965864238 M92.32259426292636 -1.014601091245451 C70.80053991315933 26.78746855446848, 48.465618448262866 50.97441791681211, 6.075286165471563 99.90292091210814 M90.94017520616295 0.6732661312560575 C62.71568315186424 35.30657436705331, 32.86998043387572 67.60821884064276, 4.263423428659385 99.99151673095308 M101.99837728697361 3.806415128767841 C81.62997587797118 23.35957328745927, 64.09443207481782 44.17107301471734, 14.420706619995958 99.09461999256709 M100.54732958226748 3.2398670963419502 C66.84235304031162 41.460740243729774, 33.99021184690888 78.69354173707526, 15.468007765981532 99.81393860401664 M100.14152705289342 15.036999508219635 C75.72630761865796 40.522665329096675, 53.37255706011778 67.20958363962289, 27.21002592161627 101.79834788740342 M99.70278141860597 15.289307770880585 C75.58219605256774 41.78123176270347, 50.01399598819281 70.35595055817423, 25.076903114569447 100.81484975957589 M98.2162356725685 26.20754986171576 C85.34088128184028 42.08774014856323, 75.46590731943016 55.74192350515868, 38.14443470815532 99.96634211847575 M99.94533109698331 26.056634507099865 C81.49652939964248 47.6328596255399, 63.58702046386536 69.18760269457702, 37.01026098959907 99.59457025712847 M99.66253845024103 39.52080527950807 C79.96866512531417 60.519396284753405, 61.25930314559357 82.97775880436357, 48.98277460819192 98.30750447044834 M99.94684255855984 39.590083449382604 C80.13655096902377 62.39744054385928, 62.641481308915736 83.49826144812444, 46.40123316797423 100.88889317002014 M99.60485454081835 52.93532820755013 C89.95660562058377 62.51946987933192, 81.83557980312916 71.26226432265965, 58.98974644503502 100.63559430492245 M99.07097138793142 51.60495732699735 C84.27664269778997 71.00189851986032, 68.04579684077406 89.0717254242703, 57.09875136507114 99.48891893597875 M101.71070872297408 64.43103251575937 C93.12720246317728 73.7036066075936, 84.14631861629867 81.97039239772776, 66.32510737989686 98.9452087413412 M99.51755783369175 63.44013631360837 C87.26535286395065 78.30510548540944, 74.43886406873362 92.34429183854978, 67.45601004962286 99.678048660196 M100.73335014996536 76.55816583642559 C94.79849526154251 80.95675970026952, 87.99911390147206 90.00726353948043, 80.05223210331874 99.15617008299932 M99.85373590093724 75.89814123632237 C94.07429976865645 81.34623528114746, 89.4410134770408 88.36474355468745, 79.76241984869014 99.39406991017373 M98.94931838900382 88.22639994724722 C97.17801898680885 90.17539050240929, 94.32641954303695 94.93400371660299, 89.8893675648827 101.15821062093029 M100.02878723510199 88.62544268477266 C96.813056696582 91.21985092551084, 94.74503350898496 94.19060521561521, 89.88012854872636 99.74178961460822" style="stroke: none; stroke-width: 1; fill: none;"/></pattern><pattern id="rough-7520262532684697" x="0" y="0" width="1" height="1" viewBox="0 0 100 100" patternUnits="objectBoundingBox"><path d="M6.7043949458614795 0.3766086892096583 C4.056652276536836 2.8504364726498084, 2.438295665846754 4.201848078170666, -0.019702510111028637 7.22910330541178 M6.536428320674988 0.06251559120379346 C4.427875912875478 1.849352519793361, 2.3253132184307477 4.72032430981273, -0.33957639691888253 7.362547872008465 M18.35108788477156 -0.23412121120754303 C12.283026836657541 5.429089001740445, 8.832749579342192 8.86957412606008, 0.5777767578816615 21.113252449413366 M16.807059413202296 0.9490128665162523 C12.946484204859765 5.698627345749877, 9.537727400641511 9.87011903241204, 0.6776462550411777 19.906941026819574 M26.567776270004416 -0.29327476958726084 C19.889369542572073 8.54148171660084, 11.644079201562676 17.434449193579425, 0.032437577898871695 30.850161790335072 M27.189833354453526 0.4571083637661797 C22.113559632845188 7.418593070841797, 15.7167030843098 14.629520032377378, 0.9492953570675811 31.749440471270063 M39.3115944682184 1.5353664595207146 C28.362718067997854 8.802188451265138, 19.221524969339015 20.783673703554488, 0.98063364158729 42.99193835570603 M37.655476102392804 -0.4410097280712466 C30.217910107090646 10.501863723334262, 18.800869038047804 22.07640237170886, -0.8247397455618444 43.549838154572555 M47.21910234625608 -0.4313423746457099 C36.62581427930283 16.733175055044907, 20.09334454017865 31.75097772022774, -0.44694763347873057 55.296490332511226 M49.59839589657707 0.7193235127611204 C36.60902592578182 14.830139096630734, 23.242072086206235 29.78943347667272, -0.6253889603208838 57.325261659449374 M57.92474551963526 0.7003607120054998 C38.17756077327849 28.094853709034638, 12.484263086217204 53.142665766700446, -1.3957132782067383 68.90869929333084 M59.30817888950557 0.753725035534798 C38.404999066013396 23.92708320716761, 16.88920215138447 47.51989534917499, -0.7499799735215058 68.83397180764355 M69.30045148699953 -0.2843223147699998 C43.080898967531354 27.536713359921002, 18.510978474758915 58.05618993648509, -0.5808013158655472 82.96074283274362 M70.64234955350005 0.7306359313679844 C43.684286008083625 31.793508853976796, 17.476747500313092 61.739350003738494, 0.4241455844380386 81.68895187335983 M81.3941117873859 0.6841993878258101 C62.93384849933494 17.44714814260334, 47.29940246658767 37.82908125916943, -1.5290486636339455 92.80468785356744 M81.48824265829315 0.14552155411177647 C60.630228650327595 23.794916250426503, 38.03079717765694 47.88414844065819, -0.937321018228634 94.14361127925582 M91.48428181293372 0.5951189304189928 C73.64106621575208 24.72001758546086, 53.962560539389926 46.25149679317079, 3.0142407960966144 100.16607148580054 M91.11143868936338 -0.33795768910767965 C71.15081889190343 25.466037969574327, 48.03930799858828 51.29699339194907, 5.30352452027687 99.8492251652028 M101.91618291885871 1.2246602626536207 C72.52865298415628 32.099851680298315, 48.15400228391829 60.135235536919126, 13.337616865578495 99.4776670426326 M99.15434429926215 2.927923911048658 C70.12829869960157 34.49185686076812, 41.2362080253741 68.9341175559115, 15.8679405802084 99.19764708655485 M98.04207557871733 16.222362607673187 C75.33599765952933 42.51206408710902, 51.49725618871616 68.44690546992743, 25.47886851826077 99.42306258052778 M99.32304743804977 14.359360933865892 C71.57492070167653 47.41091351267205, 43.50298026004626 78.83257041658143, 25.16637125283588 100.92270296839878 M98.90910143405272 28.205407145202116 C83.12118130109124 47.215299889458535, 65.07435971303647 70.62435943839836, 35.82970874224866 100.71644970762355 M100.61305411435757 26.012266036546166 C81.08964359284718 48.325017657329674, 62.51586211580362 69.29582289906264, 35.83949643722328 100.32169974833242 M98.47355824055086 40.30191721159991 C84.17989961143596 57.815109965926545, 66.5810280460142 79.73230300215053, 48.17663218759529 101.24832444204945 M100.41945330035256 38.30904095351023 C82.39024442340298 59.38370362889942, 63.18368102049797 81.60100145296052, 47.202523580308146 100.6342482551995 M101.54158250459577 51.189404465842024 C88.4407404036084 63.09952588701446, 80.16691063433687 76.35817515601107, 57.57954085000087 99.23681417985189 M99.93545377239947 51.87751572131165 C89.64157174519914 64.56735916055327, 78.28533330466085 77.03324598072322, 57.841039589996925 99.90288257042835 M99.76162793623544 63.81962976961678 C90.58613215198004 75.4889468239363, 77.60818230275433 88.62993412454796, 69.33991323275177 100.81905568093867 M100.96579104411529 63.36459033047919 C87.56872288507022 77.88302527977305, 74.77122370323646 91.07367872125842, 67.88121173099286 100.5404330704521 M101.43129919793915 77.61445188591465 C92.62085985609698 81.44734447415803, 90.43850205075374 90.29255548190834, 78.72196795954035 99.10078874128446 M99.34309041585627 75.50802645489448 C93.97588436826638 84.62004881073838, 86.91343348644595 91.28374674662716, 78.06535564730582 99.91500596991746 M98.79996592933603 86.58487300271574 C96.55833084086778 92.58169620610639, 93.82047469620011 95.78359139868056, 88.78172917547239 98.63215816689402 M99.40625218063595 87.81597915722838 C96.19424179059342 92.20018212808587, 91.67458254043864 96.91938655854044, 89.30811142935552 99.23173042895853" style="stroke: #000000; stroke-width: 1; fill: none;"/></pattern></defs><defs/><g stroke-miterlimit="10" stroke-dasharray="3 3" pointer-events="none"><path d="M 84 124 L 84 54" style="stroke: none; stroke-width: 0; fill: url(#rough-1886947502916345);"/><path d="M83.33159310073061 122.70690965110578 M81.86361823537932 122.19619074594097 C84.11514660452727 103.43059342178391, 82.82096163125576 85.91921285708825, 82.19243885720981 54.380176500369515 M82.68701301151627 123.68016366712405 C83.8952945897151 99.96046844492592, 83.47857675260155 76.06513955189263, 84.06789982732451 54.81787993120204" style="stroke: #000000; stroke-width: 2; fill: none;"/></g><g transform="translate(18.5,87.5)"><text xmlns="http://www.w3.org/2000/svg" x="15" y="-3" style="font-size: 12px;font-family: Helvetica;" fill="rgb(0, 0, 0)"><tspan xmlns="http://www.w3.org/2000/svg" x="15" dx="0" dy="14" text-anchor="middle">name</tspan></text></g><g transform="translate(139.5,87.5)"><text xmlns="http://www.w3.org/2000/svg" x="14" y="-3" style="font-size: 12px;font-family: Helvetica;" fill="rgb(0, 0, 0)"><tspan xmlns="http://www.w3.org/2000/svg" x="14" dx="0" dy="14" text-anchor="middle">"text"</tspan></text></g><g stroke-miterlimit="10" pointer-events="none"><path d="M 54 94 L 127.63 94" style="stroke: none; stroke-width: 0; fill: url(#rough-5643932328227663);"/><path d="M54.32125235295232 93.03532887113313 M52.35549225537504 93.93026341198545 C69.62611952937065 94.45381237764498, 82.66790962940111 91.86144469038672, 128.58846794139342 93.8612778869531 M53.39136998293004 92.30837163528093 C73.31221448905103 93.4736961711586, 94.73834736683912 93.65850507809165, 128.36313743299635 94.8180392575612" style="stroke: #000000; stroke-width: 2; fill: none;"/></g><g stroke-miterlimit="10" pointer-events="none"><path d="M 132.88 94 L 125.88 97.5 L 127.63 94 L 125.88 90.5 Z" style="stroke: none; stroke-width: 0; fill: url(#rough-7520262532684697);"/><path d="M132.6669676654845 93.61260702287434 M132.17903345820395 93.88159635342055 C130.9368673488357 95.52347971294914, 127.71697366770648 96.00897914256052, 125.51945320136855 97.43554267585387 M132.54663481655237 93.68260339794489 C130.57387494111842 95.07275070402021, 129.05428772743747 95.77907661138103, 125.54949021548286 97.14888211952629 M126.08350075396656 97.40252772827726 C126.54996847494577 96.62961864104315, 126.31546609819934 95.89102322985488, 127.83984755497255 94.22599930844443 M125.73392128275111 97.4539886275175 C126.20788453721012 96.43151467613968, 126.68344129762467 95.79349760689256, 127.74569099945735 94.01223950226054 M127.62318928414727 94.0331862997663 C127.22606007406536 93.03452199185551, 126.70281724414701 91.52602602709679, 126.15325614129658 90.86159881535845 M127.51021935373073 93.9099837879809 C126.98337910868662 92.76941386489068, 126.46681982023158 91.2428328324957, 125.69423917785724 90.47880204879891 M126.47041285606896 90.14614315907258 C128.02200357036958 91.55766638246685, 129.31933295735104 91.96850717027824, 133.3155520823491 92.9481698632183 M125.53637787544461 90.50293426289029 C127.86604751126093 91.75949340301706, 129.8636432950363 92.05607215639877, 132.53381683176937 93.53699044038063" style="stroke: #000000; stroke-width: 2; fill: none;"/></g><g transform="translate(7.5,7.5)"><text xmlns="http://www.w3.org/2000/svg" x="26" y="-3" style="font-size: 12px;font-family: Helvetica;" fill="rgb(0, 0, 0)"><tspan xmlns="http://www.w3.org/2000/svg" x="26" dx="0" dy="14" text-anchor="middle">Variables</tspan></text></g><g transform="translate(134.5,7.5)"><text xmlns="http://www.w3.org/2000/svg" x="19" y="-3" style="font-size: 12px;font-family: Helvetica;" fill="rgb(0, 0, 0)"><tspan xmlns="http://www.w3.org/2000/svg" x="19" dx="0" dy="14" text-anchor="middle">Values</tspan></text></g></svg>