<svg xmlns="http://www.w3.org/2000/svg" xlink="http://www.w3.org/1999/xlink" version="1.1" width="479px" height="429px" viewBox="-0.5 -0.5 479 429"><defs><pattern id="rough-6524141190927433" x="0" y="0" width="1" height="1" viewBox="0 0 100 100" patternUnits="objectBoundingBox"><path d="M6.946743237266942 0.6671122219554282 C5.646576634597457 3.2969049968489523, 3.6755898364794013 5.342310464564779, -0.6123767470186885 7.420125053049251 M6.794217760312856 -0.08134389142530524 C4.024590095767473 3.0744996966797586, 1.6827709009434118 4.9599948905424736, 0.034163237644062594 8.050198299492289 M17.933284544893937 -1.890731853625125 C10.618754590661448 7.045922500804973, 3.0451494111625914 13.69482557350597, -0.518712337352202 21.094730215072182 M18.03808189283479 -0.9218580776523306 C13.559335442960347 5.465503100075191, 9.505608164770658 9.36393468224176, -0.9172387350320341 20.055373076881917 M26.162642813987162 0.8031430723510526 C20.019119466767947 7.94992145066518, 13.711793036736102 16.490368694763454, 1.7958963489948472 33.833051593072916 M27.659533156131676 -0.31843668850689966 C22.337861493664963 5.784596432467923, 16.526259282316577 12.635461536342856, -0.912903737772305 32.77261590338232 M38.21894048983124 -0.21933809867188625 C23.883356747640384 15.875134493792524, 11.911656289213388 32.05146139967212, 1.588179125553741 44.68950519203704 M37.652970105117106 0.0896583012672818 C26.811545081423983 13.673003848058253, 14.983878799632102 27.686423037294663, -0.38608104344616745 43.924379360680376 M50.79051564526993 -1.038734760619957 C38.94219492483207 12.054874752501867, 27.529702327432567 26.37242464079273, 0.6073243949354898 56.20380393278569 M49.83225749299395 0.21605276666870532 C35.95886883189694 15.675162797614023, 21.964380243986803 30.68846913195288, 0.9826598170468155 55.75576578894547 M59.70375748522048 1.5349253124581068 C46.487378626401735 12.805541950511302, 36.14319883820995 27.75103447942024, -0.8017579769064289 68.12903567493822 M60.02335300899686 -0.9497755333342481 C42.447315216054534 20.36939601494632, 24.276279181286185 40.72338266136205, 0.6794517673691156 69.73841644764813 M71.95592047996223 0.28812537660113957 C48.13256193140934 25.08656281258363, 27.84555082163268 47.413798053637656, 1.3309079503461625 82.93214861127066 M69.61769108450773 -0.4559192131084737 C52.932875231343736 22.67539317966423, 32.73552551263228 43.95190790183518, -0.09786896368100306 80.87735970500492 M80.79323424226573 0.12163607164616597 C57.04531398846517 28.050062124968207, 29.196719287567134 60.30785138840297, 0.1375926647543908 91.38497295517676 M80.09361511273963 -0.4669901193263506 C49.06720512229203 36.46720413779594, 15.950606720717245 73.82729456070305, -0.5123770253297204 93.2686547306712 M91.73850017884948 -0.4939702628319873 C72.11999345296996 25.652898794329186, 50.54622798634646 51.275110105500055, 3.4024792740927863 100.62377233069083 M91.27208396538997 0.515201147724095 C73.26454149881971 21.10988900684724, 54.10090008487308 43.04320176922339, 3.8112002783075565 100.97086945524599 M99.2589796883838 1.9627397449512909 C82.5754901188954 21.896575111846197, 64.23804602925618 42.92663624363773, 14.506184119353925 98.87008137917783 M100.47225231673471 3.00032841040973 C73.72328858186111 32.73594011535843, 48.183062998357826 62.31679520855835, 15.492316824452509 100.05028795330264 M99.57346472437426 13.378674785257063 C70.87241050941816 46.46700773910844, 43.17956073041117 76.68768239770348, 24.617432339100507 100.00971478368065 M99.31712750384096 13.95083313420328 C80.68936856695558 35.84451965739552, 60.19441312466795 58.45363964641988, 25.30689213912316 99.10700012644557 M100.34026055889562 25.213051681633175 C77.12008566265884 53.84250911298942, 53.637463946917656 80.12147774745038, 37.140173624219 99.10976010004296 M99.2964437652507 27.064728549899815 C84.75096677189983 46.30103652635633, 68.89177998243906 63.77997788606631, 35.49933960215819 99.92503986765716 M100.61232858129003 39.99582535476465 C81.07429522492679 63.60126649751303, 60.6284348134081 83.79307368041941, 45.177382664100634 99.22065335076094 M100.53927877091286 38.59365400360962 C83.50327569501347 58.21363302850021, 67.39532780096843 78.3661202909404, 47.85689207425008 100.75047318322116 M98.62946569610054 52.89466837779664 C87.68027051738167 64.16447548783663, 75.46370159998088 79.55158246288312, 56.370485419019886 101.96730206542387 M99.76271945025111 51.546075950682315 C86.42985179913319 66.35431980429, 72.45844392152752 83.97912946164045, 57.40584624199764 99.67727680060845 M100.18313426741648 63.209928888522164 C91.59930674306268 72.57234051614792, 86.81339168555984 80.9149198718296, 67.36613162693713 100.10973663884697 M100.76195385262443 63.485403674351524 C88.67385830851752 77.22631954071032, 77.08942311340282 89.19435957176044, 68.68580579453135 100.30728900410027 M99.4801295687505 76.95357330604159 C95.6206403705068 80.84716521574458, 89.26725439837497 88.20202106255827, 77.51434202238283 100.79374625280155 M100.1848572822472 74.92162413831547 C94.15148228205567 82.24605138232539, 88.36002555771869 89.5901454336724, 78.10957467441455 99.49927679324537 M99.4058129797982 87.64178785231505 C95.5454159138707 91.35667848876892, 92.05795084451951 97.37968715743895, 88.62172837939725 101.35313302246175 M100.26351048848468 88.16797255138974 C97.49182867356151 91.845497743944, 94.11216928095936 94.20391582438174, 89.90956996154264 99.57862858158127" style="stroke: none; stroke-width: 1; fill: none;"/></pattern><pattern id="rough-5098630266060925" x="0" y="0" width="1" height="1" viewBox="0 0 100 100" patternUnits="objectBoundingBox"><path d="M7.260387750411698 -0.19854807198760105 C4.491651302595959 2.489089695213861, 3.2785890203132455 3.687981387819848, -0.6224394422206108 8.550091149043181 M6.558016732114283 -0.4049434238270647 C4.70158327218398 2.2178425822734917, 2.499192598699439 5.443931274525768, -0.2370120279811176 7.454352464485237 M18.001133271890502 -0.9416038921296179 C11.041636101274822 8.815901868606108, 4.521283301386835 16.694796036959907, 1.7502663755164045 19.7253036130841 M17.28473142363295 -0.8089997184122204 C11.091100606560671 6.518593397139819, 5.67132678944174 13.671036771364498, 0.34453802257037447 20.239328339878845 M27.829277390405764 -0.8571128714979039 C22.98601078462179 5.709053955048424, 15.309578687559963 14.325363973544896, 0.4306057963884635 30.617089672185013 M27.851465230507923 0.7078413070399114 C22.82867781291109 6.653154001596647, 15.706363030411199 13.268760858845848, -0.5580779567893877 32.64438006475108 M40.44140803488648 -1.016666625634996 C25.57563280405226 15.190064197029455, 10.337165164952538 32.91852795940528, -0.09681060219372561 42.85903145854099 M37.97696598351535 0.813026066227299 C31.340054564489467 9.917936741251903, 21.07300860258455 18.501398347119085, -0.28718742438864675 45.290087951870255 M47.87029840033385 -1.531703061679778 C34.341532598183534 12.39167847029028, 21.793355577165357 29.384351840639304, 0.7055869233796068 54.770616119542844 M49.19891598584422 0.8946990763930702 C31.823114809786706 21.359257686832912, 13.414302908694175 41.23719000524856, -0.20986328003978638 56.45255217529118 M58.16786714271404 -0.6697517635369064 C47.43498871707235 14.038889457269349, 30.954734040668093 30.440945476079257, -0.6727589329706856 67.60346775705287 M60.704526355130035 -0.3392712384044998 C37.27313876415054 26.657997604621187, 11.829599292477464 53.93464896201672, -0.7376031957049549 69.57249606893046 M71.3569337949146 0.16546039541835977 C42.37760027800784 32.44972451586493, 17.76474665055261 60.90059102585647, 0.7842004042496455 81.0039514095607 M71.13507111541378 -0.15472108097316806 C45.06529572782633 29.19293570541734, 21.75075472101436 57.37059843664648, -0.6976506708549066 80.40282498011044 M80.00180908216558 1.1798969550735388 C63.99748366792576 19.756541542617445, 44.989752004805595 42.21760545239405, -1.4377205002508058 91.62676437184261 M81.65552846417727 0.47065527173955024 C59.005230021982335 25.837983701090067, 37.5227754569886 51.1657932006122, 0.3812526271953427 93.08230627684338 M90.3617667979683 -0.5334802937559449 C63.370976698681346 34.91126463305774, 29.165667396644412 69.52944812838183, 6.624558053780453 98.4997795523818 M91.25260117286018 -0.11130701463293047 C56.1126004937686 39.333813262734616, 22.172731120085388 78.27467444344211, 4.6969139102497355 100.61705371201568 M99.25062178115806 3.903351461473588 C76.04449658430217 34.19286326897184, 49.72673596797871 60.86062665728137, 16.582734884833027 99.47230030652774 M99.71067960866914 3.0948531100752015 C73.63084922242663 32.62614928059338, 48.70107140913123 61.88868253762618, 15.171256214382387 100.00251971862656 M100.14394161908102 12.725812063112802 C77.69816448492791 38.79828144356326, 60.6752215856824 60.004827376723696, 25.232355575887333 99.28078688618385 M99.16032246246495 14.064731801827918 C84.18725065209436 31.162362295680836, 69.119973772227 49.8445699510988, 25.13585360151034 100.5870088340289 M100.48312600878683 26.81337107134146 C79.54496915963854 50.185681800804346, 61.60661413599086 71.1963744820394, 36.19227287064708 101.79551782075396 M99.79222733648511 25.97722611383739 C75.27151157403075 56.158985430861016, 51.93932626509538 84.26882598208581, 35.58579015008018 100.48589789611718 M101.63117751087438 40.59970659230931 C86.24721697114096 56.05157872388547, 74.95465591745379 70.7663047032524, 47.69206284179279 99.30565184644068 M99.75624940266673 39.204301735187734 C85.31443997211653 56.27869667369085, 70.52019090657292 72.60531454806774, 46.96787483888088 100.01970195627095 M100.32686076411139 52.84650559263894 C83.07178058428714 71.47559808893261, 68.00474613913477 89.34718078432356, 58.10865515935136 99.15283737384073 M99.10253616443676 52.28347757767618 C87.36390221327324 64.40316858524689, 77.10652234047366 78.0565159958835, 58.48652120673906 99.24857270765814 M100.52842644608393 62.75914677314323 C89.81915389724897 75.58901353775155, 79.5425874624677 84.4585888595909, 67.98006139097004 99.6121366208116 M100.0345027372591 63.69205357676278 C90.11024839262556 74.85392975167944, 80.02626954412224 87.61309154333242, 68.98184289090838 100.70091716341307 M98.36688312568127 76.9858940761887 C92.32710245315053 83.70535199554966, 82.46350006333878 93.9244920577473, 80.10482807562958 101.28543529092651 M99.07115827083713 75.56140901776732 C92.30064692620843 85.25580014020878, 83.41602381079822 94.1433875996149, 78.54399417966512 100.84456139114064 M100.88498437006152 87.74225650651714 C94.60433507071393 94.21307474989159, 91.10640410853011 98.21073443935681, 88.34115953592712 98.95683079766178 M99.74546575297693 87.88149010632027 C96.5185441744271 90.39770917795525, 94.61874531285993 94.1713750314899, 89.6214812441838 100.43277116306756" style="stroke: none; stroke-width: 1; fill: none;"/></pattern><pattern id="rough-1017144582573783" x="0" y="0" width="1" height="1" viewBox="0 0 100 100" patternUnits="objectBoundingBox"><path d="M7.227479866403734 -0.7710921446044523 C5.0718774859098765 2.9506634247315686, 3.2311020900130316 2.9198688869972704, 0.7658760122173147 7.136600199436965 M7.226662992766636 0.4014470483385917 C4.440894765894518 2.7595526781636224, 2.319208430193654 5.315831894824671, -0.031008987615665007 7.899659898996423 M16.7223292596154 -1.2863476301976968 C12.894761674538984 3.5193047326927607, 9.44360832774435 10.222492494283149, 1.1970825762912494 21.56154449919952 M17.49919768514092 0.1655608197632361 C11.82842687263847 6.946176295943651, 6.5115800329550435 12.645596666680953, 0.7944516493100942 19.436342687662496 M29.647112585339336 -0.24218821130557888 C21.739283715627778 9.471590089931267, 11.148458625156012 18.9879219013405, 0.4550965514917733 30.371763531212586 M28.156563637796488 0.04901347471033768 C19.135233280947585 11.296723299946567, 7.71821949832289 21.382404849048033, -0.3391038729459077 32.693346618805 M39.213443440045026 -0.3119247104341536 C31.120124933479676 10.000355261520767, 22.094839251501398 19.265288423426874, -1.6185534542805735 43.22099457482385 M38.677870724544064 -0.9574287204274929 C27.252968655343167 14.378576715633583, 14.958699015229467 27.25214660879087, -0.5565726466263423 44.62695827146489 M49.058022336413536 0.7692901007965576 C36.58055736750102 13.330143187701266, 25.248807500817122 26.786982273457628, -0.3431072023963999 56.27807485544833 M48.54925434300067 0.9445500070095045 C29.146611326200812 21.134239819781833, 11.347771876577973 43.53112712583624, 0.6477917350598501 56.97576832861667 M61.2105795101842 1.0467138011112418 C35.23788866150594 28.133553050266695, 11.223687413417792 55.645784431718866, 1.360214245276505 69.45967003490777 M60.13356387595731 -0.5662240536096075 C46.71157047299941 16.003790162150395, 31.81703294038173 34.24398340158652, 0.9129821528232651 69.34714540470858 M71.8396737425307 -1.2126389098233101 C49.4905836804589 22.97631917940621, 27.906102267781797 49.90710364331673, 0.7115574266233535 79.2769081523476 M70.84464068554276 -0.9624799998433105 C54.56123819001508 17.85887591813408, 38.76605159176452 35.00495634296185, 0.8433510085532232 81.30355205574664 M79.32665473828152 0.7826978763887773 C61.49084303089855 20.74503682106624, 42.74189685133492 43.66209779464461, 1.6798553084798122 91.22316347594386 M81.97559887355992 0.06515791435649643 C63.75816830066957 19.251125082604837, 46.55458620164538 40.30458504228191, 0.9388390775018549 93.1324302919452 M91.62128381527192 -1.3827052193345235 C75.31604481491178 21.458684354987, 57.651508813542335 40.21910287209093, 4.335178272620828 100.55811805867542 M92.32051564084558 0.37082412934737086 C72.28204302892752 22.951799043601994, 53.109547876543324 42.847634170684564, 5.056905333729468 100.39833572999216 M98.90423812484795 2.730134986716501 C76.1288772704824 30.268052055772774, 54.885928099139825 54.19943443335259, 15.970954191183145 99.54667053410708 M99.66773967575071 1.98685968217104 C73.45927216576564 31.996434802152304, 48.07730487230902 62.05003164448538, 15.99983794365658 99.45160330742021 M100.22245374286074 13.931177526838592 C81.73232869378667 35.29075455192835, 59.306790477239325 61.413154383707166, 24.63389762910645 99.94421732633843 M99.39377565206694 14.488626283054238 C78.78961242472211 39.69014446331646, 58.67314734752562 63.64928597212828, 26.73480734362883 100.70161683034756 M100.06741805621714 25.688667240193592 C82.47789407575758 46.60200026386178, 66.40850935196356 65.48915756628095, 34.60645669720638 101.95366716603014 M99.64007151251066 27.416811591904686 C80.24467659226362 47.392974871481655, 61.86965359196261 69.85498412891438, 35.93724973168449 100.81682952660208 M101.74751117664373 37.288018367995896 C87.98697792687639 52.4534474365749, 80.08224433818896 65.10266334871821, 47.07530785463056 100.00139011743585 M100.59962012579805 39.988934439337896 C80.79731534494465 61.94112685198396, 60.2377112946723 85.59254882189906, 46.349979405663774 100.84904914604546 M99.15541894249927 52.36234590682223 C82.90472465679325 67.57653586690003, 70.57244275008829 84.45398431492478, 58.28726050740025 99.9527438671166 M99.55958126639206 51.22418698310791 C88.98665805067102 64.25350492933516, 78.48147506030794 77.50323579130554, 57.103848689798994 100.32766396892933 M99.0266972054966 63.1266846746494 C91.53274379674154 72.75915101278186, 83.22025056245496 81.41662246964111, 67.2726553843046 99.93279654982854 M99.04146134010792 63.13584998914972 C92.98939819783764 71.92058544968103, 85.9883010059846 78.1268967929323, 68.38860094153269 99.99945583831376 M100.43320287532151 74.49090859396317 C91.64618784891698 83.12896797499444, 85.5751700684605 91.98543033346012, 76.9318925339838 100.75299440701761 M100.23900568822557 75.48315855979439 C92.67500762890111 85.71972733037396, 83.81908467453961 94.76967895647202, 79.27630333870192 99.11568373998192 M99.28246621377482 87.35876208890382 C97.42724441040089 90.67810532538245, 94.30219816451114 93.15208404390813, 88.41928530874121 100.67754300524855 M100.47728592489072 88.29934700882171 C96.42992638093222 91.04483665388389, 93.65515959620483 95.17675390389667, 88.96002844575652 100.52917786383115" style="stroke: none; stroke-width: 1; fill: none;"/></pattern><pattern id="rough-3159044337419867" x="0" y="0" width="1" height="1" viewBox="0 0 100 100" patternUnits="objectBoundingBox"><path d="M7.647543643708973 0.16088796611209233 C3.851627041847167 2.130142527281899, 2.2720818446118596 5.608174743745155, -0.24372150482025012 8.450241741826611 M6.572454044697927 0.17018446517641816 C4.7927312500630155 3.0267173940708685, 2.0583503580445437 5.683177321915228, -0.2017128625432748 7.574534276112719 M19.323492754157634 -0.7930024688942119 C11.505237569694994 7.309007318478235, 4.87618875795013 13.720669370695123, 0.9306696717558465 20.087147839988027 M16.672899474780053 -0.28564939821660706 C12.612770074843969 5.970007355803407, 9.222351624524977 10.69306122712149, 0.43005971362654316 19.851221510031102 M29.073543208596654 0.5840115435236912 C19.088022533660762 13.894884142603026, 7.492306740870254 25.061436211375238, 0.6567014149851795 31.820083604889764 M28.909630473214975 0.3533762127786999 C19.32109524946982 11.290197521743591, 9.821832788627045 20.065699133238766, -0.5194852194170347 32.83986129422942 M38.06849800112397 -1.6228299778570516 C25.640688122991254 14.265389279262127, 13.978044204212797 25.98111986225325, 0.7712663774006101 43.770589198246874 M38.90055433672224 -0.6315271979640813 C27.923933913432155 11.477372472980996, 18.571806739368423 23.362713041157605, -0.22107747241403608 43.68030613697223 M51.027892430703936 -0.9592860715747555 C32.282063280456924 19.871273142000863, 18.192953973147322 36.0838585622921, 1.521657083848841 58.020502585058466 M48.28469087636713 0.94229013529191 C36.25561990735942 13.552701345637688, 24.709789636577234 28.636226705607392, 0.05349999872235456 56.37850537355423 M61.65323411557499 1.4413930270565212 C43.10793422948216 21.66045635730371, 27.643571658943863 38.388684496827324, 1.8083039913828074 70.21441048663776 M59.75858866095132 0.7644534333412492 C40.74139194450908 22.006783769075987, 22.223600400315668 42.856167794989744, -0.6598258467827129 69.06041578118058 M69.62892707516589 -0.6104681414377744 C48.43543252635184 27.20521562046075, 24.761077893761335 53.97203364066556, 0.6564744300637448 80.63354744376336 M69.50421875345855 0.7173969003468179 C52.7430252716109 20.96791255337079, 33.89285826975175 42.248996005752595, 0.8293233026326896 81.92191791443896 M79.89827653827433 -0.4792929550715197 C54.52726107975768 29.137783859769833, 29.627042489359603 60.948456297876255, -1.2849561357363077 93.22369642404927 M81.96501432796738 0.7447380956482146 C52.6284165126666 32.11818174722548, 23.730702089665915 65.23696230983708, 0.5710964472609197 92.65412444156871 M93.53312540458994 1.1590282333131885 C55.84827191444389 39.06069955833007, 21.387022672545616 78.4311594273333, 5.174868224278913 98.62334373714903 M91.63072061285585 0.4097822738436312 C60.11851300465393 36.258657726681456, 29.734785647884642 70.88851193769285, 4.011362099012702 99.32507780247431 M100.11254542487475 4.292769660240836 C81.50256214860192 25.17033266319006, 58.54028810087211 49.174370895765676, 14.7901724183344 99.05178247248455 M99.56737617279725 1.9392648760786813 C69.96040586058655 38.77836091234554, 39.69058658874858 73.42513114799098, 15.189972828032003 100.78620270830578 M98.56688601654706 16.71611383850748 C72.58886253218405 44.77528049613306, 47.125006758485206 77.70949145124203, 23.893713451334097 101.34576052092088 M100.75296717439738 15.43046783330586 C82.13035472353648 34.11999967565787, 64.0952430285096 54.558051472014654, 25.86001640013411 99.72632028528612 M99.82842481799358 28.3484086057341 C76.20351951734149 54.1232726990129, 53.01902299345058 78.37674896513604, 35.78034740444661 98.69960725541296 M99.18203452805754 26.98997308959566 C78.01055870549447 54.67315344394534, 53.798221682657584 80.0049936521243, 37.05827056259065 100.81673758533324 M100.34097710267642 39.71260809374057 C86.66929266580652 57.783696207823816, 71.6822509449166 74.86175758001681, 45.379583824046065 100.21903575298067 M100.50434781124703 39.31440483976348 C85.28091208512991 56.42369511762047, 71.62174080130971 72.87710711701295, 46.45377065821142 100.25995283749548 M100.86620317800211 49.61481107472293 C89.35248961603311 61.880571885841135, 79.67819075152808 73.59343732496583, 55.818977167035925 101.72209153007893 M100.93665862990834 50.89082473240751 C88.75284523621278 65.13639559628986, 76.20807344757425 80.64326924225524, 58.201024989677165 100.13453377321407 M100.48969409643513 65.26212135868059 C87.09217010419185 76.06710585922913, 76.15570645146988 93.85383161017026, 69.30436585528479 101.20550872405322 M100.10522961295288 62.886062145596966 C90.1305170280121 74.40430708708669, 80.79318600595627 87.09852849966089, 67.74657531408596 100.41117963951078 M99.09019232523758 74.0216667022778 C90.43539578701562 84.45494042569649, 82.3231679978407 94.58975479956565, 79.57137529737959 98.24811657361539 M100.03617510520891 74.91700727625413 C94.08584389689636 82.4952090769053, 87.93296769469154 87.61870937228096, 79.64347981580705 100.32208129042488 M101.59564686765155 88.9584709532967 C97.63560448279354 92.4637416692964, 94.02477070452416 96.30953219240693, 90.0059460812541 99.2915364916736 M100.24528646322904 88.3116596347402 C97.05579546076544 90.91185404108693, 95.03062888327678 93.15148469309463, 89.78355052161643 100.79001982218543" style="stroke: none; stroke-width: 1; fill: none;"/></pattern><pattern id="rough-5511342382755603" x="0" y="0" width="1" height="1" viewBox="0 0 100 100" patternUnits="objectBoundingBox"><path d="M6.569912635170658 0.9683948496829045 C5.997309294754899 3.2331365906239076, 2.906948454268425 4.758360306152105, 0.933482769867028 8.617119670429473 M6.899123333533532 0.25956967339073755 C4.810567680499317 2.8653706455357923, 2.2223440959565504 5.375813985089219, -0.4529228660181701 7.818657005454574 M15.419214063896364 -1.069387330979783 C13.546792351130089 7.273804079235697, 7.458505499980704 12.36286759632823, -0.2051064119342163 19.997451592165213 M17.188647109831997 -0.37713277833247494 C13.18227995173105 3.201922529029281, 11.501536801217576 7.102809245394173, -0.7823772504060695 20.964667410583964 M27.536870658930486 -0.4693156682450148 C22.014328301195476 5.646729488121664, 16.416854962021528 13.437384009103006, 0.04208299873780774 33.42641195561084 M27.8626162385236 0.09943493168200623 C19.532788873313894 7.6934473435959285, 14.020811049467994 17.252316033361623, -0.6965391092886866 31.774175641701813 M37.26430682506167 1.1322011658008853 C29.096051013781604 11.399444495530975, 15.860438292655378 24.812057971909525, 0.7417517536755742 46.34482234282889 M38.19091490394496 0.06233747198825501 C29.705993953088495 11.655608438829464, 20.371196954509635 22.66201096053757, 0.9758157467829816 44.15470060692606 M47.64745988348511 0.6066333063620668 C30.435608554230953 20.642398724085908, 11.500755763920228 44.23217785608259, 1.591315920990465 57.30297692883585 M48.655174813247626 0.5961482430380616 C38.68462232695561 10.929653088619329, 29.170294736522067 23.479080965782497, -0.2762448260602719 55.92753044509491 M61.224577807230816 -1.2625244376083842 C36.55806272099197 24.397241531411122, 13.62051585413118 50.83110602683331, 0.16879645939850096 68.4314503593037 M60.57862660358466 -0.9319694405533423 C43.490681706347324 21.021547308781702, 25.41133263151015 41.954447956627185, 0.6354755881883389 69.38974283030878 M68.4183400222884 -1.6002414874248059 C47.2777006919281 26.686774354202697, 22.555094496808188 54.314022093179204, -0.23080517315074012 79.15955571895735 M70.91934475913749 0.4436615933707446 C53.365190341717515 20.424972395765916, 37.77525586617894 38.81035965883923, -0.06739838013032529 80.7453230765346 M79.36752070846588 1.197102130002217 C55.61653184915694 29.727575467200275, 28.280461642844354 59.81743496623828, 1.7232957025230284 92.25991023478166 M81.30843126026079 -0.8825686422331405 C60.571312407677205 24.428718589001967, 38.49926451810186 48.619118159948314, 0.7023678558886641 92.18642434470208 M89.76768996383365 0.3759186313006815 C59.725262164199286 36.434010194767964, 25.835412747226457 77.48326350227394, 5.373066713511841 98.09479410158616 M91.63000141575091 0.005357601454410776 C70.11324092600013 25.263761051031224, 47.52349280712964 50.005603868502774, 4.362689848083311 99.77522683761661 M99.05696969628136 4.337694732927186 C71.83180982530509 35.3615785045617, 43.41716399669215 68.89037683029312, 14.808344616261191 101.92638768052377 M99.95653431207896 2.3726059371524726 C70.55720834344393 34.8436680520568, 42.766351047702045 67.95455353472856, 15.010025517690877 99.9729384006322 M100.65934580910762 15.270446616662849 C70.13292307672312 47.86122641697404, 42.60080303904874 81.91803601211527, 25.0872057614447 98.09091941216674 M99.77907154489458 15.509050917741405 C78.19751686394169 39.510489963450674, 57.7740826862611 62.63549288492177, 25.217676010416127 99.23266027857903 M98.06603674596441 27.81386102789609 C78.5734860186969 49.590949586748444, 59.55231011362769 71.92447262712827, 35.97356889693151 101.49637222834005 M100.76232058292499 27.705148975151406 C85.94360061081424 43.689918820296455, 69.41692007198888 61.474970154016404, 36.89876943340299 100.75385284904118 M101.88267707074677 38.68137478082032 C88.25161647775695 56.68237964395702, 71.38530164610128 69.99454298849591, 47.37633158929132 98.81039571867423 M100.08219327710198 39.241799482510686 C85.62008297711833 58.00298421107788, 68.2683186154089 74.99294637160703, 46.59353393283057 100.59204264274783 M101.41897786854936 50.82277194625375 C88.11928307345781 65.14823669608076, 74.09796257716478 79.51142634906705, 58.166288771195674 99.87844592323005 M100.81173775089577 52.16692037989405 C86.48821437135565 68.1330894057669, 73.26084147826091 83.07201717808351, 58.597505385978515 100.74480284234629 M98.16522403523724 62.73749802546566 C88.80825587330743 75.46837791967799, 76.84877125788674 89.80014894063392, 68.55852283198126 100.44266393675741 M100.71503711088285 64.04221111071068 C89.07953106501434 76.34909722672481, 77.6450366824417 89.56274893503817, 68.61659151216897 99.33433801931278 M101.88415088848257 74.3622267767331 C92.61057586425557 83.03898510291265, 90.0719063774826 87.31889784469486, 78.48464948892702 98.74555783037201 M100.80526608549853 75.4606427072745 C93.14778078187844 83.33577389870466, 84.98552932408973 92.09303608545025, 78.15858275093727 100.24002317460196 M101.57955446067844 87.26929307486975 C95.66669248653713 90.89823830983512, 93.29473189624605 93.79474291031316, 90.54857440442964 101.5043783418416 M99.95425330486712 87.29751063967323 C97.96348356412098 90.73811341957914, 95.36943028373747 92.5842570418756, 89.54741058122731 99.73472991484371" style="stroke: none; stroke-width: 1; fill: none;"/></pattern><pattern id="rough-3992398934917933" x="0" y="0" width="1" height="1" viewBox="0 0 100 100" patternUnits="objectBoundingBox"><path d="M7.2410250068884 0.7581066394634179 C4.631620472535365 1.4196814492191376, 1.8310303290490029 4.865772007038973, 0.9265376352150474 8.408978832141587 M6.558711272858186 0.10019791713189974 C5.067285865125714 2.717628529143596, 2.632058942488521 4.395293255035796, 0.38059088938194685 8.261304341264607 M18.139960646349813 -0.08748650627687127 C11.777055684053963 8.114687520996835, 3.828561084118589 12.768155781757972, 1.2206978099910604 18.522261521229666 M18.18225147369033 -0.4361318562138403 C12.90861537302838 5.111435542614747, 8.567827824329786 10.168722218416448, 0.6060660353442189 19.594822463624254 M29.70676572955302 0.3832078263129155 C21.083179895213018 10.35206898490588, 13.268795337516286 15.254135325521208, -0.27345854450188867 33.206338384776615 M27.083476609642755 0.9696573918993612 C20.492363699176778 8.519999411046047, 12.800673393440167 16.643984924305645, -0.1894000913975611 33.133098865755755 M39.83176421523869 -1.4742419084928855 C24.74835436738283 14.633815751007276, 14.120745610081869 29.054139015669183, 0.6782092033605478 43.48423349110631 M38.72071091772976 -0.9014041519449063 C29.801747329848308 8.892207659719597, 22.254928451942035 18.362080465980114, -0.2766044803997594 45.126146740067384 M48.845267090447244 -0.3523482353418963 C39.75271079509777 12.867604871415441, 26.80390822019039 26.975280892906262, -1.1159479013168099 58.59166501200693 M48.84214988880497 0.0371883567574578 C36.30162018027343 15.390454465041257, 23.868620901051518 30.071982299777982, 0.37341960649213357 55.638772102768975 M59.81743286586723 0.07490292336174686 C47.000029516090116 14.610833633406106, 36.01316955482656 26.899728978699414, 1.1428059219038662 68.12272681738865 M60.27025978997879 0.5046764984627421 C48.202944907039466 15.39429041495644, 34.2794275382731 29.093543089261914, -0.7961215062575384 69.03117840438914 M72.38096651476832 -0.11369169215486785 C44.85542064457799 28.573701969243068, 20.320438016500592 55.26621200342268, -0.9379896465879165 81.32736349185524 M69.56402838112798 -0.4584433869515414 C48.62148141235879 25.915690764779427, 26.553340482148112 49.84547193745369, 0.40688807241718994 80.32504810210939 M80.11873671328188 1.537800443274934 C63.50904162936952 22.337412806074248, 42.12377845510136 43.588749095140585, -1.717582573585596 94.18518960712356 M80.80259384554113 -0.029613843564521236 C57.86272348005245 27.370538513594113, 33.418079787057835 54.183013739866965, -0.6775221123243891 93.44630956755164 M92.78375949763479 1.3320227801804538 C68.71745377361984 26.21603630588102, 42.12708623901271 55.2972295978557, 5.148933504488488 98.62515232302748 M91.77011767646887 -0.43401843695526265 C61.34248123141579 34.922491245541536, 28.878793116524015 72.46892892634568, 4.085750221049187 100.00846055768676 M98.90739425431704 2.970159271007768 C78.26352527098256 27.098151420026895, 59.209358916765325 47.36438254644515, 16.381363141222273 101.67632093897977 M100.69186884857434 3.3256001996632785 C75.41217276889819 30.121804281520582, 52.11011833040991 59.12412263210917, 16.15656744611513 99.69799044182109 M98.61609362792437 14.598212657132827 C86.98400120425583 31.228350964889437, 71.3248070891357 49.772937861218374, 25.820706632037208 100.89170705254826 M100.76448646006992 14.10975000163647 C74.24983394097914 41.09963435308397, 51.55364387923365 69.85927643438848, 25.26106739891405 99.62990370020783 M101.16438472580452 27.136180477992507 C80.59558042118108 48.33466197985855, 60.35657159452132 70.76435480182914, 37.95082547067999 101.41503500816492 M99.43088098215841 26.193805568489708 C81.47465820059307 49.49975373613051, 62.46785507610551 70.40782079284199, 36.92822512750769 100.15823501939738 M98.89361295419256 39.93777171708067 C86.87721992327167 51.24098240299337, 75.5051027397681 64.46534824508413, 48.54124548667817 101.60704675364815 M100.62549764871612 38.36033338295866 C78.97907288606619 62.90128405855284, 60.13233787616464 84.98870417608592, 47.0860552742495 99.787017582251 M100.57164675118503 52.185685795997706 C88.45271686764387 67.25167188910964, 73.3891141352075 80.98301635799604, 56.34871847605423 101.6363406698421 M100.88552741923729 51.743280926700336 C82.47186469507267 71.25143144139747, 66.76331806621525 88.89987074667845, 57.378213408635126 100.26000521232388 M100.28181141303473 63.59556851096942 C90.95784633228202 73.04996694498591, 81.80604284460213 85.81132331535564, 68.07309326626714 98.56286479892594 M99.91373078941547 64.36473066998745 C92.25983818535683 73.94630138116771, 83.02303812895106 83.22578947042857, 67.34199354102202 99.93212518912749 M100.24251627351951 76.29187028337154 C92.24318466947092 84.38429462543101, 85.03364661955243 94.33998969651077, 78.90978770906769 101.41695628615666 M100.71538823808882 76.12991318532478 C93.8854711118509 83.48772646429224, 86.36437031600659 91.1418302108173, 79.1997213389461 100.23726672869621 M100.23858219231329 86.32592268860827 C98.78909084005127 92.01899054590356, 96.39856045456561 91.84819987827956, 90.02499072635118 99.47956825449963 M100.76633401811193 87.56293098497622 C96.88918856854514 91.86951256492527, 91.90279867579706 96.07750139845808, 90.14743137531308 100.09017318504921" style="stroke: none; stroke-width: 1; fill: none;"/></pattern><pattern id="rough-90570678308069" x="0" y="0" width="1" height="1" viewBox="0 0 100 100" patternUnits="objectBoundingBox"><path d="M6.317236654688111 0.3801176853988637 C5.73972301775077 1.1105132101182624, 4.141934475056986 2.9576236058249297, -0.5689905499687948 8.814232419001076 M6.343018582734391 -0.018859584728730616 C4.657940231891443 3.0016302849044854, 1.7364341408457853 5.257038767457487, -0.05998783723034745 7.387194868561012 M16.05185376953351 1.6785910542453024 C14.098406684036988 7.171964450991497, 7.449457657315215 9.932172461275744, -1.2842939091064878 18.134643586874017 M17.269573977257433 -0.4962865566279242 C11.711590305333678 6.377937024681131, 5.030619538255934 13.450923026978089, -0.8963421290849811 19.159120054126706 M26.510024394501933 -1.1791880932747993 C19.511068260205686 8.217688564767652, 9.863393835639936 20.578057442988804, 1.1974030539670162 31.310855296632106 M28.96529693583056 0.8412391508463175 C22.144837609060133 6.19365358777225, 15.726083250298963 14.19473186460619, 0.4900942124065981 32.9159216727268 M36.84787044847073 1.3176538500001387 C28.394051286727958 8.461047551096387, 22.917710688391097 21.84032032282881, -0.49083170747925386 44.552479151067324 M39.067075253419745 0.6607897158411382 C28.342134290252716 12.554083907185952, 16.206294412715437 24.900324792623806, -0.5920008475419722 43.96646987177576 M47.907222131228835 -0.469511931821752 C37.449911906966825 13.335381343575161, 23.496577770127168 26.266912344657687, 0.3427925999383641 54.94451977925861 M50.155730512297964 0.32538278908387763 C35.271366847404266 16.28040841723347, 23.077271365543357 30.28176188681775, 0.14396203086653614 57.151699044155066 M59.893431408166805 -0.8504497693417621 C43.67616915794049 18.308998430407474, 25.0552300267611 40.212473886624274, 0.7263087137028537 67.80793729352543 M60.762920120868536 0.11862406914240253 C46.53040682510863 14.077814601203587, 34.40576140217622 28.49012288675902, -0.9258746175736028 68.77435253758976 M71.27452455808111 -0.5536229144433946 C43.64868969975687 31.346418112163576, 15.150549813056248 63.54412425626237, -1.7213220952851618 80.21733612096865 M69.80867064902088 0.6119963534602881 C49.15521143532661 23.470946468024792, 26.433115139181897 48.40918208080236, 0.9959140506778161 80.32454267265685 M79.9467649077913 -0.4614474626099341 C50.4938168253138 35.749185913572404, 17.619301920745468 72.75793477546875, 1.3029146177024433 92.67073746375245 M81.78062974756422 -0.6868935862993522 C52.815794020190744 34.12680143322718, 22.871087158603668 67.22117694892667, -0.9927150552334445 93.1867922750042 M91.03883549314587 1.4356679854220884 C59.88238553736643 38.4391197026056, 27.844397147999505 74.21155995688834, 5.1056084650383236 99.90287346011478 M90.71756868016632 -0.22285124025616865 C67.04446118104643 27.7198801408353, 44.115448277082564 55.09578876542716, 5.018482413361469 100.66499097621399 M100.24194182647794 3.7322413945692965 C73.84602761111007 29.88866050575981, 50.55997761895972 59.87169600425956, 17.05638960228527 101.49931160322402 M99.99175795058753 3.0381223185664346 C67.95147777136525 39.84360465784254, 34.83605701151387 78.01946653439433, 15.196990416520954 100.57107185529405 M100.559844338802 14.281560769761484 C76.65449401461157 39.59540504252413, 53.85514020035336 69.29164948223455, 25.76891914265301 100.67142374006883 M99.63668234352934 14.508636622957876 C80.10744901937929 39.31156743559091, 58.907022076045905 61.392552222971965, 26.295382599797318 100.47312979946385 M101.56663426463015 25.79953262637292 C85.56829843519493 43.52870013058918, 71.94362875485923 56.783394871377475, 36.73325551471702 101.19886705194006 M100.59501156622021 27.63569304933573 C82.06043295363929 46.04176647527077, 65.1869879788566 64.8049745514845, 36.67899193467265 99.6615493550695 M100.76636984912702 37.556607194600744 C82.36584985445634 59.00286891512512, 62.422484791636876 80.36355835555266, 45.581852731628274 101.57213603615013 M100.0799830667288 39.07313788606321 C88.60562884567206 52.63502594493115, 77.89699232867079 64.14514451578808, 46.415299373356454 99.94418465954533 M100.40944970738302 50.9710178872273 C87.18617616136558 63.25706124953784, 78.78921032035392 78.266410571109, 55.67946001308475 99.88718590187702 M99.39899852209507 52.06742396985254 C90.94938871595309 62.74762673241881, 80.43013392402916 74.74617483428445, 58.13606952322278 99.44301078892563 M99.3411035756896 61.59528536070199 C91.83756520464289 70.8076991272216, 87.3007502502189 78.90396505151706, 66.49629107204265 98.18018213512245 M99.2067817103092 62.70091965607281 C92.18577679235366 74.23713897063851, 82.85107599089336 84.40594800155031, 68.52444842373788 99.88311445180882 M98.69247161689333 76.87919942632708 C92.26214064888357 84.52418925136564, 85.02695904205592 92.6993407689584, 78.32312995418904 99.98116406153758 M100.8798560095206 76.16636752931811 C92.76061449592875 83.18103583835264, 84.81588725549615 91.93484757139181, 78.8809074486505 100.87180997573772 M101.27658413329968 87.44239425397345 C96.37718015786066 89.20460192211209, 94.5159099917642 93.66989191992631, 90.41390671279069 98.69699744477198 M100.49995705866675 87.4764081602592 C95.82422302339351 91.9585719676969, 92.50831914281088 96.28056849335901, 90.08655646551026 99.23092504324438" style="stroke: none; stroke-width: 1; fill: none;"/></pattern><pattern id="rough-8085788045647049" x="0" y="0" width="1" height="1" viewBox="0 0 100 100" patternUnits="objectBoundingBox"><path d="M6.177509998956298 0.43597619502389895 C3.3978922187256106 3.629091022881086, 1.3300783942540975 6.274958444875603, 1.0206293900631502 6.825924465206503 M6.485570424503346 0.3023007357571347 C4.994557926376064 2.660199869818918, 2.602403110935211 4.584198097595493, -0.2895911792251735 7.57517918617075 M15.565410731443485 -0.850175835798173 C12.065725956055942 6.400603123896666, 8.312791890523105 9.250224852239977, 1.0530893192697484 21.295548135423253 M18.165981544556868 -0.9415031075368145 C12.901038726477104 4.651092471490703, 9.070293987822208 10.992042696396284, 0.17499296400633257 19.85761799289937 M27.8323334202699 -1.7103366670842943 C15.751128365809741 13.249921528772758, 7.046882505231275 22.41410539733998, 1.4069354789826667 32.34469023588001 M28.604661307846563 -0.8885421333576917 C22.35538752704968 7.60893413448626, 16.38821165262029 13.540580075567583, 0.14357517703247957 31.603808378545537 M38.953796755383664 1.2283096624672334 C26.060042821928878 14.181466251882101, 11.508395130492648 30.069513349678946, -0.0991309517984158 46.050310443614144 M39.104573920385185 0.7121045069385255 C27.9454617491726 13.743296226093797, 16.15030572588386 26.730549911859598, -0.557185589676624 44.22715631308492 M47.27689086512232 0.12208851381648422 C39.626515842346976 14.225469270435934, 28.021700525324185 26.05645469285709, 0.44050904393753676 58.28654487493516 M49.53452848348201 -0.407258027155335 C40.30935828539609 11.714030998726312, 30.36045720962423 22.078302480837174, -0.9999974222591623 57.26637560227999 M59.26710052557202 -0.7578337455072379 C46.87914459381271 17.004708682591293, 34.926111327813175 32.53276578148875, -0.597520474331029 69.88678153850695 M59.61796122621741 0.11023146876936663 C36.86071241237006 27.34839056877985, 13.689835509303464 52.354496651809, -0.37859129356323606 68.95569858409296 M72.07862839046993 -0.7075033162798823 C53.2446542941019 21.716583561049582, 35.815778685583425 40.460964310683515, 1.1761104966153564 80.3559907854027 M69.62200067768396 0.20011690250507463 C52.20304131612407 18.930531063380524, 36.702508585513996 37.69946226653387, -0.557331671513515 80.68453129898897 M79.35863505402023 0.09369537028902464 C61.20839221187778 25.037021615799976, 40.852101860724844 46.6002467727562, 1.927593292621827 94.75890518037016 M80.24193594301279 0.8286953780205333 C50.691286142849734 34.02365591218352, 19.553464174172923 68.33957607749076, 0.7554306109634896 92.4596653845193 M90.1238031999089 0.9056761717625426 C57.90010110089445 38.55294876520797, 26.20833403333948 78.53622218011914, 5.376822020943964 98.45216910612515 M92.2122019370088 0.4425671234627382 C58.40845462668569 35.65299235224252, 26.990704772687884 73.87443529838592, 5.438690270102098 100.66751366739685 M100.11153491828664 2.7923197843016663 C79.02140485960985 26.919280194037263, 61.118658875256536 49.01925059669721, 16.21562077346436 99.87275465793172 M99.50937030433505 2.3293547659901868 C75.40808948558188 30.054373009628783, 50.988924248541444 60.23864795106408, 14.40131391242971 99.75216369172206 M100.11863874786316 13.876133427445527 C84.99211753549561 31.255889583234538, 67.88566961207306 47.664451124972246, 25.138434053408602 101.15540518816573 M99.59864776881813 15.252216294544409 C82.42640451515359 34.111224799156936, 64.82554620905384 54.42889208888367, 26.045350731549306 99.31157818786609 M98.19332618583938 27.25216596610403 C82.8307031640924 46.34286740280209, 69.2038945401845 63.80309393741236, 35.726043725073815 100.36030141356828 M99.69425925061543 26.9350799665395 C76.32375806500531 53.962634356220256, 53.86111303188523 80.20906579356459, 35.47385546159294 99.80521093580644 M99.61733865096973 37.38401893550498 C81.51014151341157 63.198849674823315, 61.1776495869083 85.89578050161207, 46.4529509106042 98.91987490405073 M99.63943261982398 38.66592710658692 C87.47974009891425 53.07396550813983, 73.72283528694591 69.06185959776323, 48.00594704804102 99.6474132203066 M100.23543248796378 50.16867651795566 C90.7045676373415 62.75312340046911, 84.64169737708019 72.46701282772294, 58.551691307910275 100.580785088237 M100.77544295849745 50.708436254808134 C84.95529712645643 69.45528894759919, 67.41240352555826 88.04707318679037, 58.081143467543 99.70236087792576 M101.98790661965216 62.23225299251101 C92.00173888965348 74.67443959623068, 83.53111987248053 85.4546537351924, 70.08070988685662 98.37492603039489 M99.29601467682554 63.179024707891536 C91.19237335331916 73.33751593797342, 81.5665921966451 83.2583922211222, 67.47237778233549 100.56497814430317 M100.22905386482316 76.38488705748539 C95.04606009177216 80.98016892113975, 89.17809219551644 88.04172901035884, 79.61850899823698 100.23536085181661 M100.00504823153439 76.23549333971506 C93.25975454541833 83.85249604305, 86.0755617656179 90.1549507474367, 78.46093183282862 99.48673160739251 M99.01847276841121 89.47828309133777 C98.6725733519402 91.44699520291537, 96.51774581296515 93.47410375095947, 90.92863847784267 99.88484937366098 M100.77448416297128 87.84918563346616 C95.66306640631201 93.02789776167043, 92.0500269953437 96.6507611450473, 89.80726000608472 100.72784331481444" style="stroke: none; stroke-width: 1; fill: none;"/></pattern><pattern id="rough-6590451272951289" x="0" y="0" width="1" height="1" viewBox="0 0 100 100" patternUnits="objectBoundingBox"><path d="M6.844413234716277 -0.292136284988173 C5.575295632201676 2.1158141952331917, 3.907962400876355 2.9076301639809303, 0.7100527407917065 8.788849534097785 M7.0226785543787145 -0.132299789116412 C4.63540205534408 2.0925007514972633, 2.8258192857555042 4.403677429114808, -0.1414464255492235 7.595948289423575 M17.115475838458618 -1.5687125287839514 C13.370489097905224 3.3996973409664015, 9.576873847861624 7.926188951648418, 1.6418554053276804 18.442382620541657 M17.536272931238575 -0.854662676981158 C10.97393521491564 7.003257695446524, 4.538691657565137 14.281276426302748, 0.702321390238251 19.933554093666164 M29.377584519353444 -0.1539683128920366 C16.648578829695815 9.824479715240269, 8.727454807813983 24.365796875787254, -0.530769284483398 31.591549035825818 M28.473284138119464 0.8945823841507687 C19.67562085729868 9.81213124262791, 8.98516479503815 20.630150220745552, 0.3534399636774479 32.722342157369276 M39.24250206076759 -1.523126060448324 C24.643195974367842 16.804901640627698, 12.860492808652387 29.883554162758195, -0.9998872822850853 44.367570527763945 M38.67090723710026 0.4816537870627404 C25.939415304891675 13.265958797987984, 15.155808533197531 28.435464339658783, -0.299116337255374 44.333494330462855 M49.66398737192667 -0.36807184876997034 C33.593062785009536 15.826666261419197, 20.854633279116154 31.051764276063956, 1.6409949830270323 56.92571351342442 M49.06707665348104 0.7238199162464514 C32.58080185421158 18.84597198817739, 15.174336244600214 38.626260128887175, 0.6802180361568588 57.147640970501634 M60.70530290330351 -0.2289696719768104 C35.92578411888614 26.543216367370206, 16.740978983515905 51.50017016019053, 1.2678125693660656 67.91246060555295 M60.52292112420243 0.5545285123452639 C45.009614746013625 18.42935690710803, 29.216254440563482 35.8227771485594, -0.20717765996422077 68.19278863232712 M69.79295600483458 0.8248705388249196 C45.024058147248994 27.061604022364538, 21.50526324983704 58.97963184794428, 1.1017530535061981 82.20583659330224 M70.44571583833797 -0.8059141165350217 C54.74322651642277 18.1750751535644, 39.57940326984715 35.48633831992752, 0.3347150958311573 80.56881631818806 M82.43987759463036 -0.1506594292096981 C52.58683254202748 29.304320842709245, 25.898049439766424 59.44952075804636, 1.009237203766431 93.88004889999175 M80.27234705572066 0.6476468873122299 C54.359501883873186 31.57863285304609, 28.045041878279957 62.24402325159791, 0.36331782338723206 92.2832533106081 M90.64026364510948 0.03962192211119753 C70.8309967489274 22.633610353034566, 52.97964472666759 43.08586782667363, 4.064060734341703 100.2591458985419 M91.12019510063284 0.7901516586796142 C66.66081699734278 31.21978715869063, 39.936949013720685 60.84177891896611, 3.716487054528218 100.61117366748552 M98.1323126039054 0.568150151060629 C67.26378402849018 39.44965630534605, 34.80021355918948 75.38593869210904, 15.440587123983613 98.66828488232196 M99.46481897966565 1.7382984201594232 C74.14673421534589 31.027554568862882, 49.550554850081255 61.49675431581048, 14.78814349571648 100.0666909311681 M101.72070170658719 12.79653658319258 C86.46933187811165 31.230435777188145, 68.13766134592927 50.72376152810071, 23.996435132821773 101.28309012841677 M100.53432330977262 13.792659538606674 C76.80734177176853 41.93765240229173, 53.56035382886215 68.8883062563566, 26.154828333984447 100.37611935596519 M100.41017502947153 28.47011865546673 C84.57891766716891 42.56834712325068, 72.35498929122491 59.550380929043655, 35.50807228291904 100.34520667481644 M100.82547219044751 26.190482368643867 C81.52036989962158 49.731335038163465, 61.291299110186685 72.70256493788968, 35.748949670466985 100.63185694188199 M99.78841075607839 39.42625470280183 C81.83963410395356 59.857274366359924, 61.77534099603086 81.1172777882698, 46.5194089777402 100.10723100288813 M99.59307922762544 39.287362300966464 C82.0859506242932 58.08128476448146, 64.14720167826391 79.71945883892008, 46.418044825589675 99.24357531636917 M99.09117113437709 52.12110843600875 C89.94359224650191 60.376197544223984, 81.779635254296 74.27299239807633, 56.59622934606204 100.29866901749618 M99.57003715605894 50.83044832685408 C88.73541756857162 63.598973571009566, 77.98619885502367 76.82035641779973, 57.435401703033506 99.4238653468167 M98.57978373328908 64.71542149518616 C90.37208296180259 75.80429727979295, 79.651790499705 87.22371633414949, 67.10586703715487 99.54384737953274 M99.76256702494067 63.44426080354025 C92.15730767061399 70.746455432534, 84.75060269766095 80.22760495047109, 68.51052406729359 99.24443224270448 M101.04154424688 76.81488160122655 C94.22012055513157 80.84118585385555, 89.68355783679297 86.63494590512276, 79.78708037250911 100.24976461888768 M99.51161004425218 76.57860874894631 C93.41190977373279 83.92694761200953, 86.0680162716728 91.7616685904817, 78.13281237644277 99.02811838326156 M100.50511343432372 87.97680375006084 C95.94443097500222 90.1640058044755, 94.98248636994313 93.52883809343275, 90.3435269264204 99.5672436182794 M99.53111602250837 88.08377743027833 C95.99629077492388 92.66807553103982, 92.10257775211127 96.96739742321424, 89.54014981167015 100.56638307199916" style="stroke: none; stroke-width: 1; fill: none;"/></pattern><pattern id="rough-6613240050173303" x="0" y="0" width="1" height="1" viewBox="0 0 100 100" patternUnits="objectBoundingBox"><path d="M6.667264127631289 0.5546171676548317 C4.147854326679482 3.536995390416882, 0.9815092426311032 5.964604309259733, -0.5871374682421312 8.690037580297309 M6.545844711801868 0.4587979600615104 C4.058214433288202 2.680922486099994, 2.6609300317169486 5.122929661064637, 0.4818926476249721 7.5020207085343085 M18.11475240614237 -1.3994611502228986 C11.9316914716118 5.958131639907903, 9.935269949680563 8.668785981453961, -0.5556139326074199 20.996824990052712 M17.467212461487577 -0.36951803624831125 C11.542423793315972 6.8638951527002785, 3.0429246896255226 15.707719631800495, -0.211313309036409 19.71287531269857 M29.175400802818995 -1.46244820896064 C21.70003881193351 6.81022511376636, 17.770905467282454 14.445803190586684, 0.8500829093784903 34.07842945764538 M27.526086784218073 -0.4816479481536038 C18.565210525718047 9.869379155478843, 11.492365364418788 19.014816905208544, 0.6255084053820044 31.323290173334776 M39.64277918777467 -0.023348444424236448 C27.12655414148515 12.942560245517896, 15.175176038825466 26.103525606257566, 0.19912940776749544 45.2153111497225 M39.48738793122822 -0.09534199516608544 C29.74758626028352 9.463582156505954, 21.40488456601973 19.00972589275948, 0.5190454457105496 43.78814225204854 M49.470384118234364 0.4017328806784679 C37.88457467675377 10.864663629774753, 26.673350485675083 26.077864435401597, -0.043109929016907245 57.41643484334338 M48.88467314597111 -0.9549031000344415 C34.98945547876251 17.37512420038809, 20.651530918222125 33.497639967577115, -0.43999863426029373 56.366622442311375 M58.401664208347164 0.04155789665297149 C45.50228215926707 17.12058872511748, 30.78152654320329 33.10477553782297, -1.1794218740377111 69.76815301173711 M60.13717788951243 0.5612697348627171 C37.218788791001316 24.323377534278034, 15.960418486761297 49.766491178625756, -0.43262364423993604 67.86042590728285 M68.46983132965944 0.31666496880804296 C44.079559523337636 31.18972800892463, 14.337125179009329 65.63499161593153, -1.5738926968278228 81.75267816283763 M70.17282835646354 -0.17626034545084135 C46.05217355057342 27.941169554490486, 22.589668458428914 57.29282044550467, -0.08107238735513 81.31910694588926 M79.00813107586579 1.8926098862296499 C64.6070345848236 18.015758629472664, 48.596697413815455 37.42776913627215, -1.2257746184827818 94.19267073881656 M80.89754099165236 0.39278087781260673 C50.11793466560842 35.49439190180734, 20.395986217122125 70.39018993590177, -0.4500711007783007 93.59905378085728 M92.41778308999294 -1.544152770012925 C72.5944869602461 23.036297185166756, 51.291632076336796 46.11521253440806, 6.006459025540557 100.24122210310614 M91.29689638303574 -0.09162719555111298 C67.77718863929697 28.224217025562368, 43.018097920689286 57.71306240945844, 5.077465304699725 100.0319014253817 M101.88264902855393 1.5986680545359944 C65.36331343376577 40.747979868493275, 32.02350335940917 79.6514584877565, 13.578097918724183 101.79790120625661 M100.16169723677297 2.5166545716380706 C70.76510599794665 36.393490380451176, 42.527415037423346 68.9694184631361, 14.301894501625704 99.1377022584638 M101.1824330554262 15.040737413094018 C83.60135728633541 33.888573683260034, 62.34629352971474 54.67596909114051, 27.29193592602163 100.89568844277413 M100.82720460026475 15.079530788437818 C82.13110986601038 34.16268538992806, 66.29837589602573 54.43504680995404, 26.427441024786297 100.83524586157522 M98.6655534983648 25.822069806610187 C85.53458267455166 43.63648965172932, 74.51433206671605 57.98546825620665, 38.312213770551054 98.32755114211491 M99.64637016545893 26.120947615363846 C78.2071261013678 52.49645892550819, 57.21649898359777 78.72710254090583, 36.62257307895556 100.81187337837558 M98.34424139893994 37.92479357212171 C80.19773332255924 63.91217850114276, 56.5043585008225 88.30275567097657, 48.43202490206585 101.1240264276681 M100.79391142729193 39.140495981044495 C82.75538370443664 61.561519660665624, 63.34228237584847 82.43640557743102, 47.789490587529585 99.03470929424127 M98.24702529786938 49.893729521433144 C90.24699217012139 61.51860553412966, 77.19469334751716 75.79068588343938, 56.11190065842996 99.90083831746678 M100.24357427711391 50.60800347141021 C82.48581274529512 70.94747126757582, 66.68341665941624 89.78700657252327, 58.058880418892024 99.01890898346034 M101.4436981572874 62.37577495219319 C91.76808683112569 75.5140756613387, 82.50302132965936 85.14589293760352, 68.5508197984473 99.6557594598411 M99.74770247230903 63.70738701602613 C92.10704357736982 72.41154514995299, 84.58077942867244 83.1001528722267, 68.7262811033078 99.5871258992517 M98.89717858497647 76.11757516353784 C91.82402982100666 83.97276980678096, 83.99587352354554 92.77520376479029, 79.98230481517196 98.2743035825228 M99.54636012778938 76.57289807914142 C93.57660279966912 83.49575451427135, 85.96926158857967 93.43845170567198, 79.28407046376248 99.35026794035981 M99.41432001578497 88.98573099600709 C95.3163375955394 91.10372673254571, 92.64483137924027 93.9859618510721, 87.95947906662241 101.56764767455412 M100.53088478108654 87.15191960919803 C97.03186302280011 91.43794313263508, 93.25801430280993 94.50981860482263, 90.14982790205818 99.2859239391295" style="stroke: none; stroke-width: 1; fill: none;"/></pattern></defs><defs/><g><g pointer-events="none"><path d="M12.928375908649258 3.5046143664305065 C12.148173234582499 8.684528300484539, 7.1462481918296 11.963240968709357, 4.786508465488234 16.51494841262447 M14.069868004515612 4.169370272054011 C11.236013357001406 6.970379581188898, 9.071275355927682 9.718829944452798, 3.5295428896204637 15.890196181941793 M22.531507499773255 4.918683601191951 C18.249070214307512 11.198005514035, 15.741660965646812 13.263718194648039, 6.40871199405208 25.814716957389546 M23.373994861574577 3.7784568658138706 C17.943642391918203 11.45981674125044, 10.902407155760754 19.99555516153179, 7.3695550589444405 24.07063110127173 M36.16523198043286 3.277890312426166 C29.93783415600489 7.978303138002497, 24.377186379470782 14.158401076364378, 16.954017419617838 25.63631341351741 M34.34095782480823 4.937965941204486 C28.837977431803832 11.741479500867726, 23.426371564235577 18.668377349544016, 17.55102433810225 24.206749663690225 M45.59119296199374 2.6505232761573296 C38.49488593124379 11.290424094767623, 35.14479062645042 14.657608185604651, 30.15562336167075 25.589333518599208 M46.2272439940365 4.240703434764767 C40.55981022400397 9.897369601231416, 37.20301506507871 13.632260826794695, 28.454251760406628 23.25365411110539 M56.213661295695715 4.1758782632588405 C51.196685153242704 9.33919001531611, 43.239484403965164 20.11217937702716, 39.059853452620416 22.19438100117859 M55.22534908843796 3.2756828832964766 C51.81994648092155 8.267852890032149, 47.04823935939027 13.01846824457059, 37.97124870516481 23.790635015998696 M62.60729832709078 5.645175122220485 C62.52677142357726 11.50284611067808, 58.11009492110818 14.281798557593664, 49.66947579811265 23.439062985223487 M64.84237246775376 8.165699493865395 C60.48418980732365 11.150277625219147, 58.61143069543901 14.024757053489832, 48.585165845326514 24.14104769450045 M63.49243372391952 19.662600287504443 C62.42249405947684 20.870303622154342, 60.74014947531209 23.15291478619672, 59.86806170318073 24.52948173073138 M64.24698961905433 19.23006622403299 C62.332595688348775 21.396177661790954, 60.69484918144511 22.583335613664087, 59.730806100262264 23.984400549702784" style="stroke: none; stroke-width: 1; fill: none;"/><path d="M3.837901005021185 5.4103335486181825 C20.26981028596265 2.4260672566459704, 31.20783988131167 5.103596649605805, 63.974938737304676 2.556061496734052 M3.694972926491568 3.497725513215252 C16.14653182426915 4.347661241595571, 28.786962670692645 3.708494969375537, 63.34717018662622 3.1975958387055803 M65.82169598936787 5.9608989261282685 C62.13804095122307 8.229782049302749, 65.22787156287541 13.542116643084347, 63.57542980963618 23.21032483593971 M63.78935779199833 4.0527838056612975 C63.03622798341038 12.179855962647903, 64.54083114311044 18.670043588992467, 63.176641526945396 23.200146705845633 M63.245349284412626 22.47153565387341 C44.86251129931336 24.318011952928835, 26.68561559754975 22.626958661494363, 5.334591323925241 23.568204325086064 M63.02271665257628 24.02598159929281 C39.28041248422244 24.821614454945536, 15.980628685647057 25.020343282231035, 4.3960931802407845 23.641715887242356 M5.198777122390897 23.497019594162705 C4.521506285965087 15.133553433781042, 5.747636626191908 7.329155958887312, 3.701820092502934 5.326615947758124 M3.9604029320527414 23.54123183302469 C2.984551349460658 19.430960461807167, 3.5762204870835883 14.347511566871844, 3.5911282342442594 3.526344517932679" style="stroke: #000000; stroke-width: 2; fill: none;"/></g><g transform="translate(22.5,7.5)"><text xmlns="http://www.w3.org/2000/svg" x="11.5" y="-3" style="font-size: 12px;font-family: Helvetica;" fill="rgb(0, 0, 0)"><tspan xmlns="http://www.w3.org/2000/svg" x="11.5" dx="0" dy="14" text-anchor="middle">html</tspan></text></g><g pointer-events="none"><path d="M94.36673301836147 43.82628337098752 C90.11252957488767 45.60486797563806, 88.91812206683396 51.35813680326273, 85.15357320900183 55.57420299800416 M94.11407586339323 44.563414550443426 C91.60725608498497 46.85958702111996, 89.01945876419626 50.154260335134786, 84.10051013120194 55.85641608466205 M103.26985840562114 42.49604886806885 C97.2343437909373 52.82469110757695, 89.35535358678153 58.23469616835813, 88.36039964354775 62.5876524393961 M105.31028237242452 44.26566617227038 C100.69328234220623 49.106853756867686, 97.2275601068058 53.04436590091175, 87.52185328026438 64.56774976021575 M113.27163367212897 42.694245430636286 C109.51303609824109 52.208928753121754, 102.61378510507308 58.9982900492854, 98.58871918692546 65.44631365901388 M115.52335502902488 43.501316863599115 C111.03345259676588 49.3396438871688, 106.11636733452887 52.841332229142836, 97.15145399990817 63.89170842593258 M124.950160734138 42.112902674389574 C122.08172982670497 47.06891339657662, 117.6144238253577 51.27445169484409, 107.91973618851706 62.13229400431294 M125.32226177795395 43.444863357634055 C122.06615111165921 47.60979072854694, 119.40485482018029 51.785527132985735, 108.48588397876465 63.54812118853145 M137.58430823450382 44.91029665507109 C132.01921684518936 46.273065108616855, 127.78173167341922 53.52941197461219, 120.50768068945573 65.63547527516164 M135.93340471805746 43.843819309722235 C131.0023391327645 49.30370298431403, 127.55176524619527 53.83776093727058, 118.39024972875706 64.99705192843768 M145.24331009577958 46.392060204368676 C138.97941691294935 49.706497998993115, 137.62090238752893 55.9960326273993, 131.35278017852906 64.01784122115544 M143.02078787621397 47.24642721478125 C138.69836782887887 53.183255579565596, 132.73913176773806 60.56758352589567, 129.12684265643784 64.62667507462062 M143.77981786560989 59.87472117458317 C143.07781076178804 61.6181353699236, 141.07438287809313 63.24811451569987, 140.15783581438114 63.48495148997061 M143.80412682208228 59.13698657928073 C143.27131266272787 60.61515655413729, 142.07599974022148 61.3284767828002, 140.19203720793462 63.74781560307849" style="stroke: none; stroke-width: 1; fill: none;"/><path d="M83.54680675252781 45.02783269598761 C97.22547932724981 44.87968588066333, 111.82474618350138 44.34767047059998, 145.66064674346205 42.8183580918273 M83.42307401631878 44.58514705828469 C106.37717459080513 45.18024026402558, 129.6847241133415 45.468270219775526, 143.26705144773726 43.232572123956686 M142.97838055348979 43.57700063156793 C142.26543651885206 50.08649162374904, 143.71783026809365 54.22367968166673, 144.54339417117353 65.78461628929665 M143.53930888107845 44.1439648653269 C144.1031718415176 49.65938138932618, 143.0402003772071 57.62738037447211, 144.13226828737868 64.44196598687788 M143.9878989756329 63.136840181326185 C120.25070819595095 63.286131189882624, 100.49956783995887 65.59129277235515, 82.23817247234487 62.3965472945953 M144.7202695890231 64.37339191513915 C122.93093562856792 63.02617138158252, 101.3635872045809 64.46263979994097, 84.50770182709107 64.01917609505492 M83.56159924131823 65.41030875333891 C83.26928449741337 58.692920888537394, 85.11453421072719 54.80944309181675, 84.32983031935402 45.74361161748333 M83.91947743666792 63.64472875917241 C83.48761811875322 59.379759601066844, 84.13468009713394 54.90138057158206, 83.66365833317263 44.74629835000926" style="stroke: #000000; stroke-width: 2; fill: none;"/></g><g transform="translate(100.5,47.5)"><text xmlns="http://www.w3.org/2000/svg" x="13.5" y="-3" style="font-size: 12px;font-family: Helvetica;" fill="rgb(0, 0, 0)"><tspan xmlns="http://www.w3.org/2000/svg" x="13.5" dx="0" dy="14" text-anchor="middle">head</tspan></text></g><g pointer-events="none"><path d="M172.6896515504157 85.08734618685949 C171.37936506586252 87.28748683318474, 168.19366602176862 89.04421330363755, 163.31798929913003 93.86196149514366 M173.3254537368727 83.59405543097972 C171.48928110999725 86.3245134948819, 168.23565920763903 90.46514639170806, 163.84294584428812 95.84073874990811 M183.14918486944066 82.42380537581319 C179.02429739553665 88.36258147428677, 177.47240622174786 92.65049826205066, 165.1625228216548 103.29610086171405 M183.65251323497716 84.2451957313065 C180.48649217675535 89.96430026573783, 174.67355696290358 95.09891998772898, 166.81180270576021 104.10979413095845 M193.60988848118393 82.11505979832909 C189.6918585580789 88.26128760440338, 186.29346379709582 92.98350246017277, 177.77994906717316 103.91688287007759 M195.05943432234443 84.84486773968807 C189.47896274788638 89.7127177073498, 185.48472270861035 95.7320821269858, 178.04886728185917 104.27929810856932 M204.56989984173504 83.07000139914597 C200.0603369044483 92.55432814170496, 192.7384553483637 99.36902599479627, 187.89225664823297 105.90165960906742 M206.5328406656897 84.2841248636297 C200.73240361764377 88.34111140026036, 197.67970593019567 92.73979609062975, 188.8213870876879 104.78820770990372 M215.36011735565114 84.40525442185603 C208.83151639741956 93.00289418721978, 202.33556669656434 96.24551261755164, 199.79617000456258 104.75763656066297 M216.3891231928416 84.04748770674468 C211.07025820313453 91.63586371082623, 203.27032269299292 98.29434634790007, 199.48757276941888 104.96561743196001 M224.0296506683706 86.50332233937038 C219.57678032498194 92.57205900969682, 213.20979463981863 99.00731498578193, 209.02784991674628 105.7178457389525 M223.01259666060298 86.77592892237396 C220.2533035504129 91.48487239327264, 214.92100251909037 96.09883280151568, 209.3271361611442 103.33371329473181 M224.12255042958006 99.79404995981348 C222.740459001954 100.61122469483387, 222.1300352273772 101.60563333830574, 219.7350046039454 104.60976524350434 M224.165274514499 99.13282703285854 C222.490466069601 100.96502410927617, 220.89424679146373 103.1250129117365, 220.17755046769352 103.81398231015412" style="stroke: none; stroke-width: 1; fill: none;"/><path d="M165.5552552342328 82.71766921845533 C183.64925239660099 82.28615190161888, 203.36832690178716 85.26949471682362, 222.10919579404145 84.9991328690743 M163.39918156670828 84.76095272266986 C185.88399340064564 83.78787217578028, 207.53796865402103 83.3193397733461, 224.13925406449601 83.6420375863439 M223.9814291455492 84.86463639677574 C225.71327612248925 90.23643045473781, 222.1520333900638 97.10708742195806, 223.22167126942776 105.35131125315628 M224.1111539865292 83.6631003271012 C223.50115137786298 90.49657936320746, 224.1395446681398 96.31497850103969, 224.91984481824048 104.21695481699183 M222.49650959810452 102.16412071870437 C205.66772823911242 103.63884777049273, 184.37915788738636 103.21830684069087, 163.91579363896085 102.8740806656223 M224.67043701534683 104.93089529701791 C202.72144375116844 103.66419546646789, 180.85370904505754 102.98169086980401, 164.32451964888128 104.17884399356909 M165.23186448031382 102.61713502829346 C163.51984236175642 99.92852004252107, 162.1943279019574 94.99059507543326, 162.4953743845774 85.89657992914093 M164.85149708387775 103.57211594107717 C164.89674660139974 97.26653400048257, 164.07234309181283 91.72559256350003, 164.07538249230805 83.27275150581518" style="stroke: #000000; stroke-width: 2; fill: none;"/></g><g transform="translate(184.5,87.5)"><text xmlns="http://www.w3.org/2000/svg" x="9.5" y="-3" style="font-size: 12px;font-family: Helvetica;" fill="rgb(0, 0, 0)"><tspan xmlns="http://www.w3.org/2000/svg" x="9.5" dx="0" dy="14" text-anchor="middle">title</tspan></text></g><g pointer-events="none"><path d="M94.85265720790885 164.82709707863103 C89.69532981585495 168.64770019121735, 86.64075920782956 170.13636829979936, 84.37963750302005 176.57054114719563 M93.36475081735153 163.67072903015708 C90.83779253556858 168.36658490535916, 87.55447328819636 171.82929345346693, 84.1242269367438 174.686492653892 M103.04578758615672 163.70116218705857 C98.19750501755337 169.9047951233279, 93.54706395366772 178.98947048190766, 88.48975617880494 184.45913958275267 M104.15995215019863 164.8932577805189 C98.58990049398636 169.4119650457851, 93.89387218633772 176.7183456788408, 86.85848088718501 184.84225489914184 M115.40908626597839 162.69407155135912 C108.08881044885396 173.4289692481536, 101.80266627648203 177.5965522418518, 96.04777948364237 182.25120982356438 M114.4371534470811 164.22033908363542 C110.17566021298691 169.60599064033659, 104.45251991156795 176.8131036407495, 97.05395219381094 184.30561157114818 M125.2277795796677 162.40064977080004 C121.5138054776513 169.3240850489235, 115.84883820107684 178.46415061773527, 106.29647660712435 182.37608392250735 M126.52369687305695 164.07289977887552 C121.8648823610479 169.5239547158931, 116.32069398522268 174.5375107387707, 108.0769765587155 183.23263998292225 M134.5561555766241 165.80653836982034 C131.21609378329123 170.66735055926867, 126.82559886258716 173.4900682872334, 120.27812136225239 182.69085761398077 M137.11778140067693 164.07560687371063 C131.6045250417777 169.56420235166655, 125.63591538831456 175.3882555807789, 118.17774809418466 183.18160614707563 M142.91623237201165 165.536214070686 C137.5008808885755 173.29668098970146, 133.59370683391754 180.64868193274162, 130.1490576657385 183.17312060870793 M143.0499712651005 167.97062090869002 C140.2387643762289 172.57957902659027, 135.852106102036 176.6870510016269, 129.92701468934806 184.6547804491574 M144.24217683112246 178.92257114274057 C142.9855523508363 180.1390860195836, 141.65229611749916 181.02437820451087, 139.66081015832202 183.97189393831388 M144.08479250688563 179.32569428161017 C142.72251474780595 181.16222233344538, 140.93346104356465 182.78536592589805, 139.91759749754678 183.745585024825" style="stroke: none; stroke-width: 1; fill: none;"/><path d="M84.03112979191509 163.6859788716053 C99.85760006765202 163.22355497712178, 119.63831910355518 162.66185490628163, 142.2970939688829 165.62619680616808 M84.13283257225555 163.04419013619344 C106.73496269755147 163.95909923680387, 131.49413160951678 165.03212076075525, 144.61822328049763 163.92940750342984 M143.3250724696514 162.49777289435764 C142.18056655734213 172.64338955156592, 142.25329285986967 178.35840670529848, 144.90913562035647 183.94554429669836 M143.99435884614016 164.2140724672608 C144.21226442319582 171.20586152743874, 143.12987675542553 178.8341902605355, 143.8373206263495 183.14923789645863 M143.21198584679462 184.3120354318258 C130.36388528864777 185.24773044419067, 114.60182198452948 184.75513559311204, 83.75741619012385 182.38950405466306 M144.2553410311588 184.5712135196724 C125.77188220470927 185.36074427095775, 108.49042403019968 184.26219853764528, 84.37617682992392 184.21414690440784 M83.55921513943497 184.48680399601218 C83.4267153132165 181.67952990422572, 83.64024334376857 177.93277039322632, 85.55802426899372 164.52228226489564 M83.52539382956262 184.11897508356108 C83.1004176959648 177.85576847748925, 84.93815386273069 173.20025510672457, 83.72375131056026 163.28178806519685" style="stroke: #000000; stroke-width: 2; fill: none;"/></g><g transform="translate(100.5,167.5)"><text xmlns="http://www.w3.org/2000/svg" x="13" y="-3" style="font-size: 12px;font-family: Helvetica;" fill="rgb(0, 0, 0)"><tspan xmlns="http://www.w3.org/2000/svg" x="13" dx="0" dy="14" text-anchor="middle">body</tspan></text></g><g pointer-events="none"><path d="M174.00703426998587 244.072255971467 C171.60922829605173 246.64438346286542, 166.77958750170825 250.01265849849904, 163.77633141993593 254.35158529497357 M173.75571041471744 244.2504175423673 C172.2985742828456 246.10872469589307, 169.10304608007587 249.15576947312607, 164.6702793440434 255.80589265030486 M182.84637364963325 245.34008746664367 C178.8617215785502 247.851387189948, 177.6613389317728 251.84241361070906, 168.59636574577743 264.718834306095 M184.03440652133045 243.6454945050631 C179.06595994199466 250.57478828831916, 174.02810437345008 257.3566994680211, 166.34118286836255 263.9351146336419 M196.57218317623062 243.72102790780028 C187.57692063885165 250.63045673690024, 181.2892426495727 260.3606705567441, 178.43606589390524 263.02898648074796 M194.80473376664074 243.73860567320565 C189.27098345145478 251.02430666887486, 184.07680699510087 256.46744007214966, 178.21601498895333 263.07922851273827 M206.36987114020715 243.12147961161645 C200.96383543438085 247.91955991766207, 198.26742803959382 254.3873158193134, 188.66424198735555 264.2241751638536 M204.71401105430377 244.67487849202473 C199.45467393108476 252.50356883107293, 192.33626986262414 258.60303481614494, 188.50147661279706 264.3962854956388 M217.89371882311383 242.99844389902563 C211.6813054772038 251.51401342503075, 203.06602829170157 257.1698993684205, 196.84411721226076 262.4984705392437 M217.0390287322285 243.76817764600312 C212.0804565098613 248.61015204757462, 205.99408460161547 255.04267913934046, 199.67044635020667 264.06473612426504 M224.6305152926315 246.76057127452407 C219.9960527274819 251.2462174842146, 216.43788628550743 256.2086833452173, 208.24663606116374 264.1112478645499 M223.50319917762937 246.88986907302373 C218.1435982116453 252.81331243754929, 214.3741555734441 258.9162667238248, 209.55281992810646 264.7139771488205 M224.25393857248167 259.01839958062004 C222.50138664676086 261.69816346401797, 220.98672094581394 262.6381169043593, 219.7776629353084 264.5688699051796 M223.88296410615425 259.09758350621394 C222.30018748981436 261.1160045739139, 220.66109127687275 262.8199793646894, 219.93762016536908 263.98060324199173" style="stroke: none; stroke-width: 1; fill: none;"/><path d="M163.9399807553046 245.49805500258597 C179.2465067790739 242.28846193231362, 194.00201884987726 244.4153884659193, 222.4126972979851 245.4676149483052 M163.67605559323073 243.12574403960556 C184.59813464104158 243.23082157733708, 203.3762776590691 245.01263628595464, 224.1939253454189 243.33911956440815 M222.3125495830555 243.9267384173987 C224.97868481948615 250.1279556429226, 224.08529193372712 258.31273926816743, 223.3697738174671 265.6786733524715 M223.42110267146768 244.95710496978316 C224.59557036931938 247.75880652163227, 224.02458685695998 253.66468257892956, 223.10766786589383 263.2526951061315 M223.93535868741728 263.99451999599347 C205.5120761436021 262.63707496243046, 190.41642361221477 265.49685359910796, 162.86237245698103 265.09559177463984 M224.79225468248305 264.5497076284821 C202.1940005198067 262.93251477133106, 179.9359810022092 264.3149883912236, 164.43525551709516 264.16569538103244 M165.57720311326375 263.84372257021477 C165.60277209559806 257.26647067507344, 163.4402772762313 251.4635107266126, 164.08839813647074 244.33411732820537 M163.31493712652357 263.4125993637448 C164.0103025488959 257.0187381881177, 164.28616608796943 250.59191102814606, 163.11108420260032 244.5252475028114" style="stroke: #000000; stroke-width: 2; fill: none;"/></g><g transform="translate(187.5,247.5)"><text xmlns="http://www.w3.org/2000/svg" x="6.5" y="-3" style="font-size: 12px;font-family: Helvetica;" fill="rgb(0, 0, 0)"><tspan xmlns="http://www.w3.org/2000/svg" x="6.5" dx="0" dy="14" text-anchor="middle">h1</tspan></text></g><g pointer-events="none"><path d="M174.84875145031322 365.3849088995279 C170.92250180041546 367.9054282139629, 167.3601147021674 371.305522654867, 162.6718616579574 374.39169693372673 M173.56691250464348 364.67648469032025 C171.41580061655083 367.0142903645895, 168.865859661648 368.78831624556426, 164.32084820741986 375.81708889029005 M186.24058425218993 364.6763305742019 C180.27508081944725 368.4840434470099, 171.8263908796891 375.7843862734181, 166.20530872147464 382.18639799660957 M185.1974302037058 364.2695286503129 C179.91817104209593 368.99609066884153, 174.59642671285462 374.4353385879713, 167.4591881769127 384.0325601862843 M195.9053968712556 362.8208039739684 C190.371885971352 372.1513805397193, 184.56015629928908 376.7185907263798, 178.80866909349112 385.3986337682132 M195.75335538377252 363.6260050903671 C190.11832902762808 368.62885128787855, 185.3263192444741 373.9961690395281, 178.5518913515334 384.7392793852385 M205.8930480438012 364.59020737379007 C199.55490131455008 367.5174321080947, 198.1122909080914 372.9565105960377, 187.78330449813544 385.3085756973073 M205.51097467982987 364.81679458673517 C200.4489805507427 370.90227564908975, 194.2752441273738 377.1704628463109, 187.84781456133953 384.98166506227386 M216.68195368490527 363.80594365319513 C209.0511079128532 368.1847430595161, 203.80714765706793 375.4763161976236, 198.13834989899485 382.3736446718975 M215.30174078407558 364.8996541458604 C211.8665519463123 369.02242341313496, 206.91368526763097 373.9173367843543, 198.521137865483 383.07964436916126 M222.80553592397283 368.8196988988445 C218.41540466939344 374.1175047425768, 215.52023338080974 375.95345027496563, 208.57927559817563 383.5463744394756 M223.39308914958895 366.4081447428902 C218.72592650321877 372.099448191423, 213.79700629681955 378.86908181678325, 210.1090322388075 384.66325222161527 M223.42676702399677 379.9390859095265 C223.11271957576537 380.4637716056355, 221.41228972682322 381.7265874063042, 219.7116269613926 384.03210709609766 M224.22047935189474 379.5664093228519 C222.90824624387318 380.98897547045243, 221.33817388352293 382.29532976171646, 219.75872741628766 383.91634104029873" style="stroke: none; stroke-width: 1; fill: none;"/><path d="M164.97823205360316 365.1881777352343 C180.53849349048784 363.4223044505861, 195.84843612802464 365.6563468556306, 222.64820097814348 364.7693480680242 M163.1735923438435 363.3241409452233 C187.7990595272122 364.188093850001, 209.82070708536796 364.7015274886446, 223.53373449082557 364.0144762958309 M222.3735900358708 363.7164750818783 C225.95673433506025 370.0098661310432, 222.85473800263844 376.3602860730945, 224.1176203265745 382.99910657751406 M224.824164093573 363.2433232643294 C223.1602277594783 368.7061793911913, 223.76409680825762 373.72618148118255, 223.59245516825575 383.77793193326403 M225.9990046346843 383.5783916419647 C209.4458893455277 385.7929848239473, 192.89508039938832 383.50996817751, 165.31876102579088 384.7418495891667 M223.99760851423866 384.5153495074773 C204.53572335483756 382.74899887251587, 186.30352398883375 383.496397599184, 163.5793357371716 383.23539406002453 M162.44675649762863 385.6629171033679 C164.88290384129127 377.28682059809717, 165.5534162429737 372.50344361907975, 164.42924925018838 365.5682258174933 M163.65476319784142 383.936488410001 C163.16922171055856 375.58362585412704, 165.0272178781075 368.29218946249205, 164.4050206098268 363.7587582337279" style="stroke: #000000; stroke-width: 2; fill: none;"/></g><g transform="translate(190.5,367.5)"><text xmlns="http://www.w3.org/2000/svg" x="3.5" y="-3" style="font-size: 12px;font-family: Helvetica;" fill="rgb(0, 0, 0)"><tspan xmlns="http://www.w3.org/2000/svg" x="3.5" dx="0" dy="14" text-anchor="middle">p</tspan></text></g><g stroke-miterlimit="10" pointer-events="none"><path d="M 34 24 L 34 44 Q 34 54 44 54 L 84 54" style="stroke: none; stroke-width: 0; fill: url(#rough-6524141190927433);"/><path d="M33.43794588305499 22.8960376482324 M34.04953693179557 22.7794961570015 C35.694698691738765 27.620507757967932, 32.40261219985485 34.61162958979624, 35.15654606091156 44.00537943692409 M33.7679540016019 23.09932568797224 C33.88213456798003 27.64929717877711, 32.60341104908671 32.80711922382883, 34.82928240796439 43.47114795217488 M33.23303088604632 43.56950591893416 Q34.66090652355078 54.204986687556826, 43.84853439177218 54.11300223469023 M35.33921561399353 45.03062043706941 Q32.43567739185298 55.20971002023222, 43.325719855140605 53.85986241571352 M42.224437626402626 53.124395416692906 C57.51989148500671 54.74968380587745, 70.05751164428352 53.18483663597745, 83.79477258327401 52.28197976174674 M43.19554637518897 52.9712429078675 C57.32088455371876 54.643268682089754, 69.8759532726878 53.9288455495243, 83.54690750003583 54.850657473666516" style="stroke: #000000; stroke-width: 2; fill: none;"/></g><g stroke-miterlimit="10" pointer-events="none"><path d="M 34 24 L 34 164 Q 34 174 44 174 L 84 174" style="stroke: none; stroke-width: 0; fill: url(#rough-5098630266060925);"/><path d="M32.859846607175896 25.2512417450874 M31.482802911840434 27.093120463759153 C32.8228017464841 67.66531657902202, 36.64002312881681 110.04882705627267, 34.97531944151997 163.17507784156265 M32.84955025326058 26.247092592986462 C34.54729645458393 65.50924146720045, 34.38865609869383 103.34024972631305, 33.042601229719615 163.4393665129391 M32.99338138245808 164.58069042192014 Q34.59246327803595 172.90135124886947, 45.00161045020352 175.0208874512673 M32.24902735722885 163.5668814963444 Q34.919416199961674 174.2998656721552, 42.9965412974077 173.0400934893001 M44.72213520297841 173.55088861584213 C56.88499444431487 173.59661760047263, 73.29728859636477 173.9416822638831, 85.25784895014087 173.63830518767293 M42.86536250386387 173.87656848622703 C52.31003793902869 173.45651448963613, 60.536603289261556 172.14735205033193, 83.0632234637947 173.3954272065932" style="stroke: #000000; stroke-width: 2; fill: none;"/></g><g stroke-miterlimit="10" pointer-events="none"><path d="M 114 64 L 114 84 Q 114 94 124 94 L 164 94" style="stroke: none; stroke-width: 0; fill: url(#rough-1017144582573783);"/><path d="M113.63088619800864 63.0523272381394 M113.79582134924861 64.15064224789108 C112.54226369252726 67.30716286643177, 113.47499430490487 70.88668809039174, 115.97960583164327 84.33575448317279 M113.19080057403932 63.499907508956895 C114.09234611436865 68.4712358234988, 113.775679852464 75.44556560605119, 114.82304784507272 84.47187569006566 M113.45909598802201 84.65112499060207 Q115.18849957125677 94.89123847640494, 122.88437770567728 94.85737714287345 M114.41730433046304 83.4556417976865 Q114.21868294887983 92.64449991749333, 123.02849465472502 92.6090247047852 M122.99347234508163 94.48126219510516 C136.65912711064865 92.42693535037377, 146.47501325333963 92.28579777114774, 163.87695605546796 92.59439658746356 M122.13107118919628 91.64847855574352 C135.21013209753792 93.68091716407758, 147.1388833466321 92.9017409039591, 164.23724333823256 93.8588180445782" style="stroke: #000000; stroke-width: 2; fill: none;"/></g><g stroke-miterlimit="10" pointer-events="none"><path d="M 114 184 L 114 244 Q 114 254 124 254 L 164 254" style="stroke: none; stroke-width: 0; fill: url(#rough-3159044337419867);"/><path d="M112.24342980136294 184.44284277579968 M112.62250610691946 185.09473130218365 C111.51520376513187 199.94769895668887, 113.64453072271546 217.73566128389814, 112.20774679679208 242.84418958263828 M111.41476028366284 184.19989916443544 C112.77822910439689 208.5108340430942, 113.27483749358726 231.04484233374004, 114.76946392528775 244.56320607759272 M113.62706035067409 244.74923861462696 Q113.43438307340394 253.01561131682175, 123.50711188429848 252.84352091205562 M113.9491117706125 245.68728668588196 Q114.8231615690315 255.18238453504665, 122.96787331869773 252.4476663079505 M123.72312740561189 251.1547084814753 C134.7855074389264 253.80535908272734, 148.45640420445517 254.51632506415027, 162.34656883741684 254.77143690693498 M122.47976861910381 251.7509977132384 C135.41529891503848 253.6204452547993, 148.69838219646434 253.82063399358807, 163.75307119369668 253.0322315923665" style="stroke: #000000; stroke-width: 2; fill: none;"/></g><g stroke-miterlimit="10" pointer-events="none"><path d="M 114 184 L 114 364 Q 114 374 124 374 L 164 374" style="stroke: none; stroke-width: 0; fill: url(#rough-5511342382755603);"/><path d="M112.33656008963092 185.73153021019155 M110.74643752323327 187.3656237863612 C112.60985960265641 249.74943607162848, 114.39725461848862 315.4974538935604, 114.6614939545462 362.65703108990107 M112.41369211549984 186.68361641155528 C113.56466713293621 251.40284659420277, 114.33368869655853 316.2313388387772, 113.8726256768438 364.95071829716164 M114.64060357324651 364.7399306393835 Q115.05345029410933 374.777824991276, 123.83604892797108 375.1136888492285 M115.54189976576924 365.1724710251647 Q112.72057593016858 375.6541332910265, 123.16795404068313 374.37020990739967 M124.39567638934687 373.0801102348121 C136.48347090369168 372.99789895151804, 154.34068238669423 375.4063121543885, 163.64074352648194 373.25942887117355 M123.93443509401683 374.5108186171668 C137.19625738661466 374.60243332697803, 151.50802578340557 375.1075612013263, 164.32296750835675 374.3601562870637" style="stroke: #000000; stroke-width: 2; fill: none;"/></g><g transform="translate(249.5,127.5)"><text xmlns="http://www.w3.org/2000/svg" x="109.5" y="-3" style="font-size: 12px;font-family: Helvetica;" fill="rgb(0, 0, 0)"><tspan xmlns="http://www.w3.org/2000/svg" x="109.5" dx="0" dy="14" text-anchor="middle">"This text is displayed in the browser bar"</tspan></text></g><g stroke-miterlimit="10" pointer-events="none"><path d="M 194 104 L 194 124 Q 194 134 204 134 L 244 134" style="stroke: none; stroke-width: 0; fill: url(#rough-3992398934917933);"/><path d="M195.37599810335809 104.67492311629104 M194.8109812914477 105.54820204490463 C193.5404004947824 108.23326426600953, 194.6053350957512 113.34033509204329, 192.77248786417843 125.00612801324456 M195.72858323371207 103.73376226711224 C195.49304366088953 110.00834122863218, 193.89120939699214 113.57619448517615, 194.46974505319713 123.12509225310393 M195.0732790330164 124.46429970066598 Q195.11417133503664 133.03978885609084, 204.6370029954275 135.0171053447735 M193.60956884375165 125.2594691266039 Q192.56257865848235 133.21983668692533, 205.01110531722784 132.6853088846983 M206.7599376697252 133.01450800186402 C215.04348437478012 132.77756380342154, 223.313995220384 132.8373354937813, 245.13605837809433 132.87893281291682 M205.5868915448959 132.54177257531745 C220.55706842167422 132.66443153771652, 235.7680104954239 132.92472839239667, 244.6504608067858 134.02456420519047" style="stroke: #000000; stroke-width: 2; fill: none;"/></g><g transform="translate(167.5,207.5)"><text xmlns="http://www.w3.org/2000/svg" x="16" y="-3" style="font-size: 12px;font-family: Helvetica;" fill="rgb(0, 0, 0)"><tspan xmlns="http://www.w3.org/2000/svg" x="16" dx="0" dy="14" text-anchor="middle">"\n "</tspan></text></g><g transform="translate(167.5,327.5)"><text xmlns="http://www.w3.org/2000/svg" x="16" y="-3" style="font-size: 12px;font-family: Helvetica;" fill="rgb(0, 0, 0)"><tspan xmlns="http://www.w3.org/2000/svg" x="16" dx="0" dy="14" text-anchor="middle">"\n "</tspan></text></g><g transform="translate(248.5,287.5)"><text xmlns="http://www.w3.org/2000/svg" x="85.5" y="-3" style="font-size: 12px;font-family: Helvetica;" fill="rgb(0, 0, 0)"><tspan xmlns="http://www.w3.org/2000/svg" x="85.5" dx="0" dy="14" text-anchor="middle">"Displayed Content Starts Here"</tspan></text></g><g stroke-miterlimit="10" pointer-events="none"><path d="M 194 264 L 194 284 Q 194 294 204 294 L 244 294" style="stroke: none; stroke-width: 0; fill: url(#rough-90570678308069);"/><path d="M195.50220714773147 264.090664317504 M195.1607943870983 265.6586570895016 C194.8517736800604 267.8537297372545, 195.57709509460852 271.8056370590032, 194.71122687360497 284.56638909074144 M195.50167956720452 264.58250794762 C194.66579470597665 272.25037741282966, 193.91981827420463 278.7011543874444, 193.80086073878948 284.305763942246 M193.7822461548259 284.9365112622812 Q194.7260639261811 293.9158749974272, 204.66156841597802 293.22579151707816 M192.59176280828584 283.2426872634556 Q194.28043260979737 293.5758094813973, 203.96907864101635 295.81131617134275 M202.79391963238592 294.0543140240511 C216.04195700655075 297.2543799364171, 224.97693288123452 296.6047566676482, 242.81477593462054 295.5747549325956 M204.06768426919658 295.84156340777236 C212.6669667941844 295.78018233684344, 222.4169842950526 294.6132473829953, 243.1650177329578 293.74298792829126" style="stroke: #000000; stroke-width: 2; fill: none;"/></g><g stroke-miterlimit="10" pointer-events="none"><path d="M 114 184 L 114 204 Q 114 214 124 214 L 164 214" style="stroke: none; stroke-width: 0; fill: url(#rough-8085788045647049);"/><path d="M115.2446643318327 185.25165887052637 M114.69701804199974 185.37434374351346 C113.40083470481416 191.46718849546068, 116.13561253848611 194.9162609739431, 115.75757058425297 204.49772285825378 M115.05501369293721 185.07795161529324 C114.73018882410328 188.73079504223008, 114.4500911830712 192.435691677983, 114.15378900006658 203.9787762910831 M112.98387384409348 203.54138722499678 Q115.1848168724957 213.76031597150063, 124.82079988499993 215.12399219024044 M114.79604654079192 203.43642307308303 Q112.50977621493519 212.54124561064742, 125.82131309738973 213.24232599339487 M124.03855949081903 213.74098985748654 C134.085302921347 214.5083643770781, 139.97017414091815 213.34048934358094, 163.35697650227 212.12621252614835 M125.67390253670631 213.54279657935112 C138.1479718628508 213.4047808740809, 152.40368493427846 214.34027944758137, 163.6496753438872 213.5907958481439" style="stroke: #000000; stroke-width: 2; fill: none;"/></g><g stroke-miterlimit="10" pointer-events="none"><path d="M 114 184 L 114 324 Q 114 334 124 334 L 164 334" style="stroke: none; stroke-width: 0; fill: url(#rough-6590451272951289);"/><path d="M114.40702363123647 182.7722719111997 M115.08975259785448 182.26784738083492 C112.17106113520789 238.25074917170144, 112.28142695339596 291.9730873573381, 112.63985807838196 325.1973314832565 M114.85891264853129 182.61205235302398 C115.6448555869468 211.72521534042704, 115.73298459608424 240.9810236909636, 113.65694388505905 323.92028312665525 M114.39333212665935 323.9527995166442 Q113.6255011347734 333.8529006075026, 124.45999101891239 334.30031805761905 M114.1842731987765 322.65934815322044 Q112.81528704549197 333.08093723326306, 124.89540772128666 334.73748415029684 M126.19685363502326 336.0651828397952 C133.82770422749013 335.27444908319796, 139.75588411860332 335.72460296490254, 163.21920590261024 334.55587422450895 M125.5804505374404 335.1224503731102 C132.95985712642727 334.4473954268323, 143.51926769455477 333.92305474393646, 163.11856803674493 333.20391549441393" style="stroke: #000000; stroke-width: 2; fill: none;"/></g><g transform="translate(246.5,407.5)"><text xmlns="http://www.w3.org/2000/svg" x="67.5" y="-3" style="font-size: 12px;font-family: Helvetica;" fill="rgb(0, 0, 0)"><tspan xmlns="http://www.w3.org/2000/svg" x="67.5" dx="0" dy="14" text-anchor="middle">"\n This course shows..."</tspan></text></g><g stroke-miterlimit="10" pointer-events="none"><path d="M 194 384 L 194 404 Q 194 414 204 414 L 244 414" style="stroke: none; stroke-width: 0; fill: url(#rough-6613240050173303);"/><path d="M193.2787322796571 384.00102961442064 M192.71362684998817 384.26682609458936 C193.829449879721 391.64779337778975, 193.04627116059075 397.0568662800994, 193.65348424703436 405.895823123704 M192.38714252166443 383.60328105305905 C194.36657954340694 388.9915418851022, 193.70103353707316 392.1276802147026, 193.1894941730996 404.22567034572654 M193.99336407583306 403.27138090187896 Q193.64170407688192 414.58646541528844, 204.06851060212384 414.9815132842626 M194.08918176717125 405.44579237614334 Q193.77710789164732 414.1794860608629, 202.1740618544451 413.89662586263796 M203.11123452596414 415.5390561076176 C213.76648048225232 413.79326830558153, 229.63821756586714 415.61107684707946, 245.9437023603745 413.77018767536117 M202.74451222586296 413.3213909383571 C218.33703640401018 414.8362265625394, 235.57533900079994 414.3763596129756, 244.94435000870982 413.9463307554152" style="stroke: #000000; stroke-width: 2; fill: none;"/></g></g></svg>