<svg xmlns="http://www.w3.org/2000/svg" xlink="http://www.w3.org/1999/xlink" version="1.1" width="507px" height="219px" viewBox="-0.5 -0.5 507 219"><defs><pattern id="rough-6003297455745409" x="0" y="0" width="1" height="1" viewBox="0 0 100 100" patternUnits="objectBoundingBox"><path d="M6.894496064007545 0.6537780734137197 C3.8004686028969865 2.246199503409983, 2.671793983328282 4.171574144459324, 0.5371756548263935 7.446042870929689 M7.121429430456081 -0.18915024754305737 C4.843135247364673 1.4990952427509598, 3.3724151407771017 3.4300158184211673, 0.27601592655416307 7.378717388482116 M16.47233322061018 -0.05130161589158799 C13.797899561977424 5.165883665314951, 7.307327075016792 8.540905657641696, -0.5841796535173103 19.656186187318156 M17.952442886962608 -0.5498914162235162 C11.588492678230008 5.2440848304005065, 6.7567239423668815 11.823366475979075, -0.6208734658380912 19.030678083388008 M26.129972748841688 0.800417955372108 C20.238187432978826 9.015552918039516, 11.63884250214755 17.90676143235779, 1.5390916854979357 31.491299744000614 M27.655253961244224 -0.8750156563664526 C17.5762486030683 12.473995179474425, 6.5891369455586855 24.68413858010037, 0.9748762594566038 31.59321411412894 M37.847977486622455 0.2687594069119399 C23.686811611235864 15.228451569345047, 9.766632800486445 32.14075779284554, 0.002768856419213428 45.96342759359899 M38.80897908705658 -0.9883026408649473 C27.33515830821668 12.54801398726954, 15.578526855197515 27.730084158820485, 0.6428272503033741 43.7713198133289 M49.11519065441389 -1.9374998559336243 C38.627136676895574 13.647755493056138, 26.564817710841268 24.080010099868325, 0.0704493128856134 55.78037828312307 M49.82250244067954 0.7931033375950283 C38.54170267182197 11.95006670011124, 28.97443972578533 23.83488994446265, -0.8441299818927934 56.301155582292736 M59.289393539727385 -0.5557741332636823 C46.61137177005507 16.931770391793783, 30.461650451804108 31.995670251035087, -1.381759698823159 67.06473336375446 M59.62784800208601 -0.6200509859270911 C46.64495331418785 15.924599001543443, 31.37117710020621 31.073504866923027, 0.8032419655181888 69.29152605078374 M70.50295378624448 -1.1969165625618476 C45.201728687830226 27.42248619044554, 21.387191617543312 53.18675212092304, -1.378011116656892 80.61648515274257 M69.46866203107679 -0.26989957191101865 C46.370437965553066 28.29434495211788, 23.841359516982706 55.44850921602038, -0.8888136008297556 81.28981543558469 M79.84577365205118 -0.4496089504175025 C64.20412089510799 21.32401979558734, 47.376154993859686 42.02878135036063, -0.7856887195140558 92.56800739591904 M80.70452227169538 0.20425453347658573 C62.84296720587031 23.30783612441616, 43.91766308568093 45.081605588399555, -0.22156794913993094 92.79089240659395 M92.61679206343119 1.2282517945499798 C64.13255851459539 30.4028422520963, 35.4615889180624 64.7852795315102, 6.192373220926437 100.60179773199708 M92.31432013437366 0.585041835581364 C63.560618425490155 32.181196274101204, 35.42493745333275 64.07208471483433, 5.282878771223965 100.26165259692898 M100.34075135475626 0.7406061042006664 C82.39535882204505 24.354355677278438, 61.38591867023242 43.74501458463319, 15.81867936762168 99.75349184668507 M100.15199974381899 2.550954921886865 C78.67911060261534 28.123401355998713, 55.327103806150134 54.28576762880896, 15.318775386698904 99.93667246561739 M99.62840240940722 16.43372824024886 C72.8431388737032 44.8454746170522, 47.8425943830996 78.32018670299665, 26.865509479360544 99.75860247044534 M99.47076558460168 14.813433437511085 C76.63542457808087 41.22880158845318, 55.41782416942418 66.46120713807595, 25.615011546590413 99.95950248322289 M99.02784678314241 25.94687476316104 C75.46110558636724 54.33255955757492, 49.467108855484355 85.5658591403557, 37.604733850349334 99.21719181181774 M100.35538209477228 26.732209872848234 C81.04569242941723 46.65055749176268, 63.35570141108942 68.2527973271904, 35.57726353841621 99.20224880052277 M99.24524325968716 40.14861340228856 C79.26625195896806 63.06659147567505, 60.809742818363524 85.39012691139229, 48.37327253563176 100.00554235007215 M99.9153049053144 39.407230879256964 C80.63478920033009 61.21882643998519, 61.6347371403243 83.48363947037872, 46.96712924746901 100.34474485971529 M98.44176846129025 52.187410317507116 C82.67567869228654 72.2493040008628, 66.47570694803889 89.35460993341219, 56.99955048576487 100.24542567739714 M99.25550341298754 51.576630303301705 C89.12721975466815 65.75633867567369, 76.70086252329699 77.16216780216949, 57.88815126912031 100.00555183019021 M98.67338283493433 63.657137897299705 C89.44330297527928 73.37561840155202, 83.28757429993406 84.95237869731707, 67.55079403712897 100.98305614518185 M99.01135674446469 64.37118420309072 C89.13079437782729 75.67612935262476, 78.89007532711125 87.85443387555367, 67.59277189727929 100.63710963742011 M98.14628962194767 74.14733210755277 C91.95805526700025 83.05589787373407, 85.52102220994448 92.3476143361136, 79.01616350105462 99.6339223983222 M99.48134041150215 76.33866799610796 C92.67654159350931 84.20760992900173, 85.91468525173538 93.739386881781, 78.13209577067857 100.83133584065003 M101.30321043289959 88.0919974101533 C95.80552168429588 90.93506828176493, 94.93722658424417 95.63967392497096, 88.50935711205962 100.07552373824329 M99.97792844162215 87.5505912333213 C97.03916697150886 92.09097475515557, 92.90609322540226 95.15235738611736, 88.73681789271886 100.26289905356104" style="stroke: none; stroke-width: 1; fill: none;"/></pattern><pattern id="rough-7270993196729339" x="0" y="0" width="1" height="1" viewBox="0 0 100 100" patternUnits="objectBoundingBox"><path d="M7.4000437655341695 0.19876653275445944 C5.1306544542797115 2.641415953485926, 1.5554939880255103 5.208556625906379, -0.02577660564357176 8.771161141550376 M6.726972173178231 0.14404921483877098 C4.4448807787579625 2.7249669415987596, 1.7261591567410213 6.03416057677234, 0.12363820350670851 7.756057501044471 M15.710477830587536 -0.2130104698627644 C11.442790258417098 5.753870672031479, 2.2332751311834906 14.7825760496597, 0.01857190018992938 19.44606589829275 M17.76184411441644 -0.7456245690294963 C10.965010462632398 6.378926099430817, 5.32988586672483 12.226022136733215, 0.3217717978996437 20.079070215258913 M26.758047024336975 -1.3853241932507219 C18.604582755396805 10.394841822535124, 9.69722830077289 20.898837022633625, 1.9107791135967611 31.687018075357063 M28.838558285112256 0.517531549614525 C21.96952681820885 5.4983558693153345, 16.578643503347546 13.954363579180658, 0.20235754468107459 31.737015577562165 M38.312366618981955 0.1963891974210954 C23.34768825051846 16.825406676021277, 10.23189899181287 34.70957726355349, 0.18794686241363134 45.91716001816916 M39.03949620770788 0.809713112515877 C28.795745528202193 11.494505231866277, 18.915408022849554 21.872073962082055, 0.8632784386927739 44.994111809209535 M50.615864515178906 1.5435944423626404 C36.417518028993825 13.829254873621217, 22.507473788332728 30.47598217019895, 0.9133402434725211 57.63154954491241 M49.591413454234974 0.06563643503971361 C36.757454650669146 13.458131446531784, 26.324857901921025 27.601663958165922, -0.597626422228172 56.556560114628624 M58.80008899662385 0.5192656993435367 C37.53510482952433 24.480040918947285, 16.27240581790353 51.990929235729645, 0.17472885109445535 69.37947641677891 M58.9872859973011 -0.2978133249827515 C43.333965204161906 17.385623077668807, 26.883673713713232 35.953175425856436, 0.08557397603318506 68.75748435832274 M71.39873848359028 0.9517121418230792 C49.1105971028117 25.770166595058683, 26.631919638439236 49.64131273483425, 0.5131906397724206 82.44173449541728 M70.29647184133317 -0.023419567468369706 C48.23819749875602 27.50937238572496, 25.042947031346557 52.880276288839255, -0.8669654895214269 80.86124053544498 M79.5596058433799 0.854486970491922 C55.11941813039142 27.82591709348185, 29.221923967068292 56.455535130455125, 0.9554952308536997 94.70275856973203 M80.34923109913736 -0.49778814655549075 C59.328088885031214 23.03835986952483, 39.55883553509164 47.96399162015381, -0.48789088129000957 93.54239558020896 M93.0969957366657 1.1938727342905482 C66.84520346993523 27.4623091325127, 42.033181282723106 56.540754611431296, 3.8496190479994477 98.87686785591879 M91.25352230748021 -0.7453343935004484 C65.06761800848595 28.745388342920105, 39.503155021053146 58.36285404831043, 5.153966487015176 100.5516665966216 M98.88194998279144 3.9706763769952653 C80.68646533501713 23.47061012929464, 61.10534844007277 46.98439956465458, 16.66180258066932 98.56970991350613 M99.6823539490644 1.699698715417472 C75.9496964064943 30.041475019193008, 53.32437126656383 57.53413920047602, 15.873381147922618 99.60427464647437 M100.34930527573509 14.32984055446226 C78.5118306267284 38.55432399931858, 57.4427139761144 63.571136368515766, 25.259604804687065 98.34459799793133 M100.19390819237293 15.471147456586648 C73.3112732223106 43.01610208793533, 47.68375549647293 73.03519651581163, 26.03421512712298 99.86463983213415 M101.13702502598431 27.534122086523023 C84.42296937170114 48.10774516140049, 67.97364626440326 64.33350561320555, 37.2546708953212 101.98761668575776 M100.28160288645368 26.657559992820797 C86.31579807937842 40.54969528118866, 72.34412283976894 57.111178217648444, 35.96526446217542 99.22967205399604 M99.33568079133713 40.98113935132847 C83.66947217158383 57.74563993721079, 66.45082415128412 76.30473608389576, 47.454604172794355 99.89892589102772 M99.19904902431814 39.93581557419268 C83.8162045505435 59.303593521600796, 66.64555247059891 79.81246813779549, 46.82381678733905 100.23998115394542 M98.43597636311605 50.02599060462112 C88.92927568378786 67.72491368646492, 73.22561485393658 83.31597471740946, 57.177873922424034 98.20054322823493 M99.16135535051818 51.22330084570595 C86.63923323017184 65.21187462880118, 74.55593889586102 81.25161954076987, 57.44914395312161 100.44085005315982 M101.65043520004029 64.60278862188949 C90.79007584108982 73.85332061194327, 82.57456280697937 82.4926342793274, 66.40557184781882 101.78452349547184 M100.94830537286083 64.29855793916563 C92.64590454531822 72.04960167611209, 86.60454823759798 79.97316557194277, 68.33824902460772 100.01252557812552 M100.86355031932399 76.36349968588408 C94.92283473521834 81.38686114704453, 87.95685860500211 89.89127009408487, 77.37675106267298 98.16215068921069 M100.75230531012201 76.29596664442087 C93.42280376516833 82.91046670387836, 88.26227752709798 88.46992995227025, 78.51012584619127 100.31966266992629 M98.59686777017087 87.90426093341985 C96.46874707887793 90.99586414080602, 94.43690080527375 95.9673440222393, 89.57445159144072 99.35027598299497 M99.81256991863908 87.84939709580958 C96.59781696006799 91.90201927334482, 92.04453832209227 96.25462162075057, 89.49483806554778 100.42838697611089" style="stroke: #000000; stroke-width: 1; fill: none;"/></pattern><pattern id="rough-1946811288700415" x="0" y="0" width="1" height="1" viewBox="0 0 100 100" patternUnits="objectBoundingBox"><path d="M6.541654218107398 -0.9099020785472952 C4.9025639077100145 2.4241879807048954, 3.4102901155536083 3.8044904053898616, 0.298610681818986 8.477177793654887 M6.650419094067784 -0.1746449693408521 C4.447117111680127 3.0497787551440623, 1.5701436625967913 5.944407239852563, 0.18283859497347676 8.276377241544669 M17.53362630676255 0.6480958958903811 C14.214733625569853 3.565768230004413, 9.771430367618589 8.9396790540218, -0.0737951117978275 20.67113570058053 M17.869686377375146 0.24313345409608234 C12.588844575219946 4.067187942239668, 9.90605655190796 10.049631262262999, 0.9884199402861698 19.948300384922188 M27.728221569521814 0.4247824882598312 C20.19982064621602 9.267211314178748, 11.258773209847401 19.218501539165693, -0.8045455505402819 32.18708439974784 M28.081247993972433 -0.4903243913510047 C22.02769453355626 7.000781531253451, 16.870742174618 13.945886168458133, -0.10428707946807636 31.51682578076538 M37.017580751945054 1.6688209691188431 C25.641946125913513 17.149169206389637, 10.42383490786355 34.09615483015884, -1.7093391246926801 45.735474819800814 M39.59070389656067 0.9365677432009023 C27.192274399124635 12.653967505079933, 16.392591902290945 27.2870652916431, -0.4406003727714447 44.98760715704622 M50.48157051238648 -1.08384360475341 C37.48727004255087 16.83225099930378, 22.665142908857256 30.644238831695453, -0.5630700042066943 58.570755049355995 M49.41355199048065 0.44956912729337306 C35.39774003379126 17.017885576247, 20.446447841467364 31.871618763863637, -0.6656818855479627 56.6493167189891 M60.899576941011546 -0.5748925529197466 C37.692312080260976 25.387145628024495, 12.83650180153362 50.64336192806186, 1.678901656960722 67.23330720742923 M59.10833886919012 0.18831626666970402 C46.45975112675153 17.02084166189166, 31.45337204040531 33.90181790607526, 0.5327323482759989 69.01962592517893 M71.96972981860428 -0.6839568879881641 C46.52623006229612 27.410045300745836, 20.399428468981576 57.41600463871579, 1.6778520724281236 81.6976491304307 M70.91177998414986 0.8621843004004499 C48.614577278584754 25.940489294564014, 27.01341351332402 50.540580296167505, -0.9884121199888716 80.67861704501843 M80.93060886055494 1.5660023431580177 C58.17497726343466 29.1913555261352, 33.086053123561676 57.2007403113214, -0.4502568296286844 93.8991377754665 M81.09191945389126 0.015858582491179884 C60.89993776903109 23.336751975332913, 41.370312018639716 45.290703298671055, -0.6276411159905768 92.7962229682953 M91.0745354560725 -1.6125370847927556 C72.4797227670594 22.84078672507654, 51.84368270872887 42.13001304472185, 4.973070091950904 99.0175820467474 M91.8301533596361 -0.7158537448233075 C67.68403952257509 29.277880262124857, 40.33934858593868 58.891286661903635, 4.083914983214323 99.99160993293452 M98.02370567101893 3.2744204320449315 C71.8584626185761 32.606561854742935, 45.12001735059188 66.34186296728265, 14.013972143949342 99.85359901974212 M99.85007883412402 1.9191198846197137 C68.46876356192536 39.71775282568737, 35.97318590988711 76.97007705846727, 15.75869045628897 99.23270323142832 M98.70556528400452 15.52468549945459 C79.46132626880696 37.686012006053225, 57.97160778430685 61.97843454958034, 24.20237430263718 98.65039544676227 M99.74732875798622 14.09323236661497 C71.8282727581919 46.8782670290779, 44.873326819526234 78.9337912475617, 26.135269867931857 100.43977207694935 M98.00599298860249 26.103592648412928 C86.36957075060779 44.0015994336824, 72.69734679713302 58.79865708713624, 35.34265146245113 100.902119226613 M100.66567467001887 27.549411022425456 C78.38733886189642 51.00256319944784, 57.26304176159135 77.01277076094442, 36.23049189422765 99.49240395384841 M101.0317275173036 39.96189860013777 C85.58287014405715 52.36464235221544, 71.86155995295252 69.43488449789858, 48.532510109657224 98.05940003890589 M100.53576821652685 39.04720976200521 C84.57509537449468 58.03079508219189, 68.34497703792199 75.87803750574392, 46.765240807991916 99.08789884874066 M98.08581934733577 50.37352885445577 C89.34689771941697 61.53145670005168, 81.58582015865082 73.14680270321503, 58.895419500426335 101.26487065638172 M100.45116483808455 51.42989550875167 C88.48910227663558 64.87855614462605, 76.72068594890737 77.04707704478503, 57.08702349877116 99.97920879473253 M98.30741972689401 61.59305406762748 C90.64484043719777 74.22059620658992, 82.1658068202153 86.15534903423236, 67.38851961053385 100.14418594623733 M99.52312354621135 64.3017998201605 C93.43679957361837 71.67894374637798, 85.7760404873957 79.66862164228418, 68.19588538567046 100.6547747152404 M98.22374318890874 74.74249052639911 C96.89927496890871 79.32472584181926, 91.89846863783431 87.24674483353594, 80.23495283563173 98.81444458796955 M99.52226561025446 76.37780460455501 C92.69258988240962 84.1472855903425, 87.04314120014116 90.84568235730734, 78.31671533970943 100.040555606315 M99.08613200616557 89.26504806061793 C96.56265918082428 90.06022167062282, 93.83972275388011 93.57478566194496, 87.89441904962621 100.85592626492452 M99.97951859792856 87.36514627050082 C96.2393894587797 91.9643036361368, 91.97001083225472 97.02705609348904, 89.54907639455736 99.9744122172779" style="stroke: none; stroke-width: 1; fill: none;"/></pattern><pattern id="rough-4263300688807167" x="0" y="0" width="1" height="1" viewBox="0 0 100 100" patternUnits="objectBoundingBox"><path d="M7.226669688769689 -0.3654926201682851 C4.59520197745835 2.980461340327373, 2.138769423667952 4.067004952336507, -0.9153897836690484 7.056202276349489 M6.73905118806199 -0.10525408323723934 C4.620181777982873 2.399989068132016, 3.343133071150773 3.6405477679582736, 0.038235429467900706 7.5768854894556545 M18.78022718339486 -0.44366844422833207 C10.438875300732569 7.954894386132252, 5.442658144467701 12.313921856828053, -1.663182801663977 18.196558026244837 M16.7443511510979 0.29653731818963713 C9.852369998909724 6.5140891132982315, 4.204146581025897 15.370176457650158, 0.7036794719383521 19.70311547385846 M27.692630758154387 1.3545241244755344 C17.575835419232078 10.155689187247022, 7.057156103702722 25.895748295024227, 1.46919422422474 31.524664805229822 M28.085735144686378 -0.8315427167529772 C23.106288554103532 6.106261965608359, 16.82941552793909 12.345622733955206, 0.29632712596664446 32.887598472850264 M37.53372060217797 -1.3773888657730948 C29.72682874598157 12.374337860639582, 17.00100396066274 23.46175512776777, 1.9174286198856914 43.620304716158806 M38.71471067083549 0.861601149550562 C29.572929107447617 9.215427885026536, 22.03051137704706 19.18662503378013, -0.01679974145931684 43.494224394687 M50.502421841729664 -1.9561783166211466 C31.44793928570672 19.89265271669882, 15.960269668930275 39.763436600078364, 0.900004829003529 56.48293037019787 M48.99920311097397 -0.6518431201498651 C37.74936041199667 12.337700029664273, 27.287505970422362 25.27811023021711, 0.551757661578463 56.48722775539195 M61.55895341204403 -0.21108720625142663 C36.28151875541971 27.156786511896392, 13.868851627302236 51.83156656736753, -1.7892054490832328 69.75946895972073 M60.61515100041339 0.9587118420045506 C42.63228593833152 21.142504629540262, 24.8491320779787 42.6297289450544, 0.909374456766662 69.53178500294341 M70.40328517107133 1.3063969984239545 C52.67731045837078 22.701754657148747, 33.327647097131305 42.86648806276288, -0.18810227021184023 79.52544914304562 M69.79566877756919 0.8811964114419051 C45.89406255676309 28.490766450807616, 19.249997657222846 58.225627010394824, -0.28359730973845965 80.65247583017174 M81.74264782522295 1.8211726453502042 C65.02009425090728 19.9493276443635, 47.723782574689245 38.06727554509531, 1.251534235194037 94.61063515586793 M81.97633293170368 0.9567568362456673 C53.967882084301436 30.636916304763513, 26.471665104858314 62.05154065062955, 0.2896700173718534 92.68892409303656 M89.69233976402636 -1.7418891255180133 C65.17749524130126 28.226828582928782, 40.74421631917865 57.45774176427111, 6.48062751660246 99.01382115230196 M90.75434997370496 0.34079917431698004 C60.32405901807962 35.63529562030894, 30.35560828018236 69.91769571487495, 4.767843259157279 99.90004559228211 M99.54456049161222 4.46718806973213 C77.35212446072534 30.08524181305235, 53.12462034789032 55.337880555316666, 13.429233033921097 98.6496808579862 M100.40217527727269 2.4031271034963186 C76.62889004535437 28.797036096230027, 51.92266876949458 56.50159518966442, 15.49893064630391 100.57676149548507 M100.5985187148751 14.572086735453853 C82.17341117656409 35.11678694598375, 62.67616821434631 58.70427142983739, 26.52695428739287 100.1151196245061 M100.02679340212332 13.91793962601102 C82.81272346397361 35.18092549242582, 65.42674537352254 54.36185183247578, 25.10711238661811 99.53476678822828 M99.2234963606979 25.338364724085267 C76.21925695534608 53.04196197528189, 53.745614090523205 78.09359253380403, 36.22850518776554 100.57729208752755 M99.6416068617245 26.19915589414372 C79.52609771210118 49.26704009996946, 62.50973996755963 70.32884454170134, 36.46612318393064 100.19349514288656 M101.42281141082461 38.13947903644371 C84.58482911848859 56.09532051277044, 72.29127934947128 73.44522869314154, 46.501337447813356 99.59508314283525 M99.30443222741263 38.19232535804463 C88.36569916894143 53.13939996541918, 76.0829096785165 67.56064202403373, 46.856438355066565 99.96094895458161 M100.15695575177844 52.426784237278646 C88.13843335253054 62.799247342999976, 77.79044405325386 79.00338034406215, 56.70436650437168 100.28190694016321 M99.16891207168447 50.34777603915098 C88.22663955777142 64.21338555591262, 77.06699702093722 77.71221660834816, 57.03321674046874 99.77277221854882 M101.37749700751017 65.39183328425491 C88.58775201538151 75.52293870623089, 82.97336047922809 83.5798787720825, 70.00179803947839 101.45068026493098 M100.37467618002293 63.42336646544611 C92.38871306422975 73.47485081021868, 84.2842063259235 81.85653419313732, 68.13457569289564 99.02963288405422 M99.76541954929354 73.72646393674435 C94.79569214847882 84.02068313705787, 89.94410127202369 90.63184077019567, 78.91736153311597 99.94048555743953 M99.94513643631832 76.45494453563016 C95.4251937284154 82.43723554015736, 90.43270611110802 87.88997238531259, 78.8473391661229 100.43338256222727 M101.1350001630981 87.74675070885114 C97.08426212467931 91.9338053398943, 95.51264198737377 93.26880681818992, 88.37302015524851 98.63622254811187 M99.4584839429693 88.23196974460787 C96.40860542041617 92.06344215312704, 91.61804355993894 97.74358245318949, 90.06830546132805 99.86203534189198" style="stroke: #000000; stroke-width: 1; fill: none;"/></pattern><pattern id="rough-5333591888367959" x="0" y="0" width="1" height="1" viewBox="0 0 100 100" patternUnits="objectBoundingBox"><path d="M7.410372778155916 -0.30006132601037383 C5.3745008030789645 2.514232775330009, 3.114597506847849 4.340213781110841, -0.16680210241706683 6.87092870311943 M7.2380917981412525 0.07891008642532815 C4.423220033913292 2.690839602799637, 2.0420021655890834 5.711317703916633, 0.11887303562913454 7.8114774510674385 M17.44246956209362 1.470262146380894 C13.539178692091694 4.831290044207287, 9.93341076125312 11.173073528746343, 1.1779504631455593 21.98174829266718 M16.81317688182166 0.3608898454782121 C13.9911997781609 4.885854868365465, 9.387229333050076 9.299274747245166, 0.9885399219823734 20.66346335711131 M29.42748873277288 0.6989218072642283 C18.227072490606048 8.702855594220802, 13.282310006493532 19.26796018066074, -0.17920150054067818 30.23730021250335 M27.64049704858722 0.7764723812716632 C17.290767789431655 12.571956102306496, 5.976951200662516 26.33243941119139, -0.7101568406295784 31.27346344020584 M39.52938966453198 -1.4315045280770606 C26.187337100874863 12.266206871666407, 15.360118972649161 28.413053404973788, 1.274340479868811 42.57883346874935 M38.67200488629274 0.9473820578883281 C23.150438468867385 17.251491596940014, 7.3143063189420605 33.35442835405719, -0.6253510013034118 44.2307991563308 M47.53302533176734 -1.6915086825727519 C38.97699695630037 13.643570558641219, 26.130562627206448 25.510129110159006, -0.8596746486757141 57.51271471190737 M49.506160173101065 -0.6449426470009665 C34.8647169081933 17.121622434199846, 18.67941102207535 34.0474489188323, 0.44399808074470437 56.409142027092145 M60.94465332501663 0.04248879257430094 C40.66559492169469 25.06222547311231, 20.16090842555392 45.64542698321376, 1.7107630421671898 67.0460180137424 M60.15484927706668 -0.8580876766154852 C36.84688137284625 24.39257307865341, 15.765942594839466 50.51444742428359, 0.4593788262587508 67.83746748936127 M71.01062697511723 -0.22868084566296254 C49.417556125161106 24.143808316890535, 28.369820385678707 47.91411334807373, -0.8839426894047806 82.94946988138612 M69.61224328449055 -0.1314078212630414 C52.10007214405384 18.91042129654186, 35.3718067527674 40.849629178278576, -0.02727186913989943 81.03737571923915 M79.7115886122377 1.3408089910966563 C50.8228294974891 37.79427601258168, 18.072971314882807 71.80892497693725, -0.1274958721317585 91.99170190752426 M81.22185275441576 0.42692773477670043 C50.03906754994427 36.85111921014322, 17.846590520701426 73.21433307108263, -0.3439013340024628 92.97283634931767 M92.90171331799877 -1.0386744321629582 C68.59363499212328 26.733877656672625, 47.55634890145141 50.558748734726116, 4.813817634106567 98.64397378597094 M91.17437336494416 0.7711051989523545 C68.75984503217386 29.45590229646555, 42.91539463381485 56.15846282027324, 5.639107428903277 99.46114532618279 M99.61205647824094 4.342189643956006 C71.35640336376433 33.368610226665815, 44.13575805970658 67.71807129358479, 16.753904970666017 101.05710429362523 M100.2350123633347 2.372658505138278 C83.56520666389676 23.532108770699757, 64.95325107037152 42.76432046580645, 14.67110475528279 100.82192267580409 M98.59036797679387 14.092628635788095 C77.07842245267588 39.04822618719402, 58.38256664279477 60.55687825764896, 24.43095254753985 98.49659809892678 M100.81094130180328 15.40641592692708 C70.75718863112331 46.41276358493051, 42.59356576623323 78.61065955472766, 26.762719818682537 100.68453258774495 M101.05215940101421 27.992295779336892 C79.31563682413656 49.66169634514051, 60.74381336449673 72.76749670603054, 37.98505004554885 101.34443494678436 M100.71323921052544 26.44857063978798 C82.49714065199824 46.22507284685708, 63.913309165286655 67.26691535410247, 37.171278576639686 99.65077928091269 M99.97168866086253 41.08141783415326 C81.33901294923368 59.36809348764355, 63.14306068119158 83.13703369695087, 48.12151966142463 99.46587255678519 M99.09341369799215 38.46719099910126 C80.52526853016026 61.75646234520009, 60.98420239001706 84.75767413597687, 46.208247359573264 99.58679380352793 M98.08725920077143 50.257184427684464 C90.01712076216998 63.29583180463364, 79.66360728046674 75.96782425458102, 57.51916480975928 98.14227385466152 M99.40147381891992 50.569536296557644 C90.37407394897411 61.72375111780312, 81.9598856312367 72.59220332435206, 56.93264729411752 100.83773657879306 M98.972338342477 64.33328064276394 C88.08890484366653 76.3750634224887, 78.81440676447659 89.71491528058817, 67.59857717621823 100.60684337747294 M99.42604056651103 62.75103904281213 C88.29684160491865 78.19677632165616, 75.87357469615414 92.69632269695768, 67.39580385467286 99.04028134579868 M99.90319381136912 75.44108194941703 C93.4163321192162 81.98331560798042, 87.2032905670369 88.71272722295409, 80.31660320181665 100.6629733867031 M99.3859078853268 74.87728862769299 C95.47027624975398 81.29116627730681, 90.4031456422063 87.1224130749933, 79.56402576441701 99.93537734424689 M98.42941065609809 87.05988530730811 C96.11712781240254 91.898371017339, 93.2088288174253 97.11835132683686, 88.01734140823287 101.12190179476605 M99.92766739591485 87.55253980946867 C97.17638093321347 91.55980681775422, 93.71371663836308 95.54387513204446, 88.73689789252401 100.32751364511554" style="stroke: none; stroke-width: 1; fill: none;"/></pattern><pattern id="rough-1117195267358225" x="0" y="0" width="1" height="1" viewBox="0 0 100 100" patternUnits="objectBoundingBox"><path d="M6.291532712294527 -0.6674714967659138 C4.562210255521064 3.274500939546247, 2.6200791994077504 6.032644090560405, 0.2233494702671872 7.980583892174702 M7.107554562322319 -0.2590655616843758 C3.8258607885601514 2.913714723371286, 1.7199283097836913 6.6458258337194325, 0.4246585725102189 8.115242638850471 M18.113716626792012 -1.4176697261580165 C12.02377809085532 5.685661575187411, 3.5355503522119287 11.86857545898942, 1.1198111589126416 21.00705298374865 M17.4175348689886 0.5922917553711566 C10.847776579500472 6.41459635687022, 4.595362783834746 13.919954740757113, -0.43492827084615326 19.682499957523152 M29.00574132798486 -1.3087514926619122 C17.543267670876432 11.96249351026225, 11.297000247872916 19.896125038841216, 1.3577419679096057 30.364580664991745 M27.973634297374208 -0.517586266042843 C17.226575744494184 11.743555315163608, 6.463097516518444 24.719343699768007, 0.20239613874692086 33.19439388695982 M37.28821185471571 -0.4863357460828688 C25.119770855535183 14.525424396774083, 14.3542296487152 27.4655228572134, -1.2928495752057856 42.62173720199638 M37.651481311987865 -0.7352242105977291 C30.10787791077044 10.769917345747565, 23.089447167537557 19.155567561371193, -0.7582763642973793 44.08284883909391 M47.35687659339132 -0.5652344896503712 C31.921288700599558 22.25118415659192, 11.484474621579668 42.41601157929294, -1.637043897281707 55.469515570622164 M50.05666931974486 -0.15161170786349354 C31.97647861652788 17.77342133921762, 16.524293614633024 36.31617572014224, -0.25332056321261875 55.608336526636194 M61.10654765243132 -0.4523804685230228 C36.737959002063704 28.831929249532365, 12.729681675431339 55.437171842205366, -1.541397133556221 69.84638829218248 M58.95934075118611 -0.04551208968467613 C40.04816546887612 22.455331642064856, 22.13237894142237 43.87824721125217, -0.0068541349164639165 68.05285487851027 M71.7465549900123 -0.5747450616402308 C43.89183997764495 30.5373639330885, 18.300553992181978 59.07971012347511, -0.20249688470880134 80.36854950049548 M70.39599525770166 0.6808389477138395 C53.499620621302874 18.00535991555639, 37.62644150247144 37.67352753982591, -0.6626472647862247 80.3936159157895 M81.32536976772006 -0.4611374115623619 C54.36723540797372 33.214452831233125, 28.837431657492118 63.32481700257839, 0.5951772859513547 93.19198159499602 M80.61146945620997 0.7147761262566195 C60.32979934516145 23.098373124102913, 39.39343802843993 46.38577840599436, -0.9362440625123649 93.7620074626013 M91.60663974433167 -0.6206775342513158 C67.10036288353342 29.18965527538109, 42.079974925608084 57.448464908312644, 6.165542100984626 99.81352933657215 M92.04261812965493 -0.6658372578387928 C62.949398817957835 33.3968509430113, 36.297767229611814 63.18786355959639, 4.220024085745369 99.42952610197351 M100.86870343322032 0.8816999833634647 C73.93892969213961 30.25494575108156, 52.09963798800162 60.72001297655418, 15.231158739866824 98.90656346674893 M99.07376666596213 2.989806721708337 C74.72152949386786 31.690123841151618, 50.21300719036448 60.08997523590455, 15.863662927821139 99.21718987023137 M101.77903427710797 13.642342935837053 C79.98001731196806 35.994178405701895, 60.26238978150539 60.00715890336726, 27.035196274016105 99.6369333595799 M99.74106587885024 14.785015585689607 C77.89959772201664 41.255347458787426, 54.09693626087865 68.58649105358138, 26.237447823325574 99.58764943088691 M99.71361962279614 27.54268571713431 C77.63442821783744 50.62285229183922, 60.552691254824886 75.05184923597201, 35.730178657291574 99.97799318240659 M99.61680864057416 26.315970149014124 C83.3659283305951 46.546417573232695, 67.13541248505872 64.8774474149337, 35.71465205995285 99.36209833836924 M100.08822192187637 39.659267954962175 C77.41052733433985 61.10096843372045, 58.74778942933483 88.27593483814356, 46.377009568635934 98.23794438634322 M100.5991999964765 40.06703703113375 C79.85724450759827 62.18601668812169, 60.76422147494499 85.42031329012302, 47.20934883158493 100.15081758597691 M98.52818524817943 52.30765800544891 C84.64541648059118 68.48160949394352, 67.70581683490225 90.43664776145144, 58.98597056057629 100.9663055549668 M99.81547311590869 50.68060304367593 C84.64483329573531 70.23162696272293, 67.03504608411174 87.90526430524453, 58.61034501463702 99.75548111999893 M101.00980287075461 64.29455049166434 C87.94135247700142 77.75225657115712, 78.71161147405265 88.23087129980865, 67.73168643092296 98.0019674862339 M99.55755096090161 63.64665491261607 C89.00030936183049 75.51502562445494, 79.24670604796022 87.95758186606503, 68.69525290833448 99.15668650227994 M98.55644091759065 76.16279196764198 C91.43194205042406 83.2656208138843, 84.46297922728034 93.55968746261989, 80.4012069041446 98.75833083529733 M99.34960766228181 75.14538028139401 C91.51041994877039 84.77654820471261, 84.37803204502299 94.24304389116685, 79.50133031492142 99.60466622101892 M100.89640280141761 88.68922662017425 C98.13707578204784 90.48623948118788, 94.3898476684737 94.36115485026043, 90.2929362247021 101.46566619902987 M99.95481687806155 88.43102830616918 C95.94365761348176 92.75449638594357, 91.67336632858608 97.2162094557497, 89.4580828478704 99.5678372242853" style="stroke: #000000; stroke-width: 1; fill: none;"/></pattern><pattern id="rough-7384064284000689" x="0" y="0" width="1" height="1" viewBox="0 0 100 100" patternUnits="objectBoundingBox"><path d="M7.079703351776194 0.8365612355485093 C5.737318797359993 2.2316734163655365, 1.8639330771009694 3.993066056859865, -0.9439045212793326 8.217142999727471 M7.2420991657633635 -0.35867656744089726 C5.775635472677621 1.2887951683804384, 3.8959497168265886 2.955662466951158, 0.3751377454330671 7.925645350336938 M18.013819878708027 -0.7983915367640861 C12.468042076997857 8.021350219087829, 6.338028696335494 12.20407059270217, -1.0106459431082238 20.72154827089436 M17.124577230417916 -0.03075115650233018 C10.543831516788131 8.19444458761098, 4.170065119592348 14.373564280210891, 0.688649128564363 20.411178250364536 M28.854720178097892 1.827511422171833 C22.08780178812469 6.124317893087344, 14.838327669315268 14.003342684074234, 1.8472033062325695 31.424461834458945 M27.852721985924674 -0.6105050696144128 C21.136578794671035 7.9004259756436195, 15.867103361667429 13.771142671142279, -0.4817800890093489 31.466353892986742 M39.32715493999501 -1.1597399736708587 C25.706775451236812 15.146102402626454, 12.185674763000303 33.14916622892732, 0.46351160036013184 44.22968018942727 M37.99034037453829 -0.6061165275363956 C28.587754191833536 11.220140005500511, 17.00986199399508 22.836485196547017, 0.8571293146458738 45.26490964155797 M47.45658403278879 1.3803607696187283 C31.02359562689049 19.877685112172852, 15.800606925993153 40.512626158559144, 0.8054431279344305 57.80785424180755 M49.58703333157812 0.3327942501597345 C37.822233022096114 13.845954207220217, 25.160592226318325 26.852871456207488, -0.5671897255961276 55.81825794890522 M60.3590331252137 -0.40115510082249717 C46.22670010663131 18.127066628291956, 30.805463751037486 33.34849268617146, -1.496347220697806 69.54175002845692 M58.830608170916726 -0.8075369449177225 C45.43068574627098 16.24974322678996, 29.37356152591945 33.79295446665188, -0.07049309922048952 68.02669973850155 M71.86994442990938 -1.2926866332004785 C52.406753044117885 18.076431738668326, 35.81667302516641 41.992826178847444, -1.407860562905543 80.4461955737898 M71.14351771156414 -0.03955428846291209 C49.04811590873866 23.926537158252433, 28.80612750554519 48.0087992497388, 0.8272847669729004 81.9115852602434 M82.46642471866707 1.1584566331422677 C63.88247696184796 21.56864502524519, 44.79319250962497 41.214500918291655, -0.2610174304795434 92.24615071980922 M80.82383439387219 -0.2138425438778211 C51.57209795252392 34.117105965397826, 22.045500134911478 66.52321259872237, -0.9436566530108181 92.77792980694474 M90.43294672551619 0.01221491693350707 C61.51855296774957 35.9267662817552, 29.227634964807145 71.07354332774442, 5.223639391523688 99.52459633051025 M91.69432986104394 -0.38277764380278034 C62.15165873844389 34.61899629407304, 31.356774277013347 68.94048869454487, 5.512037300942675 99.26287401004859 M99.08963280785667 2.078035761776712 C75.44231772558558 30.492674592381306, 52.07301614876004 56.88914783319615, 13.620453008802965 101.5684478438674 M100.82371355415198 2.429779848921082 C79.65181399905588 26.50499067255777, 59.74319122554129 50.943960163199925, 15.122581656119399 99.49267522475438 M101.54147676659167 15.11813860518646 C77.45437391630274 40.25430831881836, 53.65035286291531 67.05674106210533, 27.424109668279588 98.83864709600522 M99.30089574876362 15.263980405607974 C74.23094621379614 43.69819121913461, 49.34140212808704 71.03062712938717, 25.830001212451265 99.34826378056485 M101.02111606216967 28.045792653146876 C85.07210838180866 43.131320358378574, 70.92907201149934 60.58033480027787, 37.08234913401879 101.00360967999634 M100.97474794819591 25.926943448087307 C77.48011841955022 52.190011680903794, 57.55491365309323 76.82033532053671, 36.90446110699449 100.0916278947985 M99.12387696986903 40.79036041725675 C81.23931779195456 60.0541540086578, 64.65353032158139 79.74947105721314, 47.18276380396642 99.1465045003512 M100.20696024419269 39.7426860292474 C79.66083120812237 63.34671868069317, 58.42108451762539 87.09171389549059, 47.56936982884116 99.61604149120782 M99.65793663742184 50.46486471267483 C90.33950076595941 63.01454633000932, 79.46013736619669 77.25118402110319, 57.41288537820284 98.81859596553952 M100.80354927045103 51.71102029131321 C90.11404171098185 62.96364650104697, 80.37265368630626 76.15279229297552, 56.85803532530849 99.12896559796881 M98.85500460030283 64.77133960781273 C91.95807279717596 73.53064733579109, 83.17061339688605 82.34329963732995, 67.16039203220727 101.99206234266279 M99.24128832004997 63.999926319373195 C91.27791281191811 74.97393197834919, 81.75787915976167 84.89430971047534, 68.87133031879736 100.67898262487375 M99.94942160846264 76.50166359396427 C95.10828408077674 82.44519793523756, 88.01104119739693 88.37445367844143, 80.39650411318641 100.03125158263397 M100.88052421301266 75.2105603352344 C94.46361473091162 80.79039482645867, 89.5100020815515 86.93617688343781, 78.11639022404006 100.40911272340682 M100.40720730334768 87.32789688760597 C98.10800362248601 91.19515379703707, 96.06485659504625 92.79231385204213, 89.03398362480047 99.93728833810788 M100.69707725160788 88.03641894200838 C96.04236574159073 91.61990226086617, 92.34065007239542 97.26703968049469, 89.25315429850359 99.96247034440937" style="stroke: none; stroke-width: 1; fill: none;"/></pattern><pattern id="rough-4800825885435513" x="0" y="0" width="1" height="1" viewBox="0 0 100 100" patternUnits="objectBoundingBox"><path d="M6.133119943587392 0.40730758400084977 C4.069485866412194 3.7916888551224988, 1.6382303999755863 5.352203682298347, -0.3279173356775127 8.605909067049236 M7.225828226155169 0.47708036763566153 C4.6066617706669915 2.393765792905275, 1.876758208477579 5.873089330324348, -0.2116656707670974 7.923740164009474 M19.232090983138256 1.6269812363103018 C10.487049295772621 7.3712341838681485, 4.653705170016164 13.419215828366017, 0.6462769906463794 19.51733289139269 M18.015264482204614 -0.4994619111516694 C11.024833899842312 7.422804538665037, 2.9283362760350204 15.8845858328941, 0.27064528057761805 20.505530731364676 M26.964154612601998 1.432085795138292 C19.994801536918438 9.005650653989616, 16.079962278667267 16.107987519782693, 0.30692235891081854 30.376180362517026 M28.473922172766883 0.9371167900627699 C19.294623376691163 10.191848346551087, 9.172365622262111 20.31418451692416, 0.17958817415165607 32.22711195141295 M36.95993482117434 1.5668664334531828 C29.915397826592304 10.053822585447975, 21.052586986733964 20.3734604621259, 0.873796208117481 44.90577976438689 M38.79575797355506 -0.14982844461720113 C29.96729478404171 9.468034150250702, 19.87322225555073 19.868717020636684, 0.5929780395394517 44.85340666748829 M47.790615278552764 -1.4726653459417136 C35.537346230985904 13.26325367984874, 27.169607289322755 26.203401350547413, -1.5528727869854553 58.404849854989536 M49.864976157750185 0.08800703538490318 C36.70015175579489 14.018376172794158, 23.416113008700357 29.44264760683405, 0.764453574035405 55.769650653929006 M57.91076523524165 -1.3174335478290802 C39.390143021079844 22.931302608259905, 23.04028718582172 42.63235083998886, -1.4731597069248492 66.88865477934078 M59.37968912198615 -0.06463774800842792 C37.98401964930562 25.963852782378705, 15.433103240053107 51.024177732685374, 0.9061366902506656 69.0978243171297 M71.91704477963785 -1.3461114762711484 C49.714840632043334 23.920520493272168, 25.485601659920064 50.78652465755551, -0.40768277800031694 79.98726491320544 M69.45698114200985 -0.7415399489851504 C54.354704946762475 18.420425964307377, 39.42401508398138 36.8464694708157, -0.4014736178989362 81.3089489939343 M80.1645564705595 -1.8786229218781205 C64.72170155395118 21.919018928018613, 47.44876952740559 39.12945513413053, -1.9955614947978528 93.14008536402876 M81.2607530145799 0.598735042897415 C59.681150937334955 24.5161033421957, 37.09829859851469 50.14442103241637, -0.3931109510019626 92.90879495116477 M90.71341913886413 1.0072033579240438 C65.31396209393735 32.23225898822277, 42.1982091340684 59.89682879918669, 5.777982457475924 101.44116631332419 M91.1387879531831 0.15588749234416177 C61.033190913707486 32.62975237446571, 33.619708925070725 65.75580491068987, 5.17601526905679 100.55212312252578 M98.22131139581799 2.63439188575971 C76.92003878192502 30.66302424506502, 56.49776731230295 55.109553743253706, 16.999945410972625 98.19410303970659 M100.86983000043999 1.8111360048061997 C76.63332629654955 28.598025747619733, 54.32410323246901 55.27059992505119, 14.992543323611057 99.4412755320752 M101.02620184101043 14.964207615937065 C73.51204304977153 48.738096327360616, 43.358642563178506 80.96484920562938, 27.43048498307098 98.27722267206232 M100.98435808949357 15.125228996670081 C78.16580106135306 41.259352534359856, 53.90536626074986 66.58530462920594, 25.907155079662253 99.37038712011507 M100.55356955259809 25.982592019258718 C79.99096842800412 51.67669714642512, 58.977833645969646 77.02664516128179, 35.47090405133695 101.47373744042423 M99.8325521124863 26.946621259614822 C80.76375017326073 48.6192063603784, 61.04161431352736 71.30064263114552, 37.40935288062342 100.98456405024011 M98.7207052764915 37.95606124567574 C86.00725263873794 58.4093895591643, 67.84840975159838 75.04306340032886, 45.166063477640044 100.62058433365414 M99.7597808148625 40.03382416503576 C86.28055824589457 54.40083643298571, 72.6225007688172 71.48480760361473, 46.65683082634293 100.8748230674922 M100.41313368123471 53.10781391227766 C89.20690212100347 62.80061855519087, 77.35150664663875 77.63834138445158, 59.417073096583735 99.56557851025124 M99.28539512990655 51.21321605729854 C91.46274410814303 60.18076706509602, 83.0729658602544 71.0238014493713, 57.21627369872979 99.08266745976661 M98.29460553563395 62.95665158656073 C88.19229634297955 78.96397088451974, 75.2471243752797 92.45033089716016, 67.11796292013636 98.24886092638953 M100.15348094542358 63.09242806108138 C92.33135439484248 71.81096763541035, 83.30980811490593 82.20823505547263, 68.51571921875302 99.39269411718861 M99.43406817446592 76.80319172258902 C93.60847820082267 82.01442842784604, 86.92473263991643 89.76921007598851, 80.05400872091829 100.434907063794 M99.24099853256526 74.78014433048797 C92.08193565312925 84.36096204313442, 83.28723046532535 94.40198623586251, 78.8043782274359 99.45819274179975 M98.60659660306706 87.6577194312244 C98.07449695225583 90.20165169283926, 93.00324213099438 96.05702223494528, 88.9315512260097 99.28737111662151 M100.46614659886114 87.20085071225016 C97.96902424326217 90.51388117609854, 95.41514500829938 92.81419661746331, 89.13153864467056 99.56597799449533" style="stroke: #000000; stroke-width: 1; fill: none;"/></pattern><pattern id="rough-8129044298858867" x="0" y="0" width="1" height="1" viewBox="0 0 100 100" patternUnits="objectBoundingBox"><path d="M6.898324231758423 -0.6675553084272636 C3.760563081733621 3.028227648417463, 3.251134266601492 5.391374587033537, -0.8560391184492455 6.804445624659524 M6.382967203252102 -0.2693453935671988 C4.755294127164659 1.9946949822343956, 3.6509994167717004 4.107881738543871, 0.19367818264542502 7.635777633153936 M16.998894117463834 1.7622839828932886 C14.964658562455142 3.550830143025218, 11.81313581397129 8.387780715421487, -0.5482261976085594 18.78236788145401 M17.03516215844335 -0.0005199299364075927 C13.779475494721266 4.357982954939413, 10.74047789536206 8.685411104771138, -0.25967425274215516 20.52122959667664 M26.008773687846574 0.44495756483120896 C22.55119747256472 8.874297262563584, 11.122314999926463 17.963822138646353, 1.4136603299700639 32.96324226378127 M27.974626837909007 -0.18418765785984492 C19.68801332152188 10.65152408976805, 8.593165458625691 20.53854675586671, -0.44139744171373474 32.496165002627095 M39.61033122214168 0.5208418137718267 C24.338377332662244 14.351846026299445, 13.149645597693555 30.250848967205098, 0.05096812581551369 43.69571552209782 M39.01776949144454 0.6697593578904457 C30.13928735925408 10.110371967703927, 21.519878329205245 19.60165555013282, 0.22264314593394197 44.792261215560806 M48.81522967490287 0.8346841072815376 C32.18312801804264 21.290900599264134, 13.368346544270594 40.85953008240225, 1.6065279099860952 56.39865423078778 M49.39387725770625 0.9200532060739497 C34.52743205337119 17.11372027617518, 19.112348066571748 35.371307165476196, 0.6604897851761447 55.63965138573489 M61.24129829734075 -1.5522566308402563 C40.80841643217601 23.993162318933788, 24.28996909481385 44.19870231902712, -0.8744696558592286 70.7321965666512 M60.42347026355061 -0.8008880831537732 C46.98666897380606 14.999909340458817, 32.97903518628281 31.518247156444595, -0.18633092756957703 69.36428103758601 M71.23887277342716 0.553732809743952 C51.567190098310924 19.7120367555002, 35.1269604777142 40.97849835942066, -1.5166618390514026 81.67465070762294 M70.57028596426773 -0.11383834782040747 C54.51733436759838 20.02158778229487, 37.26078601056234 38.96921002072065, 0.8489609884123701 80.7864288267726 M79.36284564113942 -0.6008619096285743 C52.44495401070576 32.5743259335757, 21.341044475218666 69.66692877373595, -1.874439007335738 91.27187875188923 M81.3918863483655 0.36066970685392574 C52.400712648590634 30.91007321097234, 25.12780244743204 61.28476530611055, 0.3669465895855488 93.7441189500069 M90.39938322728199 -0.6223676659331465 C61.415607541604196 35.91165290429305, 33.772568200675224 67.95193751731918, 4.608064886963196 98.50144434873114 M91.10236981225239 -0.8920591299631897 C57.880754345930804 37.535432199680095, 26.38953620149176 73.41620624065116, 3.855908068060356 99.01857304161764 M99.54346677712404 1.7715474325909204 C69.86152336119615 35.776303362859025, 44.39510669208246 67.93905170450772, 14.415929217836132 99.2333370470187 M99.60455578899557 2.9247743051135275 C74.73634617452177 32.844224189621535, 49.04272196291029 62.6501436633847, 14.691870252856319 100.08743235311869 M98.52803727439213 15.401679080068016 C81.93762368196725 34.21875281546445, 66.41667031374698 53.02256756199421, 26.507249343770944 100.79574415887113 M100.70325639119937 14.28997256188449 C72.7054297028601 44.21229711405101, 46.351582005172745 74.63118505626258, 26.13866104357575 100.94297988109145 M101.05996348018702 26.228336565097003 C84.34568079228859 45.37354125812502, 64.94831033767115 65.62520639759778, 35.02397441045323 99.87309447974626 M100.7843131936282 27.1969604806411 C76.74448982533208 55.44431804918728, 52.05227475117179 81.97905183502081, 36.90410115469779 99.8959670182005 M99.05416130286588 40.89874233110009 C87.41785035191363 50.53236665264172, 77.15777348678321 64.78647341268524, 46.65640884018966 101.62184771076909 M99.71748508017085 39.2453577914873 C82.62360711572592 58.91801776649283, 65.64841272193577 78.77890732899408, 46.36583595052236 99.1063914813396 M98.54432473871542 51.06238714652888 C85.78369313707266 67.37192966999146, 68.46568575681714 88.0500468792676, 59.492022577213675 100.06449866398086 M100.81686129601314 50.590645906162635 C90.31475387369086 61.627552001900106, 82.87643141223433 72.17113175735852, 57.52626426193496 100.45026768173234 M98.45923688721041 63.86871930401462 C88.16364520399722 77.85251179951052, 77.42519031641108 88.57536701123266, 69.83408956518784 101.63271061231481 M100.40418507146748 64.11741788501405 C91.70890375818138 74.05489264150324, 83.54691729995295 83.09436524760724, 69.1721497307472 100.61561198475864 M101.7634947570064 77.20048378085514 C90.39384813105714 84.13840784947803, 83.91474125642404 95.46536367374777, 78.02869738247435 101.30507483589713 M99.80320393682636 76.26945752375933 C95.86073092561283 80.9396747042349, 89.39454417580237 86.7943669535696, 79.76621686887604 99.28457366446713 M99.70941928369457 88.73561393145371 C95.73845624098858 93.11831756990637, 93.120111929927 96.77318146096411, 89.18455809161144 100.08372636275676 M100.2574530238901 88.21743876062911 C95.78744293838342 93.06832029316355, 91.55984165122617 97.74092696341322, 89.62138783623266 100.60462381750601" style="stroke: none; stroke-width: 1; fill: none;"/></pattern><pattern id="rough-4332087197230471" x="0" y="0" width="1" height="1" viewBox="0 0 100 100" patternUnits="objectBoundingBox"><path d="M7.371217731634431 0.8720354608942529 C5.830726798378171 1.101527892042741, 3.1410978522260375 3.6624570990240706, 0.09555891655077797 7.976866620910123 M6.777388382971577 0.15785108261225245 C5.694843750318988 1.9739095831060764, 3.5927072806233626 3.3548181582427428, -0.2072693685954768 8.177542152366602 M18.033836484380714 0.5692250297015109 C14.15817010816243 4.732395494990463, 9.425430515251318 6.9693911139032325, -0.32931933742470054 19.031278824990615 M18.02975845046839 -0.4912573147773691 C14.731814246001203 4.175710474317515, 9.628884150715749 7.826183630777974, 0.4129035019337719 20.7642059087746 M26.572841515368605 1.6668751300060451 C20.609832681539107 8.792304285582347, 11.24165261993371 21.87499802501223, 1.6662771931813571 31.16338854956505 M28.128164137522493 0.7858407465813713 C16.517555553109887 12.163197995085714, 5.5390188406267615 26.155606529227807, -0.35650024892905696 31.46134604743544 M36.81706577932169 0.32492098276133063 C30.07992805041601 9.44972911148571, 20.510906829280515 18.400102551332843, 0.728429717269643 45.46874014676993 M37.83161071687071 0.07955869391545534 C25.888179533919356 13.968332090425237, 13.410086570430625 27.969026300219532, -0.491335007417951 44.38722067291186 M49.356752346888676 -1.106860427597292 C29.304014852737502 21.33384224322362, 9.840993649023272 45.20684290789005, -1.2123980995008257 58.33050493621799 M49.14915009355572 0.19170575752892693 C36.87878063763327 14.701394037448967, 24.951327524917417 28.562189766555857, 0.5939365461137247 56.74398901441826 M58.54583684433246 1.0472200500897184 C38.554356876402636 23.95729403577046, 20.56729638141099 43.446778005086756, 1.873039302037066 69.80900358618543 M59.365460908940136 0.9169599226953697 C42.49487357833691 21.164991128242676, 23.441199940775412 41.4958808911506, 0.06066470565489945 68.55474165926556 M68.52808633938461 -1.858909974124285 C46.051144033862954 29.074224045063378, 22.565638283174483 55.70195702219005, 0.4643189467708604 80.74288961295305 M69.60579839690335 -0.9876595452893708 C47.67716089348202 24.687748357038483, 25.407078443019955 50.21722958354202, 0.8112810709274321 81.73864958623776 M79.96844788167984 -0.2977024189905757 C56.048216015583336 28.30090484862088, 28.310143550953825 59.40214936880643, 1.1725241743403778 94.22864546675555 M80.90205399602122 -0.2751877136210674 C53.47018954202905 31.623994990394447, 25.86672162317267 62.61013669091695, 0.24665015990951433 93.20580812017506 M92.04624064652825 0.18709905585390985 C56.01103278343388 36.83692101077369, 24.28115260569751 76.82041496197792, 5.38152843532913 98.28751137125936 M90.64792331840701 -0.4056417219621995 C67.93121750826906 28.062996110967873, 42.43802441636887 55.020987608222306, 4.8958967775666675 100.53663366407574 M99.02595366634995 1.8390712822612034 C70.60424768311984 34.02285305945568, 44.22530808840829 68.95038090429142, 14.642408608548493 99.66357128022109 M99.49262112125908 3.499129966823358 C81.6433732720429 25.216560758865278, 62.75081129466564 45.49148036431872, 14.719740882383135 100.32803412204989 M99.84541835315045 16.35508843312689 C79.45230961920788 38.86045564953866, 58.788850237622235 61.99146484327729, 27.280768665101345 98.59854611249725 M99.47188125154668 14.527754106007368 C75.93290589973554 43.84655654820099, 49.9940267285443 72.91796725627034, 26.686150097124155 100.67095425199935 M101.45746423456565 27.34120827235812 C84.40954671429058 43.11729698432819, 71.70674691535481 62.686351544368655, 34.542133957943584 99.32872879563729 M100.76880933127775 27.64605118199921 C79.12158651990377 53.31111722994936, 56.79029008569363 78.07802119737289, 36.81542118235802 99.80222589487916 M100.47182869116097 39.23090819288582 C91.05121608635956 52.17278127106916, 77.24951518224609 63.939005125783495, 47.862336303197104 101.4507674082976 M100.37134145892502 38.64946424011928 C88.38988947986249 53.72592059090687, 75.24249669846772 66.73711951442418, 47.515423289133096 100.51514353347417 M101.12834214093911 49.415261833646625 C84.37252717277578 69.43418009376387, 68.32878422659792 85.67992676231098, 57.515656112401835 100.22381675651776 M100.78766465166392 52.255734124508585 C87.52235477375125 64.26346557822637, 76.30490213390134 77.8198293098336, 58.000393040648675 100.7557037414869 M99.22684007087898 62.195112377359294 C86.89520990801756 77.00524109729106, 75.73638667095605 89.68601045394212, 67.97994873512839 99.53999370734078 M100.36285677015688 63.34954922053039 C92.7224461571626 72.5323400426758, 83.22299759635284 81.02942896859577, 68.75521358984923 99.59380052984208 M98.17902965186929 76.00373012136211 C90.83541895425566 83.74994870936284, 82.61161010064295 93.78293856083349, 77.37945423529733 100.1321529547391 M100.83897597373011 76.5567265425973 C94.27861068971504 80.5605538816926, 90.69019351018667 86.23693388190705, 79.14601171087713 100.92613048481337 M100.83128243830627 88.23314192682332 C96.71786142319178 92.2017970190053, 94.73338604066983 95.69877634322495, 88.32373045972801 101.10513020595438 M100.21203373003267 88.41468818499135 C97.09254758921882 92.30197982189563, 93.95785651052691 95.58916291572586, 88.71139703715464 99.71678103873208" style="stroke: #000000; stroke-width: 1; fill: none;"/></pattern></defs><defs/><g><g pointer-events="none"><path d="M97.23520385953974 34.19464729655591 C95.91094014465165 35.6522789239176, 94.72331288934778 36.775870242880146, 94.25527754607434 37.14304414621219 M97.0262958649941 33.97766053326415 C96.0120931737181 35.06463739046534, 94.9669201459479 36.532881009475865, 94.06613456795901 37.40387136104609 M108.6174856387144 34.224198906993955 C102.1302918613641 37.91817413161419, 96.81603049033201 43.87990477776867, 94.1385718440643 50.863652847337015 M107.37379593459173 33.166667988351385 C103.92462509939485 36.962329105489275, 102.15499110161055 40.864968345996985, 93.03222743251521 49.14700282397352 M119.65548863454491 35.327881573377965 C110.0904672328256 43.217319300176136, 102.28526309177806 52.288169568344294, 95.46833573458841 59.88829663826191 M118.19021943464766 33.398808249789944 C107.96712777425822 44.52943749900778, 100.20246297372798 55.64341768481096, 94.79435492549344 62.5116837416256 M129.7884582901733 32.81760381814234 C122.25143346555869 41.40621486097421, 111.662641764807 49.823854980612374, 93.04232197001858 73.96501131819186 M128.80039082583792 34.90300718629724 C118.13842027444895 48.24135062029238, 106.06814763826256 60.05833891244699, 94.38263213672228 74.8604792780741 M140.5588938817842 35.654837530177424 C129.24123792563242 48.43912544045686, 116.4534801373109 62.12622377181148, 93.00198856755813 85.0213720028624 M140.24536749255984 34.66670004885823 C124.83099012421683 49.51835453438411, 112.10894630898106 65.36764736312259, 93.86349455744165 85.81772443108173 M149.19746127250522 33.16870571357596 C135.60152583954635 52.625435885872484, 123.14682145240616 67.2478884381376, 97.1213688267069 92.05308491889674 M150.1440305503343 34.10775627177487 C137.61477587198382 48.28541943736904, 124.57378146688121 62.49305242633047, 97.5026208759746 93.90809736363451 M162.28703170281233 34.38153948370257 C146.24687221652195 49.05054499258075, 135.81510884157382 64.09300122961501, 109.78483485283999 94.6457829039828 M159.98220510990703 33.53225894280379 C145.14620941982005 52.8152442397914, 128.9383112698013 70.95595460599266, 107.80001940756229 94.16622404237732 M169.9077813204218 33.628310099150944 C156.41628561797015 50.39350757498844, 143.4414918611628 66.01635623321526, 119.74654030692106 94.0581064266621 M170.71534786720318 34.28885423382844 C152.41249677620718 55.43554512629374, 134.10314656561 77.6953317381686, 119.4723409906923 94.92573904904728 M183.15477613014568 32.883795167082944 C166.2838424297903 52.02513332165051, 154.93858678328596 65.00578485394541, 130.97814462566322 94.77668321764197 M181.4181650676309 34.44723547405545 C169.34340442209097 50.202954354341784, 155.65722233169126 63.8716203862864, 129.86233729475222 94.10228895172642 M191.20154179666235 35.924100107610926 C177.7328228527304 51.57709481967344, 162.38600994846368 69.93952833152012, 139.2992573817771 94.07019475742702 M192.4725705088315 34.135760702507866 C174.05617917877478 55.95071323325841, 155.7473206739513 76.51169581581128, 139.81673878642934 93.78587114014437 M201.02879584106444 34.62344069423246 C189.94390627618253 47.45018917631587, 174.40166622291454 65.88861687044508, 150.59452982650575 95.09290757738762 M203.5396497491439 33.797002499071624 C186.19348135089058 53.085690186649124, 167.12659622595524 74.46400370365521, 150.13093878706275 94.91545375001014 M214.22963626367707 32.287736850772916 C197.13493468958276 50.87839004380255, 181.34709033540008 70.11297914302024, 161.22216029119883 92.0792260980894 M212.94830892808488 34.09602637782741 C193.85539547584457 57.609593370980974, 173.04619411376098 80.38089187040991, 160.4520943282102 93.59240633136969 M214.26974515861784 47.12813482537958 C199.16750667904347 62.749890582115064, 181.4835935328429 82.35203058995356, 170.32073550102407 93.91123281729593 M214.9872167217259 46.327055905194456 C201.8852789819117 59.22892911454803, 191.4875826816404 71.59180167870389, 172.15751352929874 94.68663068396776 M215.72676419313743 57.012218591960064 C207.3191667180417 69.09622787499309, 199.83672911274255 76.68142493047904, 183.91454079999548 93.89171378883033 M213.48764633933652 58.15751284860364 C205.68823144169923 67.78571606030255, 195.98616227671306 77.17110863733356, 182.2863309299563 93.85959023743024 M214.57628243572066 70.89653234484868 C210.49801586300683 77.50241788189, 202.69621438648116 81.75411448528452, 194.13137179848334 95.35064687243197 M214.98408195862672 70.48222261981823 C207.02324052457777 78.3279873764782, 198.27051984494418 88.42011086416264, 193.6592127849469 94.1121994729256 M214.53400089385644 82.76167190162897 C210.4324472095749 87.78563349400048, 204.32338420536723 90.8943607593417, 202.46251200496604 93.38699820527282 M214.06758025908124 82.50558304323607 C210.36569313732713 86.68239337522652, 205.97734052976125 91.66129403659733, 204.5029933026302 94.24406408494056" style="stroke: none; stroke-width: 1; fill: none;"/><path d="M93.87236678821642 32.95395735302068 C140.81363919233718 33.51107891618744, 184.82104915861188 33.12105468960522, 215.66644544184805 35.49915304220737 M93.3748188575409 33.47128116021925 C120.09339764780225 35.34371418894483, 148.29316431412389 34.44453274002793, 214.6375019267189 33.23914893787203 M215.32119937018254 35.54889176724363 C215.50128856530316 49.88888354044126, 212.0248248578142 71.46767652292108, 213.98436665238887 92.01839234678191 M213.6893143089091 33.78634677626598 C213.19413728684287 50.36751204315773, 213.30149494510624 66.96808039926141, 214.04107158776566 93.58353223670562 M215.08096471225053 93.21591404216791 C179.41205513640503 96.00056472674167, 141.74032415095928 93.32792226500244, 94.45197950440763 95.80880048814234 M214.90087847866036 93.21064168889785 C166.34566679549533 94.56770354648663, 121.24698345934101 93.97984973937379, 94.2544314281712 94.59109122496855 M92.51715435406113 94.78984604139642 C94.36460783413958 79.19268183380743, 95.04016981722876 63.100150311820464, 95.28722573757591 33.96972170329655 M94.6889302384632 93.16470576953705 C93.14116288786298 81.16698625951403, 94.12503361064304 68.21605945777877, 94.24457171372384 33.003326046140934" style="stroke: #000000; stroke-width: 2; fill: none;"/></g><g transform="translate(96.5,43.5)"><text xmlns="http://www.w3.org/2000/svg" x="0" y="-3" style="font-size: 12px;font-family: Helvetica;" fill="rgb(0, 0, 0)"><tspan xmlns="http://www.w3.org/2000/svg" x="0" dx="0" dy="14" text-anchor="start"> other.html</tspan><tspan xmlns="http://www.w3.org/2000/svg" x="0" dx="0" dy="14" text-anchor="start"> lower/lower.html</tspan></text></g><g pointer-events="none"><path d="M96.84790453172796 154.19613927483996 C95.79626185517488 154.89813085274818, 94.64696592174722 156.6093964514922, 94.34193032603848 157.25945419943173 M97.03708819920621 154.18795948317725 C96.46081126897475 154.62638589451896, 95.80266065459668 155.2165003489408, 94.02502113448543 157.32588025259932 M106.03807112233537 152.8129838172102 C105.98835445936525 157.15298050568126, 101.82814056785661 162.6466667010308, 95.41262988192551 168.03607009627393 M107.06852507640171 154.35256043038046 C102.84576509410832 160.93135426320703, 97.39046614737295 166.3914197075703, 94.71218273474815 169.41124607658148 M116.73433870293184 152.3938425826206 C113.43200549226047 158.81271704413476, 107.90403542608533 166.6738992477259, 95.92988956944961 180.21523719132688 M118.30827635755936 154.57666495297462 C112.62873367525532 160.72435538233714, 107.43900778270584 166.3025380698228, 94.88988005943412 182.00428492970207 M127.47368845297893 154.37985741529988 C113.68829342540823 169.1665757280294, 102.35926583617635 183.28236014590976, 92.12295290701324 194.21816169631794 M129.2217748741837 153.00674903825208 C118.1279644821339 165.78891083421772, 108.14741624701503 177.14697007490366, 93.88721343225609 193.30411563826186 M138.86984078043474 153.402845168216 C124.94422571108417 173.79892737857745, 109.13659708962429 189.31370110186595, 93.22186417274828 204.6980746533874 M138.96239075892728 153.49370289962025 C122.88304905623191 173.50281657815893, 104.12169158123459 193.15416629799645, 93.54172970610954 205.28778547268635 M149.2641126304778 152.45012895288298 C133.53075621736735 172.5735381761446, 121.25860048043678 187.36272533154843, 99.30120825012165 214.68559604897672 M150.3832578627825 154.76512513091495 C138.1706992899707 166.28234791659804, 127.37354373655798 180.77658942858793, 98.25448259926726 214.81814603085402 M160.26220807466683 152.2460526939145 C146.5194978688459 170.7219620426667, 135.19887155342883 184.3940374293752, 108.52970086923125 213.9088333004492 M159.9815557857822 154.96146677929605 C148.25330092857334 167.905827679921, 133.7969955719261 184.29357640400184, 108.52851843174514 213.6276305949111 M170.63164067526768 155.1420479091873 C154.72248491137896 176.00121898592818, 136.03663811149323 192.1604054211272, 120.10982652827438 213.65448515353108 M170.19413548292178 154.19594395349887 C158.1635434996984 171.97069791991476, 143.04382774803193 187.4763900964372, 119.1626968772989 214.19772041187866 M181.7709745173047 153.77976040043208 C173.34756037911401 167.60227453431295, 160.32621950140168 179.35522513396106, 130.0605808537655 215.18437617289675 M181.668289561169 154.59410536510416 C167.74423591082802 170.33959521217216, 151.98939533217143 188.33515176586613, 129.09643323487495 213.03396270913316 M194.17738856167568 154.46661429248346 C175.7110732662049 172.57476895326914, 160.5109401554347 192.4204992537792, 141.15947824803365 213.79582290241643 M192.10144157505593 154.99204576124328 C172.49781303851842 176.73992276051658, 153.0901996482842 199.40896050907642, 140.10382292824187 213.6948303210585 M203.18973709127408 153.2191479501893 C188.65265992337052 168.9390624255196, 175.24301302004613 187.4273281339975, 149.7761826112399 213.6571149736487 M203.841750495899 153.0842034935896 C187.27664748817924 171.52447755721548, 173.30663542350243 189.40744849628697, 150.12580680759456 213.1602397791158 M212.5118986928074 154.8375948832517 C195.87065604534584 174.52459751706604, 179.36374232331482 193.52993932345, 161.1725635626646 213.6428099759742 M213.14840492434163 153.17257388148948 C203.0725406582615 168.00540899345145, 190.65355411424292 180.6230079608657, 161.67178778700298 213.86147252210299 M215.2449307201872 165.4464463337717 C199.450153073316 178.8317566162415, 186.9149942774121 195.15523488704562, 170.90541341853861 213.58595160565864 M214.10684437869338 165.31866253840246 C204.9795365704672 176.53061647855577, 194.0518250717671 189.0859542658678, 171.93131501117233 213.24019512127967 M213.89873442349526 177.0153410411361 C201.59889694093732 189.57370832322744, 189.9292871906964 205.11170987235585, 181.9385326037198 212.66778525356767 M213.7981132175188 177.8050229714273 C202.84697861911172 191.555570762565, 191.8458713252952 203.78520635578772, 183.33993426439918 214.55827521448307 M213.71764503346677 188.5856878081166 C208.07907132221615 193.87605371541306, 202.94425501024793 200.41857774459814, 191.50133606786852 212.09997137071846 M214.02811926217296 189.3796569917355 C208.0856747505943 197.00679888327852, 202.8225385438024 202.66937988973885, 193.28264362788067 214.34976941388192 M212.58343361131264 201.3548757560474 C209.27839306678786 205.16758990040165, 207.1263862913601 212.17837304078682, 204.2428827459277 215.29940359856133 M213.71661921216486 201.91383464197835 C212.54130734705308 204.59551179459348, 210.04427702410564 207.6720155646858, 203.36833591345814 213.38442458504306" style="stroke: none; stroke-width: 1; fill: none;"/><path d="M95.81368730394695 153.56021512994963 C136.73042601087207 154.4375640501893, 177.9882264800081 152.87773635383382, 215.88325334897846 153.34591441310798 M93.72644221780621 154.11813045918925 C137.27854608096382 152.78966870695507, 180.72075241773234 153.45817966199644, 213.31398043928317 154.6896070741928 M212.1402206855747 155.59655848032594 C211.95071463505536 171.114983343711, 213.81631933586334 187.75876624561135, 213.03250612623054 212.6265938993113 M214.88515812736378 154.61456112558056 C213.94903985839838 172.64265122722747, 214.0420588940165 192.35325225256514, 213.38712569750686 213.25718246286775 M212.35616181437638 213.01701446074688 C173.48164569566367 215.34313679541165, 133.24153011024757 214.0588017926325, 95.59736887207335 213.72425074132036 M213.28752367160953 213.85130220452476 C181.37576879209567 214.26170615162707, 146.81942022125733 214.2202621205202, 94.73247051748514 214.35265418802584 M94.58588294592293 214.9741259141369 C93.79554675088113 197.3129879046098, 94.75389673204285 181.92758176906142, 94.45536042670932 154.50225258044065 M93.33794398226088 213.0156774414917 C94.0286561462347 196.94965530843155, 93.39190669989614 181.23548650204336, 94.6276694908156 153.3270705673376" style="stroke: #000000; stroke-width: 2; fill: none;"/></g><g transform="translate(96.5,163.5)"><text xmlns="http://www.w3.org/2000/svg" x="0" y="-3" style="font-size: 12px;font-family: Helvetica;" fill="rgb(0, 0, 0)"><tspan xmlns="http://www.w3.org/2000/svg" x="0" dx="0" dy="14" text-anchor="start"> /index.html</tspan><tspan xmlns="http://www.w3.org/2000/svg" x="0" dx="0" dy="14" text-anchor="start"> ../other.html</tspan></text></g><g pointer-events="none"><path d="M317.0931763375482 34.20660007660046 C316.0448417965517 35.30846742709616, 314.52874999755477 36.60880045148591, 313.9377568988793 37.753822561215415 M316.7594770208398 34.22302281109583 C315.7736122408104 35.07273246473516, 314.75912071401785 36.13928076315661, 314.1122685898133 37.52295669879218 M327.9814579604903 32.07658013192949 C326.01752001766573 39.508212336850804, 318.8139167653923 42.36399435408151, 315.1018698868457 48.16750588297111 M328.28694147809824 33.71075788685734 C325.37849041160166 36.74715828224169, 320.8478674242723 40.72238828398077, 313.574424994162 48.75897085059037 M338.6425828626622 35.48035372629349 C330.5400132877268 45.55861305362492, 322.57001828159054 54.43519758904356, 312.7344117812314 62.108389410316036 M339.17688165021985 33.60110486172808 C331.1404868981164 41.478157928049946, 323.7359876215056 50.2947936400054, 313.1334590187942 62.31929384885517 M350.2927519304416 35.22337525332584 C341.0484012065739 45.889035874108735, 330.16415249930276 54.986725967327295, 315.3268758356918 74.73606003673882 M348.86880205842226 33.64331962981879 C335.5977202620796 49.737040827794196, 323.6598844023537 63.121762842538175, 314.6399720436249 74.52795856960266 M358.0652267754971 34.294346096766716 C342.0336492466238 52.262775552721465, 328.1349131948461 72.31730566711849, 312.2447519754303 84.4194463885638 M360.3128069891687 33.04674194608024 C342.2761855863723 51.71439586609095, 327.1600768830671 71.57082513781437, 313.5065354195094 85.33167637230724 M368.8470417268994 32.61520415646518 C352.0670343735218 57.270989760136494, 332.42370335124474 75.68012514068211, 317.11050038367586 93.32543281937205 M370.93797230931415 34.593626107093044 C357.30451319664684 48.582677685297256, 343.23726445469873 63.84044005491045, 317.14937104711515 94.14542998245818 M380.94750731606536 33.908511200488256 C363.59360744636945 51.399530708945214, 347.0417156692803 69.83529126801109, 326.5515979386141 92.3955486834928 M380.1330360972428 34.12973228330609 C364.201840560915 54.741489103485485, 345.8405637717708 73.51950375450843, 329.39040233167196 93.84178050566231 M390.8768667256369 34.34190161565586 C379.4151176333442 46.20988157132967, 369.94164553545284 61.30761787667659, 337.514949598518 92.15868595953465 M390.80209208108255 33.59376909612191 C378.15257252516795 48.87756851463323, 364.1053572184718 64.63810211029605, 338.667002360671 94.44946676585577 M400.3080689964516 35.85739346563312 C391.0536980357147 45.97032637300282, 376.82207604225596 61.93203985925181, 350.7456330755909 93.32928655651925 M402.48035103583976 34.52591593138143 C389.44734666375615 47.02815274541995, 378.5983137156296 62.641892691621244, 349.7930447071173 94.02662255989465 M412.12012606975503 33.05205795419586 C392.6892534717435 58.43686329234324, 371.0615215204008 82.83537060843592, 359.10528025354165 95.3658908909984 M412.52785597671976 33.521289517128125 C398.0099080036966 50.66834087196725, 381.6731684512778 67.02494587182653, 359.3066463569746 93.89592085583189 M424.77017404776075 35.047933146691754 C400.163470433135 55.86154886077396, 383.126991037558 81.21235349505048, 368.96790045601523 93.26198407363506 M422.0144533483522 34.8063544213196 C406.76943325104895 51.75414195021628, 391.1092705297088 71.14351691718683, 370.6524288880676 93.30094021808681 M433.3081209573604 33.69898677730298 C415.9912145998621 55.71320976829686, 395.7505458886528 78.0144218814868, 381.6578163426107 93.20304227266561 M434.0197854799689 33.0006723055819 C414.06028413099637 55.70262758633417, 395.18697858170316 79.3663038994267, 381.4072990715746 93.73622210286271 M433.74416905886676 44.8705775627476 C423.6853013833788 56.31498828300218, 415.86073604292585 69.46754781561765, 393.8703684713807 92.27960011955462 M433.0307222519206 46.110675465890985 C420.49163461924417 62.10838884842468, 406.27314383078937 78.44249245445512, 392.81187738355345 93.80819292778457 M433.3975640280559 57.636080868334815 C422.03688278917053 72.55685511901808, 410.8613849790118 86.38039461117882, 401.4937804539845 95.10548032396399 M434.906664330312 58.79966606531949 C424.7015054553898 67.84883623283766, 417.15176678584163 77.0522570198552, 403.52286368611857 94.23222427787191 M435.53481757302484 70.96990233375885 C426.80645387275996 77.14251347977077, 420.3068434693027 84.62411032486946, 413.23726952366803 94.21613763655229 M433.5772959769533 69.34463172189115 C426.57704738709083 78.63490634806774, 418.4814660285143 88.09643987589205, 412.76219370895194 94.79838079666035 M432.4876705176233 82.48183771715259 C431.4017482278356 85.39904834827993, 427.55868767495775 90.0913379884852, 425.37227819436646 93.83883534806908 M433.7226886662726 81.90209325750224 C431.6122963480496 85.85877890854394, 427.8716327429381 88.23016422360689, 423.1106063390755 93.58247915078027" style="stroke: none; stroke-width: 1; fill: none;"/><path d="M313.0652538251654 35.10947798852979 C340.2956117160138 34.7956666562709, 370.14376460978116 34.06457973450375, 435.3335792698573 34.26227474321966 M314.28049650498764 33.37091093250727 C357.7142612246262 34.513422499845944, 400.3974034642192 34.02070036478348, 434.346153208626 34.63638874890492 M434.50627238975943 33.17910622229549 C434.2271732446645 49.37022182928078, 433.20417306613894 61.59838608337242, 432.5882808562701 95.09508803867105 M434.53872932231997 34.60840503544991 C433.1959077051204 53.22497643369278, 433.81401390158373 72.22642336858947, 434.4527764458871 93.7193325189087 M435.1739980542252 94.06332948032347 C396.3447403276487 94.34413672559947, 363.36787278106874 92.6128379296914, 313.4457435911933 93.39823516855837 M433.66906610048596 94.79426537963988 C404.7494374178607 94.41944733227422, 372.77067605237437 95.81692502809429, 314.71956968456385 94.70139338374128 M312.51955377723846 95.73381670015026 C315.9572315740906 73.70973226785635, 314.4364027562043 50.82155459143971, 312.3127536175524 35.743738778822376 M313.1990386744903 93.70813076803682 C313.03448677870256 79.31858114584084, 313.0848042324284 64.79964946687242, 313.3398652853774 33.084411433078664" style="stroke: #000000; stroke-width: 2; fill: none;"/></g><g transform="translate(316.5,43.5)"><text xmlns="http://www.w3.org/2000/svg" x="0" y="-3" style="font-size: 12px;font-family: Helvetica;" fill="rgb(0, 0, 0)"><tspan xmlns="http://www.w3.org/2000/svg" x="0" dx="0" dy="14" text-anchor="start"> http://js4ds.org</tspan></text></g><g transform="translate(110.5,137.5)"><text xmlns="http://www.w3.org/2000/svg" x="43" y="-3" style="font-size: 12px;font-family: Helvetica;" fill="rgb(0, 0, 0)"><tspan xmlns="http://www.w3.org/2000/svg" x="43" dx="0" dy="14" text-anchor="middle">lower/lower.html</tspan></text></g><g transform="translate(347.5,17.5)"><text xmlns="http://www.w3.org/2000/svg" x="26.5" y="-3" style="font-size: 12px;font-family: Helvetica;" fill="rgb(0, 0, 0)"><tspan xmlns="http://www.w3.org/2000/svg" x="26.5" dx="0" dy="14" text-anchor="middle">other.html</tspan></text></g><g transform="translate(126.5,17.5)"><text xmlns="http://www.w3.org/2000/svg" x="27" y="-3" style="font-size: 12px;font-family: Helvetica;" fill="rgb(0, 0, 0)"><tspan xmlns="http://www.w3.org/2000/svg" x="27" dx="0" dy="14" text-anchor="middle">index.html</tspan></text></g><g stroke-miterlimit="10" pointer-events="none"><path d="M 214 49 L 307.63 49" style="stroke: none; stroke-width: 0; fill: url(#rough-6003297455745409);"/><path d="M213.77160373498518 49.25890057862882 M215.00268326090372 51.06011561519663 C235.11698335901846 49.97711169701093, 256.9120756758073 48.79828501143505, 307.6363075558972 50.89833988258101 M213.64524601643234 49.87452122571547 C239.88964141381487 49.79404536267099, 264.5688613662708 48.56238138771046, 306.68178841615264 49.77998040660582" style="stroke: #000000; stroke-width: 2; fill: none;"/></g><g stroke-miterlimit="10" pointer-events="none"><path d="M 312.88 49 L 305.88 52.5 L 307.63 49 L 305.88 45.5 Z" style="stroke: none; stroke-width: 0; fill: url(#rough-7270993196729339);"/><path d="M314.7007365454707 49.2104875604671 M315.63899459738576 50.09480561668931 C311.7118514932354 51.02655792079249, 308.5588048027878 50.82565928202539, 305.1358015810459 51.83045382803937 M314.244483122082 49.38294996407348 C312.08301978971787 49.85662311035628, 309.86117469559684 51.10392522539581, 305.8043702094933 52.51440656303305 M305.7210771847387 52.288447188550684 C306.3749100760973 51.483120795687086, 306.75396985300307 50.40112326106844, 308.01513011218105 48.931639264254066 M305.765940373039 52.69099032370248 C306.26265191344464 51.76202661660608, 306.7936997642366 50.87378508614666, 307.82143149876424 48.89052795859538 M307.2895709520822 49.17276920680607 C307.0766622358224 47.70091787474177, 306.86265406476343 46.82533908955461, 305.6302680720439 45.735139931199896 M307.6277829364061 49.11726532856893 C306.99903061158386 47.69769290767458, 306.3648948758608 46.54026898104451, 305.9436227453376 45.305628534516195 M305.84029564824255 45.61582061257416 C308.8985888664983 46.99162743112774, 312.5003925517944 48.86492779907841, 315.0202034480148 48.79287836764699 M305.57089736926974 45.314700455807 C308.3913149739909 46.76445335815739, 311.08905670073824 48.071728834847654, 314.27008293108474 49.45314711148819" style="stroke: #000000; stroke-width: 2; fill: none;"/></g><g stroke-miterlimit="10" pointer-events="none"><path d="M 214 79 Q 254 84 254 124 Q 254 164 220.32 168.21" style="stroke: none; stroke-width: 0; fill: url(#rough-1946811288700415);"/><path d="M215.69818495491157 79.66613535239328 M216.6508558534523 79.61439671081128 Q254.93014512496495 84.34534575829349, 253.8562739766341 123.01644207276219 M216.64544149320943 78.78218545390399 Q252.45294888463545 82.75595430744956, 255.19786729805014 124.84650927380072 M254.5417570983266 125.08687536934255 Q252.8108547916478 163.34729354967405, 220.09953812447452 167.40246864820992 M255.0641928435196 125.90749172260848 Q253.10276450003724 164.96764318887512, 221.68111043117793 168.01599145664605" style="stroke: #000000; stroke-width: 2; fill: none;"/></g><g stroke-miterlimit="10" pointer-events="none"><path d="M 215.11 168.86 L 221.62 164.52 L 220.32 168.21 L 222.49 171.47 Z" style="stroke: none; stroke-width: 0; fill: url(#rough-4263300688807167);"/><path d="M213.52891322435624 170.40825076278577 M214.3622452500872 170.56376632967041 C217.06729908058648 169.21057864947267, 219.6705586692935 166.29652442808805, 220.68870581936008 165.40773539848746 M213.56744090958605 170.54750703000155 C215.43108249155068 169.25294208346625, 217.8059440440427 167.56299578307974, 221.49901351737827 164.6010141231966 M221.32982690082727 164.8782867640517 C221.6595911519011 165.13787880399056, 221.4054196281346 165.76876143633606, 220.1809107031735 168.29348132261356 M221.61346787126288 164.54725453993478 C221.30417985646287 165.55557490251877, 221.08663733740593 166.2589213303865, 220.17047568278235 168.167651913388 M219.9554263000166 167.91332668136943 C220.50327236724394 168.99406668673413, 221.2365496945845 169.4738513799972, 222.615535879685 171.4512593231953 M220.2124673758011 168.064060727802 C220.76004529755707 168.92646435338025, 221.30656720888857 169.96880216149358, 222.50811112886785 171.47792087212275 M223.38024484862441 170.80865030063433 C218.78178015727454 171.86764794510034, 216.07400837502794 170.29192097008158, 213.23985781262786 170.06672528983782 M222.17116914032908 171.7672658030377 C220.4257724876513 171.51370118655782, 217.4034701604266 170.51077183307385, 213.85303244627744 170.44352483902202" style="stroke: #000000; stroke-width: 2; fill: none;"/></g><g stroke-miterlimit="10" pointer-events="none"><path d="M 94 169 Q 54 164 54 119 Q 54 74 87.82 65.54" style="stroke: none; stroke-width: 0; fill: url(#rough-5333591888367959);"/><path d="M92.99117378655116 169.40938852124205 M93.97965762793108 169.67284819810317 Q54.95322896536468 162.8207706182721, 54.91724283388489 119.16141023829876 M93.8262387585991 167.93635537591643 Q54.0463896568153 163.6047371599839, 53.54608337545727 118.82965406498217 M52.96883806290225 119.34984059858927 Q52.97999627570899 74.25115666400744, 86.67646159231558 65.98455307021345 M53.89640745466542 119.55946821851293 Q52.46022778912782 72.72810143406493, 88.06302568923249 65.12905449964691" style="stroke: #000000; stroke-width: 2; fill: none;"/></g><g stroke-miterlimit="10" pointer-events="none"><path d="M 92.92 64.27 L 86.97 69.36 L 87.82 65.54 L 85.28 62.57 Z" style="stroke: none; stroke-width: 0; fill: url(#rough-1117195267358225);"/><path d="M92.80926494533595 65.7144290942245 M92.60839761622684 65.58908025880247 C91.845068897125 66.90899620117133, 90.05669084908065 67.00487344632717, 86.84945785262516 69.74873808565086 M92.66655513021993 65.77312554714149 C91.33155513101232 66.87019477558867, 89.1106584992776 67.80322599191932, 86.90845009079113 69.26338379310396 M86.8006144240949 69.32307474499449 C87.07455099392047 68.26796475106644, 87.78859685847036 67.01643550155666, 88.1481517252154 65.30486086894112 M86.79281554323593 69.38705332955749 C87.08036530707939 68.16469458584473, 87.52545932516708 66.83484486843953, 88.00709736454847 65.66018472213908 M87.89197979529855 65.74454953384864 C87.21959559642518 64.73512043014975, 85.72126403438317 63.23770856494315, 85.49237760483203 62.75468262637241 M87.79689493054238 65.49285021491873 C87.20688806495596 64.88935595933587, 86.50863378691349 64.06320877415413, 85.45670555292658 62.48640190206735 M85.29029054726065 63.34777394669343 C87.35766725661321 63.25930620533092, 90.27159065140656 65.62692166864156, 92.23799008739637 66.41588921249354 M85.07560715021926 62.33177120799971 C87.77853509893045 63.52602149801958, 89.37306308414094 64.77416768773827, 93.0368033551851 65.90224424832603" style="stroke: #000000; stroke-width: 2; fill: none;"/></g><g stroke-miterlimit="10" pointer-events="none"><path d="M 214 199 Q 284 204 279 139 Q 274 74 307.68 78.21" style="stroke: none; stroke-width: 0; fill: url(#rough-7384064284000689);"/><path d="M212.82830801890958 200.11302710907043 M212.21185393744537 199.21555220131447 Q283.97816324813925 203.3102304971748, 277.90397961710295 139.0270733911921 M213.30310939227257 201.23830408582373 Q282.62525379032576 203.7909052129113, 278.75757409551403 140.14386482303672 M279.6359549128061 139.92156763496715 Q272.9927440409297 73.98939485001156, 308.12707035661344 77.06915859408409 M277.48217847641257 138.56984360986866 Q272.78084654440914 72.9564281593258, 308.6834053565735 76.97181263496665" style="stroke: #000000; stroke-width: 2; fill: none;"/></g><g stroke-miterlimit="10" pointer-events="none"><path d="M 312.89 78.86 L 305.51 81.47 L 307.68 78.21 L 306.38 74.52 Z" style="stroke: none; stroke-width: 0; fill: url(#rough-4800825885435513);"/><path d="M313.85932442860644 79.98549073712215 M314.55943988322014 80.34628517171923 C310.599114379223 80.60583786935081, 307.6495975645782 81.67687777165159, 305.54508146702864 81.46774463772182 M313.73783860694687 80.07092069584988 C312.14750919385295 80.63270021044245, 310.22063588378654 80.90229670838471, 305.09953977713235 81.7664903544594 M305.87723851008155 81.65129259099875 C306.49747946824215 80.17984846770679, 306.8329971507046 79.86616248054634, 307.32450587865964 78.10438396095114 M305.3831279781936 81.56240088566118 C305.9178969607299 80.82635934551799, 306.52529103159094 80.23766875575124, 307.6428005520991 78.3143857922805 M307.57849738231835 78.43471302399078 C306.95375976397764 76.98316348271975, 306.72875100337683 75.71921655179678, 306.11768366033266 74.70953495139426 M307.48860328192967 78.30146370123636 C307.2451640630701 77.50931085852764, 307.04571328782276 76.35611082822462, 306.2438843002418 74.55617869195531 M306.45042456308596 74.70658982498351 C309.90863411431303 77.12119036093056, 312.27264604506433 78.25256766335494, 313.7370912199301 79.71019179779721 M306.09076109359546 74.18939437325432 C308.75794470377326 76.01513807464117, 310.80276455915947 77.26073740919603, 313.7409158670681 79.91531000881253" style="stroke: #000000; stroke-width: 2; fill: none;"/></g><g transform="translate(5.5,100.5)"><text xmlns="http://www.w3.org/2000/svg" x="23" y="-3" style="font-size: 12px;font-family: Helvetica;" fill="rgb(0, 0, 0)"><tspan xmlns="http://www.w3.org/2000/svg" x="23" dx="0" dy="14" text-anchor="middle">absolute</tspan><tspan xmlns="http://www.w3.org/2000/svg" x="23" dx="0" dy="14" text-anchor="middle">link</tspan></text></g><g transform="translate(294.5,140.5)"><text xmlns="http://www.w3.org/2000/svg" x="19" y="-3" style="font-size: 12px;font-family: Helvetica;" fill="rgb(0, 0, 0)"><tspan xmlns="http://www.w3.org/2000/svg" x="19" dx="0" dy="14" text-anchor="middle">relative</tspan><tspan xmlns="http://www.w3.org/2000/svg" x="19" dx="0" dy="14" text-anchor="middle">links</tspan></text></g><g transform="translate(244.5,10.5)"><text xmlns="http://www.w3.org/2000/svg" x="19" y="-3" style="font-size: 12px;font-family: Helvetica;" fill="rgb(0, 0, 0)"><tspan xmlns="http://www.w3.org/2000/svg" x="19" dx="0" dy="14" text-anchor="middle">relative</tspan><tspan xmlns="http://www.w3.org/2000/svg" x="19" dx="0" dy="14" text-anchor="middle">link</tspan></text></g><g stroke-miterlimit="10" pointer-events="none"><path d="M 434 49 L 487.63 49" style="stroke: none; stroke-width: 0; fill: url(#rough-8129044298858867);"/><path d="M432.44925577749046 49.941352602403086 M434.3270673611031 48.24490890653263 C447.72381403566203 51.92682854969529, 462.0622975394751 50.668356900455834, 487.0221525896284 50.6265736747587 M432.5656892267932 49.58235912180104 C449.34128304364134 50.23556577614123, 463.7983528756616 49.776664017783865, 486.882008964432 49.00629567317546" style="stroke: #000000; stroke-width: 2; fill: none;"/></g><g stroke-miterlimit="10" pointer-events="none"><path d="M 492.88 49 L 485.88 52.5 L 487.63 49 L 485.88 45.5 Z" style="stroke: none; stroke-width: 0; fill: url(#rough-4332087197230471);"/><path d="M492.8854694226101 49.15345317037947 M493.28572558269974 48.54966193918178 C490.18346740499277 50.10141916361618, 488.8227365759093 51.19790465829671, 486.0850551606325 52.17237397489983 M492.90471132848717 49.49452877960733 C490.40873502272615 50.38083025419601, 487.0738349149286 51.45392477427161, 485.609264864083 52.69941664926547 M485.61304075969247 52.57535609335706 C486.3761884365423 51.225452805403286, 486.81200185985335 49.939240178461134, 487.51356004176 48.988226494483484 M485.9704084217394 52.62949853946817 C486.342275161167 51.37818624174191, 486.87056282510804 50.5025286924943, 487.5252819484272 49.04044218539955 M487.46884266830153 49.227728723686134 C486.85152843166446 47.73158873987276, 486.69415234827056 46.7872188096878, 485.7240575239098 45.40905701075632 M487.58767951083627 49.0036687771442 C487.37763681243547 48.226596412373716, 486.79312503788225 47.004339916065504, 486.0335197966964 45.582460524577975 M485.2538973254446 45.85142323588229 C487.4093779005063 46.0830080566663, 488.82692142016094 46.468132080644345, 492.4840903576029 48.660189036791586 M486.15265864926425 45.74705501730219 C487.647528705288 46.7064978599667, 489.26515321980435 47.5506225581608, 493.1771319345086 49.41179927299427" style="stroke: #000000; stroke-width: 2; fill: none;"/></g><g transform="translate(447.5,10.5)"><text xmlns="http://www.w3.org/2000/svg" x="21" y="-3" style="font-size: 12px;font-family: Helvetica;" fill="rgb(0, 0, 0)"><tspan xmlns="http://www.w3.org/2000/svg" x="21" dx="0" dy="14" text-anchor="middle">external</tspan><tspan xmlns="http://www.w3.org/2000/svg" x="21" dx="0" dy="14" text-anchor="middle">link</tspan></text></g></g></svg>