<svg xmlns="http://www.w3.org/2000/svg" xlink="http://www.w3.org/1999/xlink" version="1.1" width="517px" height="209px" viewBox="-0.5 -0.5 517 209"><defs><pattern id="rough-3322995940444031" x="0" y="0" width="1" height="1" viewBox="0 0 100 100" patternUnits="objectBoundingBox"><path d="M6.4503599458804945 -0.15637044059493643 C5.686019867511823 1.8852072256824246, 3.391599458289813 4.8074659108904685, 0.651222220383199 7.891873453545367 M7.210736106109442 0.0599995667754647 C5.125850931388789 1.7777525449206828, 3.6039435949565553 3.7185571843703173, 0.21985452736606237 7.505147805522198 M16.566034955597946 1.035839512078896 C11.51210290007748 2.3543561933302657, 9.242605632493909 8.61525921175829, -1.3663530936707744 19.8354559010684 M16.72525358037949 -0.3783001099762453 C13.061116800315956 6.090494450192276, 8.036542555484301 11.574463244734071, 0.834823178935078 19.579375305064758 M29.68089264194381 0.28473509311533984 C21.18377539407455 9.19089339982926, 17.572257442676428 13.413932310039367, 1.2683903919994188 32.112150412956964 M28.205635661120674 0.13140401824558534 C21.92174512756862 8.855718095140988, 13.667508471547041 16.498870769963684, -0.16019107628352547 32.22351055052958 M37.09669967283977 1.6423416827968884 C25.662567145412392 13.616429722884526, 13.581880314635121 29.929406199176388, -0.5231221342273447 45.63620716979189 M37.96530758668 0.41730055239275154 C24.18057071271114 17.081323418007567, 8.912361927179457 35.60139978845127, 0.5222412060073598 44.00236752549698 M47.217221803686975 -1.2938195553698266 C30.77946143596989 17.87642060023299, 17.450587685406663 38.10718159448341, -0.2977341672033873 54.959120856910666 M48.40138135594769 -0.8458125092288209 C31.815039615017398 22.55562249439572, 12.691772740090512 42.790948027437594, 0.9976298462570887 56.19118579208212 M59.40233963725928 1.6482410906437641 C37.99589896507766 23.107203796543356, 18.867049947416625 45.99327251355085, -0.3621192996685858 70.40105351549846 M58.85895723826955 0.19680033960654164 C39.638376644718306 24.24666642543677, 18.582863547337816 46.89941772024281, 0.8621997076696473 67.94202665464863 M69.70896848764188 0.7482682591245675 C50.37078221397792 24.541182519155903, 30.901501153932255 45.222736467242996, -1.3089320117091932 79.61783653672627 M69.52542083296932 -0.6786977951364448 C51.790908382785936 19.720864859402525, 35.53047941699073 39.324235690202265, 0.9864310380322063 81.44518026816121 M79.98086490942786 1.6609661096061537 C52.65451000721477 33.11603648710539, 26.063412267105296 62.32580003713868, 1.9245286268034443 93.52305460491814 M80.56048059323481 -0.6067604281957282 C51.95806170142851 34.78524396768898, 22.74878502765858 67.93794141977845, -0.6446701804557322 92.8609148119393 M91.9996096391343 0.5202497425658308 C64.65693922684204 29.742529308624654, 37.931733882200604 61.094131841898935, 5.38863632604823 101.66405781541566 M90.72180077622461 -0.16982830771504487 C65.43210965227418 28.564904333799593, 41.11481559095036 58.919893046583276, 4.418866349942373 99.83446429283856 M98.04016691874128 2.2257288658530285 C80.82081924199359 23.752408158867837, 62.168703872763494 49.92831564908084, 14.243300831586907 99.99604667548597 M100.5085722189299 1.544622527889953 C67.4125790557684 38.82485271485737, 37.216769060831865 73.78587390789502, 16.208423233471873 100.28072902183413 M99.40812662693851 15.12871673881238 C82.15912311869643 32.54049969820884, 69.28147587577081 49.047387822733725, 26.167995608691577 100.24238711993526 M100.36664616659041 14.898381321431337 C71.94488288884146 45.81955355941666, 45.225229826205435 76.31115410828262, 26.859225787704805 100.25734639665079 M101.1422274443978 28.444069991286675 C81.63438332318539 49.41331213769715, 61.51242657924233 68.23251008558907, 35.186458046036954 101.74745481892583 M99.55823819496034 26.09429847082486 C85.16321644362515 40.862897057462966, 73.52793903466562 57.61585568694294, 36.45608420943822 100.38089870584744 M99.42797347310142 39.95285193601327 C84.7976038743272 57.43188361011884, 71.84298494160545 72.64619196561164, 45.94673728388754 101.46434939914438 M100.11631581870253 39.9053588962639 C78.54334122877283 62.24021882610359, 59.06956456523063 87.83998804344328, 46.847425794024225 99.6511719093067 M98.19464608090469 50.273349047498264 C90.25381998137755 62.7947272533712, 79.92136666418088 71.05701533114028, 56.42073283308604 101.92275005022583 M100.44484918094385 50.452349131346544 C86.614709818814 67.04053792208869, 74.040782788308 81.51609078281706, 56.89997156818103 100.39999242509309 M101.82567642856134 63.5821689524127 C88.22552560140707 76.27474103653658, 78.96740780834995 87.93709118131919, 70.03687930436823 101.15963783626249 M100.04286304758483 62.981593492298046 C89.31822463231622 77.1091363606369, 76.2914071530509 88.93270834447205, 68.5457114878918 100.74419700937719 M100.43175890695841 74.01294874528455 C94.2130429436537 81.57046743413116, 90.68875620826816 89.68277123369839, 78.02786865257245 101.72209639259891 M99.25825565034336 75.21524322455411 C93.69182812125061 80.92336206961403, 88.89145822096216 88.59278599468027, 78.10306529937819 100.46280057813055 M98.46108458146337 86.5547289074612 C96.12556045661418 90.7535926470914, 94.8583914224178 93.27202533855957, 88.72069405719131 100.30723117199932 M99.32797656376208 88.40235176251505 C95.86312879758249 92.93168421852396, 92.60967915342928 96.13089008680424, 89.51341778975643 100.25216275065931" style="stroke: none; stroke-width: 1; fill: none;"/></pattern><pattern id="rough-7757977527178045" x="0" y="0" width="1" height="1" viewBox="0 0 100 100" patternUnits="objectBoundingBox"><path d="M7.78267055085626 -0.9588458042239629 C4.12676399021352 3.1034110070216574, 0.6753581428529307 4.789984068523033, -1.0193067984260162 8.35508034373895 M6.577563561698587 -0.3326911266194337 C4.452034988435281 2.9417644403905463, 0.958123286719243 5.82135352187318, -0.30384698874891913 7.376028108781082 M18.138136005341565 -0.5851710865956727 C11.627431021474123 6.630142076336361, 2.913833126932418 13.905784892150649, 1.3812345500952299 20.474216091650504 M17.07123417886029 -0.8318545751938 C12.475003010189365 4.062372144907508, 8.213915529221353 10.800711274422813, -0.7142972761807544 19.517396318130096 M27.205422962944887 0.7011263153297653 C19.06041058651856 12.833409864398217, 6.117595439328019 21.14551394110941, -0.6048608234114781 32.45599449226095 M27.75307691105794 -0.9488840873852178 C18.382692076463012 10.126144221797194, 10.78067089959384 19.222311652368628, -0.07563589649897384 32.8816305411383 M38.555400024533725 -0.7826287408331769 C25.554784575976996 18.40947744196125, 10.29251746394844 33.803765918770274, 0.010256792695079398 45.24139323723055 M39.253976049709756 0.05152138005034956 C23.943827962194167 15.560282904011226, 10.562675040695005 32.64927248566446, 0.12379518315060034 44.81975572433093 M47.482477722438134 1.796197045004619 C37.535569207727406 13.51783756773461, 25.512628655633968 25.21231554577868, 0.06866570267310035 57.70082459189126 M49.693514340571866 0.2955219651099852 C37.93106533655105 13.22390274115055, 25.134664165478743 28.216111130267297, 0.43894405876126763 56.116665560039706 M60.21477598080015 -1.3151572503075277 C41.0894247249033 19.46194507482404, 25.124665565972784 40.884085746917805, 1.9641039953498014 66.98414203390655 M59.9803383643599 0.4521976950634117 C46.23931180516592 15.047878004415583, 34.7847640061401 28.93511646289955, -0.8222280956440491 68.18719348739299 M69.9756597016594 -1.8280802225180803 C43.32665753619719 29.075562581350475, 19.106620857969933 59.412722899859766, 0.019627290474995007 80.49221828175571 M70.60055569430834 0.6309866695288271 C44.8383739904949 30.005191291929115, 19.518749982303156 59.666196022848034, 0.12531240942438648 80.87493628235502 M80.5433683622439 -0.9624008083201803 C55.539301652389895 28.27938940496862, 26.581923699591876 58.702870006756235, -0.4636449975879451 92.94783460514095 M81.57418424770917 -0.05491967981495849 C54.853131097332515 30.116348124745176, 28.417830824811396 59.192381455697834, -0.9192470147328007 92.43276596167702 M90.99805337310583 -0.8515325165454399 C69.51789892253407 26.10887862648713, 42.90944461574114 53.571758798963614, 3.196384398665937 98.06723742183107 M91.34166078509448 -0.4633519869458711 C61.44919329553755 34.75932870938078, 30.96278352460518 70.12126429388668, 4.933746881235209 100.91452316041 M101.17062420581985 2.2376421592437525 C72.88484857930408 33.309213922187375, 48.28198885984339 63.9741273726454, 15.7686299471998 101.05640271435757 M99.2590126057716 2.1891435925798337 C66.49259597424638 40.420632753552354, 33.961573867388026 78.66651583222308, 15.41114938799911 100.31594237261272 M101.64895473151594 16.293850679258004 C76.7064859778399 41.33801588409257, 50.983620657493724 72.88261464485005, 26.62374307465597 99.98261366725556 M100.63670929773677 14.531715114425321 C77.20493068185557 41.07285542344117, 54.116662568996524 66.93179381479797, 25.808706977209642 100.65485109087099 M101.32263224966829 25.896116539554026 C79.89203201311994 51.045287232209134, 59.541345353741264 74.50634482191626, 35.486540697276425 100.2527758630479 M99.16699223999476 27.51970879364918 C84.83546776100219 43.32389961141661, 70.3913520371519 59.85017874331403, 37.24573883559137 99.26960995485805 M99.67522122756235 39.97367255776957 C87.41743112613855 52.46973408203573, 74.22210618701965 69.3895579263015, 48.9696215224164 100.16380768461705 M99.11641250133727 38.666167655260736 C80.23821496833301 61.81830319967202, 61.35847415432264 84.72656565253172, 47.91889564075745 99.70411724136001 M98.81455088443275 49.362492699191094 C84.50586769134715 68.93623368803966, 65.07212995640671 87.85777335998026, 56.62803036311616 100.60967758058953 M99.97819866595948 50.6837547811499 C85.59864809422977 67.81873139593678, 71.13839039622081 84.02688877741095, 58.47608124144141 99.21908327612259 M101.97996283232494 63.593059099972656 C93.18345153209167 71.03903508651554, 85.45192617297587 78.25439894795728, 69.88185849399352 99.69946274316607 M99.47965216348663 63.7483260099481 C89.09498605933736 76.4044913064898, 76.09340757652568 90.16437644953466, 67.33454132702829 100.53352104761323 M101.50020637405777 76.15687356698443 C94.47437805053974 81.26271178933631, 89.6927795199479 84.25816909481446, 77.65410122604133 99.22556892771078 M100.34122126300817 75.98320160443899 C94.86621172277583 81.79952556265782, 89.16504091985072 88.3670745779801, 78.96969531490667 99.45022090640174 M100.77894006056998 88.41626071786033 C98.09119595015137 91.91535434329622, 94.8923882065054 93.64169120898899, 88.4991452541138 100.80251208644967 M100.36213681481865 87.11517099971834 C95.40550659045125 92.29415128076064, 92.594746857324 96.88552268429937, 89.6177260289924 99.86188022972806" style="stroke: #000000; stroke-width: 1; fill: none;"/></pattern><pattern id="rough-8882860662159571" x="0" y="0" width="1" height="1" viewBox="0 0 100 100" patternUnits="objectBoundingBox"><path d="M6.0245172656461445 0.3190148283247205 C4.085418804096982 3.692896748358995, 1.5002478891018507 6.299747625075268, -0.27471517222740804 8.27508139039967 M6.586998850521778 -0.13156327975350762 C5.475574981365046 1.1881784402202218, 4.130119568079282 2.7670784569993003, 0.30754419617891715 7.602468909394192 M17.659140255687337 -1.8654648406585537 C12.349768065059333 6.375615935364373, 5.175757878157729 13.839925597054165, 1.302396107663518 18.359229393624013 M17.393694695906866 0.5901726033867121 C11.874726518844076 7.308250496652223, 5.36116688279354 14.48265405889845, 0.6839542522783426 20.921521835879087 M26.431255153248525 -0.48805103093121627 C22.141454737356593 6.513638075054733, 13.45743219316395 14.856635657248788, -0.34097303261046275 32.84960024758276 M28.27006124418565 0.7942284133118309 C22.173100484009137 7.863294726334534, 15.088302586540664 13.617982878914312, 0.044759105733040094 32.9095646482207 M40.336408845758186 -1.6882120173754789 C27.660579898401163 9.917354986267114, 19.388413570596605 22.077976633895442, 0.26148208652429705 43.10320737545382 M38.885940899914814 0.467207472792901 C27.33316509514314 12.853576087329696, 16.46539139388307 25.05069482960871, -0.2873303651437169 43.49261712320491 M48.9493620533525 -1.847186890206479 C37.570282011805865 15.73727676370359, 22.189997420933445 28.90991865403371, 1.4748732166146272 55.90156186046005 M49.76741290817117 0.6288518985681009 C34.46142780532243 16.60054102638022, 20.39885662700422 33.987028864767396, -0.19750153454863817 55.985329832294944 M58.49388988351164 1.708496215580655 C39.886971616236984 24.325518667898404, 18.45282194516338 48.14728407152432, 0.9297438442090185 67.38834695129346 M60.1476438906339 -0.8293698130540137 C40.292278386116784 22.44202739068073, 21.618059751001216 43.90264334663014, -0.7694106319185892 67.98042421307336 M70.47392392536155 1.0725113091314693 C54.013907591460594 18.176178257757627, 36.873554635452315 37.65121085716783, -1.0257442401866346 80.44189722754513 M70.27961714511834 -0.5391828349152443 C49.099932460592775 24.653735640869066, 28.691751842834677 49.94260106968724, -0.3215151579534874 80.24806944789927 M82.42605172602336 1.848635839106782 C61.99713653239933 21.442855488836038, 42.48882764452161 43.94796587803738, -1.5337799948524076 93.05839805683854 M81.16633688462565 -0.7380415748031433 C64.28062127014853 18.851126366072624, 47.709758674256776 38.70332782476032, -0.6082082113022427 93.1178518360876 M91.95670809739313 -0.21113897516619673 C69.99465014443611 24.476267782172073, 51.20777799061798 49.3011822570005, 5.074063281272154 101.38157859694287 M90.78876791702147 -0.10603737062954055 C72.8818807297696 20.2136519683483, 55.321170268421724 40.901466568443794, 4.37039816284903 100.18063797611944 M101.50522961614152 3.722653423646393 C67.23615887527467 38.923822596026916, 36.426449744199196 72.12082678380844, 14.554901324773688 101.35640707944201 M99.66465549945372 2.1085967499191987 C78.19133570418235 27.197828207328094, 56.92597325509124 51.712403373049796, 15.353472578328734 99.61835959092083 M98.32608771812762 15.378282618324075 C76.79890587241528 38.6339251165054, 55.699854891202605 67.51445400950433, 26.65723155747942 99.47393824298416 M99.48507663605757 15.7114566829954 C69.88128669093985 49.12586104463701, 40.93354845505848 82.73678235077712, 25.648310821470687 99.68823108055092 M100.37838672744972 25.11343473411676 C86.62343872334652 44.98789983124708, 69.6990932115695 58.46336561521669, 37.920493336140176 101.2847699927965 M99.21297585790259 26.15309803718348 C76.61168975622235 54.10625068905727, 52.79644207539595 80.07285200998516, 37.20759573479894 99.93331762649309 M100.01546220388555 39.167821636167005 C81.67573545539439 58.503068190134016, 64.87769445448863 80.08196095444033, 48.39573301962572 99.26389243913768 M100.82871947147352 39.311990822094295 C89.19125638757451 50.91032205982271, 79.30949999956687 64.20183573742746, 47.62206153443945 100.10053596008336 M101.52105723624561 52.013160535034096 C85.28656867892914 65.7602170084329, 73.06397575527052 79.51455126219, 55.80575938165462 99.48613661403742 M99.44724575178357 50.81277189692338 C82.89444341641287 70.91456117684349, 66.42345718188308 90.36622055627512, 57.17050218085919 99.21581804232244 M100.6719167245121 62.90461445533245 C89.37480695822704 77.18482958022777, 81.40442929860144 88.98184298346808, 68.73567783101716 99.88066976077664 M100.7210653770614 63.88945989659496 C90.17633543419784 76.67145191949942, 79.76475416121642 88.1634810352914, 68.9872631003223 99.19798728442252 M101.77643914021533 74.17602218743048 C93.91249640397247 83.57728078806413, 87.207256296419 87.64147672316395, 78.5314571145767 98.15056312246733 M100.45885379282947 75.69906286949343 C92.13815756493457 84.50158504619152, 84.28869850871975 93.77279665028554, 78.42374890836922 100.3099486070562 M101.36504643579609 87.85199515006298 C95.77365524512905 93.24987739551449, 91.04588783933804 95.40150200574601, 88.54510264637813 100.18616479456338 M100.45644752220319 87.89571554052719 C96.64782619443453 91.23695726902521, 93.14126650470273 95.25923985349154, 90.20127654621189 100.57817593138495" style="stroke: none; stroke-width: 1; fill: none;"/></pattern><pattern id="rough-8348893412856519" x="0" y="0" width="1" height="1" viewBox="0 0 100 100" patternUnits="objectBoundingBox"><path d="M7.772643373669425 0.6281095618616259 C5.400620629476792 3.307829510789228, 1.348309707886684 5.382807153387593, 0.7086585196642357 7.4973218267095305 M6.8590469060721455 0.003319472387916078 C4.89187646788134 2.740697631544169, 3.1031397753024206 4.529006399368446, -0.2643103540237 8.206999523774465 M15.599169952368714 0.9435682464617408 C11.971393096706443 4.814469849862893, 6.665690176377173 12.422769841475889, 1.3598200448764297 18.05862869362858 M17.663364560547397 -0.4645474374520431 C10.39466180070954 7.780682717620553, 3.9611105251820122 15.88565448153596, 0.07788117123992011 19.288390443730723 M28.84559084280899 -1.447585235435458 C22.117595722003788 5.515441158312253, 16.503457255862592 13.329194841092473, -1.1297198653464502 32.54477029599597 M27.609892253747606 0.7224508078633383 C21.55680245342189 8.292971986857767, 14.543681864177476 16.707866263231903, -0.7192177845408638 32.71951911560462 M36.79739587922982 0.5644314632446505 C25.831387432822346 16.952565804251556, 12.119281888078234 30.047729966295865, -1.2036351082423709 45.5752862849108 M38.70191519243904 0.6204147943284881 C29.375325571259754 12.06440927991112, 18.68209030216326 22.097496934916535, -0.13524339427665577 44.51636170755438 M50.860671707265595 0.07219668695497639 C35.824405944428165 16.7808622125701, 16.42180705660049 36.023693632317816, 0.9843467437395734 57.79236527558137 M48.83995188704475 0.13137149756304112 C31.057208872771575 20.680244832594845, 13.168120349002493 41.313348356436826, 0.7146124181512188 55.840178087752825 M59.8454831764084 -0.1859570614984305 C45.11904313462736 20.301899081065827, 24.632157430558443 38.95293661490688, -1.7217325441873497 69.00307373867028 M59.376932849870585 0.1492410328728413 C44.23110685047154 18.399568834412488, 28.32179035596073 37.134627946844965, 0.9747939538382915 68.82060928767541 M71.56560136290204 0.9530487301396802 C46.772364001920835 27.158002591892963, 22.933170594214495 53.59628426266579, 1.9256007757230336 81.23846762022093 M69.40618637536919 0.9004564589429025 C54.43647534566619 17.477893301944803, 40.33354873417231 34.802305547777415, -0.7938242114482792 81.8049955940304 M80.87696737782807 -1.7870233798276969 C50.932116882132235 30.734657988895833, 23.910734152907388 67.07198373196337, -0.37103793741484825 92.11725388249542 M80.59909034157586 0.4796493086697309 C55.155143787596124 30.472596976289623, 29.310206255716757 60.06982658202564, -0.7268573537717447 92.76327325062738 M90.6603188438997 -1.305766669719688 C59.60384934061847 39.13845141647482, 29.100522935623776 72.88721726968606, 4.387655181664942 100.22323975685377 M91.10135890111297 0.03094429066730786 C58.152957729748415 38.39055362813306, 24.142318245155 77.46384905893355, 4.591832449368983 100.56008095483264 M101.29257931514532 1.6299710901394562 C77.62892528733029 29.44701985771035, 51.253391201066115 56.24792086449621, 14.133172563900128 98.92163257154178 M99.35496894944698 1.605561531125153 C69.2536658098993 36.825261054625514, 41.39801923637775 71.19350850773337, 14.717571641925895 99.38848835518617 M100.77185585663527 13.152942736272916 C71.83517197833892 47.423880646668465, 44.92853503713724 76.77184573477521, 26.650422579074437 99.71179016263619 M99.82842625093937 13.732178697245986 C80.64084245716349 39.44920464554635, 60.19992772783553 62.078937064547574, 25.205327178934215 100.1381158731502 M99.73922697766487 26.625043559754616 C87.6496303250898 42.39385550052242, 71.26400047250951 57.81901890433817, 36.408598437063745 98.49987111012953 M99.38721018494412 26.14307055689823 C76.45677554453289 54.23197964501376, 53.96539352811141 80.43914005526432, 35.554714521116345 100.83982339029218 M101.62613631134016 40.53055018350077 C88.85945238987621 54.33195965829443, 75.31302349471437 70.69087226482822, 49.0301648230075 100.74908607266224 M100.36795225567704 39.147330534472175 C87.87576203461795 54.980666394668084, 73.84899295035015 69.93136454159772, 46.76336676094409 99.17504384052134 M98.20663767502596 51.34722361253565 C83.51374301564701 70.92575967339809, 70.76479391726947 85.1694725420984, 58.429128676259964 100.75413340468921 M100.4796573996221 51.71757838693597 C86.16826882161827 67.10529306638912, 73.35873832818477 81.09138382233412, 58.20145677060838 99.87055769406538 M101.07085439330605 63.01838895751444 C87.51081479621193 77.94779347063482, 79.05054208541179 90.23537849924648, 66.89305963893192 101.57425140228746 M99.4306426044873 62.672886234443084 C89.2970174118658 75.86256086697918, 80.05118244339565 87.08727073915136, 67.91073909920594 100.31762394886152 M98.34093116414914 77.19105830672011 C91.08342472902434 82.97492254317172, 83.94946451505655 92.08499441312112, 77.8836413325471 98.66284651089575 M99.97167056689037 75.63614730905041 C96.11035663655515 81.26029063617585, 89.48342653344551 88.03433260396864, 78.97494715157653 99.35810719896129 M99.97762439769406 88.77323762374517 C99.03429085252051 91.0947440982161, 97.35212294621714 91.52403726170496, 88.28277898364797 100.55658040538168 M100.59814736440477 87.27162437471799 C96.69727299156214 91.675920765487, 94.10489788364566 94.59578783656737, 90.02845123718204 100.11273665692124" style="stroke: #000000; stroke-width: 1; fill: none;"/></pattern><pattern id="rough-7645169011360477" x="0" y="0" width="1" height="1" viewBox="0 0 100 100" patternUnits="objectBoundingBox"><path d="M6.615446551371181 -0.8785706501535804 C4.31646264151219 2.7140422883106248, 1.9550296358094683 4.832967055810884, 0.7088589420478193 7.757471894341801 M6.711686614096838 0.3887348194328999 C3.8367930403853747 2.783402811839294, 1.4356740763174831 5.0570346855181505, 0.04249600534397169 8.244262227865256 M19.00294012851503 -0.040371286952678 C12.116813469429186 8.893055041423718, 3.396937667035095 14.927370957057937, 0.625565675455733 18.881382512105304 M16.97041406751018 -0.5979193976131421 C10.078863099903074 7.552918920669551, 3.616031704818845 15.419576069610855, 0.44898532890065646 20.826792607559394 M27.5629051726308 -0.2846518363756454 C18.422828036503464 11.844239794020492, 5.556874742013744 26.40551385404327, -1.1161916499090498 33.328210787146816 M28.030385546298906 0.5329957872759237 C22.386777322601205 6.991993158738241, 15.666377761200321 15.348507409044629, 0.8276583359935938 31.484817769235953 M38.00273366625279 -0.3856582521144576 C28.125472342956314 13.553292623244822, 16.44990990140152 27.075213143811453, -0.4630147186435698 45.16520194158477 M38.74948694545143 -0.9292940285729783 C23.46226665192807 17.30479166653586, 10.30780749556187 33.770516384714064, -0.47917836532798397 43.45263693503562 M48.10833602501434 -1.0089048790399566 C37.1749824762652 15.024992824689495, 23.28857282760461 31.516068759911313, -0.8535485445015345 56.03479776174267 M49.34585073544357 0.30551559156323194 C35.82796816249964 15.70162848663265, 23.443452802922717 31.353121491327222, 0.5027319175531884 56.72498913419674 M60.74705037329949 -0.4088454712869014 C38.55479249647982 23.62059060428607, 16.93217633886783 50.54840104644528, 1.5768822789163508 66.94336621764606 M59.96622219611901 0.7853326871072772 C39.81597481986984 21.86220518312587, 20.134583325046915 44.20429747493835, -0.59885375763827 68.96044423648084 M72.3146823276921 1.2821884906160799 C45.32231570835917 29.226909517002237, 18.216776587859627 60.89400271696324, -0.3350580696488823 81.42081250731195 M70.0575680271759 -0.15464715465514578 C45.173673589842764 31.171202535269153, 17.74272998188568 62.07713721070034, -0.06710129352865435 81.05214483480081 M80.9293837193056 0.3726287424337684 C61.27536102876849 23.536488534522015, 40.729390346094256 47.01469373721856, 0.8817788789480625 92.15934704320341 M80.79724610150939 0.5514348108625016 C58.83941317141404 26.80567825575062, 34.53213606887981 53.15782624578053, 0.5031827063061809 93.40276212689318 M90.62428433608675 0.9566707117604603 C66.59322698799672 26.003705550094516, 43.24654810527982 56.42872964554705, 6.03458181005449 101.26176492506778 M91.45031931466669 -0.9999340391951765 C69.39361337298539 27.614773723605495, 45.94942866073118 53.51311430045795, 3.6961575743403476 100.37961748482674 M99.5397286788337 2.422419797646514 C70.07365705859549 37.536870594686484, 40.827434406512054 69.84978448894795, 14.350726307395881 100.21729309707912 M99.88981814197875 2.275169493572868 C66.75676886851049 42.366319701446706, 32.95654324916157 81.27134552314762, 15.47670951971886 99.49304427777182 M98.32234543735477 13.721718673686379 C74.99385629289897 43.93415683232384, 45.48061447664755 76.79896146001423, 26.081524846897935 99.13730223052228 M99.78960891178612 13.98906089992395 C80.30394749604001 37.94597017365225, 59.89133104890842 61.17816849084103, 26.438080715757106 100.86257705294908 M100.91506532889215 26.965383455982185 C83.00048173527108 47.03481743538782, 65.55760033776225 64.32812827427072, 36.78016976610316 99.87715038768998 M99.29548782911115 26.923552698096675 C80.33605418942088 49.052300841802186, 61.67837745538314 70.51025495243478, 35.77731790496574 99.52159546647158 M98.21801107090747 37.39571574931403 C84.73083329136425 57.63570049183937, 67.99102455100301 75.5467896762044, 48.63892477446606 99.08947188644831 M100.66301854736106 39.979667297123 C88.02237145114125 53.08148856324264, 75.24695188211548 68.50149214917761, 46.715767567413245 100.00587206434496 M100.46529203072556 49.93058171883622 C90.15056359485973 63.89871868001554, 80.47181381539181 74.16142572636929, 59.26742444138103 98.34327450006383 M100.06741025049824 51.59588473051593 C91.12091232971528 62.49986064262445, 81.10685182306631 73.81157586398861, 57.8543623094743 100.2740416708838 M99.68670531153425 63.38589760508386 C92.89616158714756 73.0352583640889, 85.60668396404762 81.66020031859554, 68.14530256167774 99.9609043308785 M99.2059448037926 64.45207992411106 C89.93017422036253 75.0379570688012, 81.46585668290652 86.00694961494732, 67.69976060240944 100.95591368143627 M100.66381242963278 73.70259774314763 C94.99520504073281 82.04483719384369, 91.98198798724933 87.0163757331319, 79.67488189744029 101.04254951451226 M100.69141379487756 75.24195602898378 C94.3800519349579 80.70950311151776, 90.75555978569271 86.92538716195071, 79.04126407680813 100.47454272528648 M99.63029600923059 86.74246332918341 C94.6755572280531 94.09618830213272, 90.62056876331867 96.47068198100669, 90.42372731001062 100.89392615258286 M99.6950516001005 88.48834328042483 C97.93131006684845 90.40902062576978, 94.866055695758 94.07834826189185, 89.87877790634028 99.52507617727245" style="stroke: none; stroke-width: 1; fill: none;"/></pattern><pattern id="rough-4556914455779103" x="0" y="0" width="1" height="1" viewBox="0 0 100 100" patternUnits="objectBoundingBox"><path d="M7.709567618395752 0.5989298649155708 C5.828726539149871 0.9864107384478911, 3.0378924345171505 2.862481152355107, -0.49375981938150426 7.57485292039521 M6.349363972547565 -0.011446281861094976 C4.905962295466177 2.167857022641896, 3.73910362525162 4.35402684030802, 0.11967540246715291 7.7976630114372 M19.076945414557176 1.9511363372737724 C14.018349035178005 3.2895748277454615, 6.7465017407460275 11.642750066997705, -0.29786935798636716 18.115102312145115 M17.093478812638836 -0.16866949013558896 C12.892187582013413 6.609094086773222, 6.940655056857921 11.490845357936298, 0.041846754368632944 19.742766859993413 M26.380716023015896 0.3434733630023361 C21.85153362235853 7.574557797166325, 17.905456876512794 12.323765516024356, -1.5753714090042905 31.289694261487927 M27.389399096628978 0.5005889866867439 C17.802310887558153 12.524352717918623, 7.583278443143325 24.44953052584672, 0.8059743021669536 32.59746131819231 M38.73694541817993 1.0982022551464947 C27.15553211352538 12.447418458781392, 16.679822135785066 25.13944438850932, 0.5601181270999938 42.761447029301145 M38.26680987951334 0.19215328675471932 C26.398467731844168 14.3423618955277, 13.413023950188972 29.25444288087463, 0.8767606417073113 44.66471779538839 M50.21213636043716 -0.5040639766682631 C40.16113828536896 10.81075253314826, 28.53867207326108 22.11017949200322, -1.843828888898579 54.59638216988577 M50.17986687978854 -0.6587270538901913 C33.47632717371589 18.77611614348493, 15.824549935015883 37.698188435335, 0.980812368989544 57.39131165119154 M59.860531295378316 1.1351816510879766 C46.54332871386526 13.856108495971096, 34.507093331183 30.526759015154948, -1.2373496013714114 68.1216605751589 M59.46029390846117 0.06211522365252842 C37.04081117806024 25.465783298334483, 16.06308549804102 50.00111610811605, -0.26099687647716596 69.50207366776331 M68.45730551469116 -0.7506224606528615 C46.99196254479347 27.462874746434462, 21.030275790989812 58.51385796591886, -0.6604027542262889 79.65166781047137 M70.5314871372109 0.9643886592556363 C50.90867533955502 22.08320720148868, 30.560701406409713 43.25149542246017, 0.992950845937536 80.80256857840415 M81.1584165958301 1.49706887683735 C47.78532928892085 35.19960172592, 16.233637837773063 70.97029829839435, 0.8270386043800952 95.03581643639316 M80.40623019590606 -0.30848151400889723 C53.91001032452754 31.3992593713669, 26.646451888800033 63.90965008791844, -0.5070100525367849 93.29550547967219 M89.98184927931872 -1.9885240640020259 C65.54605641409213 26.56147309706597, 42.98044791431547 56.94910026126585, 5.751926414001687 101.83948472572827 M90.7500450023315 -0.5128775105267875 C66.28398349796736 28.994558896661555, 39.76104980354754 59.75090388671158, 4.756389156043904 100.8977725200932 M99.61474896966347 3.593946978134401 C73.20478670358932 31.168740557084462, 48.408194281351655 60.28670045534117, 13.555770559388137 101.9581924189109 M100.18705928871972 2.573791925671448 C67.77195921874585 38.32947015066684, 35.2821969565315 75.8301382471866, 14.457653187979803 99.90332986245993 M98.94592054494264 13.557620494671525 C73.17698595610268 47.20422936918327, 40.72824433828163 79.44368511359144, 26.33717119195774 98.01537385680429 M100.31816427786384 15.53727454087903 C77.44106651755932 41.12497192106866, 54.11072312618285 67.04388332709377, 26.33052997010184 100.5880921023053 M101.33294721582212 24.98185900502097 C80.95576116318742 50.00765654238328, 59.08548758480598 70.30539008242486, 36.58978246538717 98.63706691120609 M100.84234874504455 26.421449679604777 C77.3644249298624 54.55255259649601, 53.257176806662265 80.84339838479032, 35.87109144696687 100.06590100066914 M98.3588060142284 37.693306080990084 C78.47519677029554 61.58023751017927, 59.53988942205914 86.19020598811106, 45.69389247169137 100.69147444575356 M100.69622756246028 39.07607619877595 C86.09894650101899 54.42169448857752, 72.5328649350051 70.28515090292062, 47.03606185826898 99.69877124769557 M100.60669304230156 50.84468240519524 C86.12145591585363 69.80214622317843, 67.78068883230048 87.43504310799065, 57.31420990341624 98.31326399657621 M100.10699006813259 50.938437117377724 C88.45407778527672 65.17565558707619, 75.36310863311331 77.61724059731334, 58.26270731980033 99.62314382157709 M100.33061262024245 61.51645409607463 C86.08881155692548 76.81660471296455, 75.89272807656072 91.13608497406223, 66.40685960785797 98.83935083842817 M99.05430031653027 63.50492117125235 C92.64703343292274 71.77225123367272, 85.52109474180345 79.1660341765111, 68.2737448497558 100.125207820679 M100.54006193562942 77.44307541125448 C94.35539646528953 85.30752004767366, 85.93427056190392 92.57649296889062, 79.76772827237284 100.01186764018568 M99.49197018427294 75.87821237540186 C92.50243158849928 84.03965439862165, 85.6878616589694 91.04834544802843, 79.30561032641857 99.170734268587 M99.35893524876397 88.02625938669811 C98.72875976509906 91.22801021879404, 96.081514670045 92.6503768991582, 90.14308914507745 101.53360652974916 M100.27801928257473 87.13485384940327 C98.06952204834278 90.47668266914738, 95.06336807962829 93.24239859085807, 89.62901591972147 100.33996235694146" style="stroke: #000000; stroke-width: 1; fill: none;"/></pattern><pattern id="rough-4259276142978895" x="0" y="0" width="1" height="1" viewBox="0 0 100 100" patternUnits="objectBoundingBox"><path d="M7.185629357022726 -0.05600875137166628 C6.047220023566753 2.0917928460403834, 4.396625969001458 4.733960823348925, 0.9692697345086967 6.965793049573097 M6.414978123003212 0.09013478978909151 C5.099503538349555 1.729649845402168, 2.584753763108661 4.203152544193936, 0.1216677330346293 8.074562791596477 M18.579649629790982 1.5298048572067406 C11.722582988870403 3.8212216203959537, 9.508362879599868 11.865040588262143, -1.2480214358114816 20.454263923783515 M16.63127875594047 -0.5015869395136665 C12.348211833542804 6.189224385127705, 8.053620483626153 12.34838070795552, -0.13568369847367023 19.42946936225138 M26.290596498882106 -1.1412570776903594 C20.121936311153533 12.767963210299854, 8.929487349366951 21.535637336662337, 1.2117991476655483 31.118318213844837 M28.379006767875566 -0.9430809594630212 C21.414620355653778 8.147604427161689, 15.128571057833387 17.144203220169384, 0.3353810779487687 31.477406107288157 M36.88608658444861 0.6177675643840859 C24.853804332581653 19.324706040932583, 9.78101291094347 36.55080527270411, 1.8993086773789853 46.162013520388555 M38.11063826299092 0.6657855090233218 C25.012232818465368 15.213775605913385, 11.091301635656915 30.928074067668337, 0.05671925127179733 43.92314824459552 M49.29510355514543 -0.7845754913437908 C29.10859757052812 21.405867824791915, 11.916423497376957 44.612960503410655, -0.4560518675470089 54.84525282776218 M49.207249106688174 -0.6505583410250173 C34.19513864720857 17.853674678858745, 18.806607377654306 34.807969962411235, -0.147049978590855 57.17651474981904 M58.65835152141624 -1.851884589696426 C40.685462936140674 20.65191378862819, 22.85168268151886 41.138304075584685, 0.8431885922093123 69.59211807801015 M59.50928495891831 -0.274938439580108 C38.04450227387149 25.471712032839964, 14.37395572498063 51.59780382499942, -0.6594933195514421 69.18059094091085 M70.53390459560904 0.16128117046490598 C46.154664646885436 26.164143236436747, 23.94781042686767 53.45458271898137, 1.333183521692093 79.90637564990008 M70.91686317866554 -0.5891936333426426 C43.56871689053017 31.331148539072892, 15.246859062548065 62.35220890559686, -0.04433275795094316 80.0373835159545 M79.6185744650761 1.9251480377405175 C58.094722601699445 26.282893921370942, 38.590112099798446 52.1093831115612, -0.5459406089322547 92.28060632229922 M81.06744266943322 0.11132738608643278 C57.819002039887906 28.117971841204533, 32.82019947503665 56.399926157782446, -0.11506500350640358 93.25051408048486 M89.64940565433835 1.0059342068528263 C69.9127800409855 27.26118647179714, 45.55430287124995 51.134918990837775, 6.002059877830255 101.12537459211148 M91.98535610167893 -0.6407700073333196 C73.50792517171953 21.08129141524355, 52.987627347131934 43.519680536778445, 5.304238117689826 99.61584787291629 M99.41885215931995 1.4102572959716655 C82.23683269466274 20.588576222421327, 62.007686243278734 43.910122308697844, 15.291209931138692 100.81399299942078 M100.22328864394301 3.3611110324097377 C79.70405879501214 25.91433064309288, 60.32715506221497 47.90408078434639, 15.378958098295106 99.083872866626 M98.04780637722307 15.54927244942856 C84.74123075894273 33.425015127279856, 67.61510862276995 49.51972528002297, 25.40209755393965 100.14109549440134 M99.49599479290971 14.3035818137793 C82.66691358776511 33.5250820558349, 65.1279748124327 54.283284538767944, 25.048239508230107 100.12341187845674 M100.84528129137861 25.170111581705022 C86.89247942452745 43.5385896977124, 73.60636491079772 58.789460211735985, 36.41280070131366 100.55784760125597 M100.00466588603534 27.009151173504264 C78.4842514694935 53.056477833856064, 56.041688786952356 76.93180640524686, 35.791959748316366 100.37413940898287 M100.84638004852094 39.176556528815695 C88.09946713321575 53.44506693554703, 76.21425956996617 65.56760347316182, 48.50395356507796 98.92458208722539 M99.31260621647705 39.15966679109767 C85.12871271171215 56.108576495506966, 71.5357392376648 72.37588876739791, 46.118436221555996 99.2213055278206 M98.19089534270582 51.82127129301213 C84.82719204787135 69.37250534603852, 68.96374366296965 84.65392930675948, 58.16630090054395 100.15551099856985 M99.20488898796933 51.186879291399805 C86.49440571572946 65.59174424996853, 75.25564821532916 80.61260038165294, 57.449388389607826 99.50893655014097 M99.77177873662964 62.484351855115186 C85.1611042856817 79.46240529223097, 74.89199057617135 92.38043753180736, 68.41308278689661 99.51163994702517 M100.23261395890134 62.61948681790919 C90.57269935680006 74.35831137523628, 79.93540700278547 86.3561129688984, 67.68442395439989 99.69828498843692 M100.02361224206761 74.50417683737528 C94.49570248570635 85.88525163633899, 86.7048923369079 91.84144186918901, 77.70305798899068 100.03151865573113 M100.46933517332977 74.9553210871044 C94.16159079248729 83.12061367323062, 87.693887540035 91.6030109283994, 78.24940256037273 99.71867988604664 M99.54231068465756 87.09911786239333 C96.65862647105995 90.28371774307436, 96.20358553754014 92.33103535919439, 88.86422367091586 99.4097912842352 M99.4844340873754 87.45055697095138 C96.36372986165212 93.12190556691529, 91.59677215479313 96.25038730029584, 88.96384182490675 100.47429761983568" style="stroke: none; stroke-width: 1; fill: none;"/></pattern><pattern id="rough-6892639868477771" x="0" y="0" width="1" height="1" viewBox="0 0 100 100" patternUnits="objectBoundingBox"><path d="M7.056932789336019 0.3042745317089228 C5.434467973931499 1.9056502135213256, 1.4857859489255334 5.921325739043856, 1.0045088416515475 8.184976491091566 M7.242255309003873 0.513878607270581 C5.274852905440106 2.267255441092615, 3.160806698562907 4.068318426626844, 0.23472409309388564 7.484979609804536 M16.76857454179164 -0.986194514208619 C11.913112339593827 8.278989496442446, 4.637191360360552 14.807841983291237, -1.5068519094604005 18.272031297711514 M16.757442187346786 0.7184973944258268 C13.714137432268533 4.747495531199568, 7.133424248373193 10.508766017053894, 0.8227771429080324 20.61992180647719 M29.355446878227504 -0.7032718627480152 C16.499292961276915 13.26453386852359, 7.0869289652056136 26.175694771366025, -1.8727708406788794 32.98423143769325 M28.68813683249958 -0.9955774646496254 C17.416977335343844 12.993213611391717, 6.963264907904209 23.45756667728456, 0.4725464856265753 32.289543533301334 M38.076141270943474 -0.39248293653840616 C26.462865683453657 16.57783893309226, 14.51370226662985 31.5995487576189, -0.8972368991682531 42.93481569014001 M38.90530059612266 -0.9521696048056452 C29.821676569645586 8.653683381877181, 22.467360761423258 18.89121014040913, -0.9779303640207906 44.721183181872355 M49.911473811682306 1.5517193627582921 C36.224887835667666 16.46915400030118, 21.224092745089667 31.85356774913388, -0.7068953371453874 58.215467425047045 M49.95428048065461 -0.894440106535336 C37.29800408835843 15.703806412108326, 24.92718411310841 29.49360805432751, 0.8086857096090228 56.65951496445771 M59.89495498166277 -1.8401450522567622 C43.649246704140594 20.5467619727174, 23.816893512544475 39.226536050569266, 0.2758969215273277 70.60014543236309 M60.16481301414089 -0.5360031453608904 C36.41280077783961 27.128765379878, 11.208064773281954 53.649859885152594, -0.6248271770340734 68.07087675516792 M71.83077717107949 0.8948959466917579 C48.79810082625698 25.09413865786526, 26.73980390695347 51.82941773811645, 0.11609423894906357 80.28739603907546 M69.84271627495797 -0.28631945746731846 C55.411456321013 18.884982527053545, 37.42764918805562 36.56016347272884, -0.9515771941729296 80.38645310914814 M79.21465921901134 -0.5869839095686578 C53.041235324571105 33.265756269975896, 21.75257811612714 66.302415341118, 0.7016274816122472 94.2575366055198 M81.8655472347539 0.5424790149902043 C58.17121282133769 25.36217108571157, 35.62512062265345 51.52234996776221, -0.8892013838402666 92.99361077632734 M92.6878992076592 1.708649414520524 C57.79464008250577 38.73516190502605, 25.440795622756664 73.92514288769581, 6.4572076345182525 100.12922043690762 M91.14273335393767 0.4449098342596085 C71.50119278994295 23.75528387871881, 49.41142627831155 48.758377678898405, 4.574150308329029 100.41526290461738 M101.08190782764387 0.9170611018872128 C73.67364549561843 31.26037350445909, 49.34360673351897 62.05661931952958, 13.770254713393882 100.50457279550695 M99.66710479343355 2.8077013538401285 C67.84783096798118 40.523340619883825, 35.41515115699208 76.6642081136652, 14.711612145120958 100.03904446199812 M99.10690440305821 14.602337560067745 C73.14202044197539 48.434631306246914, 46.4546416404131 77.68589483898744, 25.190513159604798 101.06555961051966 M100.93182569492468 15.349154016540645 C72.89958595675229 44.90907556136059, 47.92962051567075 73.96947127173797, 25.32806658511624 100.24182986435717 M99.94036635945135 28.591759713238424 C79.98868885704329 50.636201826121535, 63.46378012967165 71.92448083611994, 35.223275402148055 98.08703963518813 M100.94857566945993 27.10274363333143 C80.50055467934271 49.112205967567036, 62.37347187868639 70.68634718543306, 37.38915671738748 100.58160103309484 M100.58426483531183 39.263269936135615 C83.3915932265586 57.021636827636875, 69.20070531112229 74.0292843382623, 48.5121246111021 100.39488939938819 M100.89027275073492 39.21992431660209 C87.24500969614317 55.5090883295554, 72.4252285682869 71.15918765217458, 47.25747791547306 99.10099403183489 M100.91552786401249 49.884900210002606 C86.3122723687656 70.07043491053773, 69.72888183763027 86.02236326394274, 58.85385238915336 99.58188769320648 M99.58131975539011 51.81776837875011 C88.90698377627326 64.24681456837115, 75.45645602332038 77.83767655030283, 57.84539639271564 100.83428488565083 M100.08645540136182 64.98116502057358 C89.52739296098999 75.10957116074557, 80.57407461018836 83.92485744686877, 69.2339318675464 99.34832417664424 M100.37899216666219 64.21977113920958 C89.4210534174116 75.16813271189612, 81.35835349424703 86.01288286329178, 68.07140773402836 100.75217392680338 M98.45009288947753 76.04530451516065 C92.69170344029023 85.73198533720482, 81.56195444466407 94.72600774621937, 78.56254288745147 100.15202162899287 M100.57855753623342 75.65931263925452 C95.8710151441885 80.4958185876514, 91.54480890444901 85.70780265821877, 78.12335609280119 100.60770969837384 M100.52323626024246 89.16156180548907 C97.56967321466209 89.09890967589851, 95.99822068477998 92.9090849199781, 90.06218598381788 100.2222117499359 M99.64440138146675 87.25013632374878 C98.06314320686965 90.3973264663261, 95.39920768908016 94.41481539469166, 89.25473747472682 100.1084252066172" style="stroke: #000000; stroke-width: 1; fill: none;"/></pattern><pattern id="rough-1420141622744967" x="0" y="0" width="1" height="1" viewBox="0 0 100 100" patternUnits="objectBoundingBox"><path d="M6.329538940213967 -0.5324843002216053 C4.08648327784185 2.964728615530505, 1.753900587017142 5.716993633383405, 0.21775878819080519 7.308295441457101 M6.606063649157853 -0.23337240999435638 C3.9610232934666283 2.1984534475276143, 2.5509080651196947 5.1797872464473755, -0.4735087855015087 7.759153176831146 M17.954690070490976 1.3645021759548843 C11.337845352182185 7.332483678155583, 4.217187786984158 12.649380395288219, -0.5586783912441735 18.611785019035242 M16.987508561969253 -0.6252560545979469 C11.429606819386983 6.437011823882163, 4.151407742691873 13.910021405876387, -0.05039634051525432 19.861823909955056 M28.682367737208782 -1.9656522372978538 C20.71193722485529 8.120099647103453, 13.069017401510429 17.149089765671523, 0.6162330612767439 32.83738665195878 M27.97044655824576 0.8361749812744614 C20.23812137529388 8.26794612167457, 13.788601461020887 15.993520755362042, 0.47547201840550146 31.52080302584904 M39.016926580545864 -1.5407406987871486 C27.31210207213092 11.870572177239318, 18.64601403061883 24.173623226573778, 0.3235944158252879 45.10807539635933 M38.13539954656692 0.3975281350356261 C28.480745466322855 10.44674861974082, 19.00712997936975 22.707123899603296, 0.47146725225824193 44.426241843466315 M48.85378689074901 0.9865412603536958 C34.43915558447175 16.022079354155593, 18.320118241510084 36.06130015195162, -1.1574207664852505 57.990619330094574 M50.17289297034645 0.21182313819199194 C30.97778645515376 21.648586362125133, 10.575931212920747 43.64293365677417, 0.08009842242627219 57.50754253647724 M58.16960448339862 -1.9988038709714404 C43.158181310612385 18.639626027127235, 24.379787467404142 38.75850006561874, -1.1761982035014036 67.15624933875617 M59.04384555877706 -0.398929975752349 C46.469880835940536 14.960080279783444, 33.73332576002308 29.959109923386663, -0.8985629093698444 67.98746216014058 M69.9638555040413 1.24392034646191 C47.365841753806315 26.96484773172847, 20.621959388021324 55.41438750792919, -0.851793982750821 80.85374070617395 M70.25088482185312 -0.7254524065984111 C47.406895863543106 26.99298836695945, 24.69362889051512 52.31892222892751, 0.9361259995234699 81.36829097508614 M82.86147489042988 -1.0425548488152154 C62.72552665119588 20.157665478211978, 42.29754810061765 43.913954133152494, -1.8163770714407006 92.82733093278335 M81.9587653800114 -0.9934134702563862 C50.23703944958461 34.451598864867705, 18.825667540242964 70.15971555381472, 0.16656301091729242 93.98819769624014 M92.43616010425323 -0.1538959266567952 C57.93883012477306 36.695362155311514, 27.88996014486919 71.09249859115904, 3.0657480355569646 100.12948150329589 M91.9704640982074 -0.030963530844567266 C60.71143738563845 35.88956910395291, 29.90881914771978 71.17241912811195, 4.749190986138592 100.3067954336849 M99.2910970048372 3.125561635282609 C78.6590679330525 27.66288710609256, 56.79189461836521 51.00825541493685, 16.879513233366996 98.92025771306822 M100.77398519049305 2.3038030394462314 C81.13562521903671 23.775408937825336, 61.791821456336585 44.76483074031701, 15.604333790470584 99.17466821830627 M98.83011773839515 15.01119881582326 C78.84905208450547 38.427097605249145, 61.92494241188813 59.42338095676064, 26.739889095110513 100.1777866602294 M99.6406907545315 15.474032813304884 C71.13551259518927 49.2538994849268, 41.13562101363387 83.29998808321926, 26.140548582838235 100.13531921128886 M98.84139506486693 27.462925501464227 C84.73283451315196 41.60072103627078, 70.08105936242032 59.808352593959796, 36.30356839049875 100.91673960937608 M100.80065916285243 27.619066669928266 C78.63111730543673 49.61018428032423, 57.00176373141752 74.12426966818686, 35.87029173703666 100.64573408681252 M100.88138080282523 40.58641000313933 C86.79821098262045 55.00046754241647, 73.28253396148745 68.79953504167564, 48.14136233830304 98.26890392147884 M100.61917094591075 39.88775778980926 C86.00413655269392 55.491534452544066, 70.74535479880096 71.6099019100388, 46.60949574133926 100.41194769414976 M98.64563453764771 50.66880244702474 C86.84451853946364 64.52847145700498, 75.69297743172113 81.51582875351006, 58.686424518299894 99.18567174095459 M100.3146192595423 50.692159140407746 C86.88983125835253 65.33442272275151, 72.85203767863545 80.44884867615943, 57.4084161438071 100.78341899137368 M98.10036322610823 61.766056892251584 C91.7349502140447 76.37251981360541, 78.65271920844296 87.22067606825486, 69.07733370773794 98.15381854020656 M100.97661270152042 62.78082672084558 C88.25383998948986 75.98797939141558, 79.61148928580624 87.53039661416567, 68.89096736018206 99.07860403977469 M99.2391623548875 75.24901015645491 C92.58207124538283 83.48231612904817, 87.61682637920829 90.51435258443766, 79.33242258552012 100.30578694819084 M100.62257383586743 74.71458136517147 C94.28848526746876 83.04001758443871, 87.51390860168858 89.8130907065776, 78.71507499687618 100.22202632963658 M98.80243221050243 86.35238209862071 C97.83130263505564 92.50706284840854, 92.20764073032895 94.38541335243538, 88.1202135610258 100.50852277172496 M99.36708269850645 88.32178320820113 C96.18886384501263 91.87328506905287, 92.74764887230586 97.21170847879634, 90.18068700823247 99.68401935434342" style="stroke: none; stroke-width: 1; fill: none;"/></pattern><pattern id="rough-8341418912898295" x="0" y="0" width="1" height="1" viewBox="0 0 100 100" patternUnits="objectBoundingBox"><path d="M7.268968113645851 0.541706802914151 C5.370501425276511 2.5529391923087066, 4.1827761749683425 3.1485982162912745, -0.9844553354808417 7.934924891484772 M6.83136019028083 0.07381242132740906 C4.792181498417309 2.750248624877786, 2.3000201222176666 5.880057666457439, 0.4427646446976894 8.074232031374269 M16.267283286276385 0.503011453586689 C13.469590066839235 7.30774473563115, 7.786316063521429 11.737076213262526, -0.40904129816096013 19.11833688058831 M17.891704913237987 0.2732562731666168 C11.605271924964997 7.759830054686171, 3.8977820625787 15.864016699620162, 0.5874444714046962 19.36710044755996 M27.672498532760212 0.46729284184240516 C20.381712349153947 7.094476175904612, 16.100758174912848 15.380984738405267, -0.7072700440733861 33.86045433763683 M27.456698807427852 -0.562612102060625 C19.899080121055054 10.44498874624161, 10.914916364003387 19.4957079495937, -0.45686609068317274 31.763039225327898 M40.559532066311704 -0.6108186718219422 C25.186800146227917 15.895679231085001, 9.292719859434783 33.296935367083606, 0.08795400391700614 43.961426786416 M37.93300699823379 0.7865780942516776 C24.98255384989341 16.254164830038512, 12.511155345625141 31.806758707354273, 0.07700003133097377 44.105916206074745 M47.79195518217175 -0.4651137498549227 C35.06357536519535 18.88586956943361, 18.117180933915474 38.07468388702437, -1.3786382988026178 54.61307340007197 M49.58179285212612 0.7774395279444266 C38.175223726371435 11.840902694780745, 26.780172741387073 26.527726946628455, 0.23358188521532952 56.20318002928868 M61.65946664861542 -0.2997633965255204 C44.23103289564512 14.885791710416541, 31.32165013800966 32.16435313637288, 1.543684917309748 67.4696548291072 M59.744668166595645 0.21178926063916714 C47.80439800883305 14.122669158317812, 35.00300608518008 27.778931209655706, -0.48482285621108545 68.44864426888252 M71.327463682973 1.3504107544223531 C46.91199600364854 25.30608771675425, 25.263446120596406 51.71576374949343, 1.2634723647742954 79.05616810672662 M71.3670550283061 -0.33417878103346643 C46.38459795182939 27.403537208183526, 22.70635068982868 54.83216929745088, -0.46626876596952904 81.24817700818151 M80.05637769421195 0.5124077250721077 C65.54723249965512 20.10535699577911, 46.29628388241343 39.76985582679673, -1.4302394334412698 93.8501703672976 M81.41423296801602 0.6476491582302315 C51.71012757354625 33.21264784639104, 22.398104473154547 66.6505923271761, 0.8021444154018131 93.48883940785198 M90.73970491568268 -0.08965808793764296 C68.68885604303323 29.886529592517075, 41.608609214934894 56.006220784412236, 3.324836268267897 99.55346945219382 M90.90173601579434 0.4831652710287764 C66.2334441806061 29.993573829223966, 40.127075180448216 58.32012736797694, 4.343043334809266 100.07836996966981 M99.99106537473551 1.2450553235904982 C75.17816095081558 33.25033623633017, 46.69525326148684 64.3181615495502, 14.917389631711325 101.41497560815665 M99.86423346129325 2.893441714660992 C82.59960296769874 22.728971843970342, 64.37736036896132 44.14102573026066, 15.832622386885186 99.6674990430912 M98.61520637341079 15.928907071844637 C72.4712888389168 44.565131220581264, 45.90005572841001 73.92096023878614, 24.088348837481643 98.95639066587168 M99.32904079185764 14.844994719337823 C72.45611957148348 45.82488960615793, 46.72812466126582 76.04457179893575, 25.642331150990408 100.55510076643353 M101.68418622010462 28.495160708351293 C76.73247695956522 52.5897323558726, 58.60778132343453 77.94475568613825, 37.183619596472134 101.39354131473205 M100.45775124860978 27.188877810065105 C82.56195620684132 47.17128988111018, 65.5480132569948 65.98597046173526, 35.486611953149726 100.77617802873773 M98.40478537201417 39.31323962987295 C79.39548912660199 60.59372086006997, 62.674210265912464 82.92851326304438, 45.8379974548682 100.4721908313515 M100.47096053867226 39.80905413981359 C78.5780722330471 62.67991775372634, 57.56955079798122 87.79066082785977, 46.45178571312561 99.6361429391846 M99.41400995253865 52.367295572222304 C83.31383491667653 70.1005753758817, 67.78158875830111 86.49916078080182, 56.98660027197564 100.95742674873865 M99.4824960571388 50.66284820715367 C87.51029736035053 66.03185780293019, 73.88719723848573 81.28102800725313, 58.26951268095776 99.95419623829441 M99.45722148673418 62.698549360252706 C89.55936156290592 74.4537991058874, 83.22565168695354 85.01272504932523, 66.62505406827052 100.1899011844907 M99.53950880150722 63.71246938496459 C93.6110998881794 70.82261902129167, 85.97977784029582 79.07494456332184, 67.49217238127618 99.5555166634907 M101.68876406580932 74.08305565896175 C95.92093322979636 83.41032027424298, 89.53575578561454 86.7225159494351, 78.68033104672708 98.05673617096254 M100.59596299920618 76.63870914194143 C94.100216396831 83.57835736465901, 87.03710669662536 90.1140502340239, 79.65942397810839 100.44175063341754 M99.78361181108927 88.95361970133989 C97.84901453425807 91.00924084950591, 95.19802005006528 93.93160674820032, 88.36393150279477 101.39701465464599 M100.65745578461406 87.8547660114945 C97.76326182478188 91.2430733066057, 95.8892837940068 92.69239118857529, 90.26830989530778 100.42009587613381" style="stroke: #000000; stroke-width: 1; fill: none;"/></pattern></defs><defs/><g><g pointer-events="none"><path d="M67.20717178099441 24.22992492181588 C66.50873985231 24.60504425285741, 65.3572336436059 26.06429388746369, 63.68479558114914 27.00656754774956 M67.10953437709823 24.226888157568805 C66.11868214767641 25.07382362877092, 65.22898448140081 25.89401997626913, 63.88800737039368 27.22825016832389 M75.71218506728835 24.222970186840843 C73.54444892621456 28.975612133711422, 69.79725038700452 36.09425345448747, 65.11001060511258 40.32387183530617 M77.67216197809654 23.787101622911674 C72.3942402866955 28.914394645292187, 67.94479991530787 34.63071021535534, 64.85222585822258 38.8372292578594 M89.67816838650891 25.188197386622726 C82.94496756950444 30.025311344185045, 77.04167429714228 39.15159193285456, 63.24556518821261 50.403393493781 M89.12641838273356 24.50769797687982 C80.38295134414012 32.36851423397522, 74.96547327243397 39.271072473646235, 64.67790846101448 51.47967706625028 M100.32293583782783 24.992483415314055 C82.80516029104248 38.65173655833867, 70.04953762334259 56.619233481268836, 62.22518893147281 64.62571465989313 M98.29940063260474 24.423497669270247 C87.00582050125098 39.21654971172852, 73.70625263204285 52.32841975805468, 63.595730125720195 64.41316656277846 M110.56018842988625 25.074882681874733 C96.24225962908272 37.564306942108274, 85.22140055862613 51.887394984484786, 64.62268563987419 75.79861756114927 M108.7843780243103 23.369958529336802 C93.53827141696344 41.04661514688125, 78.96804527853608 60.28142972991257, 63.19557668260766 76.6108361170528 M121.05614961516122 25.470008403103716 C100.4241218468243 47.761667119175854, 80.57735569813529 72.1706150103776, 66.00960870256326 84.16542854656262 M119.12869494327107 23.615048231673505 C106.32125882079437 40.51877967187357, 91.24206337252775 59.1115239478628, 67.09560534991196 84.18812875726788 M130.88675718464114 22.77024557144894 C115.03644533504831 42.705901878223074, 96.38697934778418 62.14640219625278, 78.98828688904686 84.26542235402405 M131.0649860805478 23.119897694003047 C118.71480348691271 37.83926788719352, 107.08118505970788 50.51075759871693, 79.17886376979607 83.01158653072615 M142.62979416701478 22.480429567033312 C122.0005001179125 48.246317267444965, 101.41516583817271 70.55425571978374, 88.82474866707311 83.41504004700045 M142.10991535617697 23.635317916644382 C123.4268298414656 42.5903110572984, 107.97885608685225 63.402500593811915, 89.08871167879511 83.2172440491104 M151.07700050657593 25.64550654994488 C140.25734989964167 38.28640390734849, 129.98735762193394 48.44859307508611, 97.66621239089451 83.03124777598632 M151.367533277266 24.90483064109602 C136.39513965428603 43.26157739177139, 119.14414644216818 59.90980719217605, 99.07716364517039 84.59857742570213 M162.91983155491542 24.24279557027014 C149.4124911716695 41.58863348155542, 132.02426509474125 57.44679246166136, 110.67778875378674 85.45382908775949 M162.1467822850946 24.91401460119323 C148.42220534348607 39.81152187863979, 135.67440091874957 54.191385786808546, 110.93706556998293 83.44904681498473 M174.40389860813073 24.42626262397296 C160.00428559101124 37.556087101012274, 149.0786682914376 53.26138077440412, 120.71906385009531 83.31953513865614 M173.24410680998443 24.246070958407184 C155.313454498707 45.04318526394263, 136.36211886818936 66.01354646222228, 121.23377146582978 84.22500618052649 M184.1257181781061 23.455547548005804 C167.01839772718128 41.52569222934481, 155.7068232694674 58.64899584546993, 132.2613964861481 85.4800382541473 M182.99246866460894 23.010409391761552 C168.53959035478707 40.69974221703101, 154.10596808941776 58.676893521421974, 130.91678808588216 83.66144921866194 M183.66810735780427 35.94331187001028 C172.2099246347681 51.85548981280844, 156.20633206992463 66.13585056793926, 141.6948227937457 84.17280898254704 M184.45144846598123 36.65143244906777 C168.63389840100612 53.360698870271754, 152.10194629593076 72.31135168006756, 142.11057175606285 84.26684530141031 M183.08750201014848 46.57858042959477 C177.25624724168605 55.713997223166984, 169.71797121594292 65.39361662366879, 153.52569917768295 85.81516798369256 M184.3419009754791 47.06198696606226 C173.06611055614545 62.765869939990466, 160.9703955555678 75.77093349411405, 153.31342165593807 84.6979372632143 M183.46933025772893 59.20238256623069 C178.94692614393222 67.4977659774564, 170.71350525836266 71.9045133190969, 163.1495585719524 83.07189520024474 M184.50031149007572 60.3348480091711 C176.39373604213756 67.96400889266626, 169.37297533991097 77.13556474263848, 163.4959751925981 84.26940337253657 M184.85307329067717 71.75683736362484 C180.8455346065768 76.31352929763993, 180.7366679050395 77.92394416938967, 173.400827635717 85.39302162884806 M183.4073821492391 72.04154800734975 C181.60629231375268 75.2981653789759, 178.40136165810765 79.56057293356183, 174.26431355346324 84.13636793148059" style="stroke: none; stroke-width: 1; fill: none;"/><path d="M65.22253254407846 25.464754093423707 C109.07058023638855 24.942884033565534, 153.94366226754238 23.53575703350453, 184.92591421364642 25.620072745623233 M63.02620629732811 24.39013920373324 C91.18885372359887 22.934116357790963, 116.70562230960373 23.235658296602555, 183.22802533718382 24.08620089830288 M182.8258513076554 23.62003495210376 C183.02299168593487 41.17137757488809, 184.74924715968496 55.33836833141682, 185.1792055743863 85.42579480269572 M183.68853593838438 23.555436823187083 C185.06841825286327 38.2594138904089, 184.8611910767238 50.97834141640295, 184.48366467369263 84.93074981380164 M183.16480181856926 85.20262690525075 C138.15945215577088 83.44691670042121, 97.76216511879652 83.68505002026444, 65.51871543529862 85.3601304903754 M184.62478988278534 84.45500395596272 C141.2084655735604 84.7407092244102, 100.43268292413445 84.98548098645783, 63.19211547185667 84.06362290299545 M65.07653585597222 84.26414601012402 C63.5673485741883 71.01266261479246, 62.255802022048414 56.30939041042119, 64.89975573930133 24.479640631478805 M64.13107142482532 83.42004754188193 C64.37400217793801 70.14177351779136, 63.80810369148334 56.52339419497604, 63.397194464646134 23.551824604675584" style="stroke: #000000; stroke-width: 2; fill: none;"/></g><g transform="translate(66.5,33.5)"><text xmlns="http://www.w3.org/2000/svg" x="0" y="-3" style="font-size: 12px;font-family: Helvetica;" fill="rgb(0, 0, 0)"><tspan xmlns="http://www.w3.org/2000/svg" x="0" dx="0" dy="14" text-anchor="start"> other.html</tspan><tspan xmlns="http://www.w3.org/2000/svg" x="0" dx="0" dy="14" text-anchor="start"> lower/lower.html</tspan></text></g><g pointer-events="none"><path d="M66.68018343269787 143.70856153937189 C65.83678505114543 145.29317764605665, 65.15646941978498 145.5129045657974, 63.615085825873216 146.99062163125433 M66.76797862115389 144.0263820774823 C65.90320326091796 144.96722734716053, 65.41296284345981 146.05570707102868, 63.90867774904761 147.6390147239297 M79.21003574316694 144.6172869756199 C73.26401938156948 150.16671199798125, 68.1910120930388 156.9126149427359, 64.45120305808622 161.1410817038768 M78.46110895180105 143.37914892823852 C73.46539402233988 147.53157681264406, 71.09063320260407 151.28622082052323, 64.47111231980045 160.24968901838886 M88.85121907412702 143.05801428857836 C81.62692780909627 151.0038637594831, 72.84059871534784 162.76624294807232, 64.06607971568673 172.81926389273593 M88.27423632037859 143.31995123364808 C81.68493690724195 150.8515627466294, 76.64758135254911 158.07378834782932, 64.76689680617014 171.2390722197792 M99.49208398138038 145.791711068189 C88.23674278135142 155.60470875602022, 77.1102972754379 168.2285343179995, 62.77122546998209 182.301650513535 M98.39862814991987 143.12174680404055 C83.98487779732632 159.29997482471123, 71.57513991369187 175.38823938838541, 64.88151142031545 183.64209426742843 M108.24436679371205 143.23832700078364 C94.07504786954439 163.8545594288561, 73.8727591696197 184.66639945983394, 63.36071855848567 197.63976757888864 M108.88507392962951 144.00754604812374 C97.93496121366454 156.99450736484013, 85.06209208986797 171.4956030146247, 64.18042046656807 196.66881156530093 M118.82789564168043 142.33355069585693 C105.70996132360332 161.80579186638695, 91.45351265580932 177.8764298962815, 65.91951370284693 204.7174686463406 M120.79545498254679 143.88369883811382 C105.72963327568347 160.88758569458864, 89.30873155902165 178.60414311632798, 68.34336119994941 204.1604376267942 M131.61792722421674 142.77992107892538 C115.30117188927373 161.31913069583564, 101.0472469885704 178.8602278204902, 78.75611175562378 202.37530004529694 M131.16172469901235 144.4775789607045 C114.27320512808993 164.07363975652737, 98.48632041513083 181.96311826998584, 77.97223057099107 204.28328831811137 M141.30807334684778 143.20403629357756 C123.45886229558542 160.35153507110536, 108.80849239943866 179.191296495331, 88.81162839325135 203.15227850514117 M141.36088345039784 143.78248956112557 C128.91160458555532 157.06392655571943, 117.51440175148996 171.5704919205811, 90.00927428520123 203.30060895770544 M150.38798939355294 143.18611695673056 C137.32439615584894 160.76886818897765, 123.46455649792928 176.84707850478634, 101.59720942950888 205.31486036588274 M151.6696889584524 143.53188722985902 C141.3681549507662 155.51975837131033, 130.5891024358236 168.10926606610283, 99.45155825119315 203.37070206695054 M161.75828251496796 142.4834696356588 C146.09998236180218 158.92894745613802, 131.75194053329193 177.90243468047447, 108.71109520224181 204.6185792333859 M162.52590611164757 144.3231265488025 C144.3992059567164 165.82761446973223, 125.96620041198358 187.30035312485026, 111.20488665722694 204.7310479454903 M171.52898809661198 143.56655895989218 C162.8893522313785 156.7451442853016, 147.28178577214234 171.93738075135664, 119.18081824603183 205.44937032146973 M173.60246675279413 144.4566737287068 C160.24866012471972 159.10203393730478, 147.43348449323253 173.9658543815099, 120.11960348135017 203.6928043583162 M183.12017995087945 144.4799833955396 C164.41901659778253 163.35406656518376, 150.35406463792668 184.375731334762, 130.0165568890427 203.06069800798386 M182.71040014564088 143.97462415048776 C163.81696657233084 166.56741404538533, 144.01599572797056 188.9612561977464, 130.8223791519346 204.3989861579238 M184.32539508799857 154.318515222466 C170.4327197345794 169.81443050815668, 160.64659437842707 185.98189709244545, 143.50091378857573 204.4598380329988 M183.79476475875376 156.70698798048224 C174.85085200737612 167.84084147711363, 164.28408325458562 177.7679694347115, 141.89757164274909 204.4823841603035 M183.69526894745883 168.0704439002974 C175.4980378744533 175.62379386565388, 169.6985297567907 186.11796301726574, 150.69721722042183 203.4910922047575 M183.62924113978477 168.7503421829011 C175.65671626414107 175.61529869755293, 169.9122332916791 184.56202443038507, 152.65669131486032 203.0658089694587 M184.38009362654125 179.39549659485397 C177.76295682352165 185.3019425696308, 172.8957533318395 194.5481003799768, 161.97218413385414 202.75029087949852 M183.01912407620347 179.17282949000992 C179.22718186891305 186.3557394974325, 173.6642122211729 191.63254920063008, 164.16797970895558 204.40695501431478 M183.59443769587855 192.9171212095075 C182.08162226533403 193.30589376950883, 179.34287950897757 196.37442328589322, 173.94811082321087 204.86381155107526 M184.73517942513215 192.90908880226405 C181.40648762104487 196.03752623477388, 178.90344897605678 198.51002036497925, 173.64956182624587 204.47566314451896" style="stroke: none; stroke-width: 1; fill: none;"/><path d="M65.62821940155462 144.79474107012973 C99.26705227656893 143.71384617916823, 135.3474588613365 145.75207979766114, 185.6764676601414 142.99375430595106 M63.65659692674816 144.21934105687555 C97.06518450963125 143.35374262754306, 129.46788155026172 143.43307421085214, 183.5496785059306 144.42697300234602 M185.2369502543735 143.0321460428674 C182.35938677128303 165.792172905883, 185.9018678321973 186.78145527046314, 182.61423928249886 203.31962951681615 M183.0610547739604 144.30308525331702 C182.81476797650558 166.73697782031883, 182.607744917626 188.51096189975462, 183.96575251584997 204.36097213189842 M185.99067557906983 205.26210980822114 C140.03110051137241 201.07998710784562, 91.81428755875316 201.78706553167086, 62.5502385316801 202.42214382815536 M184.53991593022187 204.73275866960358 C143.74559825078742 203.5766926096185, 102.00948806074577 204.52145035547287, 63.74994141761296 203.12601436938624 M63.938574032733214 205.5792413367759 C64.7352512260783 188.8746019612492, 62.68185997144667 173.04465262695385, 62.43367820986489 142.35321959830853 M63.21375003258943 203.41871714130738 C64.51798851857217 186.32066697233643, 64.55885008688902 167.9593966537748, 64.21362152333892 143.55441319721322" style="stroke: #000000; stroke-width: 2; fill: none;"/></g><g transform="translate(66.5,153.5)"><text xmlns="http://www.w3.org/2000/svg" x="0" y="-3" style="font-size: 12px;font-family: Helvetica;" fill="rgb(0, 0, 0)"><tspan xmlns="http://www.w3.org/2000/svg" x="0" dx="0" dy="14" text-anchor="start"> /index.html</tspan><tspan xmlns="http://www.w3.org/2000/svg" x="0" dx="0" dy="14" text-anchor="start"> ../other.html</tspan></text></g><g pointer-events="none"><path d="M286.9063022296462 24.246597374793538 C286.27675952739725 25.39686800806027, 285.2114307872125 25.684791700101844, 283.68280288334955 27.3657270836526 M286.97651626976426 23.999303956093737 C286.48387103858846 24.93606275250401, 285.45131095372176 25.4851419279635, 284.168968944161 27.594163368944944 M297.8113746231482 22.949863812828703 C295.59977590399353 25.841253376425033, 291.6896941949559 31.30732396051525, 284.698496933746 40.51628498779847 M297.81080761332765 23.563625849140525 C293.05939035967185 29.050171399952752, 288.70333695621525 33.67375581456062, 284.57849001000295 40.292854701936704 M307.6316292486363 25.24720649171253 C302.13667069126626 34.29702995432072, 291.92138145863754 42.0899656303279, 282.6792968100447 53.435966274005466 M308.9181987748736 23.391798986937882 C300.7219816175604 34.953920364945276, 291.4250496385174 43.73609993429023, 284.8207185838118 51.96206663638874 M318.4916177347858 24.94685027388237 C307.83147361676714 36.78669066995166, 299.4056776610798 47.12394168592563, 284.3353350404631 64.19831248209664 M318.15245648654786 24.71417097087557 C309.4790926481674 34.61393223937008, 299.3781521332254 45.85855846581241, 284.0961684375524 63.446395584628014 M327.6610541718804 22.153025326626494 C313.08755326966684 42.496824673780985, 298.07588594229435 62.596801672901435, 285.8504819587782 77.3261017807058 M329.57794266866864 24.76581198599882 C315.40722978390136 41.78043023690062, 299.5805828920579 56.73972583366559, 283.94083481909104 76.32478622577574 M340.17772021032494 24.12568244715138 C322.8310064241041 47.03830981198014, 301.4280957987225 67.6502122373868, 287.07683670676215 84.67683372061747 M340.22248675709756 24.59994584549399 C325.5667608394449 40.63149839779599, 310.9898552464278 57.94036976283982, 287.99180069253396 83.62695133150112 M351.60424694348654 23.4909964470586 C339.06566239067877 36.30510057836676, 327.6839986564313 47.52491769752232, 298.9199236160213 84.76983106328595 M350.60195557353734 23.351626924203188 C338.94742176445624 36.67609739599428, 329.3814995698999 49.07340317927789, 297.743793585911 83.96781257389127 M359.38193527859045 25.02333738994504 C343.15819744818884 44.20833350632609, 327.77367481891486 63.08982818525732, 308.2254583900321 83.58820887191986 M361.4129197494687 23.565007951294238 C350.7265331696565 36.58650680088075, 339.89092560483874 49.670013068784456, 309.22740617065836 84.8465743056522 M370.9313455700593 22.560930454082616 C350.9243597203517 46.56018895014739, 333.22118217595505 67.99057579059415, 321.49710941504037 84.07761108369175 M372.35081702036615 24.756134284995277 C354.24151151002667 43.2687905870079, 337.36810253763105 63.69550540266671, 319.9200101654183 84.24038305199096 M380.44379464014474 25.741131454859293 C368.68399916382083 39.76113320731026, 356.7000683701311 53.00149176531811, 328.50244663636283 82.87649377735671 M382.7417148949955 24.72174990569716 C369.1838446684644 38.57916184075163, 357.3030420230779 52.72820662644318, 331.1009963217014 83.43714755147191 M391.0562186847438 24.900034370368175 C373.11997380560706 48.94596891468608, 352.88500268040195 71.99885307691021, 342.3040168121502 82.69967886721342 M392.4113942129765 24.30056923097939 C373.09006459780903 46.76102074374778, 353.656803085357 68.52499205238864, 340.6200846791303 84.69550867078729 M405.27619640999876 25.27943940585912 C388.35297331332424 42.840053699757846, 373.671537853399 59.06218033076262, 350.6369689575313 82.58647030673568 M402.8196743738403 24.542237199956574 C384.04955809305824 46.56002035148552, 365.2407666327445 67.62135764235643, 351.2551993927686 84.02828737647819 M402.16994651230425 36.54911133718172 C392.18892041740645 50.28486932994286, 381.08858702744334 63.470951263997065, 362.20264168190096 83.40559627608975 M404.7698782784491 36.37622049175752 C390.1962233021367 52.250656435424276, 375.7816977898697 68.06731577329836, 361.4743672064327 83.98867003168334 M404.02832717194366 45.9553156349961 C396.79468319386353 57.6554225013382, 385.6340988125027 68.1349065906745, 374.1175650036911 82.13460752272803 M404.0710754179082 47.796743065321586 C393.95352695818013 59.00976766269497, 383.8146126192268 71.19584615117273, 371.8701569493705 84.80779030526416 M404.980870812653 61.125173376684074 C393.8980418179296 71.63983654346164, 386.1100465015091 81.05363967066775, 383.2750048572464 83.57559594296383 M403.0795345687 59.6081119113867 C397.7302406991193 66.46518085026645, 392.9490421429668 74.21298182909416, 382.5793220811125 83.27155225992767 M405.2936714054156 71.11034572995554 C401.0913453720469 76.49863836962197, 395.05090014325543 81.24032127310804, 394.98447967861995 83.4386540002403 M404.75039124318107 72.9164516890147 C401.74501597883034 73.9711918952698, 399.3883812931957 77.62464518721636, 393.3785581334043 83.76935701995212" style="stroke: none; stroke-width: 1; fill: none;"/><path d="M285.82418944723634 25.424645088558133 C317.75050069302944 24.029902527551386, 348.5565954137503 24.16621814036803, 405.91692275534285 25.695878703467883 M283.2553771078166 24.99899609375307 C307.3231469199984 23.106345094790328, 332.3743596372228 23.94814408166026, 404.30158020057473 24.606212376544264 M405.81885301083975 24.433005619015915 C405.19907063095536 48.29892388784781, 405.9045749302992 71.50825359232505, 405.5607738564951 82.9263748598098 M404.3365038007238 24.279616712207556 C403.6294989945321 38.63690336078409, 403.80572034323086 51.75072366765744, 403.5728105121715 83.88881214133885 M402.4708662582717 84.82207379193221 C375.39311661441985 85.06007504892389, 348.9822770478223 82.19342154133341, 283.77638895504185 82.22795980176402 M403.2166805515574 83.78364416063485 C364.6619637757961 83.879610346001, 326.01866490662593 83.24618591958242, 284.6612215375316 84.17096568248816 M283.3727236298246 82.6119602792376 C285.6927151371386 63.45082784522549, 284.4797159614689 43.14041208915625, 284.39734544241475 24.776495992650144 M283.87075977521795 83.76365665291331 C284.728715427302 72.3375805634946, 283.6699289931072 59.21576354824856, 284.7530580974755 23.05447647284265" style="stroke: #000000; stroke-width: 2; fill: none;"/></g><g transform="translate(286.5,33.5)"><text xmlns="http://www.w3.org/2000/svg" x="0" y="-3" style="font-size: 12px;font-family: Helvetica;" fill="rgb(0, 0, 0)"><tspan xmlns="http://www.w3.org/2000/svg" x="0" dx="0" dy="14" text-anchor="start"> http://js4ds.org</tspan></text></g><g transform="translate(80.5,127.5)"><text xmlns="http://www.w3.org/2000/svg" x="43" y="-3" style="font-size: 12px;font-family: Helvetica;" fill="rgb(0, 0, 0)"><tspan xmlns="http://www.w3.org/2000/svg" x="43" dx="0" dy="14" text-anchor="middle">lower/lower.html</tspan></text></g><g transform="translate(317.5,7.5)"><text xmlns="http://www.w3.org/2000/svg" x="26.5" y="-3" style="font-size: 12px;font-family: Helvetica;" fill="rgb(0, 0, 0)"><tspan xmlns="http://www.w3.org/2000/svg" x="26.5" dx="0" dy="14" text-anchor="middle">other.html</tspan></text></g><g transform="translate(96.5,7.5)"><text xmlns="http://www.w3.org/2000/svg" x="27.5" y="-3" style="font-size: 12px;font-family: Helvetica;" fill="rgb(0, 0, 0)"><tspan xmlns="http://www.w3.org/2000/svg" x="27.5" dx="0" dy="14" text-anchor="middle">index.html</tspan></text></g><g stroke-miterlimit="10" pointer-events="none"><path d="M 184 39 L 277.63 39" style="stroke: none; stroke-width: 0; fill: url(#rough-3322995940444031);"/><path d="M184.7988763730459 39.50065638377769 M186.24624040994192 38.24271042904328 C208.223951029831 38.881825902939056, 235.97692868819482 40.52600669394754, 276.8547239384061 38.39942735605817 M185.1095386105072 38.948218598203184 C217.6052418866307 39.101888256078894, 250.32924699659213 39.60924455697904, 276.6795029478761 38.947417714309495" style="stroke: #000000; stroke-width: 2; fill: none;"/></g><g stroke-miterlimit="10" pointer-events="none"><path d="M 282.88 39 L 275.88 42.5 L 277.63 39 L 275.88 35.5 Z" style="stroke: none; stroke-width: 0; fill: url(#rough-7757977527178045);"/><path d="M281.3678456289697 37.65371539328697 M281.6123045691381 37.18453079278532 C279.7388417419021 38.86130119790899, 277.33018532146474 41.868333416298675, 275.1520827623512 42.24040664270899 M281.3350250425377 37.7797249667973 C280.546960465668 38.64479514498381, 278.7751080030271 39.899980292059674, 275.9862832300025 42.187668763881405 M276.0466518800684 42.81039071676876 C276.05066163754327 41.3333396787497, 277.1117703785096 40.4167780041181, 277.42647290639246 39.323300903573255 M275.7020601011028 42.4251565534488 C276.1398882737899 41.82937946832116, 276.91425111397115 41.012222024690956, 277.5022517976824 38.84684328110872 M277.41262634328746 38.900362675013746 C277.08215215466913 37.70938984770317, 275.943168285092 36.52605755674075, 276.002420749789 35.55432700174778 M277.73472834270024 39.07747940154286 C277.0619749764323 37.94224620252641, 276.4876464287905 36.80858760869055, 275.7397695364547 35.40240955383662 M275.94831539157684 35.06187414382752 C277.3214340477729 36.677290579785115, 279.3184402933801 37.29240034074864, 281.31543659884136 37.91982164281953 M276.16953688889305 35.28909119360345 C277.8104827589571 36.48509644500736, 280.2159979743311 36.96562309653779, 281.4330664978787 37.914962046852736" style="stroke: #000000; stroke-width: 2; fill: none;"/></g><g transform="translate(214.5,30.5)"><g xmlns="http://www.w3.org/2000/svg"><rect xmlns="http://www.w3.org/2000/svg" style="fill: #ffffff" width="39" height="27"/><text xmlns="http://www.w3.org/2000/svg" x="19.5" y="-3" style="font-size: 12px;font-family: Helvetica;" fill="rgb(0, 0, 0)"><tspan xmlns="http://www.w3.org/2000/svg" x="19.5" dx="0" dy="14" text-anchor="middle">relativelink</tspan></text></g></g><g stroke-miterlimit="10" pointer-events="none"><path d="M 184 69 Q 224 74 224 114 Q 224 154 190.32 158.21" style="stroke: none; stroke-width: 0; fill: url(#rough-8882860662159571);"/><path d="M185.26600261338618 67.31748444182885 M186.32930041710958 66.7601178758011 Q224.13890007700874 74.53877736084377, 225.0390360945775 113.87526218011965 M183.59011401344614 67.0345480815342 Q225.69414861303585 72.48615502690774, 225.1010563398472 113.90471127304812 M226.2800338751818 114.52583627079744 Q223.61492447895884 154.11849491411806, 190.85994056438938 158.32944215181547 M223.6273710381798 113.87690159327889 Q222.43793714010195 152.9061553817054, 188.71062002123702 159.73551923301807" style="stroke: #000000; stroke-width: 2; fill: none;"/></g><g stroke-miterlimit="10" pointer-events="none"><path d="M 185.11 158.86 L 191.62 154.52 L 190.32 158.21 L 192.49 161.47 Z" style="stroke: none; stroke-width: 0; fill: url(#rough-8348893412856519);"/><path d="M185.92779052359856 160.49332264823136 M185.64121786366618 160.90301071358513 C187.16896683239437 158.57070391059665, 187.76613794825866 158.12657742943688, 190.98039909958143 154.2944620661423 M185.94116477428875 160.7018612723631 C186.8478550456004 159.14470735321842, 188.81595764710497 157.75250475571374, 191.72027380340103 154.64110565382109 M191.9695000091008 154.8342062666984 C191.6110459893656 155.1474578214607, 191.35483499932525 155.84047130956444, 190.09677723737855 158.09498978512704 M191.76548181857657 154.47379082877848 C191.4506796976061 155.4559179494026, 190.9403906111923 156.60900050308337, 190.15760988712637 158.0144232478659 M189.94935462090237 158.03166417339025 C190.63549980030814 159.45867988949655, 191.80583659638646 160.15805111691128, 192.1074592084677 161.7646063728454 M190.26712639766887 158.09534922243597 C190.84834651619144 159.14678072692593, 191.4566786373042 160.0209851026622, 192.40283969321615 161.35270779494851 M192.1698277165171 161.83126458487826 C190.32112576579638 161.76440596046763, 188.44274752204862 160.26432728849963, 185.3153970969795 160.19614515580548 M192.61314930423094 161.25082555776805 C190.06400690863882 161.25870374129875, 187.69600721907912 160.7697982408596, 185.80735036947388 160.37915687423248" style="stroke: #000000; stroke-width: 2; fill: none;"/></g><g transform="translate(204.5,90.5)"><g xmlns="http://www.w3.org/2000/svg"><rect xmlns="http://www.w3.org/2000/svg" style="fill: #ffffff" width="39" height="27"/><text xmlns="http://www.w3.org/2000/svg" x="19.5" y="-3" style="font-size: 12px;font-family: Helvetica;" fill="rgb(0, 0, 0)"><tspan xmlns="http://www.w3.org/2000/svg" x="19.5" dx="0" dy="14" text-anchor="middle">relativelink</tspan></text></g></g><g stroke-miterlimit="10" pointer-events="none"><path d="M 64 159 Q 24 154 24 109 Q 24 64 57.82 55.54" style="stroke: none; stroke-width: 0; fill: url(#rough-7645169011360477);"/><path d="M63.54179105609846 158.93194720465215 M63.80194487111579 158.2567619769404 Q24.75921286206895 153.15661293044207, 24.211025895153885 108.3665133923479 M64.52808195455877 157.38817685991992 Q23.440765890017264 153.42682136485737, 23.231380648794566 107.57673716442791 M24.361691910827023 108.35851717397034 Q24.631667117174548 64.36562190821905, 58.37465396734766 56.595534658622064 M24.45564877386838 107.0335862433929 Q23.67567245441386 64.84955796170703, 59.05485218130394 55.35784833491115" style="stroke: #000000; stroke-width: 2; fill: none;"/></g><g stroke-miterlimit="10" pointer-events="none"><path d="M 62.92 54.27 L 56.97 59.36 L 57.82 55.54 L 55.28 52.57 Z" style="stroke: none; stroke-width: 0; fill: url(#rough-4556914455779103);"/><path d="M62.05695206583227 55.28435622777801 M61.637506671261676 54.742130276183374 C59.99624104292619 56.91498905342003, 58.65122677619406 58.41869448217048, 57.04605852285715 59.24348426941438 M62.06659926583807 55.31856572363188 C60.8246485957615 56.511806441065815, 59.365822348926024 57.300266327798745, 57.091620917932104 59.49145484286486 M57.13084230880969 59.47027682391913 C56.9784182945884 57.964045460415726, 57.26605809325024 56.3250817968407, 57.93953962024668 55.77112260444514 M57.01013603706131 59.39243153426477 C57.1194448919574 58.21541176449438, 57.48687588776761 56.83857864265665, 57.927283258736175 55.52833842148395 M58.1719424906412 55.18560570738438 C56.91142665049615 54.63510376285664, 56.128930563951215 53.19434738013864, 54.927627373917474 52.66304433213198 M57.679172660276535 55.43119312555279 C57.056783703670625 55.03735498468744, 56.752020086673426 54.24107773456209, 55.28533112264012 52.49131944852454 M55.792962313473176 52.121061295057714 C57.674509267643145 53.786504709049915, 60.10689054279111 54.49415432770106, 62.00405488235834 55.78042171508362 M55.4811555066976 52.92234936494733 C58.15822225475007 53.87398305754728, 60.250965269287875 54.55946282836954, 62.302732690912165 55.58637044813837" style="stroke: #000000; stroke-width: 2; fill: none;"/></g><g transform="translate(3.5,90.5)"><g xmlns="http://www.w3.org/2000/svg"><rect xmlns="http://www.w3.org/2000/svg" style="fill: #ffffff" width="45" height="27"/><text xmlns="http://www.w3.org/2000/svg" x="22.5" y="-3" style="font-size: 12px;font-family: Helvetica;" fill="rgb(0, 0, 0)"><tspan xmlns="http://www.w3.org/2000/svg" x="22.5" dx="0" dy="14" text-anchor="middle">absolutelink</tspan></text></g></g><g stroke-miterlimit="10" pointer-events="none"><path d="M 184 189 Q 254 194 249 129 Q 244 64 277.68 68.21" style="stroke: none; stroke-width: 0; fill: url(#rough-4259276142978895);"/><path d="M182.64980863715962 187.8249615924125 M182.49712687932043 188.80330565445374 Q255.1303776518429 193.20614223792856, 247.9362252074843 129.66048842715136 M181.11316121148596 187.40799462674275 Q253.86613674701763 192.83797548970023, 250.69263783449486 130.5578826245297 M250.58508101174243 130.10506303442187 Q243.4759819991287 64.36086920555674, 277.73442802295676 67.51537596106178 M251.73220813498872 130.5508284772335 Q245.20066448364838 63.355138612320765, 276.0643630962921 66.87120573898608" style="stroke: #000000; stroke-width: 2; fill: none;"/></g><g stroke-miterlimit="10" pointer-events="none"><path d="M 282.89 68.86 L 275.51 71.47 L 277.68 68.21 L 276.38 64.52 Z" style="stroke: none; stroke-width: 0; fill: url(#rough-6892639868477771);"/><path d="M283.145054210539 68.25612024751918 M282.3744777938617 67.56419604972757 C281.00629124987296 70.02766465159715, 277.8182536751607 69.83394613664555, 275.5525106704806 70.7108678198426 M283.16875784438423 67.9977028084717 C280.303790522003 69.31300289589964, 278.1000121405346 70.19040068369658, 275.75769689792617 71.77132758834688 M275.77733001539843 71.69900173470283 C276.16471024804713 70.43604622045716, 276.8448323682655 69.26593670011407, 277.55112511341434 68.55854084774724 M275.4556282384346 71.59084593291294 C276.20778237069123 70.66055399334502, 276.64965450074266 70.13107905718562, 277.82170931722015 68.30881059808178 M277.6508274671772 68.29917116544198 C277.0341391995964 67.27286770568332, 276.80157882960077 65.40009434977699, 276.4178596393804 64.51235646932447 M277.6052334424967 68.3149410463092 C277.46013019329916 67.30348167598947, 277.00827108275246 66.43847904833608, 276.4935970734581 64.53023506476887 M275.71956603140774 64.60356253894548 C278.1922634090183 66.24893503215691, 278.93612614618854 67.15130860184108, 283.88664257467644 68.15885346601685 M276.36897405980733 64.66292868962186 C278.70401647469015 65.803484942959, 281.3245715662067 67.53231659310744, 283.3574015432871 68.03613179133565" style="stroke: #000000; stroke-width: 2; fill: none;"/></g><g transform="translate(224.5,140.5)"><g xmlns="http://www.w3.org/2000/svg"><rect xmlns="http://www.w3.org/2000/svg" style="fill: #ffffff" width="39" height="27"/><text xmlns="http://www.w3.org/2000/svg" x="19.5" y="-3" style="font-size: 12px;font-family: Helvetica;" fill="rgb(0, 0, 0)"><tspan xmlns="http://www.w3.org/2000/svg" x="19.5" dx="0" dy="14" text-anchor="middle">relativelink</tspan></text></g></g><g stroke-miterlimit="10" pointer-events="none"><path d="M 404 39 L 497.63 39" style="stroke: none; stroke-width: 0; fill: url(#rough-1420141622744967);"/><path d="M403.4717507433315 37.06636146504715 M401.58068969147496 35.626776033145994 C441.1089709681122 38.62210931793197, 476.55659235753063 37.13737740995044, 497.3098249335009 38.03782412967108 M403.46766063738386 36.102714153454876 C435.87973865137576 37.38813313200038, 469.49516500910806 38.47579980833446, 497.2828936642455 39.120943671486394" style="stroke: #000000; stroke-width: 2; fill: none;"/></g><g stroke-miterlimit="10" pointer-events="none"><path d="M 502.88 39 L 495.88 42.5 L 497.63 39 L 495.88 35.5 Z" style="stroke: none; stroke-width: 0; fill: url(#rough-8341418912898295);"/><path d="M502.4823508749074 37.64935233059423 M502.01729410446063 38.14410987834707 C500.95277442692674 39.441781234020254, 497.63874924119807 41.278068741648674, 495.0861556647008 41.909656309153824 M502.76178885786237 37.716797236169526 C500.39115112275863 39.097884125540915, 498.10114360253743 41.05692400884668, 495.77966590509266 42.83466436290132 M496.0024199648192 42.27167441534682 C496.50612205622076 41.4952373355534, 497.1518859609485 40.02216953451986, 497.42062818231267 39.10400787857611 M495.8867503959842 42.48193509527893 C496.42583058697113 41.18794104019906, 497.11292839485594 40.074344205073594, 497.43930739773714 39.03367346880847 M497.41875461308064 38.68760848848412 C497.07621677532023 38.29961758919102, 496.7933252864063 37.17832915331802, 496.0463829483899 35.16479579014778 M497.72438377230435 38.96321058109164 C497.1198428422721 37.9110591420515, 496.5733302541356 36.53418619514051, 495.73714540605545 35.419489810736266 M496.338856345905 35.09444641826435 C497.102776124774 35.939177050879934, 498.63665159461215 36.820249652661545, 502.58317516955105 38.23368281867396 M496.213051716301 35.25621943696423 C497.73174074220253 36.181829885907774, 500.1587060016658 36.83960736357857, 502.6313204832435 37.931493330241786" style="stroke: #000000; stroke-width: 2; fill: none;"/></g><g transform="translate(432.5,25.5)"><g xmlns="http://www.w3.org/2000/svg"><rect xmlns="http://www.w3.org/2000/svg" style="fill: #ffffff" width="43" height="27"/><text xmlns="http://www.w3.org/2000/svg" x="21.5" y="-3" style="font-size: 11px;font-family: Helvetica;" fill="rgb(0, 0, 0)"><tspan xmlns="http://www.w3.org/2000/svg" x="21.5" dx="0" dy="14" text-anchor="middle">externallink</tspan></text></g></g></g></svg>