<svg xmlns="http://www.w3.org/2000/svg" xlink="http://www.w3.org/1999/xlink" version="1.1" width="349px" height="149px" viewBox="-0.5 -0.5 349 149"><defs><pattern id="rough-5577915635865861" x="0" y="0" width="1" height="1" viewBox="0 0 100 100" patternUnits="objectBoundingBox"><path d="M5.845982161654399 -0.29912431890341973 C5.1565950375733145 2.1237123461413066, 3.9718778473939778 4.359630737204009, -0.5030553705224531 7.1301829284231415 M6.464951604201474 0.48227841202108257 C4.45649725570847 2.670444881541573, 2.4683277284026692 5.062677557168177, -0.33324814696005195 7.653165107040182 M16.763525608134938 -1.144115493754195 C12.050840161878469 6.69897177297681, 2.2822623055801943 16.006343897719564, -0.568472676215543 20.895216586799833 M16.85203515752803 0.3276775669982652 C14.258423346924499 5.358071601392747, 9.577837427148278 9.665734525236235, -0.5285380145821521 19.67731503840508 M27.956158187042647 0.6891397926369276 C20.639287475600778 8.831007631551413, 14.183692449251806 16.542048132895314, -1.12897369422687 31.833492924982878 M27.490689829010215 0.47163925401139517 C22.167605317594525 5.513660595228647, 16.462780203478918 13.733270325811892, -0.2237486310841672 32.98419604437262 M38.13096843979743 1.8109706286126093 C25.880687104630503 12.319141902439874, 16.84687291917652 25.703983502376673, 1.631273030945997 45.5941470465968 M38.211550188436185 -0.5738179996583859 C28.031713137952927 11.972243684492103, 17.03544568748384 25.44602154862949, 0.05220124223640754 44.14086078167394 M47.71509529080231 0.6695424969597932 C36.9970119153065 14.884913809922272, 25.326738058350745 28.017630928623284, 1.0304475278484944 58.571464963589236 M49.56329432810158 0.3172903762402499 C38.36192668005187 12.68618394452207, 27.88513989621384 25.023538553700504, 0.34425385835640254 56.35185057414312 M60.506787448998274 0.18126510751253022 C46.001414903283035 15.833320839201122, 28.201823640273417 36.9618760986332, 1.1819931291434278 68.08952734008025 M60.55944739828274 0.17496557626728126 C46.38954846173857 14.648623006836875, 34.27512249364897 29.817155329149017, -0.3113838781376006 68.66333286669997 M69.369670148912 -1.0695813407361676 C51.19427424296824 23.688822728306913, 28.655046666964967 47.58223966109744, -0.05698972884655884 79.3699747465685 M71.30784299849078 -0.961495192351002 C54.62523598955127 18.86098220261625, 38.16692811798831 38.633480619113506, -0.3467070422285228 81.14637014636989 M82.69881706794065 -0.7540209378610934 C55.7848271335171 29.119390019115347, 34.44030935379558 57.24999237352227, 1.905023549111914 94.1256380714635 M81.14752383356728 0.050145857972167196 C56.18041997288602 27.91057905111032, 30.014964248125207 58.16534926656777, -0.40821225485912827 92.4259200256394 M93.09788015694406 -1.25892822808198 C72.66182285958185 21.019881744978676, 54.82284336831147 46.872076775043716, 6.021667352029311 101.35851716272508 M91.34734479963534 0.7987700669761275 C68.59527558925907 26.40057176560707, 45.86919010909499 52.294470309557106, 3.8092226051430513 100.81117225194308 M98.49311532428938 2.195653318523104 C79.0578956881503 24.97292264019922, 62.317229506105306 46.13352342271925, 14.571187335116935 98.3189918270094 M99.25017596984529 3.2545867387720024 C69.83671883949299 37.279354723556395, 38.63972534209068 73.88175972797177, 15.831990763524779 99.71706540075427 M99.82993044535353 15.475646256952627 C79.0904729248464 37.400434281428865, 60.033922241763136 61.63613955669341, 24.62666981025653 99.74301433885023 M100.01243002620883 13.764964572860606 C75.61862745849116 42.56121298524629, 52.080329385440635 70.68634171231238, 26.83299314163922 99.96899692278338 M100.04888559668646 27.294547776794012 C76.67106420032252 55.28500569326443, 57.28807360166297 81.31838766524685, 36.36693793342434 99.3931179449445 M99.94200380421678 25.96381855411064 C76.96484851164804 51.23012346357396, 54.67994180652147 77.12093642038728, 35.66074914046194 100.93318021401515 M100.6245327425734 39.51809647920247 C80.67361178363014 61.3564243033667, 60.13089355165689 82.73330795061086, 47.9126248784425 98.4287226568581 M99.54937580545464 38.56933020690379 C81.7573992918643 60.071004061393914, 63.93104823483583 80.47807820843477, 47.42414338539632 99.06390836233953 M101.24359415344414 50.017889497264925 C85.7026427700349 67.97091179979762, 73.42077463668252 82.66947290515122, 56.88306741292287 98.92069960191677 M100.57183658471322 51.903666616923495 C91.0866297519676 60.885785029255246, 82.70985511754651 72.30728060748694, 58.6284567415764 99.70812624728349 M99.77167811146626 63.156413176815136 C88.8503535364438 78.15425578373515, 74.13323465427749 92.24093032993089, 67.55937142798919 100.4422669201582 M100.6920217556927 64.06661295357455 C89.55404852225499 76.38869997090141, 76.5945724513942 89.0659874871539, 67.65565505659274 99.07404241515165 M99.65285458103507 73.96469438262741 C97.18990272053567 81.1506547486394, 93.27423994782468 86.76500797904734, 77.92502888738346 99.82840778458956 M100.80151186915388 75.61500042933419 C94.15175850142697 82.75215011464493, 89.00432254363625 89.0679990985185, 79.00036195651995 100.4980470064836 M100.46547863260606 86.46890680850179 C96.82571971074468 91.5704925914306, 96.1964844712183 91.8994394470441, 88.47478905305181 99.19087568393981 M99.30204191225862 88.52703451664551 C97.1497223361132 91.20541959029921, 94.69050444548381 93.54417531025955, 89.97181392718318 100.42983854832373" style="stroke: none; stroke-width: 1; fill: none;"/></pattern><pattern id="rough-3671038012199069" x="0" y="0" width="1" height="1" viewBox="0 0 100 100" patternUnits="objectBoundingBox"><path d="M7.028987328801578 -0.7283837059764144 C3.5114319089304753 2.027888780412376, 2.0839407343869043 5.979973073591106, 0.9265233908295984 7.242970001395533 M6.378269399174247 -0.020133795606220917 C4.0993195879519755 2.867854058778743, 2.333897548260628 4.75611982705727, 0.2139244731800941 7.7727383085826505 M18.010581647760247 -0.43722788782140753 C11.403177931604532 5.6887343636013865, 5.753183376994853 10.154345349637731, 0.5857083881654441 20.593167941544554 M18.2019471649465 0.1576260589939915 C11.419819200439491 7.735048474783351, 5.090762385935571 14.049991088895657, -0.01631216079162856 20.9329643963927 M27.25032399918258 1.27764197883827 C21.04541803609519 8.282692899630213, 17.241499340407728 16.06725398337311, 1.591758686771482 30.609048199258154 M27.686986329196337 -0.03735510409225329 C18.38819357670925 11.890579605823733, 7.9520419818518 22.249535811375008, 0.582329262585306 31.780316007187846 M40.09875459948991 1.7216267004788222 C28.84060466857369 12.034875518768615, 19.65392545877102 22.953042417631494, -1.45088124444531 43.247707486172835 M38.99498413812067 0.4892375784848717 C29.769665831198648 8.915020899085338, 21.403564120206923 18.874135792469914, 0.005859353298331982 44.56448769878305 M48.20462611804087 0.6262669395127203 C30.112546154330794 22.21118857389451, 11.305382146268954 41.1439214829899, -1.6401299391106292 56.934827679513965 M48.73087506558223 -0.9803327663767529 C31.4706607955114 21.34769153667219, 11.845801108565535 41.693662229925465, 0.5967578734285293 56.62669405016402 M58.14126422853141 -0.3534578167489313 C43.68325829516851 20.828234513913117, 24.691762554881173 40.86513068122441, 0.41344069005362716 68.95424535469499 M59.12150153217998 -0.17803894172019197 C43.76757358159599 18.06827805983458, 27.70588021798515 36.22809908619009, -0.6973219317210684 68.41278102225529 M71.46877028362802 1.5127505328792532 C52.89489516164278 17.78124331990509, 37.33597485245365 38.467002406636496, 0.5819316327884732 79.33254481382656 M69.44693421139173 -0.536912644554306 C53.29439526654496 19.67230939391344, 36.201509045700014 39.421782883684656, -0.9184502398367966 81.32815436747326 M81.91857423381076 0.8069388589120621 C55.93778950899092 27.89950435344086, 33.95674466417541 54.18804761357896, -0.9899011689696655 94.29198195463997 M81.4713326160539 0.4686889146601856 C48.456080876786004 37.24270568590681, 16.86930869504218 74.0727984166442, -0.07950284547189312 93.71954230647839 M90.2130935227282 1.1223207547900937 C59.71677963649545 37.8924041635871, 32.14738903519808 73.19011434154582, 5.367189514150954 99.12193267450957 M92.53438198264378 -0.38487074366699003 C62.9024748970055 33.41740694793688, 35.561427460097846 64.30575583193048, 4.301502475218578 100.7821761024143 M98.00167136718392 4.385987008548266 C67.2379507928793 36.97297760527045, 36.010314416110326 76.03506742907565, 16.046459052403055 101.2170925613561 M99.87063065233181 3.246241541785256 C71.21375184454344 35.76164583985582, 43.06665453617736 69.43902578742242, 15.248913258844384 99.29223170904787 M99.42713396371666 14.217796140428899 C74.31886065797029 44.03817081391753, 50.27676718105998 72.08374557898026, 26.16753097338799 99.56339607084085 M100.09924715088897 15.117056575579312 C81.47861904586468 35.852215320654345, 63.708730631629535 54.871731996664515, 25.892447654403405 100.77665126539375 M98.62205739389644 26.766077241119447 C76.53970161946349 54.11340449155977, 53.43491927708703 79.35250765814513, 36.01892005040599 98.32230030214518 M100.470396304341 26.93411966242597 C78.65008770937587 50.585086913468636, 56.50251212031617 77.08124619254434, 37.370719679664035 100.39846427972051 M100.1646980470777 38.87680028250085 C81.78190587855697 62.51358453869892, 64.52220594366001 82.3345812220339, 48.78265234146203 98.02582959947745 M99.35196217822741 39.53429311801246 C85.86466007044908 56.44067842208854, 70.25076535098175 73.36420560973244, 47.25691616236 100.24600924474082 M101.83239901662841 51.24667428206192 C90.44993803477038 63.97636764853791, 78.30130575420434 74.65881853778866, 58.49746904419281 101.10694091579477 M99.62071763824304 51.821655778183334 C89.35099761534865 63.77243839571529, 78.41866132777349 74.77434450856347, 57.92250491242114 100.09033680855735 M99.31995700630252 64.22809903199196 C86.86920030813023 75.45126160706212, 75.94864645503463 92.37172688980358, 66.5243276681862 98.62128964206458 M100.08247920539554 62.537425917287806 C89.10966583685605 75.23008970834857, 77.57045679568914 88.36106375081366, 68.52798678732296 100.1855653336444 M99.88220785773548 77.61863061822649 C96.2886234833483 80.74159625905202, 90.5466607220773 88.24279013844, 77.88570138332824 98.85798212598164 M100.16487622187103 76.31468914029058 C94.33668111924975 82.3029807025164, 87.78479736742744 90.24928463517219, 78.18550976122484 100.82266186819278 M98.4387269704624 88.42494578798838 C96.69296460336504 93.28150941492045, 92.71276199653694 97.95384231174519, 88.55333461905181 100.82676056558131 M100.52901418328403 87.16299180873338 C95.49156646552291 92.04692073296145, 92.94039509373856 96.54078423699472, 89.88579168849374 99.559814656298" style="stroke: #000000; stroke-width: 1; fill: none;"/></pattern><pattern id="rough-5420863189222831" x="0" y="0" width="1" height="1" viewBox="0 0 100 100" patternUnits="objectBoundingBox"><path d="M6.9150182677940535 -0.17317580905645624 C4.659032153602848 1.7698503472623888, 2.5501770343280077 6.409445765925053, 0.09130537703515618 7.699928729711601 M6.513068486689055 -0.049699559030772444 C4.856642415227156 2.309256561620226, 2.0587777240974314 5.450453432400838, 0.10390964878991504 7.862097114105628 M15.811308393594818 -1.78797556632101 C12.379978480488354 6.538678530190869, 7.86707972789966 8.930295176862149, 0.5484527327125805 21.53318877795145 M17.423159504582337 0.44019501829644136 C13.620571233169724 4.0597905055095636, 9.593412536468403 8.097702749969887, 0.15333129952912872 19.4980995025329 M26.9299187290066 1.9433197523517798 C18.41146602015909 8.57100156000852, 11.592168306266274 19.172887743672124, 1.0495128936187896 31.62982500736493 M28.72972868025355 0.19630257078502833 C16.744856675531675 12.67891594317661, 6.646594524792058 26.377320285824226, 0.2757846320863724 32.80077830849241 M38.22570826444357 0.06776602972640422 C26.433353449350328 13.94161120842854, 15.020313488699276 25.194739513357945, -0.19897183638176674 46.31539188450195 M38.75725725253287 -0.025088640073364754 C30.257066306946253 9.82420724410894, 22.279652223142396 19.065737651918194, 0.02686076858598474 45.35490440238367 M47.23539251239087 0.44709714655693666 C33.23832267649857 16.836202653639006, 18.844328108725 35.30000115238136, -1.0354656962460735 56.40694176604246 M48.58895308844846 -0.9219084343613422 C30.985514520550193 21.547987704952494, 12.93215483905032 42.07705112852554, -0.4562006947655606 56.60655058263903 M60.15501741891994 1.053616873423131 C45.06245547653242 19.582935059859636, 27.61499783564497 38.01375818446236, -1.6268941142363138 69.60687524729153 M59.43864777298433 -0.8375100697993885 C44.87708405258179 16.252100169232254, 32.184802562347016 33.14765405522695, -0.4391876778138952 67.83510871792299 M68.55564575548811 -0.5430865241073892 C43.374377212998986 29.665373497739093, 16.84432186313732 59.945986767661665, -1.9383342006815703 82.61527841654932 M70.28146139606774 -0.30295660232506183 C44.40769739627424 31.537942311544533, 15.706058400609534 62.00056454988936, 0.8160220794357151 81.17895775570938 M81.38482205735714 -0.943710658139782 C60.57555364367637 24.785330391825042, 41.82280484831849 47.268254005236244, 0.669656152233574 91.69739827359444 M80.87724213120238 0.06862765254041214 C60.662315727221376 23.768010916983272, 37.88400779535404 47.73493281560617, 0.6310271881387344 93.15894198792309 M89.68852245849934 0.9195295814286606 C68.56812943865218 27.66802954209478, 44.9677965593974 53.81050238593933, 5.003653376628783 98.16748948815608 M92.17910736401235 -0.523254730230037 C67.21561395062827 27.17371938733835, 44.05123050989917 55.457271604484575, 4.338313179305253 100.70381455213632 M100.50418180372999 4.404751892299726 C77.3389912818287 27.22540923855119, 58.46167602542102 52.661612973396, 15.568399473404188 100.29017504087263 M99.2607678243936 2.157916193338984 C67.38322419148757 40.22087622357962, 34.66520724004019 76.56057061351696, 14.363471460417278 100.89641358320537 M100.40479404896399 15.847601742081757 C75.22544155996182 44.26836157600202, 44.824152459585996 79.17369998076852, 26.382785746149793 99.2222512561299 M100.18220488279343 14.600133314525765 C72.12780552810904 48.105634276044704, 44.18956710706397 79.7394234348981, 26.467321830872947 100.46593483615445 M98.48638076331612 26.593196556923864 C86.0719848147174 44.06587393021072, 69.98415739333585 62.16364551839788, 38.048568822168036 98.95961778181159 M100.48264332045636 27.787120678763294 C77.0891223013632 52.21708513045838, 54.399200414002465 79.27491449855629, 37.449073206021275 100.71210796343131 M99.78409471007629 40.8377242554109 C79.4802626290711 60.715338993954006, 59.988246638653195 85.90590109228694, 45.87236203098661 99.42518381573828 M100.39646706876145 38.94831259280915 C87.8390176958528 53.14480450839594, 73.44084297134279 68.01784840397654, 46.715777569992206 99.8481193704652 M98.22738594026512 51.28361393381726 C88.22122916105107 66.49846417833155, 73.85617951962223 81.17549546841613, 56.57564071782816 98.62834915922197 M100.18198331639947 51.342376896042396 C88.74821584337124 65.9331638731843, 75.28822546949915 79.64001612392822, 57.614781936806736 100.58770666408127 M99.04258608971875 64.24156795333643 C87.72925609455004 74.89832457996965, 75.83156015933986 88.59258964208476, 67.94863381308393 100.18278014712337 M100.70503383128546 64.00996141691151 C89.32472547561451 75.16764629573127, 81.37539795358546 86.24575973317809, 68.77010344831754 99.76467493426217 M101.69045054354488 75.65200517191909 C92.90561475402528 85.42968855918909, 85.3352757281348 95.0487495919333, 77.77915245278413 100.7172870914116 M99.97732631569573 76.02523766287668 C96.03258560719621 79.85013501702711, 90.99299914354654 86.28664007095901, 78.6921307305716 100.46777156120933 M99.55696643493182 86.46205810571284 C96.71138942854536 90.79592901743912, 91.48892050029528 97.0475528243139, 88.88400580085742 100.24515494140337 M99.52848467269597 87.76725502202437 C96.86156397014548 92.1696921538121, 93.41083929057072 94.95972945879936, 88.75349771991729 100.4134853607627" style="stroke: none; stroke-width: 1; fill: none;"/></pattern><pattern id="rough-5644960734760821" x="0" y="0" width="1" height="1" viewBox="0 0 100 100" patternUnits="objectBoundingBox"><path d="M6.5926920999935765 0.8436906026243132 C4.298998914658222 1.980207350372328, 2.1957605921949535 3.3767852626679655, -0.0981963209310115 8.720578241380148 M6.408116218328754 -0.12326032496073602 C4.891799173448911 2.0819904174929085, 2.2958972836591256 4.931555991194223, 0.3957449649165129 7.649362830856772 M18.470925041507968 -1.8884529047968037 C11.596439460655208 3.991506676507834, 9.031134244693817 9.904204210532582, -0.1427984822501367 20.643009589668992 M16.8891782263195 -0.16096016984807537 C11.386157616941244 5.576783779165107, 5.535150414804445 11.91671067136715, 0.22123749519939873 19.777720502890286 M27.915808587902266 -0.851310437201068 C17.68256806753393 11.567249581649767, 7.348320434516564 26.460442286715647, -0.9591560106390657 32.73341312383974 M28.028512921464372 -0.7103327974464886 C20.923659051618944 7.722847874864297, 13.247052597709096 15.993896829226946, -0.6870224435125074 31.296883895352742 M37.784211915292545 -0.42316180934756176 C30.677979320062683 7.905974758483417, 21.554962246051762 17.867866026714598, 1.0930348726693788 46.21003990507428 M38.5996636223133 0.4569814726720778 C23.9019212660281 17.03423372981788, 10.494589088851217 31.68477849246854, 0.09195510954504549 44.66834045230239 M50.90558834485446 -0.2634074800356103 C29.055920400220796 21.962446665786135, 11.794152120630983 44.70310022140334, 1.1036222048530986 58.40850739226157 M48.58558561378354 0.9870237244531928 C36.968983655615204 13.690366228852957, 25.6717802784253 26.3041320411419, 0.23056741314552998 56.57713478960753 M59.009713936286666 -0.8898429026624202 C47.95179399352951 15.559167361648726, 33.11015940401031 32.14652644283478, -0.3887518590773187 69.76338220743055 M60.59432793597698 -0.6419947219459541 C46.28211012002803 14.764649172225216, 33.0241979898526 30.947167487504718, 0.356364765176453 67.96847584572662 M71.78791116733655 1.461559548924905 C43.687012945038006 27.964152770967253, 17.916341342283257 56.4056409477147, -1.7123074019407012 82.08014052782039 M69.55596746871777 -0.64680717820693 C43.77606356002336 32.61444699556757, 14.63498974899258 63.501821956557826, -0.2538249012928282 81.97461450639835 M82.63996295167696 1.2806005648594203 C55.724965862229865 26.969060820788723, 32.86139713373039 54.79780067221554, 1.8928999121762207 94.4845504005655 M81.77449509989954 0.8798115494759067 C50.22243506969875 34.30932383709775, 19.963765074798232 67.86722445114158, -0.28000260386024634 93.93654237228147 M90.94550552482501 1.0433872308400396 C70.72573890804529 21.355352816238245, 49.41636697289477 44.1154367947228, 3.6802544270172355 101.98381241156423 M91.18577206412651 -0.4212422655744188 C70.90533127300678 23.86355789476586, 49.24955987805651 47.917764834948954, 3.7850299427623604 100.0094377602615 M100.37262173409195 3.72165350380597 C66.7319319674263 40.60055176548784, 34.077687150557566 77.69883412229848, 15.098702991791079 100.87443691074354 M99.3196152554003 1.9712609351213168 C80.0855370622244 24.7724426261817, 60.897113047937644 48.61695132646432, 15.53228082439318 100.16131971737231 M98.73247205516763 13.827652979260819 C76.67173277947488 41.71202850996462, 55.217048796614876 65.32260726417617, 24.779027338042532 101.03336353006398 M100.23883293221333 14.921482449879164 C80.33814642794493 34.61838260650952, 63.56559935470188 55.813039006509605, 24.907727620766153 100.89771007827778 M98.579228801061 25.826295912885634 C85.58928714933171 41.79817033737146, 75.41105827634478 58.95584311655457, 37.339007096209954 101.70493717872696 M100.84140670522315 26.888946415746407 C84.7921611279102 44.56270288528209, 68.47215586528152 61.224786622577014, 37.13313417362006 100.14946289564665 M101.12451819575804 38.616462143668805 C88.41614594962147 54.422076726838064, 75.36665708935114 67.70834722327453, 48.40545238560726 98.0342184895939 M99.61731179165623 39.276482136978416 C83.31845899168367 57.058127194990675, 65.96211557347074 77.21488530301029, 47.5300984170856 100.7024305425344 M101.00342460885199 51.731424406408394 C87.30663885151533 64.02881894276476, 76.93411956202928 75.29174975679004, 56.99580492299186 100.82385748532116 M99.95655283921644 52.303239269852455 C87.58440507721714 65.1449664703413, 75.87424250182754 78.69846168683483, 57.23567188162318 100.31420268353003 M99.8394598556989 61.75417251772565 C88.0284612348292 73.95174484639568, 76.21591260977574 88.55779899272557, 69.35290070514334 101.69296561165771 M99.65792320042986 63.210798012477134 C90.41000343686085 74.76665706306686, 81.40191471430448 84.75478071959648, 67.7086452280706 99.93822120496837 M98.71745314587996 74.19445974024319 C93.2302484076981 84.15756849500193, 86.93212616782613 90.09886820489056, 79.94732533981133 98.24557520121934 M100.81724175435701 75.63860031736353 C93.90062228625841 83.19046322142766, 85.22261328100136 90.83926046864407, 79.36502965840504 100.38746212639349 M98.58266465855434 88.25449307090356 C96.15824199115796 91.1826260163432, 95.66811513822212 93.17768302547334, 89.00308148943132 100.45218306213984 M100.46836682088822 88.40073579902125 C97.10602670187133 90.26757010049307, 95.62485617779437 93.66031700186672, 89.68251805549153 100.45055052862124" style="stroke: none; stroke-width: 1; fill: none;"/></pattern></defs><defs/><g pointer-events="none"><path d="M197.8021899325201 5.35099106181708 C195.49679294811156 7.46864311924598, 192.2546982421668 11.035644278959012, 189.23630558043865 13.550819595772348 M198.0766487036357 3.3299591877607515 C196.78973633713338 5.949083698053218, 194.015129410518 8.109429539723326, 189.544251923727 14.287896877241385 M209.93853719237305 3.292662497947866 C205.64331746122897 10.420655289734727, 200.92529773383364 12.430957152042053, 190.28195241817645 27.635465708416543 M208.9051301200069 3.799067902911416 C203.21945456064617 9.728486092122557, 197.73057076859786 17.224581747776906, 188.08956906394764 27.46111956352071 M220.95946249113032 4.856061333310108 C208.90753646293868 17.84285147227286, 196.12255866573096 30.571375598496225, 188.8352830365676 39.82450371046777 M219.5453942242106 3.918761800289064 C212.40236474360916 12.3746884104012, 204.71359482036524 20.083618945076452, 188.68064165294822 39.42183427347927 M230.3020545973153 4.161625280738701 C214.2495469335738 19.54568939314113, 199.5346724381306 36.42860400630234, 189.85921343339243 50.29681859642012 M229.4592606632469 3.0442085792819937 C216.56932863828183 21.177034393784005, 201.59866210035057 37.74328582013123, 188.7963096899859 51.48539534369823 M241.7750203274163 4.170323602973403 C225.78475384247477 23.494941697752825, 209.15309001639892 41.51302177799107, 190.48384899188497 62.96471610558848 M240.0117288727807 4.134770299843478 C227.12723648637052 19.832717248158303, 213.6737859931387 35.59456555579992, 189.0938765726884 64.21963747181832 M249.5290068015387 5.818509927189086 C234.79709144084578 22.018181208951198, 220.04408742180232 40.03425891332163, 192.283970964903 72.67507194159245 M251.59308845999666 3.761298201332089 C231.83878514671989 26.86232728934155, 211.03317984392868 50.81964921311355, 191.3022053755142 74.49713374663368 M261.76198903865117 2.6266619055873344 C241.08232180360957 27.872199582054808, 219.5494931071026 53.0514821404496, 201.09733941017507 75.8201437408842 M262.2942000173188 3.8920414580246447 C241.75266852271983 27.404950593320557, 219.6710690223785 50.32207194479569, 201.8091363351879 73.25620392520128 M271.99756933971224 3.3569619211793675 C256.1158196329795 24.710953588906815, 238.833639118581 42.447389782744324, 211.16523438665232 73.70742377698488 M272.55697342387356 3.1635723011860577 C258.24016753772327 18.253060078609696, 246.4667893677306 33.06600913303547, 211.23224347164637 74.14257968310318 M283.6121289254719 2.074273856893649 C269.33023028559614 18.10440909220773, 257.36668673898595 32.31666726803311, 221.06551418396037 72.32100529626432 M283.0173642818893 4.975104496087988 C263.4895693880386 26.047586640003527, 243.48263895863658 49.19172807776, 221.95198463949524 74.98568465975146 M291.649257151714 4.191922273257469 C271.00317770002124 26.817055866436988, 250.6399116788824 51.692797724083924, 234.50632100598068 73.93992785980628 M293.24311627057654 3.1855219977758096 C271.09236713460524 28.482593502673986, 248.92588118417268 52.726922805027534, 233.52647607687524 73.28017558542244 M305.27275120496853 2.4791755991190385 C286.2608542977504 23.427339439035528, 266.6091437349522 45.34726420788951, 244.17712871595197 73.10720650849157 M304.01791005764414 4.636595082628898 C281.67021679887426 30.918093998969567, 258.24020236836463 56.503248910869274, 242.799693229304 73.5222705857358 M314.03451384326587 3.978940090360984 C297.44051429458113 23.75213371905596, 280.356577986293 42.96093558918162, 254.19181568766533 74.0123300781002 M314.1833994863112 3.720607961036683 C291.7533339879831 31.748843841897557, 267.39805681523455 59.41236027878278, 253.4446679653508 73.43321318185953 M324.0534966487794 4.681088799702528 C306.09192243792137 26.493050545177184, 284.6422431059646 47.23257155858042, 264.0554772746821 73.2851060701438 M325.7980552805072 4.0063914928917095 C312.7316055529661 20.272531904623843, 298.90982182990524 35.537089831753214, 264.43070608995873 74.3913760658361 M335.737311967164 5.509623556026876 C324.3928994614998 19.645802812348286, 309.4980373687881 36.529427218745205, 275.63261308970203 73.58384448834433 M336.9741540189894 3.153346663109718 C313.99322576011616 31.600662143256194, 289.2457878571541 57.67792723055112, 275.75840499731197 74.54285828156507 M343.24854285666987 8.834752598902066 C322.63657017131146 30.374929462368186, 303.03663835604385 54.23844182248167, 284.35202059197496 72.90970689129614 M344.0049896615593 6.4252540385234695 C325.85896285355864 27.20481491299959, 308.74143069111204 48.31009425476254, 286.4818077900206 73.73694245873332 M343.32250957736244 18.296614833680508 C333.2589722834754 32.454205689692735, 322.3416719870025 41.22647856533951, 296.51312801121486 74.50167233111092 M343.2557093475623 20.08255823936592 C327.3689867337244 37.247376911848605, 311.55524926926546 56.63148656132346, 296.7452879452575 73.54909930912208 M343.38010942077227 32.25376984976255 C336.1229209796408 40.61368271096422, 325.0426406984911 50.65245598582077, 305.38258173778644 74.45324102840054 M343.9775880030186 30.590805994615547 C336.2762754538609 40.92698021809642, 328.9729368107764 48.54128253237786, 307.68419071541103 74.73355058335815 M342.6811845009968 45.21589499275201 C337.16116783336315 50.9844248678803, 333.8058242910524 57.93598253726987, 319.08491331463796 73.95488209390452 M343.1050814664981 44.43627067920867 C335.84924751142756 51.965916806578655, 327.79600916359345 61.31685590872008, 318.0368175946206 73.46547310869096 M343.9072092490212 55.461972417500014 C339.36794753285255 59.28670030636998, 336.96694432717265 63.744863912745615, 326.18975559818756 72.57887100887338 M344.16365707894175 55.677408904705416 C337.0563055319785 62.73809925343481, 332.8203168880808 69.60442617257142, 327.62570353112494 73.88481466680207 M343.87070014553746 67.43749685741157 C342.3702841320715 70.55721361718612, 340.1349094705227 72.4578948763522, 338.46083988996924 73.60597024012026 M344.2165546684453 67.71422271125984 C342.3780630341414 69.75579849091687, 340.9174657236713 72.44725830252622, 339.0826465854947 74.06621374319381" style="stroke: #ffffff; stroke-width: 1; fill: none;"/><path d="M187.78601430176843 4.219767481200921 C226.24795114803666 5.722582332651287, 264.1491434857158 4.2850472867427465, 344.52315352861217 4.124833837842622 M188.08468817491354 3.4088156707622392 C228.364856538747 3.0776835914309277, 267.0952981370103 4.489434744423268, 343.0119508621421 4.0517131892023155 M343.14344448575997 2.937790079483924 C343.4472762834141 32.844652541193824, 344.94951822714665 58.234001948587064, 343.419338064292 75.44201271031481 M343.5925085983414 4.780499099510166 C343.15170262713235 25.20699471971643, 343.22126766716923 44.79036751062773, 343.26573666857337 73.37045053922492 M343.4278994765346 73.3265624190527 C307.1407500901842 70.79218993220805, 267.90175045403026 73.40850918648387, 187.68284986596953 75.73062535141617 M344.0059412694646 74.3436924681651 C311.1581930764878 72.733708751079, 276.94262345863547 72.38054439622816, 188.3180301257313 73.6777671517943 M187.20348430554932 73.86915136376068 C188.36364312843693 51.341722520645426, 190.2555788631853 24.281814354514243, 188.82316442299023 3.0794314807865435 M189.55378501686286 73.43912092123543 C188.32643342747335 54.090573372384355, 188.2273589083534 35.048462356188736, 188.53363813240185 4.081798536529678" style="stroke: #000000; stroke-width: 2; fill: none;"/></g><g transform="translate(212.5,11.5)"><text xmlns="http://www.w3.org/2000/svg" x="53.5" y="-3" style="font-size: 12px;font-family: Helvetica;" fill="rgb(0, 0, 0)"><tspan xmlns="http://www.w3.org/2000/svg" x="53.5" dx="0" dy="14" text-anchor="middle">fetchthen    if (...) resolve(...)    else (...) reject(...)</tspan></text></g><g pointer-events="none"><path d="M12.82843814938516 83.9538471362209 C11.453720520732592 88.04373908506578, 7.24196333513625 93.71253663121234, 4.53791885492656 95.01259718071458 M14.18081146010636 83.3064719483806 C9.646240658508841 87.53409745527924, 6.921513447213344 91.77184333874811, 3.5052233208569987 95.77362565016223 M22.459742782359086 82.99662397686757 C21.62798997075632 88.39248094899742, 15.72228788104296 94.82193475189104, 8.853958049072745 104.24648257537778 M23.833032825076227 83.84084855346191 C19.390898161362674 90.60048761707988, 15.533761358243895 94.77875206282317, 6.776239936627748 104.7451433660673 M34.60429740390737 85.46860649398056 C30.025096119681663 91.23280020740862, 24.728085265695686 93.17902208594155, 19.331542037323725 102.39817373851896 M34.664843885220954 84.81139315753649 C27.72251249985681 92.49880171071113, 21.001771005181595 100.03695337216746, 17.850826137711884 103.05210874424756 M46.6100588167767 85.36211432066243 C42.2418468564497 88.27493127366785, 38.877079190588304 93.56964106782422, 27.846671264008215 103.51743298342271 M46.0110779320072 83.86851640410899 C40.39020039907616 90.10624087076053, 37.083277974516314 95.35961298938005, 28.710597578502284 104.48485591296621 M56.6735904689639 83.49269585628863 C51.987533016478956 89.08018849197968, 49.222436661088146 93.55564249299809, 39.14107105811979 104.30734854511829 M55.737200217689725 83.40390245452286 C51.40221976045957 90.72906861248167, 45.61173835322866 96.98137618464352, 39.2113219722939 103.48670348942885 M68.46310684866769 84.3693489864327 C62.94269815345731 90.36922537308905, 58.80816691246093 94.57350530700958, 49.98529872815414 102.06426183267115 M67.45138080598691 84.683496196564 C62.77742713809894 89.83428205616003, 57.40624588759057 95.82822538595158, 49.33835644529404 104.84625165928438 M77.32299058070932 84.48879581477186 C72.52357700274096 89.25824543068481, 69.2881769922012 92.9151345183996, 60.146932814167954 105.854651403296 M77.19901746349075 84.87491859434871 C71.21300898549565 92.6481061324051, 64.43528437176454 98.97887436619212, 60.04564765586856 103.19198612687572 M87.60049340308602 82.48171978468854 C85.42530253970244 90.34262417998008, 80.29954186392534 92.06484363904441, 71.37837762125791 102.8076022574104 M87.32982834305751 83.35284516791654 C81.28193368419086 91.69236333590682, 74.14791523631436 100.33755533435591, 71.3027277276829 103.68944335826237 M100.13135238508582 85.82019734780167 C96.12587824945041 89.13727255975556, 92.81979867439912 91.1200387717418, 80.22134604069748 104.10078859912103 M98.2144028269898 84.03136950671173 C94.55851087872928 89.6525053133223, 88.87396213139867 94.26587462934292, 81.59838123596307 104.51487525472811 M107.89908970976812 85.34022036185038 C101.1819225996092 93.30503427922842, 95.72411797804111 98.85868428692635, 91.58310144251708 104.61033217465639 M109.29680731349366 84.74008983666825 C104.33032242636298 89.46227017388566, 99.010688586597 97.31890993679126, 91.43645132796362 103.52059098349011 M112.51247042740044 90.81587562345017 C110.59024899070225 95.73578211876071, 105.92109527221098 100.4051976466502, 102.22986521802189 104.60692006292078 M114.43952298169042 91.44194679149881 C111.10719980101437 94.33027304030007, 107.55609021414159 97.3012155180431, 102.6581662310429 103.68722987976369 M113.99158217361061 102.82494261026757 C113.73803382573628 103.33640758326219, 113.28778310977928 103.60933318674513, 112.93787693325787 104.12252820391633 M113.97255368917205 102.80345117811108 C113.7230624338738 103.12879255247987, 113.30754888504259 103.53119629999647, 113.03403785564439 103.97723749721533" style="stroke: #ffffff; stroke-width: 1; fill: none;"/><path d="M4.1222530653555225 85.05516459756664 C27.66937886093044 84.99491016026438, 52.99387321996988 84.28980617524665, 113.99236658721186 83.70004305248946 M3.874947713194473 83.66771534105055 C30.948344120106746 83.81077105420302, 59.586703072657706 83.81446060082312, 113.60227750274541 83.16165360030878 M114.65003063943757 85.02010243440485 C112.22723846933961 88.02148477877765, 112.17624823365804 92.52405105501799, 113.39615486876426 103.68166038497466 M114.70388473526347 84.50326720191762 C114.11722697092976 91.537077302325, 114.25498611471419 98.1602091320327, 113.52728142113226 104.00757545538787 M112.2626524571714 104.05992446615805 C73.86110215045841 103.47907706569025, 29.710885678090005 106.42794905728336, 5.279155308664811 104.37481031830973 M114.27939432710487 104.3729964704636 C77.13431993002973 104.30912750013829, 38.081809662169846 104.16098626469855, 4.471761884707407 104.15851643271391 M2.809209480498044 103.85340984295604 C2.3350506269669524 98.39644390871456, 2.4536030462292433 88.29418915429291, 2.7862594846317634 83.68821039929698 M4.232249481962599 104.33080091625818 C3.7346913046105947 96.7767325185505, 4.712882662029834 89.99681598413498, 3.9292022757234872 84.66444532795842" style="stroke: #000000; stroke-width: 2; fill: none;"/></g><g transform="translate(27.5,87.5)"><text xmlns="http://www.w3.org/2000/svg" x="31" y="-3" style="font-size: 12px;font-family: Helvetica;" fill="rgb(0, 0, 0)"><tspan xmlns="http://www.w3.org/2000/svg" x="31" dx="0" dy="14" text-anchor="middle">initial action</tspan></text></g><g pointer-events="none"><path d="M14.608369821958666 104.65153178490013 C12.426328655602598 107.36780039442338, 9.61254995543474 109.68482826299874, 3.9377424209189678 114.6014180032296 M14.086981444164925 103.83991472023247 C10.924634093092806 107.07577914157787, 9.15966957237387 108.53272714194313, 4.285923201192024 114.86570957938713 M22.995607946759932 102.12050126585373 C17.319278424656666 108.73883713216084, 13.573757018484049 117.19624711202945, 5.0446753770932675 123.44752415468552 M23.66189573450979 103.10987403731158 C18.811615504825713 112.0040140393157, 11.24716465693392 119.16304903060544, 6.177165387770101 124.84339152759316 M33.52968091418754 104.27531647329222 C28.54574046607465 110.8317915133141, 25.532808203177755 115.83329302133131, 17.63824059481788 125.57434613511327 M34.69511959305462 103.73138879918956 C29.415817915011324 111.79493054780704, 22.65560363480474 118.44028594012482, 18.25624018406691 123.90074750728928 M46.08303501089622 104.06770145809406 C41.981007984174944 107.81029357812497, 38.326180685522345 111.48174382263502, 26.79884154431687 125.14395084365356 M45.01168126334734 103.08681853663944 C42.91819310901511 108.31388459159403, 38.191977449354766 112.62495877187158, 28.009904405664937 123.62179486038771 M57.37394897356129 104.45039466017674 C51.482681577396875 110.58127529234582, 45.64469045756809 116.65542708711791, 40.50461726282486 123.73319630381269 M56.702983513883666 104.2371875469072 C50.727833449909795 109.8271807215114, 45.47866978995137 117.03399201123706, 38.772508249890834 123.61868982265334 M65.82524185762901 105.16359333532245 C62.82507748223017 106.93197146112229, 58.84093006393656 110.87364116708218, 50.48574433682292 123.11155769085781 M67.66019945024452 103.03067070294381 C61.91693321163799 108.82576430508924, 56.138323517641034 114.75449810485127, 49.02946985103423 123.237341630386 M75.71489878650054 103.20863521225738 C71.20121222998804 110.83923055118515, 65.45863584901068 118.19901203540839, 58.655006260023896 125.1786462014938 M78.00015868269548 104.91934924417984 C70.52639055915469 111.39681727170398, 65.9714446513161 116.88396622480948, 60.36270440996465 123.27232635542633 M87.77606176109165 105.52067966236244 C83.06874623933196 111.46733313810472, 76.96837117264425 117.73607030844556, 71.56382954490772 124.67305025962965 M87.73332858999325 103.2784450918015 C80.97409156516592 111.6683562036109, 75.04447308056496 120.15722095839237, 70.03069233021027 124.54659940291756 M97.58826309153073 102.47847636497667 C91.36717860124912 109.57497671035571, 87.77482696832192 118.7735235248121, 79.6058975986337 125.0982545375532 M98.98492288933691 104.82825913747213 C93.54511332671176 109.8338768004836, 88.83571393890186 114.63894915209981, 80.56268804438298 124.04484861490886 M110.02326628784864 102.45401172696512 C106.64726442613795 107.61653523940866, 100.60582867811306 113.56930573213094, 92.90117874985728 123.12782207318762 M108.32251011775227 103.8545223605586 C103.89072462456627 109.58854359159484, 99.26349534378832 114.04386043184499, 91.89631756330651 124.63894756804117 M115.4389049033488 112.10304619972891 C112.32748380521882 114.34183331409136, 109.64610039215736 115.35004719722671, 103.22188660078557 122.9444109128734 M114.68596989853457 109.9049350994209 C109.76170140763348 116.09789959884438, 106.36649555409974 120.30727176112349, 101.87638260410847 124.21413671070361 M113.9469245286005 122.70848570150193 C113.62102042091219 123.28413112107732, 113.21170614412745 123.57561055660292, 112.97786132208957 124.10897841986518 M114.0018017995072 122.77069660889434 C113.67006694422065 123.26206783383152, 113.27077344124248 123.69687641646733, 112.96803502540914 123.96924775068143" style="stroke: #ffffff; stroke-width: 1; fill: none;"/><path d="M2.0578616479032696 105.24790965258993 C40.05752210653863 102.76351658518712, 74.85206151828982 102.86851026429164, 112.31385790917746 102.37117945070872 M4.546356904773135 103.94516674287954 C25.908762578156537 103.92464766219301, 48.812126072077156 104.2048475420097, 113.94599418869755 104.2592906778828 M113.28063802966983 104.04648305677387 C115.7296718647106 112.08990717910876, 112.31756337308965 115.58136053749092, 113.5296449137758 125.49786887145905 M114.22560127269053 103.63662011985477 C113.48568740956301 110.7724010862228, 114.19348330797345 116.99753905342406, 114.85925464935208 124.8852577266595 M115.30751888025229 122.4508897597576 C90.60145786173237 125.51674829324628, 64.34422916177188 123.69410887551666, 2.3074526864440363 122.45994461274422 M113.84447321843446 123.36332017927667 C87.51454559225789 123.66698165171941, 59.34591709098669 123.32104697723749, 3.8840740170280776 123.68236996983629 M2.350821793141818 122.45636722601445 C1.8201546703597828 120.78756777796924, 2.2995421357078727 112.9932473569691, 3.474307175377997 102.41145276913876 M4.2808442029955565 123.83459693170066 C3.2442609680822554 117.59071315214292, 4.437949403092344 110.86599231016477, 4.438534582949367 104.345813972567" style="stroke: #000000; stroke-width: 2; fill: none;"/></g><g transform="translate(19.5,107.5)"><text xmlns="http://www.w3.org/2000/svg" x="39" y="-3" style="font-size: 12px;font-family: Helvetica;" fill="rgb(0, 0, 0)"><tspan xmlns="http://www.w3.org/2000/svg" x="39" dx="0" dy="14" text-anchor="middle">success action</tspan></text></g><g pointer-events="none"><path d="M14.202579713325985 124.86152869175083 C12.632829684153887 127.12859220551256, 8.992237530560324 128.5529401113664, 2.741606960427503 136.4551377072437 M13.629643534622076 123.87622181732416 C10.80095489774109 126.24268723007106, 9.160866440291008 129.26330130942418, 4.609691788146751 135.26419445618293 M22.592429172123595 122.75301950938126 C20.535751940148725 131.12084991317312, 14.088627010011045 133.4417837368811, 6.5473140079268255 145.73169437484776 M24.415701562918233 124.1342441106321 C21.518400097921756 127.80104705537696, 16.697710469146003 132.64151516317406, 7.260234947774185 144.6908085668719 M36.69851158434687 122.66907773729986 C27.9011603593395 129.2374179975099, 26.163420042850724 135.20311967472065, 19.573800683517646 142.91808633819716 M33.99172316135491 123.09213029003814 C28.86099610265694 131.00103247259932, 23.08372035154915 137.77456415125843, 17.985145522705622 143.70716967793453 M46.558181556213455 125.99527709508695 C41.16698701353045 130.96796065932668, 33.42796614593381 139.03892615299696, 28.074935477233627 143.41199131135724 M45.66385270419517 123.75402763011122 C41.74924825509399 127.55937868627136, 37.31257367820755 131.71442061157612, 27.35007586960302 143.99845365202805 M56.39832061105241 125.19241994120857 C50.598015777046584 132.36547629711652, 43.168427922481605 138.6901651356282, 40.62205314864926 142.09483835773156 M57.037242705004914 123.70085120418767 C51.56841427741879 130.42070397401548, 47.03786353815698 136.46642475261072, 39.36290733620915 144.76270557636727 M65.8193828197322 122.74306915695168 C61.63268760440347 129.1473807461165, 57.72851202749706 135.07368519558415, 50.729730837326876 145.55680886366522 M66.70372171858438 124.9127797485506 C61.331976097607175 130.88096686710225, 56.760313869770314 135.7346901607799, 48.58688675526611 143.47325125093792 M77.50350481559886 122.26433358016224 C71.12279607475679 130.79704936040872, 63.53425942995694 140.55890349458363, 61.54248546652347 145.95174124232622 M76.44681786234165 124.8817162973447 C73.19281127863412 127.55077428773048, 68.66164393020891 131.9377112932626, 60.25058598658172 144.25805954860246 M87.32898897531945 122.61492042519654 C79.85934341318509 129.76400054558877, 73.52037508221817 137.35204829837255, 70.0321576957939 143.96784874267618 M87.69157157610907 124.80682652520667 C84.67526954493611 128.86472883968182, 80.32068688416402 133.49938899436174, 70.03216767201451 143.93635743889757 M98.46800744574169 123.44528476084113 C89.6391557559575 131.82755071425544, 84.45077436641498 139.3867321750547, 79.21788901929291 142.4969627914426 M98.66847033480983 124.93306766167416 C93.38744000370345 129.28810901461372, 88.28237320756698 135.14924525040868, 80.86008938501965 143.37655233222335 M109.18082375570438 123.61215823122018 C101.33342731111254 132.18573948975683, 97.40865148679386 140.50224829162605, 90.43744717836557 142.75746048381382 M109.60484508378896 124.8395875704303 C104.87593203770707 127.93673167186648, 100.83261628375672 132.77792347076112, 91.57371296703016 144.98796510907349 M114.06941383089635 128.94184184517363 C111.26985188508681 136.33485852275095, 104.7984435286825 138.0381163013597, 103.71731273323844 143.3913219971651 M113.98266936347635 130.87028252274735 C110.83289084758876 135.47503419582202, 107.20150082665475 139.22732637721276, 103.10783382562178 144.24287489326827 M114.04436409790435 142.689384938851 C113.72735678391001 143.23337336901923, 113.40049706149345 143.5496540204243, 113.04798073973568 144.11647401509023 M114.06211510552396 142.89650181490435 C113.63500730305212 143.33893875440137, 113.30230503585145 143.71170669166605, 112.9183332466725 143.99224507301471" style="stroke: #ffffff; stroke-width: 1; fill: none;"/><path d="M4.152643724573166 122.55048761700878 C38.38466988854785 125.74690092346273, 74.45616639668278 124.69450673993015, 112.19748737533432 124.16062021432113 M3.263105188484485 123.7807280809228 C35.82422024102419 124.73690053331971, 65.99745002485777 124.38317664084715, 114.10414813605706 123.92885283975333 M113.10145762418517 123.9432352203804 C114.21367691389705 129.7842931002577, 113.02588750875928 137.3388812551644, 115.99859832839633 142.24049621172475 M113.72366342609347 124.64256283805912 C114.58611330817251 129.77586822170045, 114.60718901987134 137.85180840608137, 114.37422191282064 143.8355459183837 M112.45982753705042 143.40060474199677 C74.71797273523397 145.10485516405174, 31.335730072743523 146.24429981020552, 5.305645673428014 145.45252183081305 M114.84610202332638 143.33662983609355 C90.68603643360323 143.29439643343548, 65.83841016736567 143.3699896411066, 4.192520615274039 144.30662443735307 M4.095926488310081 145.60316806477377 C5.258919075389805 139.50556114053234, 3.0119728831789097 130.9676601121678, 5.888786996904118 123.22210085923932 M3.5207424869495285 144.32519444006496 C4.633228320815277 137.39190522293902, 4.100031782739855 131.9431919584472, 3.349837969778124 123.81034418424144" style="stroke: #000000; stroke-width: 2; fill: none;"/></g><g transform="translate(28.5,127.5)"><text xmlns="http://www.w3.org/2000/svg" x="30" y="-3" style="font-size: 12px;font-family: Helvetica;" fill="rgb(0, 0, 0)"><tspan xmlns="http://www.w3.org/2000/svg" x="30" dx="0" dy="14" text-anchor="middle">error action</tspan></text></g><g stroke-miterlimit="10" pointer-events="none"><path d="M 114 94 L 183.29 59.82" style="stroke: none; stroke-width: 0; fill: url(#rough-5577915635865861);"/><path d="M112.01712084346632 92.01422653579358 M113.55853236485252 93.44344379185947 C134.08042465950697 82.87669066992495, 153.10907865029705 71.6509031647388, 183.005021074934 60.77210489353597 M112.41411612389089 91.4195344999318 C139.00251761390808 81.12114080465663, 165.910565635909 67.23326810475683, 184.2776915401377 60.53452546637289" style="stroke: #000000; stroke-width: 2; fill: none;"/></g><g stroke-miterlimit="10" pointer-events="none"><path d="M 188 57.49 L 183.27 63.73 L 183.29 59.82 L 180.17 57.45 Z" style="stroke: none; stroke-width: 0; fill: url(#rough-3671038012199069);"/><path d="M189.3409224619784 59.419043223526316 M189.20196225959725 59.2097791485966 C187.6411323147309 60.865471642876436, 186.81652780296426 61.49810526470534, 183.77665289256768 64.45716926512439 M189.3488034760343 59.11640657606642 C187.45556299924613 60.674500522213066, 185.07267239275055 61.896518089832064, 183.39145781614297 63.486805729919126 M183.4790193735052 63.837213086382235 C182.881741428469 62.64838138354857, 182.97383598501904 61.24401218713197, 183.3138991614819 60.15606581593834 M183.23181180005304 63.598508022762275 C183.43536550114854 62.39238020674451, 183.3343482125217 61.25113708671537, 183.27652330834013 59.74052136156149 M183.3176697441106 59.71339964747051 C182.1019276567776 59.2679829623405, 181.2851118054909 58.82449125981778, 180.45874360529098 57.41518788249623 M183.4063176700658 59.647482638150194 C182.02624513326228 58.86103863200108, 180.89008913592835 57.83742051043808, 179.9938543963255 57.58308221071605 M180.82903799780868 57.21149945269092 C181.82403937399258 58.91845894108833, 185.0521097697285 57.73076357036344, 189.73854953221644 60.03385375652762 M180.11040148679078 57.47948272051495 C182.22158199752826 57.73130861566731, 184.28507876269526 57.89069877590603, 189.76721782172078 59.8441473407336" style="stroke: #000000; stroke-width: 2; fill: none;"/></g><g stroke-miterlimit="10" pointer-events="none"><path d="M 114 114 L 186 114" style="stroke: none; stroke-width: 0; fill: url(#rough-5420863189222831);"/><path d="M114.58346320452527 112.09134130894994 M115.77303714966452 111.37171312326163 C134.04229178584598 114.005928875082, 151.43803595696474 113.63859011250189, 185.48995366386532 114.06710500273998 M115.22355704588944 111.4804811998729 C132.25583969177057 112.76598265644023, 148.420523399435 113.06499324233923, 186.08925828882045 114.78314494701632" style="stroke: #000000; stroke-width: 2; fill: none;"/></g><g pointer-events="none"><path d="" style="stroke: #000000; stroke-width: 1; fill: none;"/><path d="M189.98846922495437 111.46380633183489 C190.7396007572334 111.61227077187122, 192.31950823626389 111.3530414166484, 192.64265331294854 111.75117200903618 C192.9657983896332 112.14930260142397, 192.0717811750277 113.25682828899215, 191.9273396850623 113.85258988616162 C191.7828981950969 114.4483514833311, 192.40577799084443 114.7014366953114, 191.77600437315613 115.32574159205302 C191.14623075546783 115.95004648879464, 188.8148474656461 117.62073411866363, 188.14869797893255 117.59841926661132 C187.482548492219 117.576104414559, 188.14816201834122 115.7120505207821, 187.7791074528749 115.1918524797391 C187.4100528874086 114.6716544386961, 186.10969210703888 114.88580666056151, 185.93437058613472 114.47723102035327 C185.75904906523056 114.06865538014503, 186.42735671446047 113.27326247588451, 186.72717832744993 112.74039863848968 C187.0269999404394 112.20753480109485, 187.1506376673417 111.42942473162626, 187.73330026407152 111.28004799598426 C188.31596286080133 111.13067126034227, 189.6815565591668 111.79390510088557, 190.22315390782887 111.84413822463776 C190.76475125649094 111.89437134838995, 190.9092697534149 111.65038345700093, 190.98288435604388 111.58144673849742 M189.2746095509289 112.07067029068433 C190.35430253620603 111.84440635961371, 191.8715614828114 110.76312934213776, 192.5083749235002 110.77971949391726 C193.14518836418904 110.79630964569675, 192.99597995352624 111.35571630146455, 193.09549019506184 112.1702112013613 C193.19500043659744 112.98470610125804, 193.77715546080532 114.94658273581125, 193.10543637271374 115.66668889329772 C192.43371728462216 116.38679505078419, 190.1365895619973 116.09114092204626, 189.06517566651243 116.49084814628011 C187.99376177102755 116.89055537051397, 187.36010184523752 118.47120290741664, 186.6769529998044 118.06493223870079 C185.99380415437128 117.65866156998494, 185.32652336247418 114.98629457147686, 184.9662825939137 114.053224133985 C184.6060418253532 113.12015369649313, 184.00372421733576 112.96452337067824, 184.51550838844153 112.46650961374961 C185.0272925595473 111.96849585682098, 187.17696228758842 111.39599959612988, 188.03698762054836 111.06514159241323 C188.8970129535083 110.73428358869657, 189.6990938632759 110.23395877439798, 189.6756603862011 110.48136159144963 C189.65222690912628 110.72876440850128, 187.93111592028222 112.63303765413443, 187.8963867580995 112.54955849472313" style="stroke: #000000; stroke-width: 2; fill: none;"/></g><g stroke-miterlimit="10" pointer-events="none"><path d="M 114 134 L 186 134" style="stroke: none; stroke-width: 0; fill: url(#rough-5644960734760821);"/><path d="M112.98969669010756 133.59862998935935 M114.93353123642777 133.9679769318742 C130.65277916223155 135.69843268324433, 148.98517999966683 132.1863234141903, 186.29016741623767 134.95912082705811 M112.7764607681696 133.90968403922597 C133.374758159546 133.2778361747792, 153.36108508505876 133.58165640182884, 186.58994747090077 133.57067158110195" style="stroke: #000000; stroke-width: 2; fill: none;"/></g><g pointer-events="none"><path d="" style="stroke: #000000; stroke-width: 1; fill: none;"/><path d="M188.80774741990686 130.41604877024204 C189.34473884289878 130.0821699774258, 189.4908759812823 130.9773750372388, 189.79008647204412 131.37240488517807 C190.08929696280595 131.76743473311734, 190.13682971335436 132.3290890632436, 190.60301036447774 132.7862278578776 C191.06919101560112 133.2433666525116, 192.65169756862775 133.4313294850533, 192.58717037878435 134.11523765298207 C192.52264318894095 134.79914582091084, 190.85466152123863 136.51448257400224, 190.21584722541732 136.8896768654501 C189.57703292959602 137.26487115689795, 189.32092266447145 136.37641671792707, 188.7542846038565 136.3664034016692 C188.18764654324153 136.35639008541133, 187.17010641152493 137.21238498004922, 186.8160188617276 136.82959696790286 C186.46193131193027 136.4468089557565, 186.79328063422426 134.63490648373613, 186.62975930507253 134.06967532879108 C186.4662379759208 133.50444417384603, 185.58238106968238 133.92363219640995, 185.83489088681713 133.4382100382326 C186.0874007039519 132.95278788005524, 187.90301739549315 131.69948255264805, 188.144818207881 131.15714237972688 C188.38661902026885 130.6148022068057, 187.3280040403407 130.19268640255444, 187.28569576114427 130.1841690007055 M188.08228456701843 131.3406595012502 C188.8251812008878 131.35209996237785, 190.18814898055683 130.6601112510491, 190.77461998296596 131.11033308058762 C191.36109098537509 131.56055491012614, 191.7212444966261 133.43853196120637, 191.60111058147328 134.04199047848127 C191.48097666632046 134.64544899575617, 190.26669781555916 134.42060435524633, 190.05381649204898 134.73108418423695 C189.8409351685388 135.04156401322757, 190.5599631015624 135.56734129761907, 190.32382264041217 135.90486945242503 C190.08768217926195 136.242397607231, 189.18434546605155 136.95015353279254, 188.63697372514764 136.75625311307277 C188.08960198424373 136.562352693353, 187.64534644337118 135.49716145985212, 187.03959219498864 134.7414669341064 C186.4338379466061 133.98577240836067, 184.9496953420908 132.72902860989007, 185.00244823485238 132.22208595859846 C185.05520112761397 131.71514330730685, 186.83754572090444 131.7257521037733, 187.35610955155815 131.69981102635666 C187.87467338221185 131.67386994894002, 187.7989123665104 132.0466756490316, 188.1138312187746 132.06643949409857 C188.42875007103882 132.08620333916554, 189.28729671515902 132.01967240736357, 189.2456226651434 131.81839409675842" style="stroke: #000000; stroke-width: 2; fill: none;"/></g><g transform="translate(29.5,57.5)"><text xmlns="http://www.w3.org/2000/svg" x="24" y="-3" style="font-size: 12px;font-family: Helvetica;" fill="rgb(0, 0, 0)"><tspan xmlns="http://www.w3.org/2000/svg" x="24" dx="0" dy="14" text-anchor="middle">Promise</tspan></text></g></svg>